<svg fill="none" viewBox="0 0 1115 41" xmlns="http://www.w3.org/2000/svg"><path d="m54.0661 17.9416c-10.1475.329-20.5292 2.6763-30.0048 4.8229-4.3266.9785-8.4637 1.9152-12.308 2.5982-7.09771 1.3103-11.7533 4.4855-11.7533 8.0121v6.9443h1114.96v-31.97299c0-4.18166-7.06-7.658021-16.12-7.925647h-.13c-16.65-.47671-49.3-1.413403-81.45 3.066557-12.67 1.73957-25.347 4.29596-38.023 6.85518-20.055 4.045-40.11 8.0845-60.168 8.9013-13.072.5018-26.298-.8809-39.587-2.272-10.613-1.1151-21.271-2.2302-31.928-2.3891-13.382-.2035-26.604 1.0872-39.846 2.3807-10.518 1.0287-21.048 2.0546-31.672 2.3362-32.728 1.2656-65.457 1.5611-98.188-2.1438-11.015-1.2657-22.091-2.9997-33.203-4.7392-21.404-3.34537-42.948-6.72136-64.492-6.81894-28.246-.12823-56.126 5.37204-84.272 10.92804-4.46.881-8.936 1.7563-13.428 2.6261-24 4.8145-48.006 7.5633-71.518 9.7796-24 2.2302-54.044 2.7877-72.011 2.7877-10.315 0-30.203-1.2433-51.468-2.5759-15.768-.9868-32.291-2.0211-46.227-2.6316-15.23-.6635-30.465-.789-45.644-.9144-17.441-.145-34.82-.2788-52.054-1.2489-13.827-.7611-27.649-2.0296-40.815-3.2394-18.0122-1.656-34.7863-3.1976-48.6499-3.167z" fill="#2f2f2f"/></svg>