<svg fill="none" viewBox="0 0 1871 1394" xmlns="http://www.w3.org/2000/svg"><path d="m1631.63 875.14c.92-26.65-2.27-50.99-12.26-74.24-5.32-12.38-12.63-23.53-21.37-33.57-17.94-20.61-39.41-37.03-62.65-51.35-43.85-27.03-91.65-44.72-140.57-59.67-27.74-8.48-56.09-14.81-84.24-21.8-48.73-12.11-97.19-25.18-143.42-45.11-34.01-14.67-66.15-32.65-95.19-55.98-16.96-13.62-33.12-27.99-46.74-44.97-25.319-31.58-41.819-67.31-50.219-106.97-5.53-26.1-6.76-52.48-4.43-78.75 3.28-36.9 11.51-72.8 27.12-106.78 12.109-26.36 26.479-51.24 44.689-73.87 12.8-15.91 27.12-30.2499 42.75-43.3799 17.14-14.4 35.34-27.2201 54.86-38.2001 27.06-15.21 55.78-25.9899 86.1-32.45994 18.05-3.85 36.38-5.42 54.83-6.56 22.14-1.370002 44.2-.530023 66.23.50998 14.31.67 28.61 3.02 42.86 5.25 21.32 3.33996 42.37 7.72006 62.99 13.90006 30.72 9.22 59.88 22.46 88.97 35.84 25.62 11.79 51.92 21.9899 79.29 28.8299 15.14 3.79 30.83 5.99 46.52 4.75 24.21-1.92 47.6-7.89 70.49-15.94 19.08-6.71 36.9-16.22 55.27-24.51 9.95-4.49 19.73-10.09 31.22-9.93 6.94.1 10.47 3.8001 10.54 10.6401.17 16.14-7.79 29.1099-16.55 41.6099-14.78 21.11-35.24 35.21-58.28 45.92-21.6 10.04-44.36 15.77-67.81 19.85-30.1 5.24-60.29 4.1-90.43 2.8-15.49-.67-31-3.33-46.48-5.22-13.96-1.71-27.78-4.15-41.67-6.14-11.95-1.71-23.75-4.46-35.66-6.49-7.66-1.3-15.4-2.19-23.12-3.16-15.66-1.97-31.31-4.01-47-5.74-7.99-.88-16.08-1.16-24.09-1.57-21.33-1.08-42.77-2.18-64.07-1.16-38.04 1.82-75.95 5.68-110.86 22.86-27.12 13.35-48.31 32.77-59.3 61.68-3.5 9.2-5.24 18.87-6.32 28.74-3.67 33.54 4.94 63.82 23.12 91.78 15.77 24.25 38.46 39.23 65.29 48.48 28.02 9.66 56.84 16.31 85.75 22.73 17.33 3.85 34.79 7.03 52.15 10.66 16.81 3.51 33.93 5.45 50.81 8.62 20.22 3.8 40.43 7.79 60.47 12.43 26.82 6.21 53.38 13.53 79.08 23.51 35.18 13.66 68.68 30.64 100.63 50.84 21.2 13.4 41.26 28.25 59.82 44.96 20.13 18.13 38.72 37.76 55.24 59.4 14 18.33 27.07 37.18 38.23 57.35 16.66 30.11 29.3 61.88 38.83 94.9 5.9 20.43 10.06 41.19 12.51 62.35 2.17 18.75 2.93 37.57 4.35 56.35 1.21 16.07-1.04 31.74-1.77 47.53-.76 16.39-3.94 32.71-6.45 49.02-4.22 27.49-10.42 54.48-17.84 81.23-8.23 29.65-18.56 58.5-31.88 86.31-11.9 24.84-25.43 48.66-41.99 70.67-21.84 29.04-48.31 52.99-78.93 72.68-40.7 26.18-83.81 46.91-130.21 60.69-23.21 6.89-46.95 11.13-70.89 14.64-17.3 2.54-34.71 3.86-52.03 5.97-11.14 1.36-22.43 1.42-33.65 2.11-22.59 1.4-45.22 2.17-67.82 1.05-16.92-.84-33.82-2.19-50.68-4.3-26.91-3.37-53.05-9.48-78.39-18.92-42.32-15.77-80.04-39.45-115.44-67.27-23.35-18.35-44.47-38.96-64.37-60.84-25.12-27.62-46.749-57.88-65.499-90.17-17.83-30.7-32.37-62.81-41.88-97.1-5.75-20.73-9.54-41.77-12.17-63.15-2.8-22.74-3.65-45.46-2.12-68.2 2.21-32.91 9.78-64.47 26.57-93.35 22.24-38.27 54.72-62.11 98.309-70.9 15.15-3.05 30.38-4.08 45.59-2.49 26.1 2.71 50.45 11.38 73.52 23.84 25.47 13.76 47.29 32 67.15 52.94 33.95 35.79 53.15 79.32 67.34 125.66 7.84 25.6 13.95 51.6 18.06 78.02 1.86 11.96 3.08 24.07 3.67 36.24.36 7.44.41 14.88.77 22.31.26 5.47 5.69 6.79 9.48 8.34 5.35 2.2 11.26 3.21 17.02 4.22 19.01 3.33 38.18 5.38 57.5 4.78 33.06-1.03 65.28-6.42 96.18-18.79 23.75-9.51 45.41-22.58 65.41-38.29 29.66-23.31 53.67-51.06 65.72-87.71 6.06-18.44 9.74-37.3 12.02-56.58 1.02-8.63 1.01-17.19 1.43-24.2z" fill="#311d2c"/><path d="m384.139 302.26c-2.17 2-1.43 4.67-1.51 7.09-1.26 38.79-11.19 75.55-26.09 111.13-11.75 28.05-26.52 54.42-44.61 78.88-19.43 26.26-42.07 49.05-70.76 65.33-17.55 9.96-36.2 16.02-56.36 18.08-44.51 4.56-82.67-9.68-116.6795-37.65-31.35-25.78-49.21-59.62-60.22003-97.87-5.16-17.93-7.370004-36.27-7.240004-54.72.19-28.23 5.490004-55.84 13.920034-82.73 14.6-46.59 37.58-88.74 68.14-126.84 17.5695-21.91 36.4995-42.47 57.9595-60.61 39.15-33.0999 83.52-55.9399 133.22-68.7899 20.36-5.27 40.9-9.37 61.67-12.14 10.13-1.35 20.48-1.79 30.74-2.5 18.85-1.32 37.62.2399 56.42.1899 14.48-.04 28.781 2.5801 43.14 4.2901 26.34 3.14 52.04 9.01 77.44 16.41 21.81 6.36 42.97 14.53 63.57 24.01 28.34 13.04 55.39 28.3899 80.86 46.5399 25.39 18.1 48.55 38.7 69.02 62.1 26.69 30.52 47.26 64.98 62.92 102.42 9.59 22.93 17.21 46.45 22.32 70.74 2.88 13.69 5.35 27.46 6.34 41.49.91 12.78 1.87 25.53 1.48 38.34-1.13 37.14-8.57 72.86-22.59 107.39-15.09 37.15-35.17 71.26-60.12 102.48-17.25 21.59-35.92 42-56.47 60.53-46.21 41.64-96.88 77.13-150.44 108.63-39.26 23.09-79.39 44.62-119.44 66.28-36.22 19.6-71.64 40.5-104.85 64.93-24.79 18.23-47.92 38.51-67.94 61.87-19.38 22.61-36.61 46.79-45.46 75.93-3.38 11.12-6.21 22.5-6.04 33.91.37 24.7 7.91 47.48 21.95 68.02 19.5 28.51 47.43 44.5 79.72 54.09 17.19 5.11 34.69 8.59 52.46 11.12 16.65 2.37 33.35 3.48 50.08 4.78 9.38.73 18.73 1.42 28.11 1.38 22.95-.08 45.95-.23 68.77-2.52 33.37-3.35 66.49-8.46 98.49-19.15 39.91-13.32 76.86-32.34 110.46-57.64 19.37-14.59 36.09-32.04 52.44-49.94 11.47-12.56 22.01-26.14 35.92-36.37 5.08-3.74 10.8-5.65 16.79-6.74 7.69-1.39 14.38 5.03 14.61 13.6.36 13.34-3.23 25.93-7.51 38.35-10.85 31.46-27.99 59.48-47.66 86.05-15.33 20.71-32.51 39.84-51.67 57.03-31.58 28.35-66.699 51.15-105.98 67.72-32.95 13.9-67.21 22.72-102.26 28.62-13.04 2.2-26.25 3.73-39.52 4.75-17.67 1.35-35.309 2.37-53.04 2.81-10.929.27-21.86.61-32.78.32-20.62-.54-41.15-2.37-61.67-4.58-16.98-1.82-33.87-4.05-50.59-7.39-35.109-7.01-68.67-18.4-99.93-36.15-27.1-15.39-52.58-33.15-76.07-53.58-28.3195-24.62-50.4095-54.06-66.5595-88.04-10.96-23.07-18.31-47.17-22-72.33-3.39-23.06-3.47-46.5-1.09-69.49 6.9-66.46 30.13-126.98 70.43-180.55 9.8995-13.16 20.1695-26.38 32.9995-36.73 31.15-25.12 56.89-55.91 87.18-81.89 24.53-21.05 50.35-40.41 77.25-58.3 40.84-27.15 82.061-53.71 124.17-78.87 3.731 8.95 2.69 12.97-4.37 18.87-8.07 6.74-16.18 13.42-24.39 19.98-1.83 1.46-3.69 2.83-3.27 5.58-4.03 5.49-10.25 8.05-15.86 11.17-9.45 5.26-17.6 12.42-27.04 17.65-2.89 1.6-2.22 2.84.26 4.41 8.86 5.6 18.55 4.87 28.45 4.84 15.261-.05 26.02-9.15 37.61-16.81 14.59-9.65 30.04-17.88 44.75-27.34 1.63-1.05 3.42-1.87 5.4-.71 1.66 2.71-.59 3.86-2.19 5.05-24.77 18.46-49.81 36.53-77.46 50.59-3.58 1.82-6.8 4.37-10.74 5.5-1.98.57-4.03 1.78-5.71-.59 2.08-4.01 2.421-4.32 8.25-7.64-3.679 1.53-7.9.88-12.02.77-4.24-.11-8.41-.95-12.31-2.73-2.45-1.12-5.12-2.03-7.11-3.79-5.41-4.8-10.26-4.09-15.89-.04-19.66 14.14-40.43 26.62-59.9 41.09-16.21 12.05-31.89 24.69-47.43 37.55-5.26 4.36-4.7 4.59-.02 9.54 9.61 10.19 22 10.6 34.48 11.22 2.54.13 4.22-1.6 5.9-3.21 27.42-26.2 57.591-49.07 87.77-71.9 1.62-1.23 3.16-3.01 5.63-2.08 1.33 2.61-.94 3.81-2.2 5.25-8.28 9.48-15.97 19.47-24.86 28.41-1.71 1.72-2.49 3.78-2.87 6.08-4.76 6.65-11.85 10.71-17.87 15.96-3.56 1.34-5.88 4.35-8.5 6.8-8.01 7.47-17.12 13.62-24.76 21.56-9.17 9.54-19.2 18.23-28.59 27.58-11.05 11-21.14 22.85-30.97 34.93-4.48 5.51-10.05 10.12-13.49 16.48-14.82 21.12-29.4 42.4-41.84 65.04-7.23 13.16-13.19 26.82-18.23 41.05-5.44 15.36-8.6 31.16-11.08 47.04-1.79 11.46-2.6 23.24-1.12 35.06 1.04 8.34 1.07 16.85 1.45 25.29.6 13.34 3.48 26.33 7.33 39.05 6.98 23.05 19.78 42.83 35.1 61.14 14.84 17.74 30.83 34.44 47.85 50.01 19.92 18.22 41.74 34.02 65.42 47.18 23.1 12.83 46.98 23.91 71.9 32.66 24.87 8.73 50.15 15.83 76.05 21.15 19.47 3.99 39.14 5.85 58.73 8.3 10.76 1.34 21.77-1.88 32.6-3.48 40.76-6.03 80.28-16.62 117.95-33.5 19.38-8.68 37.28-20.04 54.77-31.97 24.62-16.79 45.75-37.46 65.94-59.29 22.44-24.26 40.29-51.52 54.9-80.92 5.78-11.64 10.49-23.98 12.61-37.02.3-1.84 1.58-4.3-.15-5.4-2.12-1.35-3.78 1.18-5.34 2.36-6.51 4.93-11.28 11.57-16.46 17.73-14.49 17.24-29.02 34.51-45.25 50.07-23.99 23-50.8 42.28-80.77 57.03-14.32 7.05-28.5 14.29-43.44 20.01-24.56 9.39-49.96 15.4-75.77 20.09-18.98 3.44-38.19 4.24-57.33 5.87-13.22 1.12-26.5 3.02-39.69 2.07-27.41-1.97-54.92.03-82.36-3.83-18.3-2.58-36.6-5.03-54.51-9.34-30.97-7.45-60.21-19.08-84.27-40.91-12.04-10.93-21.98-23.6-30.04-37.78-13.6-23.93-21.63-49.37-20.3-77.09.76-15.78 3.54-31.31 9.68-46.08 3.92-9.41 7.72-18.83 12.53-27.87 12.66-23.78 28.69-45.06 47.04-64.63 11.86-12.64 24.42-24.65 37.97-35.41 16.86-13.38 34.17-26.15 52.28-37.94 18.25-11.89 37.16-22.59 55.9-33.58 15.76-9.25 32.32-17.09 48.32-25.92 31.33-17.3 62.92-34.1 93.83-52.18 32.94-19.27 65.011-39.81 95.42-62.76 21.63-16.32 42.54-33.59 62.17-52.41 24.28-23.27 46-48.55 65.16-76.16 12.88-18.56 23.72-38.14 32.76-58.81 9.45-21.61 16.14-43.95 20.19-67.23 3.18-18.27 3.26-36.5 3.47-54.95.29-25.36-4.14-49.8-10.29-74.02-12.43-48.9-33.68-93.56-65.09-133.36-23.69-30.02-51.45-55.35-82.83-77.12-31.82-22.08-66.14-39.17-102.03-53.21-12.68-4.96-25.78-8.95-38.92-12.75-22.59-6.54-45.61-10.7999-68.83-14.0999-6.45-.92-13.15-.7401-19.48-1.9301-21.78-4.09-43.73-1.4399-65.58-2.37-17.7-.75-35.27 2.3401-52.73 5.2401-29.91 4.96-59.16 12.37-87.21 24.02-18 7.48-34.97 16.9199-51.17 27.7299-23.48 15.66-44.74 33.96-64.1 54.45-16.68 17.66-31.5995 36.71-45.0595 56.97-12.18 18.34-22.94 37.41-31.51 57.66-11.77 27.82-19.54 56.88-22.81 86.79-2.56 23.39-.45 46.86 5.99 69.78 5.88 20.95 14.3 40.64 27.08 58.33 6.81 9.42 15.39 17.22 24.01 24.88 18.02 16.02 39.1195 26.39 62.3595 32.4 15.13 3.92 30.62 3.5 45.91 1.83 28.99-3.17 53.11-17.2 74.77-35.87 29.87-25.74 52.38-57.14 70.66-91.87 15.96-30.33 27.5-62.14 34.79-95.64 3.21-14.75 4.61-29.55 5.63-44.53.71-10.41 1.061-20.67-.7-31.23-.049-.07-.38-.25-.8-.18-2.11.34-4.599 3.4-6.11.84-1.31-2.21 1.76-3.94 3.6-5.17 6.17-4.12 12.04-9.06 20.19-8.58 1.26 2.12-.44 3.4-1.38 4.9-7.769 2.4-7.28 7.97-6.09 14.44 1.89 10.3 3.03 20.73 2.04 31.25-.52 1.71-.32 3.44-.16 5.18z" fill="#311d2c"/><path d="m387.939 669.73c-2.07-2.36-1.85-2.99 1.32-5.55 7.98-6.47 15.58-13.48 23.99-19.34 5.68-3.96 8.44-8.16 6.74-14.99-.31-1.26-.04-2.67-.04-4.01 18.54-11.4 37.23-22.59 55.59-34.28 15.53-9.89 30.78-20.22 45.9-30.72 2.65-1.84 4.9-4.32 7.94-5.71 9.26-5.18 17.24-12.09 25.39-18.76 22.57-18.45 42.81-39.14 59.8-62.9 9.58-13.4 17.43-27.49 20.35-44.09 1.53-8.72-.63-16.82-1.98-25.1-1.61-9.86-3.99-19.59-6.05-29.37-1.34-6.39-4.18-11.74-8.85-16.46-7.82-7.91-13.93-17.32-21.8-25.29-8.88-9-19.14-15.3-31-19.25-18.34-9.06-37.42-16.08-57.5-20.08-7.77-1.55-15.6-2.91-23.59-3.28-13.35-.61-26.65-1.12-40 .37-19.2 2.14-38.15 5.37-56.71 10.8-1.06.31-2.2.37-3.3.55-1.33-.93-3.31-1.69-.94-3.59 1.47-3.12 4.52-4.05 7.38-5.1 21.21-7.79 43.15-12.46 65.59-14.81 5.33-.56 10.67-1.1 16.06-1.34 19.17-.84 37.93 2.24 56.42 6.44 12.47 2.83 24.88 6.58 36.43 12.5 5.77 2.96 6.58 2.37 10.11-3 6.49-9.84 8.44-21.37 12.48-32.12.47-1.25.73-2.59 1.51-3.72 3.53-1.77 5.92-.26 7.8 2.7-3.35 6.08-4.34 13.03-7.06 19.38-2.74 6.38-5.12 12.91-9.38 18.45-2.68 3.47-2.14 5.43 1.65 7.64 20.84 12.16 37.56 28.72 50.32 49.11 8.39 13.41 13.02 28.23 14.27 44.06.78 9.79.84 9.8 9.67 6.11 7.71-3.22 14.1-8.59 21.06-13.04 1.53-.98 2.76-2.9 5.05-1.8.96 1.28 1.03 2.71.79 4.21-3.73 7.38-10.05 11.98-17.24 15.41-4.5 2.14-9.14 4.08-13.96 5.42-4.13 1.15-6.06 3.91-6.45 7.88-1.96 20.1-10.09 38.08-19.33 55.61-10.56 20.04-24.48 37.51-40.64 53.44-15.35 15.13-31.24 29.53-48.51 42.4-.91.68-2.18 1.22-2.11 2.51.1 1.79 1.77 1.8 3.03 2.06 2.64.55 5.26 1.12 7.88 1.76 3.48 1.29 6.96 2.43 10.69.96 7.62-1.98 15.28-3.81 22.89-5.83 2.02-.54 4.01-1.46 6.17-.57 1.82 1.61.24 2.91-.67 3.81-4.08 4.02-8.25 7.98-14.14 9.29-7.59 1.73-15.27 2.25-23.02 1.63-5.67-1.13-11.23-2.79-16.54-5.03-3.81-1.6-6.72-1.2-10.1 1.2-30.49 21.57-62.65 40.56-94.34 60.27-9.96 6.19-20.06 12.16-29.81 18.71-2.82 1.89-5.5 4.28-9.2 4.44z" fill="#2d1722"/><path d="m565.248 313.91c10.61.48 18.67 6.43 26.33 12.8 12.32 10.26 20.99 23.9 31.84 35.55 4.52 4.86 4.85 11.94 6.13 18.34 2.45 12.18 6.07 24.25 7.18 36.54 1.43 15.88-4.01 30.49-12.34 44.05-13.66 22.23-30.42 41.95-49.5 59.57-11.79 10.88-23.94 21.49-37.22 30.64-2.53 1.74-5.03 3.56-8.27 3.72 12.13-10.22 24.78-19.88 36.27-30.77 23.01-21.81 43.22-45.82 55.26-75.78 4.85-12.06 8.4-24.61 8.71-37.35.48-19.86-4.39-38.61-16.66-55.09-12.32-16.53-26.97-30.17-45.02-40.15-.98-.54-1.8-1.38-2.7-2.07z" fill="#311d2c"/><path d="m1678.98 833.4c1.19-13.38 1.24-26.73.42-40.18-.87-14.12-2.59-28.04-6-41.69-6.19-24.81-16.53-47.65-31.96-68.31-19.13-25.61-43.51-45.12-70.11-62.06-42.36-26.98-88.19-46.83-134.81-65.17-41.29-16.24-82.84-31.76-124.44-47.16-26.6-9.84-53.31-19.33-79.73-29.67-22.74-8.89-43.05-21.85-64.04-33.83-13.85-7.91-26.17-17.44-36.42-29.39-21.86-25.49-38.57-53.71-45.67-87.16-4.46-21.03-5.23-42.16-3.38-63.31 2.68-30.67 9.28-60.58 25.06-87.44 30.07-51.19 73.45-84.53 132.32-96.55 19.21-3.92 38.53-6.16 58.13-5.47 23.05.81 45.89 3.19 68.62 7.42 19.69 3.66 39.32 7.63 59 11.32 20.96 3.93 41.86 8.16 62.82 12.1 18.12 3.41 36.31 6.45 54.42 9.95 16.74 3.23 33.36 7.03 50.1 10.24 17.3 3.32 34.43 7.43 52.06 9.24 14.76 1.51 29.5 1.77 44.26 1.77 7.37 0 14.75-1.39 22.21-1.69-9.47 2.63-18.6 6.02-28.64 6.86-15.83 1.33-31.63 2.96-47.52 2.65-7.09-.14-14.15-1.49-21.23-1.62-7.65-.14-15.26 1.22-22.98.91-8.84-.36-17.49-1.5-25.83-4.46-5.12-1.82-10.53-1.87-15.76-2.4-12.51-1.27-24.67-4.25-37-6.42-13.43-2.36-26.74-5.35-40.4-6.51-16.71-1.43-33.31-4.21-50.02-5.45-10.32-.76-20.43-2.73-30.71-3.69-20.9-1.95-41.83-1.83-62.74-2-19.63-.16-39.13 2.36-58.64 4.78-27.06 3.35-52.42 11.55-76.66 23.67-26.15 13.08-44.44 32.82-53.29 61.22-4.63 14.84-10.37 29.35-14.76 44.3-1.29 4.38-1 8.8-.85 13.17 1.11 32.36 10.37 62.21 28.11 89.35 18.8 28.77 45.84 46.52 77.7 57.64 25.6 8.93 51.87 15.42 78.27 21.53 21.03 4.87 42.19 9.07 63.35 13.28 16.54 3.29 33.29 5.49 49.85 8.67 17.29 3.33 34.52 6.99 51.67 10.97 27.01 6.27 53.72 13.62 79.71 23.41 45.5 17.13 88.22 39.51 127.37 68.36 24.92 18.36 47.44 39.37 67.78 62.83 19.11 22.06 36.16 45.54 50.61 70.8 14.63 25.59 25.03 53.11 33.73 81.22 7.45 24.08 12.21 48.74 15.02 73.82 2.67 23.8 4.87 47.61 3.37 71.53-1.08 17.3-2.95 34.53-5.43 51.74-2.95 20.5-6.42 40.87-11.27 60.97-8.53 35.31-18.44 70.22-33.7 103.35-12.27 26.64-26.23 52.29-44.03 75.73-14.55 19.16-30.8 36.51-49.79 51.46-34.47 27.13-72.57 47.68-112.85 64.59-28.39 11.92-57.77 20.36-88.07 25.57-14.08 2.42-28.25 4.29-42.5 5.64-16.08 1.52-32.1 3.61-48.17 5.24-5.31.54-10.69.68-16.01.92-27.45 1.28-55 1.46-82.39-.31-45.62-2.95-89.9-12.55-131.57-32.06-30.42-14.25-58.3-32.55-84.83-53.13-24.09-18.69-45.56-40.07-65.94-62.54-20.15-22.22-37.588-46.61-53.538-72.02-23.93-38.13-41.46-78.97-51.18-122.98-3.4-15.42-5.16-31.12-7.01-46.83-2.23-18.98-2.52-37.96-1.18-56.84 2.6-36.6 11.42-71.4 35.12-100.75 21.89-27.11 49.888-43.7 84.538-49.39 33.12-5.44 63.82 2.17 93.62 15.58 34.07 15.33 61.79 38.93 85.71 67.17 14.77 17.44 26.34 36.97 35.86 57.74 18.84 41.08 31.47 84.05 39.98 128.36 2.29 11.91 3.82 23.71 2.72 35.82-2.38 26.18-4.69 52.36-14.57 77.12-.91 2.27-1.48 4.74-1.78 7.17-.3 2.46-.07 4.99-.07 7.96 6.55-2.54 7.65-9.12 11.09-13.75 6.26 1.93 11.88 5.32 17.82 7.97 16.94 7.56 34.62 12.28 52.68 16.38 22.46 5.1 45.09 5.11 67.72 4.24 22.79-.87 45.13-4.84 65.48-16.21 13.46-7.51 28.3-12.13 41.63-19.91 30.19-17.62 57.33-38.67 77.63-67.69 9.85-14.08 17.97-28.99 24.95-44.69 4.38-9.84 9.01-19.62 12.49-29.76 5.88-17.09 9.28-34.85 12.6-52.65 3.59-19.26 7.94-38.44 10.62-57.82 2.27-16.48 3.28-33.27 1.34-50-.11-.93-.62-1.84-.08-2.78z" fill="#f8b86c"/><path d="m988.182 296.49c-.09-10.33 2.19-20.39 4.23-30.37 4.05-19.88 9.868-39.31 17.968-57.98 10.58-24.39 23.93-47.12 40.29-68.09 9.58-12.29 20.33-23.47 31.61-34.2 9.44-8.97 19.6-17.01 31.09-25.6-2.15 20.34 5.08 35.91 20.19 47.75-24.49 24.41-41.89 52.54-51.66 85.23-4.5 15.08-7.74 30.42-9.38 46.14-.57 5.51-1.17 10.99-1.22 16.53-.02 1.99-.37 3.13-2.8 3.26-14.89.81-29.69 1.01-44.21-3.35-5.06-1.52-9.46-4.2-13.59-7.19-3.98-2.88-8.03-4.81-12.968-4.75 1.9 9.59 15.018 20.13 25.898 22.06 14.18 2.52 28.25 1.63 42.09-1.09 5.99-1.18 5.56 1.11 5.33 4.97-1.3 21.83 2.94 42.87 9.96 63.33 7.44 21.69 18.71 41.38 32.83 59.48 5.7 7.3 11.91 14.08 18.65 20.37 2.77 2.59 2.7 4.19.01 6.89-8.67 8.75-17.83 16.88-27.84 24.05-3.8 1.77-7.02.22-10.22-1.73-9.75-5.94-18.14-13.64-26.54-21.22-20.56-18.54-37.55-40.09-51.7-63.83-9.73-16.32-16.398-33.91-19.738-52.65-1.73-9.67-3.99-19.13-8.27-28.02z" fill="#ebcbc4"/><path d="m1678.98 833.4c1.91 3.02 2.39 6.28 2.52 9.86.52 13.46.16 27.05-1.78 40.19-2.28 15.42-4.05 31.06-8.27 46.17-3.09 11.07-3.73 22.56-6.28 33.73-4.77 20.87-10.89 41.17-20.3 60.56-5.52 11.35-10.74 22.79-17.01 33.79-5.54 9.71-12.37 18.41-19.28 27.03-11.83 14.74-25.95 27.11-41.37 38.03-16.14 11.43-32.78 21.82-51.41 28.93-11.09 4.23-20.91 11.4-32.23 15.25-12.88 4.38-26.07 7.2-39.63 8.72-15.17 1.71-30.35 1.38-45.49.88-22.99-.77-45.29-5.82-67.14-13.04-12.38-4.09-24.38-8.87-35.52-15.67-.63-.39-1.12-1.01-1.68-1.52-.06-.3-.1-.59-.13-.89-1.01-3.28-.41-6.02 2.64-7.95.74-2.32 1.47-4.65 2.21-6.97-.54-6.83 1.61-13.18 3.43-19.6.08-2.24.79-4.3 1.81-6.27 1.78.87 3.57 1.75 5.36 2.62 7.45-.55 14.29 2.5 21.42 3.77 8.68 1.54 17.24 4.63 25.92 5.08 11.27.59 22.63 2.5 33.92.91 5.09-.71 9.96.14 14.93.29 23.05.71 45.64-2.04 67.73-8.77 19.94-6.07 39.41-13.15 57.04-24.6 3-1.95 6.21-3.88 9.95-4.37 10.33-5.4 19.57-12.43 28.48-19.82 10.32-8.56 20.33-17.45 29.14-27.7 7.61-8.85 14.17-18.42 20.83-27.93 1.5-2.14 4.03-3.67 4.46-6.55 1.46-5.51 5.25-9.74 8.32-14.27 8.61-12.72 15.96-26.05 21.59-40.34.75-1.89.91-4.21 3.16-5.21 4.75-8.33 6.42-17.73 9.1-26.76 5.06-17.08 7.94-34.65 11.05-52.14 1.49-8.36 1.72-16.95 2.52-25.44z" fill="#f2852f"/><path d="m1253.08 531.16c-11.27 16.17-25.8 28.68-43.15 37.85-4.25 2.25-7.65 5.63-11.98 7.8-2.86 1.43-5.05 1.86-7.99.73-38.68-14.88-75.4-33.25-108.07-59.18-8.87-7.04-17.17-14.67-25.7-22.08-.52-.45-.79-1.2-1.55-2.4 20.71-4.61 40.14-11.14 56.05-25.27 16.4 8.3 32.96 16.28 50.18 22.71 9.87 3.68 19.61 7.81 29.9 10.27 10.72 2.56 20.24 8.13 30.39 12.12 8.01 3.15 15.53 7.49 23.42 11.01 3.24 1.44 6.83 2.76 8.48 6.44z" fill="#d9a297"/><path d="m1558.82 629.43c5.31 2.3 10.07 5.42 14.67 9.59-17.08 6.94-31.68 17.07-44.05 30.41-3.14 3.39-6.09 6.92-8.32 10.94-1.36 2.45-2.54 2.47-4.92 1.21-34.99-18.48-72.04-31.82-109.71-43.52-11.94-3.71-24.06-6.93-36.21-9.85-3.65-.88-3.32-1.91-2.04-4.5 3.57-7.25 8.14-13.9 13.52-19.78 6.87-7.49 14.2-14.6 22.11-21.05 4.6-.99 8.76.97 12.83 2.38 13.8 4.77 28.02 8.1 42.04 12.03 17.55 4.91 35.18 9.67 52.52 15.18 14.37 4.56 29.45 7.51 42.7 15.35 1.42.84 3.06 1.62 4.86 1.63z" fill="#d9a297"/><path d="m1494.96 98.0602c-16.88-3.09-32.98-5.2601-48.86-8.8201-9.96-2.23-20.07-3.7699-30.1-5.6799-16.7-3.1801-33.34-6.6601-50.09-9.5401-11.22-1.92-22.6-2.8099-33.86-4.5399-7.41-1.14-14.8-1.75-22.28-1.63-2.54.04-3.41-1.13-4.1-3.66-3-10.99.9-20.61 5.28-30.21.63-1.38 1.25-2.77 1.89-4.14 4.87-10.46 8.28-12.25 19.53-9.47 2.66.66 5.24.9999 7.93 1.0299 16.81.22 33.27 3.26 49.84 5.71 18.61 2.74 36.79 7.07 54.89 12 19.45 5.3 38.02 12.9501 56.83 20.0201 3.33 1.25 4.04 2.99 1.78 5.82-5.63 7.06-7.64 15.61-9.73 24.09-.64 2.59-.27 5.3399 1.06 9.02z" fill="#ebcbc4"/><path d="m1313.17 19c-5.26 8.54-10.05 15.71-12.73 23.84-2.61 7.93-5.15 16.03-1.57 24.55-9.66.94-18.82.09-28.03.78-20.81 1.55-41.03 5.51-60.77 11.97-26.55 8.69-49.86 22.98-70.1 42.18-3.22 3.05-4.37 2.6-6.45-1.01-4.55-7.92-10.13-15.35-11.22-24.77-.72-6.23-.98-12.5-1.45-18.76-.16-2.1.67-3.36 2.53-4.65 32.61-22.7 68.35-38.21 107.19-46.37 14.67-3.08 29.54-5.03 44.6-5.46 12.19-.34 24.36-1.45 37.99-2.31z" fill="#ebcbc4"/><path d="m1396.27 580.81c-12.25 9.32-23.4 19.74-32.15 32.52-1.4 2.05-3.29 4.14-3.69 6.43-.94 5.39-4.32 5.06-8.05 4.14-21.11-5.21-42.24-10.38-63.3-15.78-23.05-5.9-46.13-11.68-68.51-19.91-7.47-2.75-15.33-4.39-23.05-8.01.91-.63 1.52-1.4 2.01-1.34 14.61 1.92 24.79-6.7 35.08-14.85 10.77-8.53 17.76-20.3 26.09-30.92 13.32 3.78 25.66 10.15 38.73 14.68 16.87 5.84 33.59 12.08 50.58 17.61 12.99 4.22 26.09 7.96 39.17 11.83 2.51.74 5.23 1.41 7.08 3.6z" fill="#d9a297"/><path d="m1578.33 642.22c1.51-.04 2.37 1.13 3.44 1.89 25.85 18.1 48.44 39.41 64.26 67.03 8.47 14.78 14.48 30.69 18.63 47.24.62 2.46-.02 3.94-3.11 3.96-11.51.11-22.68 2.12-33.39 6.52-2.04.84-3.54.51-5.19-1.78-22.2-30.82-51.05-54.03-83.83-72.69-2.98-1.7-5.72-3.94-8.86-5.23-4.2-1.72-3.81-3.67-1.42-6.65 9.69-12.03 20.93-22.35 33.74-30.95 4.12-2.76 8.39-5.3 12.62-7.89.96-.59 2.05-.97 3.1-1.46z" fill="#d9a297"/><path d="m988.181 296.49c6.75 6.69 7.64 15.8 9.1 24.29 3.649 21.24 11.019 40.93 22.349 59.18 13.49 21.72 29.24 41.66 48.16 58.91 8.75 7.98 17.52 16.03 27.74 22.26 2.88 1.75 5.74 2.99 9.13 2.81-16.67 11.74-36.24 16.43-55.15 22.75-3.03 1.01-4.26-1.2-5.67-2.82-15.23-17.47-28.23-36.43-37.71-57.65-8.589-19.25-13.659-39.48-17.179-60.23-3.03-17.85-3.12-35.73-2.87-53.71.08-5.4.88-10.59 2.09-15.78z" fill="#d9a297"/><path d="m1707.39 126.43c-20.31 3.38-39.53 2.78-58.43.77-20.59-2.19-40.85-7.16-61.12-11.71-17.66-3.97-35.62-6.63-53.44-9.91-9.85-1.81-19.67-3.8-29.55-5.48-1.92-.33-2.34-1.02-2.8-2.75-2.47-9.37 1.07-17.66 4.57-25.87 3.69-8.66 3.92-8.61 12.49-4.65 28.12 13.01 56.84 24.32 86.68 32.93 21.05 6.07 42.45 7.23 64.01 6.85 6.67-.12 13.58-.94 20.19-2.87 2.25-.66 4.64-.68 5.38 2.52 1.76 7.59 5.21 14.27 12.02 20.17z" fill="#ebcbc4"/><path d="m1253.08 531.16c-14.69-7.86-29.85-14.68-45.14-21.34-16.51-7.19-34.25-10.73-50.55-18.22-11.77-5.41-24.52-8.72-35.32-16.17-3.66-2.53-9.28-1.75-11.37-6.82 9.06-7.99 17.36-16.7 24.6-26.39 1.58-2.12 2.97-3.92 5.93-1.31 13.63 12.02 29.39 21.03 44.6 30.75 17.97 11.49 36.71 21.7 56.76 29.26 7.97 3.01 15.97 5.94 23.96 8.89 2.69.99 3.57 1.85 1.04 4.51-5.09 5.37-9.7 11.19-14.51 16.83z" fill="#ebcbc4"/><path d="m1396.27 580.81c-12.24-3.55-24.49-7.05-36.71-10.67-4.39-1.3-8.62-3.15-13.05-4.27-13.93-3.54-27.08-9.39-40.7-13.84-14.49-4.73-28.48-10.98-42.66-16.66-.97-.39-1.64-1.5-2.45-2.28 3.97-6.23 7.96-12.45 11.92-18.69 1.89-2.98 4.2-.84 5.99-.22 15.51 5.37 31 10.84 46.41 16.5 30.39 11.17 60.73 22.48 91.1 33.69.92.34 1.83.51 2.37 1.98-7.75 4.15-15.01 9.27-22.21 14.46z" fill="#ebcbc4"/><path d="m1720.76 124.09c-6.87-1.91-13.19-4.52-17.31-11.43-6.04-10.14-6.26-9.75 5.28-12.72 27.76-7.13 54.28-17.57 79.77-30.68 9.01-4.64 18.3-8.66 27.77-12.28 1.29-.49 2.6-1.36 3.63-.09.76.93.03 2.13-.46 3.21-8.72 19.34-20.37 35.63-41.02 44.27-17.66 7.39-35.24 14.75-53.99 18.89-1.12.25-2.23.51-3.67.83z" fill="#ebcbc4"/><path d="m1540.33 1079.57c-15.41 11.14-32.59 18.81-50.29 25.39-17.67 6.57-36.03 10.62-54.59 13.55-4.04.64-8.51.03-12.82.18-12.44.43-24.91.1-37.37.35-23.76.47-46.95-4.06-69.87-10.05-2-.52-3.98-1.15-5.97-1.72 1.85-3 4.47-2.37 7.12-1.5 13.11 4.3 26.78 6.39 40.26 8.74 8.01 1.4 16.66-.76 25-1.49 11.4-1.01 22.77-2.23 34.16-3.28 22.03-2.03 43.47-6.75 63.83-15.43 17.81-7.59 35.6-14.92 55.1-16.79 2.17-.21 4.29-.39 5.42 2.08z" fill="#301514"/><path d="m1558.82 629.43c-5.23.77-9.43-2.43-13.83-4.17-5.7-2.26-11.49-4.05-17.28-5.97-27.67-9.15-55.87-16.5-83.82-24.7-13.34-3.91-26.9-7.05-40.02-11.71 5.86-4.56 11.7-9.14 17.58-13.67 1.6-1.24 3.32-1.58 5.37-.78 44.95 17.41 89.58 35.5 131.17 60.21.32.19.55.53.83.8z" fill="#ebcbc4"/><path d="m1632.56 774.48c8.8-3.75 18.17-5.28 27.49-6.87 4.19-.71 6.41.17 7.39 5.71 4 22.47 1.89 45.01 2.12 67.52.02 2.43-.87 3.29-3.37 3.38-4.56.15-9.08-.27-13.71.47-3.46.56-1.13-3.57-2.22-5.26.4-.63 1.47.81 1.35-.18-2.11-17.94-5.09-35.69-11.41-52.75-1.72-4.64-4.77-8.23-7.65-12.04z" fill="#d9a297"/><path d="m1646.96 927.06c.06-8.2 2.28-16.14 3.24-24.24.93-7.88.85-15.68 1.12-23.51.28-8.08.3-16.17.24-24.25-.02-3.17.6-4.56 4.34-4.99 13.2-1.52 12.49-1.69 10.9 11.79-1.84 15.7-5.26 31.02-8.46 46.42-.61 2.91-.75 6-2.62 8.54-2.61 1.65-4.37 3.98-5.73 6.74-.67 1.37-.73 3.47-3.03 3.49z" fill="#d9a297"/><path d="m1656.32 937.74c-3.09 12.83-10.02 23.92-16.32 35.24-4.82 8.66-10.23 17.03-16.75 24.59-1.54-1.72-.3-3.23.45-4.7 4.15-8.22 5.86-17.72 12.75-24.54.94-.93 1.26-2.34 1.07-3.75 3.91-11.78 9.92-22.78 12.82-34.94.37-1.57.87-3.44 3.06-3.71 4.09 1.18 2.63 3.97 1.64 6.33-.95 2.29-1.94 4.29 1.29 5.48z" fill="#301514"/><path d="m1632.56 774.48c5.32 1.23 6.93 5.86 8.5 10.04 7.03 18.64 11.06 37.92 11.62 58.51-1.74-1.05-.95-3.14-2.43-3.59-3.15-21.33-8.78-41.84-20.12-60.45-1.71-2.81-1.65-4.76 2.42-4.51z" fill="#e9c9c2"/><path d="m1653.39 925.94c-3.96 12.66-8.64 25.04-14.59 36.92-.32.63-.86 1.15-1.29 1.73 2.45-9.35 4.93-18.7 7.33-28.07.8-3.13 1.42-6.3 2.12-9.45 1.31-2.65 2.38-5.46 4-7.89.96-1.44 2-4.01 4.76-2.34.29 3.31-1.33 6.13-2.34 9.1z" fill="#dc8e52"/><path d="m1302.26 1110.91c.38 6.8-1.47 13.21-3.43 19.6-3.39-1.03-3.99-4.06-3.03-6.44 1.82-4.51 2.6-9.63 6.46-13.16z" fill="#301514"/><path d="m1296.62 1137.48c-.88 2.65-1.76 5.3-2.64 7.95-.42-.37-1.05-.67-1.22-1.13-.72-2.03-3.83-3.47-2.43-5.81 1.32-2.19 4.14-.73 6.28-1.01z" fill="#301514"/><path d="m389.857 246.59c-8.98 2.4-16.64 7.15-25.01 13.89 4.46-.67 6.49-3.54 9.42-3.4 2.26 14.87 2.09 29.88.64 44.66-3.41 34.66-12.68 67.91-26.22 100.03-13.63 32.31-30.98 62.44-53.13 89.56-20.05 24.55-43.31 45.49-72.46 59.14-17 7.96-34.75 11.19-53.45 11.01-35.92-.35-66.55-14.14-93.1197-37.14-26.42-22.86-42.17-52.4-50.86-86.06-5.63-21.8-7.4-44.04-4.84-66.05 5.17-44.53 18.74-86.57 41.63-125.48 13.04-22.17 27.78-43.06 44.5297-62.47 15.7-18.19 32.79-34.96 51.51-50.23 25.57-20.85 53.35-37.63 83.94-49.8 25.16-10.02 51.33-16.24 77.93-21.29 36.44-6.92 73.16-6.82 109.81-4.94 20.19 1.03 40.38 4.15 60.43 8.04 27.66 5.37 54.56 12.97 80.88 22.77 24.62 9.17 48.32 20.49 71.06 33.6 22.55 13.01 43.82 27.92 63.67 44.92 13.19 11.29 25.59 23.36 37 36.32 23.02 26.15 41.77 55.18 56.16 86.98 13.03 28.8 22.31 58.8 27.87 89.86 2.68 14.98 4.86 30.09 4.41 45.48-.26 8.97.14 17.94-.2 26.97-1.17 30.69-8.62 59.87-19.6 88.22-11.11 28.67-26.61 55-44.77 79.8-21.89 29.89-47.3 56.59-75.01 80.96-39.83 35.02-83.2 65.26-128.78 92.38-44.38 26.4-89.99 50.56-135.47 74.95-36.05 19.34-71.3 40.02-104.32 64.26-22.94 16.84-44.55 35.33-63.71 56.41-25.7 28.27-46.77 59.54-58.34 96.36-12.01 38.23-7.44 74.7 11.57 109.93 14.87 27.56 36.09 48.35 63.56 62.75 21.04 11.02 43.66 17.52 66.97 22.08 18.55 3.63 37.23 5.64 56 7.45 25.69 2.47 51.5 2.79 77.16 2.11 40.01-1.05 79.9-4.94 118.9-14.83 28.04-7.11 54.88-17.34 80.69-30.52 19.63-10.03 38.34-21.4 55.93-34.6 17.7-13.29 33.52-28.57 48.16-45.21 13.29-15.1 25.82-30.89 40.02-45.17 2.28-2.29 5.11-4.03 7.67-6.05 2.73-2.15 3.21-.6 3.14 1.88-.26 9.27-3.25 17.89-6.36 26.48-10.58 29.3-27.24 55.09-45.93 79.71-15.52 20.44-33.59 38.51-52.71 55.45-20.84 18.46-43.92 33.79-68.5 46.96-32.54 17.43-67.15 28.85-103.06 36.53-14.86 3.18-30.01 4.92-44.99 7.45-17.74 2.99-34.77-.56-52.11-2.39-18.94-2-37.42-6.17-55.72-11.02-51.56-13.68-100.64-33.26-145.09-63.3-30.24-20.44-56.19-45.71-80.3-72.86-11.78-13.26-22.59-27.32-31.2-43.11-8.86-16.24-13.85-33.52-17.01-51.42-3.12-17.68-4.24-35.69-3.83-53.58.74-31.91 8.15-62.42 21.44-91.54 13.49-29.57 31.84-56.12 50.38-82.58.54-.77 1.35-1.35 2.04-2.02 2.33-4.23 6.72-6.21 10.2-9.14 16.73-14.08 32.65-28.98 47.02-45.48 2.48-2.85 5.8-4.35 8.62-6.63 18.85-14.12 39.59-25.22 59.9-36.9 16.65-9.58 33.88-18.22 50.37-28.1 17.19-10.29 35.41-18.61 52.83-28.38 21.51-12.06 43.98-22.09 65.97-33.11 22.52-11.29 44.56-23.47 66.84-35.19 10.74-5.65 20.64-12.74 30.76-19.37 22.4-14.66 43.48-31.08 62.35-50.22 21.61-21.91 40.79-45.68 54.63-73.27 6.88-13.71 12.62-27.93 17.21-42.75 6.59-21.28 8.33-42.94 8.77-64.88.43-21.18-4.05-41.66-9.7-61.92-8.43-30.27-23.26-56.91-45.65-79.05-17.92-17.71-39.64-29.63-62.51-39.65-28.89-12.67-59.49-18.03-90.57-21.21-12.29-1.26-24.59.39-36.86 1.2-12.87.85-25.68 2.97-38.19 5.72-12.87 2.84-25.7 6.6-37.86 12.02-7.18 3.58-14.65 6.35-22.53 7.98z" fill="#7ba7d6"/><path d="m411.849 237.62c8.09-4.47 17.019-6.64 25.76-9.29 16.27-4.94 33.06-7.48 49.87-8.97 16.54-1.46 33.17-2.69 49.85.33 11.42 2.07 23.15 2.48 34.49 5.22 31.91 7.71 61.9 19.91 88.82 38.94 15.45 10.93 28.2 24.35 39.15 39.99 19.93 28.46 28.91 60.66 34.09 94.17 2.85 18.4 1.33 37-.62 55.59-1.96 18.67-7.01 36.34-13.94 53.53-12.96 32.15-31.75 60.45-55.42 85.95-17.36 18.7-36.31 35.34-56.86 50.12-20.62 14.82-42.07 28.48-64.85 39.95-17.81 8.97-35.18 18.79-52.95 27.84-12.31 6.27-25.08 11.6-37.31 18.08-17.63 9.34-35.65 17.94-53.18 27.46-21.19 11.5-42.08 23.58-63.04 35.5-23.07 13.12-46.49 25.67-68.23 41.02-1.11.78-2.09 1.71-3.54 1.72-1.21-1.61-.33-2.97.67-4.14 12.71-14.89 24.94-30.23 39.74-43.2 5.81-4.95 11.62-9.91 17.43-14.86 1.83-4.1 5.58-6.29 8.98-8.73 14.07-10.08 27.85-20.55 42.16-30.28 22.9-15.57 46.46-30.12 69.99-44.73 20.9-12.98 42.11-25.48 62.68-39.03 18-11.86 35.83-23.93 53.07-36.84 11.23-8.41 22.33-17 32.78-26.4 6.57-5.92 13.15-11.83 19.75-17.72 8.92-7.96 16.43-17.27 24.24-26.27 10.72-12.36 20.54-25.38 29.17-39.31 6.82-11.01 11.8-22.86 16.45-34.85 8.37-21.6 12.16-44.29 11.98-67.19-.24-30.62-7.64-60.03-23.26-86.58-14.46-24.6-35.47-42.81-60.53-56.36-18.41-9.95-37.99-16.41-58.35-21.19-24.92-5.86-50.15-7.6-75.52-7.04-18.43.41-36.81 2.7-54.76 7.43-2.83.75-5.83 2.49-8.79.13z" fill="#3c6fb4"/><path d="m44.5195 1105.87c11.59 11.51 25.02 16.65 40.19 16.47 10.07-.11 20.1295-1.53 28.5095-8.17 2.23-1.76 3.69-1.82 4 1.68 2.92 32.16 13.62 61.44 32.98 87.35 11.26 15.07 23.62 29.25 36.98 42.5 2.7 2.68 2.49 4.02-.08 6.58-14.11 14.04-31.13 20.61-50.82 22.94-8.21.97-12.36-2.42-17.09-6.97-21.9595-21.15-40.0495-45.11-53.0995-72.78-11.48-24.34-18.93-49.71-21.02-76.65-.31-3.98-.98-7.89-.56-12.94z" fill="#ebcbc4"/><path d="m140.817 965.46c-5.49 12.65-10.58 24.62-14.43 37.07-6.01 19.43-9.78 39.13-11 59.57-.7 11.72-1.2 23.57.17 34.92 1.21 10.02-3.61 12.21-10.43 15.2-18.8299 8.25-36.8899 7.09-54.3199-3.71-5.37-3.33-7.84-7.7-7.75-14.61.69-52.97 13.15-103 36.51-150.41 2.9-5.88 3.09-5.89 7.46-1.2 9.45 10.14 19.4799 19.25 33.5099 22.78 6.56 1.65 13 1.84 20.27.39z" fill="#ebcbc4"/><path d="m411.849 237.62c10.72-1.74 21.13-4.89 31.94-6.34 18.66-2.5 37.35-3.55 56.11-2.44 13.33.79 26.65 1.73 39.83 4.23 32.45 6.15 62.88 16.92 90.04 36.36 33.01 23.63 52.02 55.92 60.4 94.99 3.57 16.66 5.36 33.5 3.91 50.66-3.4 40.27-17.27 76.31-41.59 108.63-14.72 19.55-30.66 37.88-48.85 54.2-23.66 21.24-48.77 40.63-75.05 58.55-35.42 24.16-72.45 45.73-108.8 68.4-26.77 16.69-52.91 34.31-78.28 53.06-6.58 4.87-13.13 9.78-19.69 14.67-.7-3.48 1.35-5.6 3.54-7.9 9.68-10.16 18.7-20.91 27.47-31.86 2.76-5.2 7.27-7.86 12.89-8.91 3.72 1.02 6.75-1.1 9.6-2.69 13.9-7.72 28.02-15.15 41.3-23.83 14.88-9.73 28.95-20.71 43.4-31.11 1.08-.78 1.48-1.69 1.3-2.94.63-3.27 3.49-4.54 5.84-5.96 22.66-13.75 44.6-28.6 66.54-43.42 11.59-7.83 22.36-16.88 33.93-24.8 1.25-.46 2.29-1.39 3.67-1.56 5.63-3.06 10.82-6.68 14.96-11.66-.37-3.57 2.56-4.91 4.68-6.69 30.08-25.28 55.15-54.77 73.27-89.68 8.98-17.29 14.68-35.82 16.79-55.49.82-7.61 2.18-15.13 1.97-22.82-.06-2.09.28-4.24-.73-6.22-.03-1.59-.07-3.19-.1-4.78-1.59-23.29-7.67-45.4-18.49-66.04-10.83-20.65-26.76-36.82-46.14-49.6-6.08-4.01-12.16-8.06-18.76-11.23-1.08-.52-2.72-.93-2.03-2.84-1.95-2.11-4.78-2.23-7.24-3.21-2.18 1.22-4.11 0-6.06-.67-20.55-7.18-41.32-13.08-63.13-15.56-18.57-2.11-36.98-2.58-55.66-2.31-24.57.36-48.16 4.39-71.36 11.89-1.83.59-3.72 1.12-5.57 0 .72-1.37 1.44-2.74 2.16-4.11 6.79-4.32 14.67-5.94 21.99-8.97z" fill="#181325"/><path d="m387.708 250.7c10.65-2.74 20.98-6.57 31.83-8.72 12.57-2.5 25.13-4.47 37.96-4.64 10.74-.14 21.46-1.44 32.22-.79 31.96 1.93 63.43 6.33 93.39 18.4 2.11.85 4.25 1.61 6.37 2.41-1.16 11.49-5.5 21.99-10.55 32.15-5.88 11.85-6.01 11.45-18.41 6.46-19.05-7.66-38.67-12.82-59.23-15.18-10.91-1.25-21.79-2.03-32.55-1.41-29.5 1.69-58.42 6.7-85.54 19.3-.11-14.4-.77-28.75-4.4-42.77-.59-2.27 1.17-2.1 2.13-2.58 2.17-1.07 4.96-.56 6.77-2.63z" fill="#d9a297"/><path d="m89.6428 926.01c4.41-9.14 10.9802-16.89 16.4202-25.37 10.74-16.75 24.67-30.73 39.14-44.12 20.6-19.06 40-39.39 61.34-57.69 2.39-2.05 3.46-1.85 5.33.22 3.35 3.7 6.78 7.36 10.46 10.74 6.04 5.54 13.15 8.15 21.47 7.05 1.83-.24 3.8-.6 5.96.86-6.24 7.37-13.5 13.59-20 20.49-21.35 22.65-40.57 46.88-57.31 73.09-.49.77-1.22 1.39-1.84 2.09-4.51 5.97-11.84 7.56-17.76 11.34-8.88 5.68-18.39 10.23-28.15 14.26-3.56 1.47-7.21 2.63-11 3.24-8.92 1.43-15.1102-1.64-19.5502-9.62-1.3-2.34-2.4-4.81-4.52-6.58z" fill="#d9a297"/><path d="m568.961 589.87c-25.52 18.79-51.42 37.03-78 54.31-9.87 6.41-20.38 11.83-29.64 19.17-11.81 5.39-22.25 13.1-33.34 19.7-12.73 7.58-25.08 15.82-37.6 23.75-1.11.71-2.3 1.86-3.45 1.85-10.99-.07-21.96 3.23-32.97-.03-5.38-1.59-10.21-4.14-15.57-7.29 16.85-10.74 33.21-21.17 49.57-31.61 22.49-14.84 45.58-28.7 68.53-42.8 22.52-13.83 44.85-27.97 66.31-43.42 1.96-1.41 3.73-1.93 6.32-.87 5.75 2.37 11.74 4.17 17.64 6.2 6.27.65 12.53 1.11 18.77-.3 1.38-.31 3.12-1.22 3.45 1.33z" fill="#d9a297"/><path d="m365.716 723.91c-4.3 2.97-8.6 5.94-12.89 8.91-18.11 12.79-35.58 26.41-52.77 40.42-14.3 11.65-28.38 23.5-41.55 36.41-1.26 1.24-2.48 2.3-4.45 2.21-15.18-.66-29.36-3.53-40.36-15.5-2.95-3.21-.33-4.04 1.07-5.22 9.78-8.33 19.53-16.69 29.58-24.68 27.06-21.48 56.08-40.17 84.81-59.27 3.83-2.54 6.6-2.77 10.47.1 10.99 8.16 23.37 10.8 37.26 8.27-1.8 1.27-3.62 2.51-5.38 3.83-1.96 1.47-3.86 3.02-5.79 4.53z" fill="#d9a297"/><path d="m148.32 1292.35c-6.27-3.29-11.08-8.39-17.07-13.37 10.44-2.37 20.5-1.79 30.04-4.91 11.1-3.63 21.1-8.81 28.91-17.59 2.59-2.91 4.23-3.19 7.27-.32 19.56 18.52 40.3 35.59 62.86 50.39 14.51 9.52 29.79 17.69 45.4 25.17 4.99 2.39 4.49 3.89 1.14 6.79-1.61 2.38-3.94 2.08-6.22 1.55-16.62-3.88-32.92-8.94-49.35-13.53-2.93-.82-5.74-2.19-8.7-2.96-25.26-6.59-49.43-16.48-74.18-24.63-6.68-2.2-13.21-4.94-20.1-6.59z" fill="#ebcbc4"/><path d="m148.32 1292.35c6.29-.59 11.96.72 17.54 4.01 3.69 2.18 8.38 2.61 12.53 4.07 15.31 5.39 30.37 11.6 45.92 16.16 17.04 4.99 33.76 11.05 51.12 14.99 9.09 2.06 17.73 5.85 27.04 7.25 1.62.24 2.96.26 4.4-.32-5.04 8.59-11.09 15.74-21.32 18.75-6.33 1.86-11.75-.54-17.21-2.15-26.36-7.78-51.95-17.45-75.44-32.04-15.35-9.53-30.75-18.97-44.57-30.71z" fill="#d9a297"/><path d="m425.426 1374.19c-45.7-1.4-91.27-4.29-136.91-14.22 12.06-3.58 20.04-11.16 25.06-21.92 1.99-4.26 4.51-.83 6.08-.12 16.62 7.45 33.58 13.98 50.86 19.76 16.55 5.54 33.53 9.46 50.35 13.97 1.4.38 2.99.05 4.5.05.02.82.05 1.65.07 2.47z" fill="#d9a297"/><path d="m89.6359 926.01c2.8-1.6 3.11.97 4.06 2.43 1.75 2.68 2.68 5.7 5.16 8.14 7.7301 7.63 16.0501 4.54 23.9901 1.52 16.83-6.41 31.9-16.36 47.76-24.73-6.29 10.61-12.57 21.22-18.87 31.82-.88 1.48-1.83 2.92-2.75 4.37-2.09 3.31-2.45 8.49-6.16 9.79-5.7 2-12.04 2.31-18.12 1.27-14.36-2.47-25.8301-10.07-36.0401-20.24-4.13-4.11-4.59-7.32-.97-11.53.74-.86 1.3-1.89 1.94-2.84z" fill="#ebcbc4"/><path d="m304.38 787.45c-8.01 8.98-16.24 17.77-23.96 27-5.59 6.68-12.54 12.3-16.45 20.34-13.99 11.57-24.59 26.56-38.59 38.14-8.96 7.42-17.26 15.65-27.13 21.95 3.81-7.61 10.14-13.28 15.37-19.79 19.52-24.33 42.42-45.41 65.18-66.56 8.06-7.49 16.22-15.07 25.58-21.08z" fill="#7285a5"/><path d="m682.242 395.04c3.03-1.29 2 1.19 2.02 2.33.46 21.95-3.28 43.19-10.62 63.88-9.22 25.98-24.29 48.36-41.94 69.22-12.66 14.97-26.3 28.94-41.54 41.31-1.46 1.19-2.61 2.77-3.9 4.17-8.18 2.1-16.52 3.58-24.49 6.52-1.72.63-3.71.53-5.58.76-3.62 1.17-6.88-.73-10.3-1.22-3.34-.62-6.76-.98-9.97-2.02-1.09-.35-3.45-.04-3.39-2.33.04-1.72 1.34-2.66 2.64-3.53 13.23-8.93 25.1-19.53 36.72-30.39 7.96-7.45 15.67-15.2 23.14-23.15 13.59-14.46 24.07-30.99 33.37-48.54 5.98-11.29 9.17-23.39 13.65-35.1 1.2-3.14 2.24-6.64 2.13-9.94-.26-8.07 2.01-12.73 10.95-14.74 10.71-2.4 20.07-8.34 27.12-17.23z" fill="#d9a297"/><path d="m596.717 260.56c15.8 8.28 30.59 17.89 43.52 30.41 21.06 20.39 33.45 45.27 39.66 73.56 1.22 5.57 2.34 11.18 3.12 16.82.4 2.94 1.19 6.12-.87 8.91-10.12 7.52-20.26 15.01-32.34 19.23-1.05.37-2.12.65-3.47 1.07-1.11-15.51-2.9-30.63-9.67-44.54-11.23-23.08-28.06-41.25-49.41-55.34-3.65-2.41-8.99-3.98-10.56-7.34-1.68-3.59 3.83-6.74 5.67-10.43 4.76-9.55 9.21-19.18 10.65-29.88.33-2.46 1.88-2.55 3.71-2.47z" fill="#d9a297"/><g fill="#311d2c"><path d="m568.962 589.87c-.75-1.65-2.08-1.24-3.36-.92-6.3 1.58-12.58 1.31-18.86-.11 8.22.33 16.38-.7 24.56-1.24-.47 1.08-1.17 1.91-2.34 2.26z"/><path d="m545.891 582.01c3.43.41 6.87.81 10.3 1.22-3.73 2.09-7.02.48-10.3-1.22z"/><path d="m1054.26 988.55c2.09 10.71.42 23.05-1.97 35.18-3.06 15.47-6.07 31.21-17.51 43.33-8.46 8.96-17.8 9.45-27.51 1.69-14.64-11.7-22.66-27.59-27.99-45.05-4.15-13.58-4.73-27.65-5.8-41.74-1.25-16.48.32-32.18 6.1-47.69 4.47-12 13.76-17.6 25.24-18.64 11.89-1.08 23.28 2.01 30.89 12.6 7.8 10.85 12.07 23.25 15.19 36.07 1.8 7.39 3.53 14.82 3.35 24.26z"/><path d="m187.52 398.82c.76-24.61 9.51-46.76 21.01-68.1 9.06-16.8 21.2-31.33 34.05-45.17 7.77-8.37 17.05-15.45 28.26-18.93 17.88-5.54 33.59 5.11 36.37 23.63 2.79 18.55-1.15 36.05-7.3 53.21-10.1 28.21-24.09 54.15-46.8 74.4-9.45 8.42-19.71 15.69-32.64 18.33-15.2 3.11-29.28-6.43-31.92-21.91-.88-5.14-1.27-10.25-1.04-15.47z"/></g><path d="m982.667 982.99c11.19 6.05 22.363 8.57 34.093 5 11.5-3.5 19.83-10.95 24.71-22.41 4.41 16.26 6.42 32.12 3.93 48.74-1.93 12.84-4.28 25.33-9.75 37.1-7.9 17.03-18.62 19.41-31.02 5.24-13.563-15.49-24.253-32.87-22.053-55.13.58-5.88.09-11.87.09-18.55z" fill="#faf5e7"/><path d="m210.016 340.72c7.3-15.24 14.67-29.95 27.27-41.5 9.75-8.94 18.93-18.47 31.4-23.62 16.29-6.73 29.25-1.44 32.41 17.04 3.14 18.42-3.2 35.2-8.74 52.02-3.61 10.94-8.66 21.39-15.49 32.5.05-18.5-1.5-35.46-19.76-43.44-16.67-7.28-32.25-2.22-47.08 7.01z" fill="#faf5e7"/></svg>