<?xml version="1.0" standalone="no"?>
<!DOCTYPE svg PUBLIC "-//W3C//DTD SVG 20010904//EN"
 "http://www.w3.org/TR/2001/REC-SVG-20010904/DTD/svg10.dtd">
<svg version="1.0" xmlns="http://www.w3.org/2000/svg"
 width="320.000000pt" height="320.000000pt" viewBox="0 0 320.000000 320.000000"
 preserveAspectRatio="xMidYMid meet">
<metadata>
Created by potrace 1.11, written by Peter Selinger 2001-2013
</metadata>
<g transform="translate(0.000000,320.000000) scale(0.100000,-0.100000)"
fill="#000000" stroke="none">
<path d="M0 1600 l0 -1600 1600 0 1600 0 0 1600 0 1600 -1600 0 -1600 0 0
-1600z m3068 1531 c7 -4 18 -41 23 -81 12 -83 9 -304 -4 -317 -12 -11 -945
-20 -1212 -10 -123 4 -387 2 -600 -4 -209 -5 -465 -12 -570 -15 l-190 -4 2
-57 c1 -68 17 -321 38 -618 31 -431 34 -536 41 -1228 5 -555 4 -710 -6 -722
-10 -12 -43 -15 -175 -15 -193 0 -223 5 -235 36 -5 13 -10 328 -11 701 -2 702
-7 873 -34 1203 -18 234 -35 660 -35 895 1 176 4 191 45 212 13 7 276 11 785
13 421 1 817 5 880 9 158 11 1242 13 1258 2z m-1508 -702 c144 -42 209 -101
236 -211 15 -62 15 -71 0 -142 -30 -131 -128 -248 -327 -387 -50 -35 -98 -69
-107 -76 -14 -10 30 -12 213 -13 299 0 306 -4 285 -129 -9 -55 -19 -81 -40
-105 l-28 -31 -284 -5 c-155 -3 -339 -3 -406 0 -156 7 -156 7 -148 134 5 71
11 98 32 133 30 51 129 138 287 251 138 98 220 171 236 210 7 16 11 49 9 73
-3 41 -6 46 -48 67 -89 44 -159 25 -254 -69 -38 -38 -79 -72 -92 -75 -30 -8
-86 20 -142 72 l-47 42 20 38 c11 21 48 65 82 99 138 137 329 182 523 124z
m1210 -35 c118 -57 187 -136 215 -246 69 -269 21 -568 -108 -685 -53 -47 -145
-88 -250 -110 -103 -21 -197 -11 -314 32 -174 65 -232 196 -220 495 9 215 44
322 137 419 90 93 199 132 365 128 100 -2 116 -5 175 -33z m-1187 -1203 c128
-33 191 -78 235 -166 33 -67 37 -124 13 -198 -40 -119 -125 -228 -291 -371
-90 -78 -107 -96 -88 -97 13 -1 105 -1 205 1 203 2 249 -6 259 -47 9 -32 -3
-126 -20 -167 -24 -57 -52 -62 -422 -76 -182 -7 -356 -10 -387 -6 -78 10 -87
25 -87 144 0 131 7 142 191 292 213 174 271 230 307 299 47 88 41 139 -19 160
-82 29 -149 2 -219 -87 -49 -61 -91 -86 -129 -77 -33 8 -110 57 -141 90 l-24
26 19 37 c11 20 49 67 85 103 135 138 321 189 513 140z m1284 -5 l27 -24 7
-193 c10 -326 3 -813 -13 -846 -16 -33 -41 -40 -153 -42 -101 -1 -153 12 -160
42 -3 12 -6 166 -8 342 l-2 320 -25 -2 c-14 -1 -44 -7 -68 -14 -39 -12 -47
-12 -80 6 -44 24 -102 98 -102 130 0 18 17 34 78 73 170 109 410 231 454 232
9 0 29 -11 45 -24z"/>
<path d="M2504 2156 c-40 -18 -101 -98 -111 -145 -3 -20 -7 -88 -7 -151 -1
-136 9 -160 81 -192 51 -23 110 -20 168 7 63 31 123 207 104 308 -26 142 -130
218 -235 173z"/>
</g>
</svg>
