<svg viewBox="0 0 1728 1654" fill="none" xmlns="http://www.w3.org/2000/svg">
<g clip-path="url(#clip0_28_40066)">
<path opacity="0.22" d="M-347.194 1831.91C-406.207 1759.89 -426.391 1655.64 -415.403 1533.13C-404.414 1410.64 -362.259 1269.94 -296.655 1125.09C-165.446 835.375 59.5302 529.098 316.411 318.622C573.299 108.14 853.753 -23.9453 1099.51 -67.3596C1345.27 -110.776 1556.26 -65.5045 1674.33 78.6014C1792.4 222.707 1795.3 438.472 1704.4 670.902C1613.51 903.321 1428.85 1152.33 1171.97 1362.81C915.066 1573.3 594.283 1762.66 308.194 1863.35C165.148 1913.69 30.7967 1941.85 -82.5484 1939.41C-195.893 1936.97 -288.187 1903.93 -347.194 1831.91Z" stroke="url(#paint0_radial_28_40066)" stroke-width="0.691667"/>
<path d="M435.569 870.45C470.019 879.019 470.019 879.019 461.45 913.469C470.019 879.019 470.019 879.019 504.469 887.588C470.019 879.019 470.019 879.019 478.588 844.568C470.019 879.019 470.019 879.019 435.569 870.45Z" fill="#F6EAD8"/>
<path d="M1345 312.5C1380.5 312.5 1380.5 312.5 1380.5 348C1380.5 312.5 1380.5 312.5 1416 312.5C1380.5 312.5 1380.5 312.5 1380.5 277C1380.5 312.5 1380.5 312.5 1345 312.5Z" fill="#EDC844"/>
<path d="M208 383.5C243.5 383.5 243.5 383.5 243.5 419C243.5 383.5 243.5 383.5 279 383.5C243.5 383.5 243.5 383.5 243.5 348C243.5 383.5 243.5 383.5 208 383.5Z" fill="white"/>
</g>
<defs>
<radialGradient id="paint0_radial_28_40066" cx="0" cy="0" r="1" gradientUnits="userSpaceOnUse" gradientTransform="translate(734.434 886.098) rotate(111.86) scale(1383.43 6.97175e+08)">
<stop stop-color="white" stop-opacity="0.78"/>
<stop offset="1" stop-color="white" stop-opacity="0"/>
</radialGradient>
<clipPath id="clip0_28_40066">
<rect width="1728" height="1654" fill="white"/>
</clipPath>
</defs>
</svg>
