<svg width="428" height="531" viewBox="0 0 428 531" fill="none" xmlns="http://www.w3.org/2000/svg">
<g clip-path="url(#clip0_1136_134936)">
<g opacity="0.99" clip-path="url(#clip1_1136_134936)">
<path d="M364.837 8.46444C359.955 9.99505 354.881 11.436 350.066 13.1135C341.127 16.3291 332.526 20.2789 323.453 23.2008C319.76 24.363 315.336 24.2607 311.286 23.9867C291.091 22.4125 283.494 8.82857 291.847 -10.1238C292.736 -12.1325 294.144 -13.6683 294.841 -15.7666C298.039 -25.2379 293.379 -33.4126 283.637 -33.9184C275.479 -34.2623 267.383 -32.5004 259.167 -32.6402C240.914 -32.6163 226.576 -43.46 218.566 -62.5451C211.501 -79.5741 214.907 -90.5637 229.196 -96.5918C232.312 -98.023 235.958 -98.6301 239.421 -98.976C245.217 -99.5034 251.895 -100.081 251.93 -107.566C251.921 -112.186 248.32 -118.712 244.744 -122.227C237.072 -129.73 233.716 -138.681 231.472 -148.499C227.844 -164.617 235.868 -179.684 249.932 -182.585C274.232 -187.52 297.114 -180.422 317.831 -160.948C328.415 -151.048 335.519 -139.194 336.333 -124.274C336.865 -116.871 338.326 -110.073 346.037 -107.745C353.747 -105.417 357.057 -111.028 359.849 -117.111C360.977 -119.585 362.105 -122.059 363.3 -124.387C371.028 -138.784 382.2 -143.381 398.083 -138.048C412.756 -133.049 425.116 -122.898 436.089 -110.508C443.148 -102.368 445.402 -92.1997 443.845 -82.7707C442.299 -72.9907 438.582 -63.9924 435.374 -54.8722C434.563 -52.3656 432.532 -50.5435 430.952 -48.3954C426.941 -42.9966 424.783 -36.8483 429.786 -29.8982C434.135 -23.7148 439.837 -23.1321 445.456 -25.3572C461.318 -31.5744 475.591 -25.1465 489.269 -13.1105C498.987 -4.76871 504.237 6.3359 506.995 18.5854C511.861 40.3587 497.806 58.7282 476.516 56.4122C465.555 55.2218 454.45 49.1177 443.463 44.9153C441.101 44.044 439.108 40.691 436.688 40.0238C432.358 38.8113 426.615 36.8246 423.893 38.7859C421.172 40.7473 420.982 47.2366 420.673 51.8242C420.496 54.3956 422.603 57.3403 423.126 60.1233C428.392 84.7368 405.551 100.739 389.774 90.3778C382.818 85.7476 375.248 81.7544 369.144 76.0215C350.696 58.5289 348.402 42.6876 360.333 22.9812C362.62 19.0857 364.849 15.3943 367.136 11.4988C366.347 10.4384 365.615 9.17385 364.827 8.1134L364.837 8.46444Z" fill="white"/>
<path d="M208.165 -33.9295C250.168 -3.60141 256.094 -16.993 266.31 -8.88017C260.586 -5.89592 244.244 16.3691 239.767 18.7809C200.104 40.5518 184.948 70.9866 164.692 114.967C132.679 184.621 140.307 220.954 193.362 285.865C221.005 319.764 246.951 349.641 283.528 367.167C362.761 404.939 421.741 408.798 499.462 390.357C515.146 386.711 528.435 374.562 543.357 368.599C557.282 363.094 569.027 378.151 583.569 374.319C592.595 371.952 601.912 370.875 607.03 362.3C609.203 358.812 611.375 355.325 614.207 350.646C618.515 355.425 622.294 359.381 627.256 364.927C620.549 371.03 614.907 376.822 608.668 381.643C544.41 430.715 469.546 447.488 387.78 442C329.367 438.059 272.818 420.101 219.101 386.616C173.042 357.973 133.617 320.77 106.901 268.839C75.2248 207.093 71.5639 146.53 94.7395 87.8711C112.269 43.5419 141.769 11.144 177.72 -14.4356C187.497 -21.4148 197.802 -27.5701 207.905 -34.166L208.165 -33.9295Z" fill="url(#paint0_linear_1136_134936)" stroke="#2F2F2F" stroke-width="1.51766" stroke-linecap="round"/>
<path d="M316.017 45.4819C306.303 54.567 296.277 61.6607 287.789 69.4714C270.255 85.5258 256.72 104.368 249.164 129.001C232.382 183.835 250.667 243.372 296.275 282.537C324.198 306.527 355.428 318.328 388.303 321.548C433.215 325.998 473.714 315.581 508.483 288.41C510.457 286.793 512.633 285.615 514.742 284.291C515.116 284.119 515.817 284.331 517.209 284.403C517.61 293.822 519.22 303.575 518.027 312.481C517.298 317.796 512.96 322.811 508.887 326.104C485.256 345.315 457.791 356.505 427.296 359.127C365.685 364.657 309.449 344.422 261.894 290.501C214.926 237.2 202.519 169.095 227.985 108.85C239.977 80.4015 258.806 58.9506 282 42.075C284.597 40.1709 288.576 37.9881 291.582 39.2751C305.797 45.9071 307.481 42.9998 315.893 45.5392L316.017 45.4819Z" fill="url(#paint1_linear_1136_134936)" stroke="#2F2F2F" stroke-width="1.51766" stroke-linecap="round"/>
<mask id="path-4-inside-1_1136_134936" fill="white">
<path d="M518.034 312.475C518.034 312.475 471.13 363.18 373.467 349.698C324.319 342.925 276.234 314.145 246.063 267.18C224.495 233.691 209.787 188.517 224.264 132.607C233.002 98.7174 252.462 70.7522 277.646 50.6507L291.781 39.358L274.273 10.7636C274.273 10.7636 130.751 116.331 199.8 264.061C199.8 264.061 262.81 410.474 437 392.725C437 392.725 497.142 386.624 541.431 354.548"/>
</mask>
<path d="M518.034 312.475C518.034 312.475 471.13 363.18 373.467 349.698C324.319 342.925 276.234 314.145 246.063 267.18C224.495 233.691 209.787 188.517 224.264 132.607C233.002 98.7174 252.462 70.7522 277.646 50.6507L291.781 39.358L274.273 10.7636C274.273 10.7636 130.751 116.331 199.8 264.061C199.8 264.061 262.81 410.474 437 392.725C437 392.725 497.142 386.624 541.431 354.548" fill="#EDC844"/>
<path d="M373.467 349.698L373.778 347.443L373.778 347.443L373.467 349.698ZM246.063 267.18L247.978 265.949L247.977 265.947L246.063 267.18ZM224.264 132.607L226.467 133.178L226.468 133.176L224.264 132.607ZM277.646 50.6507L279.066 52.43L279.067 52.4293L277.646 50.6507ZM291.781 39.358L293.202 41.1365L294.772 39.8826L293.723 38.1692L291.781 39.358ZM274.273 10.7636L276.214 9.57486L274.92 7.46146L272.924 8.9298L274.273 10.7636ZM199.8 264.061L201.891 263.161L201.877 263.129L201.862 263.097L199.8 264.061ZM437 392.725L436.77 390.46L436.769 390.46L437 392.725ZM518.034 312.475C516.363 310.929 516.364 310.928 516.364 310.928C516.364 310.928 516.365 310.927 516.365 310.927C516.364 310.928 516.363 310.929 516.362 310.93C516.358 310.934 516.352 310.941 516.343 310.95C516.325 310.969 516.296 311.001 516.255 311.043C516.173 311.128 516.046 311.259 515.872 311.433C515.526 311.78 514.997 312.296 514.284 312.954C512.858 314.271 510.697 316.154 507.794 318.38C501.988 322.833 493.218 328.657 481.424 334.073C457.856 344.896 422.151 354.121 373.778 347.443L373.156 351.953C422.447 358.758 459.025 349.37 483.324 338.211C495.465 332.636 504.525 326.626 510.565 321.993C513.585 319.677 515.852 317.703 517.372 316.3C518.133 315.598 518.707 315.038 519.095 314.649C519.289 314.454 519.437 314.302 519.539 314.197C519.59 314.144 519.629 314.102 519.657 314.073C519.671 314.058 519.682 314.046 519.69 314.037C519.694 314.033 519.697 314.03 519.7 314.027C519.701 314.025 519.703 314.024 519.703 314.023C519.704 314.022 519.705 314.021 518.034 312.475ZM373.778 347.443C325.278 340.759 277.784 312.346 247.978 265.949L244.147 268.41C274.684 315.944 323.36 345.091 373.156 351.953L373.778 347.443ZM247.977 265.947C226.676 232.873 212.183 188.347 226.467 133.178L222.06 132.037C207.392 188.686 222.314 234.509 244.149 268.412L247.977 265.947ZM226.468 133.176C235.075 99.7957 254.241 72.2448 279.066 52.43L276.226 48.8715C250.683 69.2597 230.93 97.6391 222.059 132.039L226.468 133.176ZM279.067 52.4293L293.202 41.1365L290.36 37.5794L276.225 48.8722L279.067 52.4293ZM293.723 38.1692L276.214 9.57486L272.331 11.9524L289.84 40.5468L293.723 38.1692ZM274.273 10.7636C272.924 8.9298 272.922 8.9308 272.92 8.9322C272.919 8.9332 272.917 8.935 272.914 8.93701C272.908 8.94102 272.901 8.94664 272.891 8.95387C272.872 8.96834 272.843 8.98924 272.807 9.01651C272.734 9.0711 272.627 9.15127 272.488 9.2568C272.209 9.46785 271.801 9.78035 271.275 10.1924C270.222 11.0163 268.694 12.2384 266.778 13.8433C262.948 17.0527 257.565 21.7947 251.328 27.9459C238.858 40.2428 222.945 58.2004 209.197 80.8315C181.68 126.13 162.799 190.274 197.738 265.025L201.862 263.097C167.752 190.118 186.107 127.612 213.088 83.1953C226.59 60.9684 242.241 43.3011 254.525 31.1876C260.664 25.1336 265.954 20.4741 269.703 17.3332C271.577 15.7629 273.065 14.5728 274.08 13.7782C274.588 13.3809 274.978 13.0826 275.238 12.8852C275.368 12.7864 275.466 12.7129 275.531 12.6649C275.563 12.6409 275.587 12.6232 275.602 12.612C275.609 12.6064 275.615 12.6023 275.618 12.5999C275.62 12.5987 275.621 12.5981 275.621 12.5975C275.622 12.5973 275.621 12.5975 274.273 10.7636ZM199.8 264.061C197.709 264.961 197.71 264.962 197.711 264.964C197.711 264.966 197.712 264.969 197.714 264.972C197.716 264.978 197.72 264.986 197.724 264.996C197.733 265.017 197.746 265.046 197.763 265.084C197.796 265.16 197.845 265.271 197.91 265.415C198.04 265.704 198.233 266.126 198.491 266.672C199.007 267.765 199.782 269.356 200.828 271.367C202.919 275.39 206.095 281.101 210.451 287.89C219.16 301.464 232.601 319.373 251.541 336.727C289.46 371.472 349.382 403.941 437.231 394.99L436.769 390.46C350.428 399.258 291.75 367.395 254.617 333.37C236.03 316.339 222.832 298.755 214.283 285.431C210.01 278.771 206.902 273.182 204.867 269.267C203.85 267.31 203.101 265.772 202.609 264.729C202.363 264.208 202.181 263.81 202.062 263.545C202.002 263.413 201.958 263.314 201.93 263.25C201.916 263.217 201.905 263.194 201.899 263.179C201.896 263.172 201.893 263.166 201.892 263.163C201.891 263.162 201.891 263.161 201.891 263.16C201.891 263.16 201.891 263.161 199.8 264.061ZM437 392.725C437.23 394.99 437.23 394.99 437.231 394.99C437.232 394.989 437.233 394.989 437.234 394.989C437.237 394.989 437.24 394.989 437.245 394.988C437.253 394.987 437.266 394.986 437.282 394.984C437.313 394.981 437.36 394.976 437.42 394.97C437.541 394.956 437.718 394.937 437.949 394.91C438.412 394.856 439.092 394.773 439.97 394.657C441.726 394.424 444.275 394.056 447.47 393.515C453.857 392.432 462.831 390.653 473.199 387.863C493.905 382.293 520.308 372.657 542.767 356.392L540.096 352.705C518.265 368.515 492.453 377.968 472.016 383.467C461.812 386.212 452.982 387.963 446.709 389.026C443.573 389.558 441.078 389.917 439.372 390.143C438.519 390.256 437.863 390.336 437.423 390.387C437.203 390.413 437.037 390.431 436.928 390.443C436.873 390.449 436.832 390.454 436.806 390.456C436.793 390.458 436.783 390.459 436.777 390.459C436.774 390.46 436.772 390.46 436.771 390.46C436.77 390.46 436.77 390.46 436.77 390.46C436.77 390.46 436.77 390.46 437 392.725Z" fill="black" mask="url(#path-4-inside-1_1136_134936)"/>
<path d="M266.549 -9.07903C266.549 -9.07903 62.1136 84.803 150.911 257.787C150.911 257.787 228.774 439.172 443.255 423.371C443.255 423.371 515.558 418.444 563.182 383.769L571.832 374.996C571.832 374.996 523.022 342.992 519.131 335.176C519.131 335.176 439.04 443.447 267.278 334.349C267.278 334.349 129.101 196.489 220.143 67.362L277.023 14.3872L266.798 -9.19354L266.549 -9.07903Z" fill="url(#paint2_linear_1136_134936)" stroke="#2F2F2F" stroke-width="1.51766" stroke-linecap="round"/>
<path d="M518.159 312.333C518.159 312.333 471.255 363.038 373.592 349.556C324.444 342.783 276.359 314.003 246.188 267.038C224.62 233.549 209.912 188.374 224.389 132.465C233.127 98.5753 252.587 70.6101 277.771 50.5087L291.906 39.2159L274.398 10.6216C274.398 10.6216 130.876 116.189 199.925 263.919C199.925 263.919 262.935 410.332 437.125 392.583C437.125 392.583 497.267 386.482 541.556 354.406" fill="url(#paint3_linear_1136_134936)"/>
<path d="M518.159 312.333C518.159 312.333 471.255 363.038 373.592 349.556C324.444 342.783 276.359 314.003 246.188 267.038C224.62 233.549 209.912 188.374 224.389 132.465C233.127 98.5753 252.587 70.6101 277.771 50.5087L291.906 39.2159L274.398 10.6215C274.398 10.6215 130.876 116.189 199.925 263.919C199.925 263.919 262.935 410.332 437.125 392.583C437.125 392.583 497.267 386.482 541.556 354.406" stroke="#2F2F2F" stroke-width="1.51766" stroke-linecap="round"/>
</g>
</g>
<defs>
<linearGradient id="paint0_linear_1136_134936" x1="394.848" y1="237.011" x2="317.778" y2="44.6858" gradientUnits="userSpaceOnUse">
<stop stop-color="#FFB843"/>
<stop offset="1" stop-color="#FFE7BF"/>
</linearGradient>
<linearGradient id="paint1_linear_1136_134936" x1="362.766" y1="39.845" x2="473.317" y2="288.819" gradientUnits="userSpaceOnUse">
<stop stop-color="#B3AFD4"/>
<stop offset="1" stop-color="#2E3192"/>
</linearGradient>
<linearGradient id="paint2_linear_1136_134936" x1="371.878" y1="273.969" x2="314.562" y2="102.152" gradientUnits="userSpaceOnUse">
<stop stop-color="#FD6641"/>
<stop offset="1" stop-color="#FFC692"/>
</linearGradient>
<linearGradient id="paint3_linear_1136_134936" x1="362.443" y1="-17.3563" x2="590.429" y2="200.443" gradientUnits="userSpaceOnUse">
<stop stop-color="#FFC9DB"/>
<stop offset="0.713144" stop-color="#DD4F7F"/>
</linearGradient>
<clipPath id="clip0_1136_134936">
<rect width="427.163" height="530.277" fill="white"/>
</clipPath>
<clipPath id="clip1_1136_134936">
<rect width="310.361" height="461.908" fill="white" transform="translate(0 86.8032) rotate(-16.2414)"/>
</clipPath>
</defs>
</svg>
