<svg fill="none" viewBox="0 0 1728 1256" xmlns="http://www.w3.org/2000/svg" xmlns:xlink="http://www.w3.org/1999/xlink"><linearGradient id="a" gradientUnits="userSpaceOnUse" x1="1253.22" x2="-124.996" y1="391.934" y2="670.991"><stop offset="0" stop-color="#b3afd4"/><stop offset="1" stop-color="#2e3192"/></linearGradient><linearGradient id="b" gradientUnits="userSpaceOnUse" x1="1364.6" x2="555.132" y1="339.588" y2="-233.726"><stop offset="0" stop-color="#ffc9db"/><stop offset=".713144" stop-color="#dd4f7f"/></linearGradient><linearGradient id="c" gradientUnits="userSpaceOnUse" x1="20.2109" x2="896.126" y1="787.216" y2="355.305"><stop offset="0" stop-color="#fd6641"/><stop offset="1" stop-color="#ffc692"/></linearGradient><linearGradient id="d" gradientUnits="userSpaceOnUse" x1="358.493" x2="1005.42" y1="619.762" y2="394.617"><stop offset="0" stop-color="#ffb843"/><stop offset="1" stop-color="#fff"/></linearGradient><clipPath id="e"><path d="m0 0h708.199v465.811h-708.199z" transform="matrix(-.99036 .138514 .138514 .99036 1756.8 .498291)"/></clipPath><clipPath id="f"><path d="m0 0h101.018v147.197h-101.018z" transform="matrix(-.99036 .138514 .138514 .99036 1366.92 178.753)"/></clipPath><g stroke="#2f2f2f" stroke-linecap="round" stroke-width="2"><path d="m580.134 854.635c217.941 89.698 428.036 48.677 431.896-58.994 3.1-86.932-68.232-145.103-141.073-188.078-23.473-13.848-137.656-70.797-121.725-105.52 17.674-38.521 86.041-29.276 165.362-18.548l.032.004c8.132 1.099 16.378 2.214 24.697 3.295 98.537 12.803 207.207 20.784 254.877-58.91 1.05-1.75 2.11-3.458 3.2-5.124 56.88-86.755 174.58-61.862 209.75-52.042l10.14 3.102.27-5.684s-119.73-105.172-238.3-14.159c-208.973 160.409-376.493-34.209-525.981 77.739-50.285 37.658-36.384 81.482 1.448 125.691 26.783 31.298 65.562 62.79 102.052 92.422 1.93 1.569 3.855 3.131 5.771 4.688 62.774 51.024 116.397 96.135 86.437 124.643-38.947 37.052-106.567 5.144-202.892-40.308l-.003-.002c-12.308-5.808-25.086-11.837-38.332-17.972-70.483-32.643-154.238-68.273-251.272-89.473-193.45-42.263-439.6828-27.169-738.772 183.3l210.316 240.455s240.0716-270.145 570.369-244.527c58.061 4.503 118.91 18.146 181.733 44.002z" fill="url(#a)"/><path d="m1187.32 411.734c2.86-3.673 5.72-7.272 8.71-10.725 76.16-87.374 202.97-36.568 219.52-29.41 1.18.51 1.81.797 1.81.797l.06-1.42s-133.06-78.384-226.99 14.355c-3.39 3.382-6.69 6.818-10.01 10.237-145.03 149.292-385.454-28.17-479.166 71.3-37.284 39.472 1.486 79.856 57.419 123.333 9.026 7.016 18.499 14.112 28.172 21.298 2.92 2.17 5.858 4.347 8.808 6.533 63.473 47.041 132.21 97.984 138.358 155.34 1.113 10.415-.652 19.836-6.764 28.42-51.719 72.83-218.457 24.94-426.454-50.422-15.025-5.444-30.016-10.212-44.963-14.344-29.106-8.046-58.037-13.68-86.696-17.191-262.957-32.212-503.048 114.288-646.261 215.068l52.578 60.137c7.276-5.121 16.311-11.891 26.987-19.892 47.998-35.969 129.155-96.788 232.6858-144.159 50.4171-23.068 106.1402-42.949 165.9222-55.217 56.834-11.663 117.336-16.447 180.437-10.552 51.468 4.808 104.665 16.721 159.01 37.799 202.451 78.538 381.106 89.208 425.917 10.118 4.988-8.798 6.963-18.313 6.628-28.622-2.493-77.919-89.846-134.068-161.765-182.279-10.09-6.764-19.877-13.372-29.083-19.862-48.296-34.047-80.605-64.845-56.938-97.911 29.658-41.568 100.088-31.339 179.643-19.786 101.035 14.673 216.785 31.482 282.425-52.943z" fill="url(#b)"/><path d="m927.252 801.79c6.11-8.585 7.875-18.006 6.764-28.421-6.15-57.356-74.887-108.298-138.359-155.34-2.949-2.185-5.887-4.363-8.808-6.532-9.672-7.186-19.145-14.283-28.172-21.3-9.669-7.515-18.825-14.938-27.164-22.28-39.9-35.131-61.094-68.403-30.255-101.052 42.069-44.655 113.707-33.498 193.007-21.148 97.346 15.16 206.245 32.118 286.175-50.154.58-.606 1.17-1.216 1.76-1.825l.18-.185c2.66-2.752 5.33-5.506 8.05-8.224 87.82-86.706 209.85-23.83 225.35-15.282 1.08.594 1.65.926 1.65.926l.07-1.421s-126.41-91.767-232.64.098l-1.45 1.258c-3.3 2.881-6.57 5.728-9.85 8.489-173.751 146.858-376.196-34.692-496.28 69.891-44.702 38.867-18.582 81.817 28.83 125.975 20.412 19.012 44.772 38.249 69.125 57.479l.004.003c3.491 2.757 6.982 5.514 10.461 8.27 52.188 41.339 101.725 82.503 109.31 121.211 2.054 10.52.394 19.884-6.878 28.237-44.115 50.679-143.811 13.293-282.765-38.815-5.533-2.075-11.129-4.173-16.786-6.29-39.599-14.82-82.198-30.557-127.443-45.622-32.959-10.975-66.327-19.16-99.983-24.723-229.582-37.943-472.596 46.18-690.837 199.769l52.558 60.118c68.813-48.423 159.989-107.401 265.3215-152.039 64.7911-27.458 134.9385-49.489 208.5305-60.3 55.768-8.194 113.516-9.944 172.41-2.729 28.659 3.511 57.59 9.144 86.697 17.191 14.945 4.132 29.937 8.9 44.962 14.345 207.996 75.361 374.735 123.251 426.455 50.422z" fill="url(#c)"/><path d="m1179.26 353.974c118.57-91.013 238.3 14.16 238.3 14.16l-.07 1.421s-126.39-91.769-232.64.098l-1.45 1.271c-3.31 2.878-6.57 5.72-9.84 8.475-173.752 146.858-376.197-34.691-496.282 69.891-44.702 38.867-18.581 81.817 28.831 125.975 20.412 19.012 44.772 38.249 69.125 57.48l.003.002c3.491 2.757 6.982 5.514 10.462 8.27 52.187 41.34 101.724 82.504 109.308 121.211 2.055 10.519.396 19.884-6.878 28.237-44.114 50.679-143.81 13.293-282.763-38.814l-.01-.004c-5.531-2.074-11.123-4.171-16.776-6.287-39.599-14.819-82.198-30.557-127.444-45.622-32.958-10.975-66.326-19.16-99.983-24.723-229.582-37.943-472.595 46.18-690.836 199.769l-52.602-60.081c299.09-210.47 545.323-225.564 738.773-183.301 115.262 25.181 211.784 70.725 289.585 107.436 65.648 29.772 156.838 63.898 195.229 34.283 29.96-28.508-15.977-67.582-78.752-118.606-1.916-1.557-3.841-3.121-5.771-4.689l-.003-.001c-36.488-29.633-75.266-61.123-102.049-92.421-37.832-44.209-51.733-88.033-1.448-125.69 149.488-111.949 317.008 82.669 525.981-77.74z" fill="url(#d)"/></g><g clip-path="url(#e)" opacity=".99"><path d="m1110.62 373.643c-.31.392-.24.799.07 1.111.53.517 1.11 1 1.69 1.46 3.94 3.06 7.92 6.08 11.83 9.172 3.32 2.632 6.58 5.334 9.84 8.043.54.44 1.49.857 1.19 1.671-.22.587-1.15.551-1.8.677-5.35 1.053-10.62 2.409-15.71 4.346-1.88.715-3.72 1.501-5.55 2.328-.75.341-1.48.778-2.11 1.311-.84.709-.76 1.685.13 2.304.54.377 1.15.682 1.75.959 7.35 3.294 13.58 8.099 19.03 13.876 4.4 4.652 8.25 9.742 11.57 15.198 4.84 7.936 8.87 16.251 11.9 25.031.7 2.031 1.32 4.087 2.02 6.118.33.963.67 1.186 1.67 1.012 1.31-.226 2.61-.561 3.92-.861 2.61-.616 5.2-1.305 7.81-1.845 16.57-3.416 33.2-6.473 49.88-9.265 14.37-2.406 28.75-4.785 43.14-7.062 16.62-2.631 33.32-4.779 50.01-6.912 9.55-1.225 19.12-2.333 28.71-3.277 10.91-1.074 21.84-1.949 32.77-2.879 6.92-.593 13.84-1.151 20.77-1.681 9.01-.69 18.03-1.346 27.05-2.002 5.67-.411 11.35-.83 17.04-1.193 5.26-.339 10.52-.616 15.79-.894 4.35-.232 8.69-.458 13.04-.634 5.85-.242 11.71-.462 17.56-.648 4.77-.152 9.54-.269 14.31-.345 5.69-.093 11.38-.194 17.07-.189 7.45.009 14.89.06 22.34.188 8.94.154 17.89.37 26.84.621 8.86.256 17.73.526 26.58.916 16.88.736 33.74 1.779 50.55 3.471 24.63 2.476 49.12 5.868 73.39 10.711 15.24 3.045 30.37 6.544 45.38 10.539.24.064.49.126.73.161.88.108 1.65 1.126 2.55.549.75-.481.48-1.521.68-2.301 3.93-14.798 6.79-29.822 10.33-44.699 3.67-15.373 7.88-30.586 12.71-45.648.4-1.26.81-2.529 1.06-3.816.43-2.202-.23-3.488-2.27-4.406-1.05-.472-2.19-.828-3.33-1.065-6.71-1.406-13.45-2.571-20.32-3.003-1.67-.107-3.33-.208-5-.35-.75-.062-1.5-.18-2.23-.343-.52-.121-.89-.459-.75-1.077.18-.805.35-1.614.59-2.406 1.15-3.807 2.58-7.513 4.24-11.134 2.5-5.429 5.24-10.73 8.24-15.901.41-.719.85-1.434 1.16-2.195.95-2.268.35-3.805-1.95-4.819-.99-.433-2.04-.765-3.09-.98-5-1.02-10-1.99-15-2.974-1.07-.213-2.14-.397-3.2-.618-.93-.196-1.4-.826-1.5-1.744-.13-1.158-.07-2.308.06-3.459.45-4.197 1.3-8.329 2.22-12.444 1.39-6.213 2.82-12.417 4.56-18.546.34-1.189.63-2.405.85-3.619.16-.808.23-1.64.22-2.458-.04-1.797-.89-3.146-2.49-4.015-1.1-.603-2.28-1.016-3.52-1.253-1.97-.379-3.94-.765-5.91-1.086-4.95-.797-9.91-1.565-14.87-2.332-3.79-.583-3.26-.761-2.44-3.666 1.2-4.217 2.38-8.439 3.54-12.664.26-.955.43-1.938.53-2.919.07-.643.03-1.326-.12-1.96-.24-1.044-.92-1.707-2.03-1.942-.84-.182-1.67-.149-2.5-.027-6.21.87-12.47 1.46-18.6 2.888-.63.143-.91-.089-.88-.789.31-6.27.38-12.547 1.3-18.777.09-.647.16-1.318.14-1.968-.05-1.016-.53-1.526-1.55-1.614-1.42-.121-2.84-.062-4.23.307-2.53.666-4.93 1.621-7.16 2.97-1.93 1.168-3.84 2.366-5.9 3.309-2.42 1.111-2.67.993-2.69-1.642-.04-7.014-.02-14.037-.04-21.054-.02-5.618-.01-11.234-.13-16.845-.2-8.997-.28-17.995.11-26.997.05-1.161.05-2.315-.22-3.447-.34-1.455-1.23-2.13-2.72-1.951-1.07.13-2.13.417-3.18.682-.98.241-1.95.481-2.97.422-.55-.034-.98-.288-.99-.891-.01-.736-.01-1.481.07-2.215.34-3.206.7-6.401 1.06-9.604.12-.997.11-1.984-.11-2.954-.29-1.212-1.01-1.807-2.28-1.915-1.19-.099-2.33.173-3.49.376-1.32.234-2.63.514-3.96.693-1.43.2-1.76-.101-1.86-1.583-.05-.821 0-1.649.01-2.478.01-1.156.05-2.31.03-3.468-.02-.659-.1-1.322-.24-1.964-.57-2.578-1.72-3.544-4.37-3.459-2.42.082-4.86.22-7.26.535-5.56.723-11.11 1.541-16.66 2.359-2.24.327-4.46.748-6.69 1.137-.41.071-.82.157-1.22.268-1.72.463-2.37 1.312-2.15 3.077.14 1.143.42 2.271.68 3.398.36 1.611.77 3.21 1.14 4.821.11.478.2.973.25 1.461.26 2.489-.15 2.929-2.66 2.827-1.08-.043-2.17-.148-3.25-.184-1.95-.062-2.78.736-2.66 2.688.08 1.227.32 2.453.55 3.673.52 2.675 1.11 5.335 1.64 8.008.15.724.24 1.47.28 2.208.04.558-.27.95-.85 1.051-.66.114-1.33.172-2 .258-2.24.307-4.49.552-6.71.94-2.4.412-3.29 1.462-3.51 3.822-.1 1.163.02 2.314.19 3.453.64 4.579 1.3 9.155 1.94 13.74 1.61 11.207 2.78 22.452 3.82 33.724.5 5.427 1.07 10.849 1.58 16.275.14 1.559.21 3.129.22 4.699.01 1.091-.27 1.374-1.3 1.394-1.49.034-3 .133-4.52-.1.11-5.671-.17-11.261-.44-16.844-.34-6.93-.67-13.855-1.1-20.773-.38-6.097-.87-12.193-1.36-18.282-.88-10.863-1.79-21.727-2.7-32.585-.16-1.891-.4-3.777-.59-5.665-.09-.871-.34-1.58-1.3-1.905-.46-.152-.84-.515-1.23-.83-11.24-9.393-23.03-18.04-35.7-25.479-1.01-.59-2-1.21-3-1.793-.57-.331-1.12-.331-1.54.27-1.17.895-1.39 2.073-1.21 3.46.23 1.75.72 3.483.4 5.275-.01 7.104.86 14.155 1.24 21.233.52 9.89 1.12 19.769 1.48 29.667.66 18.15 1.05 36.31 1.25 54.475.22 20.396.19 40.798.14 61.196-.06 27.337-.19 54.677.16 82.012.2 16.015.69 32.025 1.55 48.017.13 2.306.61 4.577.52 6.906-.1 2.546-.16 2.694-2.72 2.635-10.46-.235-20.92-.54-31.38-.586-2.51-.011-5.02.076-7.53-.095-.59-.036-1.17-.164-1.76-.158-10.57.164-21.15.21-31.73.424-1 .021-2 .009-2.99.209-1.42.193-2.84.559-4.3.22-6.2-.324-12.37.261-18.54.512-9.6.389-19.18.993-28.78 1.514-.68.039-1.34.103-1.99.244-.44.061-.88.13-1.32.184-.58.047-1.16.141-1.73.242-1.73.242-3.45.67-5.22.34-6.95-.064-13.85.755-20.77 1.256-9.75.703-19.5 1.517-29.26 2.228-7.08.517-14.16 1.243-21.24 1.796-12.09.946-24.11 2.64-36.19 3.62-.33.026-.67.052-1 .099-22.89 3.173-45.8 6.163-68.64 9.683-12.64 1.949-25.27 4.056-37.87 6.284-12.17 2.163-24.38 4.197-36.47 6.883-4.98 1.107-10 2.039-14.93 3.347-1.65.44-2.45.023-2.88-1.642-1.31-5.049-3.38-9.838-5.43-14.624-.94-2.206-.69-2.873 1.64-3.303 6.34-1.152 12.61-2.599 18.93-3.804 10.84-2.066 21.76-3.691 32.58-5.913.41-.085.82-.177 1.24-.235 17.06-2.463 34-5.786 51.15-7.607 14.71-1.557 29.43-3.114 44.18-4.377 29.8-2.554 59.67-2.564 89.51-3.531 9.63-.309 19.24-.611 28.86-.53.93.01 1.84-.076 2.75-.293.69-.306 1.64-.355 1.55-1.469-.99-.996-2.3-.827-3.54-.876-13.23-.474-26.45-.037-39.66.266-11.88.27-23.76.332-35.65.679-12.28.362-24.57.898-36.83 1.82-15.19 1.142-30.31 2.681-45.45 4.27-12.67 1.326-25.27 3.06-37.82 5.039-12.15 1.913-24.31 3.754-36.38 6.068-12.73 2.434-25.55 4.436-38.14 7.512-1.49.361-2.17-.232-2.78-1.365-3.55-6.564-7.65-12.774-12.55-18.441-1.16-1.334-.82-2.09.73-2.752 3.79-1.631 7.84-2.398 11.84-3.256 14.65-3.143 29.44-5.587 44.33-7.188 11.06-1.185 22.07-2.851 33.16-3.671 13.51-.992 27.03-1.833 40.57-2.418 17.38-.755 34.77-1.441 52.18-1.601 33.23-.307 66.45.168 99.61 2.516 1.25.089 2.5.262 3.74-.1.58-.233 1.15-.466 1.15-1.225-.75-1.147-2-1.062-3.14-1.16-25.51-2.311-51.08-3.195-76.69-3.383-19.33-.143-38.65-.057-57.96.71-13.28.522-26.57.954-39.83 1.821-14.1.922-28.15 2.323-42.2 3.822-12.74 1.365-25.4 3.246-38.06 5.031-8.27 1.164-16.47 2.88-24.56 5.014-2.34.62-4.61 1.535-6.77 2.638-1.38.7-2.55.551-3.64-.528-4.54-4.458-9.67-8.096-15.42-10.889-.47-.232-1.22-.392-1.09-1.142.1-.541.71-.648 1.16-.843 5.24-2.243 10.66-3.974 16.25-5.112 1.48-.297 2.95-.607 4.37-1.125 2.9-1.06 3.33-2.741 1.24-5.03-1.28-1.414-2.83-2.582-4.32-3.744-6.16-4.794-12.03-9.958-18.55-14.298-.89-.439-1.55-1.779-2.84-.729z" fill="#23312d"/><g clip-path="url(#f)"><path d="m1335.03 189.196c-.15-1.137-.29-2.269-.44-3.406-.07-.496-.11-.997-.19-1.486-.08-.424-.46-.599-.78-.343-1.02.805-2.03 1.623-3.03 2.455-5.94 4.954-11.9 9.87-17.79 14.884-2.97 2.531-5.78 5.233-8.65 7.866-1.55 1.416-3.05 2.88-4.62 4.257-.89.776-1.23 1.584-1.15 2.803.2 3.28.24 6.574.29 9.858.06 4.145.09 8.289.11 12.434.01 2.501-.03 5.003-.04 7.506 0 2.569.03 5.145-.01 7.718-.06 5.285-.15 10.573-.25 15.862-.09 4.787-.18 9.574-.31 14.363-.17 5.642-.36 11.288-.58 16.931-.2 5.068-.43 10.135-.68 15.205-.06 1.123.06 2.276-.42 3.356.05.68.42 1.044 1.11 1.069 1.01.033 2.02.066 3.04.057 1.97-.011 3.89.318 5.8.72.87.18 1.02.478.9 1.363-.51 3.827-.74 7.676-.84 11.524-.16 6.281-.29 12.557-.35 18.841-.04 4.853.09 9.706.08 14.561-.01 4.421-.15 8.841-.18 13.265-.05 7.64-.28 15.269-.72 22.897-.52 8.91-.98 17.82-1.47 26.727-.26 4.775-.58 9.546-.79 14.326-.14 3.288.08 6.567.44 9.839 1.43.349 2.89.138 4.32.148 10.07.046 20.13.224 30.19.578.21.006.43 0 .65-.001 2.36.014 2.28.018 2.15-2.241-.28-4.561-.74-9.116-.85-13.688-.09-3.497-.34-6.994-.47-10.492-.12-3.498-.17-6.999-.26-10.496-.07-2.926-.18-5.853-.22-8.783-.07-4.072-.09-8.144-.14-12.214-.03-2.714-.06-5.429-.08-8.145-.03-3.855-.05-7.716-.06-11.574-.01-3.646-.01-7.288-.01-10.935 0-3.43-.02-6.859-.01-10.284.01-3.788.04-7.578.05-11.366.02-3.855.04-7.716.05-11.57.01-3.498-.02-6.997-.02-10.5 0-4.643.03-9.288.02-13.936 0-3.858-.04-7.717-.06-11.58-.01-3.712 0-7.426-.03-11.143-.02-2.716-.07-5.428-.1-8.142-.04-3.142-.06-6.287-.11-9.427-.04-2.713-.12-5.428-.17-8.145-.08-3.499-.13-7-.23-10.501-.09-3.285-.23-6.569-.35-9.856-.12-3.571-.22-7.144-.35-10.713-.06-1.788-.15-3.573-.24-5.356-.24-4.212-.48-8.417-.72-12.627-.27-4.634-.53-9.278-.82-13.915-.18-2.851-.41-5.701-.62-8.553z" fill="#da8a6f"/><path d="m1343.72 455.449c7.09.256 14.19.505 21.29.76.44.017.87.059 1.3.053.57-.006.75-.207.73-.801-.14-3.929-.34-7.863-.43-11.792-.17-6.935-.28-13.876-.4-20.811-.14-7.722-.23-15.451-.39-23.175-.21-9.582-.42-19.168-.71-28.744-.2-6.58-.53-13.153-.83-19.725-.32-7.22-.65-14.439-1.01-21.654-.29-5.789-.62-11.573-.94-17.359-.34-6.217-.69-12.432-1.28-18.625-.04-.429-.04-.862-.02-1.288.13-2.249.92-3.131 3.15-3.328 1.45-.13 2.9-.147 4.35-.095 2.1.074 4.19.263 6.29.392.71.039 1.42.126 2.12-.17-.12-2.057-.23-4.044-.35-6.034-.67-10.349-1.07-20.717-1.93-31.057-.83-9.983-1.63-19.963-2.45-29.948-.34-4.136-.71-8.268-.99-12.408-.11-1.786-.9-3.039-2.32-4.106-6.62-4.983-13.16-10.067-20.03-14.719-3.94-2.674-8.06-5.064-12.12-7.553-.18-.108-.39-.151-.56-.211-.5.214-.33.619-.33.932.01.644.06 1.289.11 1.925.76 8.48 1.36 16.969 1.8 25.476.36 7.213.79 14.43 1.08 21.649.3 7.362.47 14.73.66 22.094.15 5.508.28 11.012.38 16.521.09 4.865.14 9.729.17 14.59.05 8.229.09 16.453.1 24.682.01 7.938-.03 15.884-.04 23.826-.02 8.798-.03 17.596-.03 26.399 0 7.796-.02 15.593.01 23.39.02 6.225.09 12.45.16 18.673.09 6.506.18 13.016.33 19.525.13 5.722.33 11.44.51 17.16.15 4.645.32 9.293.48 13.937-.06.522-.07 1.036.28 1.481.13.049.26.067.39.048.48.192.99-.097 1.48.089z" fill="#f3ebd7"/></g><path d="m1457.3 324.688c.06.43.32 1.02.63.949 1.11-.246 1.01.895 1.61 1.202.84-.758.76-1.804.81-2.764.59-11.771 1.23-23.536 1.58-35.314.07-2.424.95-3.515 3.09-4.35 8.26-3.214 16.12-7.256 23.88-11.507.81-.44 1.6-.905 2.32-1.473.22-.162.4-.362.55-.578.07-.12.12-.239.18-.358.07-.261.04-.514-.09-.753-.35-.229-.73-.239-1.13-.141-.49.152-.95.383-1.42.616-6.36 3.491-12.9 6.605-19.39 9.863-1.36.191-2.49.955-3.72 1.461-1.59.646-2.33.333-2.34-1.497 0-4.459.06-8.92 0-13.378-.24-18.41-.57-36.822-1.24-55.228-.46-12.618-1.15-25.226-1.87-37.822-.13-2.395 1.35-3.597 2.75-4.984.75-.745 1.43-1.611 2.75-2.13.54 2.415.43 4.733.55 6.985.44 8.655.82 17.313 1.09 25.971.64 20.059.88 40.126.91 60.193.01 5.697.05 11.396.09 17.095.01 1.147-.47 2.78 1.55 3.011 1.06-1.845.7-3.874.72-5.826.28-26.406-.12-52.796-.91-79.186-.27-8.985-.78-17.959-1.19-26.931-.1-1.998.56-2.758 2.53-3.082 8.41-1.412 16.79-2.933 25.17-4.515 1.32-.247 2.62-.555 3.68-1.461.24-.256.26-.53.06-.815-1.98.332-3.96.644-5.93 1.002-1.39.258-2.77.612-4.17.862-5.76 1.029-11.53 2.058-17.3 3.026-1.81.301-3.61.699-5.47.479-.45-.055-.82.115-1.14.403-.75.661-1.5 1.323-2.22 2.009-1.57 1.492-3.09 3.033-4.7 4.483-.64.576-.79 1.188-.73 1.974.28 4.198.55 8.396.77 12.596.36 6.837.7 13.678.98 20.519.31 7.255.59 14.507.8 21.761.2 6.596.3 13.192.42 19.791.12 5.938.22 11.88.32 17.814.09 4.949.16 9.899.26 14.847.02 1.068.1 2.141.18 3.209.04.544-.11.983-.64 1.217-1.16.51-1.34 1.342-1.38 2.579-.13 4.617-.52 9.222-.75 13.838-.34 6.922-.63 13.843-.95 20.769-.05 1.071-.15 2.142-.25 3.207-.07.636-.31.69-1.26.371z" fill="#41423b"/><path d="m1500.47 157.94c.02.157.04.322.06.48 2.4.423 2.8 1.952 2.97 4.183 1.12 14.467 1.88 28.943 2.57 43.436.94 19.774 1.4 39.558 2.02 59.342.15 4.738.18 4.642-4.73 4.272-3.56-.267-7.11-1.071-10.72-.421-.45.202-.66.594-.81 1.025l-.01.016c-.26.572-.3 1.112.26 1.55 1.79-.488 3.6-.568 5.45-.36 8.31.925 16.63 1.675 25 1.882.92.024 1.83.134 2.74.298 1.15.208 1.78.789 1.65 2.037-2.29 23.969-.85 47.999-1.51 71.99-.61 22.028-2.17 44.016-3.41 66.015-.18 3.232.26 6.42.21 9.634-.01.962.11 2.002 1.02 2.675.35.119.69.244 1.04.362 1.03-2.154.23-4.394.25-6.575.02-1.972-.06-3.95.05-5.935 1.24-23.173 2.91-46.331 3.38-69.543.37-17.918-.13-35.834.38-53.744.14-4.952.43-9.897.87-14.842.28-3.184-.12-3.65-3.37-4.259-1.74-.329-3.48-.474-5.24-.499-1.34-.022-2.69-.035-3.94-.612-.14-.043-.27-.087-.41-.13-.15.021-.28.047-.43.074-.02.24-.04.486-.07.726-.47.31-.99.355-1.53.193-1.08-.063-2.17-.106-3.25-.191-1.16-.083-1.33-.281-1.33-1.31-.01-3.38.02-6.766-.06-10.143-.18-8.497-.4-16.99-.65-25.483-.18-5.771-.42-11.547-.66-17.316-.25-6.185-.49-12.363-.79-18.541-.24-4.858-.54-9.721-.84-14.577-.35-5.6-.72-11.198-1.09-16.789-.19-2.881-.42-5.757-.64-8.635-.02-.337-.09-.648-.4-.848-1.27-.169-2.5.044-3.69.496-.14-.099-.26-.076-.34.068z" fill="#3e433d"/><path d="m1250.42 296.529c-.47-.261-.57-.713-.64-1.183-.1-.619-.23-1.234-.34-1.851-.37 1.15-.04 2.287.03 3.432.03.482-.15.793-.65.862-.49.07-1 .106-1.49.133-5.68.349-11.35.69-17.03 1.052-2.5.155-5.01.318-7.5.528-10.17.845-20.34 1.654-30.5 2.582-10.25.932-20.48 1.981-30.71 3.016-1.9.189-3.83.25-5.71.861.31 4.068-.69 7.902-1.68 11.735-1.64 6.296-4.38 12.133-7.81 17.651-6.58 10.541-14.23 20.232-23.47 28.648-3.14 2.86-6.49 5.478-9.86 8.058-.78.596-1.78.834-2.42 1.605.62-.066 1.25-.197 1.52.608.11.319.39.439.71.499 3.78-1.747 7.98-1.728 11.94-2.748 10.19-2.636 20.58-4.325 30.97-6.065 7.18-1.198 14.34-2.485 21.56-3.272 5.64-.615 11.3-1.128 16.92-1.983.83-.318 1.92-.242 2.14-1.442-.49-.57-1.19-.619-1.84-.513-3.07.505-6.18.258-9.26.703-11.85 1.713-23.74 3.188-35.56 5.05-8.43 1.325-16.81 2.963-25.05 5.214-2.92.798-5.98.761-8.53 1.661.6-.086 1.35-.587 2.08-1.148 7.01-5.343 13.21-11.483 18.59-18.42 4.83-6.242 9.74-12.431 13.48-19.431 3.75-7.037 6.3-14.428 7.4-22.27.31-2.185 1.15-3.243 3.42-3.358 9.94-.513 19.79-2.003 29.7-2.798 7.58-.608 15.16-1.333 22.74-1.983 8.49-.736 17-1.279 25.51-1.829 5.92-.383 11.86-.484 17.76-1.267.8-.271 1.8-.251 1.96-1.386-1.48-.99-3.16-.575-4.75-.547-1.23.02-2.43.02-3.61-.379z" fill="#3c3c35"/><path d="m1560.66 120.033c.36-.407.34-.89.27-1.389-.18-1.29-.27-2.599-.54-3.876-.26-1.188-.06-2.246.54-3.268-1.44 1.098-2.89 2.191-4.29 3.34-6.68 5.506-13.38 10.999-20.03 16.543-6.28 5.233-12.08 10.964-18.11 16.461-.99.904-1.4 1.845-1.37 3.232.2 7.994.31 15.993.37 23.993.04 6.513-.02 13.026-.1 19.542-.09 9.072-.2 18.145-.38 27.216-.19 8.742-.47 17.478-.7 26.215-.17 6.097-.35 12.202-.51 18.299-.02.741.02 1.486.03 2.229-.06.634-.15 1.28.38 1.791l-.03-.017c1.56-.643 1.04-2.087 1.11-3.182.67-11.295 1.06-22.599 1.42-33.906.85-26.327 1.06-52.662.44-78.986-.08-3.807 1.24-6.016 3.82-8.451 10.33-9.716 21.24-18.75 32.16-27.777.83-.687 1.7-1.344 2.53-2.051 1.02-.873 1.56-.691 1.8.645.21 1.181.03 2.529 1.2 3.388z" fill="#323933"/><path d="m1500.82 157.871c1.23-.165 2.46-.331 3.7-.496-.21-.097-.43-.296-.62-.282-1.07.086-2.13.241-3.09.779z" fill="#41423b"/><path d="m1516.19 270.368c-.13-.601-.25-1.196-.38-1.797-.39.576-.25 1.148-.02 1.721.13.08.26.104.4.076z" fill="#da8a6f"/><path d="m1514.22 271.212c.56.298 1.11.534 1.54-.194-.51.071-1.02.129-1.54.194z" fill="#da8a6f"/><path d="m1672.47 419.54c-.15-4.126-.35-8.251-.44-12.379-.15-7.681-.27-15.359-.33-23.038-.05-6.686-.01-13.377.01-20.066.02-8.755.05-17.505.12-26.26.06-7.104.17-14.202.26-21.304.09-7.269.17-14.53.27-21.8.08-5.946.18-11.887.25-17.832.09-7.186.17-14.37.25-21.554.08-7.594.18-15.192.22-22.788.04-7.68.03-15.359.03-23.04 0-5.364.01-10.737-.03-16.101-.07-8.089-.18-16.186-.27-24.278 0-.153-.11-.298-.17-.457-.65-.333-1.31-.081-1.96.009-18.82 2.647-37.64 5.301-56.46 7.974-2.93.417-2.83.048-2.4 3.202 1.64 11.946 2.95 23.931 3.99 35.947.44 5.101.97 10.195 1.48 15.287.12 1.235.18 2.472 0 3.707-.26 1.797-.95 2.451-2.79 2.528-1.59.068-3.18.013-4.77.04-.79.013-1.08.289-1.02 1.061.19 2.638.39 5.275.63 7.906 1.13 12.254 2.35 24.502 3.38 36.763 1.09 13.003 2.06 26.017 2.95 39.027.63 9.144 1.05 18.297 1.55 27.453.47 8.658.96 17.314 1.39 25.972.38 7.836.67 15.671 1.03 23.51.22 4.534.49 9.067.72 13.606.24 4.947.6 9.892.51 14.852-.02.649-.46 1.372.01 1.919.46.547 1.26.283 1.9.338 6.59.576 13.16 1.137 19.75 1.698.49.043.98.211 1.47-.004.23-.4.11-.801.01-1.205-1.2-5.175-1.54-10.457-1.89-15.723-.44-6.59-.7-13.191-.92-19.79-.2-6.352-.29-12.712-.37-19.067-.08-6.689-.11-13.377-.11-20.063 0-10.075.04-20.147.07-30.225.02-7.927.07-15.852.07-23.783-.01-8.258 0-16.51-.11-24.767-.09-6.521-.31-13.043-.54-19.557-.23-6.355-.52-12.708-.85-19.055-.26-4.862-.55-9.734-.94-14.584-.77-9.383-1.58-18.765-2.72-28.109-.63-5.165-1.3-10.325-2.2-15.451-.17-.978-.31-1.961-.4-2.943-.03-.392.07-.816.2-1.196.06-.183.33-.339.54-.41.29-.104.44.154.53.378s.12.477.16.722c1.06 6.941 2.14 13.872 2.91 20.854 1.32 11.984 2.39 23.988 3.13 36.032.6 9.81 1.04 19.627 1.37 29.448.4 12.466.53 24.93.47 37.406-.04 7.762-.05 15.521-.08 23.283-.04 8.59-.12 17.173-.12 25.765 0 10.651.03 21.306.12 31.959.05 6.526.19 13.046.38 19.566.24 8.169.61 16.333 1.35 24.483.14 1.559.33 3.118.55 4.674.21 1.494.28 1.575 1.89 1.767 3.9.463 7.81.849 11.71 1.332 4.32.531 8.62 1.14 12.93 1.713.7.138 1.38.182 1.95-.363-.02-.31-.04-.613-.06-.924.54-1.982.69-3.964.02-5.951-.34-1.003-.59-2.032-.37-3.107-.05-.633-.1-1.266-.15-1.899.32-1.04-.38-2.062-.06-3.102z" fill="#f3ebd7"/><path d="m1194.31 360.003c-4.4.519-8.79 1.07-13.2 1.555-7.9.875-15.78 1.956-23.61 3.274-2.72.457-5.44.934-8.17 1.331-4.97.709-9.9 1.717-14.81 2.732-4.01.831-7.97 1.866-11.97 2.76-1.96.44-3.94.766-5.91 1.133-1.24.228-2.48.43-3.64.932-.56.246-.27.664-.15 1.037.21.116.46.207.65.355 6.64 5.138 13.36 10.174 19.79 15.571 1.14.96 2.28 1.949 3.27 3.049 1.05 1.155.68 2.395-.84 2.873-1.68.52-3.41.866-5.13 1.231-6.07 1.295-11.96 3.155-17.62 5.714-.46.204-.9.432-1.34.674-.31.176-.33.632-.03.812.43.253.87.498 1.32.706 6.42 2.977 12.11 6.961 17.08 11.958.29.292.6.562.91.846.28.253.63.281.93.148.61-.26 1.21-.566 1.8-.878 2.75-1.47 5.68-2.381 8.71-3.131 16.61-4.119 33.57-6.218 50.5-8.407 7.64-.985 15.3-1.854 22.96-2.64 9.58-.984 19.16-1.817 28.78-2.307 8.02-.405 16.04-.859 24.07-1.195 9.03-.379 18.05-.661 27.08-.971 13.63-.465 27.27-.522 40.9-.432 12.62.078 25.26.329 37.88.643 12.04.307 24.05 1.082 36.06 2.061 3.41.28 6.82.569 10.24.863.58.051 1.16.173 1.73.259 2.95 1.348 6.19 1.132 9.29 1.623 1.28.203 1.96-.727 1.94-2.031-.07-3.949-.6-7.868-.66-11.826-.03-1.826-1.32-2.528-2.99-2.705-9.03-1.52-14.87-7.299-19.82-14.337-2.96-4.213-5.75-8.504-7.99-13.131-.68-1.414-1.48-2.458-3.24-1.828-1.66.586-1.34 1.856-.99 3.102 4.52 15.912 15.03 26.353 28.4 31.76-5.76-1.88-12.08-6.485-17.59-12.226-1.42-1.471-2.94-2.184-5.03-2.296-23.75-1.291-47.51-1.132-71.29-.869-17.32.197-34.63.747-51.94 1.505-9.69.423-19.37 1.06-29.05 1.802-13.02.999-25.97 2.491-38.95 3.875-15.58 1.664-31.06 3.975-46.53 6.285-7.26 1.085-14.54 2.249-21.77 3.656-.99.195-1.9.629-2.87.882 2.98-1.224 6.19-1.422 9.3-2.01 19.59-3.699 39.41-5.887 59.1-8.837 9.53-1.422 19.08-2.64 28.67-3.404 12.67-1.006 25.34-1.951 38.04-2.551 16.22-.758 32.43-1.406 48.66-1.651 24.86-.367 49.73-.693 74.56.627 1.63.086 3.83.836 4.75-.538 1-1.49-.98-2.889-1.7-4.3-2.23-4.418-4.38-8.855-5.27-13.775-.63-1.874-2.4-1.605-3.79-1.766-6.71-.786-13.46-1.346-20.2-1.856-12.67-.963-25.36-1.192-38.05-1.094-10.5.085-21.01.553-31.52.729-11.19.187-22.36.275-33.73-1.559 8.26-4.793 15.22-10.769 21.53-17.503 1.48-1.578 2.88-3.22 4.31-4.833 1.15-1.302.99-2.413-.58-3.46-7.25-4.836-13.57-10.646-18.47-17.864-.49-.725-.96-1.764-2.05-1.543-.91.191-1.02 1.215-1.26 1.999-3.46 11.434-9.02 21.876-15.93 31.581-3.94 5.525-8.34 10.775-14.25 14.503-1.31 1.122-2.9.641-4.35.656-7.73.086-15.45.457-23.18.723-4.73.162-9.45.668-14.19.629-2.61-.025-5.01 1.118-7.58 1.276z" fill="#f3ebd7"/><path d="m1714.64 237.037c-2.99.417-5.98.807-8.96 1.266-1.39.208-1.44.298-1.5 1.775-.28 6.35-.55 12.697-.81 19.044-.29 7.173-.56 14.341-.87 21.515-.41 9.645-.88 19.29-1.27 28.932-.3 7.334-.55 14.674-.75 22.015-.17 5.686-.23 11.379-.34 17.071-.13 7.011-.29 14.024-.39 21.031-.1 6.101-.12 12.206-.23 18.315-.07 4.372-.18 8.743-.34 13.114-.29 7.582-.54 15.165-.26 22.759.15 4.285.11 8.577.15 12.863.01.494 0 .989.02 1.487.03.664.36 1.034 1.06 1.145 1.32.212 2.63.488 3.95.729 17.43 3.204 34.7 7.106 51.77 11.843 2.41.671 4.8 1.422 7.2 2.122.92.268 1.15.139 1.39-.833 1.4-5.784 2.9-11.551 4.17-17.365 3.14-14.291 6.27-28.58 10-42.738 2.76-10.481 5.81-20.877 9.17-31.192.33-1.02.59-2.066.84-3.109.17-.727-.14-1.331-.77-1.68-.65-.362-1.34-.697-2.05-.889-1.45-.397-2.92-.741-4.4-1.021-6.48-1.221-13-2.251-19.62-2.571-1-.048-2-.109-3-.22-.74-.077-1.5-.166-2.22-.371-1.42-.4-2.12-1.318-1.94-2.762.13-1.138.44-2.267.77-3.371 1.81-6.049 4.38-11.8 7.26-17.414 1.86-3.613 3.69-7.244 5.83-10.708.17-.282.34-.57.48-.874.45-1.024.23-1.709-.79-2.27-.95-.527-2-.819-3.07-1.038-5.32-1.065-10.65-2.114-15.98-3.171-.9-.18-1.82-.323-2.7-.569-1.24-.341-1.99-1.203-2.21-2.438-.15-.807-.19-1.637-.17-2.46.05-2.986.57-5.918 1.15-8.837 1.65-8.357 3.58-16.642 5.88-24.853.36-1.275.67-2.564.88-3.866.36-2.298-.27-3.329-2.47-4.232-1.48-.608-3.04-.953-4.6-1.201-5.78-.924-11.56-1.82-17.34-2.73-1.24-.195-2.5-.312-3.67-.774-1.27-.497-1.72-1.108-1.66-2.453.03-.728.24-1.467.44-2.176 1.26-4.539 2.56-9.075 3.81-13.62.24-.868.37-1.777.45-2.679.1-1.148-.39-1.691-1.56-1.765-.66-.046-1.34.007-2 .099-2.91.386-5.8.805-8.71 1.211 0-.027-.01-.054-.01-.075z" fill="#da8a6f"/><path d="m1560.65 120.033c-.17-1.312-.33-2.618-.5-3.93-.08-.573-.13-1.151-.23-1.714-.08-.49-.53-.692-.89-.397-1.18.929-2.35 1.873-3.5 2.833-6.85 5.717-13.73 11.39-20.53 17.175-3.42 2.922-6.67 6.04-9.99 9.078-1.78 1.634-3.51 3.323-5.32 4.913-1.03.895-1.43 1.827-1.33 3.233.24 3.786.27 7.587.33 11.377.08 4.783.11 9.565.13 14.349.02 2.885-.04 5.773-.04 8.661-.01 2.965.03 5.937-.01 8.906-.08 6.099-.18 12.201-.3 18.304-.1 5.525-.2 11.049-.36 16.574-.19 6.511-.41 13.027-.66 19.539-.23 5.848-.5 11.696-.79 17.545-.07 1.297.07 2.627-.48 3.873.06.785.48 1.206 1.28 1.234 1.17.038 2.33.076 3.5.066 2.28-.012 4.5.366 6.7.831 1 .207 1.18.552 1.04 1.573-.58 4.416-.85 8.857-.96 13.297-.2 7.249-.35 14.492-.41 21.743-.05 5.601.11 11.2.09 16.803-.01 5.101-.17 10.203-.2 15.307-.07 8.817-.33 17.62-.84 26.423-.59 10.282-1.13 20.563-1.7 30.841-.3 5.511-.66 11.017-.91 16.533-.16 3.794.1 7.577.51 11.354 1.65.402 3.33.159 4.99.171 11.61.052 23.23.258 34.83.666.25.007.5 0 .76-.001 2.71.017 2.63.021 2.47-2.586-.32-5.264-.84-10.52-.98-15.796-.09-4.035-.39-8.071-.53-12.107s-.21-8.076-.31-12.112c-.08-3.376-.2-6.754-.25-10.136-.08-4.699-.11-9.398-.16-14.094-.04-3.132-.07-6.265-.1-9.4-.03-4.448-.06-8.903-.07-13.355-.01-4.207 0-8.41-.01-12.619 0-3.958-.02-7.914-.01-11.868.01-4.37.04-8.743.06-13.115.02-4.448.04-8.904.06-13.352 0-4.036-.03-8.074-.03-12.116.01-5.358.03-10.719.02-16.081 0-4.453-.04-8.906-.06-13.363-.01-4.284-.01-8.571-.04-12.859-.02-3.135-.08-6.264-.12-9.396-.04-3.626-.06-7.255-.12-10.879-.05-3.131-.13-6.263-.2-9.399-.08-4.037-.15-8.077-.26-12.117-.11-3.791-.27-7.581-.41-11.374-.14-4.121-.25-8.244-.4-12.363-.07-2.063-.17-4.123-.28-6.18-.27-4.86-.55-9.713-.83-14.571-.31-5.348-.6-10.706-.94-16.058-.21-3.29-.47-6.578-.71-9.87z" fill="#da8a6f"/><path d="m1570.67 427.28c8.2.294 16.39.582 24.58.876.5.021 1 .069 1.5.062.65-.008.86-.239.84-.925-.16-4.534-.39-9.073-.5-13.608-.19-8.002-.32-16.012-.46-24.014-.16-8.912-.26-17.83-.45-26.744-.24-11.057-.49-22.119-.82-33.169-.23-7.593-.61-15.179-.95-22.763-.38-8.331-.75-16.662-1.17-24.987-.34-6.681-.72-13.355-1.08-20.032-.39-7.174-.8-14.346-1.48-21.493-.05-.494-.05-.994-.02-1.486.15-2.595 1.06-3.613 3.63-3.841 1.67-.149 3.35-.169 5.01-.109 2.43.085 4.85.303 7.27.452.81.046 1.64.146 2.44-.196-.14-2.374-.26-4.666-.41-6.963-.76-11.942-1.22-23.907-2.22-35.839-.95-11.52-1.88-23.037-2.82-34.559-.39-4.773-.83-9.541-1.14-14.318-.14-2.062-1.04-3.507-2.68-4.739-7.64-5.75-15.19-11.616-23.12-16.984-4.55-3.086-9.3-5.845-13.99-8.716-.2-.125-.45-.174-.65-.244-.57.247-.38.714-.37 1.075.01.744.06 1.487.13 2.222.88 9.785 1.57 19.581 2.07 29.398.42 8.324.92 16.652 1.25 24.982.34 8.496.54 16.998.77 25.496.17 6.356.31 12.708.43 19.065.1 5.614.16 11.228.19 16.837.06 9.495.11 18.986.12 28.481.01 9.161-.03 18.33-.05 27.495-.02 10.153-.03 20.305-.03 30.463-.01 8.997-.02 17.995.02 26.992.02 7.184.09 14.367.18 21.549.1 7.507.21 15.02.38 22.531.14 6.602.37 13.2.59 19.801.17 5.361.37 10.725.55 16.084-.07.602-.08 1.195.33 1.708.14.056.29.077.44.056.56.221 1.15-.112 1.71.102z" fill="#f3ebd7"/><path d="m1609.99 161.149c-.29.215-.4.515-.4.857 0 .744-.07 1.498.03 2.229.45 3.436.94 6.874 1.44 10.304.11.791.39.975 1.19.869 1.08-.137 2.16-.308 3.24-.473 17.8-2.657 35.65-5.042 53.5-7.379 3.49-.46 6.98-.864 10.47-1.277.66-.077 1.32-.309 1.97.024-.06.531-.52.574-.89.647-1.56.329-3.12.631-4.68.926-1.55.293-1.57.288-1.57 1.924 0 1.572.04 3.139.05 4.703.07 8.755.16 17.502.2 26.256.04 7.758.06 15.521.04 23.281-.03 7.434-.12 14.863-.18 22.296-.07 7.349-.13 14.698-.22 22.05-.07 5.944-.17 11.893-.25 17.831-.1 7.263-.18 14.532-.27 21.794-.09 7.102-.21 14.201-.29 21.301-.08 7.435-.13 14.866-.19 22.298-.04 5.202-.09 10.399-.11 15.606-.02 5.283-.01 10.57.01 15.854.03 7.349.08 14.697.14 22.049.04 4.621.13 9.249.19 13.867-.34 1.035.4 2.053.04 3.083.02.47.05.932.08 1.402-.32.872.3 1.738-.01 2.61.02.457.04.913.05 1.363-.5 2.693-.66 5.352.76 7.854 6.56.723 13.07 1.824 19.59 2.895 1.16.193 2.29.375 3.55-.246 0-2.31.03-4.693 0-7.069-.06-5.035-.25-10.073-.22-15.102.04-5.696.28-11.385.41-17.08.15-7.014.3-14.033.42-21.05.13-6.933.2-13.872.33-20.799.17-8.916.41-17.826.58-26.742.23-11.059.69-22.116 1.19-33.171.49-10.971.95-21.944 1.41-32.91.32-7.755.63-15.506.96-23.261.28-6.426.45-12.858 1.01-19.274.17-1.888.42-3.767.64-5.683-1.27-.657-2.53-.342-3.72-.064-2.28.535-4.48 1.329-6.51 2.545-1.79 1.078-3.59 2.117-5.43 3.125-.87.478-1.8.905-2.74 1.218-1.92.631-2.66.171-2.96-1.743-.12-.81-.2-1.64-.2-2.462 0-7.431.07-14.856.05-22.291-.01-5.363-.06-10.734-.19-16.094-.21-8.918-.21-17.83.13-26.74.03-.826.1-1.657-.17-2.454-.14-.418-.43-.691-.94-.592-1.51.768-2.03 2.093-2.18 3.658-.2 2.061-.15 4.127-.13 6.184.01 2.078-.99 3.038-2.98 3.198-3.25.268-6.46.911-9.71 1.191-3.86.331-7.72 1.039-11.25 2.353-11.61 4.317-23.97 3.923-35.89 6.21-2.84.542-6.09-.414-6.11-4.607-.01-1.473-.31-2.948-.47-4.421-.18-1.617-.92-2.822-2.8-2.879z" fill="#f3ebd7"/><path d="m1421.56 403.282c-3.08-.139-6.18-.228-9.26-.423-12.84-.819-25.7-1.547-38.58-1.832-9.19-.203-18.39-.281-27.59-.358-7.61-.063-15.22-.097-22.83-.049-7.36.049-14.72.195-22.08.348-5.35.108-10.7.265-16.06.457-5.68.21-11.36.484-17.05.736-4.26.192-8.52.392-12.78.619-5.26.276-10.53.506-15.78.906-8.26.627-16.52 1.323-24.77 2.107-5.24.497-10.47 1.215-15.71 1.816-9.81 1.128-19.61 2.436-29.38 3.934-7.36 1.127-14.71 2.364-21.98 4.013-4.55 1.034-9.18 1.898-13.47 3.902-.45.209-.89.432-1.24.606-.21.488.02.74.23.976 5.96 6.541 10.79 13.831 14.86 21.631.15.286.35.543.52.805 6.67-1.921 13.42-3.068 20.15-4.363 7.72-1.483 15.46-2.907 23.21-4.242 9.41-1.621 18.85-3.052 28.25-4.687 12.62-2.19 25.32-3.918 38.03-5.445 10.64-1.279 21.29-2.462 31.97-3.316 7.09-.567 14.17-1.231 21.27-1.716 6.76-.458 13.52-.903 20.3-1.079 6.61-.166 13.21-.47 19.82-.615 8.86-.196 17.73-.296 26.6-.451 4.77-.083 9.54-.241 14.31-.31 5.93-.093 11.87-.166 17.81-.182 3.93-.014 7.86.091 11.79.154.66.011 1.33.113 2 .172 2.77 1.178 5.72.613 8.58.727 1.07.045 1.51-.866 1.54-1.892.1-3.277-.01-6.546-.31-9.801-.14-1.49-.89-2.297-2.52-2.501-3.27-.405-6.51-1.002-9.83-.635z" fill="#f3ebd7"/><path d="m1432.02 429.683c.46-.057.92-.108 1.37-.164.51-.33.86-.768.92-1.381.26-2.77.19-5.544-.06-8.313-.11-1.32-.75-1.932-2.28-1.921-3.11.024-6.23-.235-9.33.227-2.1.063-4.18.16-6.27.174-6.69.025-13.38.139-20.08.352-8.11.265-16.23.413-24.34.622-7.95.207-15.89.462-23.85.628-9.11.19-18.23.596-27.34 1.077-5.68.301-11.36.733-17.04 1.214-9.01.759-18.02 1.477-27.01 2.435-11.74 1.246-23.47 2.607-35.17 4.264-13.26 1.877-26.48 4.1-39.68 6.344-7.1 1.209-14.2 2.418-21.28 3.742-7.82 1.469-15.67 2.775-23.43 4.521-1.47.331-2.95.588-4.44.865-1.1.202-2.09.577-2.83 1.503-.02.663.39 1.197.67 1.777 2.15 4.57 4.11 9.208 5.53 14.053.32 1.11.54 2.248.8 3.373.21.917.43 1.06 1.41.826 3.25-.782 6.49-1.659 9.76-2.347 6.88-1.456 13.77-2.885 20.68-4.193 18.51-3.507 37.12-6.471 55.7-9.551 24.22-4.006 48.53-7.281 72.88-10.338 13.29-1.671 26.62-3.007 39.97-4.158 11.43-.985 22.87-1.876 34.3-2.778 7.76-.613 15.52-1.205 23.28-1.769 4.01-.289 8.02-.509 12.03-.763 1.73.314 3.39-.614 5.12-.319z" fill="#f3ebd7"/><path d="m1595.03 236.842c-.75.105-1.09.131-1.41.198-.95.195-1.27.504-1.34 1.515-.05.899-.02 1.813.06 2.72.81 8.547 1.23 17.123 1.68 25.695.34 6.596.72 13.187 1.04 19.779.4 8.245.78 16.492 1.13 24.735.31 7.088.61 14.185.84 21.277s.41 14.191.56 21.288c.18 8.748.31 17.495.44 26.243.14 10.152.26 20.307.36 30.457.07 5.279.09 10.562.13 15.844.01.334.01.66.04.99.05.459.3.745.8.772 2.25.137 4.5.274 6.76.404 4 .241 8.01.473 12.01.713.17.012.33.044.5.055 1.15.055 1.38-.123 1.36-1.191-.04-1.568-.06-3.136-.18-4.699-.7-10.046-1.39-20.086-1.84-30.145-.39-8.49-.85-16.983-1.28-25.473-.46-8.82-.9-17.637-1.4-26.458-.43-7.496-.9-14.992-1.41-22.49-.58-8.65-1.21-17.295-1.85-25.936-.27-3.705-.61-7.407-.95-11.102-1.12-12.166-2.26-24.328-3.37-36.5-.19-2.054-.33-4.115-.49-6.173-.18-2.395-.16-2.009-2.11-2.126-2.58-.153-5.17-.341-7.75-.467-.92-.046-1.84.041-2.34.062z" fill="#f3ebd7"/><path d="m1610 161.15c.27.193.56.361.8.577.86.785 1.8 1.536 1.26 2.914.33 2.368.64 4.745.98 7.111.1.724.54 1.191 1.33 1.248.49.036 1.1-.119 1.43.287.91 1.153 2.08.781 3.22.621 10.69-1.495 21.39-2.992 32.08-4.487.5-.069 1-.139 1.49-.222.43-.074.82-.227 1.01-.643.55-1.21 1.67-1.401 2.75-1.274.98.113 1.82-.053 2.61-.526.89-.527 1.87-.699 2.86-.838 3.9-.531 7.79-1.09 11.69-1.635.41-.058.84-.208 1.24-.145 1.2.18 2.27-.235 3.4-.469 1.63-.34 1.52-.456 1.72-1.966.2-1.448.13-2.948.1-4.418-.02-.741.09-1.501.02-2.201-.17-1.862.5-3.382 1.52-4.839-1.29-.147-2.47.359-3.69.62-1.06.232-2.12.492-3.23.361-1.09-.133-1.66-.595-1.92-1.637-.27-1.055-.23-2.133-.11-3.2.31-2.707.66-5.407.95-8.119.12-1.144.18-2.301.17-3.454-.01-.799-.5-1.252-1.29-1.196-1.17.086-2.33.283-3.48.472-1.24.201-2.46.524-3.7.65-2.04.209-2.99-.529-3.21-2.557-.13-1.22-.07-2.474-.01-3.707.08-1.492.05-2.978-.21-4.444-.32-1.792-.88-2.277-2.67-2.278-1.25.002-2.51.032-3.75.157-8.92.906-17.76 2.358-26.61 3.721-.16.023-.33.046-.49.09-1.62.366-1.85.641-1.51 2.193.45 2.011 1.01 3.999 1.48 6.006.21.882.41 1.773.52 2.669.08.65.06 1.32-.01 1.971-.25 2.024-1.23 2.94-3.27 3.059-.75.042-1.5-.006-2.26-.04-.58-.023-1.17-.094-1.75-.117-1.25-.06-1.43.125-1.26 1.422.12.819.27 1.625.44 2.436.59 2.826 1.19 5.65 1.79 8.481.21.973.33 1.952.18 2.947-.19 1.188-.87 1.971-2.05 2.234-.82.184-1.66.253-2.49.32-2.17.178-4.33.432-6.46.883-.63.137-1.36.162-1.63.93z" fill="#f3ebd7"/><path d="m1432.74 384.322c.29.891.29 1.817.28 2.736-.63 2.175-.17 4.414.04 6.534.65 6.623.78 13.269 1.04 19.905.19 4.9.26 9.844.06 14.762-.01.412-.08.826.34 1.094 6.5-.381 13.01-.797 19.52-1.13 6.34-.331 12.69-.585 19.03-.845 3.75-.157 7.51-.265 11.26-.387 3.89-.007 4.08-.374 3.91-3.753-.22-4.401-.26-8.835-.15-13.254.02-.746-.12-1.472-.68-2.055-2.71-.622-5.46-.272-8.15.056-8.03.969-16.11 1.25-24.16 1.959-3.82.332-7.66.5-11.46.997-1.78.235-2.35-.22-2.29-2.052.14-3.769.03-3.913 3.77-4.263 7.13-.67 14.28-.96 21.43-1.224 4.08-.145 8.15-.45 12.23-.519 1.97-.298 3.95-.095 5.93-.121 2.62-.046 3.2-.488 3.41-3.064.09-1.141-.17-2.28-.02-3.421-.12-1.367-1.02-1.66-2.25-1.773-2.85-.269-5.69.08-8.49.305-7.66.618-15.32.946-22.97 1.515-3.9.287-7.81.696-11.74.445-1.52-.093-3.11-.136-3.18-2.282-.1-2.929.83-4.576 2.9-5.005 4.77-.973 9.64-1.104 14.46-1.375 5.9-.332 11.82-.644 17.74-.651 3.42-.005 6.83-.184 10.26-.051 2.72.107 3.27-.367 3.42-2.718.26-4.392-.04-4.956-2.93-5.219-4.59-.409-9.17.051-13.76.052-8 0-15.99.533-23.99.921-2.25.106-4.48.508-6.75.374-1.04-.064-2.29.048-2.26-1.278.02-1.29-.05-2.957 1.9-3.285 2.64-.439 5.29-.977 7.96-1.085 5.91-.25 11.8-.996 17.72-1.157 6.51-.186 13.01-.601 19.51-.503 2.17.032 2.93-.952 2.92-2.759-.01-1.515.54-3.144-.55-4.542-.36-.306-.76-.514-1.21-.639-8.37-1.014-16.79-1.373-25.22-1.683-5.75-.218-11.5.273-17.25.499-3.79.147-7.36 1.502-11.05 2.179-1.92.351-2.6 1.999-2.21 3.872.89 4.265-.05 8.772 1.71 12.923.13.295.04.655-.05.973z" fill="#f3ebd7"/><path d="m1523.22 426c-.51-4.681-.68-9.359-.37-14.078.56-8.399.97-16.805 1.43-25.212.42-7.335.84-14.664 1.23-21.996.45-8.488.65-16.99.71-25.487.09-11.054.01-22.112.11-33.166.07-8.581.12-17.16.84-25.727.14-1.725.37-3.448.58-5.168.22-1.7.22-1.679-1.57-2.062-1.89-.404-3.8-.553-5.73-.577-6.27-.075-12.5-.706-18.74-1.344-2.57-.259-5.16-.489-7.74-.684-1.32-.101-1.32-.053-1.86 1.373-1.19 2.999-.76 6.173-.86 9.242-.64 18.109-1.31 36.215-2 54.323-.38 9.876-.74 19.758-.9 29.638-.14 9.267-.35 18.528-.65 27.782-.06 1.642.57 3.245.14 4.892.23 3.05-.33 6.085-.22 9.137-.06.433.06.847.14 1.269.19 5.294.05 10.589.14 15.877.01.958-.24 1.96.53 2.772 10.38-.242 20.77-.456 31.15-.413 1.21.005 2.49.306 3.63-.39z" fill="#f3ebd7"/><path d="m1434.5 429.358c.12-3.773.41-7.551.28-11.31-.11-3.282-.14-6.569-.32-9.848-.33-5.91-.66-11.819-1.02-17.725-.07-1.145-.27-2.279-.41-3.414-.49-.252-.55-.716-.62-1.179-.08-.47-.16-.938-.74-1.066-.51.719-.12 1.854-1.14 2.337-.38.235-.75.481-.89.939.15.077.28.19.44.223 1.48.328 2.25 1.191 2.33 2.59.22 3.601.43 7.21.65 10.812.02.407.07.818.08 1.227.01.583-.33.846-.98.755-.57-.079-1.13-.216-1.71-.303-2.62-.385-5.23-.911-7.9-.822-.16.467-.64.499-.99.708 1.19.467 2.45.284 3.68.418 2.23.252 4.46.406 6.7.657.96.102 1.24.362 1.27 1.199.16 3.769.28 7.545.39 11.314.02.533-.31.761-1.04.731-2.08-.085-4.15-.185-6.23-.298-.75-.042-1.49-.126-2.23.089-.29.618-.99.472-1.47.754 1.8.418 3.62.114 5.43.174 1.49.049 2.98-.027 4.47-.02.74.001 1.06.269 1.08 1.025.06 3.185.08 6.369.09 9.554 0 .222-.2.439-.31.663.37-.053.74-.112 1.11-.171z" fill="#4d524a"/><path d="m1488.43 426.799c-.49-1.948-.1-3.923-.12-5.882-.04-4.023.04-8.048.06-12.073 0-.32-.1-.647-.15-.967-.41-.234-.76-.144-1.04.222.05 1.635.12 3.261.16 4.896.11 4.159.21 8.327.31 12.487.02.916-.17 1.116-1.13 1.229-.73.089-1.46.192-2.2.281 1.4.598 2.75.109 4.11-.186z" fill="#63665d"/><path d="m1674.33 435.323c-.66-1.528-.42-3.162-.52-4.749-.06-1.034.06-2.088-.23-3.105-.49-.287-.52-.776-.59-1.26-.09-.558-.21-1.104-.32-1.66-.06.154-.16.314-.15.467.14 2.866.01 5.745.5 8.591.37.234.45.62.53 1.005.08.419.3.717.78.711z" fill="#585d55"/><path d="m1432.01 429.685c-1.73-.293-3.42 0-5.11.32.31.102.62.309.92.281 1.4-.134 2.83-.166 4.19-.601z" fill="#4d524a"/><path d="m1672.45 419.547c-.33 1.041-.17 2.07.06 3.101.61-1.045.23-2.077-.06-3.101z" fill="#585d55"/><path d="m1673.45 422.085c.36-1.032.18-2.058-.04-3.084-.64 1.035-.22 2.062.04 3.084z" fill="#585d55"/><path d="m1673.52 426.096c.36-.872.24-1.738.01-2.61-.61.871-.25 1.739-.01 2.61z" fill="#585d55"/><path d="m1568.53 427.116c-.11-.569-.22-1.145-.32-1.715-.47.963-.43 1.187.32 1.715z" fill="#da8a6f"/><path d="m1673.08 434.529c-.6.438-1.32.15-1.96.365 1.22.546 1.37.518 1.96-.365z" fill="#585d55"/><path d="m1570.68 427.283c-.55-.397-1.12-.33-1.71-.102.55.341 1.12.324 1.71.102z" fill="#da8a6f"/><path d="m1408.54 114.026c-.95.425-1.1 1.204-1.39 1.857-.93 2.121-1.82 4.269-2.76 6.39-4.65 10.551-10.14 20.69-15.8 30.741-2.69 4.773-5.4 9.529-8.15 14.269-.53.909-.68 1.779-.57 2.814 1.08 10.347 2.01 20.701 3.21 31.04 1.05 9.099 1.84 18.234 2.35 27.382.5 9.065.86 18.135.95 27.215.12 11.151-.22 22.281-.97 33.407-.11 1.566-.33 3.121-.48 4.679-.05.487.22.756.73.768 3 .081 6.02.153 9.02.248 11.7.374 23.4.762 35.1 1.151 1 .034 2.01.052 2.99.228.62.115 1.22-.442 1.64-.16.59.405 1.04 1.059 1.44 1.671 1.69 2.553 3.33 5.135 5 7.697 3.78 5.768 8.21 11.021 13.11 15.88.35.348.74.655 1.12.971.05.041.16.027.24.036.39-.284.35-.704.36-1.108.04-8.995 0-17.985-.49-26.975-.39-7.333-.48-14.682-.76-22.024-.35-8.905-.38-17.82-.46-26.729-.06-8.499.02-17.006.05-25.505.04-9.161-.15-18.319-.36-27.479-.19-7.509-.24-15.023.63-22.504.16-1.429-.11-2.574-1.24-3.528-1.28-1.074-2.26-2.419-3.3-3.713-9.56-11.876-19.5-23.439-29.42-35.02-2.97-3.461-5.91-6.945-8.87-10.407-.96-1.125-1.96-2.222-2.91-3.294z" fill="#f3ebd7"/><path d="m1402.86 356.232c.47-.469.9-.969 1.41-1.394 5.02-4.223 9.08-9.264 12.75-14.62 5.58-8.14 9.66-16.998 12.86-26.266 1.58-4.62 2.91-9.313 3.54-14.167.09-.652.19-1.306.23-1.967.04-.45-.14-.807-.66-.861-.5-.055-1-.124-1.5-.138-6.43-.151-12.86-.275-19.28-.441-5.34-.136-10.68-.364-16.02-.487-5.92-.138-11.85-.22-17.78-.288-5.01-.058-10.02-.095-15.03-.096-3.35.001-6.69.058-10.03.115-3.34.056-6.68.142-10.02.226-2.26.058-4.51.122-6.76.201-3.51.122-7.01.25-10.52.378-3.46-.935-6.94-.295-10.41-.067-1.42.087-2.05 1.267-2.42 2.544-2.72 9.466-7.22 18.041-12.72 26.241-7.34 10.926-16.59 19.797-27.67 26.912-.53.339-1.39.632-1.24 1.391.17.874 1.06.868 1.82.977 6.42.904 12.88 1.134 19.37 1.257 6.14.122 12.29-.07 18.42-.219 5.14-.127 10.29-.283 15.43-.446 5.8-.192 11.61-.148 17.41-.119 7.31.037 14.6.129 21.88.572 10.56.646 21.11 1.25 31.55 3.039 2.2.375 4.14-.231 5.4-2.258z" fill="#da8a6f"/><path d="m1475.18 347.695c-2.96-.664-5.67-1.955-8.27-3.443-7.35-4.231-13.79-9.529-19.06-16.16-4.22-5.316-8.35-10.687-11.88-16.49-.9-1.481-1.74-2.999-2.61-4.518-.8.584-.75 1.489-.98 2.244-2.27 7.624-5.22 14.986-8.94 22.046-3.26 6.181-7.17 11.933-11.73 17.26-2.17 2.529-4.59 4.802-7.01 6.908-.2.779.24 1.24.49 1.719 2.63 4.781 5.44 9.452 8.5 13.971 4.08 6.046 9.84 9.971 16.68 12.459.23.086.47.163.72.212.55.104.74-.214.76-.684.03-.33.04-.659.05-.988.14-3.679-.02-7.344-.54-10.993-.56-3.971-.17-4.068 3.75-5.047 8.86-2.214 17.85-2.219 26.87-2.206 2.99.006 5.97.207 8.95.452 2.2.18 2.85-.705 2.98-2.608.26-4.113.66-8.218 1.55-12.253.08-.401.11-.815.11-1.226-.01-.283-.14-.509-.38-.663z" fill="#f3ebd7"/><path d="m1359.58 293.25c.04.725.22 1.291 1.14 1.288 3.59-.009 7.19-.004 10.78.009 3.26.017 6.51.091 9.78.073 2.57-.013 2.9.276 3.01-2.857.23-7.004.63-14.01.84-21.018.13-4.199.04-8.409.02-12.609 0-3.297-.04-6.596-.09-9.894-.03-1.812-.07-3.629-.16-5.439-.24-4.615-.53-9.221-.76-13.837-.27-5.603-.76-11.192-1.24-16.78-.25-2.881-.55-5.747-.86-8.619-.7-6.483-1.54-12.954-2.09-19.452-.37-4.359-.86-8.702-1.32-13.055-.07-.658-.06-1.321-.1-1.976-.05-.703.06-1.295.82-1.638.49-.221.61-.76.83-1.202 3.8-7.558 8.08-14.87 12.12-22.302 5.18-9.561 9.94-19.312 14.1-29.35.19-.458.34-.937.56-1.385.24-.501.18-.93-.13-1.388-1.78-2.686-3.82-5.185-5.71-7.71-.87.122-.99.772-1.25 1.232-2.91 5.228-5.43 10.632-7.73 16.143-3.21 7.72-6.27 15.51-9.72 23.137-2.96 6.572-6.11 13.064-9.54 19.416-.88 1.625-1.24 3.179-.81 4.955.2.8.22 1.64.35 2.449.88 5.387 1.19 10.833 1.67 16.255.38 4.351.42 8.729.56 13.1.14 4.537.25 9.071.31 13.606.08 5.36-.03 10.718-.14 16.077-.09 4.367-.17 8.741-.41 13.102-.1 1.976-.34 3.943-.53 5.911-.16 1.735-.97 3.128-2.33 4.243-2.89 2.381-5.73 4.844-8.7 7.138-1.11.865-1.55 1.782-1.57 3.121-.06 3.298-.2 6.594-.35 9.894-.29 6.093-.32 12.198-.99 18.275-.04.409-.02.83-.39 1.119l.02-.031z" fill="#da8a6f"/><path d="m1486.98 366.224c.1.145.24.182.4.11 2.26-1.471 1.18-3.81 1.25-5.663.4-9.49.71-18.988 1.03-28.489.36-9.991.72-19.977 1.05-29.966.31-9.247.64-18.497 1.01-27.741.06-1.197.14-2.433-.36-3.588-.31.106-.65.161-.92.318-8.24 4.756-16.78 8.934-25.56 12.612-.69.291-1.38.609-2.09.835-1.14.354-1.54 1.098-1.54 2.24 0 2.219-.04 4.443-.14 6.664-.23 4.936-.52 9.868-.75 14.797-.19 4.194-.32 8.387-.49 12.579-.09 1.974-.22 3.94-.33 5.911 2.65 2.246 5.25 4.546 7.96 6.714 3.68 2.956 7.7 5.448 11.85 7.728.36.199.73.398 1.09.591 2.97 1.581 3.03 1.705 2.49 5.009-.2 1.232-.74 1.801-1.95 1.776-1.58-.03-3.18-.05-4.67-.67-1.08.096-.95 1.025-1.07 1.668-.84 4.34-1.26 8.727-1.5 13.143-.08 1.465.41 1.765 1.77 1.916 2.81.303 5.62.417 8.42.763 1.04.126 2.15.026 3.05.749z" fill="#da8a6f"/><path d="m1476.84 347.357c1.25.104 2.49.236 3.74.304.91.054 1.3-.244 1.39-1.057.07-.65.05-1.314.04-1.974 0-.549-.32-.916-.78-1.178-.51-.291-1.01-.589-1.53-.858-7.69-3.968-14.43-9.217-20.78-14.987-4.06-3.69-7.92-7.575-11.51-11.714-4.29-4.965-7.96-10.373-11.28-16.017-.29-.495-.64-.947-1-1.397-.04-.05-.29.027-.43.088-.06.021-.1.138-.11.216-.29 1.711-.59 3.416-.87 5.125-.14.855.13 1.616.51 2.378 1.24 2.525 2.66 4.95 4.21 7.3 3.62 5.456 7.55 10.681 11.75 15.715 3.48 4.168 7.61 7.625 12.03 10.778 4.02 2.868 8.26 5.3 13.05 6.726.15.048.28.169.43.253.29.411.76.178 1.13.314z" fill="#da8a6f"/><path d="m1327.32 295.151c-2.55.516-5.14.273-7.71.424-1.83.102-3.66.143-5.49.19-.61.016-.85.3-.93.882-.57 4.198-2.22 8.067-3.85 11.935-.13.303-.33.852-.87.351-1.28.081-.5 1.037-.7 1.579.31.555.22 1.062-.05 1.622-1.51 3.049-3.15 6.034-4.95 8.916-.67 1.053-1.35 2.095-2.06 3.119-.4.578-.7.634-1.24.237-.95-.683-1.87-1.395-2.78-2.124-6.82-5.544-12.7-11.908-17.17-19.486-.08-.141-.21-.256-.31-.38-.02.399.02.817-.32 1.13-.43 1.417.58 2.332 1.25 3.31 4.55 6.676 10.14 12.406 16.44 17.48.19.155.4.292.6.452.71.576 1.58 1.094.86 2.21-.71 1.109-1.5.552-2.37.144-2.76-1.311-4.75-3.607-7.04-5.493-4.25-3.497-7.74-7.69-10.97-12.115-1.17-1.597-1.69-3.167-1.06-5.056.44-1.335.19-2.781.71-4.1.16-.224.32-.449.48-.679-.42-.915-.85-1.83-1.02-2.828-.54-.384-.86-.061-1.14.361-.09.221-.14.445-.18.678-.06.461-.13.923-.23 1.376-2.77 17.947-10.9 33.493-22.16 47.605-2.06 2.592-4.39 4.984-6.92 7.173-.8.697-1.75 1.29-2.18 2.345-.02.252.06.471.24.654 1.43-.575 2.49-1.649 3.61-2.634 4.34-3.827 8.02-8.224 11.32-12.923 6.78-9.652 12.11-20.005 15.43-31.31.14-.464.16-.989.77-1.303 2.89 4.013 5.85 7.997 9.5 11.416 3.64 3.402 7.46 6.561 11.73 9.066-.06.851-.62 1.284-1.03 1.78-6.83 8.254-14.63 15.46-23.85 21.098-.43.261-.89.479-1.27.796-.46.4-1.59.223-1.39 1.114.11.52 1.01.407 1.56.477 7.64.929 15.29 1.521 23 1.514 8.11-.007 16.22-.23 24.32-.437 10.53-.263 21.06-.505 31.6-.357 15.22.216 30.38 1.351 45.5 3.07.73.086 1.52.003 2.1.617.71.438-.21 2.027 1.35 1.851l-.24-1.686c2.51-.858 2.53-.875 3.54 1.279 3.32 6.995 7.78 13.23 12.76 19.129 3.95 4.68 9.08 7.385 15.12 8.475.36-.127.76-.197.98-.575-.32-.922-1.19-1.128-1.97-1.339-6.21-1.705-10.96-5.368-14.69-10.476-3.7-5.068-7.45-10.11-10.07-15.852-.39-.837-1.26-1.66-.36-2.697-.23-.31-.46-.612-.68-.922-.78.471-1.6.899-2.33 1.433-.73.532-1.42.699-2.33.521-6.82-1.301-13.75-1.821-20.65-2.435-7.65-.676-15.33-1.085-23.01-1.263-8.52-.192-17.04-.218-25.57.015-4.34.12-8.68.233-13.02.333-5.77.131-11.52.323-17.28.357-8.61.049-17.21-.188-25.76-1.31-.42-.052-.83-.085-1.14-.57.31-.238.6-.523.94-.731 8.76-5.266 16.15-12.04 22.71-19.762 7.73-9.103 13.57-19.256 17.47-30.481.49-1.404.85-2.853 1.23-4.29.2-.752.64-1.134 1.41-1.158 2.5-.092 5-.192 7.51-.244 1.01-.022 2.01-.03 3-.244.24-.194.46-.413.73-.562.3-.167.51-.357.55-.704z" fill="#3e3d36"/><path d="m1277.3 300.385c-.33.061-.67.115-.75.522-.29 1.704-.57 3.413-.9 5.115-.17.866-.03 1.591.48 2.32 2.85 4.067 5.84 8.026 9.5 11.437 3.34 3.109 6.78 6.107 10.66 8.563.28.176.57.324.93.531.93-.881 1.65-1.845 2.27-2.982-.36-.311-.66-.604-.99-.843-5.77-4.279-10.84-9.261-15.26-14.883-1.64-2.081-3.19-4.223-4.36-6.605-.75-.946-1.26-2.016-1.59-3.167z" fill="#da8a6f"/><path d="m1476.83 347.357c-.32-.289-.71-.366-1.13-.314-.18.219-.34.438-.52.65.06.159.05.321-.04.472-.01.19-.09.36-.21.509-.93 4.208-1.42 8.471-1.63 12.766-.03.497-.03.991-.07 1.484-.08.908-.34 1.126-1.29 1.071-2.92-.177-5.83-.416-8.75-.522-7.45-.274-14.89-.102-22.28 1.07-2.64.418-5.27.981-7.87 1.581-2.18.499-2.74 1.211-2.45 3.327.55 4.014.7 8.063 1.14 12.078.03.24.12.477.18.719.81.486.56 1.391.84 2.082.02-.567.12-1.144.07-1.715-.36-4.103-.71-8.207-1.14-12.308-.22-2.112-.53-2.681 2.2-3.271 6.13-1.323 12.31-2.161 18.61-2.402 9.54-.353 19.02.451 28.51 1.036 2 .124 3.99.361 5.98.549-.49-.836-1.37-.86-2.17-.956-2.56-.303-5.12-.578-7.69-.852-.9-.097-1.8-.179-2.86-.281-.13-1.645.07-3.259.22-4.845.29-3.354.77-6.69 1.2-10.034.06-.475.11-1.003.64-1.266.18-.212.35-.417.52-.629z" fill="#383b34"/><path d="m1403.52 357.146c-1.31.275-1.43.395-1.02 1.298 1.89 4.216 4.16 8.219 6.85 11.983 1.73 2.409 3.57 4.74 5.35 7.113 3.18 4.224 7.36 7.055 12.39 8.732 1.18.398 2.35.819 3.52 1.232.24.043.48.101.72.123.34.029.71-.03.68-.45-.07-.791-.22-1.576-.34-2.36-2.14-.042-4.08-.821-5.95-1.686-5.3-2.453-9.76-5.912-13.06-10.746-3.11-4.567-5.95-9.283-8.63-14.113-.2-.355-.33-.747-.5-1.12z" fill="#d37e62"/><path d="m1279.14 301.712c.32-.546.27-1.117.12-1.694-.5.535-.28 1.117-.12 1.694z" fill="#3e3d36"/><path d="m1359.28 291.924c-.37.427-.29.882-.09 1.342l.2.02.2-.028-.03.032c-.09-.454-.19-.906-.28-1.359z" fill="#da8a6f"/><path d="m1492.25 269.791c1.51-.252 3.01-.066 4.5.059 3.75.303 7.49.671 11.24.996.81.067 1.04-.174 1.02-.985-.25-8.084-.51-16.16-.76-24.244-.33-10.23-.62-20.458-1-30.681-.23-6.187-.57-12.367-.89-18.549-.38-7.252-.79-14.5-1.22-21.751-.21-3.539-.52-7.08-.78-10.619-.13-1.728-.23-3.46-.37-5.187-.06-.646-.38-.886-.98-.802-.83.115-1.65.252-2.47.38-1.21.33-2.41.726-3.63.967-3.53.709-7.07 1.364-10.6 2.018-3.29.613-6.58 1.219-9.88 1.778-2.39.404-4.8.72-7.19 1.083-1 .153-1.19.353-1.14 1.251.3 5.851.63 11.705.89 17.554.25 5.69.46 11.38.64 17.067.2 6.762.38 13.528.52 20.292.12 5.939.19 11.877.25 17.817.05 5.69.09 11.384.08 17.076-.01 7.257-.06 14.52-.1 21.784-.01.905-.1 1.808-.15 2.719.05.105.09.211.13.316.32-.045.68-.025.95-.154 5.91-2.788 11.76-5.68 17.49-8.791.36-.197.68-.47 1.01-.705.29-.284.72-.288 1.06-.481.3-.077.6-.147.9-.223.16.151.32.156.49.007z" fill="#f3ebd7"/><path d="m1470.35 280.14c.03-.136-.02-.241-.13-.316-.77-.907-.62-2.02-.64-3.069-.03-3.126-.01-6.254-.01-9.384 0-3.298.02-6.591 0-9.886-.02-3.127-.09-6.263-.11-9.391s0-6.261-.03-9.388c-.03-3.211-.1-6.422-.14-9.637-.06-3.624-.11-7.249-.18-10.87-.03-1.978-.1-3.952-.14-5.929-.05-2.386-.12-4.777-.14-7.167-.03-1.813-.19-3.619-.21-5.432-.04-3.953-.31-7.902-.47-11.852-.19-4.448-.33-8.895-.54-13.338-.15-3.124-.39-6.243-.58-9.256-.62-.4-.94-.036-1.21.218-1.77 1.646-3.51 3.322-5.27 4.967-.53.491-.74 1.05-.69 1.766.21 2.629.4 5.26.55 7.889.17 2.962.29 5.922.42 8.889.09 2.227.33 4.434.37 6.668.09 4.28.44 8.559.61 12.842.16 4.034.22 8.075.34 12.106.12 3.706.29 7.411.38 11.121.09 3.543.1 7.082.16 10.622.03 1.728.09 3.459.12 5.187.07 5.104.13 10.209.2 15.321.04 3.131.13 6.257.13 9.387.01 2.963-.07 5.924-.1 8.885 0 .494.01.986.09 1.477.07.505.43.648.91.568.08-.012.16-.023.24-.055 2.07-.887 4.26-1.514 6.06-2.941z" fill="#da8a6f"/><path d="m1491.37 270.883c-.14 3.707-.3 7.409-.43 11.114-.15 4.287-.28 8.569-.43 12.849-.19 5.349-.4 10.707-.6 16.057-.19 5.189-.38 10.378-.57 15.574-.2 5.357-.39 10.706-.58 16.062-.23 6.586-.46 13.178-.67 19.762-.02.58.02 1.152.03 1.735.01.847-.1 1.649-.74 2.301.49.127.62.498.62.937-.01.99-.03 1.98-.08 2.968-.05.814.11 1.787-.3 2.4-.51.788-1.53.117-2.33.139-4.09.12-8.2.158-12.3.258-7.94.193-15.88.781-23.8 1.423-2.75.225-5.5.54-8.24.867-2.23.271-2.42.478-2.96 2.689-.11.482-.24.966-.29 1.454-.15 1.217.34 1.949 1.61 2.028 1.67.101 3.34.041 5.01-.054 4.94-.279 9.86-.676 14.78-.891 4.77-.208 9.54-.262 14.3-.365 3.26-.067 6.53-.12 9.79-.151 1.08-.013 2.17.036 3.26.101.9.054 1.09.291 1.16 1.25.03.413.07.831.02 1.234-.13 1.306.12 2.634-.26 3.919-1.3.509-2.62.095-3.93.118-4.6.08-9.2.16-13.8.239-6.35.111-12.7.491-19.04.925-2.76.19-5.5.498-8.25.771-.49.048-.99.167-1.48.297-.69.18-1.18.625-1.38 1.313-.47 1.673-.85 3.369-.79 5.12.04 1.156.45 1.607 1.59 1.914 1.22.33 2.49.312 3.73.257 4.1-.176 8.19-.415 12.29-.654 5.59-.323 11.19-.668 16.78-1.005 2.84-.174 5.68-.377 8.52-.538 1.59-.089 3.18-.131 4.77-.165.81-.017.81.012 1.16 1.181.08.587-.45 1.46.74 1.517.09-4.368.16-8.741.27-13.111.23-8.832.44-17.657.7-26.487.28-9.243.57-18.481.89-27.724.35-9.9.75-19.801 1.12-29.696.32-8.909.64-17.818.95-26.731.02-.74-.06-1.48-.1-2.22-.1-.529-.2-1.064-.3-1.593-.14.201-.29.403-.45.606z" fill="#383b34"/><path d="m1490.85 270.011c-.44-.029-.82.067-1.05.482.42.003.82-.06 1.05-.482z" fill="#da8a6f"/><path d="m1492.25 269.797c-.16-.005-.32-.003-.49-.008.02.157.04.314.06.478.14-.158.29-.31.43-.469z" fill="#383b34"/><path d="m1275.9 297.876c-.03-.107-.05-.223-.05-.334-1.63-1.366-3.46-.323-5.16-.288-4.67.098-9.36.19-14 .964-4.08.403-8.17.614-12.26.783-2.26.093-4.5.392-6.77.452-3.17.089-6.33.461-9.5.682-3.92.277-7.85.527-11.77.79-.16.009-.33.019-.5.035-3.83.334-7.67.662-11.5 1.01-4.5.413-8.99.965-13.5 1.234-3.6.218-7.16.793-10.74 1.029-4.93.328-9.82 1.068-14.73 1.525-2.25.21-4.51.352-6.74.665-1.27.177-1.35.313-1.46 1.574-.53 6.148-2.16 12.025-4.53 17.714-2.44 5.837-5.67 11.256-9.37 16.394-3.6 4.997-7.29 9.904-11.45 14.479-4.83 5.315-10.06 10.194-15.87 14.45-.39.292-.76.635-1.13.965-.05.042-.03.157-.06.356 1.53-.54 3.09-.71 4.64-.94 3.65-.531 7.2-1.501 10.76-2.396 2.27-.575 4.56-1.083 6.86-1.543 9.69-1.927 19.47-3.37 29.25-4.732 5.81-.812 11.61-1.624 17.44-2.327 4.15-.498 8.32-.81 12.48-1.204 2.49.432 4.98-.028 7.43-.197 11.04-.786 22.09-1.03 33.15-1.331 1.58-.04 3.15.172 4.73.034 1.04-.089 1.99-.236 2.56-1.221 3.93-3.124 7.39-6.683 10.51-10.59 7.55-9.496 13.39-19.921 17.46-31.294 1.8-5.061 3.11-10.259 3.64-15.621.15-.362.06-.759.18-1.124z" fill="#da8a6f"/><path d="m1244.1 356.507c-1.23.841-2.66 1.013-4.07.931-3.82-.223-7.63-.003-11.45.106-3.9.114-7.8.139-11.71.274-2.65.093-5.31.332-7.97.474-2.99.161-5.98.259-8.96.44-1.24.077-2.47.318-3.71.484-.46.691-1.33.422-1.92.784.49.036.99.126 1.48.092 3.33-.236 6.65-.555 9.99-.743 4.92-.285 9.84-.493 14.75-.714 3.92-.172 7.84-.352 11.75-.447 3.08-.069 6.16-.354 9.24-.068 1.11.103 1.91-.364 2.65-1.059-.02-.185-.05-.369-.07-.553z" fill="#615047"/><path d="m1256.69 298.222c.61.401 1.28.211 1.93.161 3.7-.302 7.41-.543 11.13-.618 1.32-.024 2.64-.285 3.95-.468.75-.106 1.48-.194 2.15.255.16-.419.49-.604.92-.67-.11-.223-.22-.416-.52-.408-4.97.222-9.94.423-14.9.658-.92.044-1.81.197-2.72.296-.44.764-1.31.482-1.93.793z" fill="#6e5547"/><path d="m1398.46 360.89c-.4-.188-.57-.532-.65-.939-.08-.413-.29-.731-.7-.904-.57.602-.26 1.261-.06 1.853 1.77 5.429 3.74 10.768 7.05 15.509.19.266.32.574.57 1.026-1.93-.064-3.75-.087-5.56-.188-12.19-.71-24.4-.846-36.61-.884-9.79-.03-19.58.08-29.36.196-7.78.086-15.56.228-23.34.433-6.86.18-13.72.443-20.57.726-6.69.275-13.37.591-20.06.948-4.6.247-9.19.527-13.78.884-12.35.956-24.7 1.91-36.99 3.484-19.18 2.459-38.35 5.016-57.42 8.253-6.85 1.16-13.67 2.483-20.44 4.089-.69.167-1.49.188-1.98.848.2.564.58.281.81.242 8.34-1.368 16.68-2.819 25.03-4.119 7.52-1.178 15.07-2.22 22.61-3.282 13.26-1.876 26.55-3.629 39.87-5.04 7.57-.802 15.17-1.377 22.76-2.021 3.91-.332 7.84-.624 11.76-.873 4.76-.304 9.52-.574 14.29-.802 6.35-.31 12.7-.608 19.05-.835 6.86-.242 13.71-.422 20.57-.581 7.44-.171 14.88-.307 22.33-.409 5.68-.079 11.38-.019 17.06-.125 11.63-.215 23.25.227 34.87.41 4.68.076 9.35.424 14.03.647.16.012.35.091.5.063 1.89-.418 2.99.659 4.2 1.888 4.98 5.071 10.52 9.404 17.23 12.096 1.78.712 3.56 1.415 5.49 1.675.13.016.34-.096.41-.21.12-.226.08-.478-.2-.585-.54-.224-1.07-.448-1.63-.635-9.11-3.101-16.42-8.716-22.57-15.885-3.23-3.758-5.27-8.189-6.99-12.77-.52-1.389-1.05-2.775-1.58-4.163z" fill="#24312c"/><path d="m1487.17 408.098c.35-.077.7-.145 1.05-.222-.02-.297-.03-.601-.05-.899-.04-.787.56-1.852-.91-2.008-1 1.51-2.56 1.652-4.18 1.782-7.98.65-15.97 1.238-23.95 1.903-4.66.393-9.31.898-13.99 1.002-1.01.024-2.32.506-2.44-1.209-.11-1.551.54-2.623 2.21-2.696 2.92-.123 5.83-.37 8.74-.562 7.41-.487 14.85-.566 22.24-1.336 1.02-.435 2.57.058 2.88-1.599-4.92.18-9.86.3-14.79.551-6.76.34-13.52.806-20.28 1.16-2.23.118-2.99.314-2.97 2.886 0 1.314-.16 2.637-.19 3.95-.02.636.46 1.055 1.12 1.061.25 0 .5-.043.75-.064 6.67-.57 13.34-1.155 20-1.704 8.25-.681 16.5-1.334 24.76-2.002z" fill="#383b35"/><path d="m1487.41 405.012c.73.467.42 1.34.76 1.96.45-1.26.14-2.559.18-3.838.05-1.76.23-3.539-.07-5.299-.6-.341-.47-1.027-.74-1.518-.5 1.434-.14 2.914-.2 4.363-.06 1.483-.47 1.45-1.65 1.441-1.65-.013-3.29-.082-4.95-.08-.66.002-1.31.128-1.96.198-.23.387-.6.522-1.02.588-.65.104-1.29.229-1.94.348.57 1.214 1.69.856 2.61.748 1.98-.229 4 .06 5.96-.299 1.41-.258 2.08.775 3.01 1.382z" fill="#61584d"/><path d="m1518.24 383.299c.26-.691.8-.863 1.4-.552.82.422 1.59.934 1.95 1.843.04.092.29.176.39.141.13-.054.29-.222.3-.356.15-1.878.42-3.759.37-5.638-.06-2.802.28-5.57.43-8.354.14-2.454.31-4.906.45-7.361.21-3.598.1-7.206.45-10.81.12-1.207-.04-2.445.01-3.683.14-3.602.06-7.209.12-10.814.04-2.865.31-5.735.16-8.587-.1-1.81.14-3.616-.12-5.41-.17-1.228.04-2.468.08-3.685.08-1.889-.25-3.757-.02-5.653.19-1.613-.02-3.274-.02-4.916 0-1.802.06-3.598.07-5.402.01-1.637-.01-3.275.01-4.919.02-2.209.04-4.425.12-6.634.09-2.622.23-5.236.37-7.858.1-1.962.33-3.928.39-5.891.1-3.451.96-3.544-3.14-3.883-2.14-.179-4.31-.384-6.46-.327-3.76.095-7.46-.473-11.19-.808-2.97-.272-5.96-.55-8.94-.816-.74-.063-1.01.212-1.06 1.011-.21 4.42-.63 8.848-.57 13.264.04 2.708-.33 5.396-.12 8.123.14 1.852-.22 3.752-.21 5.644 0 2.615-.17 5.241-.34 7.859-.22 3.434-.27 6.878-.4 10.319-.1 2.532-.34 5.064-.21 7.626.14 2.687-.2 5.399-.33 8.103-.12 2.619-.27 5.235-.37 7.858-.18 4.833-.35 9.665-.5 14.492-.11 3.765-.04 7.54-.41 11.3.57 2.78-.29 5.573.05 8.356.06.479-.12.977-.14 1.467-.07 2.291-.12 4.588-.17 6.884-.06 2.944.01 5.892-.17 8.845-.08 1.382.05 2.783-.03 4.178-.09 1.962-.12 3.928-.12 5.89 0 1.718.11 3.442.11 5.161-.01 1.719-.14 3.435-.14 5.154-.01 1.392.08 2.778 0 4.18-.05 1.052.11 2.115-.04 3.192-.09.632.14 1.304.26 1.947.07.338.32.568.69.613.75.09 1.5.284 2.23.231 1.18-.088 2.37.1 3.48-.042 2.09-.27 4.17-.166 6.24-.197 2.9-.036 5.81-.43 8.71-.028.41.054.84.112 1.24.049 2.07-.317 4.15-.01 6.22-.134.78-.046 1.08-.198 1.22-.9.08-.4.08-.811.1-1.218.02-.33 0-.66.03-.985.07-.706 1.23-1.16.66-1.957-.39-.543-.71-1.104-1.02-1.673-.12-.219-.25-.431-.41-.625-.42-.531-.4-1.119-.02-1.603.76-.977.81-2.083.91-3.252.26-3.028.2-6.06.53-9.09.18-1.78.08-3.602.38-5.391.03-.128-.08-.35-.2-.417-.09-.057-.33.012-.42.108-.22.239-.48.499-.57.796-.28.958-1 1.497-1.81 1.952-1.93 1.062-3.39.869-4.93-.662-.17-.17-.27-.406-.43-.6-.62-.81-.82-.797-1.21.225-.3.787-.73 1.467-1.19 2.164-.83 1.271-1.86 2.137-3.48 1.983-1.54-.147-2.65-.939-3.37-2.271-.25-.472-.27-1.305-1.02-1.145-.35.077-.56.761-.84 1.162-.86 1.24-2.01 1.965-3.56 2.021-1.47.046-2.65-.631-3.19-1.934-.35-.862-.41-1.68.28-2.542.92-1.159.85-1.825-.32-2.627-.91-.617-1.14-1.449-1.08-2.34.13-2.133.4-4.265.99-6.33.37-1.318 1.29-2.331 2.24-3.243 1.19-1.134 3.65-.685 4.69.679.56.716.64 1.727 1.54 2.304.69-.785 1.39-1.565 2.07-2.362 1.62-1.919 4.21-2.322 5.73.832.41.848.46 1.746.76 2.594.6.02.56-.496.7-.808.55-1.203 1.04-2.434 1.61-3.62.26-.53.71-.913 1.35-1.017.75-.125 1.31.13 1.71.757.14.119.3.138.46.053z" fill="#f3ebd7"/><path d="m1510.76 392.412c.04-1.731-.3-3.43-.51-5.132-.04-.246-.05-.502-.15-.718-.3-.681-.65-1.39-1.48-1.51-.73-.107-1.24.388-1.68.896-.56.634-.94 1.362-1.2 2.149-.91 2.862-1.22 5.771-.77 8.749.15.996.53 1.895 1 2.762.23.413.61.77.99 1.072.55.431 1.3.347 1.82-.116.64-.569.99-1.321 1.24-2.107.54-1.739.78-3.519.67-5.339.07-.225-.02-.463.06-.691z" fill="#776255"/><path d="m1518.25 383.301c-.16.022-.32.002-.47-.053-1.16.649-1.77 1.722-2.16 2.918-.95 2.84-1.32 5.758-1.21 8.741.03.997.28 1.951.83 2.806.59.933 1.73 1.108 2.56.379.57-.497.96-1.135 1.26-1.825.5-1.149.76-2.36.88-3.58.2-2.13.19-4.264-.17-6.384-.2-1.156-.5-2.248-1.51-2.996z" fill="#7b6455"/><path d="m1498.33 400.487c.2.529.62.464 1.02.324.59-.208.96-.684 1.19-1.217.36-.836.72-1.687.91-2.563.63-2.85.7-5.732.23-8.61-.17-1.062-.48-2.09-1.2-2.942-.6-.695-1.38-.732-1.9-.026-.39.528-.76 1.108-.97 1.722-1.36 3.933-1.45 7.932-.5 11.952.16.646.39 1.282 1.23 1.359.14-2.852-.78-5.659-.24-8.538.29-1.523.3-3.097 1.09-4.606 2.11 3.129 1.69 8.712-.86 13.145z" fill="#776255"/><path d="m1510.75 392.407c-.26.211-.22.447-.06.69.21-.218.24-.445.06-.69z" fill="#d58064"/><path d="m1419.86 175.508c-1.15.217-2.31.4-3.45.664-.83.192-1.15.585-1.18 1.389-.03.658.02 1.32.09 1.978 1.08 10.604 1.46 21.244 1.41 31.895-.04 8.995-.14 17.991-.2 26.989-.04 5.035-.08 10.07-.11 15.105-.03 5.452-.25 10.888-.92 16.311-.06.573-.15 1.149-.13 1.723.04 1.219.56 1.758 1.83 1.943.33.044.67.067 1 .054 2.93-.117 5.86-.262 8.76-.689 1.69-.25 2.13-.632 2.3-2.395.26-2.715.44-5.432.53-8.152.27-7.51.52-15.016.7-22.52.26-10.563.34-21.129-.22-31.687-.46-8.501-1.58-16.929-2.84-25.345-.25-1.636-.49-3.265-.75-4.898-.1-.571-.2-1.141-.38-1.686-.23-.671-.71-1.07-1.47-1.159-1.26-.157-2.5-.033-3.73.223-.41.086-.82.178-1.23.262z" fill="#3a3d36"/><path d="m1474.93 348.673c.19-.123.43-.226.22-.51-.25.098-.29.284-.22.51z" fill="#da8a6f"/><path d="m1275.9 297.877c-.26.342-.33.72-.18 1.124.32-.337.33-.714.18-1.124z" fill="#6e5547"/><path d="m1501.67 214.342c-.31-.68-.8-1.008-1.58-.74-4.6.624-9.2 1.392-13.87 1.537-2.33.076-4.65.407-6.91 1.078-1.19.355-1.72 1.006-1.94 2.253-.25 1.483-.01 2.945-.18 4.423-.14 1.203.71 1.759 1.95 1.592 6.8-.915 13.58-1.864 20.37-2.848 1.39-.202 2.03-1.009 1.89-2.409-.16-1.64-.03-3.265.27-4.879z" fill="#da8a6f"/><path d="m1501.52 245.347c-.26-.402-.64-.411-1.06-.29-3.45.399-6.95.617-10.4.731-4.29.148-8.45.918-12.64 1.56-2.24.348-1.73 2.516-1.86 4.058-.13 1.493.94 1.886 2.27 1.985.84.063 1.66.054 2.49-.035 6.3-.68 12.51-2.223 18.9-2.177 1.74.014 2.72-.783 2.24-2.644-.27-1.082.2-2.122.06-3.188z" fill="#da8a6f"/><path d="m1501.67 214.342c-.58.137-.82.525-.81 1.087.03 1.402.06 2.796.08 4.198.01.903-.22 1.2-1.07 1.403-.25.055-.5.09-.75.125-6.12.898-12.24 1.823-18.36 2.686-2.58.361-3.44.836-2.97-2.527.13-.972.11-1.971.11-2.958-.01-.918.5-1.268 1.33-1.495 2.19-.598 4.42-.938 6.67-1.085 4.42-.285 8.79-1.022 13.19-1.54.43-.053.81-.196.99-.632-5.2-.052-10.34.729-15.49 1.235-1.75.174-3.49.425-5.21.742-1.94.354-2.37.804-2.55 2.791-.15 1.719-.18 3.462-.17 5.187 0 1.127.56 1.597 1.76 1.598.5-.001 1-.05 1.5-.12 6.7-.979 13.4-1.965 20.11-2.965 1.37-.206 1.99-.696 1.93-1.829-.09-1.964.21-3.96-.29-5.901z" fill="#43423a"/><path d="m1487.35 175.731c3.24-.523 6.95-1.118 10.66-1.721.42-.065.83-.123 1.23-.227 1.02-.261 1.44-.682 1.48-1.71.03-.895-.05-1.808-.19-2.7-.14-.906-.77-1.5-1.68-1.581-1.08-.093-2.17-.128-3.25-.033-6.33.551-12.6 1.483-18.87 2.451-1.93.298-3 1.255-3.38 3.089-.21.968-.46 1.929-.61 2.903-.09.598.37 1.166.99 1.197.74.043 1.5.007 2.24-.09 3.64-.488 7.27-1.01 11.37-1.584z" fill="#494c42"/><path d="m1500.48 260.116c-7.2-.183-14.38.174-21.57.616-.33.019-.67.045-1 .085-1.89.222-2.12.421-2.43 2.21-.18 1.056-.35 2.116-.46 3.189-.1.946.33 1.346 1.34 1.295 1.67-.088 3.34-.223 5.01-.318 5.17-.293 10.36-.58 15.54-.872 1.08-.061 2.17-.124 3.25-.26 1.21-.156 1.52-.52 1.63-1.787.1-1.217.15-2.442.19-3.665 0-.098-.22-.198-.34-.3-.38-.114-.79-.022-1.16-.179z" fill="#393d36"/><path d="m1501.52 245.35c-.82.692-.73 1.646-.6 2.512.4 2.629.19 2.609-2.39 2.714-1.69.068-3.34.286-5 .49-4.57.562-9.13 1.187-13.7 1.729-4.5.532-3.96.052-3.55-3.679.1-.862.63-1.305 1.48-1.424 3.81-.547 7.62-1.088 11.47-1.361 1-.07 2-.113 3-.183 2.08-.152 4.14-.565 6.25-.415.68.044 1.55.2 1.99-.675-2.49-.229-4.99-.172-7.49-.017-4.58.279-9.15.661-13.71 1.277-.74.104-1.48.222-2.21.387-.9.194-1.47.783-1.67 1.653-.35 1.446-.5 2.921-.48 4.408 0 .688.56 1.201 1.33 1.191 1.33-.019 2.67-.067 3.99-.218 3.98-.451 7.96-.966 11.93-1.431 2.4-.28 4.81-.499 7.22-.773.66-.071 1.33-.172 1.97-.352.5-.14.88-.52.85-1.086-.1-1.469-.22-2.94-.35-4.404-.02-.122-.21-.235-.33-.351z" fill="#434139"/><path d="m1489.43 238.682c3.3-.551 6.6-1.096 9.89-1.647.58-.095 1.16-.19 1.73-.325 1.63-.388 1.88-.826 1.43-2.475-.29-1.032-.61-2.052-.87-3.086-.17-.631-.54-.982-1.16-1.146-.74-.195-1.48-.218-2.24-.153-6.49.56-12.98 1.231-19.42 2.194-2.13.32-2.7.921-2.92 3.039-.14 1.306-.28 2.634-.08 3.949.14.913.58 1.339 1.49 1.343.74.007 1.49-.077 2.24-.181 3.32-.45 6.62-.926 9.93-1.389 0-.041-.01-.082-.02-.123z" fill="#3f3f37"/><path d="m1485.44 191.774c3.05-.496 6.11-.972 9.15-1.509 1.07-.191 2.1-.524 3.14-.822.52-.149.88-.54.95-1.059.24-1.654.22-3.271-.65-4.785-.29-.496-.66-.707-1.21-.651-.59.06-1.17.106-1.75.195-5.86.889-11.72 1.771-17.58 2.695-1.07.17-2.11.469-3.17.742-.98.256-1.52.93-1.75 1.895-.25 1.057-.28 2.126-.22 3.196.04.912.69 1.483 1.66 1.5.75.013 1.5-.071 2.25-.168 3.06-.414 6.12-.856 9.18-1.284v.048z" fill="#433f38"/><path d="m1487.55 208.036c3.3-.53 6.6-1.047 9.89-1.591 2.95-.489 2.95-.558 3.03-3.43.09-3.227-.36-2.746-2.87-3.084-.9-.124-1.84-.133-2.75-.054-5.24.455-10.49.807-15.7 1.57-3.17.465-3.57.862-4.02 4.007-.15 1.057-.27 2.124-.32 3.196-.05.912.44 1.364 1.38 1.33.58-.019 1.16-.1 1.74-.201 3.21-.547 6.42-1.107 9.63-1.667-.01-.027-.01-.054-.02-.081z" fill="#403f37"/><path d="m1500.48 260.115c.35.292.74.3 1.16.179-.33-.378-.74-.342-1.16-.179z" fill="#da8a6f"/><path d="m1486.18 394.089c.98-.109 1.32-.421 1.33-1.272.03-1.402.05-2.803.02-4.204-.01-.799-.23-1.026-1.06-1.028-2.42-.002-4.84.023-7.26.09-4.09.106-8.18.246-12.27.38-2.09.07-4.17.139-6.26.271-3.17.193-6.34.434-9.51.668-2.49.19-5 .387-7.49.597-.59.047-1.16.162-1.75.223-.76.079-1.26.468-1.39 1.203-.23 1.299-.47 2.598-.61 3.913-.11.884.34 1.329 1.33 1.42.83.079 1.67.143 2.51.116 2.16-.074 4.33-.189 6.5-.305 3.34-.174 6.68-.377 10.01-.551 2.43-.123 4.83-.452 7.26-.493 2.92-.054 5.84-.413 8.75-.585 3.09-.18 6.18-.285 9.27-.425.25-.015.5-.022.63-.027z" fill="#da8a6f"/><path d="m1443.89 376.06c-1.08.151-2.15.307-3.23.451-.77.101-1.2.529-1.34 1.259-.04.165-.1.32-.14.479-.52 2.062-.28 2.37 1.79 2.254 4.33-.251 8.66-.605 13-.774 5.58-.211 11.16-.567 16.75-.528 4.17.022 8.35-.13 12.52-.192 1.17-.017 2.33.042 3.5.032.58-.004.87-.323.94-.925.15-1.155.13-2.307.02-3.453-.08-.858-.36-1.077-1.33-1.046-3.33.112-6.67.245-10 .363-2.5.085-5.01.164-7.5.249-2.09.069-4.17.256-6.25.352-3.75.169-7.5.527-11.23.917-2.5.258-5.02.097-7.49.568z" fill="#da8a6f"/><path d="m1487.42 405.009c-.54-2.346.14-2.413-3-2.1-2.62.263-5.25.339-7.88.477-.23.012-.47-.137-.7-.208-3.66.429-7.34.463-11.01.628-2.01.093-4.01.185-6.01.311-3.09.196-6.17.432-9.26.635-1.75.113-3.51.157-5.26.304-1.66.135-2.4-.102-2.32 2.307.04.9-.06 1.811-.04 2.713 0 .347.28.579.66.603.25.014.5 0 .75-.028 1.99-.217 4-.337 6-.478 4.51-.31 9-.813 13.5-1.179 3.17-.255 6.34-.406 9.51-.62.92-.058 1.83-.166 2.75-.273 2.57-.297 5.14-.636 7.75-.652 1.16-.003 2.33-.208 3.49-.371.9-.125.98-.269 1.06-1.338.03-.246.01-.495.01-.746z" fill="#da8a6f"/><path d="m1506.19 293.55c.14 1.066.34 2.102.86 3.066.37.673.74 1.351 1.6 1.377.98.037 1.46-.685 1.84-1.441.45-.883.72-1.832.94-2.802.41-1.859.55-3.744.56-5.624.01-1.803-.23-3.599-.31-5.404-.03-.789-.35-1.427-.78-2.034-.42-.595-1.16-.687-1.74-.216-1.01.816-1.57 1.911-1.94 3.097-1.03 3.26-1.4 6.576-1.02 9.966z" fill="#766052"/><path d="m1508.43 352.532c1.12-.254 1.21-1.283 1.51-2.083.63-1.722.83-3.546.87-5.36.04-2.134.11-4.294-.31-6.413-.07-.324-.04-.677-.16-.972-.29-.683-.59-1.47-1.41-1.62-.84-.154-1.36.503-1.83 1.084-.52.658-.85 1.413-1.13 2.197-1.08 3.018-1.28 6.135-1 9.275.09.969.46 1.918.81 2.844.22.608.62 1.193 1.26 1.48.55.249 1.14.361 1.39-.439-2.92-3.544-2.94-10.463-.01-13.955.89.231.71 1.008.76 1.598.31 3.533.42 7.053-.78 10.483-.21.607-.46 1.261.03 1.875z" fill="#7b685a"/><path d="m1515.21 321.794c.17 1.228.32 2.46 1.03 3.529.7 1.037 1.69 1.066 2.43.043.71-.961.99-2.086 1.24-3.22.7-3.174.71-6.381.52-9.597-.07-1.083-.49-2.082-.84-3.098-.08-.225-.25-.416-.41-.61-.39-.502-1.07-.553-1.54-.139-.65.57-1.07 1.29-1.29 2.093-.32 1.194-.63 2.398-.83 3.609-.41 2.443-.58 4.91-.31 7.383z" fill="#786456"/><path d="m1502.66 311.597c-.12-.894-.2-1.801-.39-2.68-.16-.722-.48-1.393-1.03-1.935-.51-.5-1.31-.464-1.76.099-.62.797-.94 1.74-1.16 2.703-.58 2.494-.86 5.031-.82 7.587.01 1.479.19 2.965.96 4.29.24.419.54.828.89 1.162.51.479 1.3.431 1.82-.038.71-.642 1.01-1.499 1.25-2.381.57-2.174.66-4.385.56-6.61-.04-.733-.2-1.469-.3-2.2l-.01.001z" fill="#796658"/><path d="m1496.78 349.613c.14.87.19 1.948.82 2.876.69 1.01 1.71 1.084 2.43.078.44-.589.76-1.282 1.02-1.965.88-2.343 1.07-4.804 1.05-7.271-.01-1.634.1-3.298-.48-4.873-.19-.536-.38-1.087-.68-1.567-.56-.869-1.45-.918-2.04-.105-.39.527-.75 1.114-.94 1.724-.41 1.331-.84 2.686-1.01 4.059-.27 2.278-.53 4.576-.17 7.051z" fill="#786456"/><path d="m1515.61 291.637c.12 1.07.26 1.961.85 2.714.51.665 1.28.774 1.97.259.64-.457 1-1.107 1.33-1.779.9-1.816 1.13-3.776 1.36-5.748.22-1.903.01-3.787-.07-5.675-.04-.962-.4-1.928-.72-2.856-.27-.742-1.3-.883-1.9-.32-.62.588-.96 1.346-1.24 2.13-.9 2.505-1.42 5.089-1.58 7.734-.07 1.228-.26 2.465-.01 3.535z" fill="#746356"/><path d="m1514.49 347.64c.15.451.32 1.186.65 1.843.51 1.062 1.61 1.221 2.47.426.63-.574 1.04-1.285 1.37-2.055.52-1.228.76-2.522.93-3.832.25-2.052.16-4.113.08-6.168-.04-1.087-.3-2.122-.85-3.068-.43-.726-1.34-.856-1.89-.215-.43.491-.84 1.056-1.08 1.653-1.44 3.582-1.92 7.317-1.68 11.422z" fill="#746153"/><path d="m1505.65 376.271c.06.632.4 1.649 1.07 2.522.64.842 1.58.878 2.38.147.76-.698 1.21-1.595 1.52-2.537 1.2-3.647 1.05-7.319.1-10.985-.2-.807-.68-1.506-1.32-2.063-.56-.499-1.28-.509-1.8.001-.41.413-.81.852-.95 1.435-.84 3.63-1.51 7.279-1.01 11.488z" fill="#796456"/><path d="m1514.5 375.766c.08.371.26 1.257.45 2.142.13.573.44 1.065.85 1.481.59.593 1.38.566 1.99-.042.56-.551.83-1.242 1.04-1.947.39-1.265.65-2.553.72-3.872.13-2.056.27-4.1.02-6.159-.14-1.08-.47-2.092-.91-3.067-.62-1.381-1.79-1.46-2.62-.134-.43.693-.73 1.486-.96 2.27-.76 2.611-.99 6.01-.59 9.329z" fill="#776254"/><path d="m1501.67 366.271c-.12-.893-.2-1.802-.39-2.686-.18-.803-.53-1.561-1.14-2.157-.51-.493-1.29-.475-1.79.013-.43.423-.65.954-.82 1.507-.98 3.114-1.27 6.3-.94 9.523.13 1.22.53 2.425 1.34 3.41.92 1.109 2.05 1.028 2.86-.191.46-.698.71-1.492.86-2.305.42-2.369.46-4.747.02-7.114z" fill="#7d6658"/><path d="m1512.17 313.469c-.21-1.292-.26-2.627-1.03-3.78-.42-.637-.86-1.298-1.7-1.257-.86.044-1.26.83-1.54 1.474-.35.814-.49 1.731-.67 2.613-.73 3.4-1.17 6.821-.56 10.285.11.645.23 1.31.5 1.899.65 1.467 1.88 1.622 2.91.42.83-.972 1.27-2.132 1.58-3.331.7-2.742.96-5.511.51-8.322z" fill="#766254"/><path d="m1501.6 296.458c.48-.137.58-.568.69-.946 1.26-4.28 1.36-8.594.47-12.943-.07-.318-.15-.654-.3-.932-.28-.511-.65-1.044-1.27-1.075-.65-.034-1.05.501-1.31 1.024-.36.74-.72 1.494-.94 2.282-1.04 3.868-1.34 7.779-.71 11.739.08.566.21 1.14.42 1.673.55 1.371 1.68 1.491 2.67.289.26-.322.46-.684.29-1.133-1.02-.053-1.96-.123-2.11-1.487-.44-4.036-.03-7.968 1.35-12.266 1.22 1.464 1.15 2.866 1.15 4.159.01 2.372-.01 4.747-.63 7.081-.22.831-.61 1.762.23 2.527z" fill="#715e51"/><g fill="#da8a6f"><path d="m1505.88 396.007c.1.703.19 1.434.3 2.17.1.675.43 1.242.93 1.7.35.314.76.304 1.13.037.64-.466.98-1.146 1.12-1.874.23-1.209.48-2.42.54-3.645.1-2.039.31-4.087-.08-6.133-.13-.664-.32-1.269-.76-1.793-.32-.4-.92-.442-1.32-.115-.67.56-1 1.317-1.24 2.108-.73 2.461-1.27 4.944-.63 7.546z"/><path d="m1515.33 395.204c.14.641.24 1.295.45 1.906.24.71 1.07.811 1.6.263 1.03-1.063 1.52-2.41 1.67-3.788.22-2.021.2-4.078.24-6.115.01-.935-.59-1.692-.86-2.552-.18-.6-.72-.644-1.11-.185-.91 1.052-1.22 2.355-1.48 3.629-.45 2.242-.86 4.518-.52 6.837z"/><path d="m1498.33 400.479c1-.23 1.49-.945 1.85-1.83.77-1.854 1.02-3.823 1.05-5.768.02-1.785-.39-3.578-.63-5.361-.03-.232-.13-.489-.27-.672-.24-.307-.37-.775-.86-.79-.5-.02-.71.391-.86.76-.23.526-.44 1.07-.58 1.625-.64 2.56-.79 5.169-.72 7.789.04 1.484.48 2.89 1.03 4.26z"/><path d="m1424.22 272.25c.92-.127 1.83-.235 2.74-.382.87-.15 1.18-.409 1.26-1.276.18-1.883.35-3.778.42-5.672.27-8.067.5-16.135.77-24.202.26-7.578.31-15.155.17-22.732-.09-4.691-.37-9.382-.7-14.074-.57-8.331-1.94-16.545-3.08-24.796-.07-.492-.14-.983-.23-1.465-.28-1.498-.84-1.921-2.4-1.8-.41.03-.83.117-1.23.208-1.47.324-2.93.667-4.39.997-1.14.256-1.34.521-1.28 1.716.02.414.08.824.12 1.228.77 6.475.98 12.978 1.23 19.489.22 5.765.23 11.532.22 17.293 0 4.857-.17 9.716-.23 14.573-.04 2.879-.01 5.762-.02 8.644-.02 4.115-.07 8.234-.08 12.353 0 4.203-.17 8.401-.49 12.592-.11 1.477-.27 2.953-.41 4.434-.04.493-.14.98-.17 1.477-.06 1.247.34 1.741 1.54 1.712 1.67-.031 3.34-.146 5-.24.41-.023.83-.116 1.24-.174l.02.082z"/><path d="m1487.22 169.883c-3.31.463-6.63.892-9.94 1.403-2.3.356-2.54.648-3.05 2.939-.02.079-.05.159-.06.245-.38 1.841-.17 2.11 1.66 1.855 5.71-.799 11.43-1.599 17.14-2.446 1.81-.268 3.61-.672 5.41-1.042 1.11-.225 1.35-.579 1.29-1.726-.01-.165-.03-.329-.05-.494-.25-2.051-.67-2.396-2.72-2.124-3.23.432-6.46.904-9.69 1.355.01.021.01.035.01.055z"/><path d="m1480.75 261.695c-1.07.15-2.15.294-3.22.451-.55.077-.9.404-.99.959-.13.895-.29 1.787-.37 2.683-.04.366.25.584.63.578 1-.014 2.01-.001 3-.071 3.24-.217 6.49-.489 9.73-.679 2.74-.161 5.5-.233 8.24-.345.16-.009.33-.005.49-.028.73-.123 1.69.106 2.13-.505.64-.904.51-2.034.25-3.091-.08-.356-.34-.577-.68-.62-.58-.073-1.16-.138-1.74-.119-4.66.172-9.32.357-13.98.564-1.16.051-2.33.186-3.49.287l-.01-.062z"/><path d="m1489.01 237.514c3.22-.45 6.44-.894 9.66-1.352.66-.092 1.32-.232 1.95-.419.74-.206 1.01-.642.76-1.281-.4-1.002-.64-2.04-.85-3.088-.12-.589-.55-.786-1.11-.735-2.25.202-4.49.356-6.73.634-4.38.544-8.77 1.164-13.15 1.749-.41.058-.83.123-1.23.2-.75.146-1.17.623-1.29 1.335-.2 1.218-.35 2.443-.25 3.68.08.845.42 1.104 1.35 1.022.83-.074 1.66-.204 2.48-.319 2.81-.393 5.62-.786 8.43-1.179l-.03-.246z"/><path d="m1485.55 190.686c3.29-.53 6.59-1.075 9.89-1.579 2.4-.363 2.76-1.123 2.12-3.406-.61-2.169-.83-2.346-2.9-1.766-3.31.936-6.71 1.281-10.09 1.83-3.05.496-6.1.984-9.11 1.657-1.55.348-1.84.619-2.02 2.07-.06.488-.09.987-.1 1.475-.01.795.42 1.173 1.27 1.13.58-.025 1.16-.1 1.74-.181 3.06-.428 6.13-.856 9.18-1.284 0 .014.01.028.01.048z"/><path d="m1481.85 208.192c5.24-1.025 10.47-2.084 15.76-2.809.4-.057.81-.156 1.21-.268.15-.042.36-.175.38-.289.18-1.049.47-2.097.11-3.153-.06-.173-.37-.345-.59-.377-1.8-.263-3.56-.665-5.44-.367-4.37.688-8.8.759-13.17 1.48-3.55.587-3.46.011-4.05 4.005-.05.326-.09.652-.11.982-.1 1.503 0 1.614 1.42 1.422 1.49-.194 2.97-.416 4.46-.624z"/><path d="m1506.97 294.074c.4.729.48 1.846 1.15 2.725.44.566.95.543 1.41-.051.48-.602.67-1.318.92-2.02.49-1.419.55-2.908.73-4.374.29-2.469.13-4.924-.31-7.359-.06-.326-.13-.643-.2-.967-.08-.344-.28-.615-.64-.676-.34-.064-.64.09-.88.339-.41.425-.68.93-.89 1.475-1.02 2.654-1.56 5.372-1.32 8.213.06.819.02 1.638.03 2.688z"/><path d="m1508.44 352.533c.05-.237.06-.489.16-.705 1.47-3.239 1.61-6.653 1.34-10.109-.1-1.279.21-2.63-.51-3.831-.09-.141-.11-.318-.2-.445-.22-.317-.57-.407-.85-.16-.94.842-1.6 1.894-1.9 3.119-.78 3.129-1.17 6.279-.44 9.474.31 1.328.69 2.583 2.4 2.656z"/><path d="m1518.43 309.39c-1.73 1.167-1.76 2.855-2.07 4.339-.56 2.666-.44 5.404-.48 8.117-.02.948.54 1.719.8 2.587.12.414.36.763.87.713.47-.044.76-.371.9-.766.3-.857.66-1.713.81-2.597.6-3.43.77-6.871.11-10.312-.08-.4-.17-.812-.32-1.186-.13-.296-.38-.54-.63-.887z"/><path d="m1498.57 318.425c.1.764.21 1.495.31 2.232.08.593.39 1.065.85 1.453.37.303.77.274 1.09-.061.53-.576.75-1.282.89-2.003.2-1.128.41-2.27.44-3.409.05-1.712-.02-3.434-.09-5.15-.05-1.169-.67-2.181-1.06-3.254-.07-.192-.36-.38-.58-.412-.35-.055-.61.175-.73.519-.32.936-.81 1.845-.93 2.801-.3 2.429-.83 4.868-.18 7.283z"/><path d="m1497.45 349.855c.07.845.54 1.545.89 2.282.23.483.85.431 1.21-.036.57-.741.83-1.613 1.05-2.486.85-3.382 1.04-6.796.38-10.232-.09-.487-.16-.978-.51-1.362-.2-.235-.32-.595-.73-.579-.38.012-.57.296-.72.582-.16.286-.28.595-.39.91-1.23 3.56-1.25 7.242-1.18 10.927z"/><path d="m1516.51 291.443c.15.723.28 1.456.47 2.167.12.463.9.611 1.24.251.76-.808 1.23-1.786 1.48-2.823.89-3.722 1.13-7.477.28-11.241-.07-.33-.19-.641-.58-.719-.47-.1-.8.176-1.02.54-.72 1.234-.99 2.63-1.28 3.992-.54 2.58-.98 5.181-.6 7.841z"/><path d="m1519.12 338.358c-.07-.492-.09-.989-.21-1.46-.13-.531.01-1.176-.6-1.516-.41-.234-1.02.324-1.45 1.427-.88 2.238-1.39 4.544-1.55 6.945-.1 1.475-.22 2.946.13 4.407.09.391.23.782.42 1.138.24.46.89.502 1.27.142 1.09-1.015 1.5-2.366 1.81-3.732.45-1.928.5-5.162.19-7.339z"/><path d="m1506.45 375.358c.17.804.31 1.612.53 2.403.11.415.45.681.9.758.45.075.83-.117 1.07-.484.5-.759.92-1.563 1.13-2.454.64-2.747.91-5.505.35-8.308-.19-.996-.61-1.869-1.1-2.726-.33-.566-1.03-.524-1.48-.016-.52.587-.74 1.294-.89 2.017-.59 2.908-.97 5.833-.51 8.81z"/><path d="m1515.23 375.815c.08.878.26 2.015 1.06 2.939.31.348.77.338 1.08.003.4-.445.61-.982.76-1.54 1.05-3.903 1.02-7.81.15-11.73-.04-.162-.1-.313-.16-.464-.27-.617-.96-.75-1.41-.276-.34.368-.66.752-.77 1.255-.67 3.148-1.27 6.301-.71 9.812z"/><path d="m1497.43 371.858c.13 1.13.28 2.354 1.03 3.412.44.627 1.17.657 1.63.001.24-.333.5-.697.57-1.082.27-1.45.7-2.881.51-4.391-.11-.813-.12-1.625-.05-2.456.15-1.775-.73-3.329-1.26-4.951-.14-.392-.75-.348-1.03.018-.57.741-.87 1.624-1.01 2.5-.38 2.265-.8 4.536-.39 6.942z"/><path d="m1511.49 313.268c-.03-1.2-.53-2.244-1.11-3.241-.42-.713-1.22-.706-1.57.011-.59 1.189-1.04 2.456-1.18 3.762-.25 2.365-.44 4.737-.49 7.109-.03 1.381.11 2.816 1.12 3.956.3.34.74.354 1.07.01 1.2-1.261 1.63-2.886 1.94-4.494.44-2.344.41-4.733.21-7.106z"/><path d="m1501.58 296.464c-.14-.926.25-1.773.45-2.643.73-3.317.82-6.648.31-9.993-.1-.667-.29-1.259-.75-1.779-.39-.44-.93-.42-1.18.143-.33.756-.68 1.515-.85 2.311-.77 3.621-1.28 7.269-.64 10.97.08.483.17.971.34 1.435.22.603.86.742 1.4.326.31-.246.62-.519.93-.784l-.01.022z"/></g></g><path d="m1772.89 407.514-987.574 65.253c-41.438 2.738-55.08 56.957-19.871 78.979l49.635 31.046 44.131 27.056c33.907 20.788 23.594 72.547-15.691 78.751l-843.404336 133.198c-20.798764 3.285-36.117164 21.212-36.117164 42.269l.0003 373.024c.0001 23.68 19.2293 42.86 42.90785 42.79l1768.91335-4.76c23.59-.07 42.67-19.21 42.67-42.8l.01-782.106c0-24.744-20.92-44.331-45.61-42.7z" fill="#f6ead8" stroke="#2f2f2f" stroke-width="2"/><g fill="#f6ead8" opacity=".11"><path d="m399.984 562.316c-.325 1.756-.586 3.508-.916 5.191.266-1.678.528-3.43.916-5.191z"/><path d="m-1.24462 725.131c-.172-2.444-.34604-4.917-.51804-7.361-.00615-.087-.01434-.204-.02048-.291.42716-.001.854315-.002 1.28147-.003-.433842 2.546-.66233 5.105-.74295 7.655z"/><path d="m-2.01289 724.546c.20266-2.374.64182-4.764 1.319367-7.144 0 0 .052551-.003.078828-.005 1.046486 8.115.429916 16.24-.16036 24.362-.459955-2.408-.814815-4.824-1.088935-7.218.18875-3.321.0603-6.648-.1489-9.995z"/><path d="m195.211 720.032c.276.285.453.609.627.902-.089.189-.125.405-.214.595-.498-1.247-.945-2.497-1.29-3.755.309.741.568 1.517.877 2.258z"/></g><path d="m1676.26 416.498c-25.51 5.781-57.38 20.439-88.17 37.074-33.97 18.355-66.69 39.149-88.22 53.182-27.89 18.177-34.72 56.91-14.56 83.719 15.75 20.949 38.35 41.453 57 56.711 9.33 7.631 17.67 13.955 23.69 18.371 3 2.208 5.43 3.94 7.1 5.12.23.165.45.319.66.463.52.368.95.664 1.26.883.22.152.39.268.5.345l.13.088.02.009c24.32 22.357 32.65 44.748 31.53 65.744-1.12 21.03-11.72 40.752-25.41 57.728-13.69 16.97-30.43 31.151-43.76 41.093-6.67 4.97-12.47 8.878-16.61 11.542-2.07 1.333-3.72 2.354-4.86 3.042-.57.344-1 .605-1.3.779-.15.087-.26.153-.34.197l-.08.049-.02.012-.01.003s0 .001.25.434l-.25-.433c-25.96 14.982-69.74 28.455-126.55 40.551-56.79 12.092-126.54 22.798-204.4 32.267-155.72 18.936-343.835 32.919-525.449 43.146-181.612 10.226-356.717 16.697-486.419 20.611-64.852 1.957-118.352 3.275-155.6394 4.104-18.64363.414-33.234.706-43.1634.895-4.9647.094-8.7641.162-11.3223.207-1.2791.022-2.2479.039-2.8969.05l-.4001.006 16.9308-129.614.4782-.016 2.6709-.09c2.3583-.079 5.8597-.196 10.4325-.351 9.14555-.31 22.5767-.767 39.719-1.359 34.2846-1.184 83.4137-2.905 142.7927-5.055 118.758-4.3 278.514-10.316 442.509-17.179 163.994-6.862 332.227-14.571 467.937-22.257 135.69-7.685 238.92-15.35 272.86-22.131 69.55-13.891 104.16-31.135 120.5-46.429 16.37-15.33 14.42-28.756 10.74-34.772-1.44-2.342-6-7.926-12.3-15.264-6.31-7.356-14.41-16.513-22.93-26.026-17.06-19.024-35.86-39.475-45.68-49.778-9.01-9.457-16.04-20.746-20.26-33.224-9.22-27.262-2.21-49.109 10.55-65.951 12.77-16.864 31.29-28.706 45.04-35.869 24.04-12.526 69.42-29.811 108.83-43.973 19.7-7.078 37.89-13.373 51.16-17.899 6.63-2.262 12.03-4.083 15.78-5.337 1.87-.627 3.33-1.113 4.32-1.442l.46-.153.66-.221.29-.095.04-.012z" fill="#ebdac1" stroke="#f1e4cf"/></svg>