<?xml version="1.0" standalone="no"?>
<!DOCTYPE svg PUBLIC "-//W3C//DTD SVG 20010904//EN"
 "http://www.w3.org/TR/2001/REC-SVG-20010904/DTD/svg10.dtd">
<svg version="1.0" xmlns="http://www.w3.org/2000/svg"
 width="700.000000pt" height="700.000000pt" viewBox="0 0 700.000000 700.000000"
 preserveAspectRatio="xMidYMid meet">
<metadata>
Created by potrace 1.14, written by Peter Selinger 2001-2017
</metadata>
<g transform="translate(0.000000,700.000000) scale(0.100000,-0.100000)"
fill="#000000" stroke="none">
<path d="M665 5313 c0 -205 -2 -238 -24 -333 -70 -309 -227 -651 -462 -1005
-49 -75 -89 -138 -89 -140 0 -3 146 -5 324 -5 l325 0 -34 73 c-44 95 -62 169
-76 303 -18 174 14 328 104 509 140 281 377 519 596 598 79 28 208 34 266 12
85 -32 126 -124 107 -234 -31 -175 -158 -364 -310 -464 -94 -62 -143 -78 -229
-79 -61 0 -80 4 -117 26 -56 33 -92 75 -129 154 -25 54 -32 62 -51 56 -101
-31 -168 -192 -132 -318 20 -69 93 -138 169 -161 73 -22 210 -19 289 5 297 92
613 503 657 857 17 138 -10 236 -87 305 -57 51 -100 63 -227 63 -141 0 -223
-25 -348 -108 -154 -101 -272 -235 -396 -452 -28 -49 -51 -86 -51 -82 0 36
176 422 255 559 25 42 45 80 45 83 0 3 -85 5 -188 5 l-188 0 1 -227z"/>
<path d="M4133 5525 c-333 -93 -718 -594 -852 -1107 -74 -286 0 -508 188 -565
71 -22 217 -22 362 1 132 20 235 20 363 1 55 -8 105 -15 113 -15 10 0 13 40
12 208 -1 114 -4 233 -8 264 l-6 58 -80 -91 c-144 -164 -354 -322 -493 -371
-74 -26 -180 -28 -216 -5 -49 33 -61 63 -59 157 5 318 378 1027 656 1248 95
76 148 97 240 93 43 -2 70 -52 63 -121 -13 -141 -168 -544 -247 -642 l-30 -38
33 6 c61 12 152 68 223 139 117 116 189 246 201 363 16 150 -87 337 -222 402
-59 29 -168 36 -241 15z"/>
<path d="M2227 4998 c-304 -463 -392 -791 -248 -921 49 -44 103 -60 201 -61
158 -1 312 98 461 297 33 43 59 76 59 72 0 -16 -115 -277 -156 -355 -111 -209
-248 -371 -361 -426 -76 -38 -179 -41 -233 -7 -38 24 -80 87 -80 122 0 42 -78
21 -132 -36 -80 -84 -78 -225 5 -319 50 -57 98 -81 187 -94 166 -24 314 33
452 173 149 151 301 456 483 972 127 361 200 526 279 633 l46 62 -133 0 -133
0 -19 -77 c-65 -270 -185 -503 -335 -653 -88 -88 -173 -132 -254 -133 -71 -1
-100 12 -121 53 -46 89 25 281 203 552 38 56 91 133 119 169 28 37 53 71 57
78 5 8 -31 11 -133 11 l-140 0 -74 -112z"/>
<path d="M5061 5094 c-179 -48 -325 -213 -382 -431 -24 -92 -29 -257 -10 -348
78 -372 393 -577 675 -439 214 105 352 399 318 679 -28 223 -149 422 -304 501
-102 52 -199 64 -297 38z m316 -124 c53 -24 97 -90 114 -169 7 -34 10 -102 7
-171 -5 -99 -11 -131 -43 -228 -91 -271 -275 -472 -432 -472 -128 0 -193 90
-201 281 -10 234 85 485 246 648 115 117 216 154 309 111z"/>
<path d="M5182 4594 c-14 -22 -41 -44 -69 -56 l-45 -20 26 -27 c14 -15 30 -49
37 -79 l12 -52 19 30 c21 36 74 70 107 70 l24 0 -27 21 c-34 26 -46 51 -55
105 l-6 43 -23 -35z"/>
<path d="M5842 4478 c-73 -348 -132 -636 -132 -640 0 -5 72 -8 161 -8 l161 0
-6 28 c-30 142 -35 458 -11 612 53 325 194 530 365 530 176 -1 263 -187 216
-460 -38 -215 -143 -502 -242 -657 l-34 -53 194 0 193 0 32 198 c63 393 73
490 75 677 1 168 -1 183 -22 230 -57 125 -181 186 -343 171 -116 -11 -199 -47
-283 -125 l-38 -36 26 50 c14 28 35 65 47 83 l21 32 -124 0 -124 0 -132 -632z"/>
<path d="M410 2841 c-49 -26 -80 -75 -80 -127 0 -23 3 -50 6 -59 16 -40 119
-60 161 -30 48 33 33 125 -20 125 -36 0 -61 -23 -54 -49 6 -25 -11 -24 -27 1
-15 25 8 65 48 85 46 22 103 6 141 -39 26 -30 27 -37 23 -108 -6 -105 -53
-199 -240 -483 -243 -369 -306 -515 -296 -686 8 -131 67 -224 179 -280 84 -42
156 -55 274 -48 230 12 425 124 572 327 31 44 59 78 60 76 2 -2 -28 -91 -67
-198 -38 -107 -70 -197 -70 -201 0 -4 100 -7 221 -7 l221 0 -6 23 c-33 111
-39 171 -39 382 0 154 5 257 17 345 59 434 131 730 217 903 l29 57 -119 0
-119 0 0 -72 c0 -88 -88 -528 -128 -639 -38 -106 -114 -261 -175 -354 -78
-119 -228 -264 -323 -311 -66 -32 -89 -38 -160 -42 -132 -7 -210 30 -248 116
-17 38 -20 60 -16 131 7 114 36 195 164 469 158 337 192 456 160 564 -17 60
-60 108 -118 132 -52 22 -145 21 -188 -3z"/>
<path d="M2237 2834 c-205 -37 -396 -152 -487 -294 -77 -121 -103 -312 -59
-442 59 -175 192 -285 374 -308 129 -16 220 1 481 89 201 68 364 21 364 -104
0 -65 -51 -132 -135 -176 -119 -64 -271 -85 -493 -70 -254 19 -475 84 -599
178 l-33 24 0 -297 0 -297 258 6 c333 8 443 25 627 96 189 73 313 177 385 324
40 80 44 97 48 178 6 112 -15 196 -67 277 -72 111 -181 184 -301 201 -94 13
-150 0 -316 -72 -199 -87 -215 -91 -314 -91 -98 0 -153 22 -193 76 -113 152
-8 369 213 444 80 28 256 25 370 -5 264 -70 507 -245 596 -429 l22 -46 13 44
c20 69 18 261 -5 347 -46 182 -180 309 -368 347 -94 20 -273 20 -381 0z"/>
<path d="M4796 2840 c-212 -38 -415 -179 -501 -350 l-24 -47 97 -94 c53 -52
123 -118 154 -148 l57 -54 33 29 34 29 -23 45 c-44 86 -50 187 -17 291 39 122
154 200 295 201 206 0 338 -198 248 -375 -31 -60 -113 -135 -324 -297 -270
-208 -389 -339 -477 -526 -47 -102 -75 -205 -84 -318 l-7 -86 577 0 576 0 0
235 0 235 -28 0 c-26 0 -29 -4 -40 -57 -38 -185 -199 -303 -413 -303 -120 0
-196 35 -239 112 -30 54 -26 170 10 243 33 67 160 193 294 291 356 259 433
366 406 563 -25 190 -141 316 -333 365 -74 19 -209 27 -271 16z"/>
<path d="M5925 2827 c-53 -21 -74 -37 -90 -67 -22 -42 -19 -54 18 -72 65 -31
90 -130 63 -239 -42 -166 -169 -365 -389 -611 -67 -75 -68 -77 -52 -101 l16
-25 77 40 c129 65 226 77 367 46 48 -10 286 -110 314 -132 11 -9 13 -43 8
-186 -6 -188 -22 -273 -57 -302 -43 -35 -27 -38 200 -38 213 0 247 5 201 30
-11 5 -29 35 -40 65 -18 48 -21 78 -21 224 l0 168 41 7 c86 14 176 79 204 149
49 121 -11 245 -129 264 l-36 6 0 -41 c0 -32 -7 -49 -31 -77 -17 -19 -35 -35
-40 -35 -5 0 -9 163 -9 380 0 209 -4 380 -9 380 -4 0 -18 -26 -29 -57 -36 -98
-114 -224 -179 -291 l-63 -64 0 -174 c0 -96 -2 -174 -4 -174 -2 0 -48 12 -103
26 -114 31 -262 35 -352 10 -66 -18 -62 -15 64 59 309 181 436 352 423 572
-10 167 -115 274 -267 272 -37 0 -79 -6 -96 -12z"/>
<path d="M3664 2107 c-47 -72 -111 -117 -178 -124 l-44 -5 41 -32 c55 -42 88
-108 95 -191 l5 -66 29 51 c34 61 105 115 171 131 l48 11 -35 24 c-50 34 -89
121 -90 201 -1 35 -1 63 -1 62 0 0 -18 -28 -41 -62z"/>
</g>
</svg>
