<?xml version="1.0" encoding="UTF-8" standalone="no"?>
<svg
   xmlns:dc="http://purl.org/dc/elements/1.1/"
   xmlns:cc="http://creativecommons.org/ns#"
   xmlns:rdf="http://www.w3.org/1999/02/22-rdf-syntax-ns#"
   xmlns:svg="http://www.w3.org/2000/svg"
   xmlns="http://www.w3.org/2000/svg"
   xmlns:sodipodi="http://sodipodi.sourceforge.net/DTD/sodipodi-0.dtd"
   xmlns:inkscape="http://www.inkscape.org/namespaces/inkscape"
   id="Layer_1"
   data-name="Layer 1"
   viewBox="0 0 400 99.984514"
   version="1.1"
   sodipodi:docname="small-banner.svg"
   width="400"
   height="99.984512"
   inkscape:version="0.92.4 (unknown)">
  <metadata
     id="metadata34">
    <rdf:RDF>
      <cc:Work
         rdf:about="">
        <dc:format>image/svg+xml</dc:format>
        <dc:type
           rdf:resource="http://purl.org/dc/dcmitype/StillImage" />
        <dc:title></dc:title>
      </cc:Work>
    </rdf:RDF>
  </metadata>
  <sodipodi:namedview
     pagecolor="#ffffff"
     bordercolor="#666666"
     borderopacity="1"
     objecttolerance="10"
     gridtolerance="10"
     guidetolerance="10"
     inkscape:pageopacity="0"
     inkscape:pageshadow="2"
     inkscape:window-width="1920"
     inkscape:window-height="1009"
     id="namedview32"
     showgrid="false"
     fit-margin-top="0"
     fit-margin-left="0"
     fit-margin-right="0"
     fit-margin-bottom="0"
     inkscape:zoom="2.288651"
     inkscape:cx="202.51773"
     inkscape:cy="46.073969"
     inkscape:window-x="0"
     inkscape:window-y="34"
     inkscape:window-maximized="1"
     inkscape:current-layer="Layer_1" />
  <defs
     id="defs4">
    <style
       id="style2">.cls-1{fill:#fff;}.cls-2{fill:#e43d33;}</style>
  </defs>
  <path
     class="cls-1"
     d="m 354.89357,33.321782 c 0.33733,4.28681 -0.28316,8.48497 -1.14496,12.66344 -0.71405,3.44717 -1.35917,6.9362 -2.93748,10.12976 -1.80238,3.63923 -3.63431,7.21937 -6.15567,10.46956 -2.55829,3.28712 -5.86758,5.29141 -9.42555,6.96575 a 28.776509,28.776509 0 0 1 -11.15161,2.61 c -3.20094,0.12312 -6.4339,-0.19944 -9.61515,-0.62541 -7.63303,-1.01938 -13.9315,-4.73494 -19.42236,-10.13469 -3.07044,-3.01874 -5.61643,-6.35019 -7.10856,-10.408 -1.09079,-2.95472 -1.96981,-6.0104 -2.08554,-9.2335 -0.1699,-4.43208 -0.45552,-8.86416 -0.68451,-13.29624 -0.16743,-3.25512 -0.45552,-6.51516 -0.43582,-9.77028 0.0148,-2.25297 0.13788,-4.48871 -0.0148,-6.75645 -0.15758,-2.33177 -0.20436,-4.67831 0.31271,-7.0445499 0.33487,-1.53399 -0.0714,-3.24034 -0.16251,-4.8679 -0.0419,-0.72144 -0.21668,-1.44535 -0.16743,-2.15695 0.0591,-0.90365004 0.6328,-1.63002004 1.50444,-1.67926004 2.55337,-0.14528 5.11659,-0.22407 7.67489,-0.1699 1.0243,0.0222 1.50444,0.93813 1.52414,1.93288004 0.0517,2.44011 0.32748,4.92453 0,7.31293 -0.52692,3.7254099 -0.46537,7.4434299 -0.35949,11.1565299 0.11819,4.15631 0.60572,8.30277 0.82486,12.45907 0.13296,2.5386 -0.0788,5.10182 0.12804,7.63303 0.2216,2.70849 0.5417,5.44161 1.19666,8.06885 1.12525,4.51579 4.00364,7.93342 7.65272,10.54342 a 33.425268,33.425268 0 0 0 7.10118,3.75249 c 5.22985,2.08062 10.64192,1.9255 16.06875,0.78054 3.3413,-0.70421 6.3428,-2.26528 8.61793,-4.71031 1.72359,-1.85655 2.91533,-4.30404 4.06767,-6.62842 1.33701,-2.7085 1.75067,-5.7297 1.95504,-8.70658 0.39889,-5.86019 0.60079,-11.7327 0.82978,-17.60274 0.0443,-1.16465 -0.24622,-2.33916 -0.21175,-3.50381 0.0492,-1.78022 1.6965,-3.03597 3.44717,-2.84884 1.67188,0.17975 3.35607,0.31517 5.0378,0.34718 2.00428,0.0369 2.51643,0.36934 2.72819,2.42533 0.21175,2.05599 0.33241,4.16616 0.42105,6.2517 0.0443,1.54876 -0.01,3.10738 -0.01,4.64137 z"
     id="path6"
     inkscape:connector-curvature="0"
     style="fill:#000000;stroke-width:0.24622665" />
  <path
     class="cls-1"
     d="m 377.53411,75.901752 c -2.13725,-0.31763 -4.88514,-0.71405 -7.63303,-1.14495 -1.64725,-0.24623 -3.27974,-0.62542 -4.92453,-0.83471 -2.18649,-0.27577 -4.32374,-2.10524 -3.75988,-4.84081 0.24622,-1.1425 0.0468,-2.38102 0.21422,-3.54813 0.29547,-2.02152 1.69157,-3.10246 3.58259,-2.70849 1.89102,0.39396 3.76727,0.99721 5.66322,1.44535 5.44653,1.28776 10.83397,0.82978 16.19925,-0.63034 1.20897,-0.32995 1.9181,-1.13018 2.33423,-2.28991 1.21636,-3.38069 0.11819,-6.70475 -2.67895,-7.6675 -2.02152,-0.69682 -3.97902,-1.60047 -5.96115,-2.42287 -2.33423,-0.96767 -4.66353,-1.94765 -6.99776,-2.92271 -0.4309,-0.17974 -0.84702,-0.44567 -1.29515,-0.53185 -3.90023,-0.76084 -6.55455,-3.60476 -9.04391,-6.48315 -1.95011,-2.2579 -3.01627,-5.01071 -3.1123,-8.32 -0.0788,-2.77005 0.62542,-5.24216 1.31977,-7.75367 0.26347,-0.95536 1.1942,-1.72359 1.84917,-2.5386 3.6934,-4.65368 8.50959,-6.34034 14.10386,-6.09165 1.64479,0.0739 3.30682,-0.39396 4.95162,-0.32994 2.40317,0.096 4.79895,0.44567 7.19474,0.68697 a 12.276861,12.276861 0 0 0 1.36656,0.13296 c 1.92795,-0.0271 2.871,0.68944 3.30928,2.63709 0.261,1.14988 0.44814,2.31699 0.65743,3.47672 0.49245,2.72327 -1.07847,4.83097 -3.74018,4.85805 -1.19174,0.0123 -2.38348,-0.26346 -3.57768,-0.41119 -2.83899,-0.35457 -5.66321,-0.89873 -8.51698,-1.01692 -3.24773,-0.13543 -5.98823,1.2139 -7.80046,4.23756 -0.93812,1.566 -0.87164,2.61 0.21422,4.06274 a 11.25502,11.25502 0 0 0 5.66321,4.10952 c 5.07966,1.62756 9.91309,3.87807 14.62094,6.46099 a 15.628006,15.628006 0 0 1 7.02239,7.80046 c 1.43057,3.52104 1.80976,7.55177 0.14281,11.2501 -2.60754,5.79125 -6.70229,9.66193 -12.93921,10.408 -2.59031,0.30778 -5.17815,0.56632 -8.42834,0.92088 z"
     id="path8"
     inkscape:connector-curvature="0"
     style="fill:#000000;stroke-width:0.24622665" />
  <path
     class="cls-1"
     d="m 197.1386,72.949502 c -0.096,2.01413 -0.47768,2.49181 -2.31945,2.50166 -2.61247,0.0148 -6.0104,0.59094 -6.20738,-1.63741 -0.66974,-7.66503 0.57125,-15.35962 -0.57371,-23.08867 -0.38411,-2.58784 -2.1077,-5.84542 -5.4613,-6.61119 -2.56322,-0.58602 -5.50809,-0.096 -6.2517,0.38412 -1.72359,1.11787 -2.39332,1.47736 -3.71063,3.25511 -0.20683,0.25854 -0.47768,0.78793 -0.57617,0.76823 -2.56322,3.78697 -1.53153,12.6462 -1.54385,15.69203 0,1.35178 0.29794,6.72691 0.17729,9.40093 -0.069,1.53892 -0.71898,1.63494 -1.50691,1.63494 -2.48689,0 -5.58934,0.53924 -7.95312,0.096 -1.53153,-0.28808 -1.15234,-7.08886 -1.23113,-9.38862 -0.19206,-4.78911 0,-9.58068 -0.12804,-13.01554 -0.17236,-4.59705 -0.44813,-8.7312 -0.54416,-13.52277 -0.0296,-1.53399 -0.76577,-5.84296 0.38411,-6.13104 2.09539,-0.52447 5.55734,-0.19206 7.08887,0.28808 1.07108,0.33487 0.76576,2.01167 0.91596,4.43208 -0.0689,-1.12033 1.28776,-3.28466 2.82176,-4.43208 3.3536,-2.52628 6.78847,-3.16155 10.62221,-2.77251 7.01008,0.69928 11.57266,3.26004 13.508,7.66257 4.11937,9.3837 2.58538,28.64109 2.48935,34.48405 z"
     id="path10"
     inkscape:connector-curvature="0"
     style="fill:#000000;stroke-width:0.24622665" />
  <g
     id="SSUW0y"
     transform="matrix(0.24622665,0,0,0.24622665,-63.901049,-23.859438)"
     style="fill:#000000">
    <path
       class="cls-1"
       d="m 741.55,322.85 c -2.84,-38.77 16.94,-73.33 51.29,-90.38 50.91,-30.08 101,29.77 104.93,78.41 12.1,118.88 -145.4,128.93 -156.22,11.97 z m 77.55,-55 c -52,0.68 -38.38,111.45 13.84,96.1 35.4,-19.46 32.53,-91.25 -13.84,-96.06 z"
       id="path12"
       inkscape:connector-curvature="0"
       style="fill:#000000" />
  </g>
  <path
     class="cls-1"
     d="m 1.2652976,39.950202 c -0.231453,-3.44717 -0.41612306,-6.89435 -0.60325532,-10.34152 -0.0393963,-0.73868 -0.13296239,-1.51675 0,-2.2382 0.52200052,-2.86362 -0.22406625,-5.66321 -0.36195318,-8.48497 Q 0.08094737,14.416502 0.00707937,9.9425621 a 8.5095932,8.5095932 0 0 1 0.34225506,-2.7602 c 0.89134047,-2.7085 2.23573817,-4.84082 5.58688287,-4.97624 3.232956,-0.1305 6.3895817,-0.94305 9.7136417,-0.58356 2.740502,0.29793 5.567184,-0.13296 8.352008,-0.30778 2.496738,-0.15513 4.986089,-0.53185004 7.480365,-0.56140004 1.942728,-0.0197 3.892844,0.31025004 5.83311,0.54416004 6.554553,0.78793 12.311332,3.39547 17.386064,7.59117 a 8.2239702,8.2239702 0 0 1 2.627238,3.8780699 c 1.154803,3.54074 2.558295,7.05439 2.610003,10.80935 a 22.347531,22.347531 0 0 1 -0.935662,6.5841 c -1.605398,5.41699 -5.564722,8.6918 -10.67885,10.64684 -1.280378,0.49245 -2.708493,0.62049 -4.104598,0.76576 -2.58538,0.27332 -5.17076,0.42598 -7.770913,0.64512 -1.393643,0.11819 -2.779899,0.33487 -4.185853,0.39396 -2.496739,0.10834 -5.000864,0.0911 -7.500064,0.19944 -2.68387,0.11573 -5.288948,0.16744 -8.058998,0.12558 -0.364416,0 -0.73868,-0.0468 -1.117869,-0.0345 -2.198804,0.0665 -2.427795,0.2216 -2.489352,2.38593 -0.09849,3.35854 -0.09849,6.71953 -0.135424,10.08052 0,0.93074 0,1.86394 0,2.79714 h 0.115726 q 0,6.02024 0,12.03802 c 0,0.6525 -0.04925,1.305 -0.103415,1.95504 a 2.0707662,2.0707662 0 0 1 -1.681728,1.98459 c -2.7478894,0.64511 -5.5277883,0.34964 -8.2855268,0.0911 -1.1006333,-0.10342 -1.652181,-1.27299 -1.6078602,-2.53121 0.046783,-1.3641 -0.027085,-2.73312 -0.059094,-4.10214 0,-0.27823 -0.1083397,-0.55401 -0.1009529,-0.82978 0.078793,-3.50873 0.2240662,-7.01746 0.2462266,-10.52619 0,-2.03629 -0.2806984,-4.07751 -0.2757738,-6.11381 z M 12.008167,13.722142 c -0.0911,0.9849 -0.246227,1.72358 -0.206831,2.43518 0.179746,4.07259 0.366878,8.1501 0.622954,12.22023 0.120651,1.94519 0.334868,2.13232 2.417945,2.17664 2.03137,0.0419 4.067665,-0.1108 6.099035,-0.0788 7.275997,0.1108 14.527372,-0.0542 21.744275,-1.15973 2.728191,-0.41612 4.294193,-1.79499 4.744788,-4.47886 0.36934,-2.19142 -0.167435,-4.23018 -0.790388,-6.27386 -0.659887,-2.16187 -2.129861,-3.38808 -4.326202,-3.86822 -4.003646,-0.8741 -8.022065,-1.60047 -12.143899,-1.49706 -3.629381,0.0911 -7.258761,0.22161 -10.890604,0.32749 -2.383474,0.0714 -4.766948,0.1305 -7.271073,0.19698 z"
     id="path15"
     inkscape:connector-curvature="0"
     style="fill:#000000;stroke-width:0.24622665" />
  <path
     class="cls-1"
     d="m 77.634956,68.377072 c -0.05909,-1.47736 -0.1305,-3.08768 -0.167434,-4.56997 -0.08372,-3.4127 -0.297934,-6.82294 -0.430897,-10.23564 -0.06156,-1.566 -0.02216,-3.13693 -0.08372,-4.70293 q -0.187132,-4.73986 -0.440745,-9.47726 c -0.118189,-2.12002 -0.317633,-4.2351 -0.448133,-6.35511 -0.08618,-1.39611 -0.115726,-2.79714 -0.167434,-4.18586 -0.0394,-1.07601 -0.465368,-1.66203 -1.659568,-1.80238 -1.659567,-0.19205 -3.284663,-0.66235 -4.924533,-0.92827 -2.750351,-0.44075 -4.311428,0.9529 -4.185853,3.72541 q 0.283161,5.83311 0.652501,11.65883 c 0.120651,1.94765 0.361953,3.88546 0.492453,5.83065 0.209293,3.44717 0.381651,6.90912 -0.546623,10.29473 -0.430897,1.57093 -1.248369,2.91779 -2.799597,3.6417 -4.272033,1.99197 -8.487433,1.72358 -12.589569,-0.4703 a 6.2516947,6.2516947 0 0 1 -2.942408,-3.26742 c -0.952898,-2.34654 -1.915644,-4.65861 -1.723587,-7.276 a 7.2045919,7.2045919 0 0 0 -0.147736,-1.94765 c -0.312708,-1.56108 -0.851944,-2.00429 -2.445031,-2.07816 -1.593086,-0.0739 -3.173861,-0.1305 -4.759561,-0.15512 -2.378549,-0.0394 -2.678946,0.16251 -2.826682,2.38101 -0.278236,4.15138 0.984907,8.09101 1.831926,12.08234 a 3.058135,3.058135 0 0 0 0.396425,0.73868 c 0.758378,1.39118 1.47736,2.81191 2.289908,4.16123 a 24.238552,24.238552 0 0 0 1.991974,2.6888 c 2.088002,2.55337 4.995939,3.85591 8.004828,4.82358 2.011672,0.65004 4.210476,1.23113 6.276318,1.09571 3.306824,-0.21422 6.677667,-0.6328 9.804745,-2.61739 0.246227,1.95011 0.864256,3.57275 0.492453,5.3702 -1.211435,5.67553 -5.643514,10.14208 -11.060501,11.37321 -3.343758,0.75592 -6.613648,0.65496 -9.982028,0.0985 -7.047007,-1.16711 -12.257163,-4.56504 -15.133091,-11.3018 -0.753453,-1.76791 -2.671559,-3.24034 -5.352967,-1.72359 -0.972595,0.55401 -1.927954,1.15234 -2.954719,1.6054 -2.326842,1.03169 -2.819296,2.28991 -1.615247,4.55765 a 30.216935,30.216935 0 0 0 1.723586,2.86855 c 1.674342,2.46226 2.893163,5.17076 5.052571,7.35479 2.856229,2.87839 6.522544,4.23263 10.006651,5.96114 2.95472,1.46259 6.229534,2.07077 9.381236,2.29237 6.689978,0.472758 13.205135,-0.73868 19.050556,-4.28188 2.462266,-1.49213 5.074731,-2.9104 6.751535,-5.3505 1.937803,-2.8193 3.102455,-6.06457 3.939626,-9.32953 0,0.007 1.487209,-6.58903 1.248369,-12.54771 z"
     id="path17"
     inkscape:connector-curvature="0"
     style="fill:#000000;stroke-width:0.24622665" />
  <path
     class="cls-1"
     d="m 123.77044,83.364882 c 0,0 2.43519,-0.0172 2.74789,-1.72358 0.31271,-1.70635 -1.89594,-5.2594 -3.08768,-7.44097 -0.55893,-1.02184 -1.75559,-1.35671 -2.76759,-1.44289 -2.97688,0.21176 -5.97345,0 -8.94541,-0.22899 a 16.669544,16.669544 0 0 1 -7.29077,-2.40317 c -4.45178,-2.80206 -7.610867,-6.89435 -9.602841,-11.80411 -1.676804,-4.12429 -1.588162,-8.4702 -1.676804,-12.24485 -0.04924,-1.90826 0.06156,-3.48903 0.137887,-4.74725 a 35.370459,35.370459 0 0 1 1.253294,-7.75368 c 0.918425,-3.41024 3.08522,-7.20459 4.742325,-9.92786 1.477359,-2.46226 3.412699,-4.46901 5.746929,-5.81587 6.74907,-3.90023 13.80593,-4.95654 20.97359,-0.9332 1.90825,1.07109 3.88299,2.11755 5.5401,3.51858 1.95257,1.65218 3.44717,1.82454 5.17076,-0.032 0.49245,-0.52939 0.8938,-1.14988 1.42073,-1.64233 1.70142,-1.59801 1.96981,-3.6934 0.31517,-5.22247 -3.47426,-3.24527 -6.6235,-6.8943399 -11.36829,-8.5465299 -3.64169,-1.2656 -7.30308,-2.06091 -11.11467,-1.47736 -3.17879,0.49246 -6.37973,1.05385 -9.44279,2.00429 -2.87593,0.8938 -5.89221,1.90826 -8.283067,3.64169 -2.848843,2.0683099 -5.714921,4.3409799 -7.699508,7.3867999 -0.844557,1.30254 -1.637407,2.64448 -2.385936,3.99872 -2.351465,4.24495 -4.621674,9.16456 -5.335732,12.95152 a 3.4471732,3.4471732 0 0 0 -0.219141,1.07601 c -0.47768,4.34591 -0.810086,8.6598 -0.453058,13.07464 0.157586,1.93042 0.246227,2.96949 0.411199,4.92453 0.408736,5.88974 1.996898,11.30181 4.501023,16.53905 0.03693,0.0812 0.123114,0.13788 0.169897,0.21914 2.437643,4.31143 6.357572,7.10856 10.292274,9.83183 a 19.1195,19.1195 0 0 0 5.436689,2.67648 c 5.17075,1.47736 10.5188,1.87379 15.85453,1.88117 0.56878,0 1.1351,-0.0123 1.70143,-0.0394 z"
     id="path19"
     inkscape:connector-curvature="0"
     style="fill:#000000;stroke-width:0.24622665" />
  <path
     class="cls-2"
     d="m 262.34928,22.204652 c 1.94765,-0.32995 3.96425,0.47275 5.74201,1.61524 a 7.8964888,7.8964888 0 0 1 3.56043,5.68045 c 0.32256,2.2382 0.71406,4.55273 0.43582,6.76139 -0.32748,2.58045 -0.81747,5.29879 -2.72819,7.3868 -1.39364,1.51921 -3.34376,2.1397 -5.3899,2.67894 -2.99904,0.79039 -5.72723,0.20929 -8.41603,-0.91842 -2.0486,-0.85934 -3.14185,-2.57307 -3.68108,-4.50349 -0.79039,-2.82668 -0.63034,-5.72477 -0.33733,-8.61793 0.22406,-2.19881 0.69189,-4.22279 2.05845,-6.11135 1.77776,-2.46226 4.17354,-3.64908 7.18243,-3.95686 0.40135,-0.0517 0.81994,-0.0148 1.57339,-0.0148 z m -4.53057,12.27193 c 0,0.70421 -0.0172,1.40842 0,2.11016 0.0517,1.67188 0.77315,2.59277 2.40563,3.11231 1.23114,0.39396 3.74265,-0.11326 4.29173,-1.09325 1.45274,-2.60015 2.38102,-5.2791 0.95044,-8.24367 -0.68944,-1.42811 -1.63495,-2.29975 -3.3216,-2.39578 -1.76052,-0.0985 -2.64447,0.96521 -3.50627,2.18649 -0.96767,1.35671 -0.68697,2.86608 -0.82732,4.32374 z"
     id="path21"
     inkscape:connector-curvature="0"
     style="fill:#e43d33;stroke-width:0.24622665" />
  <path
     class="cls-2"
     d="m 235.97347,69.147762 c 0.93812,0.0271 1.59308,0.0763 2.24312,0.0566 2.19881,-0.0665 4.39515,-0.18959 6.59149,-0.21668 a 5.1510616,5.1510616 0 0 1 1.89842,0.3915 c 0.31271,0.12311 0.69928,0.5614 0.68697,0.84456 a 13.690202,13.690202 0 0 1 -0.39642,3.18863 c -0.38165,1.35425 -1.5734,1.83685 -3.30684,1.86394 -3.52596,0.0591 -7.04947,0.24623 -10.58774,0.35457 -1.57093,0.0419 -3.14678,0.0468 -4.71278,-0.0517 -1.305,-0.0813 -1.59555,-0.39889 -1.6448,-1.61279 -0.0763,-1.93041 -0.51707,-3.96425 1.17204,-5.54502 0.81994,-0.76823 1.75314,-1.42319 2.61739,-2.14956 2.02645,-1.69896 4.12922,-3.32898 6.02517,-5.15106 0.89872,-0.86179 1.5266,-2.04861 2.03875,-3.18617 0.64758,-1.43304 -0.24622,-2.60016 -1.89102,-2.81438 a 3.7918905,3.7918905 0 0 0 -3.37084,1.11541 c -0.49245,0.51708 -0.89626,1.12033 -1.37394,1.65957 -1.31978,1.47736 -2.09539,1.57831 -3.75496,0.49245 -0.13543,-0.0886 -0.26346,-0.18959 -0.40135,-0.27823 -2.18895,-1.39365 -2.19142,-1.47736 -0.62788,-3.57029 3.88792,-5.20277 10.56805,-5.8011 15.43595,-3.25512 2.08062,1.08833 3.48657,4.03812 2.99904,6.21969 -0.58356,2.6297 -2.21604,4.72755 -4.02088,6.64812 -1.62263,1.73343 -3.56536,3.19848 -5.61889,4.99594 z"
     id="path23"
     inkscape:connector-curvature="0"
     style="fill:#e43d33;stroke-width:0.24622665" />
  <path
     class="cls-2"
     d="m 234.13662,41.050832 c 1.20651,0 1.85655,0 2.50658,-0.0172 2.36871,-0.0345 4.73741,-0.10588 7.10611,-0.0911 a 4.9072972,4.9072972 0 0 1 1.88117,0.45306 1.154803,1.154803 0 0 1 0.57863,0.91104 19.944359,19.944359 0 0 1 -0.51708,2.98673 c -0.27823,1.12279 -1.35917,1.67926 -2.91039,1.68419 -3.76727,0.0123 -7.53454,0.0763 -11.30181,0.0763 -1.47736,0 -2.97688,-0.10588 -4.46409,-0.18713 -0.70667,-0.0394 -1.36902,-0.24623 -1.35424,-1.06616 0.0246,-1.33209 -0.12312,-2.73804 0.28562,-3.96918 0.34718,-1.044 1.24837,-2.01659 2.13478,-2.78236 a 53.212042,53.212042 0 0 1 5.38991,-4.11198 c 1.68665,-1.11541 3.38561,-2.52629 4.56996,-4.0135 0.33487,-0.42105 0.40628,-1.23113 0.51462,-1.75067 0.24622,-1.23113 -0.9726,-2.05107 -2.27021,-2.30468 -1.78761,-0.34718 -3.50627,0.50723 -4.43208,1.4552 -0.39397,0.40135 -0.66974,0.90365 -1.06617,1.29761 -1.23113,1.23114 -1.94026,1.26561 -3.40039,0.26593 -0.0665,-0.0443 -0.12065,-0.10834 -0.18713,-0.15513 -2.23574,-1.53891 -2.25297,-1.75067 -0.62049,-3.77219 4.03073,-4.98363 10.58775,-5.35543 15.34485,-2.68879 2.03629,1.14249 2.77743,2.8907 2.87346,5.29879 -0.1108,1.3444 -0.52939,3.2305 -1.32716,4.37545 -2.01906,2.89317 -4.92453,5.10921 -8.12548,7.14058 -0.26346,0.16251 -0.48999,0.38411 -1.20897,0.9652 z"
     id="path25"
     inkscape:connector-curvature="0"
     style="fill:#e43d33;stroke-width:0.24622665" />
  <path
     class="cls-2"
     d="m 262.01195,59.118952 c -0.24623,-0.0566 -0.34964,-0.11327 -0.40381,-0.0862 -2.54352,1.29022 -3.63923,1.044 -5.24463,-1.17943 -0.77808,-1.07847 -0.83963,-1.47736 0.38411,-2.28006 2.08554,-1.35917 4.29912,-2.55583 6.48808,-3.77465 a 27.252366,27.252366 0 0 1 3.49641,-1.6965 c 1.47736,-0.56633 2.46227,-0.0887 2.6494,1.39364 0.18714,1.48228 0.0763,2.98427 0.11819,4.4764 0.0394,1.42811 0.17482,2.85377 0.1502,4.27942 -0.0296,1.72359 -0.0813,3.51119 -0.10095,5.22739 0,0.47029 0.0197,1.85901 0.0591,2.4278 0.14774,2.11262 -0.064,3.23295 -0.12311,5.19538 -0.0517,1.68911 -0.42597,2.01413 -2.17911,2.05353 -1.23113,0.0295 -2.48196,0 -3.72294,-0.032 -0.90858,-0.0197 -1.33209,-0.49245 -1.33702,-1.30993 q -0.0369,-4.05289 -0.0788,-8.10085 c 0,-0.30286 -0.0763,-0.60326 -0.0886,-0.90858 -0.0616,-1.56846 0.0394,-3.05321 0.0886,-4.72509 a 5.0771936,5.0771936 0 0 0 -0.15512,-0.96028 z"
     id="path27"
     inkscape:connector-curvature="0"
     style="fill:#e43d33;stroke-width:0.24622665" />
  <path
     class="cls-2"
     d="m 274.1066,11.178622 c -0.11819,-1.3468599 -0.21421,-2.7084999 -0.36441,-4.0405799 -0.0689,-0.62788 -0.29794,-0.98491 -1.16219,-0.94551 -1.305,0.0788 -20.08964,-0.10588 -21.40695,-0.14528 -0.62788,-0.0172 -1.26068,0.0714 -1.89102,0.10588 -2.38101,0.1305 -4.76203,0.24623 -7.14058,0.38658 -2.17665,0.12311 -4.22525,-0.0222 -6.4019,0.0492 -1.00953,0.032 -2.14956,0.16251 -3.16647,0.10834 -1.16958,-0.064 -2.34162,-0.1108 -3.51366,-0.11326 -2.43518,0 -4.87282,0.0665 -7.30554,0 -2.20373,-0.0492 -4.26957,0.24622 -6.4733,0.15758 -2.08554,-0.0862 -4.37791,-0.21668 -6.46345,-0.20929 -1.33947,0 -2.39578,0.49245 -2.46227,1.77037 -0.096,1.8417699 -0.0542,3.7303299 -0.0813,5.5721099 -0.0197,1.32962 0.12557,2.66417 0.20683,3.99626 0.064,1.00953 0.18221,2.01413 0.20437,3.02366 0.0468,2.21604 -0.0345,4.41977 0.0862,6.6235 0.14035,2.50166 0.57124,4.99101 0.64757,7.49267 0.0985,3.28959 0.49246,6.50531 0.40135,9.73581 0.21176,1.14003 0.10096,28.59922 0.20437,29.76141 0.11819,1.33701 0.63527,0.92089 3.23788,1.26561 1.84424,0.0345 3.83375,-0.0714 5.66321,-0.12312 0.38904,0 0.59341,-0.65988 0.63773,-1.15234 -0.15758,-2.30714 -0.24623,-29.74418 -0.36195,-31.8371 -0.11819,-2.33916 -0.10588,-4.28435 -0.38904,-6.61365 -0.35457,-2.92025 -0.32256,-5.7814 -0.59833,-8.70904 -0.24623,-2.6494 -0.32748,-5.31603 -0.49245,-7.97036 -0.069,-0.9849 -0.24623,-1.98458 -0.29794,-2.9818 -0.0296,-0.5811 0.49245,-0.78793 1.05139,-0.57125 0.28316,0.10588 0.63773,0.0394 0.95782,0.0443 0.73868,0 1.46013,0.0394 2.18649,0.0172 1.69158,-0.0492 3.3807,-0.12804 5.07227,-0.18959 1.53646,-0.0542 3.07537,-0.0616 4.6069,-0.16005 3.9544,-0.24623 8.00237,-0.0665 11.95677,-0.28809 1.47736,-0.0837 2.95472,0.22161 4.43208,0.24623 1.68913,0.032 3.37824,0.0246 5.06489,0.10095 0.91104,0.0419 20.62887,-0.31024 21.51283,-0.10095 1.98458,0.15266 1.58816,-0.77069 1.66941,-1.61525 0.064,-0.9135 0.0862,-1.7679 0.17236,-2.69125 z"
     id="path29"
     inkscape:connector-curvature="0"
     style="fill:#e43d33;stroke-width:0.24622665" />
</svg>
