<?xml version="1.0" encoding="UTF-8" standalone="no"?>
<svg
   xmlns:dc="http://purl.org/dc/elements/1.1/"
   xmlns:cc="http://creativecommons.org/ns#"
   xmlns:rdf="http://www.w3.org/1999/02/22-rdf-syntax-ns#"
   xmlns:svg="http://www.w3.org/2000/svg"
   xmlns="http://www.w3.org/2000/svg"
   xmlns:sodipodi="http://sodipodi.sourceforge.net/DTD/sodipodi-0.dtd"
   xmlns:inkscape="http://www.inkscape.org/namespaces/inkscape"
   viewBox="0 0 181.50676 149.60104"
   version="1.1"
   id="svg214"
   sodipodi:docname="square-logo.svg"
   width="181.50676"
   height="149.60104"
   inkscape:version="0.92.4 (unknown)">
  <metadata
     id="metadata218">
    <rdf:RDF>
      <cc:Work
         rdf:about="">
        <dc:format>image/svg+xml</dc:format>
        <dc:type
           rdf:resource="http://purl.org/dc/dcmitype/StillImage" />
        <dc:title></dc:title>
      </cc:Work>
    </rdf:RDF>
  </metadata>
  <sodipodi:namedview
     pagecolor="#ffffff"
     bordercolor="#666666"
     borderopacity="1"
     objecttolerance="10"
     gridtolerance="10"
     guidetolerance="10"
     inkscape:pageopacity="0"
     inkscape:pageshadow="2"
     inkscape:window-width="1920"
     inkscape:window-height="1009"
     id="namedview216"
     showgrid="false"
     fit-margin-top="0"
     fit-margin-left="0"
     fit-margin-right="0"
     fit-margin-bottom="0"
     inkscape:zoom="1.118297"
     inkscape:cx="-193.19961"
     inkscape:cy="-14.818805"
     inkscape:window-x="0"
     inkscape:window-y="34"
     inkscape:window-maximized="1"
     inkscape:current-layer="Layer_1" />
  <defs
     id="defs162">
    <style
       id="style160">.cls-1{isolation:isolate;}.cls-2{fill:none;stroke:#640e3d;stroke-miterlimit:10;stroke-width:3px;}.cls-3{fill:#e43d33;}.cls-4{opacity:0.8;mix-blend-mode:multiply;}.cls-5{fill:#fff;}.cls-6{fill:#1a1a1a;}.cls-7{fill:#231f20;}.cls-8{fill:#e43e33;}</style>
  </defs>
  <g
     style="isolation:isolate"
     data-name="Layer 1"
     id="Layer_1"
     transform="translate(-449.80179,-24.48)">
    <path
       class="cls-7"
       d="m 497.15,161.06 c 0,0 0.12,-0.11 0.11,-0.16 0,-0.27 -0.22,-0.16 -0.36,-0.17 0,0.18 0.05,0.31 0.25,0.33 z"
       id="path182"
       inkscape:connector-curvature="0"
       style="fill:#000000" />
    <polygon
       class="cls-7"
       points="496.9,160.71 496.89,160.72 496.9,160.73 "
       id="polygon184"
       style="fill:#000000" />
    <path
       class="cls-5"
       d="m 631,90.23 c -0.09,1.83 -0.44,2.27 -2.11,2.28 -2.38,0 -5.48,0.53 -5.66,-1.5 -0.61,-7 0.52,-14 -0.52,-21 -0.35,-2.36 -1.92,-5.32 -5,-6 a 7.9,7.9 0 0 0 -9.08,3.31 c -0.19,0.24 -0.43,0.72 -0.52,0.7 -2.34,3.46 -1.4,11.53 -1.41,14.3 0,1.24 0.27,6.13 0.16,8.57 -0.06,1.4 -0.65,1.49 -1.37,1.49 -2.27,0 -5.1,0.49 -7.25,0.09 -1.39,-0.26 -1.05,-6.46 -1.13,-8.56 -0.18,-4.36 0,-8.73 -0.12,-11.86 -0.16,-4.19 -0.41,-8 -0.49,-12.32 0,-1.4 -0.7,-5.33 0.35,-5.59 a 15.12,15.12 0 0 1 6.46,0.26 c 1,0.31 0.69,1.84 0.83,4 -0.06,-1 1.17,-3 2.57,-4 a 13,13 0 0 1 9.69,-2.53 c 6.39,0.64 10.55,3 12.31,7 3.76,8.55 2.36,26.1 2.27,31.43 z"
       id="path186"
       inkscape:connector-curvature="0"
       style="fill:#000000" />
    <path
       class="cls-5"
       d="m 576.86,62.11 c -11.67,0.16 -8.61,25 3.11,21.57 7.94,-4.38 7.3,-20.49 -3.11,-21.57 z m -17.4,12.34 A 20.56,20.56 0 0 1 571,54.17 c 11.42,-6.75 22.66,6.68 23.54,17.59 2.72,26.68 -32.62,28.93 -35,2.69 z"
       id="path188"
       inkscape:connector-curvature="0"
       style="fill:#000000" />
    <path
       class="cls-5"
       d="m 462.24,36.25 a 18.52,18.52 0 0 0 -0.18,2.22 c 0.16,3.71 0.33,7.43 0.56,11.14 0.11,1.77 0.31,1.94 2.21,2 1.9,0.06 3.7,-0.1 5.55,-0.07 a 118.34,118.34 0 0 0 19.82,-1.06 c 2.49,-0.38 3.91,-1.63 4.32,-4.08 a 12.23,12.23 0 0 0 -0.72,-5.72 4.88,4.88 0 0 0 -3.94,-3.52 46.42,46.42 0 0 0 -11.07,-1.37 c -3.3,0.09 -6.61,0.21 -9.92,0.3 -2.17,0.07 -4.34,0.12 -6.63,0.18 z m -9.15,23.9 a 44.48,44.48 0 0 1 -1.18,-9.41 8.71,8.71 0 0 1 0,-2 c 0.48,-2.61 -0.2,-5.16 -0.33,-7.73 -0.13,-2.57 -0.22,-5.44 -0.26,-8.15 a 7.62,7.62 0 0 1 0.31,-2.52 c 0.81,-2.46 2,-4.41 5.09,-4.53 3.09,-0.12 5.82,-0.86 8.85,-0.53 A 46.25,46.25 0 0 0 473.18,25 c 2.28,-0.15 4.55,-0.49 6.82,-0.52 a 39.88,39.88 0 0 1 5.32,0.5 30,30 0 0 1 15.84,6.92 7.46,7.46 0 0 1 2.39,3.53 c 1.06,3.23 2.33,6.43 2.38,9.85 a 20.34,20.34 0 0 1 -0.85,6 c -1.46,4.94 -5.07,7.92 -9.73,9.7 a 14.64,14.64 0 0 1 -3.74,0.7 c -2.36,0.25 -4.72,0.39 -7.08,0.59 -1.27,0.11 -2.54,0.3 -3.81,0.36 -2.28,0.1 -4.56,0.08 -6.83,0.18 -2.45,0.11 -4.82,0.15 -7.35,0.11 -0.33,0 -0.68,0 -1,0 -2,0.06 -2.21,0.21 -2.27,2.18 -0.09,3.06 -0.09,6.12 -0.12,9.18 0,0.85 0,1.7 0,2.64 h 0.11 c 0,3.57 0,7.22 0,10.88 0,0.6 0,1.19 -0.09,1.78 a 1.88,1.88 0 0 1 -1.54,1.81 23,23 0 0 1 -7.54,0.08 c -1,-0.09 -1.51,-1.15 -1.47,-2.3 0.04,-1.15 0,-2.49 -0.05,-3.74 0,-0.25 -0.1,-0.5 -0.1,-0.76 0.08,-3.19 0.21,-6.39 0.22,-9.59 a 33.92,33.92 0 0 0 -0.56,-5.57 l 1,-9.29 z"
       id="path190"
       inkscape:connector-curvature="0"
       style="fill:#000000" />
    <path
       class="cls-5"
       d="m 519.85,131.41 a 44.67,44.67 0 0 1 -1.14,12.59 41.13,41.13 0 0 1 -2.93,10.09 59.28,59.28 0 0 1 -6.14,10.44 24.58,24.58 0 0 1 -9.39,6.94 28.82,28.82 0 0 1 -11.12,2.6 57,57 0 0 1 -9.58,-0.62 c -7.61,-1 -13.88,-4.72 -19.36,-10.1 a 28.42,28.42 0 0 1 -7.08,-10.35 30,30 0 0 1 -2.08,-9.2 c -0.17,-4.42 -0.45,-8.83 -0.68,-13.24 -0.17,-3.25 -0.46,-6.5 -0.43,-9.74 0,-2.25 0.13,-4.48 0,-6.73 a 24.75,24.75 0 0 1 0.31,-7 c 0.33,-1.53 -0.07,-3.23 -0.16,-4.86 a 17.45,17.45 0 0 1 -0.17,-2.15 1.65,1.65 0 0 1 1.5,-1.67 c 2.55,-0.15 5.1,-0.22 7.65,-0.17 1,0 1.5,0.94 1.52,1.93 a 45.49,45.49 0 0 1 0,7.29 65.56,65.56 0 0 0 -0.36,11.11 c 0.12,4.15 0.6,8.28 0.82,12.42 0.14,2.53 -0.08,5.08 0.13,7.61 a 50.63,50.63 0 0 0 1.19,8 18.49,18.49 0 0 0 7.65,10.53 34,34 0 0 0 7.08,3.74 c 5.21,2.07 10.6,1.92 16,0.77 a 16.07,16.07 0 0 0 8.59,-4.69 27.24,27.24 0 0 0 4.06,-6.61 22.87,22.87 0 0 0 1.94,-8.67 c 0.4,-5.84 0.6,-11.7 0.83,-17.55 0.05,-1.16 -0.24,-2.33 -0.21,-3.49 a 3,3 0 0 1 3.43,-2.84 c 1.67,0.18 3.34,0.32 5,0.35 2,0 2.51,0.37 2.72,2.42 0.21,2.05 0.33,4.15 0.42,6.23 0.06,1.54 0,3.08 0,4.62 z"
       id="path192"
       inkscape:connector-curvature="0"
       style="fill:#000000" />
    <path
       class="cls-5"
       d="m 522.05,86.06 c 0,-1.36 -0.12,-2.82 -0.15,-4.17 -0.08,-3.11 -0.28,-6.21 -0.4,-9.32 0,-1.43 0,-2.86 -0.07,-4.29 -0.12,-2.88 -0.25,-5.76 -0.41,-8.64 -0.1,-1.93 -0.28,-3.86 -0.4,-5.79 -0.08,-1.27 -0.11,-2.55 -0.15,-3.82 A 1.48,1.48 0 0 0 519,48.39 c -1.51,-0.18 -3,-0.61 -4.5,-0.85 -2.5,-0.4 -3.93,0.87 -3.8,3.4 q 0.25,5.31 0.59,10.62 c 0.11,1.77 0.33,3.54 0.44,5.31 a 28.69,28.69 0 0 1 -0.5,9.38 4.79,4.79 0 0 1 -2.55,3.32 12.23,12.23 0 0 1 -11.47,-0.42 5.74,5.74 0 0 1 -2.68,-3 c -0.86,-2.14 -1.74,-4.25 -1.56,-6.63 a 7.09,7.09 0 0 0 -0.13,-1.78 c -0.29,-1.42 -0.78,-1.83 -2.23,-1.89 -1.45,-0.06 -2.9,-0.12 -4.34,-0.14 -2.17,0 -2.44,0.14 -2.58,2.17 -0.25,3.78 0.9,7.37 1.67,11 a 2.8,2.8 0 0 0 0.37,0.67 c 0.69,1.26 1.33,2.56 2.08,3.79 a 22.51,22.51 0 0 0 1.82,2.45 c 1.9,2.33 4.55,3.51 7.29,4.4 a 15.78,15.78 0 0 0 5.72,1 c 3,-0.19 6.09,-0.57 8.93,-2.38 0.23,1.78 0.79,3.25 0.44,4.89 a 13.49,13.49 0 0 1 -10.07,10.36 23.17,23.17 0 0 1 -9.09,0.09 c -6.43,-1.06 -11.17,-4.16 -13.79,-10.3 a 3.2,3.2 0 0 0 -4.88,-1.56 29.31,29.31 0 0 1 -2.69,1.47 c -2.12,0.94 -2.57,2.08 -1.47,4.15 a 25.42,25.42 0 0 0 1.57,2.61 c 1.53,2.24 2.64,4.72 4.61,6.71 2.6,2.62 5.94,3.86 9.12,5.43 a 22.76,22.76 0 0 0 8.54,2.09 29,29 0 0 0 17.37,-3.9 c 2.24,-1.36 4.62,-2.66 6.15,-4.88 a 26.44,26.44 0 0 0 3.58,-8.5 51.19,51.19 0 0 0 1.14,-11.44 z"
       id="path194"
       inkscape:connector-curvature="0"
       style="fill:#000000" />
    <path
       class="cls-5"
       d="m 542.41,165.74 c -2.13,-0.3 -4.87,-0.68 -7.6,-1.08 -1.64,-0.25 -3.27,-0.6 -4.91,-0.8 -2.18,-0.26 -4.31,-2 -3.75,-4.61 0.23,-1.08 0,-2.26 0.21,-3.37 a 2.85,2.85 0 0 1 3.57,-2.59 c 1.9,0.37 3.76,1 5.65,1.38 a 33.79,33.79 0 0 0 16.14,-0.6 3.25,3.25 0 0 0 2.33,-2.18 c 1.21,-3.22 0.11,-6.38 -2.67,-7.29 -2,-0.67 -4,-1.53 -5.94,-2.31 l -7,-2.78 A 7.86,7.86 0 0 0 537.15,139 c -3.89,-0.72 -6.53,-3.43 -9,-6.17 a 11.84,11.84 0 0 1 -3.1,-7.91 23.5,23.5 0 0 1 1.31,-7.38 8.14,8.14 0 0 1 1.85,-2.42 c 3.68,-4.42 8.48,-6 14,-5.79 1.64,0.07 3.3,-0.38 4.94,-0.32 2.39,0.09 4.78,0.43 7.17,0.66 a 12.48,12.48 0 0 0 1.36,0.12 c 1.92,0 2.86,0.66 3.3,2.51 0.26,1.1 0.44,2.21 0.65,3.31 a 3.65,3.65 0 0 1 -3.73,4.62 27.09,27.09 0 0 1 -3.56,-0.39 c -2.83,-0.34 -5.65,-0.85 -8.49,-1 a 8.31,8.31 0 0 0 -7.77,4 2.84,2.84 0 0 0 0.21,3.86 11.24,11.24 0 0 0 5.65,3.91 85.06,85.06 0 0 1 14.57,6.15 15.18,15.18 0 0 1 7,7.43 13,13 0 0 1 0.14,10.7 c -2.6,5.51 -6.68,9.2 -12.9,9.91 -2.57,0.29 -5.15,0.54 -8.39,0.87 z"
       id="path196"
       inkscape:connector-curvature="0"
       style="fill:#000000" />
    <path
       class="cls-5"
       d="m 564.09,99.72 c 0,0 2.22,0 2.5,-1.57 0.28,-1.57 -1.72,-4.8 -2.81,-6.79 a 3,3 0 0 0 -2.52,-1.31 55.48,55.48 0 0 1 -8.15,-0.21 15.22,15.22 0 0 1 -6.65,-2.19 22.26,22.26 0 0 1 -8.75,-10.76 c -1.53,-3.75 -1.45,-7.71 -1.53,-11.15 0,-1.74 0.06,-3.18 0.13,-4.33 a 31.86,31.86 0 0 1 1.14,-7.07 39.12,39.12 0 0 1 4.32,-9 A 14.87,14.87 0 0 1 547,40 c 6.15,-3.56 12.58,-4.52 19.11,-0.85 a 31.71,31.71 0 0 1 5,3.2 c 1.78,1.51 3.14,1.67 4.72,0 0.45,-0.48 0.82,-1 1.29,-1.49 1.56,-1.46 1.8,-3.36 0.29,-4.76 -3.16,-3 -6,-6.29 -10.36,-7.79 A 21,21 0 0 0 557,26.92 a 58.46,58.46 0 0 0 -8.6,1.83 25.87,25.87 0 0 0 -7.55,3.32 26.46,26.46 0 0 0 -7,6.74 c -0.77,1.19 -1.49,2.41 -2.17,3.64 -2.14,3.87 -4.21,8.36 -4.86,11.81 a 2.9,2.9 0 0 0 -0.2,1 62.3,62.3 0 0 0 -0.42,11.91 c 0.15,1.76 0.23,2.71 0.38,4.5 a 41.12,41.12 0 0 0 4.1,15.07 c 0,0.07 0.11,0.12 0.15,0.2 2.23,3.93 5.8,6.48 9.38,9 a 17.62,17.62 0 0 0 5,2.44 52.5,52.5 0 0 0 14.37,1.62 h 1.55 l 3,-0.28 z"
       id="path198"
       inkscape:connector-curvature="0"
       style="fill:#000000" />
    <path
       class="cls-8"
       d="m 615,129.74 c 0,0.62 0,1.23 0,1.84 a 2.62,2.62 0 0 0 2.09,2.72 c 1.09,0.34 3.27,-0.1 3.75,-1 1.26,-2.26 2.07,-4.6 0.82,-7.19 a 3.19,3.19 0 0 0 -2.89,-2.08 c -1.54,-0.09 -2.31,0.84 -3.06,1.9 -0.75,1.06 -0.6,2.49 -0.72,3.77 z m 4,-10.7 a 7.28,7.28 0 0 1 5,1.41 6.89,6.89 0 0 1 3.1,5 21.8,21.8 0 0 1 0.38,5.9 c -0.28,2.25 -0.71,4.62 -2.37,6.44 a 9.27,9.27 0 0 1 -4.7,2.33 11,11 0 0 1 -7.34,-0.8 5.61,5.61 0 0 1 -3.21,-3.92 20.23,20.23 0 0 1 -0.3,-7.52 10.49,10.49 0 0 1 1.8,-5.33 8.31,8.31 0 0 1 6.26,-3.45 c 0.36,0 0.72,0 1.37,0 z"
       id="path200"
       inkscape:connector-curvature="0"
       style="fill:#e43e33" />
    <path
       class="cls-8"
       d="m 596,160 c 0.82,0 1.39,0.06 2,0.05 1.91,-0.06 3.83,-0.17 5.74,-0.19 a 4.52,4.52 0 0 1 1.66,0.34 1,1 0 0 1 0.6,0.73 11.7,11.7 0 0 1 -0.35,2.78 c -0.33,1.19 -1.37,1.6 -2.88,1.63 -3.08,0.05 -6.15,0.22 -9.22,0.31 -1.37,0 -2.75,0 -4.11,0 -1.14,-0.07 -1.39,-0.35 -1.43,-1.4 -0.07,-1.69 -0.46,-3.46 1,-4.84 0.71,-0.67 1.53,-1.24 2.28,-1.87 1.77,-1.48 3.6,-2.9 5.25,-4.49 a 8.93,8.93 0 0 0 1.78,-2.78 c 0.56,-1.25 -0.21,-2.27 -1.65,-2.46 a 3.31,3.31 0 0 0 -2.94,1 c -0.44,0.45 -0.78,1 -1.2,1.44 -1.15,1.3 -1.82,1.38 -3.27,0.44 l -0.35,-0.25 c -1.91,-1.21 -1.91,-1.29 -0.55,-3.11 a 10.57,10.57 0 0 1 13.46,-2.84 5.43,5.43 0 0 1 2.62,5.43 12.59,12.59 0 0 1 -3.51,5.79 c -1.42,1.51 -3.12,2.79 -4.91,4.36 z"
       id="path202"
       inkscape:connector-curvature="0"
       style="fill:#e43e33" />
    <path
       class="cls-8"
       d="m 594.37,135.47 h 2.18 c 2.07,0 4.14,-0.09 6.2,-0.08 a 4.25,4.25 0 0 1 1.64,0.4 1,1 0 0 1 0.5,0.79 16.44,16.44 0 0 1 -0.45,2.6 c -0.24,1 -1.18,1.47 -2.53,1.47 -3.29,0 -6.57,0.07 -9.86,0.07 -1.3,0 -2.59,-0.09 -3.89,-0.16 -0.62,0 -1.19,-0.22 -1.18,-0.93 a 11.67,11.67 0 0 1 0.25,-3.46 6.11,6.11 0 0 1 1.86,-2.43 47,47 0 0 1 4.7,-3.59 17.49,17.49 0 0 0 4,-3.5 3.69,3.69 0 0 0 0.45,-1.52 c 0.22,-1.07 -0.85,-1.79 -2,-2 a 4.44,4.44 0 0 0 -3.87,1.27 c -0.34,0.35 -0.58,0.78 -0.93,1.13 -1.07,1.07 -1.69,1.1 -3,0.23 l -0.16,-0.13 c -2,-1.35 -2,-1.53 -0.54,-3.29 A 10.44,10.44 0 0 1 601.15,120 c 1.78,1 2.43,2.52 2.51,4.62 a 8.64,8.64 0 0 1 -1.16,3.82 23.91,23.91 0 0 1 -7.08,6.22 c -0.23,0.15 -0.42,0.34 -1,0.84 z"
       id="path204"
       inkscape:connector-curvature="0"
       style="fill:#e43e33" />
    <path
       class="cls-8"
       d="m 618.67,151.23 c -0.21,0 -0.3,-0.1 -0.35,-0.08 -2.21,1.13 -3.17,0.91 -4.57,-1 -0.68,-0.94 -0.73,-1.29 0.34,-2 1.81,-1.18 3.74,-2.23 5.65,-3.29 a 26,26 0 0 1 3,-1.48 c 1.3,-0.49 2.14,-0.07 2.31,1.22 a 36.14,36.14 0 0 1 0.1,3.9 c 0,1.25 0.16,2.49 0.14,3.73 0,1.5 -0.08,3.06 -0.09,4.56 0,0.41 0,1.62 0,2.12 a 37.4,37.4 0 0 1 -0.11,4.53 c 0,1.47 -0.37,1.76 -1.9,1.79 -1.08,0 -2.16,0 -3.25,0 a 1,1 0 0 1 -1.16,-1.14 q 0,-3.54 -0.07,-7.06 c 0,-0.27 -0.07,-0.53 -0.08,-0.8 -0.05,-1.36 0,-2.66 0.08,-4.12 a 3.79,3.79 0 0 0 -0.14,-0.83 z"
       id="path206"
       inkscape:connector-curvature="0"
       style="fill:#e43e33" />
    <path
       class="cls-8"
       d="m 629.22,109.43 c -0.1,-1.18 -0.18,-2.35 -0.32,-3.53 -0.06,-0.54 -0.26,-0.87 -1,-0.82 -1.14,0.07 -17.52,-0.09 -18.67,-0.13 -0.54,0 -1.1,0.07 -1.65,0.1 -2.07,0.11 -4.15,0.21 -6.22,0.33 -1.9,0.11 -3.69,0 -5.59,0 -0.88,0 -1.87,0.15 -2.76,0.1 -0.89,-0.05 -2,-0.1 -3.06,-0.1 -2.13,0 -4.25,0.06 -6.37,0 -1.93,0 -3.73,0.22 -5.65,0.14 -1.92,-0.08 -3.81,-0.19 -5.63,-0.19 -1.17,0 -2.09,0.43 -2.15,1.55 -0.08,1.6 0,3.25 -0.07,4.86 0,1.16 0.11,2.32 0.18,3.48 0,0.88 0.16,1.76 0.18,2.64 0,1.92 0,3.85 0.07,5.77 0.12,2.18 0.5,4.36 0.57,6.54 0.08,2.87 0.42,5.67 0.35,8.49 0.18,1 0.09,24.94 0.18,25.95 0.1,1.16 0.55,0.8 2.82,1.1 1.61,0 3.34,-0.06 4.93,-0.11 0.34,0 0.52,-0.57 0.56,-1 -0.14,-2 -0.23,-25.94 -0.32,-27.76 -0.1,-2 -0.09,-3.74 -0.34,-5.77 -0.31,-2.55 -0.28,-5 -0.52,-7.59 -0.22,-2.31 -0.29,-4.64 -0.44,-7 -0.06,-0.87 -0.22,-1.73 -0.26,-2.6 0,-0.51 0.42,-0.69 0.92,-0.5 a 2.83,2.83 0 0 0 0.83,0 c 0.64,0 1.27,0 1.91,0 1.47,0 2.95,-0.11 4.42,-0.16 1.47,-0.05 2.68,-0.06 4,-0.14 3.45,-0.22 7,-0.06 10.43,-0.25 1.28,-0.08 2.57,0.19 3.86,0.21 1.48,0 3,0 4.42,0.09 0.8,0 18,-0.27 18.76,-0.09 1.73,0.13 1.39,-0.67 1.46,-1.41 0.07,-0.74 0.09,-1.55 0.16,-2.35 z"
       id="path208"
       inkscape:connector-curvature="0"
       style="fill:#e43e33" />
  </g>
</svg>
