<svg viewBox="0 0 182 190" xmlns="http://www.w3.org/2000/svg"><path d="m141.5 154.1c.1 0 .3-.2.4-.3 3.1-1.8 5.7-4.3 7.9-7 .5-.6.9-1.2 1.4-1.8.1-.2.3-.4.5-.5.3-.3.5-.3.8 0 1.5 1.5 3.1 2.9 4.5 4.6.8.9 1.6 1.8 2.4 2.7.5.4.9.9 1.3 1.4.3.4.4.8.1 1.2-.2.3-.3.6-.5 1 .1 0 .2.1.3.1 1.1.3 1.9 1 2.5 2 .7 1.1 1.4 2.1 2 3.2 2 3.2 3.6 6.7 5.2 10.1.3.7.6 1.5.8 2.3.4 1 .7 2.1 1 3.2.1.3.2.6.3 1 .1.6-.3 1-.9.9-.4 0-.8-.2-1.2-.4-1-.5-2.1-.9-3.1-1.4-1.2-.6-2.5-1.1-3.8-1.5-.6-.2-1.2-.4-1.8-.7-1.3-.7-2.7-1.1-4.1-1.3-1.1-.2-2.2-.5-3.2-.8-.9-.3-1.8-.4-2.7-.4 0 .4.2.5.3.8.2.4.4.8.6 1.3.2.4 0 .8-.4 1-1 .7-2 1.3-3 2-.4.3-.8.6-1.3.8-3 1.6-6.2 3-9.5 3.8-2.4.5-4.7 1-7.1 1.2-3 .3-5.9 0-8.8-.8-2.3-.6-4.6-1.3-6.8-2.1-3.2-1.3-6.1-3-8.7-5.4-3.3-3-6.4-6.3-9.2-9.7-1.5-1.8-2.8-3.8-3.9-5.8-.8-1.5-1.6-3.1-2.4-4.7-.5-1-.9-2-1.2-3-.2-.6-.4-1.1-.6-1.7-.4 0-.7.2-.9.3-5.5 3-11.1 6-16.6 9-3.4 1.9-6.9 3.7-10.3 5.6-4.5 2.6-9 5.3-13.5 7.9-1.4.8-2.8 1.5-4.2 2.3-.7.4-1 .3-1.5-.3-.2-.3-.4-.5-.6-.8s-.4-.7-.7-1c-.3-.4-.3-.4-.7-.2-.2 0-.4.2-.6.3-3.2 1.7-5.9 4-7.8 7.1-.6 1.1-1.4 2-2 3.2-.3.5-.7.6-1.2.2-.7-.6-1.4-1.3-1.9-2-.6-.7-1.2-1.5-1.7-2.2-1.5-2-2.9-4-4.4-6-.6-.8-1.1-1.5-1.7-2.2-.4-.5-.4-.6 0-1.2.2-.4.5-.7.6-1.1-.3-.1-.6 0-.9 0-.2 0-.4.1-.6.2-.7.3-1.3.1-1.9-.5-1.8-2-3.5-4.1-4.9-6.3-1.9-3-3.7-6.1-5.6-9.2-1.1-1.8-2-3.8-2.7-5.8-.2-.7-.5-1.3-.7-2-.3-.9-.5-1.8-.6-2.7 0-.1 0-.3 0-.4 0-.5.3-.7.8-.8h.7c.6 0 1.1.3 1.6.6 2.2 1 4.4 2.1 6.5 3.1 3 1.5 6.3 2.6 9.5 3.6 1.2.4 2.4.7 3.6 1.1 1.4.4 2.8.6 4.2.7 1 .1 2 0 3 .3.2 0 .4 0 .5-.1 7.7-6.7 16.3-12.1 25.3-16.8 3.2-1.6 6.3-3.4 9.3-5.2 2.5-1.5 4.9-3 7.5-4.2.5-.2 1-.5 1.4-.8.3-.2.4-.4.3-.8-.6-2.8-1.2-5.6-1.8-8.4-.8-3.6-1.4-7.3-1.6-11-.2-2.8-.2-5.6-.1-8.4 0-3 .2-5.9.3-8.9 0-.7 0-1.4.2-2.1.1-1.3.2-1.1-.9-1.7-1.9-1-3.8-1.6-5.9-2-.8-.1-1.5-.3-2.3-.5-.9-.2-1.8-.4-2.8-.5-1.1-.2-2.2-.5-3.2-.7-4.6-.9-9.1-2.1-13.6-3.4-3.2-.9-6.2-2.2-9.2-3.8-1.2-.6-2.2-1.4-3.2-2.3s-2-1.7-3-2.6c-1.1-.9-1-.9-.5-2.2.3-.7.7-1.4 1.1-2.2.2-.3.3-.6.5-.9-.7-.6-1.3-1.2-1.9-1.8-.1-.1-.3-.1-.5 0-.1 0-.3 0-.4.1-1.5.7-3.2.7-4.8 1.2-.3 0-.6 0-.9 0-1.2 0-2.5 0-3.7-.1-.9 0-1.8-.3-2.7-.5-1.8-.5-3.5-1.1-5.2-2-1.1-.6-2.4-1-3.5-1.5-1.3-.5-2.4-1.2-3.4-2.2-.6-.6-.9-1.2-1-2-.1-1.6-.2-3.3-.2-4.9 0-.2 0-.3 0-.5 0-.4.3-.7.7-.7h.4v-.2c-.7-1.3-1.1-2.7-1.4-4.2 0-.3-.2-.6-.4-.8-1.3-1.2-1.5-2.6-1.1-4.2.3-1.1.5-2.1 1-3.1s1-2 1.5-3c.4-.7.5-.7 1.3-.4h.2c.3-.7.7-1.3 1.2-1.9.1-.1.1-.3 0-.5-.3-1.3.2-2.3.9-3.3 1-1.3 2.2-2.4 3.5-3.4.1 0 .2-.2.3-.2.4-.2.7-.2 1.1.2.1.1.2.3.4.4.3-.2.6-.4.9-.6s.6-.3.9-.5c.2 0 .2-.2.2-.4-.2-1.1.4-1.8 1.2-2.4 1.2-.9 2.6-1.6 4.1-1.9.8-.2 1.2 0 1.5.8.3.7.6 1.3.9 2 .1.3.4.5.7.6 1.4.4 2.7.9 4 1.6h.2c0-.1 0-.3 0-.4 0-.8 0-1 .7-1.3.4-.2.9-.3 1.3-.4 1-.1 1.9-.2 2.9-.3.7 0 1.2.1 1.6.7.3.4.5.8.7 1.2.5.9.9 1.7 1.4 2.6.7 1.3 1.1 2.8 1.4 4.3.3 1.2.4 2.5.6 3.8.3 1.8.2 3.6 0 5.4-.1 1.4-.2 2.8-.4 4.2-.1.8-.3 1.6-.5 2.4-.1.4 0 .7.3 1 .3.2.6.5.8.7l.5.5c.2.3.2.5 0 .8-.4.6-.9 1.1-1.3 1.7-.1.1-.2.3-.3.4.7.7 1.2 1.5 1.8 2.4.2.2.3.3.5 0 .5-.5 1-.9 1.4-1.4.2-.2.4-.2.6 0 .1.1.3.3.4.5 1 1.3 2.2 2.4 3.5 3.4 2 1.5 4.2 2.7 6.4 3.8 5.7 2.8 11.7 4.8 18 6 1.7.3 3.4.6 5.2.7h1c.1-.2 0-.3-.1-.4-.4-.5-.8-1.1-1.2-1.6-.2-.3-.4-.6-.5-.9-.8-1.6-1.4-3.3-1.6-5.1-.2-1.2-.2-2.3 0-3.5.4-3 1.1-5.9 2.3-8.7.9-2.3 1.9-4.5 3.2-6.6 1.2-1.8 2.3-3.6 3.6-5.3 0 0 .1-.2.2-.2 0-.2-.3-.2-.5-.3-1-.4-1.9-.7-2.8-1.4-1-.8-1.7-1.7-2.1-3-.3-1.1-.5-2.1-.5-3.3.1-1.3.6-2.4 1.5-3.3.8-.8 1.7-1.6 2.7-2.1 1.2-.7 2.5-1.3 3.8-1.8.8-.3 1.6-.5 2.4-.6 1.6-.3 3.3-.5 4.9-.4.3 0 .6-.1.7-.4.6-.9 1.4-1.7 2.1-2.4 2.9-2.8 6.4-4.6 10.4-5.2 4.3-.7 8.4 0 12.3 2.1 4.8 2.5 8.2 6.4 10.3 11.4 1.6 3.6 2.2 7.4 2 11.3-.2 3.4-1.1 6.7-2.8 9.7-.3.6-.5 1.1-.2 1.7 0 .2.2.4.4.6.4.4.7.4 1.2.2.1 0 .3-.2.4-.3h.2v.2c0 .2-.2.3-.3.5-.1.4-.3.7-.3 1.2 0 .7.2.9.9.9h.5c.1 0 .2.2.1.2-.1.2-.3.4-.5.7-.8 1.1-.9 2.3-.3 3.6.8 1.6 1.8 3.2 3.2 4.3.2.1.4.3.5.5v.2c-.3 0-.6 0-.9 0-1 0-1.9.2-2.7.6-1.3.6-2 1.7-2.1 3.2 0 1 .2 1.9.7 2.8.3.5.6.9.9 1.4.1.2.3.4.5.7v.3c0 .1-.2 0-.2 0-.2-.2-.4-.3-.6-.5-.8-.6-1.6-1-2.5-1.2-1.3-.3-2.5 0-3.5 1-1.2 1.1-1.7 2.5-1.4 4.1 0 .5.2 1 .4 1.5 0 .1 0 .3.1.4v.2s-.1 0-.2 0c-.2-.1-.3-.3-.4-.4-.5-.6-.9-1.1-1.4-1.7-.4-.5-.9-1-1.5-1.3s-1.2-.5-1.8-.3c-.3 0-.5.2-.7.4-.6.7-1 1.5-1 2.5s0 .8 0 1.2c0 0 0 .1-.1.1s-.2 0-.2-.1c0-.2 0-.4 0-.6 0-1.4-.4-2.6-1.2-3.8-.3-.4-.5-.8-.9-1.1-.5.1-.6.6-1 .9 0 0-.1.2-.2.2-.8.6-1 1.4-1.2 2.3-.4 2-.4 4.1 0 6.1 0 .4.3.7.7.7.3 0 .7.2 1 .2 1.9.3 3.8.1 5.7-.3 4.2-1 8.3-2 12.5-3 1.5-.4 3-.5 4.5-.6 2.4-.2 4.9-.2 7.3 0 2.9.3 5.7.9 8.5 1.7 3.9 1.1 7.6 2.9 11.1 4.8 2.2 1.2 4.2 2.8 6.3 4.2.4.3.8.6 1.1 1 .5.6.7 1.2.6 1.9 0 .6-.2 1.2-.3 1.8 0 .2 0 .3.2.4 2.6 1.4 4.9 3.3 7.1 5.3 1.5 1.4 2.7 3 3.7 4.7 1.7 3 3 6.2 3.7 9.6.5 2.3.3 4.5-.3 6.7-.2.7-.6 1.3-1.1 1.8s-1.1.4-1.6 0c-.2-.2-.3-.4-.4-.6s-.2-.4-.3-.5c-.2.3-.2.6-.3.9-.1.7-.3 1.4-.6 2-.2.5-.5.9-.8 1.2-.4.3-.8.3-1.2 0-.3-.3-.4-.6-.6-.9-.2-.4-.3-.9-.4-1.3-.3.2-.2.4-.3.7-.1.8-.5 1.6-1 2.3-.1.2-.3.4-.5.5-.5.4-1.1.3-1.5-.1-.3-.3-.5-.7-.6-1.1-.5-1.3-.7-2.7-.8-4.1-.1-1.7-.2-3.4-.4-5-.1-1-.3-2-.6-2.9-.1-.4-.2-.7-.5-1-.2-.2-.4-.1-.5 0-.2.4-.2.8-.2 1.3 0 1.1-.1 2.2-.2 3.3 0 .6-.1 1.1-.2 1.7-.1.7-.5 1.4-1.1 1.9-.5.4-1 .5-1.5 0-.3-.2-.5-.5-.6-.8-.3-.6-.5-1.3-.6-2-.1-1.2 0-2.5 0-3.7.2-1.2.3-2.4.3-3.6 0-2.1-.8-3.9-2-5.5-.4.2-.5.6-.9.7-1-.6-2-1.2-3.1-1.9-1.3-.8-2.6-1.5-4-2-2.2-.7-4.5-1.4-6.8-1.8-1-.1-2.1-.3-3.1-.3-1.8 0-3.6 0-5.3 0-3.7.2-7.4.8-10.8 2.4-.9.4-1.9.8-2.9 1.2-.6.3-1.2.6-1.7 1-.3.2-.4.4-.3.8.3 2.1.6 4.1.9 6.2.3 2 .5 3.9.7 5.9.2 1.6.3 3.3.5 4.9v1.2c0 1.9.1 3.9.3 5.8.1 1.9-.5 3.4-1.8 4.7-.7.8-1.5 1.5-2.2 2.4-1 1.1-2 2.1-3.2 3-1.7 1.3-3.4 2.7-5.2 4-.4.3-.4.3-.3.6 1.5 4.6 3.4 9 6.2 12.9 2.2 3.2 5 5.6 8.6 7.3 1.1.5 2.2.8 3.4.9 1.9.1 3.7-.4 5.4-1.4 1.5-.9 2.8-2.1 4-3.4.1-.1.2-.3.3-.5.2-.3.5-.3.7 0 .3.4.6.9.8 1.4.2.2.2.6.5.7z" fill="#303228"/><path d="m159.1 96.5c-.6-.4-1.1-.7-1.7-1.1-1.3-.9-2.7-1.6-4.1-2.1-2.2-.8-4.5-1.5-6.8-1.8-.9-.1-1.8-.2-2.7-.3-2.2-.1-4.5-.1-6.7 0-3.6.2-7.2.9-10.5 2.5-1.3.6-2.6 1.2-3.9 1.9-1.7 1-1.4.9-1.4 2.5s.3 3.2.5 4.8c.3 2.1.5 4.3.7 6.4.1 1.6.3 3.2.5 4.8 0 1.2.1 2.5.2 3.7 0 .4 0 .5-.4.6s-.9.2-1.3.1c-1.5 0-3.1 0-4.6 0-2.8 0-5.6 0-8.5-.1-1.5 0-2.9.2-4.4.3-1.2.1-2.3.2-3.5.3-1.9 0-3.7.2-5.6.5-.5 0-.6 0-.7-.5 0-.7-.2-1.5-.2-2.2-.2-2.7-.1-5.4 0-8 .1-1.9.3-3.7.7-5.6 1-5.1 2.6-10.1 4.7-14.8.9-2.1 2-4.2 3.2-6.2 1.4-2.3 3.2-4.3 5-6.3.3-.3.5-.4.9-.3 2 .2 4 0 6-.2.3 0 .7-.1 1-.2 2.9-.8 5.9-1.4 8.9-2.1.6-.1 1.2-.2 1.9-.3 1.3-.2 2.7-.4 4-.7 1.2-.3 2.4-.4 3.7-.4h4.3c2.4 0 4.8.5 7.1 1.1.6.1 1.1.3 1.7.4 2.1.4 4.1 1.2 6 2.1s3.6 1.9 5.4 2.9c1.7 1 3.5 2 5.1 3.2.6.4 1.1.8 1.7 1.3.6.4.8 1 .8 1.7 0 1-.2 2.1-.6 3-1.4 3-3 5.9-5.1 8.5-.3.4-.6.9-1.2.6z" fill="#eae0c2"/><path d="m40.5 50.2c2 2.1 4.3 3.7 6.8 5.2 4.2 2.4 8.7 4.2 13.3 5.7 2.7.8 5.4 1.5 8.2 2 2.1.3 4.2.6 6.3.4s.6 0 .9.2c1.4 1 3 1.7 4.7 2 .5 0 1 0 1.5.2.4.2.6.7.9 1 .6.8 1.5 1.3 2.3 1.8.4.2.8.5 1 1s1.2 1.4 1.7 1.9 1.5 1.2 2.4 1.7l.4.3c.3.3.4.8.6 1.2 1.3 4.1 2.3 8.3 3 12.5.3 2 .2 4 .6 6s0 1.3-.2 1.8c-.9 2.3-1.5 4.6-1.9 7 0 .5 0 1-.6 1.3-.6 0-1.6 1.1-1.6.7.3-1.7 1-5.5.8-7.3 0-.4-.3-1-.2-1.4.7-2.1 1.1-1.5-1.1-2-.9-.2-1.4-.7-2.3-.6s-.3-.4-.4.2c-.4 2.7-.5 5.4-.8 8.1 0 .3-.3.7-.2 1 0 .2.1-.3.4-.2 0 0 0 .2 0 .1.2-.3-.3.2-.4 0-.2-.4-.1-.8-.1-1.3 0-.9.2-1.9.3-2.8s.6-1.9 1.3-1.8 1.7.8 2.6.9c1.1 0 2 .3 1.9 1.4-.1 1.4-.9 2.9-1.3 4.3-.2 1 1.5.3.8 1.3.5.3.5.8.4 1.2-.3 2.3-.3 4.7-.3 7.1s.2 4.1.5 6.1-.3 1.5-3.5 1.7-2.3 0-3.4-.2-1.5 0-2.2 0c-2.3 0-4.5-.3-6.7-.7-.2 0-.4-.1-.6-.1s-.3-.2-.4-.4c0-.2 0-.3-.1-.5-.6-3-1.2-6-1.7-9s-.8-6.2-.9-9.4 0-5 0-7.5c0-2.7.2-5.4.3-8 0-.3 0-.7.1-1 0-.4 0-.7-.4-.8-.4-.2-.7-.5-1.1-.7-2.2-1.2-4.6-1.9-7-2.4-2-.4-4.1-.8-6.1-1.3-1.5-.3-3.1-.7-4.6-1-2.7-.6-5.3-1.5-7.9-2.2s-1.8-.5-2.6-.7c-5.2-1.7-10.1-4.1-14.1-7.8-.3-.2-.6-.5-.8-.8-.1-.4 0-.7.2-.9 2.1-3.9 4.3-7.6 7.4-10.8 1-1 2-1.9 2.9-2.9.2-.3.5-.6.9-.5z" fill="#eae0c2"/><path d="m33.3 150.6c.4-.5.9-.9 1.4-1.3 3.5-2.8 7.1-5.5 10.9-7.9 4-2.6 8.2-5 12.5-7.2 3.2-1.6 6.3-3.4 9.4-5.3 2.4-1.5 4.8-3 7.5-4.2.5-.2 1-.4 1.4-.8.2-.2.5-.2.7-.2.8.1 1.5.2 2.3.2.5 0 .5 0 .7-.6.1-.3.4-.4.7-.5 1 0 2.1-.2 3.1 0 .5 1.3.5 1.3 1.9 1.3 1.6 0 3.1.3 4.7.2 1.8 0 1.6-.2 1.8-1.4 0-.2.1-.4.2-.6s.3-.3.5-.3c1.1 0 2.1-.4 3.1-.6.4.2.4.6.5 1 0 1.1 0 1.1 1.2.9 2.4-.3 4.8-.6 7.2-.5.9 0 1.4-.3 1.5-1.2 0-.3.1-.6.3-.8 1.1-.3 2.3-.5 3.4-.3.4.3.6.7.6 1.1.1.7.6 1 1.3 1 1.7 0 3.5-.3 5.2-.2.4 0 .9 0 1.3.1.7.4 0 .8-.2 1-1.2 1.3-2.6 2.4-4 3.5-6.1 4.8-12.7 8.9-19.5 12.6-6.6 3.6-13.3 7.2-20 10.9-3.9 2.1-7.9 4.2-11.8 6.3-6.7 3.5-13.5 6.8-19.9 10.8-.4.3-.8.6-1.4.6-1.1-1-1.6-2.3-2.3-3.6-1.4-2.8-2.7-5.7-4-8.6-.7-1.5-1.5-3-2.1-4.5-.2-.4-.4-.7-.3-1.1z" fill="#eae0c2"/><path d="m151.5 174.2c-2.8 2.2-6 3.8-9.3 5.1-2.5.9-5 1.5-7.6 1.9-1.4.2-2.7.4-4.1.5s-2.8 0-4.1-.2c-3.8-.5-7.4-1.6-10.9-3-2.9-1.2-5.5-2.8-7.8-4.9-3.4-3.1-6.6-6.4-9.5-10-1.4-1.6-2.6-3.4-3.6-5.3-.9-1.8-1.9-3.6-2.8-5.4-.6-1.2-1-2.6-1.4-3.9-.1-.3 0-.4.3-.6l.6-.3c2.5-1.4 5-2.8 7.4-4.3.2-.1.3-.2.5-.3 3.7-2.3 7.4-4.6 11.1-7 .1 0 .3-.2.4-.3.2 0 .3 0 .3.1.2.6.4 1.1.6 1.7 1.3 4 3.2 7.7 5.6 11.2 2.3 3.4 5.3 6 9.1 7.7 3.3 1.5 6.5 1.1 9.5-.7 1.2-.8 2.3-1.8 3.3-2.8.7-.2.7.4.9.7 1.1 2.1 2.1 4.3 3.4 6.4 2.7 4.3 5.1 8.7 8 12.9.1.2.2.3.1.6z" fill="#eae0c2"/><path d="m94.1 31.5c.3 0 .4-.2.3-.5-.2-.4-.6-.6-.8-1 .2-.3.5-.5.8-.7.6-.3 1.1-.3 1.7-.3 1.4 0 2.1.8 1.9 2.2 0 .6-.1 1.3-.4 1.8 0 .2-.2.4 0 .6.2-.1.5-.3.7-.4.2 0 .4-.2.7 0v.2c0 .1 0 .3.2.4.6.2 1.2.5 1.9.7 0 .4-.3.3-.5.4-3.6 0-5.5 1.7-6.1 5.2-.3 2 .3 3.7 1.8 5.1 2.4 2.1 5.4 1 6.9-1.5s1.4-5.1-.4-7.5c-.4-.5-.4-.5-.2-.9h.1c.1 0 .2 0 .3.2.1.1.3 0 .4.2 0 0 .1.1.2.2h.1c.1 0 .2 0 .3.2 0 0 .1.1.2.2h.2c.1 0 .2.1.2.2.4.4.8.6 1.2.9.1 0 .3.1.5.2.2 0 .4-.2.3-.4 0-.3-.2-.5-.4-.7-.3-.3-.7-.7-1-1s-.7-.5-1-.8c.3-.7.8-.3 1.1 0 1.3.7 2.4 1.7 3 3.1 0 0 .2.1.3.1s.1-.1.1-.2c0-.4 0-.8 0-1.2.5.6.7 1.1.8 1.8 0 .7-.2 1.3-.2 2 .3-.2.5-.4.8-.6.4-.2.9 0 1 .5v1.2c-.3.9-.8 1.7-1.4 2.4-.1.1-.2.2-.3.4-.1.1-.4.3-.3.5.2.3.4 0 .6 0 .9-.3 1.5 0 2 .9.6 1.1.7 2.3.5 3.5-.1.8-.4 1.6-.8 2.3-.1.3 0 .4.2.4 1 0 1.4.6 1.7 1.4 0 .2.1.4.2.6 0 0 0 .1.2 0 0 0 0 0 0-.1 0-.2 0-.3 0-.5 0-1.3.5-2.3 1.2-3.3.3-.4.8-.7 1.3-.8 0-.4-.2-.6-.3-.8-.4-1-.7-2-.7-3.1 0-.4.1-.6.4-.9 1.3-1 2.8-1.7 4.5-1.6 2.4 0 4.1 1.3 5 3.4.7 1.5.7 3.1.2 4.7-.7 2.6-2.4 4.6-5 5.6-1.8.7-3.6.5-5.3-.5-.4-.2-.5-.4-.4-.8 0-.4.2-.7.3-1.1 0-.3 0-.5 0-.8 0 0 0-.2-.2-.2 0 0-.2 0-.3.1s-.1.3-.2.5c-.3 1.3-.7 2.6-1.1 3.9-1.2 3.5-3.3 6.5-6 8.9-1.7 1.5-3.6 2.7-5.9 3.4-1.4.4-2.7.9-4.2 1.1-1.8.3-3.7.3-5.5-.1-1.6-.4-3.1-1-4.5-1.8-.6-.3-1.1-.7-1.6-1-.9-.5-1.6-1.1-2.2-1.9-.6-.7-1-1.5-1-2.5 0-1.4.1-2.7.6-4.1.1-.3.3-.7.5-1 0 0 0-.2.2-.2.4-.1.6.2.8.4 1.9 1.7 4.8 1.8 6.9.4.2-.1.2-.2 0-.4-1.4-.2-2.7 0-4.1-.3-1.6-.4-3-.8-4.2-2-.6-.6-.9-1.3-.7-2.2-.1.8 0 1.5.6 2.1.2.2.5.4.5.8s-.3.6-.5.8c-1.5 1.9-2.3 3.9-1.9 6.4 0 .3.3.8-.4.7-1-.1-1.9-.4-2.8-.9-2.2-1.1-3.5-3-4.6-5.2-.8-1.6-1.1-3.4-1.3-5.1 0-.4 0-.9 0-1.3.2-2.3.7-4.6 1.4-6.9.6-1.8 1.3-3.6 2.1-5.3 1.7-3.8 3.9-7.1 6.5-10.3.4-.5.8-1.1 1.4-1.6.2.1 0 .4.2.5h.2c.4-.4.9-.8 1.5-1 .3-.1.6-.3.9 0 0 .4 0 .4.3.3.2-.2.4-.4.7-.4 1.1-.3 2.2-.3 3.2.4 0 .1.2.2.2.3s.1.2 0 .4c0 .1-.2.1-.3 0-.6-.2-1.2-.2-1.8-.1-.2 0-.5 0-.6.2-.4.6.4.8.5 1.2 0 0-.1.1-.2.2-.2 0-.3.2-.5.2-2.5 1.2-3.9 3.1-3.7 5.9 0 1.1.5 2.1 1.4 2.8.8.7.8.7-.2 1.2-.2.1-.4.2-.6.4-.8.6-.9 1.6-.2 2.4.2.2.4.4.6.7.1.7.7.9 1.3 1.1 2.2.7 4 0 5.6-1.5 0 0 .1-.1.2-.2 0 0 .1-.2.2-.3 0 0 0-.1 0-.2 0 0 0 0-.1-.1 0 0-.1 0-.2 0 0 0-.2.2-.3.2-1.7.9-3.5 1.6-5.5 1.1-.2 0-.3 0-.5-.2-1-.4-1.7-1.1-1.7-1.9 0-1 .8-1.5 1.6-1.8 1.4-.6 2.8-1 4.1-1.7 1.5-.8 2.7-1.8 3-3.6.1-.9 0-1.7-.4-2.5-.2-.4-.5-.8-.5-1.3.4-.4.7 0 1.1.1.5.1.8.6 1.4.3z" fill="#d5895c"/><path d="m77.4 23c.3-.2.6-.3.9-.5s.5 0 .6.3c.2.7 0 1.3-.5 1.9-.2.2-.4.5-.6.7v.2c0 .1.1.1.2 0 .7-.3 1.3-.6 2-.7.2 0 .5-.1.7-.1.8 0 1 .2.9 1 0 .4-.3.8-.5 1.2-.3.4-.6.7-.9 1.1 0 .1-.2.2-.2.3v.2h.2c.3-.2.5-.5.7-.7.6-.6 1.3-.9 2.2-.8 0 0 .2 0 .2.1.1.1 0 .3 0 .3-.7.6-1.3 1.2-1.9 1.9-.2.2-.5.3-.7.2-1.9-.5-3.6-1.3-4.6-3.2-1.1-2.2-1.4-4.8.2-6.7.7-.8 1.5-1.6 2.4-2.1 1.4-.8 2.9-1.5 4.4-2.1.5-.2 1.1-.3 1.6-.5 3.9-.7 7.7-.5 11.5.4 2.6.6 5 1.5 7.4 2.6 3.4 1.5 6.4 3.5 9.1 6 2.9 2.6 5.6 5.5 8 8.6 1.3 1.7 2.4 3.6 3.4 5.5.2.3.3.6.4.9.3.7 0 1-.7 1-4.4.4-8.3-.7-11.9-3.4-2.9-2.2-5.3-4.8-7.8-7.4-3.2-3.4-6.9-6.1-11-8.3-2.6-1.4-5.5-1.5-8.3-1.3-2 .1-3.9.6-5.8 1.3-.6.2-1.1.5-1.6.9-.3.3-.5.6-.1.9z" fill="#e2bd68"/><path d="m29.1 28c-.3-2-.5-4-1.1-6-.2-.6-.4-1.1-.6-1.7-.2-.7-.2-.8.5-1 .6-.1 1.2-.2 1.8-.3.5 0 1.1 0 1.6-.2.3 0 .6 0 .8.3.3.3.5.6.6.9.5.9 1 1.8 1.4 2.7.3.5.5 1 .7 1.6.7 1.9 1 3.9 1.3 6 .1 1.3.2 2.5.2 3.8 0 1.4-.3 2.9-.3 4.3 0 1.3-.4 2.6-.8 3.9-.2.7 0 1.3.6 1.8.4.3.8.6 1.1 1-.2.5-.6.9-.9 1.3-.5.6-.9 1.2-1.5 1.8-.8.9-1.5 1.9-2.2 2.9-1.4 2.1-2.8 4.2-4.2 6.2-.2.3-.4.5-.8.6-1.1.5-2.3.7-3.5.9-.1 0-.3 0-.4 0-1.9.6-3.8.4-5.7.2-2.2-.2-4.3-1-6.3-1.9-1.4-.6-2.8-1.2-4.2-1.8-1-.4-2-.9-2.9-1.6s-1.4-1.5-1.4-2.6 0-2.2-.1-3.3c0-.2 0-.4 0-.6s.2-.3.4-.3h.8c.1 0 .3 0 .3.2s0 .2-.2.3c-.1.1-.3.2-.1.4.1.1.3 0 .5 0 .2-.1.5-.2.7-.4.2-.1.4-.2.7-.1.7 0 .7.1.9.8 0 .3.1.6.2.9 0 .1.3.1.3 0 .1-.2.2-.4.1-.6 0-.6.2-.9.8-.9h.8c.6 0 1.2-.2 1.5-.8.4-1 .8 0 1.2 0 .8.4 1.7.5 2.5.8 1.4.7 2.7 1.6 4 2.5.7.5 1.3.9 2.1 1.2 1.7.7 3.4.2 4.3-1.5.9-1.9 2.1-3.6 3-5.5s2-3.6 2.6-5.6c.4-1.3.7-2.6 1-3.9.1-.7.1-1.4 0-2.1-.1-.6-.1-1.3 0-1.9.2-1.7-.1-2.2-1.7-2.5-.2 0-.3 0-.4-.2z" fill="#c06e40"/><path d="m29.1 28h.9c.4 0 .8.2 1 .5.5.6.8 1.2.6 2s-.2 1.5 0 2.3c.1.6.1 1.3 0 1.9-.4 2-.8 3.9-1.6 5.8-.6 1.4-1.1 2.7-2.1 3.9-.2.2-.3.5-.4.8-.3 1-.9 1.9-1.5 2.8-.2.2-.3.5-.5.8-.2.4-.4.8-.6 1.3-.7 1.4-1.9 2-3.5 2s-.4 0-.6-.1c-.9-.4-1.8-.8-2.5-1.4-1.3-.9-2.5-1.8-3.9-2.6 0 0 0 0-.1-.1.2-.3.5-.2.8-.3-1.2 0-2.2-.5-3.4-.5-.1 0-.3-.2-.4-.2-.3-.2-.3-.2-.6 0 0-.4-.2-.7-.5-.9-.4-.3-.8-.6-1.2-.8-.1 0-.3-.2-.4-.3-.3-.2-.3-.4 0-.7.4-.6.9-1.1 1.2-1.7 0 0 .1-.2.2-.3 0-.1 0-.3 0-.4s-.2-.2-.4 0c0 0-.2.1-.3.2-.6-2-.8-4 .3-5.9.1-.2.3-.3.5-.4.3 0 .6.1.9.2.3 0 .5 0 .7-.2s.3-.5 0-.8-.6-.6-.8-1c.6-1.3 1.5-2.3 2.5-3.2.6-.6 1.3-1.3 2-1.8.3.4.6.8 1.1 1.1.3.2.6.4.9.1.3-.2.3-.6.2-.9-.2-.5-.5-1-.6-1.6.8-.8 1.6-1.5 2.4-2.2.7-.7 1.5-.8 2.4-.4.3.1.7.3 1 .5.1.1.2.2.2.4s0 .3.2.4c.5.4.5.9.7 1.4.7 2 1.3 3.9 2.5 5.7.2.2.3.5.5.7.8.8 1.6.7 2-.4.5-1.4.3-2.9.2-4.4 0-.4-.2-.7 0-1.1h.1z" fill="#89422b"/><path d="m168.6 88.6c.5.2.9.6 1.4 1 1 .8 2 1.6 2.9 2.5 2.4 2.2 4.2 4.8 5.5 7.8.9 2 1.7 4.1 2.2 6.3.5 2.3.4 4.5-.1 6.8-.2.7-.5 1.3-1.1 1.8-.2.1-.4.1-.6 0-.3-.2-.4-.4-.5-.7-.1-.4-.3-.8-.3-1.2-.2-1-.4-2-.5-3.1-.2-2.4-.8-4.8-1.6-7 0-.2-.2-.4-.3-.5 0-.1-.2-.2-.3-.2-.2 0-.2.3-.2.4 0 .2.1.4.2.7.7 1.8 1.2 3.7 1.4 5.6 0 .3.1.6.2.9.3 1.8.2 3.6-.2 5.4-.1.8-.4 1.5-.8 2.1 0 .1-.2.3-.3.4s-.2 0-.4 0c-.2-.2-.4-.4-.5-.7-.1-.4-.3-.9-.4-1.3-.2-1.5-.3-3.1-.4-4.6 0-1.6-.2-3.3-.7-4.9-.1-.4-.2-.9-.5-1.3 0 0-.2 0-.3 0s-.2.1-.2.2v.9c.2 1.2.5 2.4.7 3.7.2 1.8.4 3.6.1 5.4 0 .6 0 1.3-.3 1.9-.2.6-.5 1.2-1 1.7s-.9.4-1.2-.2c-.3-.4-.4-.9-.5-1.4-.2-.9-.4-1.8-.5-2.8-.1-1.7-.2-3.5-.4-5.2-.1-1.2-.3-2.4-.7-3.5-.1-.4-.3-.8-.7-1.1-.5-.4-1-.3-1.2.3-.2.5-.3 1-.3 1.6v2c0 1-.1 2-.4 3-.1.6-.4 1.1-.9 1.5-.2.2-.5.2-.7 0-.2-.1-.3-.3-.5-.5-.2-.4-.4-.9-.5-1.3-.2-1.1-.3-2.2-.1-3.4.2-1.3.3-2.5.4-3.8 0-1.7-.2-3.3-1.1-4.9-.1-.2-.2-.4-.3-.6.9-1 1.8-1.9 2.6-3 1.3-1.9 2.4-3.8 3.2-5.9.1-.3.2-.6.6-.5z" fill="#d5895c"/><path d="m44.6 173s-.1 0-.2 0-.2-.2-.3-.3c-1-1.6-1-1.7.7-2.6 5-2.7 9.9-5.3 14.9-8 3.7-2 7.5-4 11.3-6.1 5.1-2.8 10.2-5.5 15.3-8.2 3.7-2 7.4-3.9 11.1-6 2-1.1 3.9-2.5 5.8-3.8 3.2-2.2 6.4-4.4 9.7-6.5 3.1-2.1 6.1-4.2 8.9-6.7.4-.3.8-.9 1.4-.8 0 .5-.4.8-.7 1.1-1.2 1.2-2.3 2.4-3.5 3.6-.9.9-1.9 1.6-2.8 2.4-3.1 2.4-6.4 4.6-9.8 6.7-5 3.1-10 6.4-15.2 9.2-4.4 2.4-8.7 4.8-13.1 7.1-5.5 3-11 5.9-16.4 8.9-2.9 1.6-5.8 3.4-8.7 5.1-2 1.2-4 2.4-6.1 3.6-.6.4-1.2.7-1.9 1-.1.1-.3 0-.4.2z" fill="#eadfc1"/><path d="m123.2 124.1c-.9.5-1.6 1.2-2.4 1.8-1.1 1-2.3 1.9-3.5 2.8-.7.5-1.4 1-2.1 1.5-1.8 1.3-3.6 2.5-5.5 3.7-.9.5-1.7 1.1-2.5 1.7-.3.2-.6.5-.9.6-1.2.6-2.2 1.4-3.2 2.2-1 .7-2.1 1.4-3.1 2-.2.1-.4.2-.5.3-.5.6-1.2.9-1.8 1.2-3 1.6-6.1 3.3-9.1 4.9-.9.5-1.9 1-2.8 1.5-2.3 1.2-4.6 2.4-6.8 3.6-2.8 1.5-5.6 3-8.4 4.5-1.7.9-3.4 1.8-5 2.7-2.7 1.4-5.4 2.9-8.1 4.3-1.7.9-3.3 1.8-5 2.7-2.8 1.5-5.5 3-8.3 4.5 0 0-.2 0-.3.2-.2.1-.3.3-.1.5.2.3.4.6.5 1 0 .2.1.4.2.6 0 0 0 .1-.1.1-.7.5-.8.5-1.2-.3-.4-.6-.8-1.2-1.1-1.8.1-.3.5-.4.7-.5.2-.2.5-.3.8-.5 4.7-2.6 9.5-5.2 14.2-7.7 7-3.8 14-7.6 20.9-11.4 2.1-1.1 4.2-2.2 6.2-3.3 3.2-1.7 6.4-3.4 9.5-5.2.2-.1.3-.2.5-.3 2.7-1.4 5.3-3 7.8-4.7 2.2-1.5 4.5-2.9 6.7-4.3.9-.6 1.7-1.2 2.6-1.8.7-.5 1.4-1.1 2.2-1.6 1.1-.7 2.1-1.6 3.1-2.4.2-.2.4-.4.6-.5 1.4-.8 2.4-1.9 3.6-2.9.6-.5 1.2-1 1.8-1.4 0 0 .2-.1.3 0 .1 0 .2.2.1.4-.1.4-.2.8-.5 1.2z" fill="#e1bd69"/><path d="m42 168.4c.9-.3 1.6-.9 2.4-1.4 1.9-1.1 3.8-2.3 5.8-3.4 1.5-.8 3-1.6 4.5-2.4 3.2-1.6 6.3-3.3 9.4-4.9 1-.5 2.1-1.1 3.1-1.6 2.8-1.5 5.5-2.9 8.2-4.4 1-.5 2-1 2.9-1.6 1.1-.6 2.3-1.3 3.4-1.9s2.2-1.3 3.3-1.8c2.8-1.5 5.7-3 8.5-4.5 2-1.1 3.9-2.2 5.8-3.3s3.7-2.3 5.5-3.5c1-.6 2-1.3 3-1.8 1.4-.8 2.7-1.8 4-2.8 1-.8 2.1-1.6 3.1-2.4 1.3-1 2.6-2.2 3.7-3.4.2-.4.6-.6.9-1 1.1-.9 2.1-1.8 3.3-2.6.3.3.2.6.2.9 0 .2-.1.4-.3.5-.5.6-1.1 1.1-1.8 1.6-1.5 1.1-2.9 2.4-4.3 3.6-2.3 1.9-4.7 3.8-7.2 5.5-1.5 1-3.1 2-4.6 3-2.7 1.7-5.3 3.5-8.1 5.1-2.3 1.3-4.5 2.6-6.8 3.8-1.4.7-2.8 1.4-4.1 2.1-1.4.7-2.8 1.5-4.1 2.3-1 .6-2.1 1.1-3.2 1.7-4.9 2.4-9.7 5-14.5 7.7-3.6 2-7.3 4-11 5.8-3.6 1.7-7.1 3.6-10.5 5.5-.6.3-1.2.5-1.6 1.1-.3-.1-.3-.3-.3-.6.2-.6.7-.7 1.2-.8z" fill="#e2bd69"/><path d="m97 91.5s-.1 0-.2 0c-.2-.2-.3-.5-.3-.7 0-.3 0-.7 0-1 0-.5 0-1-.2-1.5 0-.1 0-.3 0-.4 0-1-.2-1.9-.4-2.9-.1-.7-.1-1.5-.3-2.2-.2-1.1-.4-2.3-.7-3.4-.3-.9-.5-1.8-.9-2.6 0 0 0-.1 0-.2 0-.2.2-.3.3-.3.2 0 .3 0 .5.1 1.4.7 2.9.9 4.4 1.2 1.3.3 2.7.1 4 .2.4 0 .8-.2 1.2-.2.3 0 .4.2.2.5s-.3.5-.5.7c-1.1 1.1-1.9 2.4-2.7 3.7-1 1.7-1.8 3.4-2.7 5.2-.5 1-.8 2-1.2 3-.1.3-.3.5-.4.8 0 0 0 0-.2.1z" fill="#282426"/><path d="m9.9 35.5c-.4.8-.7 1.6-.9 2.4 0 .4-.2.9 0 1.3.2.8.1 1.5.2 2.3v.3c-.2.7-.7 1.3-1.1 1.9-.2.3-.4.3-.8.1-.3-.2-.5-.3-.7-.5-.3-.2-.6-.5-.8-.9s-.4-.8-.6-1.3c0 0-.1 0-.2 0s-.1.1-.1.2v.1c0 .2.3.5 0 .7-.2.1-.4-.2-.6-.3-.8-.6-1.6-1.3-2.4-2-.8-.8-1-1.7-.8-2.7.4-2 1.2-3.8 2.2-5.6 0 0 .1-.2.2-.2.1-.1.2-.1.4 0 0 0 .2.1.2.2.5.5 1 .9 1.6 1.4v.2c-.2.3-.7.2-1 .5 0 0-.1.2 0 .3h.2c.5 0 .9-.1 1.4-.2.3 0 .6 0 .8.2.1 0 .2.2.3.2.4.3.7.7.6 1.3 0 .4 0 .8-.1 1.2v.5s.1.2.2.2c0 0 .2 0 .2-.1.2-.3.3-.7.3-1.1 0-.3 0-.5 0-.8.5 0 .8.3 1.2.5z" fill="#c06e40"/><path d="m92.3 103.1c.3-.3.3-.7.4-1.1.4-2.5 1-4.9 2-7.2.3-.7.4-1.4.1-2.2-.2-.6-.2-1.2-.3-1.8-.2-1.1-.1-2.3-.2-3.4 0-.8-.2-1.5-.4-2.3-.3-1.5-.6-2.9-1-4.4-.5-2.3-1.2-4.5-1.9-6.7 0-.2-.2-.4-.2-.7.2.1.5.2.7.3.3 0 .4.3.5.6 1.1 2.3 2 4.6 2.4 7.1.5 2.8 1 5.6 1.3 8.4.1 1.3.2 2.7.2 4 0 .5 0 .9-.2 1.4-1 3.1-1.7 6.3-2.3 9.5-.3 1.8-.4 3.5-.5 5.3 0 1.2-.3 2.5-.2 3.7.1 1.7 0 3.4.3 5v.5c0 .5 0 .6-.5.6-1.2.1-2.3.3-3.5.3-.9 0-1.7 0-2.6-.1-.8 0-1.6-.1-2.4-.2-.2 0-.5 0-.7-.1h1 6.4c.4 0 .8 0 1.2-.2.3-.1.4-.2.3-.5 0-.6-.2-1.1-.3-1.7-.1-.9-.3-1.7-.3-2.6 0-2.2 0-4.5 0-6.7 0-.4 0-.7.1-1.1 0-.2 0-.3 0-.5 0-.6 0-1.2.2-1.8 0-.3 0-.6-.4-.7 0-.4.2-.6.4-.8z" fill="#d9c591"/><path d="m77.4 23c-.3.2-.4-.2-.5-.3s0-.3 0-.5c.1-.2.3-.3.4-.4.6-.4 1.1-.7 1.8-.9 1.3-.4 2.5-.9 3.9-1.1.8-.1 1.7-.2 2.5-.3h2.4c1.4 0 2.8.3 4.1.8 1.4.5 2.7 1.4 4 2.1.5.3.9.6 1.4.8.9.4 1.6 1.1 2.4 1.7 2.3 1.7 4.2 3.8 6.2 5.7.9.9 1.6 1.8 2.4 2.7.6.6 1.3 1.2 2 1.7 1.2 1 2.4 2 3.7 2.8 1.5.9 3.1 1.6 4.9 1.9.9.2 1.9.1 2.8.2h2c.7 0 .7 0 .8-.8.3.7.2 1-.3 1.2-.9.4-1.9.7-2.9.8-2.5.2-4.9-.4-7.2-1.3-1.5-.6-2.7-1.6-3.8-2.8-1.2-1.3-2.3-2.8-3.4-4.2-1.1-1.3-2.3-2.5-3.7-3.5-1-.7-1.9-1.5-2.8-2.3-1.8-1.5-3.7-2.7-5.6-3.9-2.2-1.3-4.5-2.1-7-2.5-3.1-.6-6.1-.2-9.1 1-.3.1-.6.3-.9.5s-.5.4-.5.7z" fill="#cd9142"/><path d="m123.1 119.4c0 .2 0 .3-.2.4-1.1.7-2 1.7-3 2.4-.3-1.6-1.5-1.6-2.7-1.5-1.9 0-3.8 0-5.7 0-.4 0-.9 0-1.2.3-.6 0-1.1 0-1.7.1s-1.2 0-1.8 0c-.5-.6-1.2-.8-2-.7-2.9.2-5.9.3-8.7 1.3-.3 0-.5 0-.7.3-.1.3-.4.3-.7.3-.4 0-.8 0-1.2 0-.3 0-.6 0-.9.2-.4-.8-1.1-.9-1.9-.9-1.6 0-3.1 0-4.7 0-1.1 0-2 0-2.3 1.3-.9.3-1.8.2-2.6.2-.4 0-.8 0-1.1.2 0-.8.2-1.7.3-2.5-.7-.3-1.5-.3-2.2-.5-.5-.1-1-.2-1.5-.3-.2 0-.4-.2-.4-.4 0 0 0-.2 0-.3s.2 0 .3 0c.5.1 1 .2 1.5.4 1.5.4 3 .5 4.5.6 1.9.2 3.9.3 5.8.5h.9c2.3-.2 4.6-.3 6.8-.6.8-.1 1.5-.2 2.3-.3 1.8 0 3.5-.3 5.3-.5.8-.1 1.7-.2 2.5-.2 3.2 0 6.3-.1 9.5-.1h3.1c.6 0 1.3 0 1.9.2.6.1 1.3 0 1.9 0h.7z" fill="#d8c491"/><path d="m15.2 28.6c0 .2 0 .4-.2.5-.4.4-.7.8-1.2 1.1-.4.3-.7.7-1 1-.6.6-1.1 1.2-1.5 2-.1.2-.3.3-.5.4 0-.1-.2-.3-.3-.4-.3-.6-.5-.8.4-1 .5-.2.8-.5.6-.6-.3-.3-.6 0-.8 0-1 .5-1 .2-1.4-.4s-.7-1.2-.6-1.9c0-.2 0-.4 0-.6-.1-.3 0-.7-.4-.8-.2.3 0 .6-.1.8 0 .1 0 .3-.1.3-.6-.5-1.2-1.5-1.3-2.1 0-.4 0-.9.2-1.3.3-.7.8-1.3 1.3-1.9.7-.8 1.5-1.5 2.4-2.1.1 0 .3-.1.4 0 .7 1.1 1.6 2.1 2 3.3-.3.2-.6-.2-1 0 0 0-.1 0-.2.1v.2s.1.2.2.2c.2 0 .4.2.6.2.7.1 1.2.6 1.5 1.2.2.4.3.7 0 1-.1.3-.3.6-.5.9v.4c.2.1.3 0 .4 0 .2-.2.3-.5.4-.7.2-.3.2-.3.5 0 0 0 0 .1.1.2z" fill="#c06e40"/><path d="m22.6 25.2c0 .1-.2.2-.3.1-.2-.1-.5-.2-.7-.3-.8-.3-1.5-.3-2.2.3-.4.4-.8.9-1.3 1.3-.4.4-.8.7-1.3.8 0-.3 0-.6-.1-.9.3 0 .6-.2 1-.3.2 0 .3-.2.2-.4 0-.1-.2-.2-.3-.2-.2 0-.5 0-.7.1-.2 0-.4 0-.5-.3-.2-.6-.4-1.2-.2-1.8s.3-1.2.2-1.8c0 0-.1-.1-.2-.2 0 0-.1 0-.1.1 0 .3-.2.6-.2 1-.2-.1-.2-.3-.3-.5-.2-.9-.4-1.8-.6-2.7-.2-.7 0-1.2.6-1.6 1.1-.8 2.3-1.5 3.7-1.7.5 0 .6 0 .8.4.7 1.7 1.4 3.3 1.8 5.1.3 1.1.6 2.3.9 3.4z" fill="#c06e40"/><path d="m106.9 68.8c0 .7-.1 1.4-.1 2.1 0 1.1.1 2.2.3 3.3.3 1.4.2 1.2-.9 1.9-1.3.7-2.6 1-4 1-2.4 0-4.7-.4-6.9-1.2-.5-.2-.9-.4-1.4-.6-.2-.1-.4-.2-.5-.4 0-.1-.2-.3-.1-.5 0-.2.3 0 .4 0 .7.1 1.4.3 2.2.3 1.9.1 3.7-.2 5.4-1.1 1.6-.9 3-1.9 4.3-3.2.5-.5.8-1 1.3-1.6z" fill="#d5895c"/><path d="m41.9 168.4c-.4.3-.8.5-1.2.8-.2-.3-.4-.7-.6-1-.8-1.5-1.6-3-2.3-4.6-.7-1.5-1.5-2.9-2.2-4.4-.8-1.6-1.5-3.2-2-4.8-.2-.7-.5-1.5-.8-2.2-.2-.7-.1-1.2.5-1.5.9 1.9 1.8 3.9 2.7 5.8.5 1 .9 2.1 1.4 3.1.6 1.3 1.2 2.6 1.8 3.9.5 1.2 1.2 2.4 1.9 3.5.3.5.4 1 .8 1.4z" fill="#d8c491"/><path d="m151.5 174.2c-1.2-1.5-2.1-3.1-3.2-4.7-.8-1.3-1.6-2.7-2.5-4-.6-.9-1.1-1.8-1.6-2.8-.7-1.1-1.3-2.2-2-3.3-.5-1-1-1.9-1.5-2.9-.4-.8-.8-1.7-1.3-2.5 0-.2-.2-.3-.4-.4.2-.3.4-.5.7-.8.7 1.2 1.5 2.4 2.2 3.6 2.6 4.6 5.3 9.2 8.1 13.8.4.6.8 1.3 1.1 1.9.3.5.5.9.8 1.4.1.3.1.3-.2.5 0 0-.1 0-.2 0z" fill="#d8c592"/><path d="m113.6 11.8c-.3 1-.3 2 .3 2.9-.4.3-.8.3-1.2.6-.3.2-.7.5-.9.7-.3.3-.6.6-.9 1-.4-.2-.6-.5-.9-.8-.6-.6-1.3-1.1-2-1.5-.4-.2-.6-.2-.9.2-.3.3-.5.6-.8.9 0 .1-.2.2-.2.3 0 .4-.2.5-.5.7-.1 0-.3.2-.4.3-.1 0-.2-.2-.3-.3-.2-.1-.4-.2-.4-.4 0-.3 0-.5 0-.8 0 0 0-.1.1-.1.8-.1 1.1-.8 1.5-1.3.9-1.3 1.8-2.6 2.4-4.1 0-.1.1-.2.2-.3 2.1 1.8 2.2 1.8 4.8 2.1z" fill="#e0bc67"/><path d="m29 28c.4 1.4.3 2.9.2 4.4 0 .6-.2 1.2-.5 1.7-.4.7-1.2.8-1.8.3-.3-.2-.5-.5-.7-.8-.7-.9-1.2-1.9-1.7-3-.6-1.4-1.1-2.9-1.5-4.3 0 0 0-.2 0-.3.1-.2.3-.1.4 0 .3.2.5.4.8.6.4.2.8.6 1 1 0 .1.1.3.2.4-.4 1 0 1.6.9 1.8.5 0 .9.3 1.5.1-.2-.6-.7-.8-1.2-1.1-.3-.2-.7-.1-.7-.6 0-.2.3-.2.4-.2h.2c.2.3.5.2.8.2.2-.1.3 0 .4.2 0 .1.2.2.3 0 .2-.3.5-.4.8-.5z" fill="#271c18"/><path d="m37.7 50.7c-2.7 3-5.1 6.2-7.4 9.5-.3-.4-.6-.8-.9-1.1-.2-.2-.1-.4 0-.5.3-.6.7-1.1 1-1.7 1.5-2.3 3.2-4.5 5-6.7.2-.3.4-.5.6-.8.2-.2.3-.2.5 0 .4.4.7.9 1.2 1.3z" fill="#d4895c"/><path d="m91.5 58.4c.3.3.3.4 0 .6-.4.3-.9.4-1.4.6-.6.3-1.3.5-1.9.6-1.3.2-2.5-.2-3.6-.9-.3-.2-.5-.5-.8-.7-.1-.1-.3-.2-.5-.4 0 0 0-.1 0-.2s0-.2-.1-.2c-.3.1-.4.3-.6.5-.3.5-.6 1-.8 1.6-.4 1.6-.6 3.1-.3 4.7 0 .1 0 .3-.2.3-.3 0-.7.1-1-.1.1 0 .4 0 .3-.3-.4-1-.3-2-.1-3 .3-1.6 1.1-3 2.3-4.2 0 0 .2-.2.2-.3h.5c2.4 1.4 5.1 1.5 7.8 1.4z" fill="#b55736"/><path d="m40.5 50.2c-.4.2-.7.6-1 .9-.4.4-.8.9-1.3 1.2-.2 0-.3.3-.4.4-.4.7-1 1.1-1.5 1.7-1.1 1.3-2.3 2.5-3.1 4-.8 1.4-1.7 2.6-2.5 4-.6.9-1 1.9-1.5 2.8-.3-.1-.5-.4-.4-.7.1-.5.3-.9.5-1.3 1.2-2 2.4-4.1 3.9-5.9 1.4-1.8 2.7-3.6 4.2-5.3.7-.8 1.4-1.5 2.1-2.3.1-.1.2-.2.4-.3.3.2.5.5.7.8z" fill="#d7c592"/><path d="m27.4 24c-.4 0-.7-.2-1-.3-.9-.4-1.9-.7-2.9-.8-.3 0-.4-.2-.5-.4 0 0 0-.1 0-.2-.3-1-.6-2-.9-3.1.6 0 1 .3 1.5.5 1 .4 1.9.8 2.8 1.4.4.3.8.7.8 1.2s.4 1.1.3 1.7z" fill="#7c4f3c"/><path d="m168.6 88.6c-.2.1-.3.2-.4.5 0 .4-.2.8-.4 1.1-.8 1.8-1.8 3.6-3 5.2-.5.7-1 1.3-1.6 1.9-.3.3-.6.6-1.1.8-.1-.1-.2-.3-.3-.4 0-.1 0-.3 0-.4 0 0 .2-.1.2-.2 1.1-.9 1.9-2 2.6-3.2.5-.8 1-1.7 1.5-2.5s.9-1.6 1.1-2.4c0-.3.2-.6.3-.8.4.1.7.2.9.5z" fill="#b55837"/><path d="m2.5 41.9c.4 0 .5.2.7.3.7.5 1.4 1.1 2.2 1.6.7.4.9 1.1.9 1.9 0 .5-.3.7-.8.5-.4-.1-.8-.2-1.2-.3-.3 0-.5-.2-.7-.5-.6-1.1-.9-2.3-1.2-3.6z" fill="#7c4f3c"/><path d="m102.6 35.3c-.2.2 0 .3.1.4.7.8 1.3 1.7 1.6 2.8.8 3.4-.8 6.5-3.4 7.7-1.7.7-3.3.5-4.7-.8 0-.2.3-.3.5-.3 3.5 1.7 7.1-.6 7.2-4.5 0-1.4-.1-2.7-1.1-3.9-.4-.4-.8-.8-1.4-.9 0-.3 0-.4.3-.5-.2-.3-.9.1-1-.6.2 0 .4 0 .5-.2.5.2 1.1.4 1.5.8z" fill="#484133"/><path d="m15.1 25.1c0 .2-.1.4-.3.5-.2 0-.4 0-.5-.2 0-.1-.1-.2-.2-.3-.5-1-1.1-2.1-1.7-3.1-.3-.4-.2-.6.2-.8.3-.2.6-.3.9-.4.4-.2.6 0 .7.3.3 1.3.6 2.5.9 3.8v.3z" fill="#7b4e3c"/><path d="m8.1 31.9c0 .4-.3.7-.6.4-.9-.6-1.8-1-2.5-1.8-.3-.3-.3-.4 0-.7.2-.3.3-.6.5-.8.5-.7.5-.7.9 0 .5.7.9 1.3 1.4 1.9.3.4.4.6.4 1z" fill="#7b4e3c"/><path d="m159.1 96.5c.5 0 .7-.4 1-.7 1.3-1.6 2.3-3.4 3.4-5.2.5-.8.9-1.6 1.3-2.5.1-.3.2-.6.6-.8 0 .8-.4 1.5-.7 2.2-1.1 2.2-2.3 4.2-3.7 6.1-.2.2-.4.5-.6.7-.6.7-.6.8-1.3 0z" fill="#d7c290"/><path d="m108.2 37.7c-.3-.1-.5-.4-.7-.7-.3-.6-.7-1-1.2-1.3-.5-.4-1-.8-1.6-1.1-.2-.1-.4-.2-.6 0-.4-.2-.8-.5-1.2-.7 0 0-.1-.2-.1-.2s.1-.2.2-.2c.8-.2 1.6 0 2.3.4 1.1.6 2 1.5 2.6 2.6.2.4.3.7.2 1.2z" fill="#b35837"/><path d="m97.6 33.6c-.2 0-.4 0-.3-.3.4-.8.3-1.6.5-2.4.1-.6-.2-1-.5-1.4-.2-.2-.4-.2-.6-.2-.7 0-1.5 0-2.2 0 .8-.9 1.8-.9 2.9-.8.3 0 .5.3.7.5.5.9.6 1.8.3 2.7-.2.7-.4 1.3-.7 2z" fill="#b45837"/><path d="m26 28.2c.2.3.6.3.9.4.4.2.8.5 1.1.9.1.1.2.3.2.4 0 .3-.1.4-.4.4-.7-.1-1.4-.3-2.1-.3-.3 0-.4-.1-.5-.4s-.2-.6-.3-.9c-.2-.5-.1-.6.5-.7.1.2.4.2.6.2z" fill="#5a2c21"/><path d="m26.6 28s-.1 0-.2 0-.2-.2-.3-.2c-.3-.1-.5-.3-.5-.7 0-.9-.2-1.7-.4-2.6 0 0 0-.2 0-.3 0-.2.1-.3.3-.2.6 0 1.1.5 1.1 1.1.1.8.2 1.6.4 2.5 0 .3 0 .4-.4.5z" fill="#7a4e3b"/><path d="m88.3 30s0-.1-.1-.1c-.5-.2-.6-.6-.3-1.1 0 .3.2.4.5.4.6 0 1.2.2 1.8.3.9.2 1.7.6 2.5 1.1.5.3 1 .7 1.6.9 0 .2-.1.4-.4.3-.4-.1-.7-.3-1.1-.4-.3-.1-.6-.3-.9-.3-.3.1-.6-.1-.8-.2-.8-.6-1.8-.3-2.6-.8z" fill="#b25736"/><path d="m25.2 27.6c-.5-.2-.8-.5-1-1-.2-.7-.4-1.4-.6-2.1 0-.3-.2-.5-.2-.8 0-.2 0-.3.2-.3.4 0 .7.1 1 .3.2 0 .2.3.2.4.1.8.3 1.6.4 2.4 0 .3.1.5.2.8 0 .1 0 .3-.2.3z" fill="#7a4e3b"/><path d="m98.9 33.3c-.2 0-.4 0-.7 0 .7-.7 1.5-1.1 2.4-1.3.8-.2 1.5.3 1.6 1.1 0 .3-.1.5-.4.4-.4-.1-.8-.3-1.1-.4s-.6-.1-1-.1-.6.2-.9.4z" fill="#af5736"/><path d="m27.9 28.4c-.1 0-.3-.1-.4-.2-.1-.8-.3-1.7-.4-2.5 0-.2 0-.4 0-.6 0 0 0-.2.2-.2 0 0 .2 0 .3.1.2.2.3.4.3.6 0 .7.2 1.4.2 2.2 0 .2 0 .5-.2.6z" fill="#764c3a"/><path d="m93.1 28.7c0 .9 0 .9-.8.7-.8-.3-.9-.6-.4-1.3.2-.2.3-.4.6-.4s.5.3.6.6v.5z" fill="#b36542"/><path d="m86.1 27.8c-.7 0-1.3.4-1.9.8-.2 0-.3.2-.5.2.4-.9 1.1-1.6 2-2 .1 0 .2-.1.4-.1s.4.1.4.3c0 .3 0 .6-.3.8z" fill="#b05938"/><path d="m9 46.9c-.3-.1-.7-.2-1.2-.2-.2 0-.4-.2-.6-.4-.2-.3 0-.9.4-.9h.2c.5.3 1 .7 1.5 1 .1 0 .2.2 0 .3 0 .1-.2.1-.5.1z" fill="#764c3a"/><path d="m90.3 28c-1.1-.2-2.1-.4-3.2-.4.4-.4.9-.5 1.4-.6.8 0 1.4.2 1.8.9z" fill="#ad5a38"/><path d="m44.6 173c0-.1.2-.2.4-.2 0 .1-.2.2-.4.2z" fill="#e1bd69"/><path d="m103.4 35.7c-.2 0-.3 0-.4-.2.2 0 .3 0 .4.2z" fill="#484133"/><path d="m99.2 33.8c-.2 0-.2-.2-.2-.4.1.1.2.2.2.4z" fill="#af5736"/><path d="m83.4 58.2s-.1.1-.2.2c0-.1 0-.2.2-.2z" fill="#b55736"/><g fill="#484133"><path d="m104.6 36.5s-.2-.1-.2-.2c.1 0 .2 0 .2.2z"/><path d="m104.2 36.2c-.1 0-.2 0-.2-.2 0 0 .1.1.2.2z"/><path d="m104 36.1s-.2-.1-.3-.2c.1 0 .2 0 .3.2z"/><path d="m103.6 35.9c-.1 0-.2 0-.2-.2.1 0 .2 0 .2.2z"/><path d="m103 35.5s-.2-.1-.3-.2c.1 0 .2 0 .3.2z"/></g><path d="m111.2 95.3s.1-.1.2-.2c0 .1 0 .2-.2.2z" fill="#36372c"/><path d="m96.1 121.8c0-.3 0-.5.4-.6 1.1-.2 2.2-.4 3.2-.6 1.9-.3 3.9-.4 5.9-.4s.3 0 .5 0c.3 0 .4.1.5.4 0 .2 0 .4.1.6 0 .5 0 1.1-.2 1.6 0 .6 0 .6-.7.6-.2 0-.5 0-.7 0-2.2 0-4.5.2-6.7.4-.7 0-1.4.2-2.1.3-.2-.3 0-.7-.1-1 0-.5 0-.9-.2-1.4z" fill="#303127"/><path d="m83.8 123.1c0-.3 0-.7 0-1 0-.6 0-.6.6-.6h7.2.4c.5 0 .6.2.6.7v.5c0 .5-.1 1.1-.2 1.6 0 .4-.2.5-.6.6-.3 0-.5 0-.8 0-.8 0-1.6 0-2.4 0-1.5-.1-3.1-.2-4.6-.1-.4 0-.4 0-.4-.5 0-.4.1-.8 0-1.2z" fill="#2f3025"/><path d="m110.2 121s0-.2 0-.3c0-.2 0-.3.2-.3h.9 7.8c.5 0 .5 0 .6.5 0 .5.1.9.2 1.4-.2.4-.6.7-1 .8-1.7 0-3.3 0-5 0-.9 0-1.8 0-2.7.1-.2 0-.4 0-.4-.3s-.1-.5-.2-.8c-.1-.4-.1-.8-.4-1.1z" fill="#303228"/><path d="m88.3 30h.5c.9 0 1.6.2 2.3.6 0 .2 0 .3-.2.3 0 0-.1 0-.2 0 0 0-.1 0-.2 0 0 0 0 0-.1 0s0 0 .1.1c0 0 0 .1.1.2.8 2.3.1 4.3-.9 6.4-.1.2-.6.4-.2.7.1 0 .3.2.2.4-.6.4-1.3.7-2 1s-1.5.6-2.2.8c-.3.1-.7.3-.9.6-.6.6-.6 1.3 0 1.9.3.3.7.6 1.2.7 1.1.4 2.2.4 3.2 0 1-.3 1.9-.6 2.8-1.1 0 0 .1-.1.2-.1h.1c.1 0 .2 0 .2.2v.3c0 .1 0 .2-.2.2-1.8 1.4-3.8 1.7-6 1.4-.6 0-1.1-.2-1.4-.8-.2-.2-.4-.4-.6-.6-.8-.9-.7-2.1.3-2.8.3-.2.6-.3.9-.5.1 0 .2-.1.3-.2 0-.2-.3-.3-.5-.4-1-.7-1.5-1.7-1.6-2.9-.4-3.2 1.8-5.8 4.1-6.4.1 0 .3 0 .4-.2h.2z" fill="#412121"/><path d="m99.2 50.8c-.2-.4-.8-.5-1-.9h.1c1.1.4 2 1.1 2.7 2.1.2.2.3.5.4.7.2.5.2.8 0 .8-.4 0-.3-.4-.4-.6 0 0 0-.2-.1-.3-.2-.3-.3-.8-.7-.8-.3 0-.4.4-.5.7-1 1.5-2.4 2.4-4 3.1-1.5.6-3.1 1-4.7 1.2-.8.1-1.7.2-2.5.2-1.3 0-2.4-.5-3.4-1.3-.4-.3-.8-.7-1-1.1-.4-.8-.5-1.5 0-2.3.4-.7.8-1.5 1.2-2.2.2-.4.3-.8.3-1.3 0-.4-.2-.6-.5-.8s-.5-.3-.8-.4c-.4-.2-.8-.6-1.2-.9-.4-.4-.3-.9.1-1.2.5-.4 1-.4 1.5 0v.2s-.1 0-.2 0c-.2 0-.5 0-.7-.1-.3 0-.5.1-.6.3-.2.2-.2.4 0 .6.1.1.3.3.4.4.3.2.6.4.9.6 1.4.7 2.8 1.4 4.3 2 2.4 1 5 1.6 7.6 1.8.8 0 1.7.1 2.5 0 0 0 .2 0 .2-.2z" fill="#313228"/><path d="m96.5 45.1c-.2 0-.3.1-.5.2-1.6-1.3-2-3.1-1.9-5.1.1-1.3.6-2.5 1.4-3.6 1-1.4 2.4-2.1 4.1-2.1h.8c0 .2.3.2.4.2.2 0 .4 0 .6.3-.3.2-.3.3-.2.5.5.2.5.6.5 1 0 3.5-1.5 6.1-4.2 8.2-.3.2-.6.4-1 .3z" fill="#412121"/><path d="m120.7 51.6c-1 .3-2 .7-2.8 1.4-.2.2-.5.1-.6-.2 0-.2-.1-.3-.2-.5 1.3-1 1.6-2.5 1.5-4 0-.3-.1-.6-.2-.9 0-.5.1-.8.6-.9.7-.1 1.5-.2 2.1.4.6.7 1 1.4.8 2.4-.2.8-.8 1.5-1.1 2.2z" fill="#b55736"/><path d="m120.7 51.6c-.1 0-.2-.2-.1-.3 0-.1.2-.3.3-.4.4-.5.7-1 .7-1.6.1-.9-.2-1.6-.8-2.3-.2-.2-.4-.3-.7-.3s-.7 0-1 0c-.5 0-.6.2-.4.6.4 1.2.3 2.4-.1 3.5-.1.4-.3.7-.6 1.1-.2.3-.5.5-.9.4 0-.2.1-.3.2-.4.9-1.4 1.1-2.8.6-4.4 0-.3-.3-.5-.3-.9.3 0 .6 0 .9-.2.3-.1.6-.2 1-.2 1.1 0 1.8.4 2.3 1.3.6 1.2.3 2.3-.4 3.4-.2.2-.4.4-.6.6z" fill="#3f2b20"/><path d="m84.7 43.9c1.6.9 3.3.8 5 .3.7-.2 1.3-.5 1.9-.8.2 0 .3-.1.5-.2-.5.9-1.4 1.4-2.3 1.8-.5.2-1 .4-1.5.4-1 .1-2.1-.2-3-.6-.4-.2-.6-.5-.5-1z" fill="#b45837"/><path d="m91.5 58.4c-.1.2-.3.2-.5.2-1.6 0-3.3 0-4.9-.4-1-.3-1.9-.7-2.8-1.2-.2-.3-.5-.5-.7-.8-.7-.9-.7-1.9 0-2.9.2.2 0 .4 0 .6-.3.8 0 1.4.5 2 .3.4.7.7 1.2.9 1 .5 2 .9 3.1 1.1 1.2.2 2.3.2 3.5.2.3 0 .6-.1.8.2z" fill="#452f23"/><path d="m90.7 30.8c.1 0 .3 0 .4-.2.2.1.4.3.6.4.5.7 1 1.5 1.1 2.4.2 1.2 0 2.4-.7 3.4-.2.2-.4.4-.6.6-.5.4-1 .9-1.7 1.2 0-.2-.2-.2-.4-.2 0-.5.4-.6.7-.7 2.9-1.3 2.7-4.7 1.1-6.3-.2-.2-.5-.3-.3-.6z" fill="#534839"/><path d="m88.1 30.1c-.1.1-.3.2-.4.2.1-.2.2-.2.4-.2z" fill="#b25736"/><path d="m117.7 46.7c-.1 0-.2 0-.2-.2.1 0 .2 0 .2.2s0 0 0 0z" fill="#3f2b20"/><path d="m117.5 46.5s0 0 0 0z" fill="#3f2b20"/><path d="m92.1 43.3s.1-.2.2-.2c0 .1 0 .2-.2.2z" fill="#b45837"/><path d="m91.9 42.6s-.2 0-.2.1c0 0 .1-.2.2-.1z" fill="#b45837"/><path d="m92.3 42.7s-.1-.1-.2-.2c.1 0 .2 0 .2.2z" fill="#b45837"/><path d="m22.9 57.9c-.8 0-1.5-.2-2.1-.5-.3-.2-.7-.3-1-.4-.4-.2-.8-.2-1.3 0-.2 0-.4 0-.6.2-.9.3-1.7.1-2.5-.4-1.8-1.2-1.8-1.2-4-1.3-.6 0-1.2-.2-1.7-.6-.9-.7-1.8-1.3-2.9-1.4 0 0-.2 0-.1-.2 0 0 .1-.1.2-.1h.7c.8.2 1.5.5 2.1 1 .7.6 1.5.9 2.4.9 1.2 0 2.2.3 3.1 1 .2.2.5.3.7.5.5.4 1.1.4 1.7.3.1 0 .3 0 .4-.1.9-.4 1.8-.2 2.7.2.5.3 1.1.5 1.7.6.5.1 1 0 1.5 0 .1 0 .3 0 .3.2s-.1.2-.3.3c-.3 0-.7 0-1 0z" fill="#393629"/><path d="m32.6 26.4c.2-.4 0-.7.1-1 0-.4.1-.9.4-1.2h.2s.1 0 .1.1v.3c-.2.7-.1 1.4-.1 2.1 0 .3 0 .6.3.8.5.4.9 1 1.5 1.3.1 0 .2.2.3.3v.2s-.1.2-.2.2-.3 0-.4-.1c-.3-.1-.5-.4-.8-.6-.2-.2-.3-.4-.7-.5v1.1 1 .8s-.1.2-.2.2-.3 0-.3-.2c0-.3 0-.5 0-.8 0-.8 0-1.6 0-2.4 0-.4-.1-.6-.4-.9s-.6-.5-.9-.8v-.2s.2-.1.2 0c.3.1.6.3 1 .5z" fill="#383529"/><path d="m33.9 38.6c-.1.5-.3.9-.4 1.4 0 .2 0 .3-.2.4 0 0-.2 0-.3 0 0 0-.1 0-.1-.1s0-.3 0-.4c.1-.5.3-1.1.4-1.6.1-.4 0-.6-.2-.9-.3-.5-.6-.9-1-1.4 0-.1-.2-.2 0-.3h.4c.3.3.6.6.8 1 .2.2.3.2.4 0 .3-.9.7-1.7 1-2.6 0-.1.1-.2.2-.3h.2v.2c0 .2 0 .5-.1.7-.2.7-.4 1.4-.7 2.1-.3.8-.2 1.4.4 2 .2.2.4.4.5.6v.4c-.1 0-.3.1-.4 0-.2-.1-.3-.3-.5-.5s-.2-.4-.6-.5z" fill="#393629"/><path d="m11.8 46.9c0-.2 0-.3.3-.3.5.1 1 .2 1.5.3.6.2 1.2.2 1.8.2h.3s.2 0 .2.2c0 .1 0 .2-.1.2-.2.1-.4.2-.6.2-.3 0-.5 0-.8 0-.9-.2-1.8-.4-2.6-.9z" fill="#36221b"/><path d="m21.7 37.4c-.4-.2-.6-.6-.8-.9-.6-1.1-1.3-2.3-2.1-3.3-.5-.6-1.1-1.3-1.6-1.9 0 0-.1-.2 0-.3.1-.2.3 0 .3 0 .4.3.7.6 1 1 .7.8 1.4 1.6 2 2.5.5.8 1 1.6 1.3 2.6v.3z" fill="#2e1e19"/><path d="m17.7 40.6s-.1 0-.2 0c0 0-.2 0-.3-.1-.2-.2-.3-.3-.5-.5-1.1-1.3-2.5-2.4-3.9-3.4-.2-.2-.4-.3-.5-.6 0 0 0-.1 0-.2s.2 0 .2 0c1.8 1.2 3.6 2.5 5 4.3 0 .1.2.2.1.4z" fill="#301e19"/><path d="m21 25.5s.2 0 .2.1c.4.3.7.8.9 1.3.4 1.2.8 2.5 1.4 3.6v.2s0 .2-.1.2c0 0-.1 0-.2 0-.3-.2-.5-.5-.6-.8-.4-.8-.7-1.7-1-2.6-.2-.7-.4-1.3-.8-1.8 0 0 0-.2.1-.3z" fill="#2b1d18"/><path d="m24.5 33.3s.2 0 .2.1c.3.3.5.5.8.8.3.2.6.5.8.7.4.4.9.4 1.4.4 0 0 .2 0 .2.1s0 .3-.1.3c-.3.2-.6.4-.9.2-1.1-.5-2.1-1.1-2.5-2.3 0 0 0-.2 0-.3s0 0 .1-.1z" fill="#2d1d18"/><path d="m3.7 33.4c0 .6-.1 1.1-.6 1.6-.3.3-.4.7-.4 1.1 0 .3 0 .7-.2 1 0 0-.1.1-.2.1s-.2-.1-.2-.2c0-.3 0-.5 0-.8 0-.6.2-1.1.6-1.6.3-.3.5-.7.4-1.2 0-.3 0-.6.3-.8h.2c.1 0 .2.1.2.2v.7z" fill="#423a2b"/><path d="m7.8 26c.1-.3.5-.4.5-.7s.2-.5.3-.7c.2-.8.9-1.1 1.5-1.5h.3v.3c-.1.2-.3.4-.5.5-.5.2-.7.7-.9 1.1-.1.2-.2.5-.4.7-.2.3-.4.4-.8.3z" fill="#3e372a"/><path d="m16.2 19.4s-.1 0-.2-.2c0-.1 0-.2.1-.2.3 0 .4-.3.5-.5.2-.6.7-.8 1.2-.9.3 0 .6-.2 1-.2h.2v.2c0 .2-.2.4-.5.5 0 0-.2 0-.3 0-.7 0-1.1.2-1.3.8 0 .1-.2.2-.3.3s-.3.1-.5 0z" fill="#41382a"/><path d="m108.2 13.5c.3-.6.6-1.1.9-1.6 0-.1.2-.2.3-.1.9.5 1.7 1 2.5 1.6.1.1.2.3 0 .4-.3.5-.6 1-1.1 1.3-.3.3-.5.2-.8 0-.6-.5-1.3-1.1-1.9-1.7z" fill="#323329"/><path d="m96.5 45.1c.7-.3 1.3-.7 1.8-1.2 1.5-1.5 2.6-3.3 3.1-5.4.2-.7.2-1.4.1-2.1 0-.3 0-.5-.2-.8 0-.1.2-.2.3-.2.5.3.9.7 1.3 1.1.4.6.8 1.2.9 1.9.5 2.4 0 4.5-1.7 6.3-.8.8-1.7 1.2-2.8 1.3-1 .1-1.9-.1-2.7-.7 0 0 0-.1 0-.2z" fill="#e5ded5"/><path d="m99.4 98c0-.9.9-2.9 1.6-4.1.1 0 .2 0 .2.2.3 1.1.6 2.3.8 3.4 0 .3 0 .5-.3.5-.8 0-1.5 0-2.3 0z" fill="#e5dcbe"/><path d="m89.3 96.8c-.6 0-.9-.4-1.5-.5-.2 0-.8 1.1-.8.8 0-1.1.3-3.6.4-4.7 0-.2.1-.3.3-.3 1.2.2 2.4.4 3.5.8.7.2 1.1.7 1.1 1.6v.1c-.3 1.3 0 2.5-1.5 2.5-.5 0-1.1-.3-1.5-.3v-.1z" fill="#e9dfc1"/><path d="m78.4 95.9c-.6 0-1.1 0-1.7 0-.3 0-.4-.1-.4-.4 0-.9.1-1.7.2-2.6 0-.2 0-.3 0-.5 0-.3 0-.7.2-.9.3-.3.8-.4 1.2-.4 1.1 0 2.1.2 3.2.4.4 0 .5.2.5.7 0 .6-.1 1.1-.2 1.7 0 .3-.1.7-.2 1-.1.6-.5.9-1.1 1-.3 0-.7 0-1 0s-.5 0-.8 0 0 0 0 0z" fill="#eae0c2"/><path d="m90.7 30.8c.3.3.7.6.9.9.7.9.9 2 .8 3.1-.1 1.3-.8 2.3-2 2.9-.4.2-.9.4-1.2.7-.2 0-.3.1-.5.2-.2-.2 0-.3.1-.4.9-1.2 1.5-2.5 1.7-4 .2-1.1.2-2.2-.3-3.2 0 0 0-.2-.1-.2s0-.1 0-.2h.2.1c.1 0 .2 0 .3.2s0 0 0 0z" fill="#e3dcd3"/><path d="m90.3 30.6s-.1.1-.2.2c-.1 0-.2-.1-.1-.3.1-.1.2 0 .3 0z" fill="#534839"/><path d="m90.1 30.8c.1 0 .1.1.1.2-.1 0-.2-.1-.1-.2z" fill="#534839"/><path d="m90.7 30.8c-.1 0-.2 0-.3-.2.1 0 .2 0 .3.2z" fill="#534839"/><path d="m89.1 56.4c-1.4 0-2.7-.3-3.9-1.2-.4-.3-.8-.7-1-1.2-.1-.3-.1-.6 0-.8 0-.1.2-.3.3-.4 1.7-1.2 3.6-1.6 5.6-.8 1.2.5 2.2 1.1 3.2 1.9.2.1.4.3.5.5.6.8 1 .9-.4 1.3-1.2.3-2.4.5-3.5.7-.3 0-.6 0-.9 0z" fill="#aa4445"/></svg>