<svg fill="none" viewBox="0 0 682 330" xmlns="http://www.w3.org/2000/svg" xmlns:xlink="http://www.w3.org/1999/xlink"><clipPath id="a"><path d="m0 0h653.581v283.922h-653.581z" transform="matrix(-.997533 .0702032 .0702032 .997533 652.031 .699219)"/></clipPath><g fill="#f6ead8" opacity=".11"><path d="m285.214 94.077c.265.6471.422 1.324.434 2.0112-.005.4442.064.9054.058 1.3496-.555-.6267-1.324-1.1718-2.519-1.5537-.072-.5053-.144-1.0107-.216-1.5161 1.016-.6041 1.443-1.2778 1.65-1.9803.185.5639.371 1.1279.593 1.6893z"/><path d="m503.938 65.4155c-.325 1.7565-.587 3.5085-.917 5.1911.267-1.6781.528-3.4301.917-5.1911z"/><path d="m67.4112 221.79c.3985-.028.8132-.111 1.2118-.139.0037.054.0075.107.0113.161.0999 6.542 1.3015 13.087.6623 19.654-.1978 2.027.1262 4.071 1.4203 5.671-.8606.007-1.6994.039-2.56.046 1.1055-8.479 2.0714-16.948-.7258-25.394z"/><path d="m69.3051 241.484c1.2135-6.587-.372-13.084-.283-19.619-.0037-.054-.0075-.107-.0112-.16.6978-.049 1.3919-.152 2.0879-.227.3107 2.68.6517 5.359.9319 8.041.5962 5.872-.7001 11.716-.8056 17.583-1.9064-1.525-2.3256-3.583-1.9503-5.616z"/><path d="m67.4761 221.732c.1219-.008.2235-.016.3453-.024 2.8443 8.506 1.8525 17.039.7185 25.582-.2147-1.31-.614-2.634-.6459-3.956-.1805-7.207-.278-14.392-.4179-21.602z"/><path d="m285.016 89.603c.037.916.131 1.8542.001 2.7557-.952-3.7386-1.412-7.538-1.708-11.349.371-1.3908 1.074-2.7526 2.277-4.0707-.668 4.2199-.703 8.4217-.542 12.6621z"/><path d="m282.567 81.0194c.273 3.5654.683 7.1213 1.499 10.624-.106.7685-.35 1.4978-.966 2.1304.295-4.2193-1.517-8.6095-.535-12.7788z"/><path d="m103.867 244.59c-.834.142-1.701.258-2.535.4.755-2.598 1.134-5.198 1.327-7.784.266 2.444.689 4.903 1.206 7.356z"/><path d="m102.709 228.23c-.172-2.443-.347-4.917-.519-7.361-.006-.087-.014-.203-.02-.29l1.281-.003c-.433 2.545-.662 5.105-.742 7.654z"/><path d="m100.135 220.721c.69-.021 1.352-.041 2.042-.063.006.079.014.186.019.265.157 2.23.316 4.485.473 6.715-.346 3.278-.26 6.553.086 9.836-.17 2.492-.513 4.997-1.201 7.499-1-8.065-1.339-16.149-1.419-24.252z"/><path d="m101.94 227.645c.203-2.373.642-4.763 1.32-7.143 0 0 .052-.004.078-.006 1.047 8.116.43 16.24-.16 24.363-.46-2.408-.815-4.824-1.089-7.218.189-3.322.06-6.648-.149-9.996z"/><path d="m102.711 228.23c.209 2.976.141 5.996-.547 9.01-.491-2.98-.42-5.975.547-9.01z"/><path d="m90.0215 84.3265c.41 1.0332.82 2.0663 1.2617 3.0707.3764 1.0355.2814.6439.7492 1.5403.4155 1.5903.7992 3.2094 1.2147 4.7997-1.1414 1.514-1.6078 3.0336-1.8038 4.5608-.3608-4.6474-1.0927-9.2953-1.4236-13.9979z"/><path d="m90.4363 108.432c-.4333-7.025-.8363-14.0522-1.1179-21.0878-.0711-1.0102.6188-2.0485.9442-3.0612.3146 4.47.9649 8.9417 1.3384 13.3821-.1828 1.7387.031 3.4749.2447 5.2109.0028 2.208-.1176 4.399-.5114 6.609.9171-2.145.7303-4.366.5114-6.609.0006-1.726-.0917-3.4705-.2447-5.2109.1417-1.4566.5887-2.9093 1.6162-4.352-.3361 6.0638 1.071 12.1829-1.7696 19.0829-.5012-1.919-.9384-2.929-1.0113-3.964z"/><path d="m70.5112 98.5481c.5796-3.905 1.1592-7.8101 1.7388-11.7151-.2314 5.1171.2275 10.2371.423 15.35-.35-1.238-.9943-2.4547-2.16-3.6092z"/><path d="m74.276 106.395c.0169 1.092-.2346 2.203-.5792 3.269-.3932 1.225.158 2.669-1.7488 4.105-.4894-5.249-.955-10.162-1.4206-15.0751 1.0715 1.174 1.638 2.4091 1.9957 3.6601.1031 3.168.1149 6.317-.2013 9.489.225-3.192 1.0164-6.423.2013-9.489-.1838-5.1672-.6659-10.3132-.4919-15.5053 1.4477 1.4079 1.7804 3.1545 1.8465 4.9458.1918 4.8541.3258 9.7385.3983 14.6005z"/><path d="m261.147 210.697s.193-.013.277.006c.984 6.132 1.387 12.254-2.267 18.052l-.058-.047c2.708-5.884 3.252-11.894 2.046-18.036z"/><path d="m261.703 209.777c.397-.028.756-.16 1.101-.503.998 1.1 1.425 2.374 1.583 3.747.534 4.539-.435 9.077-.886 13.579-.217 2.144-2.494 2.065-4.395 2.093 4.081-6.115 3.663-12.498 2.597-18.916z"/><path d="m260.84 209.411c.186.095.337.139.487.155 1.294 6.534.702 12.93-2.221 19.192.142-5.174.284-10.349.365-15.546.02-1.407.408-2.651 1.34-3.799z"/><path d="m261.586 209.359s.06.85.09 1.275c-.419-.255-.917-.505-1.345-.902.398-.028.787-.198 1.175-.368z"/><path d="m261.668 210.555s-.045-.638-.062-.877c.431-.11.823-.298 1.253-.408-.307.902-.715 1.332-1.152 1.362z"/><path d="m299.019 220.823c-1.246-4.772-2.269-9.506.825-14.156-2.151 4.717-1.818 9.446-.825 14.156z"/><path d="m298.666 221.198c.269 1.109.57 2.216.872 3.323-1.882.455-3.491.246-3.651-1.569-.366-4.298-.605-8.606-.718-12.922-.059-2.654.068-2.663 4.675-3.363-.058.084-.082.193-.14.278-3.625 4.686-2.491 9.468-1.102 14.258z"/><path d="m298.661 220.63c-1.032-4.58-1.328-9.186.903-13.788.053-.056.078-.109.131-.165.674 5.541 1.093 11.1-.105 16.669-.105-.279-.236-.53-.367-.78-.187-.637-.347-1.301-.534-1.938z"/><path d="m299.156 223.131c.276.286.453.609.627.902-.089.19-.125.406-.214.595-.498-1.246-.945-2.497-1.29-3.754.309.741.568 1.516.877 2.257z"/></g><g clip-path="url(#a)"><path d="m25.3539 199.791c1.1173-.823 2.2749-1.595 3.4191-2.384 5.481-3.787 10.8079-7.766 15.8915-12.069 6.2972-5.323 11.7914-11.359 16.4617-18.143 7.831-11.361 13.5864-23.688 17.1422-37.001 5.0665-18.984 9.1884-38.1707 11.6902-57.6765.523-4.0493 1.1748-8.0955 1.0753-12.2049-.0136-.6281.3404-.9034.8591-1.0987 2.9286-1.0917 5.9767-1.3551 9.074-1.2616.823.0277 1.331.4743 1.572 1.2819.296.993.362 2.0144.433 3.0293.4 5.6822.776 11.3662 1.182 17.048.257 3.6524.948 7.2071 2.142 10.6959 4.167 12.1596 8.656 24.1866 14.02 35.8776 6.254 13.631 13.427 26.752 22.066 39.042 5.264 7.49 11.026 14.566 17.672 20.89 4.461 4.248 9.254 8.076 14.652 11.104 3.657 2.051 7.481 3.675 11.61 4.508 3.85.78 7.695.973 11.511-.211 2.306-.712 4.59-1.49 6.812-2.44 7.636-3.261 14.275-7.985 20.253-13.677 7.314-6.97 13.262-14.992 18.33-23.686 6.664-11.419 11.586-23.583 15.292-36.242 3.312-11.306 5.568-22.818 6.936-34.5181.993-8.4981 1.477-17.0153 1.549-25.5645.061-6.869-.317-13.7253-.89-20.568-.048-.583-.113-1.1647-.136-1.7494-.038-.7974.111-1.0399.87-1.2949 2.32-.7801 4.731-1.0597 7.152-.9186 2.237.1296 2.15-.1513 2.696 2.0334.126.4919.319.973.452 1.4645 1.536 5.4801 3.025 10.9757 4.615 16.4459 4.369 15.022 9.752 29.6734 16.399 43.8447 6.028 12.853 12.997 25.164 21.372 36.661 7.127 9.783 15.106 18.792 24.454 26.544 7.481 6.197 15.594 11.355 24.683 14.917 7.994 3.133 16.279 4.748 24.881 4.516 7.325-.198 14.346-1.853 21.086-4.709 8.048-3.406 15.09-8.324 21.448-14.262 7.535-7.047 13.727-15.165 19.064-23.957 6.703-11.043 11.875-22.785 16.004-34.998 8.461-25.0245 12.508-50.838 13.872-77.1223.083-1.606.117-3.2085.194-4.8141.042-.8702.201-1.0463 1.002-1.1454.583-.0716 1.168-.1127 1.753-.1478 3.815-.2319 7.598.2103 11.385.6096.431.0429.657.2896.686.7029.041.5834.101 1.1716.074 1.7476-.126 2.9954.042 5.9884.154 8.9791.382 9.6778 1.943 19.1687 4.552 28.4881 4.309 15.3927 11.067 29.6663 20.204 42.7773 21.079 30.244 49.285 51.131 84.091 63.254 7.398 2.575 14.972 4.522 22.691 5.915.434.079.863.171 1.287.282.281.078.564.186.506.575-.042.284-.273.3-.474.32-2.542.313-5.079.62-7.622.927-8.285.999-16.569 2.015-24.861 3.002-9.014 1.074-18.029 2.13-27.044 3.186-10.036 1.176-20.072 2.341-30.108 3.499-7.638.886-15.277 1.747-22.909 2.632-2.544.295-5.085.633-7.627.952-.437.056-.866.135-1.294.232-.518.116-.703.44-.593.964.682 3.085.775 6.23.904 9.366.2 5.11.511 10.212.942 15.306 1.253 14.844 2.543 29.692 3.796 44.536.41 4.876.851 9.749.798 14.651-.011 1.405-.006 1.386-1.387 1.337-.656-.021-1.321.014-1.972.072-4.594.39-9.195.757-13.786 1.196-6.122.589-12.247 1.143-18.391 1.508-1.689.1-3.366.005-5.04-.201-.864-.11-1.139-.445-1.108-1.309.108-3.427.203-6.854.341-10.284.177-4.446.421-8.897.592-13.343.178-4.593.332-9.191.449-13.792.154-5.984.265-11.971.377-17.958.084-4.452.113-8.906.216-13.359.105-4.601.278-9.193.395-13.794.052-1.952.141-1.903-1.919-1.697-9.033.904-18.071 1.809-27.105 2.677-8.969.857-17.941 1.653-26.903 2.51-14.361 1.371-28.72 2.778-43.075 4.149-9.406.894-18.81 1.733-28.216 2.627-16.551 1.568-33.095 3.154-49.645 4.734-1.24.118-2.483.205-3.722.335-.894.093-.972.203-.926 1.116.42 7.439.76 14.879 1.277 22.312.901 12.896 1.912 25.785 2.875 38.677.149 2.041.33 4.081.369 6.124.08 4.092.19 8.176.575 12.253.043.437.062.876.037 1.311-.021.307-.282.594-.565.583-1.485-.06-2.89.417-4.348.569-8.095.838-16.216 1.111-24.347 1.17-2.49.016-4.977.069-7.463.061-1.439-.009-1.724-.398-1.57-1.869.036-.362.059-.724.07-1.092.055-3.136.158-6.277.151-9.416-.011-3.724-.126-7.448-.198-11.168-.139-7.374-.236-14.751-.424-22.122-.168-6.645-.207-13.287-.228-19.93-.013-4.452-.167-8.905-.267-13.357-.008-.292-.028-.584-.061-.875-.043-.43-.296-.638-.728-.596-.657.059-1.314.105-1.962.205-5.212.825-10.473 1.22-15.716 1.784-9.756 1.047-19.522 1.967-29.291 2.917-11.442 1.117-22.884 2.215-34.326 3.319-10.931 1.057-21.862 2.119-32.8 3.164-8.968.857-17.932 1.689-26.901 2.534-1.021.097-2.044.181-3.063.301-.699.08-.827.26-.823 1.011 0 .44.037.877.056 1.315.703 13.637 1.412 27.28 2.102 40.918.363 7.151.67 14.299 1.02 21.445.08 1.667-.021 3.354.558 4.981.161.459.089 1.001.128 1.548-.47.198-.853.414-1.261.522-3.548.91-7.132 1.644-10.756 2.156-2.97.423-5.95.773-8.9177 1.226-3.4095.521-6.8507.678-10.2751.986-.1462.01-.2923.02-.4394.018-.766-.013-1.0772-.26-1.1007-1.027-.039-1.164-.042-2.337-.014-3.505.1362-5.109.3521-10.218.4335-15.323.1199-7.081.2032-14.159.0412-21.245-.2402-10.371-.895-20.72-1.8484-31.048-.0845-.94-.1497-.997-1.059-.957-4.6083.184-9.2159.38-13.8243.563-6.7327.267-13.4607.6-20.1937.774-10.0262.26-20.0538.587-30.073 1.121-.5795.029-1.1635.168-1.7405-.03l-.4922-6.995c.1168-.252.3316-.506.3323-.756-.037-2.874-.2871-5.733-.6282-8.58-.0302-.254-.2665-.482-.4059-.722l-.2155-3.063c1.825-.159 3.6462-.287 5.4691-.477 9.1044-.921 18.2109-1.813 27.3044-2.801 4.5805-.493 9.1486-1.163 13.7222-1.753.0731-.005.1453-.023.218-.034 2.0721-.39 2.3561-.703 2.1337-2.734-.6525-5.878-1.3288-11.748-2.0234-17.617-.3773-3.186-.8215-6.367-1.2475-9.55-.0884-.647-.1955-1.299-.3326-1.943-.1095-.512-.5543-.657-.9941-.297-.7929.649-1.5855 1.303-2.3128 2.014-2.0906 2.04-4.1738 4.098-6.2244 6.185-8.7346 8.872-19.0068 15.464-30.3859 20.418-1.8825.822-3.8516 1.37-5.7878 2.038l-.4923-6.995c2.8649-.953 5.5179-2.306 7.9566-4.096zm533.0691-26.266c.875 0 1.755-.025 2.632-.081 8.549-.553 17.092-1.105 25.64-1.67.134-.01.264-.08.845-.261-1.036-.458-1.687-.742-2.343-1.026-8.761-3.756-17.018-8.452-25.063-13.523-1.108-.698-2.151-1.516-3.231-2.258-.09-.061-.271-.024-.398.003-.175.037-.197.161-.184.343.084 1.46.156 2.914.228 4.375.199 4.304.435 8.605.572 12.907.04 1.17.317 1.194 1.302 1.191zm-30.691 1.043c1.757-.008 3.515.015 5.267-.053 4.536-.173 9.064-.363 13.595-.597 1.239-.063 2.471-.296 3.7-.486.878-.141.973-.27.966-1.143-.01-1.532-.05-3.062-.054-4.595-.013-5.325.003-10.652-.047-15.98-.024-2.6.336-1.917-1.84-3.871-3.482-3.126-6.965-6.252-10.241-9.588-3.996-4.061-7.905-8.208-11.866-12.308-.396-.412-.691-.947-1.498-1.189-.045.394-.086.598-.084.806.236 8.313.491 16.632.715 24.947.179 6.711.327 13.425.475 20.139.023 1.018-.034 2.042-.023 3.061.008.727.164.856.929.857zm-17.524 2.607c2.554-.064 5.102-.133 7.552-.195.571-.486.416-1.037.438-1.509.162-3.352.294-6.702.431-10.059.201-4.882.396-9.769.591-14.65.179-4.593.345-9.186.524-13.779.185-4.666.384-9.328.57-13.995.054-1.311.066-2.625.17-3.933.046-.638-.159-1.119-.541-1.593-5.982-7.335-10.687-15.481-15.187-23.7571-.099-.1824-.256-.3301-.384-.4921-.114.0324-.228.0649-.342.0973.05.7111.1 1.4221.15 2.1331 1.33 19.5908 2.666 39.1748 3.977 58.7658.483 7.21.911 14.423 1.363 21.634.016.219.019.439.034.657.03.414.208.694.66.681zm-39.497 3.409c1.672.188 3.338.473 5.024.336 1.217-.097 2.473.346 3.654-.269.41-1.128.168-2.302.216-3.454.22-4.956.33-9.917.514-14.87.173-4.667.384-9.329.57-13.996.184-4.52.355-9.039.545-13.56.193-4.741.398-9.476.597-14.211.183-4.447.366-8.894.549-13.34.09-2.114.186-4.228.27-6.341.029-.722.014-1.448.024-2.1755-.109.0138-.212.0332-.321.047-.526 1.7345-1.035 3.4745-1.58 5.2045-1.406 4.46-3.108 8.8-4.954 13.095-1.558 3.615-3.052 7.263-4.577 10.894-.347.818-.484 1.646-.495 2.545-.096 8.899-.228 17.801-.367 26.697-.102 6.639-.211 13.273-.325 19.914-.018.875-.085 1.747-.121 2.622-.024.534.283.811.777.868zm-29.18-6.967c.361 2.075.364 4.207.519 6.321.041.584.069 1.168.128 1.744.082.721.235.893.952.904 1.898.019 3.804.044 5.704.002 4.535-.1 9.053-.521 13.567-.925 1.156-.099 1.171-.143 1.226-1.356.314-6.844.61-13.693.942-20.538.324-6.625.69-13.247 1.032-19.873.018-.343-.012-.689-.018-1.031-.432.031-.553.32-.688.568-.495.89-.982 1.791-1.457 2.692-5.423 10.19-12.323 19.299-20.372 27.561-.102.105-.192.227-.302.314-1.245.924-1.507 2.067-1.239 3.617zm-16.593 10.616c.787-.031 1.574-.074 2.356-.093 2.848-.066 5.703-.114 8.55-.18.575-.01.809-.246.733-.803-.297-2.312-.619-4.622-.94-6.933-.04-.296-.41-.423-.66-.234-.174.134-.335.28-.496.426-2.692 2.369-5.573 4.484-8.521 6.517-.408.286-.81.582-1.211.879.058.137.124.279.182.415zm-76.489 7.288c.505.044 1.017.014 1.529-.016 2.327-.151 4.649-.388 6.955-.752 1.575-.245 3.161-.412 5.254-.675-.822-.449-1.181-.68-1.572-.854-4.573-2.097-9.092-4.289-12.987-7.545-.17-.141-.377-.224-.567-.052-.092.086-.166.25-.164.372.103 2.76.199 5.52.338 8.276.04.834.413 1.181 1.214 1.246zm-38.392-42.975c.818 6.142 1.776 12.267 2.794 18.382 1.288 7.776 2.181 15.604 2.826 23.455.088 1.087.214 2.178.352 3.261.053.406.308.638.742.632.146-.004.293-.015.439-.025 4.747-.291 9.497-.29 14.251-.325 2.417-.017 4.817-.266 7.189-.744.217-.046.435-.073.645-.131 2.241-.597 2.7-1.124 2.877-3.476.256-3.414.474-6.837.705-10.255.015-.221 0-.44.015-.654.077-.995-.383-1.61-1.26-2.074-2.593-1.362-5.016-2.994-7.41-4.669-4.314-3.025-8.37-6.374-12.289-9.885-4.697-4.207-8.165-9.301-10.847-14.963-.366-.768-.727-1.543-1.093-2.311-.071.03-.143.059-.214.083.086 1.233.107 2.478.272 3.7zm-24.79-40.365c.536 5.96 1.108 11.923 1.656 17.882 1.346 14.685 2.697 29.369 4.019 44.056.61 6.761 1.142 13.533 1.71 20.297.02.291.023.584.067.874.27 1.569.546 3.144.822 4.712 1.505-.087 3.022-.102 4.523-.269 4.008-.447 8.024-.614 12.055-.384.123.009.251-.085.496-.17.055-1.048-.191-2.111-.334-3.182-.426-3.183-.918-6.355-1.326-9.544-1.01-7.82-2.055-15.631-2.949-23.465-.72-6.307-1.306-12.636-1.136-19.006.033-1.352-.246-2.535-.995-3.698-2.341-3.615-4.595-7.286-6.872-10.937-4.533-7.26-8.556-14.77-11.481-22.84-.166-.452-.269-.952-.75-1.272.165 2.346.29 4.652.495 6.946zm-38.334 89.605c.249 3.11.134 2.599 2.957 2.54 3.876-.077 7.755-.093 11.622-.372 1.663-.117 1.681-.118 1.636-1.8-.242-9.627.004-19.257.135-28.879.081-5.979.137-11.962.231-17.942.091-5.833.213-11.668.323-17.502.026-1.363.029-2.719-.063-4.46-.597.745-.698 1.301-.87 1.82-2.852 8.434-6.038 16.744-9.747 24.841-2.005 4.38-4.156 8.69-6.664 12.812-.395.651-.625 1.296-.609 2.046.023 1.018-.021 2.041.014 3.065.266 7.945.397 15.9 1.035 23.831zm-22.99.097c.523 2.034.943 4.093 1.387 6.053.662.271 1.173.149 1.67.066 3.546-.58 7.125-.862 10.7-1.12.292-.02.584-.053.876-.068.86-.042 1.308-.556 1.535-1.329.37-1.272.485-2.593.528-3.897.202-6.427.117-12.852-.353-19.268-.009-.134-.091-.257-.204-.56-.655.431-.848 1-1.176 1.469-1.886 2.692-3.713 5.434-5.669 8.076-2.442 3.305-5.224 6.304-8.553 8.761-.663.493-.967.96-.747 1.824zm-12.236 6.78c2.185-.001 4.373.126 6.545-.143.431-.055.857-.177 1.278-.292.558-.149.873-.55.883-1.106.026-1.37.015-2.744-.266-4.385-3.147 1.724-5.909 3.451-8.601 5.296-.087.061-.105.245-.114.38-.011.19.097.25.275.25zm-59.435 2.784c1.682.071 3.362.099 5.043.066 7.168-.156 14.329-.342 21.496-.523.581-.016 1.164-.082 1.748-.123-.012-.091-.031-.181-.044-.278-1.333-.328-2.666-.667-3.998-.983-3.02-.716-5.818-1.954-8.41-3.64-1.771-1.158-3.521-2.366-5.174-3.679-4.117-3.277-8.15-6.658-11.751-10.515-.199-.212-.357-.451-.465-.596-.566.217-.52.519-.506.805.26 6.053.515 12.099.775 18.152.046 1.084.168 1.258 1.286 1.308zm-27.837-54.259c.553 3.68.802 7.394 1.149 11.102.495 5.302 1.046 10.602 1.687 15.888.928 7.612 1.368 15.264 1.9 22.903.137 1.957.275 3.914.403 5.731.43.55.904.407 1.315.421 3.734.085 7.47.036 11.178-.329 3.41-.338 2.856-.219 2.944-3.053.127-3.936.241-7.877.252-11.811.015-3.354-.16-6.707-.17-10.065-.003-1.527-.469-2.758-1.401-3.994-6.005-7.914-11.682-16.046-16.723-24.614-.771-1.314-1.543-2.628-2.31-3.948l-.361.081c.039.559.043 1.126.124 1.683zm-18.309-35.588c1.066 8.622 1.846 17.276 2.657 25.922 1.595 17.007 3.208 34.012 4.809 51.024.411 4.363.798 8.727 1.202 13.083.053.583.131 1.164.22 1.738.053.314.298.486.597.556.211.046.434.08.653.07 2.418-.084 4.827-.211 7.192-.787 1.107-.273 1.303-.623 1.067-1.712-.119-.565-.251-1.136-.328-1.711-2.04-16.377-3.473-32.815-4.253-49.299-.209-4.449-.595-8.887-1.102-13.309-.202-1.739-.544-3.462-.903-5.177-.13-.626-.436-1.24-.758-1.803-3.546-6.212-6.945-12.502-10.232-18.854-.192-.371-.302-.803-.783-.947-.284.399-.083.818-.037 1.212zm-37.1769 57.253c.2485.66.1931 1.44.2444 2.169.3747 5.324 1.3137 10.577 2.1674 15.837.9098 5.622 1.6317 11.269 2.0747 16.954.0359.511.0536 1.022.1499 1.523.0294.156.2825.273.4503.395.0517.04.1438.045.2109.041 3.6605-.258 7.3131-.02 10.9737.07 1.6678.042 1.7345-.055 1.6904-1.725-.1802-7.518.0312-15.039.139-22.552.0868-5.985.1428-11.974.2422-17.954.0971-5.84.2311-11.676.3282-17.515.1032-5.84.1759-11.677.2669-17.516.0385-2.409.108-4.814.1527-7.224.0141-.581-.0087-1.166-.013-1.837-.492.663-.5715 1.359-.7251 2.048-.7304 3.276-1.4422 6.557-2.2474 9.814-2.8926 11.691-8.0613 22.352-14.8052 32.287-1.0925 1.61-2.0749 3.132-1.2991 5.197z" fill="#f6ead8" opacity=".11"/><path d="m18.1402 197.154c1.1779-.87 2.3984-1.686 3.6046-2.519 5.7784-4.001 11.3941-8.204 16.7534-12.75 6.6386-5.624 12.4304-12.001 17.3535-19.169 8.2548-12.004 14.321-25.029 18.0679-39.097 5.3388-20.059 9.6815-40.3319 12.3162-60.9431.5507-4.2788 1.2373-8.5542 1.1317-12.8965-.0144-.6637.3588-.9546.9057-1.1609 3.0876-1.153 6.3013-1.4308 9.5674-1.3316.8668.0294 1.4034.5015 1.6571 1.3548.3126 1.0494.3821 2.1287.4576 3.2011.4227 6.0044.8197 12.0106 1.2487 18.0146.271 3.8595 1 7.6158 2.26 11.3025 4.396 12.8496 9.13 25.5591 14.788 37.9131 6.596 14.405 14.161 28.271 23.272 41.26 5.552 7.915 11.628 15.393 18.636 22.076 4.704 4.49 9.758 8.536 15.45 11.736 3.857 2.168 7.889 3.885 12.242 4.766 4.059.824 8.114 1.03 12.137-.222 2.431-.752 4.839-1.573 7.182-2.577 8.05-3.445 15.05-8.435 21.351-14.448 7.71-7.364 13.981-15.84 19.323-25.026 7.024-12.065 12.212-24.918 16.117-38.294 3.49-11.946 5.867-24.1104 7.308-36.4737 1.046-8.9796 1.554-17.9795 1.629-27.0133.063-7.2584-.337-14.5034-.943-21.734-.05-.6161-.119-1.2308-.143-1.8486-.04-.8426.117-1.0989.917-1.3682 2.446-.8239 4.988-1.119 7.541-.9695 2.359.1373 2.267-.1596 2.842 2.1491.134.5198.337 1.0282.477 1.5475 1.621 5.791 3.191 11.5985 4.869 17.379 4.609 15.8743 10.287 31.357 17.298 46.3329 6.357 13.5828 13.707 26.5928 22.539 38.7428 7.517 10.339 15.931 19.859 25.788 28.052 7.889 6.55 16.443 12.002 26.027 15.767 8.429 3.312 17.165 5.02 26.235 4.776 7.723-.208 15.125-1.955 22.231-4.972 8.485-3.599 15.909-8.793 22.611-15.067 7.944-7.445 14.471-16.023 20.097-25.312 7.065-11.668 12.516-24.075 16.868-36.979 8.917-26.442 13.18-53.7181 14.613-81.4921.087-1.697.123-3.3904.204-5.0869.045-.9196.212-1.1056 1.057-1.2102.614-.0755 1.23-.1189 1.847-.1559 4.023-.2444 8.012.2235 12.004.646.455.0454.693.3062.724.7429.043.6165.106 1.238.078 1.8467-.132 3.1651.045 6.3278.165 9.4881.403 10.2264 2.051 20.2555 4.803 30.1037 4.546 16.2659 11.674 31.3497 21.309 45.2047 22.23 31.963 51.973 54.038 88.673 66.854 7.801 2.723 15.787 4.781 23.925 6.254.458.084.91.181 1.357.298.296.082.595.197.533.608-.043.3-.287.317-.498.338-2.681.331-5.356.655-8.037.979-8.735 1.054-17.469 2.126-26.211 3.168-9.504 1.133-19.01 2.247-28.515 3.362-10.58 1.241-21.162 2.47-31.743 3.692-8.053.935-16.108 1.844-24.154 2.778-2.683.311-5.362.667-8.042 1.005-.46.058-.913.141-1.364.244-.546.122-.741.465-.625 1.018.72 3.261.818 6.584.955 9.898.212 5.399.54 10.791.996 16.173 1.323 15.686 2.686 31.376 4.009 47.062.433 5.152.899 10.301.844 15.481-.011 1.485-.006 1.465-1.462 1.413-.692-.022-1.393.014-2.079.075-4.844.412-9.696.799-14.535 1.262-6.456.622-12.913 1.206-19.391 1.59-1.781.106-3.55.005-5.314-.213-.912-.116-1.201-.47-1.168-1.383.113-3.622.213-7.243.358-10.867.185-4.698.442-9.402.621-14.1.187-4.853.349-9.711.471-14.573.162-6.323.278-12.649.395-18.975.088-4.705.118-9.412.226-14.117.109-4.861.291-9.714.413-14.576.055-2.063.149-2.011-2.023-1.794-9.523.954-19.053 1.909-28.578 2.825-9.456.904-18.916 1.744-28.365 2.648-15.142 1.446-30.28 2.931-45.416 4.377-9.917.943-19.832 1.828-29.749 2.771-17.451 1.654-34.893 3.327-52.343 4.994-1.308.124-2.618.217-3.925.354-.941.098-1.024.214-.975 1.178.444 7.862.803 15.723 1.349 23.577.953 13.628 2.021 27.247 3.038 40.87.158 2.158.349 4.313.391 6.472.085 4.324.201 8.64.608 12.948.045.461.065.925.039 1.385-.022.324-.298.627-.595.616-1.567-.064-3.048.44-4.585.6-8.534.885-17.097 1.171-25.67 1.232-2.625.017-5.248.073-7.869.064-1.517-.01-1.817-.421-1.655-1.975.037-.383.062-.766.073-1.154.057-3.314.166-6.633.158-9.949-.012-3.936-.134-7.871-.211-11.802-.148-7.792-.251-15.587-.451-23.376-.178-7.022-.22-14.04-.243-21.06-.015-4.704-.178-9.41-.283-14.114-.009-.309-.031-.617-.065-.924-.045-.455-.312-.675-.767-.63-.693.061-1.387.11-2.07.216-5.495.871-11.042 1.287-16.569 1.883-10.287 1.104-20.583 2.074-30.884 3.077-12.063 1.178-24.127 2.337-36.19 3.502-11.526 1.114-23.05 2.235-34.583 3.337-9.455.904-18.906 1.782-28.362 2.674-1.078.101-2.156.19-3.231.317-.736.085-.871.275-.867 1.068.001.465.04.927.059 1.39.743 14.41 1.493 28.827 2.224 43.238.383 7.556.708 15.109 1.078 22.66.085 1.762-.022 3.544.59 5.263.17.485.094 1.059.134 1.637-.495.209-.898.437-1.329.551-3.74.96-7.519 1.736-11.34 2.276-3.131.446-6.2737.816-9.4023 1.294-3.5947.55-7.2229.715-10.8335 1.04-.1541.011-.3082.022-.4632.02-.8077-.014-1.1359-.275-1.1607-1.086-.0414-1.23-.0447-2.469-.0154-3.704.1428-5.399.3695-10.797.4546-16.192.1252-7.482.2119-14.961.0399-22.448-.255-10.96-.9471-21.895-1.954-32.808-.0892-.994-.158-1.054-1.1167-1.012-4.8588.193-9.7168.4-14.5757.593-7.0986.28-14.1923.631-21.2913.814-10.5712.273-21.1438.617-31.7074 1.18-.611.03-1.2267.177-1.8352-.032l-.5202-7.392c.1233-.267.3497-.534.3504-.799-.0395-3.037-.3037-6.058-.6638-9.066-.0318-.268-.2811-.509-.4281-.763l-.2278-3.237c1.9243-.168 3.8444-.303 5.7665-.503 9.599-.972 19.2004-1.912 28.7881-2.955 4.8294-.52 9.6457-1.227 14.4678-1.851.0771-.005.1532-.023.2298-.035 2.1846-.412 2.484-.743 2.2492-2.888-.6888-6.212-1.4029-12.415-2.1363-18.617-.3983-3.367-.8672-6.728-1.3168-10.091-.0933-.684-.2064-1.373-.351-2.054-.1155-.54-.5846-.694-1.0482-.313-.8359.685-1.6714 1.376-2.4382 2.127-2.2039 2.156-4.3999 4.33-6.5617 6.535-9.2079 9.373-20.0374 16.337-32.0343 21.57-1.9846.869-4.0607 1.447-6.1021 2.152l-.52016-7.391c3.02046-1.007 5.81756-2.436 8.38846-4.327zm562.0418-27.667c.922-.001 1.85-.027 2.775-.086 9.014-.583 18.021-1.165 27.033-1.76.141-.01.278-.085.891-.276-1.093-.485-1.779-.785-2.471-1.085-9.237-3.97-17.944-8.934-26.427-14.293-1.168-.738-2.268-1.602-3.407-2.387-.095-.064-.286-.025-.42.004-.184.038-.207.169-.194.362.09 1.542.165 3.079.242 4.623.21 4.548.459 9.093.605 13.639.042 1.236.334 1.261 1.373 1.259zm-32.359 1.096c1.852-.008 3.705.017 5.553-.055 4.782-.182 9.556-.382 14.334-.628 1.305-.066 2.605-.313 3.901-.514.925-.149 1.025-.285 1.018-1.207-.011-1.619-.053-3.236-.058-4.856-.015-5.626.002-11.255-.052-16.885-.026-2.747.354-2.026-1.94-4.091-3.672-3.304-7.345-6.608-10.8-10.133-4.213-4.292-8.336-8.675-12.513-13.008-.418-.435-.729-1.001-1.579-1.257-.048.417-.091.633-.089.852.251 8.785.521 17.575.758 26.361.19 7.092.347 14.187.504 21.281.024 1.076-.035 2.158-.024 3.235.009.767.174.904.98.905zm-18.477 2.752c2.693-.067 5.379-.139 7.962-.205.603-.514.44-1.096.463-1.594.17-3.542.308-7.082.452-10.629.211-5.158.416-10.323.621-15.481.187-4.853.362-9.706.55-14.559.195-4.932.403-9.857.598-14.789.058-1.385.07-2.773.179-4.156.049-.674-.167-1.182-.57-1.683-6.309-7.752-11.271-16.3601-16.017-25.1063-.104-.1928-.27-.3489-.404-.5201-.121.0342-.241.0685-.361.1028.053.7513.106 1.5027.159 2.254 1.405 20.7016 2.816 41.3956 4.202 62.0976.51 7.618.963 15.241 1.441 22.861.016.231.02.463.036.694.031.437.22.734.696.719zm-41.644 3.596c1.763.198 3.521.501 5.298.356 1.283-.103 2.607.365 3.852-.284.433-1.192.178-2.432.227-3.649.232-5.237.347-10.479.54-15.714.182-4.93.404-9.857.599-14.789.193-4.776.373-9.551.572-14.328.203-5.01.419-10.013.628-15.017.192-4.699.384-9.397.576-14.0963.095-2.2332.196-4.4668.284-6.6995.03-.7636.015-1.5305.025-2.2993-.115.0146-.223.0351-.338.0497-.556 1.8332-1.091 3.6714-1.666 5.4995-1.482 4.7119-3.276 9.2979-5.221 13.8359-1.642 3.82-3.216 7.674-4.824 11.511-.365.865-.51 1.74-.521 2.689-.1 9.404-.238 18.81-.383 28.21-.107 7.016-.22 14.026-.339 21.043-.019.925-.09 1.846-.128 2.771-.025.564.299.857.82.917zm-30.766-7.367c.38 2.193.384 4.445.547 6.68.044.616.074 1.234.136 1.842.086.762.248.945 1.003.956 2.003.02 4.011.047 6.015.003 4.782-.105 9.545-.55 14.304-.975 1.219-.105 1.235-.151 1.293-1.433.33-7.232.64-14.469.99-21.702.34-7.001.725-13.998 1.084-20.999.02-.363-.013-.729-.019-1.09-.456.032-.582.338-.725.6-.521.94-1.035 1.893-1.536 2.844-5.715 10.767-12.989 20.392-21.474 29.12-.109.111-.203.24-.319.332-1.312.977-1.589 2.184-1.306 3.823zm-17.494 11.215c.83-.033 1.659-.078 2.484-.097 3.003-.07 6.013-.12 9.015-.19.606-.01.853-.26.773-.848-.314-2.443-.653-4.884-.993-7.326-.041-.313-.431-.447-.695-.248-.184.142-.353.296-.523.45-2.838 2.504-5.875 4.738-8.983 6.886-.431.301-.854.615-1.277.929.062.144.13.294.192.438zm-80.645 7.689c.532.047 1.072.015 1.612-.017 2.454-.159 4.901-.409 7.333-.793 1.66-.259 3.332-.435 5.539-.713-.866-.474-1.245-.719-1.658-.903-4.822-2.216-9.586-4.533-13.694-7.974-.178-.149-.397-.237-.598-.055-.096.091-.175.264-.172.393.108 2.916.21 5.832.357 8.745.043.881.437 1.247 1.281 1.317zm-40.486-45.417c.863 6.489 1.874 12.962 2.948 19.424 1.359 8.217 2.303 16.488 2.984 24.785.093 1.149.226 2.301.371 3.446.056.428.325.674.783.668.155-.005.309-.016.463-.026 5.006-.308 10.014-.305 15.026-.342 2.548-.018 5.078-.28 7.579-.785.229-.048.459-.077.681-.138 2.363-.631 2.846-1.188 3.033-3.673.269-3.607.498-7.224.741-10.836.016-.233-.001-.464.016-.691.081-1.051-.404-1.701-1.329-2.191-2.735-1.441-5.289-3.165-7.814-4.936-4.549-3.197-8.825-6.736-12.959-10.446-4.953-4.447-8.61-9.83-11.438-15.813-.387-.812-.767-1.631-1.153-2.443-.075.031-.151.062-.226.087.091 1.304.113 2.619.288 3.91zm-26.145-42.658c.566 6.298 1.171 12.599 1.75 18.896 1.421 15.517 2.849 31.035 4.244 46.554.645 7.144 1.207 14.301 1.806 21.448.022.308.024.617.072.924.284 1.658.576 3.322.867 4.979 1.587-.092 3.186-.108 4.768-.284 4.226-.471 8.46-.647 12.711-.404.13.01.265-.089.523-.179.058-1.107-.202-2.231-.353-3.363-.449-3.363-.969-6.715-1.4-10.085-1.065-8.263-2.169-16.517-3.113-24.795-.76-6.665-1.379-13.353-1.201-20.083.035-1.429-.259-2.68-1.049-3.908-2.47-3.821-4.847-7.701-7.248-11.559-4.78-7.672-9.023-15.608-12.108-24.136-.176-.4781-.284-1.0061-.792-1.3447.175 2.4788.308 4.9154.523 7.3397zm-40.403 94.678c.264 3.286.142 2.746 3.119 2.685 4.086-.081 8.176-.098 12.254-.391 1.753-.124 1.772-.125 1.725-1.903-.258-10.172 0-20.348.137-30.516.084-6.317.143-12.639.24-18.958.095-6.163.223-12.329.338-18.494.027-1.441.03-2.874-.067-4.713-.629.787-.736 1.375-.917 1.923-3.006 8.911-6.364 17.692-10.273 26.247-2.114 4.628-4.381 9.182-7.024 13.537-.416.688-.658 1.37-.641 2.162.024 1.076-.023 2.157.015 3.239.281 8.396.421 16.801 1.094 25.182zm-24.239.099c.551 2.149.995 4.325 1.463 6.396.698.287 1.238.158 1.761.07 3.738-.612 7.512-.91 11.281-1.181.309-.022.616-.056.925-.072.906-.044 1.378-.587 1.617-1.404.39-1.344.511-2.74.556-4.118.213-6.791.122-13.581-.375-20.361-.009-.141-.096-.27-.215-.591-.691.455-.894 1.057-1.24 1.552-1.988 2.844-3.913 5.742-5.976 8.533-2.574 3.492-5.507 6.66-9.016 9.256-.699.521-1.019 1.014-.787 1.927zm-12.9 7.162c2.304-.001 4.611.134 6.901-.15.454-.058.903-.186 1.347-.308.589-.158.92-.581.931-1.169.027-1.448.015-2.899-.281-4.633-3.318 1.821-6.23 3.645-9.068 5.594-.092.065-.11.26-.12.402-.011.201.103.264.29.264zm-62.665 2.932c1.774.075 3.544.106 5.316.071 7.559-.164 15.109-.36 22.665-.549.612-.018 1.227-.087 1.844-.13-.014-.096-.033-.191-.047-.294-1.405-.346-2.812-.705-4.216-1.039-3.184-.757-6.135-2.066-8.867-3.848-1.868-1.224-3.713-2.501-5.456-3.888-4.342-3.464-8.595-7.037-12.392-11.113-.21-.224-.376-.477-.49-.63-.597.229-.549.548-.534.851.276 6.395.545 12.785.821 19.18.048 1.146.177 1.33 1.356 1.383zm-29.359-57.339c.583 3.889.846 7.814 1.212 11.731.524 5.604 1.105 11.203 1.782 16.79.979 8.043 1.445 16.129 2.007 24.201.145 2.068.291 4.136.426 6.056.454.581.953.43 1.387.445 3.936.09 7.876.039 11.785-.346 3.596-.356 3.011-.231 3.103-3.226.134-4.159.254-8.323.264-12.48.016-3.544-.169-7.087-.18-10.636-.004-1.613-.496-2.914-1.478-4.22-6.333-8.363-12.32-16.958-17.636-26.012-.814-1.389-1.628-2.777-2.436-4.172l-.381.085c.041.591.045 1.191.131 1.778zm-19.31-37.608c1.125 9.111 1.949 18.255 2.805 27.392 1.684 17.971 3.388 35.94 5.079 53.917.434 4.61.842 9.221 1.27 13.825.056.615.138 1.229.232 1.836.056.331.314.513.629.588.223.049.458.084.689.074 2.549-.089 5.089-.223 7.583-.831 1.167-.288 1.373-.658 1.124-1.808-.126-.598-.265-1.201-.346-1.809-2.154-17.305-3.667-34.675-4.493-52.094-.221-4.702-.628-9.39-1.164-14.064-.213-1.837-.573-3.657-.952-5.47-.137-.662-.46-1.31-.799-1.906-3.741-6.564-7.326-13.211-10.793-19.924-.201-.392-.317-.849-.825-1-.299.421-.088.864-.039 1.28zm-39.1889 60.492c.2621.698.2039 1.521.2581 2.292.3959 5.626 1.3868 11.177 2.2878 16.735.9602 5.94 1.7222 11.908 2.1901 17.916.038.539.0567 1.08.1585 1.608.031.166.2978.289.4747.419.0545.041.1517.047.2224.042 3.8595-.272 7.7106-.02 11.5703.076 1.7584.044 1.8287-.057 1.782-1.822-.1912-7.944.0303-15.891.1428-23.831.0905-6.324.1485-12.653.2524-18.972.1014-6.17.2417-12.337.3432-18.507.1078-6.171.1835-12.339.2784-18.509.0404-2.546.1132-5.087.1598-7.633.0149-.614-.0092-1.232-.014-1.942-.5185.701-.6023 1.437-.7641 2.164-.7696 3.462-1.5195 6.929-2.3679 10.37-3.0479 12.354-8.4958 23.618-15.6047 34.115-1.1517 1.701-2.1872 3.31-1.3689 5.492z" fill="#f6ead8"/><g fill="#667370"><path d="m14.4025 231.968-.748-10.628c.6476 3.517.8967 7.056.748 10.628z"/><path d="m14.7528 231.17c.0057.264-.2271.532-.3503.799.1487-3.573-.1003-7.112-.748-10.628.147.254.3962.494.4281.763.367 3.014.6243 6.029.6638 9.066z"/></g></g></svg>