<svg fill="none" viewBox="0 0 357 172" xmlns="http://www.w3.org/2000/svg"><path d="m.00845209 158.038v-15.81c.20707591-.165.42260491-.313.68884491-.359 2.379263-.114 4.762753-.021 7.142013-.072 18.13399-.372 36.27639-.076 54.41029-.393 10.7934-.19 21.5909.139 32.3715-.271 10.5399-.397 21.0839.102 31.6109-.308 9.779-.385 19.554-.08 29.329-.241.989-.017 1.977 0 3.097-.427-3.795-.98-7.184-2.4-10.387-4.247-1.982-1.141-3.74-2.582-5.376-4.192-2.924-2.878-5.62-5.988-8.866-8.533-2.485-1.948-5.135-3.604-8.072-4.805-4.526-1.846-9.162-2.011-13.878-1.035-3.736.773-7.248 2.282-10.891 3.364-5.9879 1.779-10.8056.177-14.7738-4.589-1.8384-2.211-3.6682-4.459-6.0222-6.2-4.2133-3.115-8.6972-3.563-13.4895-1.551-4.4204 1.859-7.7675 5.067-10.8905 8.575-2.0539 2.307-3.7232 4.931-5.9841 7.07-2.5736 2.434-3.9429 2.692-7.0617 1.082-1.4833-.765-2.9287-1.61-4.4247-2.359-4.6782-2.341-9.2297-2.205-13.7811.419-3.5499 2.045-6.4997 4.83-9.5974 7.433-3.7062 3.115-7.75897 5.689-12.01882 7.954-.75646.401-1.52983.807-2.408848.904-.278919.009-.515578-.088-.72687991-.262v-41.3474c.19862391-.169.39302191-.3423.62545491-.469 3.900643-1.9313 7.995673-3.3048 12.348493-3.495 3.3808-.1479 6.6011.8917 9.7072 2.2018 2.5272 1.0649 4.9065 2.4131 7.29 3.7569 1.103.6217 2.2398 1.1837 3.3892 1.7157 5.1347 2.367 9.1368 1.64 13.1515-2.3242 2.2483-2.2187 4.1204-4.7374 5.8911-7.3364 3.216-4.7332 6.1785-9.6523 10.0284-13.9248 2.9625-3.2879 6.3264-6.0221 10.7257-7.1209 4.7036-1.1749 9.255-.3973 13.6755 1.3819 4.9487 1.9947 9.2381 5.0374 13.261 8.4774 5.515 4.7205 10.295 10.1806 15.37 15.349 1.175 1.2002 2.468 2.2525 3.829 3.2287 3.508 2.5143 7.404 3.3003 11.673 2.8183 4.944-.562 9.787-1.673 14.706-2.3619 4.687-.6592 9.378-.8705 14.06.1268 7.468 1.5891 12.518 5.8911 14.952 13.1771.9 2.7 1.424 5.489 2.05 8.253.917 4.057 2.776 5.786 6.842 6.483.9.152 1.8.262 2.713.351 5.037.498 10.1.798 15.011 2.206 5.899 1.694 10.501 5.13 13.984 10.13.896 1.288 1.813 2.573 2.607 3.921 2.705 4.577 6.931 6.961 11.854 8.368 1.75.499 3.52.921 5.287 1.369.401.102 1.027.241.921.807-.076.402-.638.423-1.044.465-.503.051-1.014.034-1.521.034-4.813 0-9.635-.156-14.445.034-9.47.376-18.953-.013-28.416.342-8.059.304-16.118-.101-24.16.279-8.663.406-17.335-.076-25.982.317-7.957.363-15.915-.085-23.856.292-8.359.397-16.7263-.077-25.0685.316-7.7548.368-15.5096-.092-23.2475.292-7.7548.385-15.5095-.076-23.2474.313-6.9434.346-13.8868-.072-20.8133.3-5.9291.317-11.8456.152-17.76629.241-1.88482-.009-3.76964-.038-5.658678.021-.084521.008-.169042.013-.257789.021-.177494 0-.333857-.059-.477543-.165z" fill="#f2e8d2"/><path d="m.531842 142.145c-.173268.029-.350762.055-.5240295.084 0-1.014 0-2.028 0-3.038.2028505 0 .4057005.008.6085505.012.443737.913 1.056507.486 1.652387.208 4.80078-2.253 9.17475-5.16 13.24015-8.558 2.6794-2.24 5.2615-4.594 8.1774-6.555 4.9656-3.347 10.0411-3.719 15.3448-.896 1.1664.622 2.2736 1.332 3.4231 1.974 3.2752 1.821 5.2276 1.525 7.9069-1.082 1.644-1.602 3.0005-3.432 4.4163-5.215 2.1848-2.751 4.6106-5.249 7.3575-7.438 1.6777-1.335 3.5245-2.409 5.5277-3.152 5.2952-1.97 9.9438-.795 13.9966 3.034 2.1722 2.054 4.0908 4.353 6.1658 6.508 3.2245 3.343 7.0152 4.399 11.4906 3.52 3.2494-.638 6.3054-1.897 9.4414-2.89 2.916-.926 5.861-1.522 8.95-1.509 3.694.017 7.134.921 10.367 2.603 4.78 2.485 8.752 6.005 12.353 9.961 3.533 3.884 7.59 6.99 12.623 8.701.689.233 1.83.364 1.678 1.222-.148.849-1.273.587-1.991.575-15.252-.195-30.495.304-45.747.388-10.7383.059-21.4851-.034-32.215.309-8.4648.27-16.9253-.114-25.3732.279-7.8055.363-15.611-.068-23.3954.317-6.0812.3-12.1583.033-18.22689.283-2.41307.097-4.84727-.127-7.239216.351z" fill="#ecc786"/><path d="m.531842 97.7921c-.173268.0169-.350762.0338-.5240295.0507 0-11.4526 0-22.901 0-34.3535.2324325.0464.4944475.0253.6381325.2747.135234.6677.283145 1.3354.388795 2.0158.15214 7.2772.04226 14.5545.06339 21.8317.00845 2.73.0803 5.4558-.05071 8.1816-.11833.6762-.198625 1.3651-.515578 1.9947z" fill="#e4ad9a"/><path d="m.0078125 158.038c.1141035.013.2239805.03.3380835.042.338084.203.507125.52.604324.888.2113 2.569.17327 5.139.038035 7.712-.059165.288-.198624.52-.443735.693-.177494.03-.359214.06-.5367075.089 0-3.14 0-6.284 0-9.424z" fill="#dfab99"/><path d="m.547909 167.373c.02113-.169.04226-.334.063391-.503.78604-.672 1.7369-.452 2.6286-.452 19.1059-.012 38.2161.102 57.3221-.029 96.138-.66 192.281-.089 288.419-.288.549 0 1.107.068 1.627-.131.194-.49-.165-.697-.414-.904-6.766-5.739-14.259-9.961-23.176-11.339-6.068-.934-12.027-.131-17.969.972-8.224 1.522-16.431 3.136-24.76 3.943-5.811.562-11.626.719-17.399-.456-.845-.173-1.678-.393-2.506-.626-3.732-1.039-5.933-3.533-6.855-7.218-.604-2.417-.794-4.889-.967-7.37-.512-7.417-1.665-14.694-4.763-21.54-.841-1.864-1.931-3.567-3.275-5.097-3.732-4.238-8.431-4.864-13.6-3.499-1.961.52-3.828 1.323-5.646 2.24-3.575 1.8-7.129 3.651-10.865 5.109-2.468.964-4.995 1.627-7.695 1.517-3.035-.122-5.329-1.445-6.914-4.002-1.927-3.102-2.27-6.626-2.232-10.113.068-5.819.444-11.6423.22-17.4616-.262-6.7786-1.192-13.4768-4.775-19.4229-5.118-8.4859-11.711-10.713-20.59-9.6269-5.929.7269-11.473 2.9117-17.026 4.9994-7.07 2.6582-14.132 5.3586-21.663 6.4701-2.76.4057-5.519.6001-8.313.1394-5.155-.8452-8.997-3.4569-11.478-8.0717-1.935-3.6048-3.051-7.497-3.985-11.4484-1.2-5.0797-2.244-10.1974-4.036-15.1123-2.941-8.0802-7.294-15.1588-14.7063-19.93-7.7083-4.9572-15.9533-5.5235-24.473-2.5526-8.2915 2.8907-14.4066 8.7015-19.837 15.3152-5.1685 6.2926-9.0987 13.4008-13.143 20.4245-2.7554 4.7839-5.4474 9.61-9.0226 13.8657-4.3951 5.2402-9.8974 6.9729-16.4816 5.2064-3.58791-.9635-6.94339-2.5398-10.30732-4.0781-.51558-.2367-.967762-.5494-1.297394-1.0227-.274693-.5071-.502899-1.0142-.004226-1.5256 2.40039 1.0819 4.78388 2.1933 7.20118 3.2372 2.18906.9424 4.44156 1.7073 6.80396 2.1087 3.8076.6424 7.2434-.1352 10.2608-2.6032 1.6608-1.3608 3.0385-2.9751 4.2979-4.6994 1.7665-2.4173 3.3343-4.9613 4.8473-7.5392 2.4595-4.1923 4.8641-8.4225 7.3533-12.5979 2.9624-4.9656 6.2123-9.7368 10.0284-14.098 2.9117-3.3302 6.1024-6.3602 9.7368-8.9001 3.8119-2.6666 7.9069-4.7247 12.4795-5.7347 10.4426-2.299 19.5666.2113 27.3303 7.5646 4.035 3.8203 6.93 8.4309 9.145 13.498 1.893 4.3317 3.144 8.8704 4.226 13.4599.777 3.3006 1.449 6.6307 2.442 9.8763.503 1.6481 1.065 3.2709 1.792 4.8388.533 1.1537 1.145 2.2567 1.877 3.2963 2.02 2.878 4.775 4.6149 8.202 5.3248 2.713.5621 5.443.5029 8.169.148 5.507-.7185 10.777-2.354 15.975-4.2261 4.145-1.4918 8.253-3.0766 12.399-4.5599 3.486-1.2509 7.045-2.2356 10.717-2.7723 3.187-.4649 6.365-.486 9.517.262 4.188.9931 7.611 3.2245 10.396 6.4786 2.823 3.2963 4.624 7.1124 5.777 11.2624 1.103 3.9724 1.653 8.0337 1.83 12.1456.19 4.4585.085 8.917-.127 13.3717-.131 2.784-.16 5.569.148 8.35.207 1.877.617 3.698 1.581 5.35 1.141 1.953 2.776 3.204 5.071 3.449 1.162.122 2.324.072 3.478-.161 1.948-.393 3.816-1.035 5.612-1.851 2.122-.963 4.218-1.978 6.306-3.005 2.18-1.073 4.348-2.172 6.622-3.042 1.851-.71 3.744-1.226 5.722-1.458 4.264-.503 7.886.824 10.983 3.723 1.649 1.538 2.899 3.377 3.935 5.367 1.479 2.848 2.451 5.883 3.275 8.972.993 3.731 1.555 7.531 1.91 11.372.262 2.823.347 5.663.841 8.465.178 1.001.414 1.982.761 2.937.659 1.8 1.851 3.11 3.588 3.93 1.762.833 3.634 1.243 5.544 1.526 3.723.553 7.464.604 11.225.444 5.329-.229 10.594-.96 15.839-1.847 5.042-.854 10.071-1.801 15.108-2.688 3.296-.583 6.622-.947 9.974-.989 5.971-.072 11.672 1.162 17.081 3.689 4.201 1.961 8.055 4.472 11.575 7.489.964.828 1.881 1.707 2.616 2.743.321.448.664.735 1.238.676.089-.009.212.038.271.106.093.105.203.249.199.371-.005.123-.123.313-.229.343-.287.08-.591.127-.891.122-2.582-.012-5.169-.067-7.751-.063-33.301.042-66.602.093-99.904.144-78.008.114-156.0125.198-234.021.088-3.49499-.004-6.99415-.046-10.489091-.071z" fill="#1c2d28"/><path d="m.631121 158.748c-.18172-.186-.253563-.414-.287371-.664 1.43686-.427 2.90329-.076 4.35283-.186.60009-.046 1.2171.11 1.80452-.122 1.77071-.004 3.5456 0 5.3164-.021 9.8805-.136 19.7652-.284 29.6457-.423 7.2983-.101 14.5967-.199 21.8909-.296 8.1097-.105 16.2153-.211 24.3251-.313 7.9576-.101 15.9108-.198 23.8688-.3 8.211-.101 16.418-.202 24.629-.304 8.414-.101 16.824-.207 25.238-.308 8.465-.102 16.925-.203 25.39-.305 8.364-.101 16.723-.202 25.086-.3 7.349-.088 14.698-.177 22.043-.262.541-.004 1.078 0 1.691 0-.347-.41-.744-.439-1.129-.536-1.864-.478-3.731-.934-5.574-1.475-1.111-.33-2.193-.774-3.271-1.217-3.136-1.285-5.629-3.373-7.531-6.17-.883-1.298-1.724-2.625-2.595-3.931-.984-1.475-2.049-2.894-3.262-4.196-3.085-3.318-6.872-5.464-11.199-6.707-2.739-.786-5.54-1.204-8.363-1.513-2.367-.258-4.742-.422-7.113-.667-1.462-.148-2.912-.372-4.315-.85-1.99-.68-3.38-1.982-4.213-3.901-.465-1.073-.74-2.206-.985-3.347-.448-2.079-.858-4.166-1.491-6.199-.271-.871-.558-1.737-.888-2.587-2.003-5.117-5.65-8.557-10.789-10.429-2.637-.96-5.371-1.4373-8.177-1.5598-4.18-.186-8.292.3418-12.391 1.0688-3.043.541-6.081 1.103-9.137 1.556-2.354.346-4.72.574-7.117.24-2.151-.3-4.116-1.031-5.962-2.129-1.577-.9387-2.997-2.0839-4.294-3.3729-1.581-1.5721-3.123-3.1822-4.657-4.7965-3.592-3.7908-7.176-7.5816-11.136-10.9962-2.7679-2.3919-5.705-4.5472-8.8746-6.3771-3.2709-1.889-6.7194-3.3174-10.4763-3.888-4.2514-.6465-8.2704-.0422-11.9809 2.2483-2.2651 1.3946-4.2176 3.1484-5.9967 5.1093-2.1511 2.3666-4.0232 4.9487-5.8024 7.6069-1.6312 2.4426-3.2498 4.8979-4.9149 7.3152-1.5805 2.2948-3.2667 4.5135-5.2867 6.4574-1.103 1.0606-2.2906 1.9946-3.6513 2.7006-2.0243 1.048-4.15 1.238-6.3518.773-1.5467-.325-3.0047-.908-4.4035-1.631-1.6186-.837-3.2203-1.7116-4.8177-2.5863-2.3582-1.289-4.767-2.4554-7.3069-3.364-4.3021-1.5425-8.6169-1.6101-12.98236-.2916-1.74958.5283-3.4569 1.1495-5.13464 1.8764-.51135.2197-1.03116.4184-1.546734.6254-.215529-.486-.236659-.9593.088747-1.4072.249336-.3254.540937-.5917.925507-.7649 7.26879-3.3302 14.57558-3.9641 22.02188-.486 3.2668 1.5256 6.3391 3.4019 9.5847 4.9572 1.5087.723 3.0385 1.373 4.7374 1.559 3.833.427 6.4658-1.639 8.7859-4.2469 3.3766-3.7992 6.0729-8.1055 8.8705-12.3315 2.3539-3.5584 4.936-6.9181 8.0168-9.9017 6.039-5.8446 13.0627-7.4251 21.0204-4.974 6.6771 2.0581 12.209 6.0305 17.4286 10.544 5.498 4.7543 10.142 10.3369 15.336 15.387 4.027 3.9131 8.689 5.5061 14.271 4.7541 5.828-.782 11.554-2.2016 17.42-2.7172 5.785-.5071 11.44-.0549 16.765 2.5522 4.712 2.304 7.818 6.014 9.614 10.878.879 2.379 1.513 4.835 2.037 7.315.106.495.194.994.304 1.492.968 4.467 2.76 6.044 7.341 6.479 3.93.372 7.877.621 11.778 1.289 5.43.929 10.476 2.721 14.749 6.368 1.8 1.539 3.173 3.402 4.547 5.283.807 1.103 1.614 2.223 2.274 3.415 2.535 4.598 6.575 7.18 11.444 8.68 3.342 1.031 6.715 1.961 10.146 2.641.575.114 1.357.097 1.298.951-.059.824-.829.816-1.412.807-2.637-.038-5.244.419-7.89.359-4.002-.084-8.012-.109-12.01-.004-10.485.271-20.978.072-31.459.372-8.11.228-16.219-.114-24.312.271-8.516.405-17.031-.085-25.53.308-8.312.389-16.625-.089-24.921.3-8.718.406-17.4364-.089-26.1379.309-8.7183.397-17.4366-.085-26.138.295-9.8805.427-19.7652-.084-29.6331.317-9.6818.393-19.3552.085-29.02866.237-.75223.013-1.53828.135-2.222897-.33z" fill="#1b2d28"/><path d="m.531025 142.144c0-.19-.088747-.443.173268-.498.291597-.064.604327-.055.904377-.064 6.28412-.114 12.56823-.236 18.85243-.329 8.2619-.123 16.5238-.229 24.7815-.334 7.7041-.097 15.4081-.195 23.1122-.283 10.189-.119 20.3738-.229 30.5628-.338 8.6164-.093 17.2334-.182 25.8504-.271 9.682-.101 19.36-.203 29.042-.304.232 0 .465-.013.676-.021.029-.372-.199-.402-.376-.469-.807-.301-1.619-.592-2.422-.896-3.461-1.315-6.504-3.28-9.128-5.891-.9-.892-1.783-1.801-2.671-2.705-2.028-2.058-4.061-4.108-6.331-5.908-1.593-1.264-3.275-2.388-5.058-3.364-5.452-2.992-11.186-3.689-17.204-2.113-1.961.515-3.88 1.175-5.794 1.83-2.063.706-4.121 1.42-6.2675 1.834-1.8594.359-3.7274.431-5.5868.021-2.0877-.456-3.8373-1.547-5.4051-2.958-1.5087-1.357-2.8484-2.878-4.2007-4.395-.8748-.985-1.7961-1.927-2.7258-2.861-.4268-.431-.9002-.816-1.3819-1.188-3.4654-2.696-7.2984-3.33-11.4653-1.982-2.2947.744-4.3401 1.948-6.225 3.427-2.6877 2.109-5.0078 4.577-7.1251 7.244-.8198 1.031-1.6059 2.092-2.4553 3.098-.748.891-1.5383 1.753-2.3624 2.573-.4606.461-.9973.862-1.5551 1.209-1.3143.82-2.7258 1.023-4.2261.524-.917-.304-1.7791-.723-2.6201-1.196-1.1918-.668-2.3835-1.344-3.5922-1.982-1.1241-.592-2.3158-1.027-3.5498-1.331-2.6033-.647-5.1262-.372-7.5773.684-2.1131.909-4.0359 2.13-5.8109 3.571-1.8467 1.501-3.647 3.06-5.4685 4.603-4.2006 3.554-8.77322 6.533-13.7515 8.883-.41415.194-.8283.38-1.250909.549-.333857.135-.54516-.063-.562064-.461-.012678-.325.152138-.579.270467-.857 5.151546-2.236 9.817106-5.249 14.123406-8.829 1.365-1.132 2.6963-2.303 4.0486-3.448 1.5467-1.314 3.1399-2.565 4.8726-3.622.9974-.608 2.0243-1.145 3.0977-1.606 3.2245-1.377 6.4912-1.42 9.7875-.283 1.4411.499 2.7977 1.183 4.1204 1.931.9678.55 1.9271 1.125 2.9244 1.615 2.4554 1.208 3.9049.968 5.908-.93.9551-.909 1.813-1.91 2.6329-2.946 1.1326-1.428 2.2482-2.873 3.4273-4.264 1.8045-2.13 3.7823-4.095 5.9967-5.802 2.2272-1.716 4.636-3.077 7.3745-3.808 4.1415-1.107 7.9281-.372 11.385 2.126 1.6101 1.162 2.9793 2.591 4.2978 4.066 1.0481 1.17 2.0919 2.341 3.1654 3.486.4817.516 1.0227.985 1.5467 1.458 2.7258 2.476 5.9376 3.123 9.479 2.476 1.897-.346 3.723-.959 5.549-1.576 2.54-.858 5.063-1.771 7.695-2.35 5.444-1.204 10.671-.629 15.692 1.788 3.406 1.644 6.444 3.825 9.179 6.419 1.618 1.534 3.237 3.073 4.729 4.729 3.503 3.888 7.699 6.699 12.614 8.457.622.219 1.239.448 1.847.693.896.363 1.788.718 2.785.651.254-.017.495.067.697.236.212.178.178.693-.071.786-.233.089-.478.165-.723.174-.862.038-1.72.059-2.582.067-8.617.08-17.23.152-25.847.233-10.438.097-20.876.207-31.3189.308-11.0469.106-22.0937.216-33.1406.304-13.5825.114-27.1608.212-40.7433.309-7.3491.051-14.6982.084-22.04306.122-.86211.005-1.72423-.016-2.582115-.029z" fill="#1b2d28"/><path d="m6.50891 157.767c-.47332.237-.9889.152-1.48334.169-1.55941.055-3.11882.097-4.674008.139.122556-.253.34231-.359.604325-.355 1.851003.017 3.702013-.135 5.553023.047z" fill="#dfab99"/><path d="m.635371 158.748c.456409-.017.908599-.051 1.365009-.055 8.26192-.043 16.52382 0 24.78152-.148 10.3369-.186 20.6738-.102 31.0107-.317 8.7141-.182 17.4325-.08 26.1423-.292 8.8156-.215 17.6351-.093 26.4471-.313 8.308-.207 16.621-.084 24.925-.3 8.511-.219 17.026-.088 25.533-.308 8.157-.211 16.317-.085 24.474-.3 8.359-.22 16.722-.089 25.077-.309 8.156-.211 16.317-.156 24.473-.283 1.821-.029 3.647-.101 5.468-.16.199-.009.41-.034.584-.119.114-.055.224-.211.253-.342.047-.216-.076-.385-.275-.482-.088-.042-.194-.072-.291-.072-2.561-.101-4.962-.955-7.404-1.597-2.202-.579-4.361-1.297-6.474-2.181-3.331-1.394-5.972-3.566-7.924-6.601-1.209-1.872-2.426-3.74-3.723-5.549-3.512-4.889-8.296-7.94-14.06-9.512-2.299-.626-4.649-.998-7.012-1.306-3.013-.393-6.047-.567-9.064-.9-1.209-.131-2.397-.368-3.542-.816-1.441-.566-2.472-1.526-3.114-2.941-.66-1.446-.943-2.988-1.268-4.522-.528-2.527-1.137-5.038-2.054-7.459-1.035-2.739-2.536-5.173-4.666-7.21-1.859-1.779-4.006-3.097-6.385-4.027-3.047-1.192-6.229-1.7413-9.492-1.8723-3.922-.1564-7.784.338-11.63 1.0015-3.093.5325-6.174 1.1288-9.276 1.6058-1.395.216-2.81.359-4.23.431-4.231.216-7.848-1.234-11.03-3.9216-.579-.4902-1.146-1.0016-1.678-1.5425-2.084-2.1426-4.159-4.2937-6.221-6.4574-4.302-4.5176-8.684-8.9423-13.7514-12.6232-3.4611-2.5103-7.1124-4.674-11.1863-6.0517-2.3624-.7987-4.7755-1.2889-7.2857-1.3735-4.3359-.1436-8.169 1.2087-11.6428 3.7147-2.2356 1.6102-4.1246 3.588-5.8995 5.6756-1.775 2.0877-3.3428 4.3275-4.8558 6.6095-2.02 3.0344-3.9682 6.1194-6.1784 9.0269-1.4411 1.8975-2.954 3.7231-4.7881 5.2741-2.9118 2.4681-6.1067 2.9711-9.6397 1.6101-1.8974-.731-3.6808-1.6862-5.4516-2.6751-2.6074-1.4622-5.2402-2.8695-8.0379-3.9471-3.2625-1.2594-6.6137-1.8679-10.1171-1.5805-2.54834.2113-4.96987.9255-7.35758 1.7876-1.18752.431-2.36236.9043-3.541427 1.3565-.008452-4.0443-.016904-8.0886-.021131-12.1329 0-5.7644 0-11.5287 0-17.293 0-.5536.029583-1.1115.046487-1.6651 1.432631.6339 2.873711 1.2509 4.302111 1.8975 2.21868 1.0058 4.47116 1.906 6.80394 2.6159 1.758.5367 3.5668.841 5.3882.8453 3.0258.0042 5.7686-.9425 8.1816-2.8104 1.8637-1.4411 3.3893-3.1906 4.7754-5.0754 2.2525-3.0682 4.1923-6.3349 6.0982-9.6228 3.0724-5.2994 6.0306-10.6707 9.4241-15.7842 3.0892-4.6571 6.5208-9.0311 10.5567-12.919 2.8272-2.7216 5.908-5.0967 9.3395-6.9984 3.8077-2.1088 7.8562-3.4442 12.2175-3.8879 4.319-.4395 8.4859.0465 12.5472 1.5509 3.4695 1.2847 6.5081 3.2752 9.2339 5.7474 3.8456 3.4908 6.6856 7.7083 8.8956 12.3866 2.198 4.6571 3.567 9.572 4.75 14.5545.702 2.954 1.374 5.9164 2.151 8.8535.727 2.747 1.682 5.4136 3.077 7.9112 1.576 2.8188 3.71 5.0459 6.677 6.4194 1.437.6677 2.954 1.0607 4.509 1.3016 2.68.4141 5.35.2493 8.017-.1437 5.798-.8452 11.334-2.6413 16.811-4.6402 3.808-1.3904 7.594-2.8315 11.406-4.1965 3.538-1.2636 7.151-2.2778 10.882-2.73 2.823-.3423 5.663-.3465 8.465.3212 4.273 1.0142 7.641 3.3977 10.346 6.7912 2.637 3.3133 4.221 7.1252 5.227 11.1991.655 2.6581 1.048 5.3544 1.302 8.0844.473 5.1135.27 10.227.118 15.3364-.055 1.872-.148 3.744-.127 5.616.021 1.826.19 3.643.554 5.431.448 2.223 1.293 4.26 2.967 5.874 1.331 1.285 2.924 1.965 4.762 2.092 2.109.148 4.133-.237 6.128-.879 2.417-.782 4.712-1.851 6.994-2.95 2.236-1.078 4.446-2.21 6.686-3.279 2.109-1.006 4.285-1.86 6.601-2.236 2.903-.469 5.764-.389 8.422 1.103 1.653.93 3.073 2.134 4.269 3.609 1.58 1.948 2.721 4.15 3.617 6.474 1.462 3.791 2.477 7.709 3.094 11.723.465 3.005.735 6.027.955 9.057.148 2.066.325 4.141.849 6.157.14.537.3 1.074.482 1.598.875 2.51 2.612 4.162 5.071 5.105 1.568.6 3.199.968 4.852 1.221 3.516.541 7.057.71 10.607.545 4.404-.203 8.778-.684 13.139-1.331 5.76-.854 11.469-1.99 17.196-3.03 2.687-.486 5.384-.934 8.122-1.116 1.365-.088 2.726-.19 4.095-.19 5.98-.008 11.647 1.34 17.018 3.939 4.079 1.973 7.852 4.424 11.326 7.332.541.456 1.044.959 1.555 1.454.178.169.461.363.368.612-.127.355-.516.233-.799.237-.913.017-1.825.013-2.738.013-46.837.025-93.67.046-140.508.076-46.989.029-93.974-.013-140.9636.131-21.388.068-42.776.072-64.16405.215-.65926.005-1.31852-.012-1.977788-.016.008453-2.709.016905-5.418.025357-8.127z" fill="#d47454"/></svg>