<svg fill="none" viewBox="0 0 159 225" xmlns="http://www.w3.org/2000/svg" xmlns:xlink="http://www.w3.org/1999/xlink"><clipPath id="a"><path d="m0 0h139.544v212.935h-139.544z" transform="matrix(.99636536 .08518251 -.08518251 .99636536 19 .583984)"/></clipPath><g clip-path="url(#a)"><path d="m127.743 160.234c-.132-.054-.265-.105-.398-.159-.151-.065-.281-.033-.386.092-.673-.192-.448-.838-.568-1.261-.68-2.359-1.925-4.442-3.124-6.541-.812-1.42-1.561-2.887-2.334-3.93 1.493 2.508 3.225 5.278 4.59 8.246 1.041 2.259 1.555 4.683 1.45 7.178-.133 3.201-2.791 5.491-5.576 4.889-1.388-.299-2.437-1.169-3.432-2.132-1.715-1.665-2.984-3.707-4.646-5.422-1.311-1.355-2.699-2.607-4.318-3.565-3.915-2.318-8.118-1.235-10.7586 2.735-1.8202 2.732-2.8413 5.778-3.5508 8.959-.1967.888-.1643 1.884-.8609 2.624-.1327.14-.268.348-.0831.514.7296.669.3961 1.476.2295 2.203-.2662 1.167-.1632 2.329-.1359 3.384.0656-.614-.1079-1.334-.0459-2.059.1124-1.315.4409-1.644 1.7795-1.569 2.6092.145 5.2062.432 7.7752.927 5.63 1.088 11.224 2.336 16.725 3.97 1.952.58 3.817 1.375 5.661 2.221.534.246 1.022.57 1.469.952 1.153.99 1.109 2.039-.175 2.853-1.816 1.149-3.895 1.604-5.95 2.045-8.91 1.91-17.933 2.941-27.0321 3.327-5.0229.213-10.0486.229-15.0741.166-5.9612-.077-11.9109-.327-17.8655-.557-5.8539-.225-11.6792-.746-17.4891-1.371-5.6903-.611-11.3557-1.551-16.8062-3.439-.9957-.344-1.9891-.714-2.8962-1.254-1.7218-1.016-1.7383-2.197-.0734-3.304 1.7514-1.164 3.7521-1.731 5.7187-2.356 5.0036-1.591 10.1612-2.425 15.3514-3.106 4.913-.645 9.8412-1.125 14.7767-1.575.5198-.048.9681-.288 1.4554-.413.5073-.091 1.0137-.173 1.5264-.06.3842.203.3481.587.3616.926.1121 2.507.013 5.003-.3721 7.484.7775-4.169.6711-8.347-.0609-12.5-.6972-3.951-1.8972-7.747-3.9494-11.236-1.2856-2.185-2.8663-4.087-4.9045-5.602-3.1829-2.37-6.2243-2.269-9.2915.232-1.9091 1.557-3.6006 3.356-5.5186 4.903-1.0448.842-2.1536 1.553-3.4418 1.958-2.3215.729-4.1012-.22-4.8037-2.581-.5915-1.978-.3202-3.967.066-5.927.6848-3.465 1.7931-6.805 3.1116-10.085-.8206 1.389-1.4593 2.865-2.1483 4.317-1.3455 2.831-2.8621 5.563-4.5966 8.172-.8541 1.284-1.9012 2.381-3.1382 3.294-2.1188 1.566-4.2922.944-5.2997-1.475-.5393-1.292-.7625-2.652-.7078-4.017.1987-5.113 1.3173-9.986 3.9541-14.442.5648-.954 1.084-1.949 1.3158-3.057-.9589 1.059-1.3872 2.402-2.0023 3.641-1.1278 2.27-2.8885 3.886-5.1511 4.919-2.1846 1-3.9673.277-5.0447-1.9-1.07487-2.167-1.28006-4.502-1.21181-6.866.11281-3.992 1.08961-7.819 2.51001-11.526 1.9663-5.129 4.6499-9.826 8.5655-13.736 4.8466-4.833 10.6552-7.362 17.5185-7.45 8.1805-.107 14.7075 3.433 20.305 9.101 3.0107 3.046 5.6106 6.392 7.5964 10.201.9988 1.911 1.6967 3.944 2.4484 5.958.4197 1.124.5016 2.305.4738 3.469-.1385 5.974-.1533 11.951-.2623 17.924-.0796 4.329-.2881 8.638-.6888 12.944.4862-4.122.7052-8.249.7174-12.401.0082-2.769.0988-5.548.1627-8.318.0817-3.553.0916-7.105.082-10.659-.0072-2.971.005-5.939-.0352-8.906-.0602-4.374-.0586-8.747-.2201-13.12-.4032-11.0542-1.3222-22.0707-2.2183-33.0885-.4831-5.9577-1.008-11.9223-2.3064-17.7759-.6102-2.7531-1.4007-5.4593-2.8596-7.908-.4992-.8424-1.1122-1.6159-1.8795-2.2257-1.9991-1.5901-4.3442-1.4629-6.6305.3444-1.4181 1.121-2.5679 2.5043-3.7116 3.8914-2.3603 2.8629-4.4857 5.9196-7.0838 8.5852-1.324 1.3586-2.7824 2.5319-4.6304 3.0688-1.4763.4277-2.3867-.3024-2.297-1.8484.0856-1.4972.5656-2.9115 1.1371-4.2885.6454-1.5542 1.3094-3.097 2.1308-4.5706.1118-.2002.2336-.4028.2025-.7267-.4937-.0291-.7594.3284-1.0585.5814-1.334 1.1315-2.8684 1.8952-4.5103 2.4268-2.713.8792-4.2717-.2112-4.4146-3.0456-.1395-2.7587.8801-5.2151 2.0546-7.6123 2.0815-4.2602 4.9007-7.9853 8.3018-11.3-1.4594.8028-2.8558 1.7094-4.381 2.3656-1.0406.4486-2.0893.8769-3.2151 1.0625-1.5631.2597-2.3176-.4243-2.1524-2.013.1107-1.0657.5329-2.0326 1.0407-2.9692 1.5303-2.8159 3.5453-5.2691 5.886-7.4061 6.2573-5.7158 13.3684-10.0769 21.5284-12.3883 5.8515-1.65652 11.5788-1.1341 16.4209 3.0591 2.9727 2.5749 4.6108 6.0582 5.9081 9.7092 1.2741 3.5801 1.9661 7.3234 3.0863 10.9461.3119 1.01.6712 2.0011 1.1894 2.9271 1.1358 2.0278 2.7308 2.1969 4.254.3801 1.265-1.5078 2.0839-3.2963 3.0112-5.0165 1.6096-2.9796 3.3891-5.8463 6.3505-7.6843 4.4473-2.7534 9.1403-2.9258 13.9103-1.0233 6.181 2.4656 10.331 7.1144 13.322 12.916 1.408 2.7328 2.431 5.59 2.44 8.7309.003.8819-.163 1.7167-.531 2.5014-.538 1.1438-1.39 1.4086-2.496.7929-1.431-.791-2.438-2.0374-3.44-3.2998 1.259 1.6941 2.195 3.5343 2.719 5.5818.195.7706.26 1.5398.134 2.3256-.229 1.4226-1.034 1.9733-2.431 1.513-1.496-.4885-2.559-1.6054-3.528-2.7961-.266-.3275-.437-.729-.835-.9694 1.457 1.6684 2.326 3.6503 3.086 5.6885.496 1.3338.78 2.7086.638 4.1387-.229 2.3338-1.975 3.4334-4.167 2.6134-2.578-.9645-4.572-2.8034-6.62-4.5485-1.339-1.1404-2.69-2.2589-4.187-3.1867-2.31-1.4299-4.091-1.0708-5.654 1.1326-2.0449 2.8833-3.2012 6.1737-4.0931 9.5424-1.536 5.7851-2.3914 11.7037-3.3496 17.6037-.6265 3.8536-1.2274 7.7126-1.8442 11.567-.318 2.0018-.5432 4.0246-.8132 6.0368-.155 1.164-.1158 2.347-.3806 3.498-.663 5.463-1.1309 10.936-1.389 16.437-.1927 4.087-.3755 8.172-.3985 12.261-.0072 1.153-.0471 2.307.0832 3.455.1343.11.2653.22.3996.33.0592.07.0717.153.0415.239-.0426.078-.0911.15-.1461.22-.0261.037-.055.071-.0808.105-.0458.078-.0979.152-.1437.23-.04.085-.0863.17-.1295.255-.0815.189-.1504.383-.2351.573-3.3082 5.397-5.5482 11.283-7.769 17.173 1.2519-3.187 2.4813-6.379 3.8592-9.513 3.6466-8.286 8.6635-15.57 15.797-21.224 4.7099-3.733 9.8509-6.618 15.9939-7.177 3.859-.352 7.534.424 11.038 1.979 3.906 1.734 7.571 3.892 10.61 6.951 3.649 3.675 6.235 7.908 6.492 13.26.145 2.969-.647 5.661-2.688 7.883-1.706 1.86-3.584 1.948-6.137 1.298-1.237-.316-2.008-1.07-2.572-2.302-1.195-2.6-2.982-4.837-4.847-6.996 2.867 3.539 5.646 7.127 6.384 11.821.321 2.047.231 4.055-.769 5.933-.922 1.734-2.316 2.572-4.32 2.26-.457-.072-.917-.158-1.382-.178z" fill="#85d8dd"/><path d="m61.3001 173.728c-.9257.632-2.0084.543-3.0425.648-4.8016.487-9.6036.942-14.3869 1.599-3.6305.499-7.2402 1.098-10.799 1.98-2.1946.544-4.3493 1.231-6.4756 2.007-.8458.308-1.6472.708-2.4265 1.156-.4088.237-.7826.523-1.0844.884-.3384.407-.3175.887.0517 1.266.4112.422.9034.736 1.4366.992 1.6205.787 3.3302 1.333 5.0612 1.783 2.0344.528 4.0847.985 6.1396 1.426 1.1027.239 2.2201.419 3.3416.551 2.5148.294 5.0133.74 7.5397.937 4.0828.319 8.1593.714 12.2448.965 2.137.13 4.2794.274 6.4212.309 1.4833.025 2.9584.145 4.4376.18 1.7137.041 3.4242.043 5.1395.065.1564.004.3128.007.4692.011 1.7134.045 3.4275.119 5.1412.122 2.0628.006 4.1252-.061 6.1861-.071.9341-.006 1.8677-.005 2.8027-.02 4.0085-.07 8.0105-.256 12.0071-.605 3.335-.295 6.658-.706 9.974-1.157 3.244-.441 6.476-.938 9.662-1.695 1.556-.368 3.104-.763 4.584-1.384.576-.243 1.146-.502 1.626-.917.62-.533.645-1.134.054-1.706-.537-.518-1.165-.913-1.837-1.235-2.109-1.023-4.29-1.859-6.553-2.468-2.63-.707-5.258-1.43-7.911-2.047-2.273-.529-4.565-.99-6.858-1.425-2.799-.531-5.605-.965-8.4459-1.148-.3473-.024-.7041-.051-1.0502-.012-.4483.051-.6956.308-.7416.77-.0429.425-.0375.858-.025 1.286.019.693-.0005 1.379-.1664 2.06-.0677-.812-.2313-1.609-.1677-2.43.043-.58.0958-1.159.016-1.752-.0539-.401.1365-.834.2019-1.255.0631-.394.0412-.406-.4557-.55-.3121-.092-.4355-.329-.3394-.612.1056-.319.3301-.539.6157-.672.3329-.152.4078-.418.4745-.74.3758-1.836.758-3.672 1.3764-5.444.866-2.493 1.9783-4.85 3.8408-6.778 1.3506-1.402 2.9626-2.31 4.9186-2.428 1.664-.104 3.249.255 4.706 1.12 1.417.842 2.716 1.842 3.859 3.024 1.055 1.093 2.107 2.196 3.006 3.437.757 1.044 1.635 1.991 2.564 2.887.537.515 1.119.971 1.77 1.338 2.526 1.419 5.193.008 6.06-2.262.37-.968.495-1.976.419-2.996-.186-2.523-.808-4.943-2.025-7.168-1.276-2.331-2.625-4.62-3.956-6.92-.273-.472-.615-.904-.915-1.359-.061-.091-.124-.237.015-.294.074-.03.226.029.295.094.747.7 1.342 1.534 1.848 2.41 1.235 2.128 2.528 4.221 3.615 6.438.52 1.061.791 2.205 1.278 3.269.074.161.033.295-.012.445-.056.195-.04.387.137.53.202 1.036.338 2.084.339 3.146 0 .911-.159 1.786-.461 2.645-.923 2.619-4.207 4.298-7.125 2.462-1.035-.652-1.925-1.466-2.722-2.383-.639-.736-1.249-1.503-1.87-2.258-.994-1.206-1.988-2.412-3.133-3.483-1.146-1.071-2.373-2.035-3.771-2.751-1.392-.712-2.856-1.005-4.419-.739-1.183.201-2.229.679-3.167 1.418-1.2183.958-2.1405 2.16-2.9105 3.491-1.0648 1.839-1.8018 3.815-2.3523 5.863-.283 1.057-.515 2.129-.747 3.201-.1134.524-.028.633.4978.668 1.8696.127 3.7237.397 5.581.628 2.985.367 5.94.895 8.871 1.558 4.605 1.043 9.144 2.329 13.579 3.954 2.564.94 5.095 1.956 7.512 3.245 1.346.718 2.639 1.513 3.816 2.489.695.574 1.33 1.209 1.826 1.969.574.882.878 1.835.683 2.894-.079.432-.073.855-.021 1.283.582 4.835.135 9.608-.832 14.351-.157.763-.403 1.509-.624 2.26-.304 1.027-.955 1.774-1.873 2.309-1.016.588-2.096 1.04-3.198 1.437-2.9 1.044-5.859 1.895-8.848 2.643-6.064 1.517-12.216 2.489-18.44 3.038-4.158.366-8.3247.531-12.4966.604-4.1722.076-8.3422.011-12.5163-.12-8.658-.265-17.3006-.787-25.9269-1.538-3.9664-.346-7.9185-.782-11.8601-1.342-4.093-.582-8.1528-1.362-12.1073-2.611-2.5686-.81-5.066-1.804-7.4894-2.974-.0346-.016-.0726-.03-.1072-.046-1.9949-.875-3.3112-2.318-4.093-4.401-1.3166-3.502-2.2484-7.075-2.5895-10.799-.1281-1.404-.0728-2.815.0085-4.224.0879-1.563.1758-3.125.1235-4.69-.0499-1.44.5234-2.571 1.604-3.488.7215-.61 1.5147-1.106 2.3392-1.547 1.6901-.904 3.4731-1.598 5.277-2.23 4.466-1.565 9.0594-2.634 13.7-3.493 6.9065-1.281 13.8682-2.138 20.8728-2.657.6603-.048 1.3241-.06 1.9873-.066.3887-.003.782.018 1.1666.064.3716.045.7393.135 1.1375.212.0142-.166.0469-.282.0299-.388-.6293-3.522-1.598-6.931-3.2512-10.124-.8291-1.605-1.7935-3.117-2.9934-4.471-.911-1.029-1.9413-1.923-3.0915-2.674-.229-.147-.4694-.276-.7057-.414-2.0483-1.169-4.0793-1.126-6.1018.078-1.0832.642-2.0425 1.438-2.9577 2.291-.7733.72-1.5283 1.455-2.2986 2.179-.9122.857-1.8573 1.677-2.9139 2.351-.8595.546-1.7608 1.006-2.7657 1.228-2.1523.469-3.8859-.447-4.6864-2.501-.4012-1.034-.5304-2.121-.4847-3.228.0763-1.885.3685-3.738.8604-5.557.0616-.225.0943-.455.1949-.944-.2827.405-.4388.588-.5511.795-.7699 1.406-1.5554 2.804-2.434 4.145-.7286 1.114-1.5187 2.184-2.4552 3.133-.8325.84-1.7557 1.558-2.903 1.919-1.4391.45-2.721.056-3.6587-1.119-.4451-.56-.7334-1.197-.9533-1.872-.3772-1.163-.5157-2.368-.5227-3.584-.0181-2.844.5052-5.605 1.3183-8.318.2335-.783.489-1.558.7363-2.349-.3678-.052-.5028.229-.6931.393-.5985.509-1.2226.973-1.9108 1.347-.6197.337-1.2687.597-1.9654.727-1.3367.246-2.4698-.132-3.4018-1.107-.7463-.778-1.204-1.725-1.5219-2.742-.58936-1.89-.73988-3.833-.66639-5.8.14111-3.751.98179-7.36 2.25499-10.873 1.4223-3.92 3.2851-7.609 5.7816-10.958 2.1203-2.844 4.6069-5.313 7.5929-7.247 3.4422-2.23 7.2097-3.491 11.284-3.874 6.5424-.6105 12.4148 1.193 17.7607 4.915.7025.489 1.3925 1.01 2.04 1.57 4.5078 3.903 8.2592 8.406 10.8691 13.811.663 1.371 1.1741 2.801 1.6791 4.264.3493-.114.2198-.394.2186-.571.0008-1.957-.0081-3.915-.0335-5.87-.0335-2.74-.0931-5.479-.1269-8.216-.0362-2.936-.1513-5.867-.3286-8.796-.2438-3.9834-.4843-7.9668-.7676-11.9473-.2737-3.9011-.5866-7.8021-.903-11.7003-.3515-4.3272-.6963-8.6571-1.2056-12.9716-.4254-3.6157-.9668-7.2118-1.9098-10.7308-.3961-1.4761-.8599-2.9252-1.5018-4.3142-.46-.9964-.9987-1.9504-1.7347-2.7738-.1549-.1738-.3095-.3509-.4817-.5131-1.6817-1.5992-3.5559-1.8249-5.5619-.6624-.886.511-1.6575 1.1727-2.3784 1.8912-1.0244 1.0236-1.9427 2.1415-2.8426 3.274-1.4086 1.7742-2.8023 3.5659-4.2263 5.3289-1.1318 1.4012-2.3391 2.7304-3.7426 3.8723-.7614.62-1.5656 1.1675-2.4449 1.6004-.5999.2961-1.2285.5079-1.9071.5023-.8874-.007-1.4778-.4705-1.678-1.3366-.1686-.7388-.106-1.4709.0519-2.2113.4458-2.0826 1.2583-4.0257 2.185-5.9295.218-.4501.4263-.901.6656-1.4083-.3747-.0091-.5379.2195-.7389.3564-1.2425.8246-2.5401 1.5299-3.9716 1.968-.6772.2076-1.3628.3227-2.0729.2653-1.0247-.0811-1.7509-.5988-2.2192-1.4976-.3869-.7443-.537-1.5471-.5344-2.3795-.0021-1.5407.2725-3.0348.7821-4.4892 1.1649-3.3159 2.9004-6.3174 4.9912-9.1215.6527-.8751 1.3792-1.6979 2.0659-2.5505.1606-.1993.4111-.3418.4454-.6666-.3333.0043-.5818.1994-.8441.3277-.9818.4864-1.9875.9085-3.0254 1.2491-.6316.2083-1.276.3761-1.9424.3814-1.1957.0092-1.9039-.6807-1.9258-1.8757-.0088-.4695.0636-.9353.1939-1.3896.3357-1.1775.8689-2.2595 1.5093-3.2962 1.8261-2.9545 4.1477-5.4799 6.7483-7.7552 3.6066-3.1595 7.6242-5.7038 11.8813-7.8801 2.2942-1.174 4.6325-2.2524 7.087-3.0489 3.2402-1.05044 6.5452-1.44638 9.9255-.92795 4.6273.71025 8.3561 2.88105 10.9644 6.85375 1.1874 1.806 2.1056 3.743 2.8803 5.7562 1.0121 2.6334 1.7229 5.3557 2.4133 8.0861.3831 1.5143.816 3.0198 1.2726 4.5142.2039.6697.5081 1.3119.7996 1.9498.1951.4296.4659.8134.803 1.147.7192.7138 1.4973.777 2.2939.1273.3614-.2936.6913-.6391.9651-1.0156.4364-.5985.8361-1.2265 1.2048-1.8735.5994-1.0533 1.155-2.1301 1.7357-3.1949.6738-1.2371 1.3881-2.4511 2.2321-3.5786 2.1827-2.924 4.9704-4.9441 8.5586-5.755 2.724-.6161 5.421-.4675 8.093.3116 3.405.9926 6.327 2.8288 8.885 5.2469 3.736 3.5317 6.359 7.7909 7.959 12.6772.604 1.8379.88 3.7266.632 5.6688-.076.5868-.193 1.1569-.455 1.6918-.154.3211-.343.6164-.611.8524-.511.4414-1.094.6177-1.735.363-.499-.2-.969-.4664-1.458-.7081-.196.1963-.018.3688.04.5214.353.9151.633 1.8469.764 2.8252.068.5105.054 1.0174-.029 1.5217-.261 1.5738-1.401 2.2631-2.913 1.7372-.4-.139-.764-.3833-1.146-.5765-.264-.1209-.37-.0186-.364.254.446 1.0412.869 2.0934 1.113 3.2091.257 1.1593.333 2.3229.087 3.4917-.406 1.9221-1.93 2.9095-3.833 2.4388-.597-.1495-1.18-.4025-1.738-.6731-1.091-.5292-2.086-1.2174-3.022-1.9891-1.205-.9945-2.399-2.0012-3.593-3.0047-.956-.8061-1.945-1.5659-3.001-2.2396-.461-.2919-.939-.5458-1.454-.7439-1.053-.4046-1.992-.1932-2.857.4638-.569.4299-1.002.9829-1.392 1.5723-.7604 1.1445-1.3615 2.3715-1.8971 3.6335-1.1295 2.6732-1.9606 5.444-2.5814 8.2753-.9079 4.1671-1.6361 8.3693-2.3032 12.5832-.5716 3.5927-1.2045 7.177-1.744 10.7757-.5263 3.5213-.9754 7.0556-1.4404 10.5854-.2769 2.094-.525 4.193-.7857 6.288-.2545-.002-.3256-.162-.3008-.376.1632-1.451.1291-2.923.4541-4.357.2119-2.02.2883-4.059.7171-6.058.0423-.1898.0593-.3883.0727-.5838.148-2.1507.5703-4.2648.8762-6.3921.3159-2.2052.7154-4.3966 1.0281-6.6021.2961-2.0888.6375-4.1738.9979-6.2506.3409-1.9638.7685-3.9103 1.0997-5.8748.2462-1.4671.5626-2.9151.879-4.363.5263-2.4133 1.2682-4.7525 2.1475-7.057.6308-1.6505 1.4146-3.2191 2.3803-4.6968.345-.5277.766-.9802 1.224-1.4097 1.213-1.1353 2.57-1.157 4.02-.5905.695.2725 1.305.695 1.916 1.1144 1.704 1.1782 3.244 2.5652 4.828 3.897 1.139.9562 2.305 1.872 3.615 2.5806.79.4248 1.583.8433 2.508.906 1.084.0763 1.908-.3908 2.348-1.3759.31-.6913.398-1.4147.352-2.1758-.11-1.8352-.748-3.5089-1.512-5.1443-.55-1.1713-1.168-2.2993-2.077-3.2423-.243-.2534-.467-.5283-.541-.8886-.037-.1769.04-.3178.186-.384.092-.0413.256-.0437.326.0115.438.339.752.7919 1.042 1.2559.721 1.1531 1.746 1.9849 2.855 2.7254.365.241.764.38 1.201.4239.855.0862 1.349-.2386 1.519-1.0829.125-.6121.179-1.2434.046-1.8677-.458-2.1304-1.262-4.1035-2.647-5.8116-.219-.2711-.499-.5081-.589-.86-.025-.0939.02-.2343.079-.3177.108-.1515.289-.1392.419-.0527.368.238.625.5943.849.9575.495.8159 1.213 1.4247 1.878 2.0814.301.2978.677.5298 1.047.7418.971.5518 1.592.3557 2.072-.6751.296-.64.499-1.3275.5-2.0353.009-1.8938-.304-3.7365-.945-5.5186-1.477-4.1088-3.714-7.7549-6.748-10.8791-2.566-2.6383-5.556-4.6672-9.098-5.7666-3.585-1.1127-7.136-1.0755-10.623.4456-2.2003.9591-3.9562 2.4806-5.4164 4.3618-1.3753 1.7671-2.3814 3.7592-3.4468 5.7201-.5036.9271-1.0448 1.8347-1.5981 2.7314-.4131.6694-.9273 1.2613-1.5646 1.728-.902.6604-1.7867.6601-2.7006.0084-.4554-.3241-.781-.7551-1.0599-1.2346-.5784-.9869-.9739-2.0499-1.2854-3.1418-.4955-1.7271-.9739-3.4627-1.4026-5.207-.51-2.0922-1.1273-4.151-1.8522-6.1731-.7276-2.0289-1.6385-3.9751-2.8086-5.7927-2.0947-3.2602-4.948-5.4741-8.7243-6.4394-3.3962-.8672-6.7822-.82235-10.1684.0649-2.8453.7466-5.5084 1.9579-8.1279 3.2712-3.1107 1.5598-6.1023 3.3297-8.895 5.4083-3.302 2.4612-6.3352 5.2142-8.737 8.6013-.9504 1.3413-1.8418 2.7172-2.3498 4.3061-.1432.4532-.2378.9105-.2549 1.3778-.0351.9836.447 1.4542 1.4376 1.3619.7403-.0678 1.4513-.2889 2.1489-.544 1.9543-.7113 3.7605-1.714 5.4823-2.8746.1629-.1106.3169-.2319.4762-.3395.1697-.1133.3481-.1767.5312-.0267.165.1321.142.3629-.082.6158-.1555.1768-.3291.3357-.4932.4986-1.4791 1.4535-2.8883 2.9686-4.1432 4.6248-1.9429 2.5642-3.5781 5.3089-4.8066 8.2981-.5237 1.2762-.8652 2.5974-1.0946 3.9446-.1508.8853-.0617 1.791.1401 2.6769.0777.3508.2339.6624.4139.9629.2999.501.7428.7814 1.3199.8668.7512.1101 1.4735.0243 2.1897-.2193 1.6782-.5743 3.2146-1.4001 4.5792-2.5454.327-.2736.6696-.5393 1.0201-.7814.125-.0876.3097-.0718.4372.0407.1216.1055.1904.2555.1211.4168-.1578.3569-.3157.7138-.4986 1.0587-1.008 1.9002-1.9439 3.836-2.606 5.8903-.2886.8931-.558 1.7911-.6062 2.7375-.017.3132-.0237.6208.0774.9277.1965.6035.6094.8912 1.2368.8072.5842-.0746 1.1352-.257 1.6586-.5367 1.2862-.6865 2.4082-1.5904 3.4362-2.6169 1.442-1.4402 2.6921-3.0411 3.9549-4.6376 1.4788-1.8697 2.9026-3.7835 4.4913-5.5652.7547-.8467 1.5458-1.6607 2.4563-2.3434.9142-.6888 1.9041-1.1942 3.0466-1.421 1.1421-.2236 2.1563.0565 3.1413.6029 1.0566.5853 1.7983 1.4944 2.4702 2.4565.4482.6381.8101 1.3312 1.1238 2.0529 1.1494 2.632 1.8536 5.3931 2.3837 8.2048.7813 4.1116 1.2327 8.2638 1.5914 12.431.2597 2.9952.5457 5.9893.7857 8.9861.256 3.1915.4691 6.3891.6989 9.5817.2009 2.7672.4185 5.5293.5932 8.2976.1781 2.8048.3427 5.6148.4681 8.4248.0783 1.757.0618 3.516.0977 5.272.0387 1.914.094 3.827.1295 5.741.0145.899-.0099 1.795.0111 2.695.0483 2.109.005 4.219.0106 6.33.0054 2.266.0271 4.533.0326 6.798.0012 1.056-.0628 2.109-.0389 3.166.0361 1.564-.0615 3.125-.0843 4.69-.0262 1.758-.0363 3.517-.056 5.276-.0004.157-.0105.314-.0141.471-.056 1.876-.1741 3.754-.1515 5.628.0334 2.435-.2346 4.844-.4248 7.26-.0568.703-.1653 1.398-.4243 2.061-.0291.073-.0366.161-.0838.216-.0691.083-.1555.177-.252.198-.18.044-.165-.132-.1666-.227.0003-.233.0206-.47.0501-.701.34-2.603.531-5.218.6407-7.838.0681-1.561.032-3.124.0416-4.687.0005-.196.0074-.392.0141-.585.0559-1.838.1215-3.674.1609-5.509.0434-2.15.0639-4.299.0875-6.447.0202-2.03.0177-4.063.0511-6.096.0244-1.469-.2936-2.866-.777-4.239-1.4418-4.099-3.5324-7.827-6.2708-11.195-2.1271-2.614-4.4118-5.064-7.0815-7.135-3.092-2.401-6.522-4.133-10.3216-5.055-1.9255-.466-3.8893-.713-5.9058-.649-2.2355.068-4.4224.33-6.5776.909-3.1373.84-5.9513 2.327-8.4869 4.339-3.6072 2.861-6.342 6.439-8.5034 10.49-1.5513 2.909-2.7647 5.952-3.6657 9.12-.7649 2.684-1.2179 5.425-1.2311 8.213-.0104 1.917.1786 3.831.9589 5.625.3298.763.7295 1.472 1.4036 1.988.7172.547 1.5008.774 2.4122.577.9346-.202 1.7752-.602 2.5432-1.146 1.0535-.752 1.9761-1.654 2.7815-2.673.3406-.433.5693-.931.7886-1.434.5509-1.251 1.1115-2.501 1.8254-3.672.2922-.477.5895-.671.7809-.504.2946.258.1655.585.0665.865-.3728 1.076-.8316 2.128-1.4663 3.06-1.1615 1.71-1.8154 3.631-2.444 5.56-.8402 2.574-1.363 5.214-1.4908 7.93-.0552 1.142.0317 2.264.2299 3.382.1295.739.3995 1.437.7518 2.09.7107 1.31 1.9852 1.753 3.3879 1.27.5212-.178.9777-.477 1.4175-.81 1.0717-.813 1.929-1.828 2.6978-2.916 1.1066-1.564 2.0648-3.226 2.9731-4.915 1.2579-2.341 2.375-4.753 3.4985-7.164.18-.388.4011-.759.6281-1.123.0456-.075.21-.126.3034-.112.1674.028.2683.184.2512.346-.0194.189-.0847.38-.1619.557-.961 2.268-1.7894 4.586-2.4495 6.962-.5789 2.075-1.0452 4.169-1.1357 6.334-.035.83.0492 1.64.2484 2.44.0854.339.2137.671.3596.988.6898 1.478 2.1068 2.049 3.5853 1.709 1.2853-.293 2.3998-.919 3.4275-1.713 1.0206-.787 1.9849-1.642 2.9019-2.554 1.0813-1.078 2.2219-2.085 3.4282-3.021.8112-.628 1.7062-1.093 2.672-1.43 1.3091-.458 2.6136-.366 3.8998.055 1.5496.509 2.8328 1.462 4.0377 2.528 1.3836 1.23 2.5032 2.682 3.4518 4.265 1.5604 2.598 2.6775 5.378 3.452 8.309.71 2.693 1.1652 5.426 1.3128 8.205.1195 2.269.0204 4.535-.2964 6.789-.023.156-.0429.311-.0754.463-.2185.951-.5476 1.556-.6525 1.37-.2698-.473-.0597-.982-.0245-1.471.0805-1.094.2159-2.181.2899-3.276.0966-1.473.0691-2.947-.0663-4.417-.3632-.412-.354-.939-.429-1.437-.1933-1.252-.4035-1.427-1.6931-1.351-2.4181.141-4.8108.52-7.2069.823-7.9345 1.01-15.8622 2.092-23.6172 4.133-3.8877 1.025-7.7582 2.117-11.3014 4.115-.6828.387-1.3303.82-1.8933 1.372-1.0117.988-1.119 2.245-.2893 3.384.6515.895 1.4756 1.604 2.4112 2.192 3.7618 2.358 7.9757 3.55 12.2003 4.656 5.3231 1.392 10.7511 2.246 16.1819 3.104 5.901.934 11.8376 1.451 17.7805 1.933 6.2217.506 12.4527.596 18.6896.388 8.3028-.276 16.6014-.658 24.8834-1.373 6.262-.54 12.498-1.278 18.604-2.851 2.343-.603 4.677-1.252 6.747-2.589 2.097-1.352 2.319-2.765.696-4.628-1.067-1.225-2.406-2.104-3.812-2.879-5.056-2.789-10.498-4.553-16.035-6.075-6.032-1.656-12.153-2.806-18.3854-3.338-.3306-.029-.6583-.014-1.1008-.032 9.3972.82 18.4072 2.927 27.2552 5.788 1.445.468 2.851 1.05 4.212 1.74.667.336 1.285.746 1.818 1.27 1.363 1.349 1.195 3.242-.399 4.325-.977.661-2.057 1.106-3.178 1.469-5.271 1.696-10.742 2.337-16.194 3.064-8.404 1.12-16.8579 1.446-25.3267 1.41-4.7125-.019-9.4249-.078-14.1372-.251-4.5952-.17-9.1841-.376-13.775-.709-2.0149-.146-4.0557-.065-6.067-.329-7.1418-.932-14.3487-1.521-21.281-3.681-1.307-.407-2.5947-.848-3.8424-1.413-.4274-.194-.8435-.407-1.2248-.682-2.0779-1.508-2.0905-3.499-.0025-4.973 1.0251-.725 2.1687-1.233 3.3449-1.664 6.8726-2.526 14.0402-3.615 21.2661-4.393 3.8024-.409 7.6086-.749 11.4329-.842.7983-.02 1.65-.206 2.3175.464z" fill="#23312d"/><path d="m127.744 160.233c.155-.161.346-.148.543-.128.466.053.931.113 1.395.142 1.325.087 2.341-.491 3.109-1.533.664-.897 1.019-1.916 1.182-3.023.308-2.111-.045-4.13-.724-6.113-.615-1.786-1.547-3.41-2.602-4.972-.985-1.46-2.082-2.833-3.158-4.219-.118-.151-.221-.317-.329-.474.23-.239.363-.041.494.065 1.038.849 1.873 1.888 2.635 2.972 1.168 1.66 2.344 3.324 3.098 5.234.137.349.374.593.685.77 2.174 1.231 5.475 1.451 7.489-1.179 1.643-2.144 2.341-4.543 2.221-7.225-.184-4.07-1.802-7.565-4.269-10.703-2.424-3.081-5.45-5.448-8.866-7.343-1.811-1.003-3.644-1.944-5.595-2.641-1.695-.607-3.438-1.032-5.217-1.226-3.224-.355-6.374.097-9.423 1.197-3.065 1.104-5.892 2.662-8.53 4.58-4.655 3.392-8.5672 7.492-11.8331 12.241-2.9191 4.244-5.1437 8.843-7.0621 13.602-.7004 1.74-1.382 3.487-2.0571 5.236-.1808.473-.3047.967-.479 1.44-.0299.083-.1735.159-.2727.174-.1684.021-.2829-.09-.3306-.258-.0674-.242.0106-.468.0944-.684 1.7566-4.432 3.3996-8.91 5.5782-13.161.7484-1.461 1.5095-2.917 2.4354-4.276.1537-.118.1205-.341.2586-.467.0031-.075.0222-.145.0572-.211.0621-.077.1295-.14.2093-.195l.0484-.032c.058-.067.1246-.121.2033-.163.0356-.072.0387-.147.0125-.222 3.3864-5.243 7.5741-9.74 12.5953-13.44 2.686-1.983 5.584-3.577 8.716-4.732 3.903-1.44 7.894-1.758 11.969-.927 2.15.436 4.194 1.191 6.17 2.143 3.643 1.754 7.022 3.895 9.9 6.773 2.439 2.44 4.291 5.254 5.425 8.533.845 2.449 1.127 4.948.686 7.513-.304 1.767-.98 3.374-2.121 4.768-1.638 2.004-3.908 2.976-7.04 1.804-.319-.119-.581-.384-.943-.386-.218.224-.07.44-.007.649.374 1.284.582 2.593.604 3.932.022 1.271-.203 2.494-.695 3.665-.197.471-.456.908-.771 1.31-.935 1.199-2.147 1.777-3.67 1.65-.311-.027-.617-.082-.927-.122-.203-.188-.531-.049-.721-.268-.058-.012-.112-.033-.161-.063z" fill="#263230"/><path d="m89.8951 104.671c-.0999 1.283-.203 2.565-.2999 3.852-.0259.302-.1188.625.1463.884-.0202.428-.0177.857-.0607 1.283-.5334 5.324-.843 10.663-1.0907 16.004-.1287 2.765-.1112 5.54-.1651 8.308-.0144.704-.0548 1.405-.0822 2.107-.1479.05-.2128-.031-.2179-.162-.0305-1.514-.1-3.031-.0687-4.543.0215-1.053-.0291-2.103.0151-3.155.0988-2.453.2107-4.909.2965-7.363.1864-5.35.7939-10.66 1.2425-15.984.0356-.417-.0203-.871.2848-1.231z" fill="#354548"/><path d="m120.177 54.7413c-.082-.1118-.174-.2213-.249-.3391-.06-.0937-.083-.2136.025-.2864.041-.0292.134-.0049.191.0196.163.0762.333.153.394.3517-.159.0322-.287.1066-.364.254z" fill="#849e9c"/><path d="m127.904 160.294c.287-.034.544.014.721.268-.295.06-.535-.039-.721-.268z" fill="#6689b0"/><path d="m61.296 173.729c-1.3579-.27-2.7246-.131-4.0816-.067-4.0091.191-8.0096.551-11.9921 1.043-5.0715.628-10.119 1.396-15.0311 2.871-1.9434.585-3.8815 1.183-5.7169 2.068-.6707.323-1.3213.677-1.8653 1.198-.1706.162-.3441.321-.4872.505-.658.862-.6413 1.85.0538 2.693.4821.585 1.1079.979 1.7746 1.315 1.2583.632 2.5827 1.103 3.9297 1.5 2.7707.813 5.5785 1.46 8.4213 1.965 2.9197.522 5.854.91 8.8007 1.231 2.4033.261 4.8024.571 7.2149.725 3.2306.207 6.4596.434 9.6908.596 3.2702.165 6.5436.29 9.8172.377 3.3517.09 6.7034.14 10.0555.148 3.1563.008 6.3135-.034 9.4705-.111 6.2387-.152 12.4522-.663 18.6342-1.521 3.36-.467 6.722-.913 10.041-1.633 1.64-.354 3.265-.766 4.86-1.285.853-.281 1.683-.627 2.468-1.068.374-.21.733-.445 1.029-.767.823-.884.873-2.046.111-2.977-.556-.68-1.291-1.129-2.046-1.538-1.377-.744-2.83-1.314-4.296-1.846-2.277-.824-4.619-1.411-6.961-2.008-2.454-.622-4.922-1.204-7.391-1.759-1.522-.34-3.056-.609-4.593-.888-2.379-.432-4.7709-.784-7.1883-.919-.4645-.027-.9319-.021-1.4001-.005-.2293.01-.3824-.033-.3766-.291.0041-.239.0349-.485.3301-.539.1491-.026.3085-.019.4644-.009.697.056 1.3974.113 2.0936.179 2.4839.235 4.9619.542 7.4179.988 1.993.36 3.983.757 5.955 1.22 4.138.973 8.219 2.155 12.214 3.614 2.713.989 5.386 2.07 7.92 3.473 1.128.628 2.197 1.342 3.198 2.155.519.421.963.918 1.358 1.45 1.023 1.369.881 2.757-.442 3.955-.556.503-1.206.857-1.869 1.197-1.608.823-3.322 1.355-5.048 1.85-3.233.926-6.544 1.459-9.86 1.953-3.975.588-7.964 1.01-11.968 1.297-3.42.245-6.8453.448-10.2666.637-3.2669.179-6.5365.352-9.8082.472-2.61.095-5.2201.115-7.8317.15-2.6898.036-5.3757-.089-8.0645-.181-5.6181-.195-11.2086-.713-16.7897-1.34-2.8648-.324-5.721-.748-8.5674-1.211-3.0748-.503-6.1498-1.041-9.2005-1.672-4.5843-.946-9.1005-2.155-13.4425-3.948-1.3718-.567-2.6916-1.243-3.9268-2.07-.8152-.545-1.5189-1.212-2.1603-1.958-1.0839-1.26-.81-3.088.3875-4.074 1.2538-1.034 2.665-1.768 4.1334-2.41 2.2557-.99 4.5902-1.758 6.9531-2.437 4.9195-1.409 9.93-2.393 14.9776-3.201 5.5806-.893 11.1882-1.606 16.8009-2.264.8079-.095 1.6246-.215 2.4461-.125.5304.058.683.183.769.705.133.811.2464 1.624.2378 2.449-.4297.216-.891.15-1.344.141z" fill="#de9451"/><path d="m81.4923 135.761c-.0956-1.326-.1175-2.406-.0697-3.5.0954-2.185.1127-4.373.1627-6.562.0034-.078.0069-.156.0103-.235.0793-2.15.1781-4.298.2313-6.447.0388-1.6.0225-3.204.0318-4.803.0003-.118.0103-.235.0139-.352.0493-1.799.1148-3.596.1476-5.393.0398-2.107.0539-4.22.071-6.33.0133-1.874.0269-3.7505.024-5.6257-.0053-2.344-.0303-4.6865-.0323-7.0303-.0008-1.3276.0379-2.6583.0371-3.9859-.0011-1.1703-.0315-2.343-.0456-3.5144-.0027-.1969-.022-.3919-.012-.5845.0783-1.642.0062-3.2805-.0332-4.9195-.027-1.2118.0143-2.421.0071-3.6344-.0107-1.2498-.0476-2.4985-.0715-3.7461-.0178-.8996.0487-1.792-.0047-2.6947-.0699-1.2057.0047-2.4219.0036-3.6315-.0008-1.3276-.0213-2.6535-.035-3.9822.0003-.118-.0094-.2335-.0026-.351.0988-2.1483.1973-4.2934.2993-6.4414.0201-.3884.0662-.7745.1514-1.1605.129.401.0394.7998.0414 1.1966-.003 1.6386-.0027 3.2776-.0122 4.9156-.0086 1.0941-.0432 2.1859-.0095 3.2803.0584 1.952.0187 3.9054.0477 5.8582.0291 1.8741.1106 3.7461.1398 5.6202.0321 1.953.0187 3.9054.0411 5.8576.0142 1.1321.0579 2.2634.0821 3.393.0211.9753-.0427 1.9499.0041 2.9307.0597 1.2867-.018 2.5781-.0139 3.8666.0043 1.2099.0413 2.4193.0585 3.6302.0145 1.0141-.059 2.0272-.0156 3.047.0564 1.3258-.0247 2.6562-.0304 3.9832-.0062 1.5236.0106 3.0459.0043 4.5699-.0019 1.016-.0593 2.03-.0353 3.048.0329 1.524-.0613 3.047-.0873 4.572-.0263 1.797-.0361 3.593-.0527 5.391-.0002.078-.0037.157-.0071.235-.0726 2.033-.1973 4.064-.2012 6.096-.0047 2.117-.2495 4.217-.2699 6.326-.0182 2.237-.2433 4.45-.4463 6.671-.0064.075-.0452.147-.1315.432z" fill="#253534"/><g fill="#243230"><path d="m110.288 47.4768c-.547-.2861-1.081-.6038-1.644-.8584-3.42-1.5413-6.795-1.5447-10.0702.4108-1.008.6021-1.8669 1.4072-2.6476 2.291-1.9767 2.2336-3.2777 4.8495-4.2474 7.6379-.7833 2.2504-1.3852 4.5557-1.8402 6.8997-.3336 1.7251-.6318 3.4565-.9205 5.192-.4265 2.5825-.8273 5.1705-1.1571 7.7678-.1978 1.5498-.3634 3.1057-.5937 4.6528-.1543 1.0423-.3571 2.0771-.5436 3.1133-.0181.0968-.0903.1398-.1686.1003-.0561-.031-.1356-.0935-.1347-.1426-.0026-.3509-.002-.7016.028-1.053.1699-1.9489.3268-3.8989.5356-5.8444.1888-1.7506.4098-3.4951.6664-5.2367.3025-2.0489.6245-4.0962.9977-6.1326.5567-3.0368 1.2095-6.0523 2.1755-8.9885.9219-2.8024 2.1762-5.4452 4.0235-7.7686.9769-1.2308 2.0678-2.3438 3.4358-3.1479 1.8971-1.1161 3.9201-1.6741 6.1401-1.5139 1.46.1052 2.845.4302 4.151 1.0859.732.3674 1.418.7899 1.814 1.5351z"/><path d="m120.877 124.902c-.216.204-.499.222-.76.259-4.001.596-7.621 2.194-11.058 4.253-5.165 3.095-9.395 7.208-12.9585 12.04-1.3699 1.856-2.6591 3.761-3.8809 5.719-1.4301 2.293-2.6911 4.67-3.7273 7.167-.2837.684-.5963 1.362-.9146 2.03-.1632.343-.3245.703-.6781 1.02-.1152-.37-.0192-.654.0758-.924 1.4647-4.149 3.4266-8.043 5.9146-11.675 1.3019-1.901 2.61-3.798 4.0535-5.599 1.7397-2.172 3.6305-4.203 5.7335-6.01 3.643-3.127 7.664-5.635 12.212-7.242 1.738-.615 3.529-.954 5.352-1.155.211-.021.451-.076.636.117z"/><path d="m86.2698 166.987c-.1255-1.014.2531-1.853.5021-2.704.8356-2.862 2.0836-5.545 3.5336-8.148 1.3345-2.396 2.838-4.67 4.5517-6.805 2.807-3.507 6.2408-6.209 10.3298-8.059 1.643-.744 3.361-1.247 5.147-1.474 1.049-.133 2.108-.033 3.137.196.685.15 1.331.468 1.61 1.216.026.071.036.151.042.227.001.029-.037.059-.086.127-1.009-1.329-2.465-1.296-3.89-1.198-2.161.152-4.201.834-6.145 1.762-2.297 1.098-4.414 2.491-6.3131 4.197-1.9238 1.73-3.5749 3.706-5.0462 5.832-2.0681 2.996-3.8405 6.162-5.2195 9.538-.5903 1.444-1.0797 2.93-1.6101 4.399-.1031.289-.1654.599-.5403.898z"/></g><path d="m60.3429 131.875c-.2782-.221-.2482-.572-.3017-.862-.3095-1.688-1.0809-3.167-2.0045-4.583-1.6284-2.489-3.7603-4.474-6.1936-6.141-2.199-1.506-4.547-2.719-7.0978-3.508-1.8288-.566-3.6922-.994-5.6085-1.033-3.0991-.065-6.1255.394-9.0655 1.408-1.517.522-2.9921 1.127-4.3686 1.954-.7021.421-1.3578.913-2.0459 1.362-.2143.139-.3892.389-.7915.322.2393-.432.5502-.746.8892-1.045 1.1289-.985 2.4042-1.735 3.7561-2.35 2.9037-1.315 5.9558-2.113 9.1291-2.304 1.6964-.101 3.4302-.218 5.107.292 4.8422.755 8.9795 2.997 12.6724 6.122 2.0124 1.703 3.64 3.743 4.8481 6.108.5202 1.018.859 2.096 1.0537 3.217.0592.339.0088.699.0082 1.05l.0141-.012z" fill="#253230"/><path d="m74.5145 51.0657c.3424.3866.2536.8903.3074 1.3309.291 2.4766.5455 4.96.7739 7.4444.2698 2.9534.4937 5.9095.7406 8.8642.218 2.6048.4493 5.2075.6476 7.8139.1696 2.2171.2932 4.4369.4463 6.6559.1595 2.3344.3385 4.6703.4848 7.0068.0892 1.4007.1354 2.8075.1919 4.2087.0691 1.6743.1444 3.3524.1905 5.028.0187.6215-.038 1.2455-.0642 1.8955-.3472-.177-.1669-.453-.2206-.664-.0592-.225-.1045-.458-.1172-.6923-.0696-1.3236-.1228-2.6491-.1922-3.976-.0633-1.169-.1366-2.3356-.2161-3.506-.1274-1.8694-.2584-3.7358-.3927-5.6025-.1276-1.7908-.2718-3.5796-.3962-5.3701-.1213-1.7509-.2161-3.5061-.3373-5.2569-.1629-2.2953-.3423-4.5887-.5117-6.8845-.1564-2.18-.2933-4.3583-.463-6.5361-.1985-2.5278-.4597-5.0478-.632-7.5766-.0927-1.3977-.3986-2.7841-.2225-4.1949z" fill="#283939"/><path d="m76.954 186.666c1.9846.156 3.8361-.498 5.7148-.974 1.2815-.326 2.5486-.713 3.8644-.905 1.696-.248 3.3366-.079 4.9261.575.6118.253 1.2236.505 1.8435.738 1.5902.608 3.1771.642 4.7903.026 1.0902-.418 2.2049-.782 3.3209-1.119 1.82-.546 3.676-.649 5.548-.316.611.108 1.209.287 1.809.457.127.037.3.107.299.314-.162.14-.356.081-.534.065-.662-.056-1.324-.093-1.979-.185-2.178-.308-4.264.075-6.311.801-.7338.262-1.4678.523-2.2046.778-1.5614.545-3.1212.576-4.6795-.023-.9797-.378-1.9631-.751-2.9471-1.117-1.0823-.401-2.2138-.455-3.3435-.338-1.0441.107-2.0725.337-3.0889.617-1.6152.449-3.2416.838-4.9032 1.066-.5881.081-1.1639.058-1.7426-.047-.2057-.038-.3448-.167-.3761-.413z" fill="#25322f"/><path d="m71.2464 44.126c-.3977-.5027-.5315-.9992-.6735-1.4768-.5486-1.8694-1.6672-3.3351-3.1212-4.5804-1.7185-1.4744-3.6804-2.5075-5.8424-3.1086-1.4224-.3937-2.8752-.5835-4.3827-.555-2.2401.0445-4.4136.3798-6.5803.9026-1.6467.3968-3.1679 1.0829-4.622 1.9386-.5327.3118-1.0406.6781-1.6418.8364-.2067-.2176.0064-.3042.0911-.3789 1.4718-1.3295 3.1725-2.2822 5.0598-2.8584 2.5844-.7886 5.2415-1.2432 7.942-1.2122 4.227.0467 7.9194 1.5358 10.9952 4.4701 1.1197 1.0693 1.9275 2.3511 2.3536 3.8593.1706.6013.3444 1.2028.5085 1.8036.0174.0638-.032.1448-.086.3565z" fill="#25322f"/><path d="m75.0647 162.21c-.4008-.237-.3202-.493-.3207-.715-.0127-1.991.0074-3.982-.0379-5.973-.0361-1.678-.056-3.354-.03-5.034.0298-1.99.0499-3.981.034-5.972-.0161-1.912-.0192-3.824.0236-5.737.0425-1.872.0363-3.747.0105-5.621-.026-1.834.0166-3.67-.0226-5.502-.0301-1.366.1156-2.727.0204-4.095-.0742-1.043.1008-2.096.2104-3.263.1016.185.1623.24.1608.295-.0245.936-.01 1.874-.0277 2.807-.0221 1.289.0214 2.575.0058 3.865-.0196 1.909.0748 3.822.1138 5.733.0212.936-.0489 1.87.0044 2.812.0699 1.245-.0143 2.497-.0101 3.746.004 1.328.0345 2.651.055 3.977.0147.936-.0619 1.87-.0086 2.812.0667 1.205-.0176 2.421-.0165 3.63.0006 1.482.011 2.964.0344 4.448.0145.899-.0329 1.797-.0475 2.693-.0287 1.673.1049 3.356-.1547 5.094z" fill="#2b3d40"/><path d="m59.9115 180.815c-.3564-.07-.555-.382-.8081-.591-.8597-.712-1.8457-.941-2.9339-.929-1.6308.021-3.1352.548-4.6355 1.105-.8769.328-1.7347.701-2.651.917-1.2893.303-2.556.188-3.8074-.181-.8946-.267-1.7756-.578-2.6693-.854-1.6763-.517-3.2388-.149-4.7137.682-.6105.344-1.17.778-1.7402 1.185-.3791.272-.7607.535-1.204.68-.1709-.178-.0301-.297.0642-.407.9885-1.138 2.1735-2.053 3.5509-2.624 1.3911-.576 2.8712-.705 4.3461-.238.8519.27 1.7021.559 2.5493.844 1.4154.475 2.8326.472 4.242-.014.9588-.331 1.9016-.706 2.8598-1.031 1.4859-.502 2.9944-.848 4.5885-.63 1.3197.182 2.3342.803 3.0156 1.959.0086.014-.0245.057-.0595.123z" fill="#26322f"/><path d="m48.7869 22.4602c.0065-.419.3513-.596.6168-.7995 2.0992-1.6037 4.3739-2.8547 6.9866-3.4016 2.1942-.4614 4.4018-.5841 6.6135-.2212 1.0818.1777 2.1174.5514 3.043 1.1418.8734.5533 1.5363 1.3146 1.9158 2.2977.0266.0711.0426.1511.0524.2273.004.0299-.0318.0661-.0513.1038-.2388.0058-.2858-.208-.3681-.3527-.5447-.9611-1.3892-1.5839-2.3604-2.0242-.8515-.3875-1.7508-.6381-2.6881-.7477-3.8427-.4564-7.4406.2718-10.8007 2.1905-.5424.3109-1.0673.6462-1.6124.9503-.4355.2447-.8305.5879-1.3651.6176l.0148.0176z" fill="#263331"/><path d="m62.6339 143.624c-.4508-.455-.5762-1.089-.8661-1.631-1.8605-3.48-4.3109-6.397-7.7974-8.347-1.3677-.766-2.8357-1.275-4.3287-1.72-1.4677-.437-2.9834-.54-4.497-.67-.7745-.066-1.5491-.132-2.3334-.199.0807-.334.3528-.347.5546-.34 1.2439.038 2.4915-.121 3.7329.06 4.6168.68 8.661 2.445 11.7434 6.105 1.316 1.561 2.4805 3.214 3.2995 5.09.2324.528.571 1.036.4716 1.663l.0173-.012z" fill="#293737"/><path d="m97.1004 37.194c.0194-.3032.2341-.4848.4296-.6713 1.6964-1.6283 3.499-3.1196 5.658-4.0953 2.523-1.138 5.136-1.8029 7.936-1.3702.935.1455 1.814.4402 2.641.8814.625.332 1.161.7842 1.567 1.3762.067.0942.131.1914-.009.3401-.535-.4718-1.104-.9106-1.766-1.2228-1.569-.7406-3.236-.9158-4.907-.7341-3.037.327-5.787 1.4849-8.279 3.2549-.9527.6758-1.9053 1.3548-2.8605 2.027-.1251.0877-.2762.137-.4158.2037l.0089.0106z" fill="#263331"/><path d="m43.2132 109.667c-.5889-.024-1.1087-.321-1.7047-.375-2.0178-.189-3.9594.108-5.8521.785-2.1419.767-4.1075 1.878-5.9972 3.132-1.4953.993-2.9202 2.081-4.3102 3.217-.3581.294-.6934.626-1.1255.792-.1961-.187-.0486-.309.0357-.416.1715-.212.3554-.415.5541-.602 2.6462-2.465 5.5532-4.543 8.8369-6.065 1.7098-.792 3.4968-1.34 5.3829-1.444 1.2036-.065 2.4207-.02 3.5562.484.2423.106.5187.195.6036.501l.0144-.016z" fill="#263332"/><path d="m71.7379 34.4c-.3159-.2761-.2541-.579-.3078-.8294-.3984-1.8696-1.4734-3.2333-3.0336-4.2681-1.1802-.7826-2.4786-1.2903-3.8163-1.7193-2.3958-.7686-4.8659-1.0126-7.3634-1.0884-.8109-.0234-1.6265.1986-2.4379-.0478.0494-.3105.3381-.2891.53-.3185 1.1518-.1835 2.3029-.321 3.48-.2663 2.6665.1231 5.2472.6387 7.7165 1.6561 1.6051.6617 3.053 1.5591 4.1027 2.9894.8335 1.1333 1.2383 2.3938 1.133 3.8926z" fill="#273432"/><path d="m118.121 182.633c-.406.015-.726-.216-1.037-.426-1.007-.673-2.091-.785-3.244-.51-1.403.336-2.785.155-4.155-.211-.9-.241-1.792-.533-2.707-.716-1.239-.247-2.476-.13-3.689.228-.579.174-.997.594-1.436.989-.232-.22-.012-.349.07-.473.286-.438.689-.728 1.167-.936.801-.351 1.631-.516 2.499-.511 1.413.006 2.794.233 4.138.662 1.364.435 2.733.535 4.142.21 1.515-.352 2.854.025 3.983 1.104.148.141.397.274.269.594z" fill="#263331"/><path d="m41.3865 150.1c.7209-.833 1.4464-1.223 2.1449-1.642 2.1364-1.276 4.4551-2.048 6.9276-2.253 1.2264-.102 2.4717-.195 3.6963.221 1.4499.491 2.4716 1.372 2.9811 2.782-.0979.152-.163.15-.2203.057-1.1552-1.84-2.8888-2.525-4.9683-2.451-2.9996.108-5.8185.889-8.4519 2.365-.5965.333-1.1928.701-2.1094.921z" fill="#263331"/><path d="m111.422 41.7464c-.483-.8443-1.226-1.3143-2.072-1.6586-.76-.3076-1.543-.545-2.362-.5855-2.62-.1355-5.2.0668-7.658 1.0924-.5755.2392-1.1558.4584-1.7395.6805-.1317.051-.273.1766-.4571.0003.8609-.7524 1.8821-1.2027 2.9196-1.6122 2.692-1.058 5.469-1.0467 8.264-.5554.933.165 1.755.6351 2.48 1.238.418.347.743.7813.628 1.4008z" fill="#273331"/><path d="m74.4057 49.6432c.3336.4514.1181.9476.1132 1.4257l.0173-.0116c-.1647-.1354-.1783-.3201-.1684-.5126.0162-.3035.0355-.6067.0514-.9069l-.0138.0087z" fill="#283939"/><path d="m74.4153 49.6342c-.2378-.2727-.1531-.5768-.0814-.9181.1977.3217.0308.6319.0676.9268z" fill="#283939"/><path d="m60.3273 131.883c.0476.092.1149.183.1389.284.015.053-.04.124-.0647.184-.022-.047-.057-.096-.0593-.146-.0071-.108-.0006-.223.0021-.331l-.014.012z" fill="#253230"/><path d="m88.2016 138.259c-.001.203-.0611.372-.2586.466.0135-.195.0922-.353.2586-.466z" fill="#354548"/><path d="m62.827 144.11c-.227-.095-.2203-.288-.1936-.486l-.0173.012c.2234.098.2067.293.1933.489l.0173-.012z" fill="#293737"/><path d="m62.8114 144.124c.0511.05.1188.095.1494.157.0445.089.0002.15-.0944.152-.0129-.001-.0368-.065-.0404-.098-.0036-.072.0027-.147.0027-.222z" fill="#293737"/><path d="m43.1942 109.679c.0315.012.0918.031.091.04-.0061.072-.0403.053-.0737-.052l-.0143.016z" fill="#263332"/><path d="m88.4719 137.852c-.0707.066-.1412.129-.2087.195.0111-.13.0875-.186.2087-.195z" fill="#354548"/><path d="m48.7741 22.4397c-.0221.0308-.0568.0932-.0597.0897-.0716-.0388-.0465-.0661.0745-.0721z" fill="#263331"/><path d="m97.0954 37.1838c-.0184.0246-.0365.0459-.0549.0705.0213-.021.0424-.0388.0637-.0599z" fill="#263331"/><path d="m14.8684 185.568c.5999.582 1.018 1.037 1.4865 1.438 1.1042.946 2.3477 1.676 3.6517 2.308 2.6423 1.285 5.417 2.204 8.2268 3.018 4.0873 1.185 8.2502 2.019 12.4371 2.764 9.1131 1.625 18.2887 2.672 27.5269 3.176 3.815.208 7.6368.335 11.4589.269 3.5081-.061 7.0114-.217 10.5179-.373 3.7388-.162 7.4788-.337 11.2138-.569 7.164-.436 14.306-1.107 21.375-2.384 2.845-.514 5.646-1.199 8.365-2.192.88-.322 1.741-.691 2.572-1.131.762-.407 1.478-.877 2.107-1.472.135-.126.275-.242.533-.462.059.562.129.971.143 1.382.059 1.486.088 2.971-.026 4.459-.191 2.537-.407 5.072-.963 7.564-.18.801-.429 1.583-.634 2.378-.25.979-.89 1.629-1.741 2.107-.751.421-1.538.763-2.341 1.068-2.665 1.014-5.4 1.807-8.156 2.531-6.466 1.703-13.037 2.767-19.694 3.345-3.3811.294-6.7642.457-10.1568.541-3.6644.093-7.3264.121-10.9914.03-3.0789-.073-6.1571-.192-9.235-.314-8.3815-.33-16.7451-.946-25.09-1.781-3.2983-.331-6.5837-.776-9.854-1.321-5.366-.891-10.5864-2.301-15.5412-4.603-.8856-.41-1.7639-.83-2.5827-1.372-.7694-.508-1.3499-1.164-1.7276-2.016-.6351-1.43-1.2093-2.886-1.6354-4.394-.7016-2.485-1.3026-5.002-1.4337-7.593-.1037-2.07-.0213-4.141.1788-6.405z" fill="#e8b770"/></g></svg>