<svg fill="none" viewBox="0 0 288 232" xmlns="http://www.w3.org/2000/svg"><g opacity=".99"><path d="m63.538 66.825c.2622-.375.2371-.7723.0916-1.1793-.1558.2053-.2598.4772-.5983.1607-.8161-.762-1.6666-1.4914-2.4998-2.2371-5.7724-5.1697-11.8332-9.9852-17.9061-14.7826-9.0981-7.1849-17.9044-14.7173-26.547-22.438-.3684-.3273-.7456-.638-1.1226-.9571-.4338.2735-.211.5988-.0784.9168 3.2382 3.0975 6.6537 6.0003 10.0056 8.9701 1.477 1.3076 2.9369 2.6314 4.4829 3.8569.1791.1351.3719.2554.5564.3756.079.0538.1683.0946.2581.1186l.1216-.0405s-.0118.1336-.0167.1318c-.0505.0774-.1026.1514-.1613.2203-.1081.1043-.2227.2035-.3277.3147-.0726.0919-.1219.1894-.1531.2991-.0248.1851.0011.3548.162.4777 1.1089-.4909 1.9162.0232 2.7234.7398 2.5775 2.2791 5.2932 4.3861 7.9467 6.5718.6068.5006.7486.9176.3044 1.539.0933.3488.3675.2988.629.2836.7014-.2668 1.2825-.0764 1.8533.3915 3.5677 2.91 7.284 5.6346 10.7567 8.6594.4243.3671.6246.8559.954 1.2675 1.8151.5127 2.8981 2.0463 4.2953 3.1309 1.4088 1.0915 2.655 2.3915 4.2648 3.2154z" fill="#313831"/><path d="m8.89269 23.863c.61314.6464 1.21931 1.3043 1.84621 1.936 4.5197 4.5875 9.0636 9.1472 13.8101 13.5045 5.2096 4.7807 10.6505 9.2876 16.1671 13.7095 5.1621 4.1418 10.3068 8.3083 15.4601 12.4666.2488-.0423.2551-.2229.2382-.4175-.1513-.5075-.5833-.7678-.9591-1.0668-.5809-.4632-.9873-1.0123-1.0063-1.7844-.0523-.182-.1473-.3317-.3175-.4213-.3746-.1467-.5497.8196-1.0172.1752-3.7353-3.1-7.5051-6.159-11.27-9.2163-.4567-.2776-.8007-.6411-.9328-1.1783-.1085-.2136-.2514-.3862-.5087-.4061-.1112.0273-.1866.0957-.2278.2018.0079.0872-.0258.227-.0708.2191-.1083-.0194-.081-.1727-.1544-.2499-2.9105-2.5486-5.9816-4.9022-8.8664-7.4753-.5797-.4431-.5591-1.3948-1.3801-1.6298-.1413.0249-.2239.1132-.2541.2514.0699.149.075.345.2743.4086-.202-.0252-.2299-.2435-.3649-.3373-.9969-1.2268-2.2743-2.1527-3.4345-3.2079-3.6168-3.2877-7.1304-6.6817-10.6061-10.1183-.1474-.1292-.3086-.2437-.4699-.3499-.4364-.2871-.7545-.6834-1.0537-1.101-1.2426-1.31-2.5145-2.5855-3.82073-3.8285-.28443-.2716-.56326-.5665-.99982-.5808-.21111.1402-.29877.297-.06601.4937z" fill="#313831"/><path d="m8.9793 23.4582c1.548 1.547 3.0994 3.0923 4.6473 4.6393.654-.1743.471-.8199.7024-1.2342.0532-.1158.0964-.2352.138-.358.3702-.6735.1218-1.1149-.4232-1.6073-3.4073-3.0968-6.89215-6.1034-10.3856-9.1019-.2982-.2569-.70089-.4194-.78829-.8701-.26685-.1724-.47161-.0186-.68114.1251-.35193.2807-.76627.1815-1.16503.1949l.03008.0024c-.809484.0365-.526202.4203-.207774.7379.695734.6903 1.453514 1.3103 2.175184 1.9678 1.74451 1.587 3.40305 3.264 5.0925 4.9099.25818.2509.48406.521.8572.594z" fill="#edcc98"/><path d="m2.87404 14.9262c-.13403.1372-.42933.2302-.11102.4859 3.86935 3.095 7.50588 6.4603 11.20808 9.7452.1343.1189.2771.2296.396.3598.1271.1388.1769.289.0135.4606-.1789.1913-.3797.3887-.2603.6964.4369.0679.7417-.137.9746-.4776-.1056-.2604-.2986-.5046-.1436-.8086-1.0899-.9932-2.1642-2.006-3.2764-2.9763-2.32587-2.0335-4.66888-4.0507-7.0137-6.0629-.57511-.4949-1.1931-.9489-1.79055-1.4209z" fill="#5d574a"/><path d="m8.98001 23.4591c-2.12598-2.2594-4.3826-4.3832-6.6839-6.4613-.4599-.4166-.92499-.8267-1.376313-1.2514-.251819-.2373-.045889-.3711.141513-.5002-.201729-.1658-.421113-.096-.63351-.0377-.3692066.1028-.45516.3249-.213084.5502.423685.3923.866114.7716 1.294984 1.1573 2.19212 1.9599 4.29489 4.0112 6.38728 6.0756.31366.3075.5583.697.99265.8652.02847-.1331.05694-.2663.08541-.3995z" fill="#5d574a"/><path d="m56.3007 65.1508c-.043.111-.0841.2171-.1271.3282 1.3812 1.1913 2.7797 2.3579 4.1315 3.5836.9853.8934 2.0463 1.7017 2.9334 2.7032.1123-.4039.1828-.8088.0055-1.2133-1.9445-1.423-3.6199-3.1623-5.4782-4.6836-.4232-.3471-.7568-.9262-1.4635-.7147z" fill="#7b7568"/><path d="m1.02838 15.2449c.4171.1227.84488.2857 1.16503-.1949-.38552.0857-.80716-.0555-1.16503.1949z" fill="#5d574a"/><path d="m56.3013 65.1467c.5383.1608.8719.6077 1.27.9541 1.7217 1.4945 3.4279 3.0086 5.1306 4.5243.2473.2188.3827.0933.5411-.0801.0269-1.0001.0488-2.0021.0757-3.0023.0067-.1973-.0895-.3671-.245-.443-2.7438-1.3913-4.7758-3.7237-7.2669-5.4483-.9477-.6549-1.1388-.5777-1.5613.5748-.2468.6281-.0427 1.0985.4608 1.5112.5495.449 1.0629.9356 1.5916 1.4108z" fill="#f3e3bf"/><path d="m54.244 62.2238c.6545-.8605.6649-.8736 1.4657-.2326 1.3848 1.1111 2.8405 2.1352 4.1183 3.3791.8381.8178 1.8801 1.3211 2.9065 1.844.1966.102.3863.2156.5777.3242.073-.2409.1427-.4801.2141-.7243-.1397-.1659-.2552-.368-.4243-.4994-2.2219-1.7062-4.3092-3.5747-6.4518-5.376-.1361-.1139-.2875-.2164-.4064-.3466-.4039-.447-.8487-.3997-1.3159-.1269-.0509.0238-.0999.0426-.1523.0631-.1856.1242-.332.2879-.4703.4601-.0724.0835-.1317.1774-.1842.2682-.0493.0975-.0772.2055-.0883.3141.0087.0537.0208.1059.0345.1615.0595.1622.119.3243.1785.4865z" fill="#eeca95"/><path d="m15.0974 26.1962c-.4273-.0476-.6284.3607-.9746.4775l.009-.0249c-.1191.874-.2735 1.7521.5145 2.4364.0989.0611.1962.1188.2951.1798.7002-.5513 1.0575.0869 1.4517.4517 3.7222 3.4863 7.6409 6.7482 11.5786 9.9888.4772.392.9223.8651 1.5952.934.1315-.0369.2388-.1078.3152-.218.0857-.0113.1355-.0636.156-.1434.0783-.1855.3106-.2365.3758-.4324l.0038-.0183c.0261-.1031-.0089-.1776-.103-.2285l-.0213-.019c-.2214-.049-.2703-.303-.4572-.3931-.4238-.5864-1.047-.9636-1.5776-1.4339-4.0413-3.5763-8.0879-7.146-12.1378-10.7142-.3324-.2946-.6838-.5679-1.0281-.8527z" fill="#eecb96"/><path d="m40.7081 51.6717c-.0735.5923.287.9027.7513 1.1437.7827-1.3627.7723-1.3496 2.1091-.3235 3.0217 2.3189 5.7963 4.9478 8.9065 7.1467 1.1381.8052.4933 1.748.6332 2.6368.0938.1999.2509.3411.4583.4133.1113.0346.2375.0746.2725-.1154.049-.2832-.0133-.6011.2318-.8276l-.0092.0333c.0368-.133.0935-.2588.1421-.3931l-.0142.0314c.1476-.408.5168-.643.7662-.9748l-.0192.0296c.0239-.0814.0216-.1919.0731-.2408.2367-.2267.2739-.4383-.0035-.6595-.2101-.166-.4098-.3451-.6199-.511-3.7197-2.9875-7.4394-5.9749-11.1591-8.9624-.0673-.0552-.1447-.1057-.2101-.166-.5462-.5125-1.0963-.5397-1.6503-.0114-.7098.3988-.7862 1.0379-.6619 1.7523z" fill="#edca95"/><g fill="#ecc994"><path d="m29.586 42.4205c.3283.0569.3438.3719.4857.5863.2403.3626.3115.8581.7907 1.0426.3165-.4707.0166-1.0574.2697-1.6016 3.321 2.2695 6.1203 5.1099 9.3552 7.4073.1193.0515.2445.0631.3726.0278.3141-.2381.7396-.3178.9807-.6498-.0185-.3301-.2868-.444-.4836-.608-3.2324-2.6622-6.4715-5.3212-9.7073-7.9818-.1017-.0846-.2153-.1594-.3118-.2506-.2765-.2546-.5715-.2403-.8478-.0364-.2097.152-.3807.3603-.5841.5259-.0307.0226-.1394-.0504-.2122-.0824-.0737.0015-.1424.0048-.2161.0063-.4597.5708-.6511 1.1233.1116 1.6129z"/><path d="m40.703 51.6712c.1626-.6051.3136-1.2172.6619-1.7524-.1693.0091-.3484.1385-.5029-.0411-.0499-.0096-.1033-.0177-.1533-.0273-.5903.3717-.9111.8155-.4175 1.489.2813-.0699.2791.2163.4136.3268z"/><path d="m30.4119 39.855c-.1913.0856-.3516.202-.3758.4324.211-.07.4089-.1504.3758-.4324z"/><path d="m29.8386 39.1975c.0833.213.203.38.4571.3931-.0885-.2064-.2323-.3456-.4571-.3931z"/><path d="m30.3118 39.607c.0281.0776.0611.1569.1028.228.1492-.1565.035-.1978-.1028-.228z"/><path d="m29.8743 40.4293c-.1132.0407-.2264.0814-.3395.122-.0541.0874-.0409.1597.0447.2187l.1131.0297c.0583-.1224.12-.2464.1783-.3688z"/></g><path d="m53.1047 62.2779c1.0193-2.2505.7843-1.8263-.6934-3.0384-1.3089-1.0723-2.7055-2.0498-3.9645-3.1744-1.6978-1.5139-3.5219-2.8653-5.2871-4.2939-.333-.2694-.6616-.7848-1.1183-.5955-.5329.2209-.5786.8373-.6072 1.3755-.0039.0886.0139.1794.0217.2666 1.0675.8838 2.1317 1.7692 3.201 2.6481 2.5275 2.067 5.0535 4.1307 7.5863 6.1911.2739.2228.5738.4128.8615.6209z" fill="#f3e3bf"/><path d="m29.5867 40.7696c-.003-.077-.0197-.1477-.0447-.2187-1.3947-1.1849-2.8587-2.2795-4.2516-3.4694-1.0078-.8623-1.9242-1.8293-3.011-2.6132-1.044-.7543-2.0079-1.6288-2.9739-2.49-.9954-.8886-1.9459-1.8314-2.919-2.743-.2274-.2116-.4838-.3971-.7094-.6137-.1619-.1513-.312-.3744-.5518-.2248-.1973.1256-.2236.3693-.201.6025.0079.0872.0055.1792.01.268 1.3571 1.3514 2.7037 2.7159 4.0727 4.0575 3.0961 3.0236 6.2833 5.9508 9.536 8.806.2654.2309.5634.4259.8444.6372.1454.0103.2207-.0581.2277-.2018l.0155-.0817-.0452-.0697c-.3344-.5457-.2334-1.0971-.0086-1.6488z" fill="#f1e3be"/><path d="m40.2936 51.3438c-.1229-.5705.178-1.0215.4209-1.4907-.0748-.2211-.2369-.3641-.4142-.5041-2.9056-2.3444-5.806-4.6953-8.7082-7.0412-.2052-.1642-.4224-.3103-.7102-.5184-.2598.8119-.2696 1.5313-.0083 2.2559.4203.3939.8266.8108 1.2711 1.1768 2.3693 1.9677 4.7457 3.9238 7.1255 5.8783.2689.221.4991.518.8741.586.1053.0044.1701-.0425.1928-.144l.0093-.1036-.0445-.0948z" fill="#f2e3bf"/><path d="m14.6441 29.0887c-.4564-.7529-.4652-1.6-.5144-2.4364-.2699.1472-.2565.4136-.2459.6566.0125.2999.037.59-.2543.7886.2644.4049.5853.7545 1.0146.9912z" fill="#5d574a"/><path d="m29.6239 42.5689c-.0754.0684-.1523.1334-.2277.2017.0554.127.1651.2904.2739.2229.1956-.1206.0357-.2853-.0462-.4246z" fill="#ecc994"/><path d="m40.3301 51.5467c-.0743.0348-.139.0816-.1923.1437.0459.098.1331.152.2149.0889.0833-.0597.0558-.1622-.0226-.2326z" fill="#edca95"/><path d="m37.9304 93.2527c-2.2191-.5425-4.4269-1.1186-6.6572-1.6199-1.3134-.2956-1.5642-.6959-1.1787-2.125.2208-.8231.6212-1.5826 1.0665-2.3121 1.7924-2.9331 4.1424-5.2638 7.3045-6.7191.2619-.1198.61-.1422.7447-.5238-.2171-.318-.6175-.3068-.9168-.4677-.4304-.2319-.8981-.4077-1.3247-.6472-.3668-.2057-.3331-.3816-.1123-.853.8906-1.9229 2.3575-3.3595 3.9292-4.7026 1.19-1.0176 2.3986-2.0128 3.8019-2.7348.3181-.2282.5838-.5126.8682-.7782.2095-.2058.4415-.3816.6773-.5537.827-.5238 1.7026-.9577 2.6045-1.3318.3854-.2021.8457-.0599 1.2274-.2844 4.3894-2.0314 8.9847-3.3147 13.8007-3.8235 2.4997-.2618 5.0069-.4302 7.5179-.4302 1.8373 0 3.6784.0673 5.512.1908 1.7027.1122 3.3641.5238 5.0294.8829 16.9216 3.629 33.8391 7.2654 50.7571 10.9018 13.367 2.8732 26.737 5.7427 40.108 8.6085.254.0561.516.1571.846-.0262.123-.5612.172-1.1747.145-1.7958-.014-.3367-.164-.4227-.538-.3255-.565.1459-1.123.3068-1.692.4415-.258.0636-.527.116-.793.1234-.666.0188-.977-.4751-.659-1.0699.21-.3929.461-.7707.741-1.1186 2.26-2.791 4.603-5.5071 7.148-8.0398.411-.4078.857-.7969 1.335-1.1186.633-.4228 1.194-.2769 1.606.3629.217.3367.385.707.546 1.0774.936 2.1362 1.976 4.2201 3.095 6.2665.045.0785.078.1609.127.2357.715 1.1223.172 1.6985-.917 1.8631-.842.1272-1.687.2357-2.529.3666-.423.0674-.547.2208-.517.6323.083 1.0737.169 2.1437.285 3.2137.071.6509.138.7033.827.8529 2.847.6211 5.695 1.2421 8.543 1.8482 3.637.7781 7.278 1.5451 10.919 2.312 1.624.3405 3.248.6734 4.872 1.0102-.31.7295-.864.2282-1.313.2544-.127 0-.255.0074-.378-.015-.415-.0674-.647.101-.704.5163-.082.0898-.179.1085-.288.0598-.127-.1047-.224-.2394-.333-.3629-.232-.2207-.524-.1571-.804-.1646-2.728-.2057-5.441-.4788-8.169.131-3.334.7445-6.422 1.9753-9.146 4.0704-.49.3778-.943.8455-1.613.9278-.385-.1235-.647-.3554-.722-.767.449-1.0699 1.486-1.5338 2.35-2.1287 2.309-1.5863 4.835-2.7311 7.567-3.397.445-.1085.894-.1945 1.148-.1347-3.008-.3928-6.14-1.2346-9.31-1.8706-.789-.1571-1.59-.2918-2.369-.5088-1.122-.3142-2.088-.0748-3.061.5425-1.208.767-2.447 1.504-3.753 2.1063-1.512.6996-2.215.2656-2.286-1.373-.03-.7146-.071-1.4441.104-2.1437.292-1.1673-.258-1.6237-1.324-1.8369-4.045-.8156-8.102-1.59-12.158-2.3495-10.231-1.923-20.387-4.1901-30.58-6.3076-12.518-2.6001-24.945-5.6118-37.481-8.1259-4.0901-.8193-8.1316-1.9117-12.2478-2.5776-12.7493-2.0577-24.7314-.131-35.5647 7.2653-1.6652 1.1374-3.2706 2.3757-4.584 3.9283-1.0927 1.2907-1.0366 1.4254.5538 1.8855 3.3679.9765 6.8106 1.605 10.2495 2.2447 7.806 1.4516 15.5933 3.0042 23.3955 4.4895.5613.1084 1.175.1496 1.538.7108.0785.2244.0636.4377-.0749.636-1.1189.5799-2.1816-.03-3.2518-.1908-2.4099-.3592-2.395-.3966-2.0133 1.9454.5613 3.4269 1.0328 6.8613 1.2199 10.3331-.0723.8056.5165 1.2105 1.7663 1.2155 2.6644.386 5.2389 1.168 7.8471 1.796 10.8745 2.623 21.7524 5.223 32.6084 7.913.565.138 1.134.269 1.658.527.696.344 1.429.539 2.211.52 3.196.502 6.298 1.414 9.43 2.178 13.55 3.296 27.108 6.558 40.624 9.985 2.13.539 4.266 1.07 6.328 1.826.999.366 1.867.299 2.829-.173 3.989-1.945 8.046-3.737 12.151-5.424.123-.06.25-.116.378-.176.247-.116.494-.232.737-.352 4.071-1.721 8.273-3.094 12.435-4.568.916-.239 1.777-.654 2.716-.815.565-.019 1.138-.056 1.475.542.048.146.026.281-.06.408-.198.224-.449.37-.715.501-9.033 2.739-17.722 6.383-26.438 9.956-3.7 1.518-3.551 1.552-3.719 5.439-.285 6.588-.292 13.173-.206 19.757.041 3.222.292 6.443.254 9.671-.003.348-.014.719.259 1.085 9.961-4.893 20.244-9.124 30.15-14.153 1.036-.527 2.121-.972 3.218-1.376.842-.311 1.227-.853 1.145-1.736-.251-2.589-.251-5.189-.333-7.786-.127-3.973-.782-7.935-.24-11.93.199-1.463-.078-2.96.15-4.43.288-.89.116-1.811.18-2.72.041-.325.108-.636.404-.838 1.033.696.411 1.774.61 2.66.003 3.094-.008 6.188 0 9.282.018 5.511.426 11.007.748 16.503.086 1.477-.041 1.679-1.515 2.151-1.456.464-2.844 1.107-4.21 1.78-9.778 4.827-19.773 9.181-29.735 13.607-1.661.737-2.058.453-2.151-1.347-.502-9.409-.184-18.822-.262-28.234-.012-1.433.318-2.844.276-4.291-.029-1.085-.49-1.68-1.526-1.867-3.754-.685-7.454-1.613-11.174-2.462-1.411-.322-1.605-.165-1.808 1.321-.456 3.374-.542 6.782-.883 10.172-.501 5.035-.707 10.094-1.04 15.14-.127 1.965.06 3.944-.303 5.904-.251 1.369-.52 1.635-1.882 1.328-15.058-3.389-30.165-6.566-45.07-10.61-2.253-.61-4.505-1.219-6.751-1.844-1.354-.378-1.44-.333-1.646 1.055-.864 5.9-1.6877 11.807-2.5409 17.707-.1122.77-.2245 1.522-1.0066 1.934-.1909.086-.363.209-.5501.307-.2283.123-.4677.235-.6998.351-.2245.12-.449.24-.6735.36-2.1255.998-4.15 2.203-6.3241 3.105-5.7628-1.175-11.3011-3.24-17.0976-4.28-.1796-.011.0637.213.0075.041-.0187-.06.015-.082.0973-.064 4.6888.962 9.2542 2.41 13.8831 3.607.8233.213 1.6727.314 2.4885.557.595.18.9991.449.6099 1.149-.8082.486-1.654.292-2.481.097-1.8336-.426-3.6672-.872-5.4671-1.425-2.5783-.793-5.2202-1.295-7.8509-1.856-.3966-.086-.7896-.161-1.1787-.269-.8083-.225-1.5829-.55-1.7401-1.474-.1609-.951.6436-1.295 1.2798-1.695 1.2162-.763 2.4623-1.504 3.7645-2.076 1.422-.625 1.8898-1.661 1.9272-3.064.0411-1.613.101-3.218.2432-4.827.4678-5.177 1.1937-10.321 1.7925-15.484.0898-.756.1047-1.523.2395-2.271.1496-.834-.1647-1.265-1.0141-1.381-7.8097-1.073-15.2976-3.471-22.8678-5.525-5.0668-1.373-10.1672-2.604-15.3238-3.596-.4827-.093-.9767-.164-1.4295-.366-.2283-.101-.5688-.18-.4902-.524.0711-.299.3892-.329.6511-.37.4528-.068.8906.048 1.3359.116 7.4206 1.148 14.639 3.138 21.85 5.174 5.2239 1.474 10.4703 2.854 15.8514 3.655 1.6727.247 1.7288.224 1.9646-1.433 1.2087-8.609 2.249-17.24 3.6111-25.826.1572-.998-.2432-1.376-1.1301-1.582-6.8555-1.601-13.6885-3.315-20.5328-4.9608-7.5889-1.8257-15.1591-3.7076-22.7518-5.5108-.348-.0823-.696-.1758-1.0103-.3554-.2694-.1833-.4341-.5425-.8345-.52-.1123-.015-.2133-.0524-.3068-.1085z" fill="#1a2c27"/><path d="m38.074 93.1978c.1235-.0336.2507-.0486.3667-.0972.3518-.1497.4491.0299.4603.3367-.2769 4.205-.2545 8.4137-.0187 12.6157.0935 1.657.131 3.31.131 4.968-.0113 4.616-.232 9.252.0336 13.846.3032 5.29.1123 10.569.2321 15.851.0224.943.434 1.332 1.3134 1.538 9.8753 2.323 19.5823 5.253 29.3304 8.047 1.6802.483 3.3828.902 5.063 1.384.7821.225 2.0581.333 1.8336 1.358-.2582 1.171-1.4295.513-2.1741.322-6.5225-1.665-12.9177-3.771-19.384-5.634-4.7412-1.366-9.4599-2.81-14.2123-4.149-1.6578-.468-1.8636-.367-1.7364 1.358.4341 5.866.1796 11.74.2358 17.606.0112 1.055.4153 1.654 1.4257 1.968 7.2821 2.271 14.5043 4.714 21.7751 7.015 4.15 1.313 8.2812 2.678 12.4162 4.033 13.4303 4.392 26.8796 8.735 40.3166 13.109 13.098 4.265 26.184 8.556 39.251 12.911 2.17.722 4.322 1.503 6.466 2.297.723.265 1.362.261 2.062-.098 7.829-4.021 15.99-7.306 24.051-10.808 7.858-3.412 15.739-6.775 23.492-10.415.977-.457 1.452-1.037 1.422-2.148-.217-7.576.397-15.14.266-22.716-.052-2.96-.127-5.923.015-8.878.367-7.617.093-15.238.307-22.851.071-2.496.026-5.017.366-7.509.169-.385.158-.875.595-1.1.427.202.285.558.289.838.007 4.598.007 9.196.007 13.798 0 .179-.026.355-.09.524.019.355.056.71.053 1.07-.195 15.69-.39 31.384-.588 47.075-.007.49.053 1.017-.112 1.459-.157.426-.752.415-1.138.636-4.988 2.854-10.223 5.2-15.481 7.501-8.008 3.502-16.027 6.974-24.027 10.49-2.38 1.048-4.712 2.2-7.058 3.319-.733.351-.711.37-.614 1.107.3 2.226.348 4.467.434 6.704.03.805.023 1.613.023 2.421 0 .408-.214.669-.606.782-.259.071-.521.142-.782.198-4.876.991-9.752 1.983-14.632 2.974-7.383 1.497-14.762 2.989-22.146 4.482-7.252 1.467-14.5 2.933-21.752 4.396-7.911 1.598-15.8217 3.188-23.7287 4.789-.5576.112-1.0515.194-1.3921-.423-.0935-.168-.3592-.247-.5575-.344-5.6131-2.806-11.1252-5.806-16.6672-8.751-7.7611-4.123-15.5109-8.26-23.2645-12.391-.0785-.041-.1571-.086-.2395-.119-.7708-.3-1.3209-.737-1.0627-1.684-.9355-9.521-.8944-19.069-.7447-28.62.0711-4.392.2919-8.78.6175-13.161.0149-.18.0598-.363.0374-.535-.2058-1.646-.0412-3.296-.0898-4.946-.0449-1.658.0823-3.315.0711-4.976-.015-2.376-.0936-4.751-.1347-7.127-.03-1.702-.0524-3.408-.0524-5.11 0-.775-.1871-1.53-.0749-2.32.1048-.744.0113-1.523 0-2.282-.0149-.808-.0374-1.612-.0561-2.421-.0187-.808-.0374-1.612-.0486-2.42-.0113-.808-.0113-1.613-.0188-2.421-.0074-.763-.0224-1.522-.0336-2.285-.0113-.809-.0187-1.613-.0262-2.421s-.0075-1.612-.0187-2.421c-.0075-.763-.0225-1.522-.0337-2.285-.0112-.809-.0225-1.613-.0337-2.421-.0823-6.188-.1646-12.372-.2432-18.56-.0038-.314.0037-.628.0075-.943-.0861-2.3417-.1572-4.6874.0336-7.0294.0113-.0935.0562-.1609.1422-.202.0449-.0337.0898-.0674.1347-.1048z" fill="#1b2d27"/><path d="m287.733 138.615c0 .09-.023.172-.06.255-.116.078-.24.086-.363.015-2.451-1.471-5.224-2.17-7.832-3.259-.176-.079-.337-.18-.494-.288-.363-.266-.779-.404-1.22-.475-4.09-1.332-8.046-3.019-12.065-4.535-4.939-1.863-9.868-3.771-14.792-5.675-.299-.15-.625-.228-.947-.307-.131-.033-.258-.082-.378-.142-4.924-2.05-9.939-3.868-14.908-5.799-1.127-.437-2.253-.886-3.383-1.317-.243-.097-.479-.213-.719-.318-.411-.183-.841-.318-1.276-.449-4.599-1.825-9.257-3.498-13.838-5.364-.176-.075-.348-.158-.531-.217-.124-.027-.247-.056-.371-.086-.194-.042-.378-.098-.561-.169-2.23-1.029-4.576-1.766-6.829-2.735-.517-.22-1.149-.303-1.385-.946.068-.348.337-.427.629-.471 1.979.258 3.749 1.167 5.542 1.922 2.758 1.16 5.493 2.032 8.506 1.194.718.101 1.455-.221 2.166.071.12.049.303.067.341.15.093.205-.067.333-.255.37-.961.206-1.931.393-2.892.599-.393.082-.779.194-1.231.31.411.46.954.535 1.422.715 10.949 4.209 21.902 8.402 32.855 12.604 11.286 4.328 22.572 8.661 33.858 12.993.374.142.752.288 1.104.479.247.131.184.37.079.587-.038.109-.098.202-.184.281z" fill="#21302b"/><path d="m278.025 134.616c.438-.034.767.187 1.07.464-1.175 1.04-2.234 2.136-2.604 3.756-.244 1.07-.281 2.091-.06 3.169.202.969.7 1.56 1.601 1.96 2.362 1.048 4.813 1.889 7.08 3.146.244.405.491.809-.336.685-5.348-2.293-10.695-4.583-16.039-6.887-17.756-7.655-35.512-15.313-53.268-22.96-.363-.157-.7-.408-1.142-.374-.28.243-.138.572-.142.86-.033 4.213-.052 8.422-.086 12.634-.004.487.075.988-.123 1.463-.023-.531-.06-1.066-.06-1.597 0-4.048.007-8.096.007-12.144 0-.374-.007-.748-.011-1.426-.348.61-.112 1.097-.49 1.351-.502-.655-.46-1.68-1.553-1.942-.73-.172-1.074-.153-1.112.685-.018.393.075.931-.568 1.01-.008-.666-.019-1.328-.027-1.994 0-.269-.015-.535-.254-.718-1.441-.285-2.724-.966-4.026-1.594-.277-.659-.88-.539-1.411-.587-.333-.337-.999-.251-1.112-.872.049-.21.195-.318.393-.371 2.253.442 4.195 1.68 6.317 2.458.737.27 1.414.794 2.279.58.135 0 .258.034.374.105 1.4 1.452 3.364 1.833 5.104 2.611 3.106 1.396 6.238 2.735 9.4 4.011.195.052.382.12.569.202 5.628 2.57 11.361 4.901 17.038 7.359.658.284 1.306.591 1.957.894.299.146.617.243.924.363 9.194 3.999 18.441 7.875 27.766 11.957-.187-1.441-.333-2.758-.116-4.078.479-1.654 1.284-3.098 2.676-4.168z" fill="#39392f"/><path d="m222.637 109.522c-.738.191-1.471.461-2.253.247.34-.482.108-.71-.348-.95-1.265-.666-2.515-1.373-3.791-2.016-4.154-2.092-8.172-4.449-12.461-6.278-.808-.344-1.493-.427-2.286-.004-1.377.733-2.784 1.411-4.277 2.144 2.615.973 5.126 1.904 7.622 2.866.58.22 1.362.228 1.579 1.04-.213.048-.445.059-.576.276-1.104.345-1.923-.441-2.866-.729-.161-.086-.319-.172-.491-.239-.176-.045-.351-.094-.527-.143-.244-.071-.476-.164-.711-.258-1.68-.617-3.308-1.358-4.992-1.956-.378-.135-.767-.266-.966-.666-.045-.423.274-.61.535-.835 1.49-.987 3.163-1.616 4.787-2.3341.961-.4265 1.448-1.0625 1.549-2.1063.161-1.6798.524-3.3334.67-5.0132.089-.3367.063-.7669.591-.7707.09 0 .183 0 .273-.0037.071.9502-.221 1.8593-.326 2.7909-.149 1.3319-.377 2.6562-.602 3.9769-.052.318.019.5237.284.6659.236.1272.483.2357.726.3479 6.051 2.8094 11.896 6.0194 17.76 9.1954.386.21.812.382 1.097.749z" fill="#484a3b"/><path d="m284.781 147.795c.312-.068.397-.231.255-.49-.008-1.516.497-2.941.763-4.407.27-.936.445-1.901.763-2.818.161-.467.176-1.084.865-1.189.078-.049.165-.056.251-.023-.464 1.8-.943 3.592-1.385 5.395-.273 1.115-.494 2.245-.733 3.371-.083.393-.232.426-.779.165z" fill="#808373"/><path d="m37.7891 93.5049c.0112 1.9042.0299 3.8122.0336 5.7165 0 .4415-.0449.8796-.0711 1.3166-.0336-.176-.0898-.348-.0935-.52-.0337-1.8815-.0599-3.7633-.0786-5.6452 0-.2993-.1048-.636.2058-.8679z" fill="#c64a3a"/><path d="m204.777 91.291c.251-.0187.498-.0449.749-.0486.217 0 .419-.0225.565-.2058.834.0748 1.654.2245 2.447.5013.123.0449.236.1609.15.2956-.06.0935-.217.202-.307.1833-1.205-.2282-2.406-.4789-3.608-.7258z" fill="#5c6561"/><path d="m287.737 138.612c-.056-.168.022-.25.183-.28.022.149-.049.235-.183.28z" fill="#808373"/><path d="m38.0753 93.2004-.0448.097-.0933.0075-.0075-.056c.0373-.0485.0821-.0635.1418-.0485z" fill="#c64a3a"/><path d="m210.191 118.465c.397-.613.15-1.309.247-1.96.06-.397.266-.543.651-.397.543.21 1.074.445 1.613.662.456.184.752.457.7 1.007-.03.31.015.625.022.935-.011.18-.03.359-.034.535-.247 7.393-.175 14.793-.318 22.185-.127 6.768-.194 13.536-.235 20.304-.012 1.616.063 3.232-.03 4.841-.281 4.882-.135 9.768-.214 14.654 0 .135-.007.269-.007.404.007.412-.198.651-.573.812-1.276.554-2.555 1.096-3.809 1.695-4.004 1.919-8.068 3.7-12.151 5.436-2.473 1.051-4.924 2.162-7.394 3.228-2.634 1.137-5.276 2.256-7.911 3.382-1.564.67-3.139 1.317-4.692 2.017-3.147 1.418-6.291 2.843-9.419 4.302-1.298.606-2.608 1.205-3.809 1.998-.289.191-.565.206-.887.078-.749-.295-1.505-.576-2.264-.853-5.516-2.012-11.114-3.786-16.682-5.653-3.952-1.324-7.911-2.63-11.87-3.932-4.513-1.481-9.034-2.944-13.554-4.414-3.536-1.152-7.073-2.305-10.613-3.453-7.2479-2.353-14.4963-4.703-21.741-7.052-3.5399-1.149-7.0762-2.301-10.6125-3.453-3.5811-1.164-7.1623-2.327-10.7434-3.487-6.6946-2.17-13.3892-4.336-20.0837-6.502-1.1938-.386-2.3912-.764-3.5924-1.13-.6848-.21-1.0628-.591-1.0179-1.362.0374-.625-.0112-1.253-.0149-1.882-.0113-4.081-.0262-8.163-.03-12.245 0-1.702-.2357-3.393-.1983-5.099.0374-1.654.0337-1.418 1.392-1.062 2.6419.688 5.2539 1.492 7.8734 2.259 5.3736 1.575 10.7547 3.128 16.1133 4.744 3.5176 1.063 7.0426 2.095 10.5901 3.045.4715.128.958.217 1.4444.285.1722.022.3667-.098.3967-.292.0149-.105-.0674-.255-.1534-.341-.363-.377-.872-.456-1.3397-.587-1.3359-.378-2.6868-.707-4.0227-1.077-2.3314-.648-4.6552-1.314-6.9827-1.972-4.397-1.242-8.7902-2.492-13.1908-3.722-3.192-.891-6.384-1.781-9.6172-2.511-.6997-.157-1.3995-.303-2.0993-.456-.2507-.056-.3817-.225-.3929-.475-.015-.359-.0224-.719-.0262-1.074-.0187-3.947.0599-7.898-.0786-11.837-.2582-7.217-.0598-14.437-.2956-21.647-.1384-4.167-.0786-8.335-.1833-12.4989-.0075-.3591-.0188-.7183.0187-1.0737.0299-.2694.2881-.303.5126-.333 1.0628.4976 2.2266.636 3.3454.9204 3.2107.8081 6.4401 1.5525 9.6583 2.3382 6.3915 1.5563 12.7829 3.1276 19.1744 4.68 4.2622 1.037 8.5319 2.05 12.7941 3.075.4304.105.8794.158 1.2349.449-.4864 3.15-.9991 6.278-1.4519 9.417-.3368 2.346-.5763 4.703-.8906 7.052-.3106 2.301-.6811 4.598-.9954 6.899-.2357 1.728-.4154 3.46-.6212 5.193-.0112.089-.015.179-.0337.265-.0561.303-.2245.434-.5688.393-1.0665-.131-2.1367-.232-3.1919-.415-4.9845-.879-9.8754-2.148-14.7326-3.543-4.9021-1.411-9.8341-2.709-14.8074-3.831-2.4398-.55-4.917-.935-7.3793-1.377-.3368-.06-.6998-.138-1.089.071.8645.374 1.7626.468 2.627.625 4.2285.774 8.3972 1.792 12.5471 2.888 3.6336.958 7.2447 1.998 10.867 3.001 3.7945 1.051 7.6226 1.971 11.4919 2.704.9655.184 1.9609.21 2.9226.412 1.0365.217 1.2161.131 1.0328 1.403-.1534 1.062-.3144 2.121-.4079 3.191-.1871 2.095-.5351 4.168-.7933 6.252-.247 1.997-.4117 4.003-.625 6.004-.1384 1.287-.3255 2.574-.4266 3.865-.0823 1.025-.0523 2.061-.1085 3.09-.0486.846-.1534 1.691-.232 2.537-.0299.31-.2395.456-.4864.587-1.1451.617-2.2864 1.238-3.424 1.863-.7073.389-1.4071.789-2.1106 1.186-.1571.09-.3106.18-.4528.288-.6211.483-.5538 1.25.1572 1.631.6399.344 1.3621.438 2.0582.591 2.3126.517 4.6588.887 6.934 1.575 2.1854.663 4.3895 1.257 6.616 1.763.7559.172 1.5006.243 2.2639.153.2246-.21.4828-.367.7484-.516 2.017-1.07 3.903-2.372 5.9836-3.334.4753-.22.9917-.456 1.1152-1.07-.0075-.06-.0113-.119-.0187-.176.6922-.344 1.0141-.856 1.0889-1.672.1534-1.646.4528-3.273.6885-4.912.2133-1.504.4191-3.012.6325-4.516.232-1.638.479-3.273.707-4.912.228-1.638.442-3.277.663-4.919.071-.524.22-.644.696-.502 8.883 2.638 17.902 4.748 26.89 6.989 4.734 1.178 9.497 2.207 14.28 3.172 2.455.498 4.898 1.052 7.342 1.609 1.658.378 3.3.812 4.954 1.216.172.041.352.078.528.082.247 0 .438-.116.46-.381.101-1.115.232-2.226.281-3.341.131-2.997.191-5.997.348-8.994.123-2.368.307-4.733.539-7.09.213-2.181.381-4.366.542-6.55.187-2.541.36-5.085.764-7.603.06-.377.258-.523.673-.434.921.195 1.834.416 2.751.625 2.881.655 5.759 1.317 8.64 1.957.61.135 1.243.142 1.845.355.992.348 1.145.509 1.13 1.534-.015 1.254.086 2.511-.165 3.753-.044.217-.022.445-.022.669-.037 7.98-.18 15.96.026 23.94.049 1.874.157 3.756.221 5.634.004.131.022.27.071.393.071.183.221.292.419.206 1.725-.748 3.45-1.489 5.164-2.256 4.498-2.017 9-4.018 13.479-6.079 3.787-1.744 7.544-3.551 11.305-5.347 1.497-.714 2.99-1.429 4.535-2.039.577-.228 1.142-.456 1.752-.336.213-.558.183-1.07.089-1.534-.258-1.246-.16-2.499-.228-3.749-.127-2.323-.138-4.661-.329-6.973-.273-3.36-.157-6.716-.195-10.072-.018-1.657.015-3.318.023-4.975z" fill="#c64a3a"/><path d="m74.7085 86.1423c-.2095-.0749-.4154-.1759-.6287-.217-7.8808-1.519-15.7616-3.0341-23.6424-4.5493-2.466-.4751-4.9432-.8979-7.3943-1.4329-1.7064-.3741-3.3791-.8904-5.063-1.3618-.4827-.1347-.5426-.3442-.2021-.7781.4416-.565.8944-1.1224 1.3883-1.6387 1.7476-1.8219 3.7234-3.3708 5.8638-4.7026 5.5645-3.4569 11.5743-5.7091 18.0892-6.4985 4.1462-.505 8.3149-.6809 12.4911-.419.5351.0337 1.0702.116 1.5941.2245 6.7132 1.4104 13.4116 2.8957 20.1398 4.22 4.3597.8568 8.6587 1.9529 12.9927 2.8995 7.054 1.5376 14.115 3.049 21.172 4.5605 5.658 1.2084 11.313 2.4317 16.978 3.5877 5.359 1.0925 10.732 2.1101 16.102 3.1539 2.466.4788 4.932.9353 7.398 1.4066.352.0674.7.1534 1.052.2357.292.0711.475.2544.464.565-.015.4003-.052.8006-.082 1.2046-.064.8044-.139 1.605-.191 2.4093-.015.2208 0 .449.033.6697.083.5088.502.7894.981.6285.382-.1272.752-.2955 1.104-.4901 1.407-.7931 2.818-1.5787 4.195-2.4205.576-.3554 1.096-.4377 1.77-.2881 3.94.8717 7.892 1.6948 11.84 2.5328.392.0823.797.1309 1.227.4265-.565.1459-1.055.2768-1.549.3966-3.641.8866-6.886 2.544-9.733 4.9757-.131.1123-.232.2656-.348.3966-.116.5686-.55.9128-.932 1.2832-2.257 2.1699-4.027 4.6914-5.351 7.5124-.453.961-1.078 1.19-2.04 1.025-3.181-.55-6.335-1.238-9.512-1.829-15.915-2.963-31.797-6.0799-47.682-9.1888-10.556-2.0689-21.1236-4.0816-31.6837-6.1243-3.1172-.6023-6.2231-1.2945-9.3664-1.7808-.5314-.0823-1.0628-.1983-1.4744-.5874z" fill="#ecc786"/><path d="m106.195 109.909c.906.205 1.864.411 2.814.639 2.395.577 4.786 1.16 7.181 1.744 5.699 1.384 11.398 2.776 17.098 4.156 5.179 1.254 10.358 2.496 15.537 3.741 2.784.67 5.575 1.325 8.363 1.987.217.052.442.086.655.15.539.168.633.291.633.868 0 .359 0 .722-.06 1.073-.274 1.635-.348 3.289-.535 4.931-.203 1.736-.064 3.494-.42 5.215-.026.131-.022.27-.033.401-.113 1.65-.18 3.307-.345 4.953-.325 3.3-.411 6.607-.572 9.918-.101 2.102-.157 4.205-.217 6.308-.004.172-.06.34-.097.535-.64.033-1.157-.274-1.711-.412-4.516-1.13-9.074-2.046-13.632-2.993-3.723-.774-7.439-1.59-11.133-2.492-8.606-2.095-17.198-4.253-25.797-6.39-.607-.149-1.205-.344-1.812-.497-.306-.079-.46-.254-.464-.561 0-.225.008-.449.038-.67.441-3.187.883-6.375 1.34-9.562.31-2.167.669-4.329.972-6.499.326-2.346.599-4.702.91-7.052.217-1.639.483-3.273.688-4.912.15-1.197.24-2.402.356-3.603.03-.303-.056-.632.239-.973z" fill="#c64a3a"/><path d="m88.994 105.687c1.6503.397 3.3006.79 4.9508 1.194 3.6036.883 7.2032 1.769 10.8032 2.656.172.041.356.056.52.124.172.071.285.217.255.422-.071.442-.142.883-.228 1.321-.27 1.399-.532 2.802-.708 4.22-.179 1.459-.482 2.903-.703 4.355-.113.748-.202 1.504-.318 2.252-.326 2.159-.562 4.332-.872 6.498-.311 2.163-.685 4.314-.999 6.476-.225 1.545-.382 3.098-.599 4.643-.221 1.545-.49 3.083-.715 4.624-.142.973-.269 1.946-.34 2.926-.0565.759-.2436 1.496-.3222 2.252-.1609 1.549-.4864 3.079-.7072 4.624s-.3855 3.098-.6025 4.643c-.2657 1.9-.5538 3.794-.8382 5.69-.03.195-.1609.322-.3555.344-.58.064-1.1526.06-1.7326-.089-1.4257-.371-2.8515-.764-4.2959-1.055-2.4585-.498-4.816-1.362-7.2596-1.897-.6549-.142-1.306-.303-1.9646-.427-.3143-.059-.4453-.239-.5351-.52-.1235-.385-.1796-.744-.1048-1.171.1908-1.051.2657-2.121.4079-3.183.1422-1.059.3143-2.118.4677-3.173.1086-.752.1048-1.508.262-2.263.2095-.999.2657-2.035.3368-3.057.0524-.759.1908-1.515.333-2.248.1946-1.014.1385-2.047.4154-3.053.1871-.681.116-1.411.2619-2.121.2059-.999.2246-2.039.3518-3.057.131-1.062.2956-2.117.4341-3.18.1272-.973.2469-1.945.3629-2.922.1161-.976.2171-1.953.3368-2.925.1535-1.239.3106-2.477.4828-3.712.1459-1.058.318-2.113.4602-3.176.1235-.928.2171-1.863.3406-2.791.1497-1.148.3255-2.293.4752-3.442.1198-.927.2245-1.859.3256-2.791.1122-1.021.1946-2.042.3255-3.06.1422-1.104.3593-2.2.4753-3.307.086-.819.247-.767.827-.64z" fill="#742e27"/><path d="m205.881 114.155c.224 0 .479-.067.662.019 1.119.531 2.369.786 3.364 1.579-.011.258-.018.516-.03.778-.314.887.064 1.826-.217 2.716-.082 2.507-.265 5.013-.224 7.516.048 2.948.082 5.908.408 8.844.011.09.011.18.011.27 0 2.596.12 5.192.303 7.781.019.27.022.539.019.808 0 .296-.135.498-.423.61-.749.296-1.508.58-2.238.921-2.069.969-4.127 1.967-6.189 2.951-4.289 2.043-8.585 4.071-12.937 5.971-1.107.483-2.211.984-3.304 1.501-2.23 1.051-4.453 2.117-6.679 3.172-1.015.479-2.032.939-3.054 1.403-.112.052-.251.049-.37.067-.326-.392-.315-.845-.322-1.294-.015-.988.003-1.975-.045-2.959-.352-6.985-.213-13.974-.217-20.962 0-2.237.295-4.467.183-6.712-.03-.58-.007-1.156-.123-1.736-.161-.812-.053-1.01.692-1.395 1.71-.887 3.443-1.732 5.235-2.447 3.368-1.347 6.74-2.694 10.115-4.022 2.5-.984 4.984-2.016 7.525-2.888 2.156-.737 4.315-1.493 6.538-2.02.262-.064.512-.165.767-.251.161-.131.396-.078.554-.224l.007.007z" fill="#c64a3a"/><path d="m201.807 114.375c-1.295.471-2.594.942-3.888 1.421-2.885 1.063-5.771 2.125-8.652 3.188-.202.116-.468.086-.647.262h.003c-3.948 1.447-7.783 3.18-11.697 4.71-1.059.415-2.047.475-3.14.179-16.199-4.362-32.593-7.942-48.894-11.897-1.568-.381-3.139-.763-4.7-1.178-.808-.217-1.235-.681-.666-1.455 1.744-2.38 3.375-4.853 5.49-6.94.864-.363 1.676.018 2.492.202 13.89 3.105 27.691 6.573 41.466 10.15 2.163.561 4.397.815 6.537 1.477.524.165.835-.112 1.205-.37 2.477-1.687 4.872-3.498 7.477-4.998.617-.356 1.193-.805 1.912-.958.906-.108 1.774 0 2.634.337 3.963 1.552 7.945 3.056 11.923 4.564.419.157.845.307 1.205.587.329.258.325.509-.064.715z" fill="#ecc786"/><path d="m69.1482 99.513c-12.6407-3.0565-25.3189-6.1243-37.9933-9.1958-.1684-.0412-.3218-.1347-.4752-.202.0337-.5463.2582-.9877.4827-1.4179 1.6166-3.0977 3.8544-5.6043 6.994-7.2243.6735-.3479 1.392-.621 2.0993-.8979.1983-.0785.4378-.0785.6586-.0785.1908 0 .3816.1197.2918.3255-.2207.5125.0412.9652.1048 1.4441.0674.52.3854.7856.8794.8717.8382.1459 1.6764.303 2.5184.4339 3.5063.55 6.9266 1.4404 10.3169 2.4767 3.5999 1.0999 7.2709 1.9454 10.9456 2.7685.696.1571 1.5492.1159 2.0244.6023.5239.5387.3555 1.4403.4528 2.1811.247 1.908.4229 3.8272.6362 5.7427.0486.4452.1384.8867.202 1.3281.0375.2619.1123.5313-.1347.8381z" fill="#ecc786"/><path d="m74.7015 86.1461c.7297-.0598 1.4183.1871 2.118.3218 7.1736 1.3693 14.3434 2.7647 21.5132 4.149 6.2043 1.1971 12.4083 2.3831 18.6093 3.5877 6.201 1.2047 12.401 2.4318 18.602 3.6327 6.335 1.2271 12.674 2.4397 19.013 3.6477 5.28 1.006 10.572 1.983 15.848 3.008 1.497.292 2.982.613 4.494.827.809.116.816.116 1.112-.565 1.002-2.327 2.387-4.411 4.049-6.3116.823-.9428 1.642-1.893 2.686-2.6113.337.0224.487.2132.491.5349.138.7745-.502 1.1037-.928 1.5003-1.883 1.7546-3.383 3.7897-4.693 5.9937-.438.74-.674 1.552-1.037 2.315-.19.229-.434.363-.722.434-2.039.199-4.011-.306-5.987-.628-13.614-2.211-27.141-4.897-40.673-7.5723-1.964-.389-4.049.8268-4.685 2.7383-.198.595.345.464.618.588.284.063.55.168.804.306.124.075.214.18.27.315-.262.624-.869.149-1.25.389-1.781-.412-2.59.815-3.499 1.99-1.22 1.583-2.432 3.176-3.824 4.62-.087.075-.176.139-.266.206-.041.034-.086.068-.124.101-.071.075-.142.15-.209.232-.056.086-.116.169-.176.251s-.124.161-.195.232c-.033.037-.071.071-.104.105-.072.067-.15.127-.232.175-.038.027-.079.053-.113.083.086.161.135-.079.214-.015.22.056.389.146.333.419-.79.033-1.535-.086-2.193-.558-.015-.25-.038-.501.048-.748.169-.49.562-.685 1.033-.782.599-.019.966-.381 1.306-.827 2.429-3.161 4.962-6.24 7.548-9.2741.116-.1346.217-.2843.333-.4227.505-.6061.513-.939-.397-1.1411-2.365-.5237-4.745-.9577-7.113-1.459-.262-.0561-.528-.0973-.794-.1534-1.142-.2494-1.844.1783-2.106 1.2832-.884.5724-.906-.2619-1.164-.7108-.083-.9278-.569-1.3768-1.508-1.5713-10.777-2.2634-21.5396-4.5867-32.3467-6.7079-.3068-.0599-.6174-.1572-.928-.1085-.8645.1309-1.1563.8417-1.3023 1.5264-.1609.7669.6025.5948 1.0104.7407.4154.1497.8943.1347 1.19.5425.0523.1384.0561.2768.0112.419-.1909.2619-.4678.2918-.7597.2694-.3255-.0562-.6473-.1459-.9841-.1422-1.1975-.2095-1.871.318-2.3875 1.4067-1.1039 2.327-2.2564 4.6353-3.7196 6.764-.0748.0711-.1908.0225-.2731.0786.0523.0711.1197.1197.2058.1459.3143.1833.8457.0861.8606.6546-.4827-.015-.9766.026-1.4481-.063-.6886-.131-.8008-.4569-.5426-1.265.6099-.3479.6024-1.0475.8868-1.5788 1.4856-2.7759 2.6943-5.7015 4.4269-8.3503.812-1.2421.7484-1.3244-.6885-1.994-.1722-.0786-.2807-.2058-.2582-.4116 0-.1945 0-.3891-.0038-.5799z" fill="#1d241c"/><path d="m117.281 109.29c1.074-1.07 1.953-2.301 2.915-3.46.823-.996 1.624-2.006 2.421-3.02.344-.441.7-.65 1.246-.303.266.169.606.094.917.068.108.052.195.127.254.232-.987 1.32-1.972 2.645-2.96 3.965-.83 1.108-1.669 2.211-2.496 3.326-.164.221-.074.438.191.505 1.774.446 3.54.947 5.329 1.31 1.796.363 3.559.845 5.34 1.268 4.21.999 8.412 2.028 12.622 3.034 3.731.891 7.462 1.785 11.2 2.649 4.606 1.066 9.213 2.136 13.79 3.333 2.159.565 4.322 1.115 6.466 1.732.655.187 1.201.109 1.811-.131 3.577-1.406 7.166-2.79 10.758-4.16.494-.187.977-.475 1.542-.393-.176.304-.512.345-.793.468-2.99 1.325-6.04 2.514-8.977 3.958-1.246.614-2.5 1.209-3.75 1.818-.292.143-.535.199-.879.064-2.717-1.066-5.554-1.747-8.375-2.458-6.388-1.601-12.783-3.18-19.178-4.744-9.662-2.364-19.324-4.71-28.99-7.059-.303-.075-.617-.086-.928-.131-.161-.169-.374-.221-.591-.255-.053-.089-.056-.183 0-.273l.011-.015c.101-.063.172-.149.221-.258l.041-.048c.097-.03.161-.094.191-.195.075-.037.116-.101.119-.187.038-.161.135-.273.27-.359l-.015.018c.067-.119.176-.202.269-.295z" fill="#d78545"/><path d="m176.497 106.063c0-.781.326-1.447.704-2.11 1.448-2.525 3.192-4.8107 5.321-6.801.258-.2394.479-.52.715-.7819.464-.3405.943-.6697 1.396-1.0288 2.933-2.3383 6.316-3.629 9.961-4.3623 2.047-.4115 4.086-.2843 6.133-.1197.621.0524 1.246.1085 1.868.1609.224.2095.621-.0412.8.2956.008.1608.019.3217.027.4826-.274.2132-.214.5462-.304.8268-.565.4639-1.279.3965-1.927.4676-4.101.4677-7.768 2.0726-11.211 4.2463-1.059.6696-2.185 1.2383-3.14 2.0576-.546.5836-1.451.6393-1.927 1.3243-.078.094-.168.172-.265.247-.105.067-.214.12-.326.165-2.391 1.706-4.719 3.475-6.601 5.769-.329.404-.636 1.185-1.426.553-.202-.505-.078-.965.199-1.399z" fill="#cb723c"/><path d="m72.3389 100.391c-.1871-.078-.3704-.179-.565-.232-.2433-.063-.4865-.104-.6549-.3177-.0075-.0861.0075-.1609.0561-.2357.2807-.4527.5875-.8942.842-1.3656 1.074-2.009 2.133-4.0292 3.1957-6.042.146-.2768.2919-.5537.4341-.8305.1609-.3068.3929-.4639.7559-.4265.4004.0374.8008.0486 1.2012.0748.2695.1684.61.0449.8831.2058.2508.0224.5015.0411.7522.0636.1198.1085.1422.2394.0748.3853-1.392 2.2447-2.6157 4.5904-4.0601 6.8052-.5014.767-.3518 1.0812.4977 1.2832 2.9637.7151 5.9274 1.4181 8.8949 2.1211 9.6358 2.29 19.2754 4.557 28.8964 6.914.348.086.7.157 1.003.37.325.27.056.704.277 1.003-.064.157-.064.348-.247.438-1.688-.431-3.372-.88-5.063-1.295-7.211-1.758-14.426-3.502-21.6407-5.252-4.8685-1.179-9.7332-2.361-14.6016-3.532-.2994-.071-.6174-.086-.9243-.127z" fill="#d78545"/><path d="m74.708 86.7254c.5501.3367 1.2124.2506 1.7962.4639.2544.0935.4004.2357.2769.4826-.4341.8717-.7447 1.8182-1.4894 2.5066-.0935.086-.202.1908-.232.303-.2918 1.1448-1.0665 2.0427-1.5492 3.0902-.4827 1.055-1.0103 2.0876-1.5118 3.1314-.3442.722-.6698 1.4553-1.0178 2.1811-.1385.2881-.3518.3891-.6399.1796.1721-1.0401-.1759-2.0427-.247-3.064-.0786-1.1561-.2994-2.3046-.4191-3.4569-.2208-2.1362-.5538-4.2537-1.074-6.3413-.086-.3404.0749-.5088.4266-.4452 1.4519.2619 2.9039.5387 4.3558.7969.4378.0785.8831.1159 1.3247.1721z" fill="#cb723c"/><path d="m51.0251 84.2645c-.4191.0636-.7858-.1422-1.1787-.217-1.9796-.3741-3.9591-.7445-5.9387-1.1186-.4827-.0898-.9692-.1759-1.4519-.2769s-.565-.202-.6212-.722c-.0187-.1796-.0299-.3592-.0299-.535.0037-.4751.2208-.6659.681-.5462 1.9497.5125 3.9068.9989 5.8938 1.3505 2.8664.5088 5.7291 1.0289 8.5993 1.5227 3.3117.5649 6.6234 1.1036 9.9389 1.6611.5613.0935.6848.2207.7484.7744.0412.3554.0412.7146.0562 1.07-.5052.4676-1.089.2881-1.6615.1983-4.6888-.7296-9.3327-1.6611-13.8868-3.0154-.3705-.1123-.7372-.333-1.1526-.1422z" fill="#ce7a40"/><path d="m201.81 114.373c.068-.198.221-.397-.116-.52-1.119-.423-2.234-.868-3.349-1.295-3.398-1.302-6.799-2.592-10.19-3.909-.654-.255-1.324-.086-1.975-.206.628-1.261 1.927-1.511 3.049-2.031 1.77.366 3.308 1.313 4.947 2.005 2.796 1.178 5.572 2.409 8.345 3.644.367.164.756.292.947.696.236.108.464.228.704.318.239.089.325.254.306.493-.886.27-1.773.539-2.66.809z" fill="#e5b26f"/><path d="m51.0312 84.2621c.2171-.3217.5277-.2881.8383-.2095 1.8486.4639 3.6971.9128 5.5382 1.4029 1.2424.333 2.511.5201 3.7795.7109 1.1788.1758 2.3463.4414 3.5251.6322 1.0028.1609 1.987.4677 3.0161.4265.0636.1646.1609.3255.1908.4938.146.8493 0 1.0102-.7933.8231-4.6926-1.0924-9.3851-2.1848-13.9879-3.6177-.1721-.0524-.3367-.116-.5051-.1721-.1759-.1085-.4042-.0711-.5726-.202-.0823.0149-.1609 0-.232-.0449-.1833-.131-.4191-.1048-.6137-.2058l-.0935.0075-.0861-.0374z" fill="#db9d5e"/><path d="m90.616 170.391c-.2133.307-.5351.236-.8345.236 0-.371 0-.704-.4827-.824-.3892-.097-.7821-.172-1.1713-.265-1.7774-.423-3.5624-.834-5.3137-1.362-3.076-.928-6.1707-1.762-9.3178-2.413-.4116-.086-.8082-.236-1.4257-.419.6698-.112 1.0927-.071 1.538.037 2.7242.678 5.4859 1.213 8.1727 2.036 1.7513.538 3.51 1.032 5.2913 1.447.9991.232 1.9945.468 2.9936.7.0449.034.0898.067.1347.097.1797.217.3256.453.4154.726z" fill="#653a2e"/><path d="m90.0659 169.567c.0823-.217.2358-.378.4416-.483 1.7924-.901 3.5811-1.807 5.3773-2.697.1123-.056.262-.041.393-.06.0112.067.0262.131.0374.198-.3256.812-1.175.891-1.8074 1.265-.9992.591-2.0432 1.1-3.0947 1.586-.4229.195-.8495.569-1.3584.18l.0075.011z" fill="#653a2e"/><path d="m209.664 119.243c0-.658-.008-1.321-.008-1.979 0-.266.023-.528.225-.737.007.662.015 1.324.018 1.986 0 .27-.014.532-.239.726z" fill="#39392f"/><path d="m203.402 91.315c-.277-.0674-.583-.0636-.8-.2956.314-.0299.651-.1234.8.2956z" fill="#484a3b"/><path d="m188.625 119.247c.138-.274.382-.289.644-.262-.165.213-.378.295-.644.262z" fill="#d78545"/><path d="m205.882 114.151c-.131.209-.329.247-.554.224.131-.202.329-.247.554-.224z" fill="#39392f"/><path d="m96.2806 166.328c.1123-.209.3181-.228.5201-.254.0113.06.0225.116.0337.176-.1646.228-.3443.314-.5688.067z" fill="#c64a3a"/><path d="m52.0703 84.5427c.2245-.0299.4266.0038.5726.202-.2283.0337-.4192-.0299-.5726-.202z" fill="#ce7a40"/><path d="m51.2187 84.2936c.2433-.0411.4603-.0187.6137.2058-.2394.0337-.4527-.0112-.6137-.2058z" fill="#ce7a40"/><path d="m96.8006 166.068c.1198-.213.3256-.247.5426-.266.0112.06.0187.116.0299.176-.1646.232-.3517.307-.5762.079l.0075.015z" fill="#c64a3a"/><path d="m97.3393 165.806c.0896-.093.1792-.182.2688-.276l-.0112-.011c.0784.254-.0224.336-.2688.272z" fill="#c64a3a"/><path d="m164.166 208.608c.041 1.612.086 3.221.12 4.833.011.505-.116.636-.73.76-2.724.55-5.448 1.088-8.172 1.642-8.697 1.759-17.394 3.524-26.09 5.283-8.652 1.751-17.307 3.49-25.959 5.245-6.7619 1.373-13.52 2.772-20.2857 4.138-2.2939.463-2.1405.737-2.103-1.661.1047-6.989.2544-13.978.3966-20.966.101-4.882.0711-9.768.0487-14.651-.015-3.045.0262-6.094.0486-9.139 0-.18.0337-.356.0524-.535.6174-.472 1.2162-.112 1.7812.093 8.2625 3.004 16.6335 5.679 25.0382 8.257 7.117 2.181 14.284 4.198 21.48 6.102 8.281 2.192 16.633 4.115 24.821 6.637 2.956.909 5.86 1.968 8.939 2.413 1.108.161.644.939.618 1.549z" fill="#ecc786"/><path d="m65.3006 177.909c-.0075.446 0 .895-.0262 1.34-.2882 4.426-.6063 8.851-.8719 13.277-.3219 5.414-.6025 10.827-.8869 16.244-.0449.895.0112 1.792-.015 2.69-.0262.999.3593 1.706 1.291 2.144 1.3771.651 2.7168 1.381 4.0976 2.024 1.9085.89 3.8394 1.736 5.7665 2.593.3668.164.7484.306 1.1376.407.8195.214 1.2761-.149 1.3097-1.017.0113-.311 0-.629-.0374-.939-.217-2.054-.2282-4.116-.2208-6.177.0075-3.719-.0261-7.445.0936-11.16.1572-4.931.1796-9.858.2807-14.789.0411-2.057.1646-4.111.2507-6.244 1.1076.139 2.088.55 3.0722.928.232.09.2657.337.2432.576-.0449.535-.116 1.07-.1234 1.605-.0375 4.033-.0711 8.066-.0861 12.103-.015 4.482.0224 8.964-.0225 13.446-.0449 4.886-.1684 9.768-.232 14.654-.0374 2.824-.0449 5.649.0936 8.47.0075.168-.0262.337-.0412.479-.2919.127-.4752-.015-.6698-.124-13.1272-7.205-26.3966-14.153-39.5949-21.227-.1197-.064-.2357-.135-.3592-.187-.4565-.191-.6811-.498-.6923-1.025-.0299-1.388-.116-2.776-.1721-4.164-.3443-8.736-.4154-17.479-.1684-26.218.0823-2.862.0898-5.739.464-8.586.3892-.303.7671-.109 1.1264.052 1.2199.542 2.5146.89 3.7495 1.395 1.5043.618 1.5118.599 1.3397 2.354-.0374.984-.0599 1.968-.1198 2.951-.3405 5.68-.4902 11.362-.2993 17.053.0673 2.012.0935 4.029.1721 6.042.0487 1.253.1572 2.503.2619 3.752.0375.445.1348.887.2208 1.325.0936.467.3443.826.7896 1.017 2.1779.943 4.3558 1.886 6.5411 2.81.3668.153.7559.28 1.1713.262.4491-.023.8008-.229.9093-.655.0973-.385.1535-.793.1572-1.19 0-1.029-.0711-2.061-.0524-3.09.0786-4.388.0861-8.777.3368-13.161.1908-3.353.2881-6.712.4416-10.064.0561-1.205.1646-2.41.2469-3.614.1722-1.613.1909-1.635 1.7588-1.126 1.9983.651 3.9816 1.339 5.9798 1.99.5165.168 1.0141.355 1.3734.789z" fill="#ecc786"/><path d="m76.6371 181.678c-.0299 2.282 0 4.568-.1122 6.846-.131 2.597-.146 5.193-.2059 7.789-.0898 3.85-.1871 7.7-.232 11.549-.0299 2.731-.0636 5.462.1909 8.19.0449.49.0449.984.0411 1.474 0 .284-.1833.423-.4378.337-.3405-.113-.6773-.236-1.0028-.386-2.9338-1.335-5.9163-2.57-8.779-4.063-1.9458-1.017-1.8672-.894-1.8149-2.967.0749-2.862.2433-5.724.3705-8.582.0112-.224.0225-.449.0337-.669.217-3.798.4154-7.599.6549-11.396.217-3.438.4789-6.876.7222-10.315.0112-.175.0486-.355.0748-.531.116-.595.4827-.871 1.059-.692 3.1883 1.006 6.4064 1.942 9.43 3.416z" fill="#e0a261"/><path d="m55.567 174.678c0 .49.0262.987-.0112 1.474-.262 3.303-.4154 6.61-.5838 9.917-.2021 3.936-.4266 7.868-.4752 11.808-.03 2.416-.0187 4.837-.0262 7.254 0 .404.0075.808 0 1.208-.0262.928-.2657 1.111-1.1713.76-1.2124-.468-2.3987-.996-3.5924-1.512-.9056-.393-1.7962-.812-2.698-1.204-.3592-.154-.5913-.386-.6549-.779-.0411-.265-.1235-.523-.1459-.789-.1048-1.339-.2283-2.679-.2807-4.018-.1684-4.16-.2993-8.324-.2544-12.488.0486-4.433.2507-8.859.5463-13.285.03-.445.1347-.883.2021-1.324.4228-.318.8532-.124 1.2685.011 2.3164.756 4.6215 1.556 6.9491 2.282.3892.123.7559.266.928.677z" fill="#e0a261"/><path d="m164.17 208.608c-.037-.356-.075-.707-.116-1.096-2.361-.371-4.734-.749-6.964-1.617-3.297-1.283-6.724-2.087-10.126-3.004-4.479-1.208-8.973-2.349-13.468-3.505-4.105-1.055-8.184-2.215-12.27-3.341-2.795-.771-5.591-1.549-8.378-2.346-1.333-.381-2.646-.823-3.967-1.234-3.155-.988-6.294-2.024-9.4637-2.956-4.2472-1.249-8.3972-2.787-12.5846-4.209-1.523-.516-3.0348-1.066-4.5578-1.586-.2507-.086-.5201-.105-.7821-.153-.0449-1.291-.0524-2.582.2096-3.914.479-.071.8419.128 1.2049.244 5.2876 1.709 10.5676 3.438 15.8514 5.144 14.0703 4.541 28.1363 9.091 42.2143 13.603 5.931 1.9 11.889 3.703 17.831 5.563 1.28.4 2.631.553 3.854 1.137.266.127.521.045.771-.075.273-.131.52-.37.936-.232-.105 1.179.071 2.387-.195 3.581z" fill="#e19d54"/><path d="m76.6337 181.68c-1.2498-.15-2.3837-.685-3.5587-1.093-2.017-.699-4.0414-1.38-6.0547-2.08-.4715-.165-.6137.236-.8719.445.0936-1.287.1834-2.57.2882-3.853.0262-.314.2507-.445.58-.344 1.0216.318 2.0357.651 3.0535.98 2.0357.658 4.0714 1.309 6.1033 1.979.7035.232.7747.31.711 1.059-.0823.969.0861 1.96-.2507 2.907z" fill="#d78545"/><path d="m65.3049 177.907c-2.5821-.846-5.1678-1.691-7.7461-2.541-.3331-.108-.6549-.25-1.0216-.224-.2881.325.0262.827-.3443 1.115-.1272-.58-.0187-1.156.0187-1.736.0562-.846.1123-1.695.1759-2.54.0374-.517.1759-.614.696-.453 1.1114.344 2.2153.703 3.3193 1.062 1.6165.524 3.2294 1.055 4.8459 1.575.3518.113.4902.292.4191.693-.1833 1.01-.0374 2.057-.3629 3.052z" fill="#e09d54"/><path d="m55.5716 174.678c-2.2004-.722-4.397-1.444-6.5973-2.159-.8457-.277-1.6952-.542-2.5446-.812.0224-.98.0374-1.96.0748-2.936.0187-.498.1909-.595.7035-.461.0412.012.0861.03.1273.042 2.6269.856 5.2576 1.706 7.8808 2.57.6361.209.7035.299.6548.969-.0711.931-.1946 1.859-.2993 2.787z" fill="#d68545"/><path d="m45.4109 172.823c-.1385-.472.131-1.033-.1796-1.426-.3031-.385-.8644-.396-1.3172-.565-1.5754-.598-3.1434-1.204-4.7188-1.807.0225-.89.0299-1.78.0711-2.671.0187-.426.2245-.565.6137-.445.726.224 1.4445.468 2.1629.703 1.059.348 2.118.704 3.1808 1.04.3368.109.5463.27.5276.655-.0636 1.336-.1122 2.675-.1833 4.011-.0075.172-.1011.336-.1572.505z" fill="#df9d54"/><path d="m278.032 134.614c.067.157.198.344.015.468-1.265.875-1.845 2.199-2.369 3.565-.531.363-1.022.105-1.519-.101-7.907-3.218-15.807-6.45-23.695-9.72-.793-.329-1.811-.49-1.759-1.706.045-1.077 1.074-2.443 2.107-2.806.505.03.939.281 1.396.457 8.187 3.139 16.367 6.285 24.555 9.428.415.161.846.276 1.269.415z" fill="#f4e4c0"/><path d="m250.81 124.318c-.961.625-1.362 1.642-1.781 2.63-.232.546-.022.928.55 1.16 2.485 1.01 4.977 1.998 7.462 3.019 1.905.782 3.787 1.605 5.688 2.394 1.527.633 3.072 1.231 4.603 1.856 2.398.984 4.797 1.972 7.188 2.974.378.157.749.296 1.16.3-.034.804-.063 1.608-.105 2.413-.041.767.367 1.459.39 2.229-.408.027-.704-.175-1.022-.31-8.727-3.749-17.457-7.501-26.183-11.254-.408-.175-.857-.284-1.157-.651-1.242-2.27.012-5.813 2.455-6.932.27-.026.547-.079.752.176z" fill="#efcc96"/><path d="m206.424 106.57c-.509-.381-1.126-.523-1.706-.744-2.421-.924-4.853-1.83-7.282-2.742-.251-.094-.494-.199-.749-.3.019-.366.326-.392.532-.497 1.557-.786 3.132-1.542 4.677-2.3497.539-.2806.985-.2432 1.509.0187 2.72 1.362 5.467 2.667 8.176 4.048 2.668 1.362 5.299 2.798 7.956 4.186.636.333 1.223.719 1.815 1.149-.3.307-.753.097-.97.426-.943-.022-1.863.195-2.765.412-.748.183-1.385.067-2.069-.195-2.74-1.058-5.49-2.095-8.237-3.135-.288-.108-.591-.187-.887-.28z" fill="#ecc786"/><path d="m231.179 116.755c1.048.382 2.107.749 3.147 1.149 4.846 1.859 9.692 3.722 14.531 5.593.307.12.733.101.789.576-1.002.913-1.481 2.234-2.454 3.173-.521.127-.962-.113-1.415-.292-5.153-2.028-10.279-4.119-15.443-6.117-.749-.288-1.763-.415-1.707-1.575.053-1.089 1.377-2.353 2.549-2.507z" fill="#f4e4c0"/><path d="m231.18 116.751c-1.141.487-1.807 1.411-2.286 2.503-.131.299-.026.543.232.681.311.168.651.284.984.415 3.944 1.56 7.888 3.113 11.829 4.68 1.534.61 3.061 1.243 4.584 1.879.258.108.516.134.786.131.168 1.197-.225 2.375-.109 3.572.015.157-.209.255-.393.273-5.875-2.521-11.75-5.043-17.625-7.572-.528-.228-1.111-.37-1.493-.856-1.029-1.314-1.156-2.982-.269-4.475.722-1.216 1.743-1.885 3.229-1.489.18.075.408.056.531.255z" fill="#efcc96"/><path d="m214.789 110.426c.063.007.123.011.187.011.101.037.202.075.303.12 4.741 1.837 9.482 3.67 14.22 5.507 0 .722-.726.636-1.093.916-.76.588-.902 1.598-1.654 2.155-.936.03-1.74-.419-2.548-.763-3.013-1.276-6.074-2.424-9.101-3.663-2.56-1.051-2.747-2.173-.663-4.051.116-.075.232-.15.349-.232z" fill="#f4e4c0"/><path d="m286.09 142.899c-.262 1.324-.517 2.648-.79 3.969-.033.157-.172.292-.258.438-2.545-1.085-5.082-2.185-7.634-3.248-.587-.247-.932-.617-1.115-1.219-.61-1.968-.509-3.88.487-5.694.52-.947 1.182-1.796 2.327-2.065.097.078.195.157.292.235.24.483-.146.749-.389 1.04-.344.416-.692.823-.977 1.28-.797 1.264-.73 1.515.625 2.054 1.953.782 3.914 1.549 5.909 2.233.58.198 1.246.296 1.527.977z" fill="#efcc96"/><path d="m286.081 142.897c-.539-.217-1.07-.449-1.613-.654-2.129-.805-4.262-1.602-6.391-2.406-.21-.079-.408-.187-.603-.292-.528-.284-.595-.445-.363-.954.389-.86.879-1.653 1.538-2.342.277-.288.621-.524.745-.935.131.022.273.022.393.071 2.421.92 4.838 1.844 7.259 2.765.363.138.457.389.382.741-.415.288-.374.781-.524 1.185-.34.921-.397 1.923-.816 2.821z" fill="#f4e4c0"/><path d="m202.872 105.748c.988.385 1.938.868 2.982 1.1 2.264.897 4.528 1.792 6.796 2.689.37.146.745.281 1.111.438.154.068.333.139.315.363-.831.879-1.071 2.189-2.111 2.922-2.241-.498-4.255-1.62-6.414-2.346-1.44-.482-2.829-1.122-4.247-1.676-1.081-.423-1.216-.815-.64-1.833.423-.748.943-1.422 1.811-1.713.143-.034.277-.015.404.056z" fill="#f3e4c0"/><path d="m246.797 130.89c.318-.213.247-.535.232-.838-.053-1.018-.008-2.024.273-3.012.299-.542.565-1.111.913-1.623.371-.547.76-1.1 1.426-1.347.138.022.277.048.415.071-.284.28-.576.554-.849.845-1.396 1.497-1.984 3.251-1.673 5.287.041.265.049.531.067.8-.277-.018-.591.113-.804-.187z" fill="#767155"/><path d="m226.859 118.974c.109-.236.214-.476.33-.707.396-.801.931-1.467 1.762-1.864.195-.093.367-.228.55-.34.367.18.82.146 1.142.438-.262.033-.532.052-.79.108-1.235.273-2.017 1.051-2.399 2.234-.262.812-.355 1.635-.071 2.473.128.374.199.763.296 1.148-.195-.011-.386-.026-.58-.037-.711-1.108-.917-2.252-.24-3.453z" fill="#746f54"/><path d="m212.056 113.055c.175-.393.325-.797.531-1.171.352-.644.715-1.291 1.482-1.542.239.026.479.053.718.083-.015.067-.045.131-.082.19-1.538.921-1.976 2.372-1.968 4.041 0 .299.112.621-.202.842h-.116l-.113-.023c-1.048-.707-.703-1.56-.254-2.42z" fill="#736f54"/><path d="m215.279 110.548c-.134.049-.235.011-.302-.119.141-.064.242-.026.302.119z" fill="#736f54"/><path d="m212.537 115.498c-.161-.886-.206-1.781.127-2.63.389-.995.79-2.024 2.043-2.256-.157.502-.602.767-.935 1.119-.464.49-.427 1.059-.307 1.635.06.28.314.423.569.531.576.243 1.152.486 1.732.722 2.773 1.122 5.546 2.252 8.327 3.356.909.363 1.844.666 2.769.995-.146 1.167.007 2.312.239 3.453-4.389-1.878-8.783-3.756-13.176-5.627-.628-.265-1.25-.52-1.384-1.301z" fill="#efcc96"/><path d="m212.054 113.055c-.007.617-.022 1.234-.018 1.855 0 .225.067.434.273.569-.079.456-.157.55-.408.441-1.935-.823-3.869-1.653-5.804-2.473-.782-.329-1.572-.639-2.357-.957-1.175-.161-2.16-.842-3.256-1.22-.21-.071-.397-.217-.535-.396-.786-1.059-.704-2.178-.18-3.3.475-1.018.91-2.11 2.358-1.979.142.003.284.011.426.015.105.018.142.045.116.086-.03.045-.06.071-.09.071-.782.669-1.549 1.343-1.919 2.349-.15.416-.127.483.333.666 3.555 1.403 7.106 2.806 10.661 4.205.124.049.262.049.393.071z" fill="#efcc96"/><path d="m202.13 105.591c-1.344.491-1.987 1.534-2.305 2.859-.143.583-.079 1.13.078 1.698.131.475.386.778.827.962.696.288 1.396.572 2.085.879.318.142.688.202.924.497-.094.09-.187.18-.277.27-1.329-.408-2.567-1.04-3.839-1.59-3.492-1.512-6.972-3.045-10.456-4.568-.067-.105-.082-.217-.056-.337.18-.632-.217-1.208-.172-1.826.011-.119.037-.239.067-.359.09-.288.142-.583.217-.879.199-.696.64-1.261 1.104-1.874-1.785-.984-3.495-1.6239-5.377-.502-.131 0-.243-.052-.341-.142.244-.52.7-.7853 1.194-1.0098.236-.1085.535-.0898.692-.3517.401-.2693.831-.2731 1.276-.1347 2.624.8342 5.161 1.9002 7.758 2.8022.172.06.292.195.378.355-.191.146-.382.292-.573.438-.861.344-1.512-.273-2.23-.516-.689-.232-1.336-.487-2.002.011-1.751 1.635-1.433 3.771.703 4.695 2.414 1.044 4.85 2.032 7.372 3.102-.108-.644-.157-1.242-.06-1.834.427-1.298.85-2.6 2.422-2.963l.587.318z" fill="#706246"/><path d="m195.908 102.343c-1.16-.183-2.216-.692-3.308-1.073-1.688-.591-3.368-1.198-5.045-1.8185-.351-.131-.703-.1123-1.055-.1347.082-.2208.243-.3592.438-.4826 2.41-1.5152 4.786-3.1015 7.409-4.2351 1.998-.8679 4.075-1.4964 6.264-1.7471.839-.0973 1.658-.3142 2.511-.2207.101.6809-.138 1.3244-.22 1.9828-.169 1.3693-.363 2.7311-.506 4.1041-.045.419-.228.6322-.583.7894-1.995.8904-3.978 1.7994-5.902 2.8354z" fill="#e0a261"/><path d="m201.544 105.272c-1.066.722-1.751 1.725-2.163 2.929-.52.217-.965-.067-1.418-.228-2.11-.756-4.206-1.552-6.298-2.357-1.897-.729-2.084-1.234-1.115-2.974.131-.236.315-.438.46-.662.464-.472.958-.528 1.58-.251.894.4 1.83.707 2.75 1.051 2.069.831 4.135 1.662 6.204 2.492z" fill="#f3e4c0"/><path d="m202.585 105.763c0-.052-.012-.104-.03-.156.142-.034.242.014.31.141-.094.004-.187.008-.28.015z" fill="#706246"/><path d="m104.129 163.568c1.347.307 2.436.527 3.51.8 3.514.898 6.968 2.006 10.44 3.061 6.044 1.833 12.091 3.647 18.142 5.451 4.849 1.444 9.699 2.895 14.568 4.272 2.971.838 5.979 1.556 8.977 2.301 1.568.389 3.151.699 4.561 1.549.281.168.513.026.756-.083 1.636-.733 3.278-1.451 4.906-2.203 2.852-1.313 5.681-2.668 8.54-3.962 5.063-2.293 10.144-4.531 15.286-6.644 4.105-1.688 8.292-3.151 12.442-4.718.547-.206 1.086-.427 1.632-.617.206-.071.434-.12.651-.109.228.008.43.135.498.378.048.191-.049.359-.191.471-.176.135-.363.266-.569.348-.954.386-1.905.79-2.881 1.119-5.221 1.781-10.355 3.786-15.429 5.937-4.169 1.766-8.3 3.61-12.461 5.391-3.458 1.485-6.93 2.937-10.403 4.392-.494.206-1.018.345-1.519.539-.599.232-1.142.269-1.8.056-1.059-.336-2.193-.426-3.282-.681-5.149-1.197-10.257-2.544-15.309-4.096-5.392-1.658-10.811-3.248-16.203-4.909-3.383-1.04-6.736-2.17-10.115-3.232-4.4-1.384-8.76-2.885-13.213-4.093-.46-.123-1.003-.056-1.538-.714z" fill="#1e2e28"/><path d="m51.2867 112.983c-.0262.894-.0112 1.519-.1721 2.136-.0973.382-.0973.801-.0823 1.201.0786 2.151-.3144 4.276-.2919 6.424.0075.935-.2432 1.074-1.1451.92-2.2041-.378-4.3258-1.077-6.5074-1.545-.6961-.15-1.3883-.31-2.0844-.464-.5201-.112-.7259-.295-.7521-.786-.0262-.445-.0449-.901.0149-1.339.2133-1.5.4678-2.993.6961-4.489.1272-.838.2245-1.676.3442-2.518.0973-.707.1946-1.414.3144-2.114.0711-.408.318-.531.7895-.441 2.5821.49 5.1604.98 7.7424 1.47.1759.034.3517.06.5239.112.4453.142.5763.314.6099.763.0075.09 0 .18 0 .27 0 .224 0 .449 0 .4z" fill="#45392b"/><path d="m72.5652 117.895c.7783-.105 1.508.175 2.249.306 1.755.315 3.4951.711 5.2351 1.085.7073.154.9879.427.827 1.123-.3817 1.631-.015 3.318-.449 4.934-.0225.086-.0225.18-.0187.27.0823 1.661-.3892 3.288-.2957 4.953.0038.09-.0037.179-.0149.269-.0449.382-.2433.565-.6324.513-.5726-.075-1.1451-.18-1.7102-.299-2.0057-.431-4.0077-.872-6.0097-1.317-.3031-.068-.6025-.165-.9056-.247-.7522-.21-.8906-.341-.9355-1.074-.03-.535-.0637-1.089.0449-1.609.1496-.711.1234-1.425.1871-2.136.1347-1.511.3031-3.019.4565-4.527.0374-.355.0786-.714.0748-1.07-.0037-.46.1385-.879.2807-1.305.0861-.259.2694-.375.5089-.259.3555.173.8345.004 1.1077.397-.1011.086-.2058.172-.3144.251-.1197.067-.2395.123-.3667.172-.5126.737-.4528 1.612-.5201 2.428-.1684 2.084-.3144 4.167-.5389 6.248-.1759 1.619-.0037 1.814 1.5979 2.14 1.7924.362 3.5924.68 5.3699 1.103.7259.172 1.3733.198 1.3883-.83.1534-2.619.4041-5.231.6997-7.834.1273-1.112-.2021-1.605-1.291-1.875-1.9833-.486-4.0564-.598-5.9611-1.406-.131-.116-.1572-.251-.0711-.404z" fill="#493e30"/><path d="m65.5491 115.475c.2806.037.5538.116.55.46-.0112 1.118.0262 2.241-.0935 3.348-.0674.621-.1459 1.238-.1647 1.863-.0224.715-.0523 1.418-.1833 2.133-.1347.74-.0898 1.515-.0973 2.278-.0075.543-.0636 1.066-.2283 1.586-.0973.311-.2993.404-.595.434-.7334.075-1.422-.183-2.1068-.336-1.9982-.449-3.9703-1.025-5.9611-1.527-.3592-.09-.5164-.288-.6099-.617-.0861-.303-.2508-.614-.1385-.913.2844-.771.0936-1.609.378-2.376.0299-.082.0449-.172.0523-.261.1048-1.336.2283-2.668.2994-4.004.0449-.89.0449-1.777.2657-2.659.2245-.902.4603-1.112 1.3808-.958.9655.161 1.9347.303 2.8926.49 1.3098.254 2.6158.542 3.9255.808.1871.037.3293.123.4415.269-.5575.505-1.1862.258-1.7887.154-1.8972-.326-3.7607-.85-5.6991-.868-.5988.09-.5015.568-.4828.943.131 2.738-.3442 5.428-.6511 8.129-.0898.808.1796 1.149.8831 1.366 1.6727.508 3.3716.905 5.0668 1.317 1.7214.419 1.7812.351 1.7401-1.489.202-3.199.3293-6.405.9205-9.567z" fill="#4c3e2f"/><path d="m52.6527 102.959c-.1047.958-.1684 2.032-.3555 3.079-.101.573-.1758 1.141-.2133 1.721-.0561.861-.2507.988-1.0852.853-1.886-.31-3.772-.64-5.6692-.894-.7933-.105-1.6016-.071-2.38-.303-.696-.206-.9018-.438-.7259-1.16.1759-.711.1833-1.421.1609-2.129-.0337-1.167.1646-2.312.2806-3.464.0375-.393.2321-.557.6287-.509 1.4108.18 2.8253.352 4.2323.584 1.3172.221 2.6194.512 3.9292.774.086.019.1721.042.2582.064.9467.239.9579.258.9392 1.38z" fill="#473b2e"/><path d="m71.2167 110.375c0-.628-.0112-1.253.0037-1.882.0075-.31.0262-.628.0973-.931.1347-.565.4266-.752.9842-.632 1.6577.355 3.3117.722 4.9695 1.084 1.1338.247 2.2639.498 3.3978.738.6212.13.8644.404.711 1.04-.1834.755-.2058 1.511-.1797 2.267.0337.954-.2619 1.859-.3143 2.794-.0224.419-.3293.577-.7746.487-1.7026-.352-3.4015-.726-5.1117-1.059-.9168-.18-1.8486-.303-2.7766-.419-.8869-.112-1.0291-.247-1.0403-1.201-.0075-.763 0-1.523 0-2.286h.03z" fill="#4d3b2b"/><path d="m66.8622 107.593c.1235 1.436-.2882 2.656-.2395 3.909.0112.315-.217.483-.5239.479-.3106-.007-.6287-.019-.928-.09-1.6054-.37-3.1995-.778-4.8049-1.129-.8269-.184-1.6577-.333-2.4473-.659-.5837-.239-.6848-.378-.6885-.991 0-.18-.0187-.367.0299-.532.262-.871.2058-1.769.2058-2.66 0-2.068.6063-1.803 2.0245-1.694 1.3733.104 2.7355.321 4.1013.501.6624.086 1.321.183 1.9758.311.9468.183 1.175.422 1.2836 1.403.0486.441.0074.89.0074 1.156z" fill="#4d3c2c"/><path d="m97.3371 165.792c.0898-.09.1796-.183.2694-.273.4603.138.5875.322.4004.565-.2507.325-.565.58-.9318.752-2.2302 1.044-4.2622 2.447-6.455 3.554-.5613-.026-.5464-.438-.5576-.834.2096-.064.4378-.098.6324-.195 1.5979-.785 3.192-1.582 4.7861-2.379.3144-.157.6661-.284.7896-.67.2095-.019.4116-.052.5276-.258.2058-.034.4079-.079.5389-.266z" fill="#1a2c27"/><path d="m142.37 136.748c.172-.112.341-.225.513-.333.168-.034.299.022.389.164.401.831.011 1.665.008 2.499-.004 2.589-.143 5.167-.363 7.741-.071.834.306 1.081 1.04 1.197 2.253.348 4.46.902 6.601 1.699.752.28 1.534.527 1.912 1.346.202 1.037-.307 1.306-1.212 1.093-2.953-.696-5.931-1.283-8.903-1.904-.61-.128-1.134-.341-1.141-1.209-.049-4.025.498-7.998.909-11.986.015-.143.146-.217.247-.304z" fill="#cb723c"/><path d="m107.993 127.034c1.126.038 2.159.348 3.207.55 2.189.423 4.374.868 6.556 1.328.771.161.939.374.774 1.1-.149.666-.153 1.332-.172 1.998-.067 2.679-.385 5.35-.337 8.036.015.887-.131 1.781-.228 2.667-.06.573-.34.756-.924.663-2.343-.374-4.607-1.067-6.897-1.65-1.208-.311-2.432-.561-3.641-.883-.868-.232-.902-.329-.946-1.197-.068-1.306.239-2.574.4-3.857.202-1.635.46-3.267.707-4.898.172-1.144.344-2.293.547-3.434.093-.52.142-.524.737-.456.089.011.176.026.217.033z" fill="#393327"/><path d="m135.299 133.512c.18 0 .359 0 .535.011.311.015.513.172.52.49.011.356.045.73-.045 1.07-.198.748-.134 1.512-.198 2.264-.157 1.866-.202 3.741-.468 5.596-.056.397-.075.805-.056 1.205.049 1.122-.165 2.226-.273 3.333-.037.405-.202.517-.614.554-.729.064-1.422-.187-2.107-.34-2.477-.554-4.935-1.201-7.401-1.822-.846-.213-1.179-.681-1.071-1.568.203-1.635.277-3.288.61-4.908.019-.086.034-.18.03-.266-.075-1.616.307-3.202.292-4.811-.007-.685.142-1.332.303-1.979.135-.539.412-.737.981-.681.752.075 1.512.142 2.252.299 1.527.318 3.076.502 4.577.954.55.165 1.134.236 1.703.337.187.034.333.116.434.277-.558.501-1.186.258-1.789.15-2.155-.397-4.288-.936-6.477-1.123-.745-.033-1.045.352-1.048 1.066-.011 3.36-.345 6.697-.805 10.023-.123.89.135 1.392 1.085 1.65 2.294.621 4.599 1.175 6.916 1.702.628.142 1.197.213 1.201-.703.269-3.509.595-7.011.883-10.517.064-.759-.041-1.504.026-2.256z" fill="#473a2b"/><path d="m142.373 136.746c-.213 2.582-.367 5.171-.658 7.745-.169 1.474-.184 2.944-.21 4.418-.022 1.126.011.928 1.014 1.204.898.251 1.838.371 2.754.562 2.055.434 4.105.875 6.156 1.313.086.019.176.034.266.048.385.057.539-.067.58-.516.018-.176-.011-.355-.019-.535-.644-1.448-.067-2.918 0-4.362.105-2.14.307-4.284.543-6.42.101-.905-.229-1.321-1.067-1.53-1.609-.404-3.222-.786-4.853-1.104-.562-.108-1.175-.119-1.602-.602 0-.075-.007-.153-.011-.228.771-.101 1.508.108 2.249.265 1.83.389 3.656.79 5.482 1.194.172.037.337.116.509.168.251.075.352.258.359.498.004.224.034.46-.022.669-.259.966-.083 1.972-.259 2.93-.329 1.811-.078 3.659-.441 5.466-.131.647-.09 1.339-.071 2.009.026.77-.195 1.504-.262 2.259-.026.307-.255.427-.595.352-2.612-.569-5.22-1.134-7.832-1.71-.999-.22-1.995-.452-2.994-.677-.251-.056-.397-.202-.415-.453-.027-.355-.049-.714-.049-1.07.004-1.028-.026-2.061.045-3.086.101-1.467.281-2.926.423-4.388.033-.356.056-.711.09-1.067.101-1.066.19-2.132.314-3.195.03-.258.168-.505.277-.748.026-.06.142-.123.209-.116.217.03.101.191.098.311-.004.131-.012.265-.015.396z" fill="#3e3528"/><path d="m107.819 121.683c.034-2.073.367-3.887.337-5.724-.011-.603.307-.79.879-.67.262.053.52.157.782.165 2.066.063 4.068.568 6.093.89 1.231.195 2.447.501 3.67.752.584.12.644.183.644.797 0 .18.004.359-.022.535-.24 1.631-.491 3.262-.719 4.897-.063.442-.056.894-.086 1.34-.049.669-.273.879-.95.718-.573-.135-1.149-.176-1.722-.27-1.762-.276-3.521-.576-5.291-.808-.965-.127-1.965-.131-2.908-.464-.651-.231-.688-.216-.707-.916-.015-.494 0-.984 0-1.242z" fill="#3b362a"/><path d="m154.418 127.342c-.288 1.163-.146 2.701-.438 4.193-.067.348-.049.715-.082 1.07-.071.741-.337.928-1.056.767-1.654-.37-3.296-.804-4.965-1.088-1.362-.232-2.702-.603-4.09-.67-.176-.007-.363-.03-.528-.09-.861-.307-.992-.075-.977-1.264.019-1.433 0-2.866.045-4.299.023-.711.154-1.418.251-2.125.06-.438.292-.595.763-.509.876.161 1.752.33 2.624.52 2.398.52 4.801 1.022 7.184 1.598 1.389.333 1.273.194 1.269 1.889z" fill="#463b2c"/><path d="m136.917 125.285c0 1.074.023 2.148-.007 3.222-.023.819-.341 1.073-1.097.901-2.694-.617-5.388-1.238-8.079-1.878-.52-.123-1.014-.34-1.523-.516-.389-.135-.565-.415-.569-.816 0-.224-.033-.46.026-.669.292-1.055.199-2.133.221-3.203.015-.587.105-1.156.27-1.713.116-.397.385-.584.797-.576.224 0 .449-.012.67.015 1.193.149 2.383.31 3.577.46.928.116 1.864.202 2.788.348.834.134 1.658.333 2.488.501.311.064.457.266.457.565.007 1.118 0 2.237 0 3.356-.008 0-.015 0-.023 0z" fill="#433829"/><path d="m143.088 136.49c-.067-.037-.138-.064-.213-.071.109-.064.213-.18.326-.187.74-.056 1.425.131 2.058.512l-.008.012c-.801.565-1.493.235-2.163-.266z" fill="#3e3528"/><path d="m196.971 131.354c.071-.068.146-.135.217-.202 1.081-1.246 2.716-1.366 4.112-1.946.816-.336 1.628-.954 2.631-.621.834 1.37.513 2.892.385 4.306-.247 2.769-.213 5.534-.194 8.302.007 1.265-.449 2.088-1.553 2.709-1.325.744-2.65 1.489-3.974 2.237-.494.281-1.059.681-1.617.269-.475-.351-.393-.961-.322-1.5.045-.355.041-.714.045-1.07-.082-3.906.109-7.808.139-11.71 0-.262-.042-.535.127-.774z" fill="#e0a261"/><path d="m203.745 128.62c-2.245.692-4.449 1.489-6.559 2.529-.195-.082-.521-.187-.221-.415.381-.296.842-.513 1.298-.689 2.051-.774 4.109-1.519 6.167-2.274.127-.045.251-.094.382-.12.374-.067.703.172.763.569.034.22.03.445.034.669.004.404 0 .805 0 1.209-.015 2.551.217 5.084.468 7.617.056.576.045 1.163.063 1.743.027.715-.022 1.433.187 2.133.038.127.019.265.042.4.142.902-.184 1.556-.988 2.009-.741.415-1.441.902-2.186 1.313-1.253.696-2.507 1.388-3.79 2.017-.76.37-1.572.647-2.377.912-.553.184-.883-.067-.871-.647.022-.98-.053-1.968.16-2.94.087-.389.075-.801.079-1.201.03-2.013-.03-4.033.094-6.042.116-1.83.157-3.659.187-5.492.003-.232.075-.438.288-.569.123 4.213.03 8.421-.045 12.63-.161.341-.086.704-.09 1.059-.019 2.2.236 2.387 2.156 1.429 1.803-.898 3.547-1.908 5.28-2.933.782-.46 1.055-1.04 1.017-1.979-.157-3.928-.583-7.842-.602-11.777 0-.648-.131-1.175-.939-1.16z" fill="#352f24"/><path d="m188.102 137.828c.048 1.923.247 4.153.344 6.383.052 1.197.153 2.405.221 3.61.022.445.097.887.176 1.324.138.752-.12 1.317-.76 1.714-.76.471-1.504.976-2.294 1.395-1.695.906-3.33 1.938-5.145 2.604-.419.153-.838.311-1.273.415-.415.101-.711-.134-.707-.572.008-.939-.033-1.878.109-2.813.067-.442.112-.887.127-1.332.03-1.074.049-2.148.045-3.225-.011-2.817.325-5.627.239-8.448-.003-.179.027-.355.034-.535.015-.4.202-.669.573-.827 1.197-.497 2.38-1.032 3.592-1.489 1.257-.471 2.537-.879 3.813-1.286.58-.188.868.014.894.617.03.714.008 1.433.008 2.461z" fill="#353227"/><path d="m205.361 120.578c0 .984-.015 1.968.007 2.952.011.531-.236.823-.707.999-1.965.737-3.922 1.493-5.89 2.219-.584.217-1.194.366-1.796.531-.337.09-.648-.09-.711-.423-.053-.262-.072-.531-.072-.797-.007-1.964-.037-3.928.225-5.885.086-.654.385-1.073.988-1.298.127-.048.247-.112.378-.134 1.983-.375 3.858-1.115 5.774-1.718.172-.052.333-.138.505-.172 1.19-.224 1.306.064 1.284 1.044-.023.894-.004 1.788-.004 2.682h.022z" fill="#373126"/><path d="m187.851 127.616c0 .939-.011 1.878.004 2.813.011.501-.142.804-.651 1.014-2.35.973-4.715 1.9-7.133 2.708-.976.326-1.384.131-1.395-1.006-.019-2.009.029-4.014.243-6.012.063-.599.352-.995.902-1.216.205-.082.419-.153.636-.206 1.949-.475 3.888-.999 5.759-1.736.206-.082.426-.134.643-.164.738-.105.966.09.977.857.015.984 0 1.964 0 2.948h.011z" fill="#363429"/><path d="m189.179 106.335c-.012.089-.015.175-.012.265-.995.614-1.994 1.231-2.99 1.845-1.234.546-2.357 1.287-3.472 2.024-1.98 1.313-3.918 2.682-5.872 4.029-.22.153-.43.322-.662.456-.153.09-.355.135-.494-.018-.307-.337-.73-.326-1.119-.393-4.988-.887-9.871-2.219-14.773-3.48-5.64-1.451-11.253-3-16.926-4.302-3.839-.883-7.693-1.71-11.537-2.581-1.616-.367-3.222-.778-4.831-1.179-.479-.119-.95-.265-1.455-.194-.086-.079-.172-.157-.255-.232.262-.008.524-.023.786-.023.228 0 .43-.048.58-.235.101-.116.225-.195.374-.229 3.031.382 5.939 1.336 8.921 1.942 11.522 2.342 22.805 5.649 34.177 8.59 1.474.381 2.978.655 4.449 1.051.868.236 1.269-.056 1.261-.976-.007-.895-.063-1.796.116-2.683.434-1.182-.236-2.499.453-3.647.198-.101.397-.202.595-.303.011.542.026 1.084.037 1.627.154 1.949.045 3.894-.097 5.99 2.833-1.826 5.374-3.899 8.281-5.391 1.044-.573 2.006-1.284 3.076-1.815.393-.195.756-.479 1.235-.281.049.045.097.09.146.135z" fill="#2a362c"/><path d="m175.896 106.365c.089 1.257.172 2.514-.146 3.76-.434-1.515-1.572-1.643-2.904-1.542-2.582.191-5.074-.493-7.574-.969-12.012-2.285-24.017-4.601-35.98-7.127-1.456-.306-2.171.416-2.923 1.34-.112.093-.239.172-.374.228-.206.105-.415.112-.632.037-.562-.194-1.153-.011-1.707-.108-.127-.288.03-.464.165-.632.808-1.018 1.65-2.0093 2.429-3.0494.404-.5387.86-.7108 1.504-.5724 1.448.3068 2.9.5874 4.348.868 5.407 1.055 10.815 2.1248 16.23 3.1538 5.149.98 10.301 1.953 15.462 2.866 3.484.613 6.99 1.122 10.489 1.657.527.082 1.074.064 1.609.094z" fill="#cb723c"/><path d="m114.332 96.8682c-.03-.5724-.056-1.1448-.082-1.6948.273-.2282.543-.1309.797-.0785 3.069.6397 6.133 1.2832 9.202 1.9267.176.0374.348.1122.524.1122 1.455.0037 1.223.5013.49 1.388-1.37 1.6572-2.754 3.3032-4.105 4.9722-1.463 1.811-2.964 3.591-4.3 5.503-.052.075-.108.142-.164.213-.146.18-.311.352-.554.307-.165-.034-.315-.157-.472-.239-.786-1.302-.415-2.788-.61-4.175-.299-2.118-.456-4.262-.748-6.3829-.086-.6323.041-1.2346.022-1.8519z" fill="#cb723c"/><path d="m79.2972 90.9823c-.7821-.3442-1.6241-.4377-2.4586-.5612-.449-.0673-.5388-.2357-.3405-.6397.3181-.6435.6549-1.2758.9879-1.908.1647-.3143.4378-.434.7858-.3741.5277.0935 1.059.1833 1.5829.2918 4.9957 1.0176 9.9988 2.024 14.9908 3.0603 5.7815 1.2009 11.5595 2.4317 17.3365 3.6514.262.0561.521.1384.783.187.359.0636.546.2432.538.6323-.003.3554.038.7108.06 1.07.056.2244.086.4452-.119.6173-.577.2843-1.149.0673-1.711-.0487-9.662-1.9604-19.3573-3.7486-28.9183-6.1879-.565-.1459-1.1376-.2544-1.7139-.3442-.5313-.0823-.9804.0038-1.2086.5649-.2059.131-.4079.1497-.6025-.0187z" fill="#cb723c"/><path d="m79.2983 90.9824c.1796-.015.3593-.03.5389-.0412.6586-.419 1.3134-.0823 1.9496.0412 6.7769 1.3056 13.4303 3.1351 20.1062 4.8598 3.08.7968 6.159 1.59 9.262 2.2858 1.788.4003 1.792.3779 2.32-1.2159.03-.172.063-.3441.093-.5162.075.1496.15.2955.221.4489.168.3741.348.2769.543.0225.363.6434.306 1.3805.419 2.0688.262 1.6199.419 3.2589.587 4.8939.135 1.324.24 2.652.333 3.98.034.487 0 .977 0 1.467-.385.194-.834.333-.853.883-.243-.247-.15-.599-.273-.883-.61-1.25-.427-2.63-.569-3.943-.142-1.287-.344-2.574-.359-3.876-.015-1.096-.58-1.6988-1.68-1.9121-10.613-2.0763-20.8848-5.5631-31.5198-7.5422-.4266-.0785-.9093-.0973-1.175-.5462.0075-.0561.0075-.1122 0-.1683.0224-.1011.0449-.2021.0673-.3031z" fill="#1a2c27"/><path d="m78.4769 91.2171c-.3181.0299-.6249.0224-.8832-.2058.3144-.0187.6399-.0935.8832.2058z" fill="#1a2c27"/><path d="m125.371 102.091c.153-.008.303-.011.456-.019.087.019.128.056.12.113-.004.063-.018.093-.041.093-.206.015-.4-.004-.539-.191z" fill="#2a362c"/><path d="m125.907 102.28c-.023-.071-.049-.138-.079-.206.034-.03.071-.06.105-.086.277-.127.475-.108.49.258-.093.023-.183.049-.277.071l-.116-.037z" fill="#cb723c"/><path d="m116.628 110.114c-.008.12-.079.176-.191.194.064-.063.127-.13.191-.194z" fill="#1a2c27"/><path d="m116.4 110.354c-.019.135-.09.221-.22.258.074-.086.145-.172.22-.258z" fill="#1a2c27"/><path d="m117.019 109.568c-.03.165-.123.281-.269.36.022-.173.109-.292.269-.36z" fill="#1a2c27"/><path d="m117.277 109.288c-.034.149-.12.25-.269.295.089-.097.179-.194.269-.295z" fill="#1a2c27"/><path d="m71.1686 99.6069c.0112.0859-.0075.1643-.0561.2352-.0112-.0597-.0298-.1195-.0261-.1754 0-.0187.0523-.0374.0822-.056z" fill="#1a2c27"/><path d="m116.172 110.63v.273c-.034-.064-.071-.127-.094-.194-.003-.015.06-.053.094-.079z" fill="#1a2c27"/><path d="m184.853 108.501c-2.814 1.74-5.546 3.603-8.233 5.533-.142.101-.288.225-.494.143-.153-.187-.112-.419-.082-.621.21-1.422.187-2.851.247-4.28.023-.539.064-1.07.236-1.587.262-.239.576-.437.778-.718 1.022-1.422 2.279-2.596 3.667-3.655 1.022-.782 2.006-1.612 3.009-2.417.124-.097.243-.075.337.053.34.778-.004 1.56.03 2.342-.539 1.402.157 2.596.658 3.816.21.516.468.991-.153 1.391z" fill="#e0a261"/><path d="m184.058 103.374c-.041-.823-.082-1.643.269-2.421.083-.011.161-.018.244-.018.044.041.089.086.134.127.266.647-.213 1.324.083 1.968.149.703.628 1.152 1.197 1.53.097.086.18.183.247.295.049.128.045.255-.011.378-1.276.169-1.92-.381-2.159-1.855z" fill="#69583c"/><path d="m184.611 100.684c.098.007.199.011.296.018.03.184-.064.281-.232.322-.034-.03-.071-.06-.105-.09 0-.086.012-.168.041-.25z" fill="#69583c"/><path d="m79.2348 91.4526c2.1779.2881 4.3033.8455 6.4513 1.2945 5.3474 1.1223 10.6013 2.6263 15.8849 4.0068 3.641.9502 7.305 1.7883 10.987 2.5627 1.227.2581 1.254.2581 1.381 1.5334.221 2.182.415 4.366.595 6.551.052.621.007 1.25.011 1.878-.647.105-1.239-.175-1.841-.318-3.477-.823-6.938-1.702-10.411-2.54-3.7304-.898-7.4725-1.769-11.2071-2.66-3.8207-.909-7.6376-1.833-11.462-2.746-1.6951-.404-3.394-.786-5.0892-1.1821-.3031-.0711-.4416-.3854-.2544-.6173 1.1413-1.3992 1.8822-3.0416 2.8252-4.5605.5202-.838.9954-1.6985 1.4781-2.5552.1572-.2769.3331-.5275.6474-.6473z" fill="#ecc786"/><path d="m191.007 101.982c.075.39-.168.681-.307 1.003-.123.288-.291.557-.392.849-.188.558.003.921.587 1.138 1.583.594 3.173 1.171 4.752 1.773 1.247.475 2.485.969 3.728 1.455.033.748-.109 1.504.228 2.252-.468.015-.775-.16-1.093-.295-2.264-.95-4.524-1.901-6.788-2.855-.206-.086-.4-.202-.61-.273-.932-.318-1.283-1.058-1.392-1.945-.108-.906-.022-1.785.561-2.548.191-.251.393-.49.726-.554z" fill="#efcb96"/><path d="m184.674 101.02c.078-.108.153-.213.232-.321 1.066-1.0142 2.275-1.089 3.581-.558.819.333 1.642.655 2.473.984 0 .438-.385.487-.572.704-.202.235-.423.46-.592.718-.168.258-.276.557-.411.838-.176.243-.015.569-.202.808-.513.378-1.018.138-1.508-.045-1.026-.385-2.163-.441-3.11-1.047-.311-.375-.228-.805-.146-1.22.056-.292.165-.573.251-.861z" fill="#f3e3bf"/><path d="m184.574 103.098c1.239-.101 2.324.49 3.469.804.382.105.737.307 1.149.292.112.587.206 1.175.34 1.755.083.348-.176.31-.355.378l.011-.034c-1.04-.341-2.197-.412-2.986-1.321l.007.008c-.101-.094-.194-.195-.333-.236-.714-.325-1.276-.774-1.306-1.646z" fill="#ecc690"/><path d="m189.187 104.195c-.034-.295-.068-.587.202-.808.022.292.044.584-.202.808z" fill="#ecc690"/><path d="m41.594 115.191c.1235-1.246.2432-2.492.3742-3.738.0225-.22.0861-.437.146-.654.1085-.397.2432-.49.6848-.453.2656.022.5313.071.7933.123 2.0132.419 4.0227.842 6.0359 1.265.3069.064.61.135.9131.217.247.064.3667.228.3368.49-.363 3.154-.4678 6.33-.6848 9.495-.494.385-1.0253.198-1.538.079-2.1704-.502-4.3071-1.186-6.5486-1.355-.7597-.056-1.1788-.505-1.0179-1.253.3031-1.395.2957-2.817.5015-4.22z" fill="#e0a261"/><path d="m41.5852 115.19c-.0225 1.238.1197 2.484-.2358 3.704-.0711.246-.0299.531-.0149.796.0187.416.1646.603.5463.606 2.6045.03 5.0294.958 7.5253 1.512.2582.056.5202.086.7821.131.0037.045.0112.09.015.131.0636 1.096-.0412 1.298-1.1488 1.002-1.6278-.437-3.2781-.793-4.9246-1.178-.8195-.191-1.6465-.367-2.4698-.546-.7858-.172-.913-.285-.8606-1.063.0523-.797.1833-1.586.2843-2.379.0936-.748.1872-1.497.3032-2.241.0262-.165.1309-.318.202-.479z" fill="#ca713c"/><path d="m72.0249 117.977c.1085.012.217.023.3218.03.0749.012.1422.038.2058.079 2.0058.408 4.0115.815 6.0173 1.227.1721.037.3405.127.5126.146 1.553.176 1.3435.471 1.205 1.627-.2283 1.905-.363 3.813-.5052 5.721-.0636.886-.1684 1.773-.2544 2.66-.4454.415-.9842.385-1.5156.284-1.7513-.333-3.5138-.614-5.2688-.92-.7933-.139-1.3135-.487-1.3734-1.359-.202-2.989.2732-5.952.3331-8.93.0037-.224.1384-.419.3181-.568z" fill="#e0a261"/><path d="m72.0223 117.979c0 .939 0 1.878-.0112 2.817-.0075.756 0 1.504-.1871 2.26-.146.595-.0636 1.246-.0711 1.87-.0075.85-.015 1.699 0 2.548.0112.793.0524.797.8008.924 1.8411.314 3.6784.64 5.5083.988.4902.093.9767.078 1.4669.086 0 .314.0075.628-.0075.939-.015.254-.1684.426-.4266.415-.3555-.015-.7147-.056-1.0627-.127-2.0582-.415-4.1275-.786-6.167-1.283-1.4706-.359-1.4631.067-1.3845-1.691.0748-1.65.1272-3.307.3854-4.946.0486-.311.0524-.625.0786-.935.0935-1.16.1871-2.32.2881-3.476.0374-.411.0674-.415.7896-.382z" fill="#cb743d"/><path d="m72.5528 118.091h-.1232l-.0859-.082c.0598-.06.1307-.097.2165-.105l-.0074-.004c.0074.064.0037.127 0 .191z" fill="#cb743d"/><path d="m65.5425 115.478c.2096.314.2545.647.2096 1.022-.1609 1.331-.3144 2.663-.4341 4.003-.1422 1.56-.2433 3.123-.363 4.687-.015.756-.3667 1.01-1.1151.842-1.8786-.423-3.7833-.737-5.6618-1.175-.5688-.134-1.2611-.306-1.1975-1.047.262-3.139.3406-6.293.7597-9.42 1.3209-.158 2.582.224 3.8581.433.9692.161 1.9234.412 2.8926.595.348.068.711.049 1.0702.071l-.0112-.011z" fill="#e0a261"/><path d="m57.74 114.386c0 .984.0149 1.968 0 2.952-.0038.356-.03.718-.1235 1.055-.1086.397-.1235.793-.1347 1.194-.0225.935-.0412 1.855-.2246 2.791-.3255 1.672-.0449 1.937 1.6503 2.252 1.7026.318 3.394.692 5.0892 1.062.5875.127.5838.157.958-.505.0449.666.0935 1.328-.1086 1.979-.6735.176-1.2984-.116-1.9196-.262-1.9497-.456-3.8806-.98-5.819-1.477-.5875-.15-.7596-.345-.6286-.954.1534-.704.1122-1.43.2732-2.118.2656-1.137.2245-2.301.3854-3.449.1534-1.096.0599-2.226.086-3.341.0075-.352.03-.711.1011-1.055.0337-.165.2133-.277.4116-.127z" fill="#cb733d"/><path d="m43.7351 100.699c.812-.101 1.5941.116 2.3762.258 1.8336.333 3.6598.715 5.4934 1.07.3779.071.5239.288.5014.655-.0187.311.0038.629-.0598.932-.2283 1.085-.1273 2.214-.4641 3.281-.3555.258-.7596.269-1.16.187-1.9796-.408-4.0115-.303-6.0023-.606-1.3434-.202-1.3958-.262-1.276-1.579.1272-1.411.1609-2.828.5912-4.194z" fill="#e0a261"/><path d="m43.7359 100.695c.0112.845 0 1.676-.1983 2.518-.1722.722-.0599 1.5-.2919 2.241-.1048.336.1385.598.5351.591 1.4707-.019 2.9113.348 4.3932.31.8719-.018 1.7476.255 2.6232.397.2619.041.5239.086.7896.131 0 1.141.1459 1.433-1.4332 1.145-2.2228-.408-4.4643-.801-6.7358-.913-.1347-.008-.2657-.023-.3966-.049-.1946-.041-.3031-.187-.3181-.374-.015-.221-.0075-.445.015-.666.1571-1.59.3255-3.184.4752-4.774.0337-.351.1123-.617.5464-.557z" fill="#cb723c"/><path d="m80.4121 113.337c-.0187.175-.0374.351-.0599.527-.3181.247-.6773.21-1.0291.139-2.0207-.416-4.0377-.831-6.1145-.85-.8008-.007-1.2499-.426-1.1825-1.279.1197-1.5-.2769-3.031.2395-4.508 1.0814.045 2.0881.445 3.1396.643 1.6203.299 3.2219.692 4.831 1.051.5501.124.681.277.6287.831-.0786.797-.1946 1.59-.2957 2.387-.1571.34.0225.726-.1571 1.062z" fill="#e0a261"/><path d="m72.2702 107.364c.0112 1.336.0187 2.672.03 4.007 0 .311-.0001.625.0299.936.0224.243.1796.4.4266.437.1759.026.3555.038.5314.034 2.4248-.071 4.7486.512 7.0725 1.092 0 .18.0187.359-.0075.532-.0599.456-.1983.565-.595.478-1.3022-.28-2.597-.587-3.903-.841-.958-.187-1.9272-.3-2.8926-.453-.262-.041-.5202-.101-.7746-.176-.2844-.086-.4416-.288-.4378-.591.0149-1.781.0149-3.562.0561-5.342.0075-.311.2507-.303.4603-.113z" fill="#ca733d"/><path d="m80.4238 113.335c-.0412-.367-.1385-.745.1571-1.063.0449.367.0936.737-.1571 1.063z" fill="#ca733d"/><path d="m59.3241 104.645c1.856.06 3.6747.438 5.5083.674.4491.056.9804.052 1.3022.505.2171 1.328.0375 2.663.0973 3.995.0262.61-.3255.823-.8457.719-2.1404-.431-4.2734-.917-6.4326-1.261-.3256-.053-.6174-.311-.5838-.644.116-1.152-.0636-2.319.1871-3.457.0824-.374.3069-.651.7672-.527z" fill="#e0a261"/><path d="m59.3223 104.645c-.2507.12-.464.269-.4715.583-.0075.446-.015.895-.0225 1.34-.0112.621.0262 1.246-.1871 1.852-.1085.306.0749.523.3817.568.0449.008.0898.015.131.015 1.7925.038 3.4988.573 5.2389.928.5164.105 1.0253.236 1.5904.363.2357-1.545.0112-3.019.1459-4.478.0262.037.0711.071.0749.112.1496 1.826.2507 3.651-.1273 5.462-.0075.038-.0598.064-.0935.097-.6811.068-1.3023-.228-1.9534-.355-1.7513-.337-3.4988-.726-5.2389-1.115-1.0103-.224-1.1825-.408-.9841-1.347.232-1.107.1908-2.226.2694-3.337.0599-.864.232-.954 1.2461-.696z" fill="#c8723c"/><path d="m143.099 136.489c.737-.053 1.415.389 2.163.265.58.378 1.269.356 1.908.509 1.778.423 3.57.786 5.348 1.197.849.195.872.277.763 1.212-.157 1.373-.318 2.746-.438 4.119-.213 2.399-.396 4.8-.591 7.199-.557-.461-1.216-.715-1.89-.962-2.091-.774-4.269-1.208-6.443-1.672-.131-.026-.266-.03-.401-.045-.348-.041-.748.105-1.025-.176-.318-.322.03-.666.048-1.003.019-.31.027-.624.034-.935.015-.756-.034-1.511.21-2.252.093-.284.045-.617.048-.932.008-.935 0-1.874.015-2.809.008-.711 0-1.411.187-2.122.135-.501.045-1.062.06-1.597z" fill="#e0a261"/><path d="m108.858 127.538c1.579.31 3.162.613 4.737.927 1.273.255 2.545.513 3.814.779.572.119.673.232.628.823-.093 1.294-.176 2.589-.329 3.876-.127 1.07-.15 2.139-.21 3.213-.082 1.564-.175 3.128-.261 4.688-.203.157-.427.146-.625.019-2.496-1.575-5.325-2.092-8.166-2.537-1.104-.172-1.609-.666-1.481-1.781.34-2.981.711-5.959.789-8.964.015-.647.142-1.328 1.104-1.043z" fill="#e0a261"/><path d="m108.859 127.535c-.457.037-.76.209-.745.737.015.535 0 1.074-.003 1.609-.012.666.059 1.343-.206 1.986-.049.12-.056.266-.045.397.123 1.347-.341 2.652-.292 3.992.022.587-.307 1.111-.273 1.713.045.756.097.808.819.917 2.511.366 5.018.767 7.339 1.896.557.274 1.133.479 1.53.992.041.056.168.045.255.063.003.221.029.446.007.666-.03.262-.217.393-.472.345-.613-.113-1.227-.229-1.833-.375-2.081-.501-4.158-1.021-6.234-1.526-.648-.157-1.299-.348-1.961-.408-.76-.071-.857-.239-.79-.905.105-1.063.187-2.133.348-3.188.427-2.772.876-5.544 1.048-8.346.007-.135.019-.269.041-.4.045-.247.191-.401.453-.393.352.007.722-.064 1.01.228z" fill="#cc753d"/><path d="m135.299 133.511c.363.27.595.554.539 1.085-.266 2.428-.49 4.864-.715 7.299-.138 1.504-.25 3.012-.378 4.52-.22.198-.49.209-.756.153-2.361-.497-4.692-1.1-7.035-1.676-.898-.221-1.13-.887-1.193-1.71-.116-1.44.183-2.847.28-4.265.135-1.956.502-3.89.562-5.855.011-.314.112-.613.355-.841 1.033-.128 2.017.205 3.009.374 1.437.243 2.855.583 4.284.86.345.068.704.049 1.056.068z" fill="#e0a261"/><path d="m126.956 132.218c-.03 1.246-.067 2.485-.202 3.734-.138 1.276-.34 2.555-.389 3.854-.038 1.01-.255 2.027-.228 3.056.003.18-.008.359 0 .535.026.887.119.962.954 1.149 1.605.363 3.207.752 4.808 1.141.951.232 1.894.482 2.844.725.034 1.359.03 1.373-1.22 1.059-2.814-.699-5.624-1.418-8.442-2.121-.31-.079-.437-.21-.393-.554.217-1.59.45-3.18.603-4.777.146-1.512.209-3.031.288-4.546.037-.714.015-1.429.034-2.147.026-1.007-.064-1.34 1.339-1.111z" fill="#cb723c"/><path d="m110.485 115.937c2.454.21 4.846.775 7.252 1.257.479.098.961.191 1.437.315.28.074.464.273.426.591-.243 1.99-.494 3.984-.744 5.974-.345.184-.7.101-1.044.015-2.291-.595-4.633-.916-6.964-1.298-1.856-.303-1.905-.396-1.8-2.211.071-1.201.307-2.383.314-3.591.007-.678.206-1.276 1.119-1.048z" fill="#e0a261"/><path d="m110.484 115.938c-.423.071-.775.206-.752.741.014.4 0 .8-.012 1.201-.007.49-.003.969-.157 1.451-.258.812.015 1.688-.258 2.507-.049.146.082.269.202.299.516.12 1.037.236 1.564.318 1.269.198 2.549.322 3.806.576 1.343.27 2.713.46 3.978 1.04-.034.741-.131.857-.693.771-1.979-.311-3.951-.651-5.931-.935-1.145-.165-2.301-.247-3.45-.356-.539-.052-.647-.168-.599-.632.169-1.639.326-3.274.483-4.912.03-.311.015-.625.049-.935.138-1.43.273-1.512 1.777-1.134z" fill="#cb723c"/><path d="m144.431 124.008c1.968.419 3.936.838 5.901 1.261 1.006.217 2.009.445 3.008.685.517.123.588.202.539.737-.119 1.29-.265 2.577-.408 3.868-.037.356-.097.707-.149 1.063-.509.449-1.097.329-1.654.172-2.242-.625-4.495-1.205-6.77-1.68-1.104-.232-1.609-.789-1.41-1.979.153-.921.007-1.875.074-2.81.042-.591.113-1.186.869-1.317z" fill="#e0a261"/><path d="m144.43 124.01c-.329.27-.509.599-.498 1.04.015.58 0 1.156-.007 1.736 0 .49-.03.98 0 1.47.022.356-.318.723-.09 1.022.239.314.685.378 1.078.453 2.353.448 4.658 1.084 6.964 1.728.486.135.957.172 1.444.168-.037 1.381-.037 1.388-1.4 1.067-2.469-.588-4.962-1.022-7.472-1.396-1.797-.269-1.583-.019-1.565-1.762.015-1.25.023-2.499.023-3.745 0-.67.067-1.328.265-2.046.435.063.872 0 1.258.269z" fill="#ca723c"/><path d="m127.722 120.57c1.257-.079 2.481.247 3.723.351 1.198.101 2.38.337 3.57.513.176.026.352.067.524.108.797.199.831.206.831 1.085.004 1.826-.019 3.656-.03 5.481-.546.453-1.123.15-1.665.023-2.406-.562-4.697-1.474-7.024-2.286-.64-.225-.995-.561-.842-1.283.288-1.336.071-2.788.913-4z" fill="#e0a261"/><path d="m127.73 120.57c-.21 1.448-.419 2.899-.636 4.347-.041.269.048.404.299.49 1.478.498 2.953 1.018 4.434 1.512 1.479.493 2.964.972 4.517 1.193.008.045.023.09.023.131-.042.606-.135.715-.565.617-.914-.205-1.819-.441-2.732-.643-1.826-.4-3.66-.771-5.482-1.186-1.37-.311-1.527-.18-1.243-1.691.221-1.175.229-2.391.326-3.588.022-.266.011-.535.041-.801.049-.43.187-.508.756-.441.09.011.176.037.262.056z" fill="#cb723c"/><path d="m203.75 128.622c.326-.303.741-.239 1.119-.299.318.25.191.587.183.875-.067 2.731.195 5.451.352 8.167.094 1.646.075 3.307.352 4.942.075.438-.06.801-.453 1.033-2.623 1.537-5.201 3.154-8.049 4.265-.356.138-.565.03-.55-.3.049-1.107-.101-2.229.224-3.318.023.67.038 1.339.068 2.009.011.254.236.389.471.292.206-.082.416-.172.606-.281 1.703-.98 3.395-1.971 5.105-2.937.408-.228.542-.531.542-.976-.011-2.103-.007-4.205 0-6.308 0-.666-.056-1.339.191-1.99.075-.198.052-.441.052-.666.008-1.208.012-2.417.015-3.621 0-.315.008-.629-.228-.883z" fill="#cc743d"/><path d="m179.647 138.181c2.201-1.059 4.483-1.912 6.822-2.615.554.172.446.662.378 1.006-.677 3.622.157 7.232.053 10.853-.049 1.729-.472 2.866-2.156 3.562-1.358.561-2.586 1.425-3.85 2.189-1.22.737-1.565.531-1.561-.857 0-.442-.082-.894.082-1.332.03-3.389.064-6.783.09-10.172.008-.846 0-1.691.004-2.54.045-.03.09-.064.135-.094z" fill="#e0a261"/><path d="m179.428 150.985c.018.666.033 1.336.059 2.001.012.255.24.39.468.292.165-.067.337-.131.483-.232 1.658-1.137 3.409-2.102 5.216-2.97.614-.296.831-.704.82-1.366-.03-1.874-.03-3.745-.011-5.619.007-.763-.259-1.478-.277-2.245-.038-1.608.179-3.191.355-4.781.019-.187.023-.348-.067-.509.303-.202.625-.31.984-.235.038.097.101.175.097.254-.119 2.682.232 5.346.296 8.025.041 1.87.24 3.737.397 5.6.041.487-.015.902-.461 1.16-2.548 1.474-5.04 3.057-7.791 4.153-.164.063-.336.123-.512.146-.139.018-.27-.083-.266-.225.015-1.152-.12-2.316.21-3.445z" fill="#cb733d"/><path d="m179.65 138.18-.037.086-.097.007.037-.09z" fill="#c64a3a"/><path d="m196.929 121.377c.023-1.871.03-1.852 1.793-2.32 1.242-.329 2.469-.725 3.708-1.073.423-.12.816-.363 1.28-.337.587 1.654.614 3.375.55 5.095-.023.651-.576.992-1.126 1.209-1.699.673-3.443 1.231-5.191 1.762-.771.236-1.186.03-1.115-.879.09-1.149-.097-2.312.101-3.461z" fill="#e0a261"/><path d="m196.93 121.378c.022 1.335.045 2.671.071 4.036.378.165.7.008 1.022-.097 1.437-.479 2.874-.954 4.303-1.455 1.927-.677 1.665-.603 1.613-2.623-.374-1.04-.195-2.121-.236-3.184-.004-.134.008-.269.011-.4.079-.045.15-.108.232-.135.723-.235.824-.179.827.509.012 1.702 0 3.405.027 5.103.007.475-.176.752-.607.917-2.17.842-4.337 1.694-6.503 2.54-.165.064-.337.12-.513.146-.206.03-.344-.097-.374-.288-.038-.221-.045-.445-.045-.67 0-1.208 0-2.417.007-3.625 0-.269 0-.539.169-.771z" fill="#cd7b41"/><path d="m179.418 128.629c.011-.441.015-.886.037-1.328.026-.561.329-.879.879-1.014 1.078-.265 2.152-.546 3.219-.845.98-.273 1.953-.584 2.93-.876.363 1.721-.266 3.442-.019 5.171.067.471-.367.785-.808.961-1.617.64-3.226 1.317-4.891 1.818-1.19.36-1.437.154-1.422-1.088.007-.932-.112-1.871.078-2.795z" fill="#e0a261"/><path d="m179.427 128.629c.019 1.029.026 2.062.056 3.09.019.636.206.767.853.543 1.31-.456 2.609-.939 3.911-1.414.505-.184.999-.389 1.508-.565.296-.101.438-.288.438-.591 0-.135.041-.285-.008-.401-.512-1.283.139-2.559.034-3.842-.022-.284.176-.591.269-.886.659-.259.779-.217.782.31.015 1.785.012 3.565.03 5.35.004.415-.168.662-.546.812-2.2.857-4.401 1.717-6.601 2.574-.123.048-.251.093-.382.127-.235.056-.475-.09-.479-.322-.011-1.597-.224-3.198.131-4.785z" fill="#d07d42"/><path d="m126.428 102.245c-.116-.179-.303-.22-.491-.258.33-.587.719-1.122 1.187-1.612.415-.4381.887-.6176 1.452-.4493 1.328.3963 2.694.6063 4.049.8833 2.005.411 4.015.815 6.024 1.212 2.01.4 4.019.785 6.029 1.189 2.009.405 4.008.85 6.021 1.22 2.672.49 5.336 1.003 7.997 1.56 2.047.43 4.116.767 6.17 1.149 1.796.333 3.589.673 5.385.995.348.063.711.067 1.07.071 1.168.011 2.332 0 3.499.019.779.011.857.097.891.826.019.356.037.715.056 1.07-.045 1.164-.075 2.327-.139 3.491-.037.703-.153.774-.804.621-4.58-1.066-9.131-2.256-13.677-3.468-5.456-1.452-10.89-2.982-16.387-4.269-3.839-.898-7.697-1.709-11.537-2.592-2.271-.52-4.524-1.108-6.788-1.665z" fill="#e0a261"/><path d="m186.196 104.976c1.041.337 2.088.659 2.983 1.321-.311 0-.588.052-.872.232-1.01.639-2.047 1.242-3.08 1.852-.108.063-.251.082-.374.119.153-.318.314-.617.004-.961-.607-.674-.64-1.605-1.011-2.391-.247-.524-.142-1.212.202-1.777.247.168.225.471.363.696.337.557.824.935 1.464 1.081.089.019.213-.108.321-.172z" fill="#c9743e"/><path d="m113.476 96.9114c.083.5724.18 1.1448.24 1.7209.034.3218-.18.4826-.513.4003-4.079-1.0101-8.161-2.0015-12.236-3.0378-4.5919-1.171-9.1497-2.4692-13.7862-3.4793-2.4473-.5313-4.8946-1.0513-7.3419-1.575-.0861-.1983-.2807-.3704-.1759-.6173.1198-.2731.3518-.4003.6399-.4003.7672 0 1.4894.2431 2.2266.4115 1.6951.3891 3.3753.8305 5.0705 1.2234 2.9038.6696 5.8151 1.3168 8.7414 1.893 1.7887.3517 3.57.7632 5.3626 1.1074 2.009.3853 4.004.8455 6.01 1.257 1.829.3741 3.663.7295 5.497 1.0887.086.0187.179.0075.269.0112z" fill="#dfa160"/><path d="m185.875 104.746c.161.011.266.097.333.236-.161-.011-.262-.101-.333-.236z" fill="#c9743e"/></g></svg>