<svg fill="none" viewBox="0 0 166 170" xmlns="http://www.w3.org/2000/svg" xmlns:xlink="http://www.w3.org/1999/xlink"><clipPath id="a"><path d="m0 0h135v141h-135z" transform="matrix(-.970397 -.241514 -.241514 .970397 165.062 32.6045)"/></clipPath><g clip-path="url(#a)"><path d="m72.2322 59.3835c-.8951-1.4386-1.757-2.9006-2.6929-4.313-3.8331-5.776-8.361-10.9433-13.7203-15.3745-2.7676-2.2886-5.6863-4.3557-8.9058-5.9751-2.3372-1.1748-4.7663-2.0815-7.3586-2.5154-1.8193-.3028-3.6412-.3654-5.47-.0979-2.1579.3151-4.0655 1.1652-5.7119 2.5892-1.5472 1.3375-2.5647 3.0044-3.1117 4.9635-1.0768 3.8587-.5228 7.5393 1.2501 11.0824 1.075 2.1469 2.4798 4.069 4.0734 5.8564 1.5564 1.744 3.2468 3.3531 5.0363 4.8575 2.1522 1.8082 4.3398 3.5752 6.5011 5.3743 2.2027 1.8344 4.3487 3.7319 6.3269 5.8082 3.2178 3.3778 5.9869 7.0824 8.2212 11.1744.9694 1.7729 1.7258 3.6314 2.3186 5.5605.1341.4333.0697.7377-.1997 1.0865-.8608 1.1106-1.5742 2.317-2.1816 3.5838-1.0594 2.2019-1.5878 4.5269-1.5869 6.9727-.0002 1.697.1661 3.377.5815 5.028.6587 2.618 1.9031 4.927 3.6782 6.958 2.5391 2.904 5.6367 5.05 9.1542 6.609.0947.042.2042.051.3063.072 1.8717.697 3.6963 1.529 5.6592 1.96.2617.059.4983.181.6738.393.1228.149.2772.244.4668.28 3.2819.599 6.5863.951 9.9258.914.2906-.003.5897-.013.8613-.122.2211-.091.5711-.14.3447-.533-.0651-.05-.1392-.082-.2209-.102-.2568-.023-.5184-.018-.7768-.053-.0698-.003-.1385-.002-.2062.003-.1659.016-.3325.006-.4995-.001-.0677-.003-.1327.001-.1998.005-.2024.015-.4007-.032-.6006-.045-.0676-.003-.1364-.002-.2041.003-.2051.018-.4061-.028-.6102-.042-.0698-.004-.1386-.003-.2057.001-.2798.023-.5469-.077-.8241-.092-.0736-.007-.1472-.005-.2186-.002-.3862-.016-.7447-.162-1.1198-.224-.1225-.021-.2455-.032-.369-.031-.5709.011-1.0951-.24-1.6517-.306-.0902-.013-.1805-.018-.2718-.018-1.6091-.266-3.1826-.667-4.7289-1.177-.0774-.046-.1613-.085-.2446-.117-.5773-.212-1.2095-.249-1.7644-.542-.1124-.062-.2301-.112-.35-.153-.3402-.118-.7232-.13-1.0095-.392-.8804-.553-1.864-.893-2.7914-1.349-3.2732-1.606-6.0911-3.775-8.3074-6.665-2.5006-3.26-3.4071-7.029-3.1814-11.0538.1863-3.335 1.482-6.2939 3.4641-8.9661 2.9189-3.932 6.6616-6.8455 11.1163-8.8591 2.94-1.3294 5.9961-2.3004 9.2397-2.5293 3.3015-.2327 6.5151.0717 9.5042 1.6996 4.1786 2.2784 6.4801 7.3756 5.3162 11.9694-1.3876 5.4743-5.0164 8.9113-10.1661 10.9203-4.1081 1.602-8.3189 1.627-12.5101.472-2.5484-.702-4.8317-2.047-6.8891-3.732-.3358-.2745-.6896-.733-1.1725-.4987-.522.2541-.24.8087-.2187 1.2277.0784 1.528.8528 2.755 1.8134 3.884 1.9518 2.293 4.3748 3.912 7.1759 4.993 4.6174 1.781 8.965.949 13.1544-1.328 2.0622-1.123 3.9478-2.472 5.4408-4.316 1.434-1.772 2.4965-3.73 3.0483-5.9468.212-.8517.5465-1.6547.8977-2.4512 1.0808-2.4534 1.4998-4.9897 1.0639-7.6592-.5691-3.4821-2.3414-6.2024-5.2277-8.207-2.933-2.0366-6.2701-2.6149-9.7564-2.585-.478.0038-.9592-.0069-1.4317.0573-.5504.0743-.8193-.1108-.9333-.68-.9298-4.5921-2.5755-8.9398-4.6188-13.1479-.1856-.3825-.3492-.7709-.4049-1.1984-.5235-4.032-2.0299-7.7656-3.5744-11.4836-1.6082-3.8748-3.638-7.5319-5.89-11.0669-1.8942-2.9734-4.0013-5.7975-6.0778-8.6436-1.5303-2.0965-3.016-4.2161-3.9552-6.67-1.5203-3.9711.0856-7.5163 3.3209-9.6289 3.5319-2.3046 7.4161-2.8332 11.5238-2.3335 4.5745.559 8.4926 2.5999 12.0739 5.3615 5.4927 4.2348 9.6798 9.5786 12.9565 15.6184 4.278 7.8865 6.6439 16.3562 7.3559 25.2709.295 3.6956.294 7.4131-.257 11.0777-.414 2.7444-.557 5.5219-1.053 8.246-.561 3.0916-.6972 6.1869-.557 9.3122.014.3194-.064.6297-.085.9469-.287 3.9304.159 7.7592 1.662 11.4328 1.636 3.9953 4.475 6.8563 8.433 8.5473 2.156.921 4.408 1.234 6.593-.04.344-.201.642-.268.821.204.393 1.036 1.009 1.917 1.875 2.619.133.108.183.255.145.425-.092.279-.32.427-.549.574-.053.032-.108.067-.158.104-.051.03-.099.066-.149.102-.024.014-.047.033-.071.048-.048.029-.095.06-.141.09-.024.014-.046.029-.068.044-.045.025-.091.055-.135.085 0 0-.066.042-.067.04-.045.025-.089.053-.132.08l-.065.041c-.045.023-.088.051-.132.079 0 0-.065.04-.064.038-.045.023-.088.051-.129.077 0 0-.065.041-.064.039-.045.023-.088.051-.129.077 0 0-.063.041-.064.038-.045.023-.088.049-.129.077 0 0-.063.042-.064.039-.045.023-.088.049-.129.077 0 0-.063.041-.064.039-.045.023-.088.048-.129.077 0 0-.063.041-.065.038-.044.023-.087.049-.128.077 0 0-.063.041-.065.039-.044.023-.087.048-.128.077 0 0-.063.041-.065.038-.044.023-.088.051-.129.077 0 0-.064.041-.064.039-.044.023-.088.051-.131.078 0 0-.065.041-.067.04-.048.025-.091.051-.134.081 0 0-.068.042-.07.039-.047.025-.093.054-.141.081-.023.012-.048.027-.072.041-.05.027-.097.053-.148.082-.026.014-.05.028-.076.04-.054.025-.105.055-.16.085-.031.015-.058.031-.087.046-.121.063-.243.122-.368.166-.059.017-.117.041-.174.065-.053.023-.106.051-.159.081-.024.015-.049.031-.075.043-.049.026-.096.058-.145.089-.024.014-.048.029-.072.043-.05.026-.096.056-.143.087-.024.015-.048.029-.072.044-.05.026-.099.055-.147.086-.027.014-.051.028-.075.043-.052.025-.102.054-.155.079-.025.012-.052.026-.079.037-.082.034-.163.067-.248.095-.056.016-.112.038-.166.061-.053.023-.106.051-.156.08-.027.014-.051.03-.078.044-.052.028-.103.058-.152.089-.026.014-.051.031-.077.045-.052.025-.105.055-.156.084-.026.012-.052.025-.08.039-.082.034-.163.066-.246.096-.056.015-.109.036-.163.059-.053.021-.103.049-.151.078-.025.015-.049.029-.073.043-.048.027-.096.056-.142.085-.024.015-.046.03-.07.042-.047.025-.095.052-.142.076-.025.01-.049.022-.074.032-.052.014-.103.029-.155.043-.053.012-.103.031-.152.051-.048.022-.096.046-.143.073-.024.012-.046.027-.069.04-.048.024-.093.052-.137.079l-.067.041c-.046.022-.092.047-.138.07 0 0-.072.03-.073.027-.051.012-.101.027-.152.042-.053.011-.102.031-.152.05-.049.022-.096.047-.142.074-.023.013-.045.028-.069.04-.047.022-.094.047-.141.072 0 0-.071.03-.073.027-.051.012-.101.029-.152.044-.053.009-.103.029-.15.051-.048.02-.096.045-.141.072 0 0-.067.04-.069.039-.048.025-.091.053-.137.08 0 0-.067.042-.067.04-.047.025-.092.05-.139.072l-.073.03c-.053.012-.103.029-.155.043-.053.012-.103.031-.154.053-.051.019-.1.043-.147.068-.026.009-.051.019-.076.028-.051.013-.103.029-.157.043-.053.012-.103.031-.154.051-.049.021-.098.046-.144.073-.023.012-.045.027-.069.039-.047.025-.094.05-.141.074-.026.01-.049.02-.074.03-.053.011-.103.029-.157.042-.053.012-.105.031-.154.053-.051.021-.1.043-.149.067-.026.01-.051.02-.076.029-.051.012-.103.029-.157.043-.053.012-.103.029-.152.051s-.096.046-.144.073c-.023.012-.047.027-.071.039-.049.024-.097.051-.146.075-.026.01-.051.019-.076.029-.053.012-.105.026-.158.04-.053.01-.107.024-.158.038-.053.01-.104.022-.155.034-.052.008-.101.023-.152.042-.049.015-.096.037-.141.063 0 0-.068.035-.07.032-.07.028-.145.051-.22.068-.052.01-.102.027-.149.049-.05.02-.097.042-.144.065 0 0-.073.029-.073.027-.051.012-.102.027-.152.042-.052.009-.102.026-.149.049-.048.017-.095.042-.139.065 0 0-.07.033-.07.031-.072.025-.144.041-.219.056-.052.006-.1.018-.15.033-.05.008-.101.021-.15.034-.052.007-.101.022-.149.04-.049.015-.096.037-.141.062 0 0-.068.033-.069.031-.071.028-.145.048-.219.063-.052.008-.101.021-.151.036-.05.01-.1.02-.151.032-.053.008-.102.023-.15.043-.05.017-.096.037-.143.062 0 0-.071.034-.07.032-.074.03-.152.049-.229.066-.055.009-.108.023-.162.037-.055.009-.111.023-.166.034-.055.009-.111.022-.164.036-.055.009-.111.023-.164.037-.055.009-.109.023-.165.038-.056.011-.111.025-.165.036-.056.009-.112.022-.166.036-.057.011-.113.024-.169.038-.057.008-.115.023-.171.037-.058.01-.116.025-.172.039-.06.01-.116.023-.174.038-.057.011-.116.026-.174.039-.06.01-.118.023-.174.038-.06.01-.1159.026-.1739.039-.0596.01-.1175.023-.1739.038-.0574.011-.116.026-.1739.039-.057.008-.1155.023-.1713.037-.0553.011-.1111.024-.1648.038-.0548.009-.1084.023-.16.038-.0773.017-.153.037-.2324.053-.0521.008-.101.02-.1487.038-.073.018-.1482.036-.2223.049-.0515.006-.1004.019-.1476.034-.0746.016-.1492.031-.225.042-.0515.005-.1036.013-.1541.023-.0794.007-.1578.01-.2379.011-.0542-.002-.1079.003-.1621.01-.0806.011-.1606.03-.2406.049-.0531.012-.1046.026-.1567.043-.0778.019-.1578.038-.2362.05-.0542.007-.1069.017-.1616.026-.0816.007-.1649.011-.2471.011-.0569-.001-.1127.004-.1691.01-.0849.011-.167.029-.2491.047-.0548.009-.1106.023-.1659.034-.0827.011-.1665.017-.2497.022-.057-.001-.1133.006-.1697.012-.1117.018-.2256.026-.3394.025-.0591-.001-.1171.002-.174.011-.0875.012-.174.029-.2588.049-.0574.011-.1149.022-.1729.034-.0869.011-.1734.019-.2615.024-.0596.001-.1165.01-.1745.022-.0864.017-.1729.035-.2588.05-.0585.005-.1159.016-.1728.025-.0887.007-.1746.013-.2643.016-.0596.001-.1186.009-.1777.017-.1181.016-.2374.018-.355.023-.0596.001-.1203.006-.181.012-.1208.008-.2395-.001-.3604-.011-.0601-.005-.1203-.002-.181.003-.1176.014-.2351.028-.3565.03-.0591-.001-.1176.004-.1767.012-.116.017-.232.025-.3485.025-.0591-.001-.1171.003-.1756.009-.1171.011-.2336.021-.3518.028-.0601.003-.1186.009-.1761.02-.116.016-.2336.021-.3528.023-.0596.001-.1203.007-.1788.013-.1499.015-.3003-.005-.4518-.011-.0633-.002-.1262.003-.1895.01-.1311.013-.2637.014-.3947.027-.0704.007-.1391.027-.2067.051-.4534.225-.2062.516-.0569.779.1337.233.3103.44.6311.261.1143-.065.2388-.106.3736-.107l-.0043-.001c.546-.103 1.1014-.096 1.6556-.095l.0022.001c.1587-.142.3395.039.5032-.032.1565-.152.3411.033.5064-.035.1538-.159.3395.03.5026-.038.1533-.158.3385.034.5016-.044.1517-.151.3395.039.4972-.044h.0022c.1522-.144.3358.045.4929-.045l.0118-.002c.2781-.09.5665-.084.8533-.099.1468-.159.3368.041.4908-.055l.0086.002c.1093-.091.2373-.036.3538-.055h-.0022c.1409-.172.3358.036.4881-.063l.0118-.001c.1041-.088.2352-.028.348-.059.2655-.132.5616-.074.8402-.13l.0097-.002c.1045-.09.2352-.028.349-.063.1018-.107.2351-.046.3538-.064l-.0043-.001c.2537-.158.5552-.067.8268-.149l.0215-.004c.0986-.075.2282-.009.3301-.07l.0172-.005c.0997-.079.2293-.013.3328-.071l.015-.004c.098-.082.229-.015.333-.073l.014-.004c.511-.207 1.058-.27 1.589-.395l-.002-.001c.089-.118.233-.044.342-.087.093-.102.231-.031.336-.087l.013-.004c.343-.096.754-.425.883.248l-.005-.015c.129.093.059.237.092.354l-.004-.012c.115.097.048.239.088.354l-.002-.01c.105.099.038.239.086.351l.001-.004c.094.098.028.236.083.345.225.222.376.094.491-.114.108-.193.11-.413.055-.616-.303-1.129-.357-1.277 1.173-1.823 1.438-.513 2.851-1.097 4.287-1.613.478-.171.781-.637 1.307-.704.055-.063.119-.111.208-.102l-.01.004c.294-.172.579-.365.919-.444.056-.061.12-.107.206-.106l-.008.005c.375-.177.7-.453 1.109-.558l.006-.003c.056-.054.117-.096.198-.107l-.003-.001c.052-.062.118-.105.205-.106l-.008.005c.047-.079.112-.122.208-.112l-.011.007c1.361-.8 2.721-1.605 4.062-2.437l-.01.007c.037-.084.107-.119.193-.134.222-.27.532-.422.823-.604l-.011.009c.035-.085.107-.117.188-.14.175-.207.404-.347.624-.497.499-.264.845-.71 1.266-1.064.427-.357.848-.719 1.261-1.093.201-.184.389-.215.646-.112 3.223 1.277 6.314.806 9.277-.772 2.331-1.24 4.045-3.136 5.402-5.362 1.45-2.377 2.326-4.9702 2.821-7.6991 1.21-6.6796.231-13.102-2.364-19.3311-.939-2.2587-2.112-4.3889-3.593-6.3459-.882-1.1673-1.864-2.241-3.034-3.1344-1.195-.911-2.485-1.6364-3.974-1.9435-1.488-.3065-2.902-.1247-4.224.6532-.831.4884-1.43 1.1619-1.753 2.0746-.071.2006-.228.2092-.342.0353-.146-.2204-.281-.4494-.424-.6714-.98-1.53-2.156-2.8861-3.587-4.0149-1.008-.7939-2.099-1.4428-3.334-1.8296-2.272-.711-4.453-.5131-6.535.6505-1.463.8174-2.625 1.9553-3.562 3.3334-.177.2627-.356.5226-.537.7842-.015.0214-.042.0305-.065.0477-.179-.1423-.109-.3387-.104-.5168.049-1.6376.069-3.2756.023-4.9164-.139-4.8907-.984-9.6733-2.256-14.3891-1.7421-6.4624-4.399-12.5252-8.1398-18.1034-2.6568-3.963-5.7741-7.5249-9.443-10.5945-2.2291-1.866-4.6429-3.4484-7.3062-4.6339-3.3041-1.4723-6.7607-2.194-10.383-2.0024-2.9102.1551-5.6515.9067-8.1393 2.4555-1.6022.9987-2.9008 2.2912-3.8185 3.9512-.8758 1.5841-1.1655 3.2709-.9158 5.0555.1702 1.2149.5572 2.3657 1.0601 3.4816.5698 1.2599 1.2646 2.4486 2.0587 3.5779.9912 1.4102 2.0082 2.7995 3.0273 4.1893 1.7398 2.3737 3.4416 4.772 5.0323 7.2494 3.5549 5.5364 6.3307 11.4425 8.4675 17.6508.0346.0995.0541.2044.0812.3066-.0041.0807.0417.1444.0746.2139l.0038.0123c.0845.0915.0026.237.107.3221l-.0011.0043c.0233.0717.0476.1391.0746.2049l.0032.0144c.0969.0878.0177.2317.1022.3231l-.0011.0043c.083.3547.0639.734.2434 1.0673-.1573-.2664-.1608-.6286-.492-.7837l-.0027-.0075c-.0313-.0669-.0679-.1306-.1099-.191l.001-.0043c-.0388-.0642-.0749-.13-.1116-.1937l-.0032-.0053c-.0399-.0599-.0765-.1236-.1078-.1905l-.0049-.008c-.0452-.0567-.0797-.1198-.1067-.1856l-.0065-.0107c-.0484-.053-.0835-.114-.1029-.1824z" fill="#1a2c27"/><path d="m86.2983 121.556c.0753.027.1527.047.2237.082.0424.022.0978.066.1017.105.0049.036-.0433.092-.083.114-.0682.035-.1476.061-.2233.071-.9445.136-1.894.154-2.84.066-.317-.029-.6306-.016-.9465-.049-1.0717-.114-2.1451-.241-3.2205-.286-.4474-.018-.8848-.14-1.3396-.083-.2379.029-.4953-.028-.6847-.166-.419-.307-.8772-.346-1.3615-.28-.3045.04-.5778.047-.7702-.253-.1089-.168-.3071-.197-.4855-.241-.3354-.084-.6691-.164-1.0033-.252-.4326-.115-.8898-.167-1.2626-.448-.0403-.031-.0968-.052-.1478-.058-.7188-.092-1.3395-.478-2.0183-.695-.4993-.158-.9591-.439-1.4957-.493.141.176.3554.223.5495.305 1.5697.654 3.1629 1.242 4.7988 1.713.2725.079.5728.11.8112.345-.0772.09-.1355.177-.21.247-2.2708 2.071-3.6274 4.651-4.2307 7.635-.5299 2.624-.1465 5.156.9098 7.598.6784 1.566 1.5902 2.993 2.7261 4.271 1.2351 1.394 2.5735 2.675 4.1863 3.642.0656.039.1152.106.1674.162.0161.018.0151.049.0254.081-.228.146-.4981.149-.7504.209-1.1193.269-2.1743.684-3.1452 1.301-.472.301-.9101.639-1.3067 1.031s-.7362.831-.9989 1.327c-.7906 1.498-.5757 3.092.6015 4.315.7332.759 1.6248 1.286 2.6127 1.627 3.4872 1.204 6.9815 1.206 10.4658.01 1.3176-.452 2.5198-1.118 3.5679-2.037 2.1037-1.84 3.0371-4.141 2.702-6.931-.205-1.708-.8131-3.282-1.6369-4.777-1.3199-2.392-3.0333-4.468-5.1445-6.212-.9034-.745-1.8474-1.428-3.0125-1.727-.2407-.06-.3006-.186-.2232-.414.8428-2.47 1.9637-4.79 3.7131-6.766.5969-.674 1.2321-1.309 1.9167-1.896.5833-.5 1.193-.959 1.8884-1.295-.0758-.017-.1516-.042-.2279-.048-.1504-.01-.2955.188-.4392.059-.1937-.175-.3371-.407-.3876-.662-.013-.067.163-.169.2525-.253-.6012-.354-2.074-.353-2.6232.001z" fill="#202f2b"/><path d="m111.197 117.322c-.161-.059-.315-.038-.453.053-.716.464-1.54.682-2.322.99-1.078.427-2.173.806-3.258 1.216-.273.102-.539.218-.792.357-.294.163-.353.378-.276.731.075.36.147.721.196 1.083.037.266-.064.357-.408.437-.021.379.128.725.232 1.076 1.797 6.117 3.584 12.236 5.712 18.251.819 2.32 1.651 4.636 2.473 6.956.106.299.2.602.288.908.407 1.399.927 2.757 1.526 4.086.34.752.822 1.391 1.493 1.917 1.33 1.046 2.826 1.778 4.379 2.405 1.913.772 3.902 1.21 5.967 1.265.692.02 1.38-.013 2.065-.113.554-.081 1.094-.214 1.613-.421 2.135-.853 3.199-2.756 2.802-5.018-.201-1.148-.727-2.154-1.439-3.061-1.542-1.96-3.538-3.257-5.938-3.925-.713-.198-1.453-.316-2.182-.447-.498-.09-1.001-.04-1.531.08-.073-1-.241-1.932-.429-2.863-.956-4.733-2.385-9.322-4.242-13.782-1.049-2.517-2.191-4.992-3.495-7.391-.772-1.42-1.566-2.826-2.531-4.128-.126-.172-.098-.258.094-.378.154-.098.356-.119.464-.287z" fill="#202f2b"/><path d="m118.273 113.37c-.137-.016-.254.039-.367.109-1.142.683-2.287 1.367-3.43 2.052-.113.068-.217.146-.265.275 1.452-.65 2.809-1.455 4.062-2.436z" fill="#202f2b"/><path d="m101.969 120.759c-.572-.031-1.116.045-1.589.395.557-.027 1.088-.152 1.589-.395z" fill="#202f2b"/><path d="m91.3746 122.356c-.5648-.161-1.1169-.135-1.6567.099.5565.039 1.1102.042 1.6567-.099z" fill="#202f2b"/><path d="m113.617 116.122c-.488-.046-.811.232-1.109.558.416-.094.782-.289 1.109-.558z" fill="#202f2b"/><path d="m103.545 120.826c.022-.503-.066-.589-.493-.488-.16.037-.298.098-.391.241.098-.007.206.008.292-.027.301-.118.465.029.592.274z" fill="#202f2b"/><path d="m119.281 112.638c-.383.054-.697.206-.824.606.332-.124.612-.323.824-.606z" fill="#202f2b"/><path d="m112.312 116.78c-.412-.068-.692.132-.918.444.351-.06.655-.209.918-.444z" fill="#202f2b"/><path d="m97.7796 121.66c-.3037-.11-.5883-.094-.8408.132.2961.057.5747.002.8408-.132z" fill="#202f2b"/><path d="m99.3195 121.381c-.3021-.098-.5856-.086-.8274.151.2912.041.5683-.008.8274-.151z" fill="#202f2b"/><path d="m120.078 112.009c-.305.044-.548.168-.624.499.273-.087.477-.258.624-.499z" fill="#202f2b"/><path d="m95.2464 122.021c-.3049-.132-.5878-.105-.8533.099.2956.069.578.026.8533-.099z" fill="#202f2b"/><path d="m94.3808 122.12c-.172-.052-.3435-.133-.4929.046.1725.068.3374.066.4929-.046z" fill="#202f2b"/><path d="m95.7326 121.967c-.1725-.05-.3494-.137-.4913.057.1736.064.339.06.4913-.057z" fill="#202f2b"/><path d="m93.8878 122.166c-.173-.056-.3483-.141-.4977.047.1747.068.3428.072.4977-.047z" fill="#202f2b"/><path d="m93.387 122.209c-.1741-.062-.351-.149-.5021.045.1753.067.3445.075.5021-.045z" fill="#202f2b"/><path d="m96.5842 121.85c-.1725-.05-.3494-.137-.4886.064.1747.06.339.051.4886-.064z" fill="#202f2b"/><path d="m92.8864 122.251c-.1758-.065-.3516-.156-.5037.042.1752.067.346.077.5037-.042z" fill="#202f2b"/><path d="m92.3861 122.293c-.1753-.067-.3516-.156-.507.037.1753.066.3445.084.507-.037z" fill="#202f2b"/><path d="m91.8787 122.326c-.1736-.064-.3483-.15-.5037.034.1725.068.3439.085.5037-.034z" fill="#202f2b"/><path d="m98.1391 121.595c-.1306-.053-.252-.061-.349.063.1296.048.2488.046.349-.063z" fill="#202f2b"/><path d="m98.4973 121.531c-.135-.063-.2596-.075-.3544.067.1317.048.2536.045.3544-.067z" fill="#202f2b"/><path d="m96.9435 121.791c-.1279-.054-.2515-.062-.35.059.129.05.2482.048.35-.059z" fill="#202f2b"/><path d="m99.6716 121.307c-.123-.038-.2385-.042-.3301.07.1252.047.2353.026.3301-.07z" fill="#202f2b"/><path d="m100.015 121.233c-.1244-.04-.2426-.042-.3326.072.1258.045.2391.03.3326-.072z" fill="#202f2b"/><path d="m100.367 121.157c-.125-.04-.243-.043-.334.074.128.045.24.027.334-.074z" fill="#202f2b"/><path d="m103.884 122.192c.04-.134.041-.256-.085-.347-.042.133-.022.252.085.347z" fill="#202f2b"/><path d="m103.796 121.852c.044-.135.051-.26-.087-.351-.04.133-.024.253.087.351z" fill="#202f2b"/><path d="m96.0992 121.911c-.1291-.059-.2521-.069-.3533.053.1284.052.2487.055.3533-.053z" fill="#202f2b"/><path d="m103.716 121.508c.047-.136.057-.265-.088-.354-.04.136-.022.256.088.354z" fill="#202f2b"/><path d="m102.312 120.668c-.137-.047-.262-.058-.343.092.134.043.253.022.343-.092z" fill="#202f2b"/><path d="m102.648 120.582c-.131-.04-.25-.04-.336.087.13.043.244.017.336-.087z" fill="#202f2b"/><path d="m103.628 121.166c.053-.139.065-.268-.092-.355-.041.137-.021.258.092.355z" fill="#202f2b"/><path d="m111.406 117.22c-.092-.014-.162.021-.208.102.097.025.169-.008.208-.102z" fill="#202f2b"/><path d="m112.516 116.675c-.092-.009-.16.026-.207.105.097.022.167-.011.207-.105z" fill="#202f2b"/><path d="m113.828 116.011c-.088-.004-.154.032-.198.107.096.02.163-.014.198-.107z" fill="#202f2b"/><path d="m114.023 115.907c-.093-.009-.16.029-.205.108.098.02.168-.013.205-.108z" fill="#202f2b"/><path d="m114.227 115.8c-.097-.015-.166.024-.209.112.101.018.169-.018.209-.112z" fill="#202f2b"/><path d="m118.461 113.243c-.094.002-.159.045-.193.134.102.01.165-.039.193-.134z" fill="#202f2b"/><path d="m119.453 112.507c-.093.006-.157.052-.188.139.102.005.164-.043.188-.139z" fill="#202f2b"/><path d="m86.2999 121.555c.8744-.037 1.7481-.089 2.6232-.001l.0032.005c.1647-.093.3423.074.5065-.026l.0064.002c.214-.136.4396.132.6525-.018l-.0053.004c.1641-.091.345.081.508-.033.162-.101.3423.074.5027-.029l.0606-.015.0581.024c.124-.031.2584.016.3801-.042l.065-.013.0634.02c.1197-.041.2509.01.3711-.042l.0692-.012.0677.021c.1696-.085.3569.089.5247-.035l-.0053.003c.163-.096.3482.087.508-.042l-.0054.004c.1631-.096.3493.091.5091-.046l-.0081.004c.1143-.046.2433.004.356-.054l.0118-.002c.1528-.118.3369.068.493-.045h.0021c.1035-.067.2266-.011.3345-.05.0472-.025.0956-.027.1445-.003.1186-.046.2508.01.3683-.049l.0612-.017.0591.019c.1267-.032.2643.021.3839-.056.1084-.06.2374 0 .3447-.056l.0618-.018.0623.015c.1262-.03.2659.023.3839-.056.11-.057.2395 0 .349-.064l.0096-.002c.1009-.075.2267-.011.3324-.06.0407-.026.0848-.029.1273-.007.125-.035.2659.023.3812-.064l-.0054.003c.1116-.054.2455.004.3527-.069.1078-.066.239-.007.3458-.069l.0075-.002c.0992-.078.2304-.009.3361-.067l.0531-.02.0559.013c.087.008.1605-.03.2356-.066.0386-.027.0757-.029.116-.007.0838.002.1552-.037.2287-.066.0386-.027.0783-.031.1208-.009.0838.003.1513-.039.2263-.066.039-.027.081-.03.124-.01.081.002.149-.04.224-.067.039-.027.078-.031.121-.011.083 0 .156-.036.228-.07.036-.028.076-.031.117-.01.085.003.159-.035.234-.071l.053-.021.056.014c.09.006.167-.036.243-.076l.012-.004c.098-.082.236-.012.336-.082l.004.001c.103-.075.243-.006.344-.09h-.002c.108-.057.249.01.35-.086l-.011.007c.066-.027.133-.056.197-.085.034-.028.07-.033.108-.012.094.007.171-.035.244-.082l.004.001c.104-.077.246-.005.343-.095l-.008.005c.064-.027.129-.056.194-.081.034-.028.073-.034.113-.015.093.005.169-.035.243-.085h.002c.103-.074.247-.002.344-.096l-.009.007c.073-.018.133-.067.203-.09l.015-.006c.095-.087.236-.011.332-.094l-.006.003c.065-.032.13-.061.197-.085l.023-.008c.088-.096.23-.018.325-.096.06-.031.122-.059.185-.084.035-.03.073-.034.114-.017.095.005.171-.037.244-.089.105-.065.251.008.344-.101l-.014.01c.083-.009.147-.057.209-.105h-.002c.063-.032.129-.061.195-.086l.022-.008c.088-.096.235-.016.326-.105l-.009.005c.068-.031.134-.06.201-.091l.015-.006c.093-.088.242-.008.331-.108l-.011.008c.078-.014.14-.06.205-.101l.002.001c.058-.04.122-.07.191-.087l.028-.011c.085-.104.233-.019.321-.109l-.008.005c.071-.021.133-.067.202-.097l.01-.005c.096-.083.248-.002.334-.112l-.014.01c.083-.011.148-.054.21-.107l-.006.003c.072-.023.134-.069.2-.097l.011-.005c.056-.043.116-.073.183-.095l.023-.01c.089-.099.235-.017.324-.108l-.009.007c.076-.022.138-.066.202-.107.064-.036.128-.07.193-.102l.012-.006c.095-.085.246-.005.334-.11l-.014.01c.081-.014.146-.057.207-.11l-.005.004c.072-.025.136-.069.201-.109.063-.037.127-.071.194-.102l.01-.004c.094-.086.246-.005.333-.111l-.014.011c.081-.014.149-.057.209-.112l-.008.005c.076-.022.141-.065.201-.114h-.002c.068-.024.131-.068.196-.101l.008-.003c.167-.095.372-.101.529-.218l-.011.008c.08-.019.147-.061.205-.117l-.008.005c.076-.022.141-.065.201-.114h-.002c.068-.024.131-.068.197-.101l.007-.003c.166-.097.376-.097.529-.225l-.012.011c.083-.014.151-.056.208-.119l-.011.006c.08-.018.147-.061.205-.117l-.008.005c.077-.019.141-.063.204-.113l-.003-.001c.071-.025.133-.066.198-.105l.002.001c.062-.039.125-.074.192-.103l.013-.005c.235-.121.489-.204.713-.345l-.011.01c.085-.013.152-.053.205-.119l-.011.006c.084-.015.152-.057.206-.119l-.011.006c.08-.018.148-.061.205-.117l-.008.005c.078-.021.144-.064.203-.118l-.008.005c.074-.024.141-.065.2-.118l-.005.003c.073-.027.138-.068.198-.116l-.001.004c.069-.031.133-.069.194-.118h-.003c.069-.029.134-.069.195-.113.069-.031.134-.069.195-.115.067-.031.134-.071.193-.116.068-.031.134-.069.194-.115.069-.031.135-.069.195-.118h-.002c.071-.028.138-.066.196-.117l-.005.003c.073-.029.14-.067.197-.121l-.009.004c.076-.026.144-.064.2-.123l-.008.005c.077-.024.146-.064.2-.125l-.011.006c.081-.02.15-.06.203-.124l-.011.006c.084-.018.151-.058.203-.127l-.015.006c.281-.194.577-.366.832-.595.035-.039.068-.081.105-.117.265-.268.275-.309.025-.469-1.06-.675-1.669-1.684-2.098-2.815-.255-.672-.234-.729-.922-.323-.998.591-2.067.952-3.245.933-.184-.002-.372-.001-.554-.031-1.834-.286-3.542-.918-5.093-1.942-1.425-.941-2.694-2.059-3.771-3.391-.976-1.206-1.701-2.548-2.296-3.973-.812-1.9473-1.285-3.9716-1.464-6.0681-.05-.5805-.121-1.1572-.182-1.736-.13-1.2684-.092-2.5315.141-3.7871.043-.2279.024-.4734.005-.7077-.161-2.1399-.079-4.276.122-6.4052.068-.7329.169-1.4669.326-2.1913.229-1.0587.314-2.1398.415-3.2189.108-1.1277.199-2.257.405-3.3762.484-2.6539.685-5.3309.72-8.0288.04-3.0713-.082-6.1286-.53-9.1694-.581-3.9325-1.466-7.7956-2.7093-11.5773-.9352-2.846-2.0635-5.6129-3.4108-8.2888-1.1942-2.3651-2.5524-4.6393-4.0582-6.8251-1.5225-2.2105-3.2214-4.2718-5.0709-6.2137-2.3141-2.4325-4.8484-4.5949-7.7202-6.3549-1.2912-.7918-2.6536-1.4536-4.0529-2.0222-1.2541-.5099-2.5536-.9106-3.891-1.1411-3.2919-.5671-6.5504-.5259-9.7389.5916-1.5178.5313-2.9159 1.2786-4.1426 2.3095-1.6341 1.3749-2.738 3.0681-3.0095 5.232-.1453 1.1523.0493 2.2688.3868 3.3618.4953 1.6049 1.2746 3.0782 2.1976 4.4782 1.4154 2.1452 2.9907 4.1803 4.4952 6.2613 2.3163 3.2034 4.4781 6.5047 6.3996 9.9553.9526 1.7119 1.7926 3.4821 2.5891 5.271 1.1322 2.5406 2.1533 5.124 2.9608 7.786.4468 1.4701.8355 2.953 1.0117 4.483.0547.4772.2076.9175.4207 1.3546 1.6076 3.3179 2.9752 6.7283 3.9602 10.2821.3101 1.1202.6192 2.2447.7479 3.4061.0372.3365.1174.3997.4702.367 1.242-.1112 2.4907-.1663 3.7337-.0706 1.5632.1209 3.0987.3804 4.5999.879 1.2485.413 2.4184.9586 3.4749 1.7306 2.9102 2.1287 4.6579 4.9474 5.0791 8.5472.2641 2.2587-.0825 4.4221-.9622 6.5074-.2667.6313-.5334 1.2625-.7957 1.8949-.0593.1466-.1111.2996-.1339.4552-.2486 1.5675-.9358 2.9626-1.6875 4.3316-1.1429 2.079-2.7587 3.738-4.6926 5.088-1.8342 1.28-3.8042 2.298-5.9652 2.938-1.8035.533-3.6351.729-5.5072.574-1.9903-.166-3.8366-.809-5.5857-1.733-1.9163-1.013-3.6447-2.277-5.049-3.945-.6165-.733-1.1922-1.492-1.5459-2.391-.2139-.544-.3826-1.095-.3409-1.694.0146-.205-.0514-.417-.0722-.627-.0253-.2562.1801-.4028.4108-.2749.2065.115.398.2629.5826.4109 1.2196.987 2.4955 1.887 3.9112 2.582 1.4543.714 2.9375 1.34 4.5355 1.679.8887.189 1.7874.229 2.6818.313.6334.06 1.2715.064 1.9085.082 2.5137.071 4.8967-.515 7.2058-1.438 1.0594-.423 2.0771-.935 3.0388-1.553 1.762-1.127 3.2312-2.5542 4.4533-4.2452.7315-1.0132 1.3609-2.0837 1.7929-3.251.4401-1.1903.7511-2.4218.8-3.7004.0566-1.438-.1092-2.8541-.589-4.2188-1.0061-2.8546-2.8904-4.9688-5.582-6.3431-1.4259-.7276-2.95-1.1614-4.5499-1.3551-1.1367-.1375-2.2675-.2258-3.4088-.1985-1.8142.0439-3.5946.3189-5.3413.7886-1.7956.4825-3.5522 1.0747-5.2397 1.8568-2.0256.9389-3.9417 2.0527-5.7129 3.4185-1.7711 1.3658-3.3727 2.8942-4.7676 4.6376-1.11 1.3872-2.087 2.8643-2.813 4.4879-.9494 2.127-1.4286 4.3552-1.3721 6.6967.0588 2.405.4612 4.732 1.4648 6.936.8089 1.776 1.9218 3.348 3.2884 4.745 2.1568 2.203 4.6424 3.946 7.4402 5.242.5747.268 1.1665.504 1.7461.762.1682.076.3199.182.4818.275.3009.295.7727.16 1.0853.426.0903.023.1784.045.2681.069.5562.389 1.2843.27 1.8533.625l.0649-.004.056.032c1.6167.557 3.2686.973 4.9594 1.232l.0623-.003.0532.034c.6165-.055 1.155.367 1.7768.281.0903.023.1806.045.2735.066.4526-.085.8492.284 1.305.159l-.0081.005c.3355-.11.6369.219.9739.076l-.0075.003c.2785-.11.5364.174.8176.044.2768-.122.5358.177.8127.037l-.0022-.001c.2205-.106.4375.122.6585.014l.0097-.002c.272-.139.5315.175.8046.023l-.0043-.001z" fill="#ca5079"/><path d="m59.4703 88.526c.1382-.152.2663-.2814.3852-.42 1.79-2.111 3.8481-3.9235 6.1565-5.4578 2.7793-1.8488 5.7923-3.1873 9.0016-4.1042.8675-.2477 1.7425-.4617 2.6283-.6367.1294-.0246.2615-.0508.386-.0925.1465-.0476.1946-.1674.1739-.3135-.0153-.1038-.0445-.2065-.0694-.3081-.7376-2.8423-1.5239-5.6718-2.6248-8.4023-.8018-1.9879-1.668-3.9465-2.6388-5.8606-1.1019-2.1762-2.3078-4.292-3.6318-6.3372-1.9759-3.0483-4.1503-5.9505-6.5488-8.6858-2.3824-2.7177-4.9614-5.232-7.7586-7.5212-2.5712-2.1056-5.2672-4.031-8.2362-5.5471-1.0367-.5307-2.1075-.9881-3.1928-1.415-1.3433-.5274-2.7261-.9057-4.1381-1.1389-2.4602-.4055-4.9222-.4275-7.297.4654-2.5583.9608-4.3716 2.7069-5.448 5.225-.682 1.5937-.8369 3.2618-.8236 4.9603.0161 2.0446.5621 3.9689 1.4178 5.8135 1.0689 2.2998 2.5394 4.3338 4.2245 6.2212 1.2189 1.3668 2.5406 2.632 3.9053 3.8534 1.8597 1.6627 3.8239 3.1991 5.7516 4.781 3.2432 2.6615 6.4216 5.3909 9.2115 8.5349 1.5155 1.7066 2.905 3.5067 4.1969 5.3872 1.0069 1.4663 1.9023 2.9958 2.7145 4.575.9119 1.7745 1.6081 3.6271 1.9673 5.5958.0506.2739.0378.5821.2864.8303z" fill="#ca5079"/><path d="m123.648 93.0362c.551-2.1308.797-4.4873.86-6.869.1-3.7748-.336-7.4917-1.325-11.1397-.716-2.6438-1.715-5.1694-3.243-7.4677-1.221-1.8354-2.727-3.3783-4.665-4.4696-2.685-1.5092-5.607-1.3161-8.078.5119-1.597 1.1818-2.666 2.7701-3.46 4.5564-.42.9452-.671 1.9371-.825 2.9669-.26 1.7237-.538 3.4473-1.026 5.1234-.357 1.2246-.502 2.4839-.587 3.7443-.125 1.8413-.201 3.688-.125 5.5364.154 3.7084.893 7.2895 2.382 10.7004.764 1.7515 1.727 3.3955 3.001 4.8421 1.209 1.371 2.621 2.493 4.333 3.155 1.884.73 3.788.709 5.647-.137 1.225-.557 2.247-1.37 3.099-2.41 1.08-1.32 1.905-2.7827 2.589-4.3373.585-1.3358 1.031-2.7134 1.423-4.3087z" fill="#ca5079"/><path d="m139.303 97.203c.885-3.3269 1.038-6.7112.696-10.1275-.367-3.6613-1.362-7.1563-2.813-10.5352-.744-1.7327-1.671-3.3654-2.733-4.9206-1.097-1.6071-2.372-3.0536-4.014-4.1417-.866-.5725-1.77-1.0679-2.797-1.2984-1.713-.3831-3.266-.0311-4.651 1.0239-.401.3071-.692.7233-.968 1.1454-.133.2033-.129.3884-.029.5949.208.429.422.8527.617 1.2876.926 2.0597 1.594 4.1985 2.066 6.4042.281 1.3197.512 2.6475.66 3.9866.295 2.6572.35 5.3181.095 7.9838-.184 1.9222-.435 3.8299-.988 5.683-.787 2.6401-1.793 5.1871-3.467 7.418-.461.615-.95 1.204-1.529 1.715-.251.219-.344.448-.19.766.964 2.021 2.323 3.68 4.438 4.574 1.606.68 3.294.752 5.003.439 2.408-.439 4.416-1.599 6.105-3.33 1.397-1.434 2.477-3.086 3.277-4.916.254-.58.521-1.1563.714-1.756.21-.6521.342-1.3283.508-1.996z" fill="#ca5079"/><g fill="#202f2b"><path d="m78.7734 120.823c-.561-.13-1.123-.257-1.6841-.396-1.094-.272-2.185-.558-3.2753-.836.0632.168.2057.229.3647.268 1.3821.344 2.7664.689 4.1486 1.033.159.039.3116.05.4461-.069z"/><path d="m73.696 119.563c-.5748-.331-1.2233-.45-1.8532-.625.0621.164.1971.227.3524.263.4997.12.9995.24 1.4987.362z"/><path d="m80.6641 121.138c-.5852-.135-1.1651-.308-1.7768-.281.446.115.8942.231 1.3402.347.1548.039.3031.048.4344-.067z"/><path d="m82.2472 121.358c-.4262-.122-.8503-.262-1.305-.159.3192.084.6363.168.9566.247.1311.033.2497.006.3484-.088z"/><path d="m119.633 111.722c-.327.13-.633.287-.833.595.373-.067.683-.221.833-.595z"/><path d="m71.5769 118.87c-.3067-.281-.6973-.353-1.0853-.427.0513.124.1455.204.2745.236.2687.067.5411.128.8108.191z"/><path d="m83.2091 121.438c-.3202-.071-.6353-.235-.9739-.077.2037.053.4068.108.6105.161.1354.034.2589.015.3634-.084z"/><path d="m115.344 114.386c-.293.004-.515.151-.714.345.317.047.545-.09.714-.345z"/><path d="m86.3047 121.556c-.267-.046-.5331-.151-.8046-.023.1504.037.2988.074.4492.111.1333.034.253.011.3549-.086z"/><path d="m84.8359 121.519c-.2691-.047-.5347-.181-.8132-.035.1505.038.302.08.4525.117.1333.034.2562.017.3586-.083z"/><path d="m84.0223 121.486c-.2703-.06-.5359-.195-.8175-.044.2718.045.5322.255.8175.044z"/><path d="m112.531 115.813c-.212-.016-.391.058-.529.219.23.05.41-.007.529-.219z"/><path d="m90.0938 121.515c-.2193-.037-.4375-.123-.6521.015.2176.033.4398.195.6521-.015z"/><path d="m113.648 115.269c-.214-.018-.389.062-.528.225.229.05.414-.006.528-.225z"/><path d="m85.4922 121.534c-.2198-.034-.4354-.158-.6591-.012.2193.046.4355.195.6591.012z"/><path d="m92.7573 121.362c-.18-.056-.3573-.068-.5246.036.1784.053.3617.142.5246-.036z"/><path d="m93.2575 121.322c-.1746-.05-.3482-.077-.508.042.1747.051.3526.133.508-.042z"/><path d="m93.7655 121.281c-.1752-.048-.3488-.076-.5091.046.1763.053.3542.136.5091-.046z"/><path d="m90.5938 121.485c-.172-.042-.345-.081-.5081.033.1742.052.3478.134.5081-.033z"/><path d="m94.6094 121.183c-.1698-.043-.3369-.068-.493.045.1687.038.3413.115.493-.045z"/><path d="m89.4291 121.533c-.1725-.05-.3434-.097-.5064.026.172.052.3461.131.5064-.026z"/><path d="m91.0938 121.456c-.172-.043-.3418-.076-.5027.029.1709.048.3435.125.5027-.029z"/><path d="m95.9608 121.023c-.1381-.041-.267-.028-.3839.057.1381.05.2719.072.3839-.057z"/><path d="m95.4607 121.078c-.1312-.042-.252-.024-.3662.05.1301.046.2574.057.3662-.05z"/><path d="m96.3044 120.967c-.1247-.04-.2412-.03-.3452.057.1252.038.2444.045.3452-.057z"/><path d="m96.8124 120.906c-.1365-.039-.267-.028-.3844.058.1403.051.2735.075.3844-.058z"/><path d="m111.414 116.349c-.132-.029-.245.004-.333.11.132.026.255.02.333-.11z"/><path d="m94.945 121.131c-.1204-.039-.2332-.035-.3345.051.1193.034.2358.043.3345-.051z"/><path d="m97.1562 120.843c-.1268-.032-.2476-.032-.3489.063.1273.038.2493.044.3489-.063z"/><path d="m97.4998 120.781c-.1209-.037-.2342-.031-.3323.061.1203.029.2353.035.3323-.061z"/><path d="m110.484 116.772c-.132-.028-.247.003-.333.111.133.026.253.019.333-.111z"/><path d="m98.0075 120.707c-.1392-.046-.2654-.016-.3812.065.1403.05.2751.068.3812-.065z"/><path d="m94.1093 121.23c-.1258-.036-.2499-.042-.356.055.1279.045.2515.053.356-.055z"/><path d="m109.75 117.091c-.129-.023-.24.001-.326.107.128.021.246.014.326-.107z"/><path d="m98.3593 120.642c-.1301-.037-.2482-.021-.3527.069.1311.042.253.047.3527-.069z"/><path d="m98.7031 120.575c-.128-.036-.2439-.019-.3458.069.1279.036.2482.039.3458-.069z"/><path d="m108.82 117.499c-.134-.029-.246.007-.334.112.133.027.255.023.334-.112z"/><path d="m108.281 117.71c-.128-.025-.238.004-.321.109.125.017.242.008.321-.109z"/><path d="m99.0468 120.505c-.1236-.035-.2369-.02-.3361.067.1225.03.2386.032.3361-.067z"/><path d="m107.547 118.007c-.132-.029-.242.008-.331.108.131.024.252.018.331-.108z"/><path d="m107.008 118.208c-.129-.025-.237.007-.325.105.127.021.243.013.325-.105z"/><path d="m92.093 121.391c-.1316-.049-.2546-.032-.371.041.1295.048.259.069.371-.041z"/><path d="m106.273 118.501c-.133-.031-.251-.006-.344.101.135.033.26.035.344-.101z"/><path d="m91.593 121.424c-.1338-.049-.2605-.035-.3802.042.1334.051.2645.074.3802-.042z"/><path d="m105.391 118.794c-.124-.024-.237-.002-.326.096.126.02.241.015.326-.096z"/><path d="m104.844 118.983c-.128-.027-.243-.005-.332.095.126.025.246.02.332-.095z"/><path d="m104.305 119.167c-.132-.031-.248-.005-.343.094.133.033.254.032.343-.094z"/><path d="m101.836 119.876c-.126-.027-.241-.012-.336.082.126.027.245.027.336-.082z"/><path d="m103.422 119.438c-.13-.029-.246-.004-.343.092.132.033.253.032.343-.092z"/><path d="m102.18 119.79c-.13-.028-.248-.012-.344.087.131.033.252.033.344-.087z"/><path d="m102.531 119.704c-.133-.033-.252-.015-.35.088.134.04.259.042.35-.088z"/><path d="m102.719 119.626c-.085-.017-.153.007-.197.085.066-.029.132-.056.197-.085z"/><path d="m103.07 119.532c-.082.028-.162.055-.244.083.098.019.18-.008.244-.083z"/><path d="m103.602 119.362c-.083-.016-.149.009-.194.082.064-.028.13-.054.194-.082z"/><path d="m103.961 119.263c-.08.028-.163.057-.243.085.097.017.178-.008.243-.085z"/><path d="m101.484 119.962c-.081.025-.161.051-.242.076.095.019.176-.004.242-.076z"/><path d="m104.5 119.083c-.086-.01-.155.016-.203.09.067-.031.136-.059.203-.09z"/><path d="m101.133 120.046c-.077.024-.156.048-.233.072.092.018.17-.004.233-.072z"/><path d="m105.039 118.899c-.085-.014-.151.013-.197.085.067-.028.131-.058.197-.085z"/><path d="m105.57 118.71c-.082-.016-.143.014-.185.086.061-.028.123-.056.185-.086z"/><path d="m100.781 120.126c-.077.024-.151.047-.227.071.089.017.165-.005.227-.071z"/><path d="m105.93 118.603c-.081.029-.161.059-.242.089.099.018.181-.011.242-.089z"/><path d="m106.469 118.407c-.092-.009-.163.021-.209.105.09.007.16-.028.209-.105z"/><path d="m107.203 118.122c-.087-.015-.156.013-.201.091.068-.031.135-.062.201-.091z"/><path d="m100.086 120.284c-.074.023-.1504.045-.2266.067.0871.017.1626-.003.2266-.067z"/><path d="m99.7422 120.36c-.0762.022-.1525.044-.2287.066.0887.02.1649-.002.2287-.066z"/><path d="m107.742 117.915c-.089-.009-.16.021-.205.101.067-.033.138-.068.205-.101z"/><path d="m99.3984 120.433c-.0789.023-.1572.045-.2361.068.0908.02.1691-.001.2361-.068z"/><path d="m107.938 117.827c-.082-.013-.146.016-.19.085.064-.03.126-.058.19-.085z"/><path d="m108.477 117.616c-.087-.008-.155.023-.203.098.068-.034.135-.065.203-.098z"/><path d="m109.016 117.403c-.094-.009-.166.023-.21.107.092.007.161-.03.21-.107z"/><path d="m109.211 117.308c-.085-.006-.154.023-.2.098.067-.034.135-.067.2-.098z"/><path d="m109.406 117.208c-.084-.012-.143.024-.183.095.06-.032.123-.062.183-.095z"/><path d="m109.945 116.991c-.088-.004-.158.029-.202.107.068-.036.134-.071.202-.107z"/><path d="m110.141 116.89c-.087-.011-.151.026-.192.102.063-.034.128-.068.192-.102z"/><path d="m110.68 116.673c-.093-.005-.165.027-.208.11.09.004.159-.034.208-.11z"/><path d="m110.875 116.567c-.089-.001-.156.032-.201.11.066-.036.133-.074.201-.11z"/><path d="m111.07 116.466c-.088-.011-.152.023-.194.101.066-.033.129-.067.194-.101z"/><path d="m111.602 116.245c-.093-.005-.165.03-.209.114.092.005.161-.035.209-.114z"/><path d="m111.797 116.136c-.09-.005-.159.033-.202.113.067-.038.135-.075.202-.113z"/><path d="m111.992 116.036c-.087-.006-.153.028-.197.103.066-.033.132-.069.197-.103z"/><path d="m112.727 115.708c-.093-.005-.164.032-.205.117.091 0 .16-.037.205-.117z"/><path d="m112.922 115.599c-.093-.005-.161.03-.202.113.067-.038.135-.075.202-.113z"/><path d="m113.109 115.497c-.087-.006-.153.03-.197.103.066-.033.132-.069.197-.103z"/><path d="m113.844 115.163c-.095-.005-.166.032-.208.119.093.003.162-.037.208-.119z"/><path d="m114.039 115.052c-.094-.006-.163.032-.205.117.091 0 .161-.04.205-.117z"/><path d="m114.227 114.944c-.091-.004-.161.031-.204.113.068-.037.135-.075.204-.113z"/><path d="m114.422 114.837c-.088-.004-.155.034-.199.11.066-.036.132-.072.199-.11z"/><path d="m114.617 114.735c-.086-.01-.15.024-.191.1.063-.034.126-.066.191-.1z"/><path d="m115.539 114.274c-.097-.005-.165.032-.205.12.095.003.162-.037.205-.12z"/><path d="m115.734 114.163c-.094-.005-.163.032-.205.119.093.003.162-.037.205-.119z"/><path d="m115.93 114.052c-.095-.006-.164.034-.205.117.091 0 .158-.04.205-.117z"/><path d="m116.117 113.94c-.093-.002-.159.036-.203.118.09-.003.157-.041.203-.118z"/><path d="m116.312 113.827c-.09-.002-.157.038-.2.118.067-.04.133-.078.2-.118z"/><path d="m116.508 113.714c-.089-.002-.156.038-.198.116.066-.037.133-.078.198-.116z"/><path d="m116.703 113.601c-.089 0-.156.038-.198.116.067-.038.131-.076.198-.116z"/><path d="m116.891 113.487c-.09.001-.154.039-.196.115.065-.038.131-.076.196-.115z"/><path d="m117.086 113.372c-.089.001-.154.039-.195.115.064-.038.131-.076.195-.115z"/><path d="m117.281 113.255c-.089 0-.153.039-.193.118.064-.039.128-.077.193-.118z"/><path d="m117.477 113.14c-.09 0-.154.039-.194.117.064-.038.129-.079.194-.117z"/><path d="m117.664 113.022c-.089.001-.154.042-.194.12.065-.04.129-.079.194-.12z"/><path d="m117.859 112.903c-.089.001-.154.042-.196.12.065-.041.132-.081.196-.12z"/><path d="m118.055 112.786c-.092 0-.157.041-.197.122.065-.041.132-.081.197-.122z"/><path d="m118.242 112.669c-.093-.001-.158.04-.199.123.09-.005.155-.045.199-.123z"/><path d="m118.438 112.548c-.096-.003-.161.039-.201.125.09-.003.158-.045.201-.125z"/><path d="m118.625 112.429c-.095-.003-.163.039-.202.124.092-.002.159-.042.202-.124z"/><path d="m118.82 112.312c-.096-.006-.164.038-.202.126.093.001.163-.041.202-.126z"/><path d="m106.664 118.321c-.085-.014-.152.015-.195.088.064-.029.131-.058.195-.088z"/></g><path d="m85.8867 145.926c-.3055.08-.623.045-.9298-.034-1.2655-.326-2.5634-.458-3.8538-.584-2.5286-.25-4.846.366-6.8847 1.909-.5095.386-.9322.856-1.2829 1.394-1.0129 1.556-.4796 3.055.5402 4.02.5855.555 1.2712.964 2.0242 1.24 3.7062 1.352 7.3872 1.245 11.0309-.225.7411-.299 1.4272-.708 2.06-1.187 1.4853-1.125 2.4528-2.6 2.9157-4.405.1252-.494.1214-.993.1026-1.495-.0642-1.695-.559-3.284-1.3077-4.788-1.3021-2.62-3.1002-4.86-5.3551-6.732-.6128-.51-1.2802-.946-1.9589-1.365-.1345-.084-.2716-.165-.4162-.236-.5952-.286-.6653-.133-.7636.354-.1525.75-.2852 1.503-.4378 2.254-.042.205-.1065.41-.1867.603-.0497.127-.1601.213-.3127.184-.1505-.029-.2162-.14-.2364-.279-.0371-.264-.0339-.525.0225-.788.2526-1.189.4612-2.385.8433-3.544.6815-2.069 1.5802-4.029 2.8579-5.806.5688-.79.5645-.773-.3907-.897-1.132-.148-2.2555-.348-3.3657-.62-1.4697-.359-2.9431-.712-4.3531-1.274-.565-.225-1.108-.51-1.6559-.776-.3581-.175-.4118-.18-.6663.128-.676.818-1.258 1.698-1.7222 2.655-.9005 1.857-1.4217 3.804-1.3684 5.883.052 2.02.5797 3.917 1.5169 5.7 1.4598 2.774 3.5731 4.977 6.1007 6.808.5767.417 1.1776.625 1.915.634 1.3251.014 2.6367.265 3.9423.504.4718.085.912.279 1.3561.458.1263.052.2371.12.216.306z" fill="#e2a88b"/><path d="m121.842 157.545c2.028.536 3.891.718 5.785.49.772-.092 1.498-.304 2.18-.696 1.248-.714 1.7-1.833 1.655-3.192-.039-1.128-.555-2.09-1.226-2.962-1.155-1.503-2.637-2.583-4.41-3.286-.845-.335-1.709-.561-2.608-.692-.55-.08-1.091-.228-1.639-.328-.334-.061-.506-.269-.599-.565-.055-.175-.079-.361-.121-.542-.697-3.068-1.385-6.139-2.323-9.147-1.484-4.76-3.39-9.345-5.723-13.757-.408-.772-.84-1.529-1.309-2.269-.328-.515-.393-.475-.879-.209-1.402.764-2.887 1.326-4.422 1.76-.331.093-.669.161-1.002.251-.142.037-.22.14-.182.298.045.179.084.361.138.538 1.416 4.684 2.758 9.388 4.296 14.034 1.08 3.263 2.174 6.524 3.257 9.786.573 1.731 1.136 3.469 1.704 5.203.091.278.2.548.286.824.235.763.704 1.354 1.334 1.831.764.581 1.6 1.044 2.466 1.446 1.133.527 2.304.951 3.336 1.178z" fill="#e2a88b"/><path d="m85.7131 45.4686c-.2117 1.0063-.6842 1.8499-1.4492 2.5117-1.0229.8816-2.206 1.1962-3.5519.9635-1.5291-.267-2.6546-1.1561-3.6313-2.2763-.5755-.6591-1.0948-1.361-1.5523-2.1089-.8688-1.4251-1.7349-2.8519-2.615-4.2685-.1692-.2739-.2411-.4895-.0215-.7757.1183-.1546-.0072-.3654-.2013-.4387-.2274-.0861-.4595-.1257-.7021-.0679-.5712.1396-.9985.4718-1.3058.9635-.0412.0647-.0636.1455-.0844.2198-.0544.191-.0325.3692.1219.5099.119.1091.3139.0963.5129-.0428.1078-.0755.1983-.1734.305-.2536.1207-.0904.2453-.1049.3379.0364.131.1984.256.4023.3789.6055.9384 1.5675 1.8682 3.1419 2.8173 4.703.4829.7928 1.0597 1.5204 1.7142 2.1832 1.0081 1.0212 2.1731 1.7884 3.612 2.042 2.0922.3707 3.8197-.2697 5.1536-1.9147.9793-1.2106 1.2717-2.6422 1.2808-4.1556.0098-1.7178-.3981-3.3532-1.0234-4.9405-.3985-1.0127-.8995-1.9713-1.5936-2.8235-.0802-.0996-.2126-.2007-.1194-.3365.0525-.0733.1857-.0856.279-.1306.0703-.0348.1411-.0717.1996-.123.0906-.0797.0893-.1846.0402-.29-.0853-.1803-.2321-.2873-.4213-.3343-.6405-.1595-1.209.0059-1.7119.4033-.0971.0781-.1655.2065-.2158.3258-.0743.1792-.0728.366.072.5179s.3242.1648.5121.0979c.2184-.0797.3983-.3258.6515-.2333.2972.1081.3876.4237.5288.6725.5009.8768.8761 1.8087 1.1827 2.769.4044 1.2641.6628 2.5556.715 3.8866.0289.7184-.019 1.4246-.212 2.0992z" fill="#302f2f"/><path d="m79.2599 36.4251c.0629-.2343.0485-.4697.0394-.7083-.062-1.6038-.4643-3.1333-1.0335-4.6248-.7291-1.913-1.7276-3.6886-2.8446-5.4005-.382-.5837-.8584-1.0726-1.4039-1.5038-.2593-.2054-.5528-.3194-.8709-.3622-.4018-.0546-.7347.2375-.7452.6372-.0054.2418.0735.4659.1589.6917.2835.75.7216 1.4203 1.1849 2.0628.6663.9271 1.249 1.9061 1.8509 2.8717.9544 1.5306 1.8354 3.0997 2.4759 4.7907.1405.3713.2809.7425.4015 1.1202.0821.2568.1793.4992.3516.7057.0442.0518.1351.0995.1963.092s.1233-.083.1608-.1418c.0412-.0647.0507-.1487.0763-.2242z" fill="#2e2e2e"/><path d="m67.9013 26.5474c-.0211.1947.0353.4542.1765.6847.2506.4055.4873.8212.7797 1.1962 1.3798 1.775 2.7816 3.5351 4.1667 5.3069.5057.6463.9862 1.3112 1.4812 1.9639.1271.168.2676.3279.414.4825.0905.0953.1911.1862.3056.2488.1382.0776.2979.1332.4529.0423.1577-.0926.1783-.2579.1608-.4168-.0181-.1567-.0469-.3161-.1095-.459-.1808-.4108-.3557-.827-.5757-1.2181-1.0502-1.8703-2.1942-3.6843-3.4333-5.438-.4729-.6676-.9465-1.3422-1.5294-1.9259-.2615-.2605-.5467-.4996-.826-.7441-.2061-.1808-.4597-.2622-.7209-.3135-.4094-.0792-.6786.1129-.7399.5885z" fill="#2e2e2f"/><path d="m52.1383 61.1536c1.5569.4397 3.2028.5767 4.8408.0027.7557-.2665 1.4305-.6757 1.9803-1.2797.7132-.7837 1.0147-1.7199 1.0716-2.7465.0703-1.2914-.2427-2.5192-.6959-3.7159-.4904-1.2946-1.1444-2.5005-1.9771-3.6121-.1594-.2124-.1361-.3339.0845-.4403.2618-.1257.5349-.2327.7973-.3606.1873-.092.2228-.299.1027-.4676-.1455-.2043-.3428-.3284-.5809-.3899-.9834-.2584-2.26.3033-2.6659 1.1362-.1214.2493-.1735.4954-.1015.7656.0769.2872.3087.4199.6082.3627.2448-.0482.425-.2033.624-.3333.3239-.2102.448-.1862.6528.1284.4618.7126.8705 1.4551 1.1982 2.2388.461 1.101.8581 2.2202 1.011 3.4126.0884.6901.0576 1.3642-.1176 2.0409-.2893 1.1165-.9983 1.8467-2.0518 2.2458-.8791.3312-1.799.4045-2.7417.3403-1.9327-.1311-3.5742-.9373-5.0553-2.1217-.5391-.4296-1.0423-.9025-1.5706-1.3476-.268-.2258-.3866-.4371-.2504-.8191.1623-.4504-.1955-.7644-.6755-.6521-.2904.0663-.5371.2322-.758.4226-.3436.2985-.6146.6629-.7915 1.0801-.1817.4275-.2168.871-.001 1.3064.1974.3991.4838.4772.834.2167.104-.0786.1984-.1733.2787-.276.097-.1236.1713-.2665.2607-.3965.2233-.3284.2996-.3322.5967-.0219.0748.0754.1437.1562.2159.2333 1.0566 1.1015 2.2578 2.0072 3.6631 2.6251.3623.1583.7487.2658 1.2105.4285z" fill="#2f2f2f"/><path d="m42.8598 41.9158c-.0746.236-.0409.458.0869.6784.2032.3483.4702.642.7742.8971.3847.3253.793.6201 1.1809.9416 1.4113 1.1625 2.8102 2.3378 4.1448 3.588.5016.4703 1.0042.9453 1.5931 1.3123.1818.1134.3609.2375.5862.1118.1776-.099.2341-.3258.1233-.6419-.0773-.2215-.1911-.4339-.3038-.6415-.8098-1.4786-1.9435-2.7016-3.1421-3.8657-.7389-.7179-1.4811-1.4412-2.3427-2.0238-.3281-.2225-.6573-.4499-1.0057-.6366-.3522-.1899-.737-.3038-1.1472-.2241-.2829.0545-.4846.2043-.5462.5071z" fill="#2e2e2f"/><path d="m40.5192 44.5168c-.4276-.0519-.8477-.0792-1.1085.299-.2425.351-.2229.7308-.0019 1.1176.2814.4927.6351.9057 1.0897 1.2438 1.7225 1.2786 3.4406 2.5652 5.1631 3.8438.2964.2214.6153.4167.9225.6227.1565.1048.3226.1803.5144.1985.1386.0117.2619-.0894.2637-.2253.007-.2755-.1074-.513-.2293-.7479-.3348-.6355-.7711-1.2031-1.2309-1.7493-1.2363-1.4621-2.6633-2.7262-4.153-3.9219-.375-.3001-.8051-.5071-1.2277-.6805z" fill="#2e2e2f"/></g></svg>