<svg fill="none" viewBox="0 0 93 175" xmlns="http://www.w3.org/2000/svg"><path d="m38.7837 141.796c-.2038.047-.4076.115-.6144.136-4.5549.42-9.1128.662-13.6885.461-1.4504-.062-2.8978-.183-4.3482-.278-.6026-.038-.6292-.029-.8891.517-.5937 1.262-.9216 2.604-1.1048 3.975-.7916 5.921.2186 11.491 3.3055 16.645.4726.789.9866 1.554 1.4829 2.328.3042.476.6232.946.9157 1.43.2599.426.4608.881.5819 1.363.2865 1.134.0236 2.101-.901 2.854-.6114.5-1.3056.848-2.0352 1.126-1.5242.582-3.0957 1.005-4.7027 1.279-.9393.16-1.8934.275-2.8446.355-1.7842.151-3.5418-.012-5.23732-.612-3.06322-1.087-4.91238-3.806-4.809-7.023.02068-.609.15065-1.191.38106-1.753.6351-1.56 1.85802-2.485 3.86965-2.325.63509.05 1.25837.195 1.85801.419.257.098.5169.192.7474.278.1624-.145.062-.227.0147-.295-1.28493-1.785-1.79006-3.83-1.99388-5.972-.50217-5.233.69122-10.124 3.04258-14.769.0945-.189.2127-.366.3101-.556.0946-.186.0237-.336-.192-.398-.3397-.098-.6912-.16-1.025-.278-.4992-.178-.99842-.364-1.47104-.6-.90686-.452-1.47106-1.194-1.73691-2.169-.12998-.482-.20087-.969-.21269-1.469-.02954-1.241-.01181-2.479.09748-3.714.36038-4.057.71485-8.111.88027-12.183.09748-2.411.06204-4.814-.28357-7.207-.257-1.764-.74439-3.463-1.42084-5.103-.9748-2.355-1.99095-4.69-3.00415-7.03-1.09886-2.5383-2.05298-5.1209-2.67331-7.8247-1.1697531-5.0825-.664631-9.9876 1.48583-14.7273.42241-.9338.85959-1.8676 1.36767-2.757 2.48721-4.3319 4.14732-8.9889 5.47954-13.7758.96892-3.4839 1.75172-7.0032 2.25092-10.5875.2836-2.036.4312-4.0867.4726-6.1404.0738-3.5754.0207-7.1539-.0591-10.7293-.0827-3.6819-.1122-7.3666.1093-11.0455.2127-3.5016.511-6.9914 1.2584-10.428.4756-2.1866 1.1402-4.31119 2.1652-6.30872.7976-1.55133 1.7606-2.98743 3.0278-4.20486.5642-.54075 1.1786-1.01945 1.8492-1.42132 2.3306-1.403586 4.7824-1.645889 7.3434-.750547 1.282.449148 2.4459 1.116957 3.5241 1.935477 1.5065 1.14355 2.8121 2.48214 3.9523 3.98915 1.1993 1.58679 2.2273 3.27996 3.1401 5.04112.062.1211.0856.263.127.3959-.7651.1064-1.0162-.4934-1.2584-.9987-.195-.4049-.4401-.594-.8655-.5969-.1063-.0443-.195-.1064-.2718-.1891-1.3145-1.97984-2.6496-3.936-4.4368-5.53461-1.5537-1.38881-3.2463-2.5176-5.3052-2.99629-2.4843-.579169-4.6022.17434-6.475 1.81432-2.2952 2.00935-3.5861 4.61855-4.4871 7.45828-1.0663 3.3627-1.4385 6.8406-1.7516 10.3422-.384 4.3083-.514 8.6254-.3545 12.9367.1063 2.9017.1595 5.7975.1772 8.6993.065 9.961-2.2184 19.4404-5.88125 28.6302-.78574 1.971-1.79894 3.8532-2.83282 5.706-3.41474 6.1285-3.8342 12.4786-1.59807 19.074 1.14021 3.3598 2.62309 6.5779 4.08528 9.7989 1.85507 4.086 2.70286 8.368 2.57288 12.797-.13293 4.557-.44309 9.11-.94822 13.646-.16542 1.481-.1152 2.973-.03544 4.456.0768 1.395.96593 2.131 2.24204 2.497 2.2213.638 4.4959.966 6.7911 1.191 1.1609.115 2.3247.195 3.4886.31 1.8816.21 3.781.056 5.6597.29.4844.059.9807.003 1.4681.1.7237.234 1.4681.124 2.2036.148 2.567.083 5.1399-.174 7.7039.086.1299.05.2333.133.3131.248z" fill="#23302c"/><path d="m36.6267 10.2041c.1123-.1566.257-.22749.449-.1714.1832.0503.3486.1833.3515.3487.0148.6915.517 1.0343.9571 1.4243.0502.0443.127.0561.1891.0827.3101.3103.4253.727.5996 1.1081 2.7708 6.0517 4.7322 12.3487 5.7838 18.9263.3752 2.3492.6174 4.7043.5494 7.083-.0502 1.7375-.2865 3.4573-.4844 5.18-.0768.6678-.1388 1.3356-.2068 2.0034 0 .0237.0325.0502.0827.1241.3368-.1182.5377-.4225.774-.6619.9511-.9633 2.0057-1.7907 3.1784-2.4673 1.3499-.7772 2.8003-1.1525 4.3689-1.0875 3.2227.1301 6.4691 2.3876 7.7038 5.3662.4106.9899.6499 2.0182.8035 3.0731.0561.3782.0945.7594.2274 1.0992.3397.0503.5022-.1684.6912-.3132.5347-.4078 1.0457-.8451 1.5922-1.2411 1.1609-.8362 2.4163-1.4597 3.8549-1.6754 1.3942-.2098 2.6733.0798 3.8578.8215.9157.5703 1.6483 1.3326 2.2686 2.2073.9128 1.2854 1.5065 2.7215 1.9231 4.2315.2835 1.0253.5139 2.0595.6823 3.1085.0679.4196.1507.8363.254 1.247.0857.3428.3191.4373.647.263.3131-.1655.6085-.3635.9098-.5467.8773-.5378 1.7723-1.0253 2.756-1.3563 1.5862-.5348 3.0691-.3221 4.484.5231.8331.4964 1.5154 1.1612 2.118 1.9088.6233.7742 1.1402 1.6193 1.601 2.4999 1.3086 2.4969 2.1328 5.1563 2.6911 7.9103.6085 3.0052.7266 6.0281.5583 9.0864-.2659 4.8461-1.3618 9.5178-2.7442 14.1423-1.0339 3.4632-2.2273 6.867-3.7545 10.144-1.1963 2.574-2.5935 5.032-4.3186 7.296-1.5183 1.992-3.2818 3.711-5.4382 5.006-1.2495.747-2.5404 1.397-3.9701 1.737-.2895.068-.4726.234-.6646.47-1.8758 2.32-2.9096 4.997-3.4443 7.896-.2836 1.53-.5613 3.064-.8655 4.589-.192.975-.4785 1.923-.8921 2.83-1.0339 2.261-2.7442 3.821-5.001 4.808-1.6099.517-3.2227 1.016-4.9419 1.005-.3131 0-.6292.091-.9364-.039-.1152-.053-.1802-.145-.192-.269.1861-.564.6971-.517 1.1372-.591 1.929-.325 3.8106-.762 5.5062-1.823 1.9673-1.232 3.1843-2.978 3.778-5.192.4668-1.746.7444-3.534 1.0694-5.31.4844-2.632 1.3115-5.141 2.7944-7.405.5376-.821 1.152-1.386 2.1918-1.663 2.2598-.606 4.1591-1.951 5.896-3.484 2.502-2.207 4.3778-4.896 5.9079-7.845 3.719-7.175 6.1353-14.7899 7.2932-22.7593.9896-6.8111.455-13.507-2.7264-19.7803-.7208-1.4183-1.4977-2.8249-2.8949-3.735-1.8107-1.5129-3.6156-1.0431-5.4175.0207-.5849.3339-1.1432.7121-1.7369 1.0224-1.3263.6973-2.2686.3014-2.6763-1.1377-.3367-1.1938-.4312-2.4378-.7709-3.6345-.387-1.3652-.8301-2.7067-1.5774-3.9271-.9748-1.4657-2.1239-2.6654-3.9849-2.9904-.9689-.1684-1.7871.1596-2.6349.4905-1.0191.3605-1.8669 1.0017-2.7028 1.6607-.1655.13-.3161.2866-.4815.4196-1.8374 1.4804-2.7738 1.1376-3.1341-1.1583-.3575-2.2901-1.0221-4.4206-2.9983-5.8892-2.1416-1.9119-5.0335-2.3167-7.6152-1.0815-1.4977.718-2.694 1.8084-3.8283 2.9874-.4844.5053-.9541 1.0727-1.7576 1.0786-1.0102-.3487-1.0014-1.1613-.9039-2.0035.195-1.7227.4017-3.4425.6056-5.1622.319-2.7008.1329-5.3662-.2659-8.0315-1.0043-6.7284-2.9894-13.1701-5.769-19.3696-.3486-.7741-.7415-1.5276-1.1609-2.2664-.2009-.3575-.511-.7121-.2156-1.1672z" fill="#20201f"/><path d="m55.7579 140.058c.2806-.006.5583.003.833-.092.1949-.068.4165-.13.6144-.109.8891.097 1.7399-.166 2.6113-.239.3072-.027.6173-.136.9098-.255.3367-.135.6764-.18 1.0309-.135-.3397.342-.8153.401-1.2318.582-.2895.124-.5967.206-.8832.304.0089.225.1329.355.2481.488 1.9585 2.26 3.0189 4.922 3.5418 7.836.6882 3.838.4578 7.612-.7651 11.323-.0325.101-.0532.204-.0679.308-.003.026.0354.059.0856.13.1093-.051.2275-.101.3427-.157 1.4976-.715 2.8417-.369 4.0292.662 1.0191.886 1.6364 2.039 1.8668 3.374.5258 3.071-.7207 5.804-3.3793 7.444-1.4119.872-2.9628 1.341-4.611 1.46-2.9422.212-5.7868-.272-8.5458-1.292-1.0043-.369-1.92-.901-2.6851-1.669-1.3411-1.348-1.5892-2.849-.7444-4.56.2836-.573.6381-1.105 1.0398-1.601 2.2007-2.728 3.3675-5.881 3.784-9.323.4076-3.366-.0266-6.643-1.2584-9.802-.4106-1.054-.9216-2.068-1.3499-3.117-.1477-.363-.3634-.467-.7237-.449-1.6985.092-3.3971.157-5.0926.251-2.0855.118-4.171.26-6.2564.39-.1034.006-.2098-.015-.3161-.021l-.0502-.076c.1802-.535.6587-.435 1.0575-.488 3.8371-.508 7.7038-.6 11.5558-.866.9777-.068 1.9436-.292 2.9066-.502.5199-.115 1.0487-.192 1.5095.195z" fill="#24312c"/><path d="m44.4938 48.0278c.5819-.2275.9778-.6914 1.4002-1.1169.9009-.9013 1.7989-1.8055 2.9037-2.4733.5465-.331 1.1018-.6412 1.6985-.8688 1.7428-.6648 3.4768-.5584 5.1664.1685.7414.3191 1.5213.6057 2.0353 1.2942.9807 1.6577 1.2406 3.5193 1.5183 5.3721.1122.7358.1949 1.4804.4608 2.1778.4785 1.2469 1.5715 1.6577 2.7501 1.0283.7533-.4019 1.4061-.9515 2.0028-1.5632.7414-.7624 1.4858-1.5188 2.3808-2.1068 1.861-1.1081 4.0528-.4403 5.2846.6914.5967.5467 1.1905 1.1022 1.5538 1.8527.5081 2.2783.8419 4.5861 1.1048 6.9057.0709.6324.1624 1.2706.384 1.8675.4903 1.312 1.4297 1.6489 2.5906.8747.8802-.5881 1.6542-1.3179 2.4458-2.0241.6765-.529 1.4711-.8067 2.2952-.9427 1.2289-.2068 2.3514.0709 3.27.9722 2.1298 3.4839 3.5359 7.2337 4.0912 11.2849.2304 1.6813.4342 3.3568.4697 5.0647.1211 5.7119-1.2466 11.0869-3.4472 16.2875-1.9733 4.6629-3.9258 9.3378-6.4603 13.7348-1.5626 2.706-3.3261 5.265-5.8429 7.219-1.4474 1.122-3.0159 1.971-4.7794 2.473-.8508.242-1.7074.47-2.5611.703-1.6837.461-2.6319 1.516-2.8623 3.283-.2127 1.613-.4254 3.23-.5908 4.846-.3634 3.54-2.2007 6.111-4.9981 8.141-3.5713 2.591-7.5709 4.098-11.8925 4.846-5.515.954-11.1097 1.253-16.6365 2.101-2.6911.414-5.3762.875-8.0967 1.076-.2807.02-.5613.085-.8301-.054-1.5597.009-3.1016-.221-4.6465-.381-1.48-.15-2.9451-.39-4.3925-.727-.6528-.15-1.2998-.331-1.926-.585-1.0634-.428-1.60397-1.235-1.74871-2.337-.04136-.313-.0384-.635-.04431-.955-.04431-2.198.13292-4.382.39287-6.559.10634-.914.12407-1.833.21859-2.749.1477-1.442.19792-2.892.26586-4.34.07089-1.555.17723-3.112.15655-4.666-.04431-3.638-.6026-7.181-2.07661-10.543-1.10772-2.527-2.19181-5.065-3.27591-7.6034-1.27019-2.9726-2.24794-6.0428-2.59946-9.2637-.29243-2.6919-.08271-5.3691.68532-7.9871.54057-1.8409 1.29382-3.5903 2.18295-5.2864 1.39721-2.6653 2.82691-5.3129 3.84306-8.1585 1.17862-3.3007 2.1771-6.6545 2.9953-10.0615.6026-2.5117 1.0693-5.0471 1.4356-7.6031.1211-.8392.189-1.6872.2511-2.5323.3101-4.1015.2747-8.2088.1506-12.3103-.0915-3.0435-.127-6.0871-.0886-9.1277.0266-1.9414.1093-3.8857.3249-5.8212.1123-1.0195.1537-2.0448.2659-3.0643.3515-3.2445.9069-6.4447 2.1446-9.48529.9039-2.21914 2.0972-4.25509 3.9316-5.8537 1.5508-1.3504 3.3232-2.13346 5.4205-2.05959.9659.03546 1.8905.25708 2.7767.63827 1.2436.53484 2.3956 1.22629 3.4236 2.10981 1.5656 1.34745 2.9303 2.87515 4.0498 4.61264.3634.56439.6942 1.14947 1.0369 1.72276.0265 2.1748.6469 4.2521 1.0516 6.3649.0827.4373.3219.8864-.0325 1.3179-.1182.065-.2245.0532-.325-.0355-.1359-.1182-.2392-.263-.3279-.4196-1.1461-2.4674-2.6555-4.6717-4.6967-6.4949-.9069-.8097-1.861-1.51885-3.0219-1.92958-1.9318-.6885-3.6244-.25117-5.1309 1.05198-1.9999 1.7286-3.1401 3.9803-3.8579 6.4772-1.3913 4.8313-1.2613 9.7246-.5642 14.6357.5967 4.2049 1.3972 8.389 1.5745 12.6353.1447 3.4602.1565 6.9293-.0709 10.3984-.3013 4.5771-1.2525 9.0391-2.1269 13.5187-.2806 1.4361-.8655 2.6388-1.7841 3.7764-2.8122 3.4868-4.9242 7.3548-5.9492 11.7488-1.66902 7.1421-.0237 13.3533 5.1427 18.6549 1.6986 1.74 3.462 3.445 4.8593 5.472 1.2967 1.879 1.7044 3.948 1.4119 6.167-.2776 2.11-.7591 4.178-1.4444 6.199-.6824 2.013-1.3736 4.022-1.9112 6.079-1.285 4.911 1.5183 8.649 6.6522 8.882 1.4977.068 2.9717-.103 4.428-.425 5.2639-1.167 10.6046-1.823 15.966-2.29 2.4281-.21 4.871-.249 7.305-.435 1.4534-.112 2.3573-.86 2.9303-2.104.8389-1.82 1.2436-3.755 1.4888-5.735.2245-1.826.3929-3.658.5967-5.487.4815-4.338 2.9421-7.069 6.8206-8.717 1.1875-.172 2.3927-.048 3.589-.261 2.2716-.404 4.2123-1.374 5.8459-2.996 4.3747-4.344 7.5532-9.3994 9.234-15.3654.4224-1.4952 1.0693-2.9195 1.3824-4.4531.4135-2.0271.5701-4.0541.1713-6.1019-.0177-.3457-.0177-.6915-.0177-1.0372-.0089-.7505.0975-1.504-.1063-2.2457-.2777-1.2145-.4668-2.4497-.9128-3.6198-.4254-1.1377-.9719-2.2014-1.8108-3.0968-1.9023-2.03-3.8342-2.4762-6.4425-1.4981-.8822.3309-1.472.0522-1.7694-.8363-1.6985-5.0677-7.0303-6.9647-11.6237-4.1132-1.4445.8983-2.8328 1.8793-3.9021 3.2415-.1802.2305-.3811.6088-.7474.4315-.3131-.1537-.2924-.5467-.2924-.8629 0-1.9295-.3072-3.803-.9719-5.6202-.4549-1.2441-1.0811-2.3906-1.8905-3.4278-1.923-2.4585-4.9567-3.0938-7.6861-1.5956-1.5449.848-2.8535 1.9827-3.7338 3.5311-.3899.6856-.833.8688-1.5597.5289-1.8727-.8805-3.8519-.8746-5.831-.5171-5.8488 1.0549-10.8262 3.8533-15.263 7.7065-.3485.3014-.6941.6057-1.0959.8362-.5612.3251-.7798.0769-.7857-.4905 0-.2866.0856-.5585.1506-.8333 1.7369-7.3164 2.3986-14.7391 2.0648-22.2387-.192-4.2788-.9275-8.5073-1.5449-12.7446-.706-4.8579-.9955-9.7217.2777-14.5471.5553-2.1099 1.4031-4.0778 2.7471-5.8183 2.2332-2.89285 5.134-3.31245 8.0643-1.1376 2.6319 1.9561 4.4131 4.5594 5.6922 7.535 1.0221 2.3817 1.6719 4.8845 2.3366 7.3844.8802 4.0512 1.3292 8.1467 1.5892 12.2836.2983 4.784-.0857 9.5267-.4874 14.2723-.1595 1.8941-.3988 3.7823-.5111 4.9022.1832-1.6843.4963-4.1369.7592-6.5924.0443-.4226.0443-.851.2836-1.2234.1329-.1891.3308-.325.5346-.2009 1.0191.6205 1.8906.2039 2.759-.3369.1772-.1122.4047-.127.5642-.2836z" fill="#c54256"/><path d="m21.2969 141.14c1.2879-.192 2.5758-.375 3.8578-.591.7237-.121 1.4445-.295 2.1977-.298.6263 0 1.2554-.145 1.8817-.246.6942-.109 1.3824-.322 2.0766-.337.7857-.014 1.5508-.162 2.3041-.292.7975-.139 1.6099-.136 2.4045-.319.8507-.195 1.7605-.121 2.6201-.293 1.1136-.218 2.245-.13 3.3586-.348.7149-.142 1.4652-.148 2.2007-.257 2.8239-.426 5.6272-.931 8.3183-1.936 2.1002-.783 4.0557-1.829 5.8576-3.156.7651-.564 1.5715-1.111 2.2036-1.805 1.2938-1.419 2.3514-2.994 2.6527-4.968.1447-.936.2865-1.873.4135-2.813.1861-1.391.2334-2.801.5908-4.172.2688-1.022.771-1.794 1.7635-2.234.5494-.245 1.1018-.464 1.6867-.615 1.1254-.289 2.245-.59 3.3409-.992 1.1136-.411 2.1032-1.02 3.0277-1.72.7267-.553 1.4622-1.111 2.0708-1.811.6705-.772 1.344-1.54 1.9496-2.367 1.8639-2.55 3.3349-5.331 4.6553-8.183 1.3057-2.8186 2.5375-5.6701 3.7811-8.5157 1.2229-2.7983 2.0736-5.7 2.7589-8.652.2452-1.0549.3663-2.1482.5258-3.2238.3338-2.2221.1182-4.4472.1625-6.6693.0089-.4137-.1388-.8303-.195-1.247-.3072-2.3048-.6173-4.6037-1.471-6.7904-.6676-1.7109-1.3381-3.4188-2.1387-5.0706-.1683-.3458-.4165-.6649-.4224-1.0756 1.0162.4757 1.6011 1.3799 2.1682 2.2694 1.7133 2.6889 2.7294 5.6557 3.3616 8.7613.1979.9692.3663 1.9414.5435 2.9136.0384.2068.0591.4196.065.6323.0798 2.1601.1211 4.3231-.0236 6.4772-.1418 2.1098-.4254 4.2108-.8773 6.2851-.709 3.2445-1.6395 6.43-2.6556 9.5917-1.1846 3.6788-2.7088 7.2188-4.5786 10.5998-1.4652 2.647-3.2316 5.079-5.5298 7.071-1.7221 1.492-3.6185 2.715-5.7838 3.478-.1979.071-.4106.153-.6114.144-.4402-.017-.6942.184-.9542.52-1.025 1.33-1.8048 2.784-2.3808 4.356-.6115 1.667-.9778 3.389-1.2495 5.136-.2275 1.465-.5022 2.925-.9246 4.346-.6587 2.228-1.991 3.942-4.0026 5.151-1.3293.798-2.7678 1.241-4.2596 1.542-.5523.113-1.1018.254-1.6748.254-.2009 0-.4047.113-.6056.172-2.6142.346-5.2225.718-7.8722.765-3.53.065-7.0451.417-10.5603.718-2.3277.201-4.6554.234-6.989.228-.1891 0-.3751.026-.5553.085-.4165-.011-.8449.113-1.2466-.094-1.8314.065-3.6481-.231-5.4795-.222-.387 0-.774-.012-1.1609-.017-.2127-.003-.4224-.012-.5967-.163z" fill="#99372f"/><path d="m18.0891 143.965c-.2452 1.141-.5405 2.16-.6676 3.215-.2481 2.051-.2363 4.101-.0354 6.149.4194 4.249 1.9821 8.088 4.3098 11.637.446.679.9009 1.356 1.344 2.039.2895.446.5376.913.6883 1.43.2954 1.016.0975 1.684-.7208 2.355-.4431.363-.9512.615-1.474.833-1.2466.52-2.5463.857-3.8578 1.167-1.35.32-2.7206.476-4.0971.565-1.7133.109-3.3882-.104-5.00399-.739-2.40154-.94-4.10005-3.374-4.00848-6.191.02659-.794.23927-1.539.6735-2.207.49626-.759 1.19929-1.182 2.11501-1.238.8271-.053 1.61875.077 2.39564.366 1.33522.494 2.59062 1.141 3.80762 1.871.2097.127.4313.236.6617.319.0679.024.2127-.056.2599-.13.0502-.074.065-.219.0237-.295-.0621-.119-.1684-.228-.2807-.305-.2599-.186-.5346-.348-.8005-.523-1.6246-1.078-2.7265-2.559-3.332-4.403-.35449-1.078-.56717-2.192-.66465-3.324-.35743-4.214.37219-8.256 1.98505-12.145.4874-1.173.2983-.954 1.4445-1.052 1.7428-.147 3.4501.116 5.2314.609z" fill="#e2a88b"/><path d="m37.2974 17.84c.1477-.1301.1713-.2896.13-.4758-.3161-1.3652-.6381-2.7274-.9394-4.0955-.1122-.5112-.1329-1.0401-.257-1.5573-.127-.5259.0473-1.046.2245-1.5454.0561.0148.1123.0266.1684.0414.0709.198.1122.4137.2186.591 1.3056 2.16 2.2272 4.4974 3.1459 6.8318 1.3204 3.3568 2.3691 6.8051 3.1459 10.3274.4402 1.9975.7887 4.0158 1.1019 6.0369.3013 1.9621.3042 3.9478.2215 5.9247-.0413.9839-.2127 1.962-.3249 2.9431-.0857.7357-.1861 1.4715-.257 2.2073-.0414.4225-.0709.8421-.1654 1.2588-.0621.2689-.0621.5673-.0178.8421.0739.4433.2895.8008.7976.8629-.449.7594-1.2554.9662-1.9998 1.247-.257.0975-.5583.0413-.8123-.1123-.2688-.1625-.5317-.3339-.7976-.5024-.3958-.4107-.2983-.916-.2629-1.4065.1713-2.2546.4254-4.5092.3574-6.7757-.1477-4.9938-.6144-9.9551-1.6778-14.8455-.1359-.6205-.2038-1.2558-.387-1.8675-.0413-.1655-.0531-.3369-.1093-.4994-.1004-.4019-.2304-.7978-.319-1.2056-.0354-.1448-.0827-.2896-.127-.4314-.13-.4314-.2747-.8569-.4342-1.2795-.1271-.8599-.8774-1.5661-.6263-2.5176z" fill="#99372f"/><path d="m29.9964 141.438c1.0546-.159 2.118-.041 3.1755-.121 1.3706-.106 2.7383-.233 4.1059-.355.8774-.076 1.7576-.141 2.6349-.218 1.7547-.157 3.527-.154 5.2846-.29 1.796-.139 3.6038-.091 5.3909-.251 1.2259-.109 2.4695-.05 3.6865-.313.4756-.104.9867-.039 1.48-.05v.221c-.5967.009-1.1816.056-1.7783.169-1.2023.224-2.3986.552-3.6422.475-1.4592.37-2.9451.151-4.4191.207-.3515.015-.703-.015-1.0457.115-.1595.062-.3426.095-.5169.092-1.1314-.021-2.2332.21-3.3409.381-.4844.077-.9866.036-1.4799.05-.2806.006-.5701-.032-.8064.172-3.1726.012-6.3451.026-9.5206.041-.2481 0-.4992.006-.6735-.218.4225-.006.8449-.009 1.2673-.015.0591-.042.1241-.071.1949-.089z" fill="#1f1d1d"/><path d="m66.8077 49.9394c-.4934.7417-1.2053 1.2795-1.8079 1.9177-.5789.6146-1.1874 1.2056-1.8934 1.6814-.4963.3339-.9925.6471-1.6335.6648-.9217.0237-1.5509-.3989-1.9408-1.1967-.1831-.3782-.3131-.7801-.3781-1.2027-.1181-.7948-.3249-1.5838-.3869-2.3846-.0946-1.2115-.5702-2.3137-.8449-3.472-.0738-.3073-.2658-.5821-.2304-.9161.644.4522 1.1727 1.0254 1.6513 1.6371.5494.7062.8034 1.575 1.0338 2.423.2305.8481.4313 1.7109.4815 2.5974.003.0709.0059.1418.0178.2127.1683.984.8182 1.3061 1.6955.7861.452-.2689.8655-.6088 1.2732-.9486.7621-.6412 1.5655-1.2115 2.4635-1.6429.1566-.0739.3338-.1064.4993-.1566z" fill="#99372f"/><path d="m80.1785 60.1042c-.6528.981-1.4917 1.7729-2.4754 2.4112-.2599.1684-.576.2718-.8773.3516-.3928.1035-.7503.0266-1.0811-.263-.5819-.5082-.96-1.1021-1.0664-1.8822-.1595-1.1466-.3722-2.2842-.446-3.4455-.0532-.8717-.2216-1.7463-.4461-2.5915-.1949-.7387-.1743-1.4656-.1359-2.2043.8301 1.2085 1.282 2.5796 1.6454 3.9773.2717 1.052.4519 2.1305.6587 3.2002.0886.4521.2009.8924.4195 1.3001.1624.3044.4135.4581.765.4817.517.0355.966-.1123 1.4002-.3841.5347-.3369 1.09-.6383 1.6394-.9545z" fill="#993730"/><path d="m59.9243 172.38c-2.756-.015-5.001-.467-7.181-1.256-.9068-.328-1.7428-.783-2.4517-1.448-1.2348-1.155-1.4563-2.417-.6942-3.933.2865-.573.6558-1.093 1.0516-1.592 2.2036-2.769 3.3793-5.963 3.784-9.435.3929-3.354.0354-6.643-1.2259-9.802-.0532-.13-.1182-.257-.1595-.393-.1093-.369-.4933-.733-.3574-1.076.1624-.413.7119-.387 1.1077-.487 1.8905-.485 3.8165-.736 5.769-.795.4815-.015.7887.148 1.0457.556.898 1.424 1.4976 2.969 1.8905 4.594.4667 1.936.709 3.904.6351 5.893-.0857 2.343-.4431 4.645-1.2909 6.852-.5907 1.54-1.5183 2.872-2.5315 4.152-.2186.277-.446.549-.6528.836-.0797.109-.1388.251-.1595.384-.0148.089.0295.219.0945.278.065.056.1979.077.2866.053.2924-.071.4667-.316.638-.535.6115-.777 1.2111-1.569 1.8078-2.358.319-.422.6056-.874.9453-1.282 1.2761-1.531 3.1193-1.608 4.5254-.192.9068.913 1.4267 2.012 1.5272 3.3.2392 3.035-1.1875 5.443-3.979 6.735-1.5419.712-3.1666.989-4.425.948z" fill="#e2a88b"/><path d="m37.2972 17.8406c.1566.4167.322.8304.4697 1.25.1447.4196.381.8126.3604 1.2794.2688 1.1909.5908 2.3669.7975 3.5725.0709.4226.1714.8304-.1861 1.1791-.3426-.6678-.4047-1.4184-.6055-2.1276-.6351-2.2132-1.3352-4.4028-2.3779-6.4624-1.1344-2.2398-2.6497-4.1753-4.5993-5.771-.6056-.4964-1.2672-.90122-1.988-1.20854-1.4061-.59984-2.7649-.48165-4.0735.27481-.7444.43143-1.3499 1.01943-1.8905 1.68723-1.3411 1.6577-2.1564 3.5666-2.7028 5.5996-.5879 2.1955-.8951 4.4295-.9098 6.7077-.0119 2.1985.1299 4.3792.4106 6.557.2481 1.9266.573 3.8443.8359 5.768.195 1.4361.3722 2.8722.5376 4.3112.4727 4.0571.4549 8.1231.3338 12.192-.0354 1.2323-.2245 2.4615-.316 3.6937-.0916 1.2352-.257 2.4585-.4579 3.6818-.4047 2.4763-.8773 4.9407-1.4208 7.3903-.0503.2275-.1802.458.0384.7476.449-.3398.8655-.7121 1.2849-1.0785 3.4443-3.0229 7.2962-5.3485 11.6385-6.8466 1.4415-.4964 2.9155-.8983 4.425-1.0815 1.9909-.2423 3.9642-.1714 5.7867.8392.1241.068.2482.13.4195.0827.9364-1.9325 2.4281-3.3568 4.3157-4.3614 3.1311-1.6666 6.0585-.727 8.0317 1.7818 1.4977 1.903 2.307 4.1103 2.6733 6.5038.1713 1.1169.1654 2.2368.1802 3.3272.1979.0975.254-.0207.3072-.0975 1.158-1.6193 2.7176-2.7835 4.4161-3.7557 1.6661-.9544 3.4886-1.4066 5.4116-1.1761 2.2628.2748 4.044 1.4036 5.3437 3.2859.6942 1.0076 1.1107 2.1246 1.3706 3.2918.2984.1211.4845-.0887.7001-.1773.7208-.2955 1.4415-.591 2.2214-.6915 1.5774-.2038 2.9421.3103 4.1384 1.2884 1.2909 1.0579 2.1741 2.4023 2.6261 4.0187-.4284.0414-.8242-.133-1.2436-.1773-.706-.7801-1.09-1.7789-1.8846-2.5235-1.2909-1.2086-2.7059-1.5602-4.3719-1.049-.4667.1418-.9186.3782-1.4356.2571-.9689-.3339-.8655.4668-.9275.9515-.2541 1.8941-.6676 3.7498-1.2761 5.5611-.1743.523-.3308 1.1524-1.1461.8895-.3486-.4049-.1182-.8008.0206-1.1938.4904-1.3682.8655-2.7688 1.155-4.1931.5938-2.9253-.2422-5.3454-2.6496-7.1007-2.4075-1.7522-4.9538-1.4095-7.4085-.0827-1.4947.8067-2.8505 1.8409-3.9169 3.2061-.2984.3812-.6115.7949-1.1639.851-.1772-.0768-.2333-.2423-.2894-.4078-.0473-.1359-.1182-.2718-.2807-.2659-.2274.0059-.254.2009-.2806.3694-.0738.4462-.1477.8953-.2718 1.3297-.1004.3516-.189.7742-.7414.5585-.2186-.5319 0-1.049.0768-1.5632.4815-3.2475.0414-6.3294-1.5715-9.2164-.4165-.7476-.9275-1.4154-1.5537-1.9975-1.542-1.4243-3.3971-1.7109-5.2935-.8038-1.4947.7151-2.7265 1.7493-3.6688 3.1175-.5051.5141-.638.8983-.0354 1.569 1.5242 1.6962 1.5951 3.8237 1.2465 5.9247-.5139 3.0967-2.1534 5.57-4.552 7.5675-2.4104 2.0094-5.0955 3.5696-8.0051 4.92.2924.3487.6646.3339.9689.4284 4.1887 1.3179 6.3362 4.3526 6.5813 8.6668.0473.8481-.2215 1.6814-.257 2.5295-.0827.2925-.0649.6028-.1388.8953-.4017.8481-.638 1.7582-.9659 2.6328-.133.3576-.2807.7122-.6144.9427-.7858.6087-1.1905 1.5454-1.9083 2.2073-.2511.2334-.4106.8392-.9452.3457-.0325-.5082.3072-.854.5523-1.2352 1.2436-1.9295 2.0442-4.0246 2.4843-6.2792.9246-4.7367-1.6306-8.5427-6.3923-9.4439-.452-.0857-.9157-.13-1.347-.2955-1.0368-.3989-1.1638-1.2145-.3013-1.9355.4106-.3428.9039-.5585 1.3824-.786 2.9185-1.3918 5.7602-2.9224 8.1706-5.1061 2.31-2.095 3.7722-4.6156 3.8017-7.8749.0296-3.0495-2.3395-4.8992-4.9301-5.0736-2.0884-.1389-4.0853.2807-6.0585.8954-4.8651 1.5158-9.1247 4.125-12.7285 7.6503-4.3511 4.258-7.5236 9.308-8.7259 15.3863-1.2584 6.3678.4313 11.8581 4.8976 16.6011 1.9555 2.074 4.1651 3.956 5.5948 6.506.9895 1.764 1.406 3.632 1.1904 5.621-.2334 2.148-.6351 4.27-1.3677 6.317-.7887 2.202-1.5065 4.427-2.0913 6.69-1.0782 4.173 1.2701 7.293 5.6183 7.503 1.3145.065 2.6202-.021 3.9081-.305 5.5061-1.223 11.089-1.938 16.6985-2.387 1.8256-.145 3.6659-.299 5.5091-.284 2.6615.018 3.4975-.632 4.2655-3.197.7562-2.529.8862-5.153 1.1727-7.754.2659-2.438.6381-4.84 2.0648-6.947 1.028-1.519 2.4783-2.497 4.0085-3.401.2511-.118.5051-.225.7798-.263.4402-.009.8567.086 1.2436.301.0945.083.1034.178.0296.278-1.1905.633-2.3189 1.351-3.3882 2.181-1.4002 1.09-2.2598 2.509-2.7531 4.181-.3515 1.191-.508 2.42-.6557 3.65-.2245 1.858-.2984 3.735-.6322 5.584-.2717 1.501-.6498 2.973-1.2997 4.362-.4165.889-.9925 1.637-1.9555 1.991-.1979.074-.4047.145-.6115.166-.8448.083-1.6896.165-2.5374.213-1.7664.097-3.5388.13-5.3023.266-1.7251.133-3.4443.372-5.1694.543-2.1475.216-4.2832.512-6.407.896-1.669.301-3.335.638-5.001.963-1.0782.21-2.1594.352-3.2671.346-1.7074-.006-3.2877-.438-4.7647-1.28-.9984-.57-1.8432-1.312-2.4606-2.293-.8862-1.406-.963-2.94-.6499-4.509.3072-1.528.7799-3.014 1.2673-4.492.5671-1.713 1.1904-3.41 1.6335-5.159.4608-1.82.8478-3.652.8005-5.546-.0325-1.306-.3988-2.506-1.0634-3.623-.5819-.978-1.2879-1.865-2.0589-2.698-1.0102-1.09-2.0294-2.175-3.0662-3.241-1.3883-1.431-2.5994-2.9937-3.592-4.7223-1.1077-1.9266-1.7723-4.0039-2.112-6.1935-.1743-1.1229-.2334-2.2517-.2068-3.3864.065-2.7894.6587-5.4725 1.666-8.064 1.3352-3.4336 3.2434-6.5245 5.6184-9.3287.384-.4521.6321-.9337.7562-1.4893.2984-1.3474.576-2.6949.8685-4.0423.4992-2.3167.8714-4.657 1.2288-6.9973.1743-1.1524.189-2.3255.3072-3.4868.3308-3.2504.2363-6.5097.1477-9.7631-.0354-1.374-.2363-2.7451-.3427-4.1191-.0974-1.2706-.2569-2.5324-.4608-3.7882-.2097-1.2913-.4519-2.5797-.5937-3.8769-.1654-1.51-.3958-3.014-.5465-4.5269-.1654-1.6637-.2038-3.3214-.1625-4.985.0709-3.0288.579-5.9808 1.7104-8.8057.6794-1.6961 1.6187-3.2149 2.945-4.4974.9512-.91895 2.0589-1.48039 3.3528-1.6961.7916-.13297 1.5478.02955 2.2981.26004 1.1402.35163 2.1032 1.00467 2.9864 1.78476 2.2066 1.9562 3.914 4.2758 5.0453 7.0091.0384.0857.0887.1625.1536.2334 0 .065.0178.1271.0414.1862z" fill="#242f2c"/><path d="m83.7886 73.1584c.1742-.2836.4017-.3073.6646-.1329.1359.0916.2629.192.3958.2896.5376 1.1494.7208 2.3875.9128 3.6227.2215.7742-.068 1.5809.1654 2.3551 0 .3398.003.6826.0059 1.0224.13 2.5264-.2688 4.9938-.9689 7.4021-2.05 7.0475-5.4618 13.2646-11.3047 17.9096-1.8787 1.495-3.8608 2.884-6.3302 3.292-.6086.1-1.0369.786-1.7547.55-.4697.05-.8921-.166-1.3411-.237-.0738-.34.325-.434.39-.815-3.078-.583-5.3053-2.456-7.1515-4.876-.6056-.919-1.1077-1.888-1.3352-2.97-.1329-.6291-.4283-.901-1.087-.8448-.5938.0532-1.1964.0118-1.796.0088-3.1666-.0118-6.6907-3.1706-7.503-5.4341-.0591-.4107-.0857-.8185.0561-1.2174.1507-.3043.387-.4107.7149-.3103.449 2.3876 3.7456 5.18 6.3716 5.3337 1.3736.0798 2.7619.1418 4.0498-.5142 2.7206-1.0372 4.6348-3.1115 6.4042-5.2597 3.524-4.2788 6.3361-9.0126 8.4127-14.1689.1596-.393.1625-.9456.7651-1.0283.3486.0413.6351-.0384.7651-.4078.0354-.1005.0768-.198.1093-.2985.4519-1.4449.8743-2.8928 1.0929-4.3998.0768-.5201.192-1.0343.2127-1.5661.0089-.2039.1211-.4019.1743-.6088.065-.2541.1654-.4757.446-.5318.3427-.068.517.1536.6588.4136-.0118.0355-.0266.068-.0384.1035-.0384.065-.0827.1241-.133.1802-.0236.0266-.0502.0532-.0738.0828-.0473.0561-.1004.1093-.1507.1625-.0708.0857-.1358.1773-.1831.2807-.0709.195-.0591.396-.0561.5969.0059.2748 0 .5466-.068.8126-.0443.1773-.1004.3546-.127.5378-.0236.1802-.0532.3605-.1004.5378-.0355.13-.0768.2571-.1093.3871-.0355.1714-.0709.3457-.1211.5141-.0355.1271-.0739.2512-.1034.3783-.0591.2984-.1418.588-.2806.8598-.0503.1123-.1034.2246-.1477.3399-.0355.1152-.0739.2275-.1182.3398-.0413.1093-.0857.2216-.1211.3339-.0295.1152-.065.2305-.1063.3398-.0414.1152-.0798.2305-.1152.3487-.0296.127-.065.2511-.1064.3753-.0384.1359-.0797.2689-.1211.4048-2.756 7.1332-6.5932 13.572-12.1406 18.9115-1.028.987-2.2421 1.7257-3.5389 2.296-.6498.2866-.7857.6589-.641 1.3146.2186.987.6322 1.865 1.22 2.675 1.4888 2.307 3.5949 3.726 6.221 4.479 2.0293.582 3.8431.154 5.5504-.948 3.914-2.524 6.9093-5.925 9.2783-9.8905 2.7235-4.5565 4.3482-9.4735 4.8858-14.7746.2511-2.4733.0325-4.8549-.6085-7.2307-.1152-.4285-.3515-.8717-.0473-1.3238z" fill="#21201f"/><path d="m65.5756 109.47c.0679-.015.1388-.027.2067-.048.4874-.147.7858-.638 1.2525-.768s.9748-.118 1.4504-.269c1.0575-.334 1.985-.928 2.9155-1.498 3.1282-1.912 5.6125-4.503 7.7511-7.4493 1.5449-2.1275 2.7826-4.4383 3.8254-6.8436 1.0545-2.4348 1.858-4.9613 2.3247-7.5823.2422-1.3563.4904-2.7126.4667-4.0985-.0029-.2127.0118-.4255.1654-.5969.3456 1.2854.2895 2.6063.195 3.9005-.0768 1.0401-.2422 2.0951-.5701 3.1056-.2275.7033-.4608 1.4036-.6853 2.1099-.3958 1.244-.8212 2.4791-1.1727 3.732-.3456 1.2381-.9482 2.364-1.5095 3.4957-.6882 1.3859-1.4445 2.7481-2.369 4.0069-.8567 1.164-1.6158 2.408-2.5611 3.493-1.1579 1.326-2.3513 2.665-3.8401 3.634-1.3027.848-2.7265 1.442-4.3039 1.685-1.1993.183-2.3868.195-3.5861.162.0119-.059.0266-.115.0473-.171z" fill="#99372f"/><path d="m38.7381 25.1177c.0178-.3841-.0472-.7624-.0827-1.1406-.1093-1.2145-.5612-2.3758-.5287-3.608.2747.3901.4106.8245.4283 1.2973.0502.065.0945.1329.1359.2038.062.4374.3101.8333.2895 1.2884.0531.0591.0915.1241.1211.195.5908 2.3965 1.0634 4.8165 1.3883 7.2662.3102 2.3432.5288 4.6894.6676 7.0534.0857 1.4833.1684 2.9667.1063 4.4442-.0709 1.7227-.0974 3.4543-.3338 5.1711-.062.4521-.0354.916-.0502 1.377-.2835.9574-.2658 1.9562-.384 2.9342-.2511 2.0655-.5081 4.131-.8241 6.1877-.0473.3102-.0739.6264-.1152.9987-.387-.3339-.3368-.7358-.3161-1.1081.0532-.916.1241-1.832.2127-2.7451.0975-.984.2363-1.9621.3308-2.9431.1093-1.1583.1507-2.3255.2954-3.4809.1802-1.445.1211-2.8929.1861-4.3378.0473-1.0579.192-2.1099.1418-3.1707-.1004-2.1157-.1566-4.2314-.319-6.3442-.2334-3.0318-.6765-6.031-1.2998-9.0066-.0354-.1714-.0324-.3516-.0472-.526z" fill="#201818"/><path d="m85.931 79.2935c-.1447-.1714-.1536-.3782-.1536-.588-.0029-.588-.0088-1.1761-.0118-1.7641.133.13.1832.2925.1832.4728-.003.6264-.0118 1.2558-.0178 1.8823z" fill="#99372f"/><path d="m37.2556 17.6534c-.1005-.0444-.1595-.1182-.1536-.2335.0502.0768.1004.1566.1536.2335z" fill="#99372f"/><path d="m30.0075 141.439c-.065.029-.13.059-.195.088.0473-.068.1004-.124.195-.088z" fill="#23302c"/><path d="m38.6906 21.8699c-.0443-.068-.0886-.1359-.1359-.2039.0443.068.0886.1359.1359.2039z" fill="#242f2c"/><path d="m39.1055 23.3532c-.0414-.065-.0827-.13-.1211-.195.0413.065.0827.13.1211.195z" fill="#242f2c"/><path d="m45.9735 94.3636c.8625 1.6784 2.1918 2.9342 3.7426 3.9507 1.1077.7269 2.3572 1.0963 3.6924 1.1643.8803.0443 1.7576.0679 2.6851-.0887.2009.7061.3515 1.4301.6144 2.1071.2688.685.6499 1.327.9837 1.988 1.474 2.223 3.2139 4.149 5.7188 5.251.3131.139.7237.311.2304.733-.6617.47-1.3293.934-1.988 1.413-1.7074 1.235-2.7442 2.925-3.2936 4.934-.3634 1.333-.5524 2.698-.6971 4.072-.2245 2.143-.3309 4.303-.839 6.407-.2067.859-.4401 1.713-.8212 2.517-.1506.319-.3042.641-.4933.937-.3633.558-.8743.883-1.5567.993-.8803.139-1.7605.15-2.6437.201-2.4016.136-4.8061.233-7.1988.458-3.2375.301-6.4632.727-9.6711 1.264-1.5331.257-3.0544.588-4.5786.907-1.3234.278-2.6556.453-4.0056.334-1.9673-.174-3.713-.871-5.0866-2.343-.7503-.804-1.158-1.743-1.1846-2.869-.0295-1.229.26-2.391.6115-3.54.5938-1.927 1.1993-3.85 1.8462-5.762.6853-2.021 1.1225-4.093 1.3588-6.206.2925-2.632-.4667-4.97-2.115-7.023-.5524-.689-1.1402-1.354-1.7399-2.004-1.1047-1.197-2.2568-2.352-3.3468-3.561-1.9968-2.2098-3.5122-4.7008-4.2743-7.6085-.6055-2.3196-.7355-4.6658-.4519-7.0474.573-4.7693 2.564-8.9417 5.3111-12.8008 1.0073-1.4154 2.1328-2.7362 3.3498-3.9744 1.9702-2.0064 4.2271-3.6582 6.6256-5.112 2.7442-1.6636 5.6805-2.8633 8.8087-3.5961 1.3588-.3192 2.7323-.4314 4.1118-.2985 1.3647.13 2.6054.5999 3.6186 1.5927.9128.8924 1.3322 1.9798 1.4297 3.2209.1979 2.5294-.6558 4.7279-2.1268 6.7313-.9098 1.2411-2.053 2.2428-3.2818 3.15-1.5125 1.1169-3.1135 2.0921-4.7972 2.9342-.8862.4433-1.7724.8894-2.6586 1.3356-.3485.1773-.6882.3694-.9423.6767-.2865.3457-.2333.7594.1507 1.0017.1447.0916.319.1537.4874.1921.3781.0857.765.1389 1.1461.2157 1.7665.3546 3.3734 1.0076 4.7056 2.2842 1.0132.9721 1.6099 2.1512 1.9319 3.475.3013 1.2469.3249 2.5087.1181 3.7911-.3958 2.4556-1.3233 4.6865-2.6614 6.7609-.2305.3546-.4402.721-.6588 1.0845-.5524 1.4031-1.7192 2.3021-2.7678 3.2711-1.1314 1.046-2.3927 1.941-3.7633 2.662 2.561-.786 4.3157-2.712 6.2269-4.417.0768-.068.1565-.1273.2392-.1923.0384-.0355.0798-.068.1182-.1005 1.8757-1.7109 3.3941-3.6818 4.3777-6.034.2954-.7032.7119-.9308 1.4918-.718 1.0131.2778 2.0204.6383 3.0986.6235.452-.0059.709.2423.8094.6737z" fill="#c54256"/><path d="m83.786 73.1584c.0532.6058.3072 1.1583.4549 1.7404.5347 2.1099.7031 4.2374.5229 6.4152-.1773 2.1246-.5436 4.2049-1.1107 6.2556-1.3736 4.982-3.6629 9.4882-6.9802 13.4654-1.7575 2.11-3.7692 3.924-6.0378 5.47-1.1107.759-2.3454 1.143-3.6392 1.386-.2068.038-.4254.041-.6351.017-3.462-.422-6.2387-1.956-8.0761-4.999-.3928-.754-.765-1.516-1.0457-2.32-.2333-.6649-.1092-1.1495.644-1.4066 3.6245-1.2351 6.1176-3.865 8.3094-6.8347 2.18-2.952 3.5831-6.3383 5.261-9.574 1.533-2.9638 2.9746-5.9482 3.6481-9.2518.2392-1.1761.2776-2.3935.7178-3.5282.0236-.1094.0797-.198.1624-.2689v.0147c.4284-.1507.8567-.3043 1.285-.4521 1.6453-.5703 3.1046-.2127 4.3984.9072.6942.5999 1.282 1.2913 1.6749 2.1364.1329.2837.2954.5526.4431.8304z" fill="#c54256"/><path d="m72.5223 77.1356c-.257.26-.3427.6087-.4697.9367-1.8905 4.8697-4.5667 9.2932-7.692 13.4597-1.1254 1.4981-2.4075 2.8603-3.8076 4.1073-1.0339.9219-2.1712 1.6873-3.4975 2.1364-2.3306.8924-4.3422.0414-6.283-1.1583-.963-.594-1.8757-1.2677-2.7028-2.0419-.6883-.6441-.6765-1.0608.1063-1.4893 3.6245-1.9827 5.4175-5.375 6.8945-8.977 1.4031-3.4277 1.988-7.0564 2.3425-10.7293.1477-1.51.4933-2.9904.9009-4.4561.0502-.1063.1241-.1891.2245-.2511.511-.3369.8478-.8422 1.2554-1.2825 1.5331-1.6577 3.2671-3.0229 5.4559-3.7291 3.9465-1.2736 7.3908.8392 8.5901 4.3112.4785 1.3829.4696 2.7718.1447 4.1813-.3338 1.4508-.7355 2.8781-1.2643 4.2698-.0856.2305-.13.4758-.1949.7122z" fill="#c54256"/><path d="m44.4987 59.7378c.9275-1.4775 2.2214-2.5354 3.7781-3.2889 2.0471-.9899 4.1325-.5909 5.7336.9929 1.4533 1.4361 2.2568 3.2238 2.7885 5.1504.6528 2.3581.6055 4.7397.13 7.1244-.0414.2038-.0473.4166-.0709.6264.2688.4935.0443.9781-.065 1.442-1.155 4.8963-2.4695 9.7453-4.6968 14.2871-.9068 1.8527-1.9762 3.5961-3.5654 4.9702-.4342.3752-.8507.7564-1.471.7623-.8124-.1418-1.6099.1478-2.4223.0887-.5642-.0384-1.1284-.0296-1.6837-.1655-1.347-.328-1.4326-.4403-1.5094-1.8557-.2068-3.7794-1.5686-6.9234-4.9272-8.983-.7917-.4846-.768-.9603.1122-1.3415 2.1682-.9338 4.0587-2.2842 5.8754-3.7557 3.6629-2.9668 5.193-8.0817 3.6865-12.3102-.3249-.9102-.8478-1.705-1.3706-2.5029-.2452-.3752-.6026-.7239-.3279-1.2381z" fill="#c54256"/><path d="m44.4988 59.7383c.0089.2955.1241.5733.3102.7742.3663.3989.5967.8717.8773 1.3209.9039 1.442 1.3145 3.0051 1.3824 4.7101.1123 2.8722-.9423 5.2923-2.5758 7.5617-.7798 1.0874-1.796 1.8941-2.8062 2.7156-1.0398.848-2.18 1.5631-3.3527 2.2161-.6469.3605-1.347.6176-2.0176.9338-.2422.1152-.251.3546-.0354.4935.0295.0177.0591.0413.0916.0532 1.3499.5141 2.2036 1.6399 3.1489 2.6298.4046.4256.7119.9752.9511 1.5189.5111 1.1583.9689 2.3314 1.0782 3.6316.065.7712.2038 1.5365.1772 2.3137-.0118.3398.1655.4935.4727.5998 1.2997.458 2.629.5112 3.9671.2689.3486-.062.6203-.0206.9069.133-.0178.3901-.3191.5289-.6086.6412-1.8078.6856-3.6244.6856-5.4322 0-.2954-.1123-.5613-.2925-.6469-.6323.1033-.6974.0295-1.4154.2451-2.101.0089-.0325.0059-.0709.0059-.1064-.0206-1.6784-.2717-3.3095-1.0841-4.7988-1.025-1.8822-2.5935-3.147-4.5933-3.8739-.7267-.263-1.4799-.458-2.2184-.6826.0059-.3427.3013-.3841.4992-.4846.7828-.4077 1.5892-.7771 2.372-1.1819 2.1416-1.1111 4.1562-2.426 5.961-4.0246 2.1771-1.9267 3.6688-4.3083 4.1267-7.213.1979-1.247.2186-2.5324-.2068-3.7764-.3013-.8865-.7089-1.6932-1.4208-2.3226-.1034-.0916-.192-.2039-.3309-.3575.2541-.3251.5051-.6471.7562-.9663z" fill="#99372f"/><path d="m40.3835 91.6296c.638.4787 1.4061.6353 2.1534.7476 1.4711.2187 2.9214.0886 4.2921-.5644.0915-.0443.1624-.1271.2451-.1921.5997-.1595 1.0546-.5525 1.5036-.9544.9866-.8806 1.7369-1.9414 2.3897-3.079.9335-1.6252 1.7163-3.3214 2.3809-5.0677 1.4061-3.6966 2.4547-7.4996 3.2848-11.3647.059-.2748.1506-.5437.2274-.8155.192-.1064.3663-.2571.3634-.4728-.0089-.5615.3013-1.0667.2451-1.6341-.0266-.26.1152-.4669.3072-.6294.1211-.1005.2748-.1418.3013.0591.0355.2719.3752.1862.4165.393.0414.2009.0296.4137.0414.6205-.0059.0562-.0177.1094-.0384.1626-.5997 1.442-.6942 3.0022-1.0605 4.5003-1.406 5.7444-3.01 11.4178-6.3509 16.4146-.8596 1.2825-1.9644 2.3137-3.3734 2.9875-.3368.1595-.6794.4284-1.0811.1447-.2482 0-.5111-.0384-.6588.2394-.2717.3073-.6203.4403-1.022.461-1.3943.0709-2.7029-.3133-3.9996-.7535-.2748-.0946-.4579-.3162-.4934-.6265-.0708-.1832-.3131-.3457-.0708-.5703z" fill="#1f1819"/><path d="m35.9877 100.312c-.3338.316-.6735.624-.9985.946-1.1815 1.182-2.5078 2.177-3.9612 3.002-.5553.313-1.1166.629-1.7901.561-.124-.012-.3131.03-.316-.171 0-.077.0945-.189.1743-.228 2.2331-1.004 4.0409-2.576 5.7099-4.323.4638-.4843.8891-1.0014 1.3322-1.5067.2216-.0325.3899-.1596.5051-.331.5554-.8273 1.3293-1.4892 1.8049-2.3787.0738-.1359.2097-.1654.3249-.0118.0739.0443.0946.1064.065.1862-.0295.1004-.0768.195-.1211.2895-.0236.0651-.0532.1271-.0886.1862-.0473.0916-.0975.1832-.1388.2778-.0237.0679-.0562.13-.0916.192-.0502.0976-.1034.1951-.1566.2926-.0768.1389-.1654.2689-.2511.4048-.062.1153-.1211.2305-.1802.3516-.381.8067-1.0929 1.3504-1.6187 2.0415h.0059c-.0532.086-.1388.148-.2097.219z" fill="#1f1516"/><path d="m38.5004 96.5006c.0296-.065.0473-.133.0502-.2039.0591-.0739.1152-.1477.1684-.2246.0266-.065.0443-.13.0473-.1979.3131-.3487.4756-.7772.6262-1.2057.2216-.6294.4342-1.2647.6322-1.9029.0768-.2512.1831-.4551.4312-.5644.8242.7446 1.858.9662 2.9067 1.0815.8684.0945 1.7517.0768 2.6083-.1625 0 .4136 0 .8303-.0029 1.244-.2393-.2748-.5081-.4669-.9069-.4226-.6115.068-1.1816-.1004-1.7635-.2777-.6676-.2039-1.3588-.3339-2.0353-.4935-.2481.1891-.3633.455-.446.721-.4047 1.312-1.2761 2.3521-2.0057 3.472-.6233.9515-1.4622 1.7228-2.2686 2.5147-.0975.0945-.2363.1479-.3545.2189.0148-.3046.2393-.4878.4135-.6976.4225-.5053.8124-1.0283 1.096-1.6252.062-.065.1211-.133.1742-.2069.0798-.1507.1625-.3014.2423-.4521.0709-.0473.124-.1064.1595-.1832.0207-.0709.0384-.1448.0591-.2157.062-.065.1181-.1359.1654-.2098z" fill="#98372f"/><path d="m63.6367 109.47c.0266-.157.1773-.349-.0827-.431-1.1963-.382-2.1593-1.15-3.1459-1.877-.1684-.124-.3161-.28-.4579-.437-.8271-.91-1.5715-1.882-2.2154-2.931-.0503-.083-.0325-.204-.0473-.308.2334.113.3752.319.5228.517 1.3323 1.77 3.0219 3.059 5.1192 3.8.5672.201 1.1461.343 1.7428.42.0532.006.1211.08.1359.136.0177.053 0 .151-.0414.183-.3072.237-.6203.464-.9334.695-.1979.076-.3988.156-.5967.233z" fill="#973730"/><path d="m46.6302 92.8802c1.0487-.2837 1.926-.8629 2.7265-1.575 1.1816-1.052 2.0234-2.361 2.7708-3.7321 1.0693-1.9591 1.9289-4.0128 2.6733-6.1196 1.028-2.9018 1.8432-5.8626 2.567-8.85.2156-.8895.4667-1.7759.5464-2.6979.0355-.4255.1566-.8392.5849-1.0697.0709.5053-.1329.9811-.2393 1.4509-.3013 1.3415-.5228 2.6831-.6232 4.0601-.1005 1.3947-.4077 2.7776-.6647 4.1605-.1388.7594-.3751 1.5011-.5346 2.2576-.3811 1.8084-1.0694 3.4986-1.864 5.1593-.5494 1.1465-1.1284 2.2693-1.8491 3.3213-1.1964 1.7464-2.6497 3.2002-4.5757 4.1369-.0945.0473-.192.0975-.2747.1625-.127.0975-.1654.2394-.065.3664.1536.1921.3191.3842.5052.5408 1.0516.8894 2.1475 1.7316 3.3438 2.4082 1.0782.6058 2.2745.9486 3.5093 1.1022.3131.0384.641.0503.9452-.0679.3043-.1182.6174-.1419.9394-.1153-.6853.3812-1.4149.6235-2.2066.6412-.4608.0089-.9216 0-1.3795.0178-1.0575.0354-2.0352-.2689-2.951-.7476-1.3972-.7269-2.5581-1.7641-3.5772-2.9579-.2274-.2659-.4017-.5821-.5701-.8924-.257-.4757-.2422-.4876.26-.9574z" fill="#98372f"/><path d="m75.9427 69.9061c.0916.6116-.1477 1.1878-.2363 1.7729-.2806 1.8409-.7119 3.6553-1.3204 5.4253-.6114 1.7759-1.4651 3.4424-2.3661 5.0795-.257.4669-.4313.9603-.6735 1.4302-.8891 1.7286-1.7074 3.4927-2.6231 5.2036-.898 1.6784-1.9496 3.2622-3.1193 4.7722-.8714 1.1258-1.9023 2.0862-2.9096 3.0731-.6263.6146-1.3618 1.1111-2.121 1.5661-.9098.5437-1.8343 1.0431-2.88 1.2825-.3811.0886-.5406.4373-.39.8455.2216.593.4874 1.17.7356 1.755.1093.257.2924.49.2481.795-.6853-.71-.9866-1.608-1.2377-2.53-.0177-.068-.0118-.142-.0236-.21-.1832-1.1224-.3988-.9983.8093-1.5391 1.4593-.653 2.7561-1.5572 3.9199-2.6653 1.9526-1.8587 3.6363-3.936 5.1428-6.164 1.7044-2.5146 3.3084-5.0913 4.6111-7.8394.7089-1.4952 1.477-2.9697 1.9082-4.5801.0591-.0621.1034-.13.1418-.2069.0236-.1389.0502-.2777.0739-.4166.0531-.0739.1063-.1478.1536-.2216.0206-.136.0413-.2719.062-.4049.0502-.0797.1034-.1566.1566-.2334.0206-.1359.0384-.2689.059-.4048.0503-.0798.1005-.1566.1536-.2335.0887-.3516.3013-.6737.2659-1.0578.0561-.065.0975-.136.1329-.2128.0266-.2098.0561-.4225.0827-.6323.0532-.068.0946-.1389.13-.2187.0266-.2157.0532-.4314.0798-.6442.0945-.1211.0945-.2777.1417-.4137.0237-.3546.0503-.7092.0769-1.0637.1506-.1892.0413-.4374.1477-.6383.0915-.0975.1831-.1921.2747-.2896.0768-.0354.1329-.0886.1742-.1596l.0207-.0177c.068-.0473.1359-.0443.2009.003z" fill="#983730"/><g fill="#242f2c"><path d="m75.2695 70.3691c.0296.2305.0414.4581-.1476.6383-.0089-.2246-.0621-.461.1476-.6383z"/><path d="m75.0503 72.0723c.0384.1684-.0059.3073-.1418.4137-.0089-.1567.0029-.3074.1418-.4137z"/><path d="m75.9431 69.9049c-.068 0-.133 0-.2009-.003.0797-.0591.1625-.1182.2422-.1773-.0059.0621-.0207.1241-.0413.1803z"/><path d="m74.8331 73.1328c-.0443.0739-.0857.1448-.13.2187.0443-.0709.0857-.1448.13-.2187z"/><path d="m75.7212 69.9199c-.0591.0532-.1182.1064-.1743.1625.0591-.0531.1181-.1063.1743-.1625z"/><path d="m74.0003 75.8867c-.0532.0768-.1034.1537-.1565.2335.0531-.0769.1033-.1537.1565-.2335z"/></g><path d="m39.2055 106.159c.7621.372 1.5567.544 2.3424.733 2.1918.532 4.425.526 6.6523.387.8743-.056 1.7517-.251 2.6083-.458 1.2702-.307 2.5286-.674 3.7869-1.034.3427-.098.6794-.198 1.0369-.201.5405-.003.7946.277.6794.803-.1979.899-.4402 1.785-.7503 2.654-1.093 3.049-2.4843 5.936-4.4752 8.516-.9778 1.268-2.0442 2.461-3.27 3.472-1.3145 1.079-2.7679 1.936-4.493 2.29-1.8284.378-3.3497-.139-4.6938-1.344-1.0959-.984-1.92-2.181-2.5699-3.484-.9334-1.877-1.5951-3.853-2.0441-5.901-.1093-.494-.1063-.981-.1566-1.472-.0354-.34-.1565-.413-.5021-.319-.5111.139-1.025.278-1.5331.429-.6942.206-1.4031.165-2.1091.147-.1713-.006-.3486-.059-.5081-.124-.2452-.1-.4165-.413-.3338-.597.0945-.209.2747-.316.5051-.325.1773-.006.3545-.014.5317-.006 1.5302.057 2.9392-.369 4.2626-1.102 1.1254-.62 2.115-1.406 2.9509-2.393 1.3854-1.634 2.5316-3.404 3.2257-5.446.0886-.26.1773-.565.5406-.568.2659-.003.4254.302.4195.751-.003.29-.0916.553-.1861.821-.3722 1.041-.9276 1.986-1.5095 2.92-.1477.236-.3486.446-.4076.86z" fill="#242f2b"/><path d="m35.9844 100.311c.0266-.115.0915-.192.2097-.221-.0207.121-.0945.192-.2097.221z" fill="#98372f"/><path d="m38.5092 96.5c-.0562.0709-.1123.1418-.1654.2098.0561-.0709.1122-.1418.1654-.2098z" fill="#242f2c"/><path d="m37.8774 97.5605c-.0591.068-.1182.1389-.1743.2069.0591-.068.1182-.1389.1743-.2069z" fill="#242f2c"/><path d="m38.7231 96.0742c-.0562.0739-.1123.1478-.1684.2246.0561-.0739.1122-.1478.1684-.2246z" fill="#242f2c"/><path d="m49.5368 118.081c-.1388-.352.0266-.615.0827-.857.1566-.671.1152-1.315-.0147-1.977-.1625-.819-.5081-1.504-1.09-2.128-1.223-1.317-2.7826-1.891-4.4841-2.166-.5199-.082-1.0221-.242-1.5656-.23-1.2849.027-2.5374.213-3.7219.691-.8537.346-1.604.893-2.2864 1.513-.3397.311-.6557.647-.9895.961-.198.183-.4195.118-.4845-.13-.0916-.34-.0797-.692-.1979-1.037-.192-.565-.3102-1.156-.449-1.738-.0945-.405-.0325-.547.3545-.774 1.0427-.609 2.0027-1.321 2.8387-2.196.2688-.28.5081-.585.7414-.898.3397-.458.6115-.55 1.096-.304 1.087.546 2.2331.874 3.4265 1.043 1.8492.26 3.6865.422 5.577.189 1.799-.222 3.53-.644 5.2551-1.141.5405-.156 1.0634-.375 1.5951-.555.1388-.048.2777.103.2393.251-.3132 1.232-.7415 2.426-1.1964 3.614-.6971 1.82-1.5922 3.543-2.6319 5.186-.4904.774-1.0664 1.492-1.6158 2.225-.1211.162-.2954.289-.4786.461z" fill="#742e27"/><path d="m35.7867 114.976c.9305-1.238 2.0619-2.245 3.5152-2.807 1.2997-.499 2.6408-.682 4.0528-.461 1.2052.192 2.3159.567 3.4177 1.082 1.7989.839 2.7619 3.475 1.7665 5.153-4.1621 3.23-10.4304 2.76-12.7078-2.562-.0562-.133-.0916-.266-.0414-.408z" fill="#a74736"/><path d="m35.7818 114.977c.1507.239.322.466.4461.718.508 1.037 1.3115 1.832 2.1327 2.609.3161.298.7089.467 1.093.641.9688.44 1.9643.7 3.0543.742 1.5745.056 2.9894-.393 4.3866-1.014.5465-.242 1.0398-.606 1.6394-.727.0414.792-.2806 1.451-.8182 1.989-1.2938 1.297-2.824 2.228-4.62 2.609-1.2022.257-2.3424.08-3.3881-.724-.7119-.549-1.3027-1.176-1.8196-1.885-.9542-1.318-1.666-2.766-2.2125-4.299-.0886-.252-.1418-.476.1063-.659z" fill="#682c23"/></svg>