<svg fill="none" viewBox="0 0 95 108" xmlns="http://www.w3.org/2000/svg"><path d="m94.8078 60.0328c-.2271-1.3859-.7125-2.6681-1.4642-3.8504-.5951-.9337-1.245-1.8302-1.9242-2.7052-.3837-.4953-.7125-1.0199-.9709-1.5895-.0842-.1879-.1683-.3817-.2799-.554-.1527-.2388-.2271-.4952-.278-.7712-.4502-2.3627-1.0981-4.6666-2.0906-6.8629-.9552-2.1199-2.1767-4.0618-3.8856-5.6688-2.255-2.118-4.925-3.2005-8.0256-3.1672-1.0864.0117-2.1591.1781-3.2102.4619-2.672.7184-5.0425 2.0162-7.2173 3.6977-.1448.1135-.2857.2329-.4326.3426-.0743.0567-.182-.004-.1879-.1077-.0078-.1135-.0098-.229-.0098-.3445-.0039-.7165-.0058-1.429-.0039-2.1454 0-.1605-.0333-.323.0509-.4737.9533-.2036 1.3761-.8359 1.196-1.8029-.0039-.0234-.0137-.045-.0176-.0665-.0509-.2447.0411-.4287.276-.554.0587-.0313.1233-.0607.1821-.0959 1.0022-.5598 1.47-1.6482 1.0159-2.7757-.0489-.1214-.1566-.2349-.0724-.3915.3092-.0626.6283-.1155.9396-.1977 2.482-.6597 4.0539-2.6817 3.9032-5.2519-.0607-1.0512-.2976-2.0514-.8222-2.9714-.0352-.0588-.0724-.1175-.1037-.1782-.0627-.1311-.0118-.2192.1096-.276.1272-.0567.2603-.1018.3797-.1683.738-.4209 1.2137-1.0531 1.427-1.8694.1801-.6969-.0313-1.2724-.6029-1.7147-.2975-.231-.6342-.3759-1.0002-.4522-.1096-.0235-.2251-.0431-.2702-.1742.0783-.1762.2565-.2604.3876-.3857.4522-.4306.8574-.9004 1.1765-1.4407.9669-1.6344.0332-3.1632-1.0551-3.7329-.4326-.227-.8907-.3758-1.3742-.456-.1272-.0216-.2779.0215-.4052-.141.1175-.1722.2389-.3621.368-.5461.4424-.6303.7713-1.30761.9064-2.07299.2114-1.21559-.233-2.26479-1.2567-2.9225-.1723-.11158-.3583-.21728-.5501-.28579-1.7187-.62248-3.4197-.71252-5.0816.19183-.0998.05481-.1957.12528-.321.05481-.0548-.25056.0156-.50111.0215-.75167.0352-1.66385-.3993-2.96949-2.2041-3.79554-1.5816-.722309-3.222-.736012-4.8467-.12528-.9239.34843-1.6012.99048-1.9868 1.91441-.0372.08417-.0607.17226-.1018.25643-.0548.1194-.1586.13311-.276.03719-.0705-.05677-.1331-.12919-.2056-.184-1.3976-1.059-2.9401-1.38981-4.6314-.86521-.9983.30928-1.7304.95329-2.206 1.87526-.4385.84955-.4463 1.72454-.0666 2.6054.0685.16443.2212.29949.186.52852-.3034.06851-.6147.12723-.9239.20945-2.1474.57745-3.6409 2.25501-3.8974 4.36908-.0509.4169-.0391.8319.0744 1.2352.278.9807.9416 1.4407 1.9555 1.3682.1977-.0137.3954-.1018.5951-.0078.0411.184-.0803.3152-.139.46-.139.3445-.2212.6969-.2388 1.0708-.0626 1.3584 1.1158 2.1982 2.3274 1.9516.1351-.0294.2702-.0588.4033-.092.0802-.0196.1409.0234.1644.0841.0235.0587.0196.139.0039.2016-.0313.1214-.139.1782-.2349.2408-.2525.1644-.4835.3524-.6929.5696-1.5503 1.6091-1.5954 4.4102-.0979 6.0662.2506.278.5383.5012.873.6695.139.0705.323.0724.4013.2506-.0724.184-.2584.2486-.3993.3503-.4698.3367-.9278.6871-1.3272 1.106-.3092.323-.5422.6871-.6518 1.1236-.1899.7497.0842 1.5542.6871 1.9614.2662.1781.5539.323.8319.4854-.0646.3328-.1331.6656-.1977.9984-.0098.045-.0078.09-.0157.137-.0333.182-.1213.227-.2858.1174-.6381-.4189-1.3115-.7712-2.0142-1.0668-2.0828-.8809-4.2497-1.3781-6.5145-1.4192-1.7421-.0332-3.4549.1508-5.107.736-1.9888.7087-3.6076 1.9262-4.8702 3.6096-.1703.2291-.368.4052-.6068.552-.8652.5325-1.6932 1.1197-2.4997 1.7363-1.3663 1.0473-2.2296 2.441-2.8129 4.0265-.2388.6519-.3621 1.3331-.321 2.0358.0215.3739.0939.7341.276 1.061.2858.5206.7614.5911 1.1999.1996.1311-.1155.1762-.3288.413-.368.0216.2134.0294.417.0646.6147.0548.2936.1116.5911.2917.8417.2779.3895.7125.4482 1.0825.1507.182-.1468.3053-.3406.4228-.5403.1018-.1703.1331-.3895.3465-.5402.0528.319.0998.6068.1468.8926.0332.2075.1037.4032.2133.5814.231.3699.6108.5011 1.0199.3523.1761-.0646.323-.1742.458-.3034.2388-.2251.4052-.4992.5599-.785.2975-.552.4932-1.1431.6772-1.7362.1429-.462.28-.9259.4268-1.3879.043-.1311.0783-.2721.2349-.319l.0098-.0098c.1663.135.1409.3288.1526.5069.0274.4366.0372.875.0764 1.3116.0352.368.0979.734.3367 1.0394.3053.3915.7712.4443 1.1549.1292.2388-.1958.3895-.4561.5011-.736.1879-.4757.2799-.971.3014-1.4838.047-1.1256-.182-2.2022-.6029-3.2377-.1311-.3249-.092-.5539.1155-.8182.6871-.8711 1.611-1.2763 2.6739-1.4348 1.2274-.184 2.4371-.0548 3.637.2153 2.3138.5207 4.3711 1.5875 6.2248 3.0439.8143.6401 1.6012 1.3213 2.3744 2.0123.8261.7379 1.609 1.5229 2.2785 2.4076.4972.6558.4992.691.139 1.4192-1.3918 2.8109-2.7287 5.6454-3.7897 8.6031-.0391.1038-.0587.229-.2388.2604-1.149-.5481-2.4057-.8222-3.6859-1.0121-.6147-.09-1.2352-.1585-1.8518-.2309-2.0495-.2408-4.1009-.2056-6.1425.0587-2.6779.3484-5.2108 1.1784-7.6107 2.4136-.1233.0626-.2466.1252-.3641.1977-.4071.2505-.6127.6146-.6009 1.0942.0058.182.0176.368.0509.5481.0841.4522.18.9043.276 1.3545.0802.3876.0802.3896-.2584.5012-1.3135.4345-2.627.8671-3.9404 1.3056-.5011.1664-1.0081.3288-1.4994.5285-.1997.0822-.3387.0666-.5031-.0528-.6558-.4698-1.3115-.9416-1.9771-1.3957-.9532-.6538-1.977-1.1804-3.0556-1.6012-1.3076-.509-2.6621-.7478-4.0637-.6812-.91804.045-1.78912.2231-2.40376 1.0218-.20945-.1468-.39346-.278-.58333-.4072-.75559-.5148-1.58751-.8417-2.49578-.9591-1.46027-.188-3.12021.2094-4.028479 2.1316-.107661.2291-.20945.462-.287749.7028-.313196.9513-.414984 1.934-.377792 2.9323.041107 1.0453.260344 2.0553.579412 3.0478.608778 1.8909 1.333038 3.7309 2.235438 5.5024.1703.3347.16638.3387-.13507.5422-1.31151.8926-2.194327 2.1043-2.605396 3.6292-.530476 1.9672-.070469 3.6977 1.389806 5.1305.7732.7576 1.70692 1.2548 2.75025 1.5308.64792.1703 1.30759.2877 1.98292.2251 1.31151-.1253 2.44097-.6656 3.39034-1.564.48739-.462.41699-.5051.93759.0548.0255.0293.0235.0802.0412.1448-.0568.0568-.1175.1233-.1801.1879-.0627.0646-.1331.1292-.1938.1958-.77714.8554-1.0923 1.8537-.89851 2.9988.28579 1.6835 1.21561 2.9167 2.70331 3.7192 1.2058.6499 2.4683.7008 3.7407.184.6675-.2721 1.2782-.6342 1.7911-1.1549.2133-.2173.2368-.2094.4678-.0587.0764.0509.1527.1037.2271.1586 2.5271 1.791 5.1932 3.3453 7.9826 4.692 2.1395 1.0336 4.277 2.0632 6.3852 3.1633.1645.0861.3309.1664.4914.2584.1076.0607.1663.1527.1115.2838-.0606.1507-.1292.2976-.1742.4522-.6107 2.0416-.2133 3.8347 1.3585 5.3089 1.6678 1.566 4.4552 1.805 6.1504.115.0626-.062.1292-.137.2603-.076v.73c-.0098 1.513.5462 2.799 1.6502 3.819 1.2978 1.198 2.8324 1.564 4.4865.924 1.611-.622 2.6818-1.832 3.2592-3.465.184-.524.2134-1.074.2153-1.609.045-.029.0627-.055.0822-.055.2291-.007.4581-.019.6871-.015 1.2097.023 2.3901-.141 3.5391-.527.6147-.207 1.2019-.47 1.7265-.859.7086-.5267 1.1784-1.2216 1.4466-2.0574.2564-.7948.2956-1.5836-.0724-2.3588-.0725-.1507-.0333-.2642.0998-.3543.2682-.1801.5324-.366.8006-.5461.6205-.4209.9141-1.0062.9259-1.7559.0137-.8769-.0157-1.75-.1664-2.6171-.0528-.2897-.1586-.5794-.1018-.8868.0157-.0802-.0215-.1879-.0705-.2564-.1703-.2329-.2035-.5089-.274-.7751-.4072-1.5621-.5501-3.179-.9709-4.7391-.0568-.2094-.0098-.274.2271-.3249.6538-.1449 1.2939-.3328 1.9183-.5814.4071-.1644.8006-.3582 1.1588-.6146.4894-.3504.8319-.8026.9474-1.3957.3563-1.7931.3582-3.5724-.2486-5.3224-.0724-.2134-.1527-.4248-.2114-.5951.0372-.1409.1155-.1468.1781-.1585.3132-.0587.4659-.2741.5384-.5618.0234-.0881.0548-.1781.0567-.2701.0078-.2349.1547-.3054.3543-.3485 2.0045-.4345 3.5842-1.5425 4.8369-3.1261.9416-1.1862 1.4916-2.5349 1.4897-4.0774 0-.3151.0058-.3425.3347-.3934.5344-.0822.8006-.3935.781-.9533-.0176-.505 0-1.0159-.0411-1.519-.0783-.9435-.1292-1.8851-.1546-2.8305-.0372-1.337-.0822-2.6739-.1429-4.0089-.0744-1.658-.1684-3.316-.0744-4.9759.0137-.2056.0196-.415.0059-.6205-.0137-.2252-.1136-.3348-.3465-.3543-.2564-.0196-.507-.0509-.7458-.1351-.4482-.1586-.4385-.2095-.4248-.5892.0509-1.427.0979-2.854.1429-4.283.0059-.1898.0627-.3601.1547-.5226.783-1.4211 1.9496-2.3137 3.5704-2.5623.5951-.0901 1.1941-.0666 1.7911.0372 1.012.1761 1.9477.5559 2.8344 1.0668 1.4153.8202 2.6074 1.9007 3.6409 3.1554 1.84 2.2296 3.04 4.7684 3.6585 7.5911.0685.3132.0333.5559-.1194.8417-.8593 1.6149-1.149 3.3414-.8769 5.154.0313.2036.0959.4052.1742.5971.1429.3504.3269.6831.7595.7184.4326.0352.6675-.2604.8535-.5951.088-.1605.1644-.3308.229-.5011.0724-.1938.1311-.3935.1899-.5931.1057-.3543.2035-.7106.3131-1.061.0744-.2427.1547-.4854.2526-.7184.0665-.1644.1194-.3954.3386-.3856.2036.0098.276.229.3484.3935.092.2094.1782.4247.2428.6459.1076.3778.184.7615.1918 1.1569.0098.4854.0157.967.0157 1.4524 0 .4855-.0118 1.014-.0157 1.521-.0039.3269.0548.644.1703.9474.2995.7928.9729.9337 1.564.3328.231-.2349.3739-.5207.5129-.8143.0646-.139.0489-.3289.2662-.4209.0568.139.1076.2819.1762.415.0841.1625.1644.3347.2779.4737.3426.413.8143.4404 1.2137.0881.1937-.1703.3249-.3876.4306-.6186.1644-.3601.2545-.7399.323-1.1275.0313-.1722-.0039-.368.1468-.5383.1938.141.2192.3563.3171.5227.368.6283.9513.7262 1.4936.2407.4169-.3778.6009-.871.6479-1.4113.0372-.4346.0274-.873-.045-1.3096zm-41.7275 29.413c-.1448.1722-.2897.3777-.5579.3601-.2525-.0176-.505-.0411-.7555-.0881-1.2235-.2329-2.4371-.5128-3.6311-.8691-3.5098-1.0453-6.8532-2.4586-9.9518-4.4297-3.3689-2.1415-6.7259-4.2947-9.9107-6.7083-2.9069-2.2022-5.7139-4.5257-8.3115-7.09-.4756-.4698-.9376-.9552-1.3996-1.4368-.092-.0959-.1703-.2074-.272-.3288 1.0805-1.0531 2.1767-2.0319 3.4314-2.8207.1155-.0725.2427-.1331.3739-.1782 1.611-.5618 3.2239-1.1177 4.8349-1.6756.0862-.0313.1743-.0548.2663-.0802.1017-.0294.1879.0117.2349.0959.0783.1409.137.2917.2094.4365.2486.4953.4992.9866.7458 1.4818.2838.5736.7438.7928 1.3683.6812.3641-.0646.7262-.1292 1.0864-.2035 1.1294-.2349 2.2491-.5109 3.3903-.6793 2.3333-.3445 4.6451-.2819 6.9275.3543 1.1882.3308 2.302.8241 3.267 1.6091.231.1879.4561.3914.6538.6126.233.2604.28.5462.1077.8868-.4385.8671-.7497 1.7832-.9513 2.7346-.3759 1.7695-.3191 3.5273.1292 5.2773.3895 1.5249.963 2.9812 1.7206 4.3652.0646.1213.1409.2388.2094.3582.3896.6734.967 1.1001 1.7167 1.3017.7595.2036 1.5269.37 2.3118.4111.4502.0235.7086.1859.8652.6166.278.7556.6166 1.4916.9102 2.2413.3074.7947.5716 1.609.9298 2.3842.0548.1214.1605.2603.0548.3837z" fill="#242f2c"/><path d="m50.3025 98.6259c-1.2235-.2506-2.3979-.6538-3.5626-1.0962-2.0045-.7634-3.962-1.6384-5.9292-2.4938-1.4583-.6342-2.9147-1.2782-4.375-1.9085-1.9731-.8515-3.8464-1.8929-5.6982-2.9754-1.93-1.1314-3.8582-2.2628-5.7354-3.4765-2.345-1.5151-4.6079-3.1437-6.7591-4.925-2.1356-1.7676-4.1225-3.6898-6.0408-5.6845-2.31959-2.4135-4.49434-4.9465-6.38722-7.7144-.90044-1.3134-1.71866-2.6739-2.36463-4.1361-.7223-1.6365-.99244-3.3473-.90239-5.1247.02153-.3934.13506-.7693.27013-1.1392.08417-.233.25056-.3739.48937-.4463.56766-.1684 1.14708-.1645 1.71474-.0646.92197.1585 1.76564.5207 2.50948 1.0942-.02544 2.4116 1.58947 4.1009 2.72872 5.9683 1.1588 1.8949 2.6915 3.5019 4.5942 4.7156 1.2293.783 2.5212 1.333 4.0206 1.2156.094-.0079.1762.043.2565.09.135.1253.2779.2427.4052.3739 2.1101 2.1669 4.4199 4.1087 6.7846 5.9879 4.0108 3.1907 8.3036 5.9723 12.6648 8.6501 2.1513 1.3213 4.4709 2.2843 6.8394 3.13.5638.2016 1.1373.3778 1.7069.5618.1488.0489.2878.1096.415.2486-.2388.0058-.4796.0117-.7184.0215-.7184.0274-1.4191.1449-2.0964.3935-.3289.1213-.6303.2838-.8985.5089-.7223.6088-.9259 1.4857-.5814 2.3783.2173.5638.5677 1.0531.9709 1.4995.139.1546.278.3073.4131.4619 1.4172 1.3761 2.9244 2.6191 4.7997 3.3355.2329.0881.5168.1195.6636.3328.1781.2604.0509.3171-.2036.2114z" fill="#bf85a9"/><path d="m65.3791 65.8422c-1.981.0529-3.8993-.2917-5.7726-.9298-1.705-.5794-3.3649-1.2704-5.0151-1.9829-1.7989-.7771-3.3805-1.8831-4.8467-3.1633-1.2508-1.0903-2.4762-2.2119-3.7211-3.3101-.2604-.229-.325-.4521-.2134-.7888.5638-1.6854 1.1843-3.3454 1.8948-4.972.8848-2.0299 1.842-4.0246 2.8442-5.9977 1.0277-2.0221 2.2766-3.9013 3.6664-5.6884.1605-.2036.323-.2897.5833-.2702.9768.0823.7145-.1076 1.0316.8555.0822.2505.0372.4991-.0548.7438-.323.8691-.4992 1.7715-.5814 2.6954-.0978 1.1393.0196 2.255.3582 3.3473.096.3093.233.6029.4052.877.6538 1.0433 1.7167 1.4876 2.9167 1.2058 1.1255-.2643 2.0984-.8222 2.9616-1.5778 1.3115-1.149 2.2648-2.5408 2.8286-4.1948.3054-.8946.5814-1.7989.7575-2.7268.0274-.137.0431-.2779.139-.3856.0274-.0313.0764-.0431.1194-.0548.0548-.0157.0822.0156.0822.0763 0 .1155.0039.231-.0058.3445-.1606 1.842-.1469 3.686.0743 5.5201.1273 1.0531.3074 2.0984.6969 3.0948.1507.3856.3249.7634.5148 1.1314.4581.8867 1.1608 1.474 2.1435 1.7167.3601.0881.3856.1135.3523.4678-.1507 1.613.0137 3.226.0528 4.835.0529 2.1434.1703 4.281.2663 6.4225.0215.46.0646.918.088 1.378.0118.2291.004.46 0 .691-.0058.184-.1135.2936-.2916.3347-.045.0098-.0901.0216-.137.0235-1.2195.0588-2.4253.2878-3.6507.28h-.4855z" fill="#ebca63"/><path d="m62.2079 18.9804c-.0391-.4091.0294-.8358.1918-1.2508.0333-.0822.0548-.1742.0607-.2662.0118-.1586-.1742-.3171-.319-.278-.0646.0196-.1292.0529-.1899.0783-.6049.2682-1.2411.3171-1.8909.2838-.3446-.0176-.5971-.1996-.8437-.4189-.3289-.2916-.5011-.6146-.4816-1.0805.0235-.5089.0392-1.0081.2506-1.4838.0548-.1252.0666-.274-.0352-.3914-.0685-.0803-.2819.0137-.3915.1937-.2173.3583-.3856.7439-.3582 1.1687.0254.3895-.1645.5774-.4835.7418-.3739.1919-.7615.3504-1.1667.4033-.8006.1037-1.5327-.0313-2.163-.6303-.7791-.7419-.8339-1.6423-.7047-2.6054.045-.3152.139-.6225.2016-.9377.0137-.0665-.0332-.135-.1096-.1487-.0411-.0079-.0939-.0039-.1292.0176-.1409.0861-.2466.2075-.2897.3719-.1683.6147-.4306 1.2215-.1781 1.8811.0802.2134-.0039.4033-.1664.5618-.1331.1312-.2721.2467-.4424.325-.2094.0979-.4189.1957-.6146.3132-.4698.2799-.9846.227-1.4838.1703-.4913-.0548-.83-.5011-.8554-1.0316-.0196-.3895-.0078-.783-.0118-1.1745 0-.1018-.0509-.186-.1526-.1918-.0568 0-.1351.045-.1703.092-.141.1859-.231.3954-.2212.6381.0117.3191-.0098.6362.092.9553.137.4228.0254.8201-.2937 1.1451-.0959.0979-.2016.1899-.2897.2956-.3543.4189-.8025.5383-1.3467.5637-.6107.0274-.9239-.3249-1.2508-.7184-.0431-.0509-.0783-.1233-.0783-.1859-.0039-.4796-.1018-.9631.1605-1.4192.2388-.417.3934-.8867.7751-1.2136.1116-.096.1684-.2252.0548-.3641-.1076-.1312-.2681-.1664-.4326-.0509-.2897.2055-.6283.2779-.9552.3836-.1312.0411-.2682.0823-.4013.0803-.2701 0-.5696.0861-.7947-.1331-.2741-.2682-.552-.5011-.6714-.9259-.2193-.7732.0058-1.4681.2721-2.1415.5167-1.31148 1.4876-2.17864 2.8305-2.63473.4169-.14094.826-.28384 1.2762-.25252.141.00979.2721-.02349.3915-.10766.2251-.16051.2878-.35234.1664-.59703-.0704-.14289-.1703-.27209-.2545-.40911-.5774-.96895-.4463-1.96726.2682-2.88727.1664-.21728.3896-.38954.5814-.59116.1644-.17226.368-.27405.5814-.36605.5324-.22902 1.104-.32298 1.6697-.38758.3504-.03915.7243.07439 1.0805.15268.2682.05677.5305.1566.7869.25839.3661.14681.7047.33473.9748.63618.184.20553.3837.40128.5932.57941.2603.21924.5461.13507.6577-.17617.0313-.08417.0606-.17813.0587-.26817-.0059-.31907.135-.59508.3034-.83389.5187-.73014 1.1823-1.27431 2.0847-1.49159.6812-.16443 1.3702-.18596 2.0573-.1429.8124.05481 1.6071.26035 2.2707.73601.6362.45805 1.1725 1.01985 1.3271 1.86156.1136.6166.2036 1.21755.0196 1.83611-.0705.23881-.0235.49915-.1096.74775-.0626.18009.09.29754.2212.38954.1409.09787.2643.03132.368-.07438.4972-.50895 1.106-.8104 1.7891-.98853.1801-.04893.3543-.092.5403-.09004.462 0 .9259-.02741 1.3839.00783.736.05481 1.4309.25251 2.0808.63618.9553.56571 1.1823 1.68342.9553 2.58386-.2506.9944-.832 1.78128-1.4701 2.54278-.1194.1429-.2643.2682-.2408.4756.0079.0627.0333.1488.0783.1782.0451.0274.1351.0137.1879-.0157.0783-.043.1429-.1155.2134-.1742.092-.0783.1879-.1077.3152-.0861.5931.1037 1.1627.2642 1.6893.5637.6107.3465 1.0374.8339 1.1979 1.5249.0686.2936.0725.5912-.0195.8848-.1605.5109-.3817.9807-.7869 1.3545-.3739.3426-.7223.7126-1.0806 1.0708-.1135.1135-.2329.2251-.3308.3523-.1585.2036-.0509.4972.2056.5305.2955.0411.5911.0529.8789.1566.2662.0959.4991.2212.7027.4209.4894.4835.599.8064.2877 1.4152-.3386.6675-.8103 1.2313-1.6012 1.4172-.1566.0372-.2662.0137-.3738-.09-.1664-.1605-.3211-.3387-.507-.4679-.6949-.4815-1.4466-.8006-2.3157-.7575-.0685.0039-.139.0039-.2075 0-1.1001-.0763-2.0808.2917-3.0165.8202-.1664.0939-.3249.1487-.5148.1585-.3288.0177-.6381-.0509-.9455-.1546-.6263-.2075-.8867-.6949-.9826-1.2959-.0294-.1781-.0039-.368-.0039-.5872h-.0039z" fill="#88524d"/><path d="m66.7715 38.7424c2.0984-1.4289 4.3593-2.5095 6.8589-3.0008 2.5859-.505 5.0953-.276 7.4502 1.0042 1.5875.8613 2.8794 2.0573 3.9658 3.4902 1.2822 1.6873 2.2081 3.5587 2.9245 5.5435.6029 1.6717 1.0531 3.3865 1.3761 5.1345.0705.3797.0998.781.4385 1.057.0646.0548.0998.1547.135.2388.3211.7498.8183 1.3859 1.2959 2.0358.5461.7419 1.0805 1.4955 1.5855 2.2648.783 1.1921 1.2587 2.5095 1.4623 3.9208.0587.4091.0607.83-.0764 1.2313-.045.1311-.0881.2662-.1605.3817-.1194.1977-.2545.4208-.507.4228-.2858 0-.3464-.276-.4169-.4835-.2917-.8495-.5657-1.7069-.8554-2.5565-.1488-.4365-.3152-.8652-.4796-1.2958-.0568-.1507-.1175-.3015-.2545-.4032-.0783-.0588-.1703-.0803-.2603-.0549-.1214.0372-.1958.1351-.1977.2545 0 .1116.0352.2251.0665.3347.1057.3524.2154.7047.3289 1.0551.2956.9161.3093 1.8596.2545 2.807-.0275.462-.1312.9122-.3289 1.335-.0685.1468-.1448.2878-.278.3896-.1135.0861-.274.0783-.3758-.0235-.1351-.137-.2016-.3073-.2584-.4835-.1625-.507-.2251-1.0336-.2858-1.5582-.1272-1.0981-.2721-2.1943-.5579-3.267-.0489-.1781-.088-.3602-.2035-.507-.0744-.0959-.1762-.1566-.2995-.1155-.1155.0392-.1879.1273-.2036.2545-.0274.2349.045.4561.1018.6793.2662 1.0335.3895 2.0807.323 3.1495-.0333.5325-.1292 1.0512-.3191 1.5503-.1077.2819-.2643.5383-.5109.7243-.1449.1096-.3328.0783-.4091-.0822-.0666-.1449-.137-.2975-.1507-.4541-.0353-.3896-.0803-.7732-.0548-1.1686.0645-.9651.0861-1.934-.0705-2.8971-.0861-.5285-.2408-1.0296-.4757-1.5092-.1018-.2114-.2349-.3954-.4248-.5364-.3151-.2309-.6674-.2055-.9337.0823-.1076.1174-.1996.2583-.2623.4012-.1429.3387-.274.6851-.3875 1.0355-.1508.46-.2702.9298-.4229 1.3898-.0802.2389-.1938.4679-.3171.6871-.1115.1997-.3093.1762-.4247-.0372-.1214-.2251-.2036-.4698-.2252-.7223-.043-.5481-.1017-1.0923-.0489-1.6521.0842-.8554.2662-1.6815.5579-2.486.0548-.1527.1546-.2936.1722-.4502.0451-.3426.5873-.4776.3994-.875-.1449-.3054-.139-.6244-.2056-.9376-.3738-1.6795-1.0041-3.2573-1.8439-4.7508-.8515-1.5151-1.887-2.8951-3.1672-4.0813-1.2449-1.155-2.6211-2.1024-4.2497-2.6524-.9082-.3073-1.8341-.4483-2.7894-.3817-1.4994.1057-2.7404.7321-3.7133 1.887-.2545.2995-.4757.6225-.6655.965-.1371.2447-.2604.4816-.1116.7791.0548.1116.0274.2721.0137.4071-.047.4581-.1038.9161-.1566 1.3742-.1429.2975.0176.6362-.1214.9709-.3562-.0842-.3856-.3856-.4267-.6264-.3602-2.0788-.9044-4.1322-.9024-6.2659 0-.687-.1683-1.3682-.1311-2.0592.0176-.3015.0254-.599.2035-.8554v-.004z" fill="#d77e53"/><path d="m63.2988 22.0963c-.0999.1801-.2056.3602-.2976.5442-.0724.1468-.1213.2995-.0411.4659.2055-.0509.2564-.2506.3641-.3895.9318-1.2019 2.1336-1.9438 3.6429-2.1689 1.5855-.2388 2.8716.2897 3.8033 1.5757.8926 1.2352 1.1315 2.6622.9455 4.146-.1253.9826-.5716 1.84-1.3213 2.5192-.3621.3269-.7595.6049-1.198.8085-1.1412.5265-2.3313.6753-3.5724.4365-.7458-.1449-1.3898-.4757-1.9437-.9905-.2017-.1879-.4033-.3778-.6069-.5677-.1017-.0959-.2133-.1761-.3562-.1977-.0411-.0058-.1018.0098-.1233.0392-.0392.0509-.0744.1194-.0725.1781.0079.1468.1097.2525.2095.3445.3543.3289.6929.6793 1.0766.969.2545.1918.3308.4091.3426.7047.0391.9415-.1899 1.8283-.5227 2.6935-.4757 1.239-1.2567 2.2511-2.3411 3.0106-1.3918.9728-2.903 1.6795-4.5923 1.9868-1.0707.1938-2.1101.0802-3.1378-.2251-1.2019-.3582-2.3216-.9063-3.3257-1.6541-.8594-.6381-1.5719-1.4211-2.0045-2.4214-.3739-.8652-.5363-1.7578-.3073-2.6954.0685-.2839.1272-.3269.4306-.3426.4131-.0195.828-.0352 1.243-.0528.9925-.1273 1.9281-.3837 2.5584-1.243.3876-.5266.3602-.8222-.0646-1.2254-.2329.0274-.3406.2134-.4795.368-.278.3093-.5462.6244-.8417.9141-.8222.7948-1.8205.922-2.8951.7302-.0451-.0078-.0862-.0294-.1312-.045-1.3722-.4698-1.6854-1.6874-.7145-2.7601.3269-.3621.7086-.6596 1.1001-.9454.3739-.2721.7497-.5364 1.1334-.7928.7125-.4776 1.3683-1.0179 1.934-1.6639.0744-.0841.137-.1879.2858-.1898.2368.4052.4737.8241.7223 1.2332.5931.9728 1.4681 1.5072 2.5956 1.6208.5031.0528 1.012.0626 1.5092-.0803 1.4896-.4267 2.3862-1.4603 2.8168-2.8873.415-1.378.1762-2.6954-.6186-3.8973-.5872-.8848-1.4269-1.3428-2.4781-1.4446-1.0316-.0998-1.9653.1468-2.8051.7556-.0724.0548-.1507.1037-.2192.1526-.0529-.0313-.1116-.0469-.1253-.0783-.3699-.8769-1.1432-1.2234-1.9673-1.4915-.2388-.0764-.4971-.1038-.7438-.1547-.1664-.1938-.7223.1253-.6088-.415.0999-.4678.4816-.4306.8339-.319.8828.2779 1.7246.2427 2.5095-.2897.3406-.231.6283-.1684.9376.0841 1.016.832 2.1415 1.2411 3.4608.8398.3935-.1194.7243.0215 1.0023.3034.6244.6401 1.3819.9866 2.2785.9983.4502.0059.6596.2349.7321.6577.1801 1.0257.687 1.7911 1.7284 2.1239.1742.0548.4385.1213.2564.4208h.0059z" fill="#d77e53"/><path d="m52.1485 80.6544c-.3896-.0254-.785.0274-1.1647-.1233-.0822-.0333-.1821-.0215-.2741-.0255-1.0355-.0469-2.0455-.2466-3.0497-.4893-.5109-.1234-1.0101-.3113-1.5405-.3504-.1762-.0137-.2995-.1057-.3759-.2643-.0313-.0607-.0685-.1213-.09-.1859-.2427-.7654-.5285-1.523-.7106-2.304-.1801-.7791-.3249-1.5816-.2995-2.3822.047-1.5445.3132-3.0537.9807-4.4709.4326-.92.9259-1.8048 1.5366-2.6132.3583-.4757.7165-.9572 1.1628-1.3644.2564-.2329.4952-.4835.734-.7321.8515-.8808 1.8322-1.6012 2.8403-2.2863.4992-.3386.9553-.3387 1.4779-.0411.5559.3191 1.1451.5931 1.7363.8378 1.1021.46 2.2159.8945 3.3297 1.3271 1.1373.4424 2.3176.7439 3.4999 1.0336.3093.0744.6421-.0059.9514.139.1644.0744.276.1468.2799.3386.0098.417.1311.8124.276 1.1999.0959.2624.0724.3113-.1723.415-.9983.4209-1.979.8789-2.854 1.5288-.9689.7204-1.6423 1.6502-1.9633 2.8305-.1644.6029-.3015 1.2-.2721 1.8322.0078.1586-.0333.3191-.0666.4757-.0822.366-.0841.7262.004 1.0923.0391.1546.0685.3171.0626.4756-.0274.9474.1311 1.8733.3328 2.7933.0646.2937.0195.3935-.2525.4503-.74.1526-1.4916.2642-2.2237.4404-.5383.1311-1.1001.0705-1.6306.2427-.1273.0411-.276.0196-.4111.0235-.2975.0078-.5911.0196-.8887.0881-.3093.0705-.6401.047-.9611.0607l-.0078.0078z" fill="#58263f"/><path d="m37.2747 53.3887h1.1744c.231 0 .4581 0 .6832.0744.1272.045.274.0665.4072.0548.6498-.0607 1.2841.0978 1.9183.1722.9748.1136 1.9438.3191 2.8912.599.1096.0333.227.0548.3288.1038.9259.4463.8731.1409.5403 1.151-.2467.7477-.2623.7653.3288 1.3115.6382.5931 1.3115 1.151 1.9673 1.7225.1037.0901.2055.184.3034.2819 1.1608 1.153 2.4018 2.2041 3.7584 3.1222.0548.0391.1213.0783.1526.135.0294.0529.0411.1449.0137.184-.0508.0705-.1331.1253-.2094.1743-.7008.4443-1.3409.965-1.9947 1.472-.1448.1116-.2779.2427-.4091.3719-.3934.3895-.783.783-1.1764 1.1686-.6597.646-1.2469 1.3507-1.7363 2.1337-.0979.1566-.2036.3053-.3191.4502-.0841.1057-.2036.1096-.3053.0274-.3034-.2467-.601-.4992-.9024-.7458-.1234-.1018-.2506-.1997-.3857-.2878-1.0648-.7047-2.2197-1.2097-3.4686-1.4857-.6049-.1331-1.2156-.2192-1.8263-.3171-1.059-.1703-2.1141-.0959-3.1692-.0998-.5461 0-1.0981.0822-1.6384.1742-.227.0391-.4521.0705-.6792.0979-.5716.0646-.5833.0743-.8026-.4463-.1957-.4659-.368-.9435-.5442-1.4153-.5715-1.5268-1.1138-3.0654-1.7225-4.5805-.4796-1.194-.9005-2.4135-1.4838-3.5645-.0215-.0411-.0431-.0823-.0587-.1253-.094-.2408-.0372-.4228.1957-.5011.5873-.2017 1.1725-.4091 1.7715-.5716.7282-.1977 1.4681-.3739 2.21-.5148.5148-.0999 1.0453-.1371 1.5699-.1821.3191-.0274.6401.0079.9553-.1057.1468-.0528.319-.0333.4795-.0333.3915-.0039.785 0 1.1745 0l.0059-.0058z" fill="#58263f"/><path d="m49.9119 43.699c-1.5601-1.9359-3.4178-3.5547-5.4085-5.0209-1.8968-1.3976-4.005-2.3744-6.3344-2.807-1.3467-.2506-2.6993-.323-4.0461.0411-.9454.2564-1.7402.7223-2.2844 1.5601-.0606.0959-.1331.1918-.2212.2603-.135.1057-.1331.2291-.0959.37.0588.2232.1253.4444.184.6655.2937 1.0747.4346 2.167.3387 3.2827-.0411.4679-.1507.9103-.4307 1.2939-.137.186-.3229.1566-.4247-.0548-.1253-.2584-.1253-.5363-.1468-.8123-.0372-.46-.0627-.9201-.0999-1.3801-.0215-.2799-.1076-.5422-.2799-.7692-.2271-.2937-.5579-.3152-.8378-.0588-.1566.1429-.276.3132-.3484.509-.1214.323-.2369.6479-.3445.9768-.186.5696-.3622 1.1431-.552 1.7108-.1253.3739-.3113.7203-.5364 1.0433-.094.1351-.2016.2506-.3465.3308-.1311.0725-.2779.0314-.3504-.1057-.1252-.229-.1546-.4776-.1663-.7321-.0392-.7438.0822-1.472.2114-2.1963.0489-.272.1174-.5402.1605-.8123.0254-.1586.0313-.321.0176-.4815-.0157-.1743-.1312-.2956-.3015-.3387-.1546-.0411-.2662.0529-.3562.1625-.1527.1801-.2251.3993-.2976.6185-.2486.7419-.4952 1.4877-.7438 2.2296-.1096.3269-.229.6538-.4385.9357-.1135.1546-.3112.1292-.3778-.0509-.0391-.1077-.0763-.2193-.0822-.3328-.0332-.552-.045-1.106.0725-1.6521.1409-.6538.3092-1.2998.5324-1.932.0685-.1958.1468-.3896.1174-.6049-.0117-.0939-.0509-.1762-.1389-.2251-.1136-.0607-.2212-.0411-.323.0313-.2016.141-.278.3641-.368.5736-.3387.783-.6695 1.5699-1.0042 2.3548-.0998.233-.1977.4678-.3798.6538-.1057.1077-.2681.0764-.3425-.0548-.094-.1683-.0959-.3523-.1096-.5363-.0607-.8241.1057-1.6032.4306-2.3568.6225-1.4525 1.5386-2.67 2.8501-3.5724.5696-.3915 1.1373-.7889 1.7167-1.1647.4326-.28.828-.6088 1.0766-1.0551.4169-.7419 1.0238-1.3056 1.6717-1.8244 1.4563-1.1647 3.13-1.8439 4.972-2.1062 3.5528-.5011 6.9372.0411 10.1397 1.6697.3484.1762.6851.3837 1.0081.6049.3073.2094.5441.4854.6538.8613.5109 1.7617 1.6756 2.989 3.2278 3.8875.8222.4757 1.6854.8574 2.5741 1.1843.0137.413-.2956.6557-.5207.9298-.8515 1.0316-1.5151 2.1845-2.1884 3.3316-.1997.3425-.3093.7106-.3269 1.106-.092.0763-.186.0743-.278 0-.045-.0431-.0822-.0901-.1155-.1429h-.0039z" fill="#d77e53"/><path d="m2.20522 58.1328c.06068.141 0 .2447-.02741.3543-.1977.7693-.18987 1.5445-.1331 2.3333.12919 1.7872.73013 3.4099 1.5601 4.9759.9435 1.7794 2.09841 3.4158 3.31009 5.017 1.43483 1.8968 3.00864 3.6742 4.651 5.3909 1.562 1.6325 3.1652 3.2259 4.8545 4.7273 2.4351 2.165 5.0405 4.1087 7.7672 5.8842 2.9382 1.9144 5.9586 3.6898 9.0338 5.3791.9102.4992 1.8459.9455 2.7992 1.3624 2.578 1.1275 5.152 2.2628 7.7339 3.3747 1.7794.7654 3.5705 1.5033 5.4457 2.0123 1.382.3739 2.7718.6988 4.1949.8652.8946.1057 1.7911.139 2.7522-.0685-.1135.2094-.2662.2861-.4071.3641-.8613.47-1.7931.724-2.7542.871-1.3879.211-2.7561.078-4.1205-.206-2.1082-.438-4.1322-1.1427-6.1288-1.9276-3.4785-1.3702-6.8747-2.9206-10.2102-4.6118-1.9536-.9905-3.915-1.9673-5.892-2.9127-4.8017-2.2922-9.1473-5.2637-13.1366-8.7637-2.5349-2.2236-4.89957-4.6157-7.07237-7.1956-1.63253-1.9379-2.92838-4.0774-3.9032-6.4147-.51286-1.2351-.98069-2.4879-1.3761-3.7661-.385626-1.2509-.530479-2.5213-.409116-3.8249.086129-.9318.332766-1.8127.847586-2.6035.16051-.2466.32494-.4972.6166-.6185z" fill="#d3b4c6"/><path d="m52.4964 90.6017c.3347-.1077.5109-.5383.8593-.5285.3289.0098.6519.2016.9827.2956 1.3389.3895 2.6798.3817 4.0206 0 .1331-.0392.2643-.0842.3935-.1253.1331-.0392.2271.0098.2584.1448.0372.1566.0665.3152.0881.4757.0841.6616.182 1.3213.1585 1.9927-.0078.2055-.0372.4111-.0568.6166-.043.3895-.2309.7008-.5402.9298-.3524.2603-.7047.5227-1.0825.736-1.611.9122-3.3238 1.5758-5.1207 2.0319-.6969.1761-1.3664.1253-2.0299-.141-1.3507-.5402-2.6426-1.1881-3.8621-1.9868-.6382-.4169-1.2176-.9063-1.7598-1.4427-.2995-.2955-.5227-.642-.6695-1.0355-.2544-.6792-.1037-1.2664.4346-1.7499.1899-.1703.4072-.2976.646-.3915.5383-.2134 1.0942-.3446 1.6775-.3759 1.382-.0685 2.7052.1664 3.9756.7106.1253.0548.2604.0881.3896.1331.2564.1468.552-.0098.8123.1018.2858.4522.186.9787.2839 1.4681.0274.1331-.0157.2995-.1664.3445-.1468.045-.2545-.0744-.3426-.182-.1174-.1429-.1977-.3093-.3053-.4581-.1625-.2231-.3172-.4874-.6382-.46-.3699.0313-.4502.3641-.5442.6381-.2212.6519-.2916 1.3409-.4052 2.0202.2898-.5423.3132-1.1628.4953-1.7344.0822-.2623.1272-.5911.4424-.6459.321-.0568.4619.2486.6205.4698.229.319.3719.689.5774 1.0198.0842.1351.186.3112.37.2388.1781-.0705.1429-.274.1135-.4306-.1331-.7439-.2055-1.4994-.4423-2.2257-.0431-.0332-.0568-.0685-.0509-.1076.0078-.0411.0176-.0588.0313-.0588.043-.0528.0861-.1017.1468-.135l-.0039.0039c.0548-.0979.1938-.0548.2486-.1566v.0039z" fill="#dcdcb9"/><path d="m21.4558 65.6609c-.0802.0685-.1272.1233-.184.1566-.9513.5344-1.7734 1.241-2.5819 1.9633-.1194.1077-.2329.2232-.3543.3308-.3464.3034-.5931.3289-.9944.0764-.2133-.1351-.4189-.2858-.6107-.4503-1.979-1.6932-3.9326-3.4157-5.7295-5.3027-.7967-.8359-1.50924-1.7402-2.07299-2.7542-.1566-.2799-.29166-.5775-.40324-.877-.12332-.3327-.04698-.5109.26818-.689.51481-.2897 1.08444-.3856 1.66385-.3993.9044-.0274 1.793.0842 2.6661.323 1.6443.4502 3.1202 1.2449 4.5022 2.2217.2623.184.2779.2369.1898.5129-.2368.7477-.6029 1.4309-1.0453 2.0905-.1859-.1272-.0959-.2681-.0704-.3797.0861-.3817.1977-.7575.2858-1.1393.0313-.1311.043-.274.0332-.4071-.0097-.1625-.1977-.2936-.3523-.2486-.1527.047-.2995.1135-.4385.1918-.5167.3034-1.055.5696-1.6051.8085-.1899.0822-.3895.1429-.5853.2114-.092.0332-.1899.0293-.2447-.0588-.0548-.0861-.0098-.1781.0431-.2583.3328-.509.7908-.8966 1.2665-1.2646.1801-.1409.3641-.2799.5324-.4345.0411-.0372.0587-.1351.0411-.1879-.0352-.0999-.1468-.1175-.229-.0823-.9455.3974-1.6971 1.0238-2.1513 1.9477-.2427.4953.0548.8691.6049.8476.2603-.0098.4991-.0881.7301-.1938.4405-.1996.8711-.4208 1.3115-.6225.1331-.0606.278-.2486.4209-.1057.1233.1214.0117.3034-.0274.4561-.0548.2232-.1351.4424-.1742.6675-.0372.2017-.0587.4131-.0431.6147.0352.3856.413.5363.7086.2916.1038-.0861.2036-.1918.2741-.3073.46-.7732.8808-1.566.9846-2.484.1233-.0901.2094.0059.2956.0646.2074.1448.4071.3014.6166.4443.1624.1096.2407.2486.2779.4483.2838 1.5151.9494 2.8305 2.118 3.864.0157.0137.0235.0411.0568.1018l.0058.0079z" fill="#dcdcb9"/><path d="m6.07524 81.7283c-1.40351-.1429-2.64259-.4678-3.71724-1.3193-.8652-.6871-1.438742-1.5386-1.691256-2.5917-.109618-.4542-.137023-.9318-.090044-1.4192.056767-.6048.205535-1.1666.416942-1.7265.117448-.3093.279918-.5814.461968-.8397.31319-.4503.64988-.8887.99243-1.3174.1429-.1762.30537-.3426.51482-.4522.2623-.139.368-.1331.52069.1038.25055.3856.46783.7927.73014 1.1666.63422.8985 1.28801 1.7813 1.99466 2.6289.97286 1.1666 1.99467 2.2824 3.08302 3.3414.0646.0626.13311.1292.18792.2016.1566.2036.16247.4346-.00979.6284-.15268.1703-.31711.3367-.50111.4717-.46588.3426-.99244.5794-1.51117.8261-.46784.2212-.99831.137-1.38589.2975z" fill="#1f201f"/><path d="m55.9759 41.8919c.0118-.4933.1977-.9416.3582-1.3937.0862-.2467.1508-.2741.4111-.2663.46.0138.92.049 1.3781.0412.9102-.0177 1.7734-.2623 2.5877-.6519 1.3761-.6597 2.5252-1.5855 3.316-2.9166.047-.0764.1057-.1468.1566-.2173.1781.0372.1292.1742.1292.274 0 .9201-.0039 1.8381-.0098 2.7581 0 .2369.0117.4659.2682.5853.182.2819.0215.5599-.0862.783-.7927 1.6384-1.6129 3.2651-2.9714 4.5374-.8789.8261-1.8831 1.2606-3.1163 1.2469-1.0825-.0117-2.4155-.9121-2.4468-2.2471-.0196-.8457-.0842-1.6874.0274-2.5291z" fill="#d77e53"/><path d="m41.4511 101.989c-.045-.869.1801-1.664.415-2.4547.0939-.3151.182-.3543.505-.2427.4992.1703.9925.3582 1.4857.5422 1.5895.5992 3.1985 1.1232 4.8722 1.4372.2251.043.4424.109.6714.141.2975.039.4522.258.4933.573.1057.822-.1664 1.55-.5873 2.22-.5481.869-1.2801 1.556-2.2295 1.983-.7302.329-1.4877.454-2.2746.215-1.4192-.106-2.9773-1.858-3.2279-3.222-.0744-.409-.137-.812-.1233-1.194z" fill="#1f201f"/><g fill="#58263f"><path d="m29.4936 66.2543c-.231.0097-.3896-.0842-.5051-.2898-.5167-.9219-.9885-1.8654-1.3526-2.8598-.2603-.7125-.4854-1.4348-.7516-2.1454-.3974-1.0551-.6029-2.165-.9005-3.2475-.0783-.2857-.0802-.5892-.1311-.8808-.0568-.3367.1644-.6186.4639-.783.3837-.2075.783-.3876 1.1784-.5735.1664-.0783.3406-.1371.507-.2134.4717-.2134.4639-.2134.6205.274.4346 1.3311.9043 2.6505 1.4055 3.958.4932 1.2861.9591 2.5819 1.4407 3.8719.1996.5383.4091 1.0708.6107 1.6091.0568.1507.1037.3034.1585.4561.047.1331.004.2231-.1311.2623-.2212.0606-.4424.1233-.6655.1742-.5579.1272-1.1158.2505-1.6756.3699-.0881.0196-.1821.0137-.276.0196z"/><path d="m45.9531 79.9732c.231.0666.4033.1097.5716.1684.9709.3582 1.9614.6166 2.9852.7967 1.0922.1898 2.1845.2838 3.2905.2564.321-.0078.6459.0254.9552-.1077.0411-.0176.0901-.0215.137-.0195.74.0195 1.4564-.1821 2.1807-.2584.8299-.0861 1.6286-.2799 2.4272-.4816.8691-.2172 1.7109-.5324 2.5095-.9454.2604-.1351.4992-.3308.8143-.3308.231.2838.1018.6185.094.9239-.0079.3386-.0724.689-.1782 1.012-.1585.4796-.5285.8104-.9532 1.0531-.8868.5051-1.842.8222-2.856.9631-.4072.0568-.8104.1527-1.2156.229-.0665.0137-.137.0353-.2036.0294-1.1314-.0763-2.2511.2349-3.3746.1292-.8026-.0744-1.6091-.0705-2.4058-.1429-.7732-.0685-1.5346-.2564-2.3-.4032-.8026-.1586-1.3624-.6284-1.7206-1.3585-.2388-.4874-.4874-.969-.7576-1.5092z"/><path d="m67.3445 70.2636c-.7869.9376-1.5601 1.6423-2.5036 2.1473-.5481.2917-1.1041.5638-1.7285.6715-.458.0783-.458.0959-.6929-.323-.1782-.3211-.3661-.6382-.5658-.9455-.0998-.1546-.2368-.2838-.4443-.2897-.094-.0039-.1957.0059-.2329.1018-.0196.0528 0 .1409.0372.1879.3171.4287.5676.8907.736 1.3957.0293.0861.0881.1683.0978.2564.0235.1997.1155.4737-.0665.5794-.2232.1312-.3719-.137-.4757-.2877-.2642-.3856-.5814-.7145-.9239-1.0218-.1547-.137-.3817-.049-.4248.1546-.0313.139-.0274.276.0509.3993.1292.2173.2525.4385.3896.6499.6792 1.0355 1.057 2.1846 1.3095 3.3845.0294.1331.0157.276.0274.413.0255.2819-.09.4953-.3249.6382-.6264.3856-1.2743.736-1.9712.9826-.1958.0685-.3954-.0196-.4385-.2153-.1409-.6479-.2975-1.2939-.3112-1.9634-.0079-.366-.0059-.7262-.0959-1.0942-.092-.3778-.0862-.783.0097-1.1666.0627-.2506.0842-.4992.0862-.7498 0-1.0276.3856-1.9398.9278-2.7737.2584-.3954.6421-.7262 1.0199-1.0277.3758-.2995.8025-.5344 1.2195-.779.4365-.2565.8887-.4855 1.3291-.7302.3054-.1703.5637-.135.8026.1292.3445.3817.7771.6382 1.2273.8809.5618.3014 1.1529.4522 1.9359.3954z"/></g><path d="m33.4004 97.446c-.0059-.462.0137-.92.1625-1.3644.0372-.1076.0743-.2172.1233-.319.0705-.1468.1977-.1958.3445-.1351.3837.1586.7634.3171 1.1393.4913.918.4268 1.8263.8731 2.7463 1.292.8163.3719 1.6423.7164 2.4644 1.0707.2115.09.4248.1742.6304.278.4423.2212.4521.2309.2818.6714-.4874 1.2661-1.3761 2.1471-2.6915 2.4531-1.0786.25-2.1454.072-3.1046-.564-1.0648-.707-1.7636-1.664-2.0338-2.9148-.0665-.3093-.0469-.6401-.0646-.9592z" fill="#1f201f"/><path d="m9.86719 83.631c.05089-.507.16641-.9768.35821-1.4172.1272-.2897.3171-.5599.507-.8163.1722-.2349.4032-.2643.5892-.0568.4796.5325 1.0844.9201 1.5914 1.4251.3896.3895.8124.7419 1.2371 1.0922.6538.5364 1.3233 1.0571 1.9869 1.5856.323.2564.6538.5031.9709.7673.229.1899.231.372-.0118.5697-.6107.503-1.2899.8789-2.0671 1.0511-.1761.0392-.3601.0548-.5383.1096-.1292.0411-.276.0509-.4091.0333-1.3624-.1644-2.4997-.7125-3.2905-1.885-.2584-.3837-.4952-.7693-.6538-1.2019-.15071-.4111-.19181-.8437-.26815-1.2508v-.004z" fill="#1f201f"/><path d="m19.1395 70.5296c-.1351.0274-.276.0372-.4013.0822-.2036.0724-.4091.0802-.6127.047-1.1392-.1977-2.2178-.5462-3.2005-1.1863-1.0668-.6929-2.0533-1.4798-2.9009-2.4214-.9377-1.0413-1.8127-2.1356-2.51147-3.3551-.60682-1.0551-1.24887-2.0886-1.81066-3.1691-.34256-.6558-.41107-1.2998-.16247-1.9869.26425.094.38953.3074.48153.5501.43456 1.1353 1.16078 2.0847 1.9379 2.9969.46197.5422.94347 1.0707 1.45827 1.566.9436.9102 1.9105 1.795 2.8736 2.6837.5246.4834 1.0551.9572 1.5954 1.425.5363.4678 1.055.965 1.7715 1.1627.1018.0274.2075.1155.2681.2056.3465.5187.8476.9024 1.2156 1.4015z" fill="#a6447e"/><path d="m25.8182 63.8444c-.2055.1527-.4385.1821-.6557.2564-1.0258.3406-2.0593.6519-3.0459 1.0982-.1801.0802-.2995.043-.4326-.0724-.4012-.3504-.7321-.7576-1.012-1.2117-.413-.6695-.7105-1.3898-.9376-2.1395-.0176-.0568 0-.1273 0-.2212.4815 0 .9102-.1547 1.3409-.2976.828-.2779 1.6521-.5657 2.4781-.8476.1703-.0587.3465-.1096.5011-.1585.139.0763.1605.1938.1782.3054.2075 1.1607.7164 2.1728 1.4916 3.0556.0313.0352.0548.0724.0763.1135.0098.0196.0078.045.0176.1194z" fill="#efeee7"/><path d="m54.6094 19.1567c1.4798-.5089 2.897.0079 3.6389 1.3037.8417 1.472.8163 3.6272-.7536 5.0522-.5657.5129-1.2332.7928-2.0045.7948-.0587 0-.1507-.0274-.1722-.0705-.0235-.047-.0039-.139.0313-.186.5638-.7575.8495-1.6227 1.0022-2.5427.094-.5716.1057-1.1491.0353-1.7206-.1234-.9866-.5794-1.7813-1.4329-2.3255-.1135-.0705-.2584-.1077-.3445-.3034z" fill="#efede6"/><path d="m54.1858 87.2393c1.2508.0352 2.4351-.0744 3.588-.4561.0451-.0137.0862-.0313.1312-.0431.2231-.0587.3034-.0195.3543.186.0215.0881.0352.1801.0548.2721.1292.6088.2603 1.2136.3895 1.8224.0294.1351.0627.2701.0842.4032.0215.1273-.0391.2271-.1527.28-.1253.0587-.2545.1076-.3876.1468-1.3682.3934-2.7228.3699-4.0754-.0842-.2819-.094-.4933-.2545-.5951-.5285-.2349-.6225-.462-1.2528-.6851-1.8792-.0509-.1429.0157-.2192.1664-.2094.3895.0274.781.0606 1.1255.088z" fill="#eeede6"/><path d="m50.307 98.6258c.045-.0137.0959-.0176.1292-.045.047-.0353.0352-.0783-.0157-.0998-.1057-.0451-.2094-.0921-.319-.1273-1.3957-.458-2.6054-1.2371-3.7114-2.1884-.3817-.3289-.7967-.6206-1.1314-1.0042-.1077-.1233-.2193-.2369-.2114-.415.4561.3073.9102.6166 1.3682.9239 1.1863.7987 2.4665 1.4172 3.8015 1.932.7555.2917 1.5327.2995 2.3039.1116 1.4524-.3582 2.8618-.8476 4.2047-1.5131.6068-.2995.6674-.2603.8299.3837.0861.3445.094.6753 0 1.0178-.0822.3074-.1174.6304-.3053.9005-1.9458.6225-3.9248.5911-5.9136.2662-.1115-.0176-.227-.045-.3367.0098-.2427.0059-.4893.0313-.6909-.1507z" fill="#a5447e"/><path d="m63.3049 22.0971c-.0255-.0626-.0333-.1429-.0764-.184-.045-.043-.1233-.0548-.1879-.0685-1.0081-.231-1.5581-.9004-1.8067-1.8655-.047-.1761-.0881-.3562-.1253-.5343-.0705-.3485-.0744-.3739-.4502-.3641-.3974.0098-.7752-.0548-1.151-.1821-.4424-.1527-.8339-.3778-1.1628-.7125-.1135-.1155-.2309-.2271-.3445-.3406-.1448-.1448-.3171-.1781-.5089-.1272-.1116.0293-.2173.0724-.3289.1018-1.3213.3406-2.4331-.096-3.4353-.9318-.0705-.0587-.1332-.1272-.2017-.1879-.0959-.0861-.2016-.1018-.3132-.0313-.0959.0626-.1879.1311-.2818.1957-.7282.5031-1.521.5735-2.3568.3347-.1547-.045-.3034-.1096-.4581-.1566-.2192-.0646-.3151-.0117-.4208.2291-.0548.1233-.0392.2251.1115.2623.1331.0313.28.0195.368.1546-.4306.0646-.8769-.0333-1.3017.1253-.1311.0489-.2505-.1057-.2388-.2584.0098-.1214.0529-.2232.1331-.3093.094-.1018.1801-.2133.2878-.2956.2623-.1977.2623-.5911.5716-.7477.2779.1037.55.2505.8378.3014.8162.1508 1.5464-.0959 2.2139-.5578.2055-.141.3503-.37.6107-.4287.1781.0998.2133.2975.3073.4502.2114.3386.4874.6107.8378.8045.8124.4483 1.6658.5187 2.5388.2369.3269-.1057.6304-.278.9455-.4248.2251-.1057.3034-.0959.37.1077.3288 1.0159 1.1353 1.3134 2.0866 1.4015.3994.0372.7752-.092 1.1608-.1605.2016-.0352.2839.0294.2271.2016-.1429.4287-.0959.8652-.0998 1.3017 0 .186.043.3641.1037.5383.2466.7086.7066 1.1745 1.4485 1.3448.1782.0411.3563.0861.5716.141-.0998.2642-.2936.4423-.4815.6283z" fill="#be5738"/><path d="m55.9786 41.8921c0 .276.0039.552.0078.828.0059.319-.0137.6361.092.9533.0607.1879.0528.4091.0391.6146-.0235.3328.141.6244.1703.9455.004.043.0333.0861.0588.1213.5069.6225 1.0824 1.1314 1.9555 1.1158.458-.0078.9082 0 1.3624-.1312.6636-.1918 1.1901-.5755 1.6893-1.0218.691-.6166 1.2371-1.3447 1.6932-2.1551.3837-.6793.8104-1.3331 1.1471-2.0397.1585-.3328.3014-.6675.3817-1.0297.043-.0195.0822-.043.1272-.0548.0861-.0254.2114-.0509.1879.0842-.045.2486-.1233.4894-.1977.7301-.2975.9416-.595 1.8812-1.0355 2.7718-.689 1.3918-1.6932 2.5056-2.944 3.4041-.5442.3895-1.1628.6401-1.8048.8378-1.1706.3621-2.0554-.188-2.5526-1.0806-.2936-.5285-.4208-1.1138-.5089-1.7069-.0411-.2721-.0626-.5461-.0959-.8202-.0646-.5187.0626-1.8635.231-2.3763l-.0039.0039z" fill="#bf5637"/><path d="m67.0405 69.5701c-.7477.0392-1.3389-.2505-1.8615-.6127-.6675-.4639-1.196-1.0766-1.3898-1.9065-.0314-.1331-.047-.2721-.047-.4052 0-.1547.1194-.2388.2819-.2154.9963.141 1.6658.1332 2.6641-.0137.2036-.0293.413-.0156.6185-.0234.3191-.0098.6421.0274.9533-.0999.0999-.0411.2271-.0293.3406-.0235.1273.0059.2173.0783.231.2095.0137.137.0372.2779.0118.4111-.141.7418-.2976 1.4818-.6891 2.1473-.1898.3249-.4795.4855-.8378.5305-.1135.0137-.229 0-.2779 0z" fill="#58263f"/><path d="m54.2835 86.7673c-.4365 0-.8731-.0039-1.3115 0-.2114 0-.3465-.0881-.4189-.2858-.0862-.2388-.2036-.4678-.2702-.7106-.0978-.3641-.3993-.6714-.3151-1.0864.3758-.1076.7223.0705 1.0864.0979.5265.0392 1.0551.1037 1.5816.1331.9983.0548 1.9732-.1174 2.9441-.3151.2446-.0509.2936-.0177.3366.2055.0549.2936.1116.5892.1449.8848.047.4228.0117.4776-.3739.6127-.6538.2329-1.3311.3699-2.022.4189-.4601.0332-.9201.045-1.382.0646v-.0255.0039z" fill="#d67d53"/><path d="m66.7739 38.7422c0 .4346.0039.8711.0079 1.3056.0039.3426 0 .6793.0939 1.0199.0705.2584.045.5461.0372.8202-.0254 1.01.1625 1.9966.3249 2.9851.1175.7184.233 1.4368.3857 2.1493.0978.4639.1331.9455.3347 1.3918.1194-.1664.0528-.3543.0685-.5285.0118-.1175.0313-.2252.1272-.3054.0862.7869-.0939 1.5562-.1409 2.349-.2173-.0451-.2858-.2232-.3739-.372-.4561-.781-.7908-1.6149-.9728-2.4997-.276-1.3291-.4346-2.6758-.4542-4.0363-.0176-1.0805-.0724-2.161-.1057-3.2415-.0176-.5951-.0137-.5951.4894-.9475.0548-.0391.1214-.0626.1801-.0939v.0039z" fill="#bf5737"/><path d="m67.1905 31.8079c.0294.693-.3934 1.3409-1.1647 1.6502-.1272.0528-.2623.0861-.3895.135-.3798.141-.4522.2623-.278.6088.1527.3015.1899.6088.1684.9337-.0079.1194-.0392.231-.1273.3113-.0646.0587-.1468.137-.2231.1409-.0881.0039-.1605-.0861-.1742-.184-.0607-.3837-.2212-.7517-.1645-1.151.0607-.4209-.2192-.8124-.1213-1.2234.092-.3856.1233-.7674.1194-1.1589-.0039-.3895 0-.781.0117-1.1705.0059-.2016.1194-.2721.3269-.2349.4737.0802.9435.1722 1.4172.229.2721.0313.4013.1546.4816.4052.0763.2447.137.4855.1155.7125z" fill="#562e2a"/><path d="m50.8965 23.8595c-.0802-.2094.0157-.3523.0548-.503.1938-.7693.2369-1.5484.1312-2.3333-.1547-1.1491-.6656-2.0515-1.7755-2.5311-.0822-.0372-.1703-.0743-.182-.2094.3895-.1664.7967-.1272 1.2038-.0783.6323.0744 1.2039.3034 1.7168.6832.1859.1389.3425.3053.4678.503.1448.2271.1468.2897-.0059.4933-.0685.092-.1468.1762-.2173.2682-.5794.7321-.826 1.5836-.8691 2.5016-.0039.0685-.0098.141 0 .2075.0627.4405-.1155.7576-.5207 1.0003z" fill="#eceae4"/><path d="m50.3019 43.84c-.1821-.2779-.1644-.5539 0-.8358.2408-.413.4522-.8437.7027-1.2528.5481-.8926 1.0845-1.793 1.797-2.5721.1977-.2173.3582-.4698.5363-.7066.1977.045.3954.088.5755.1272.0431.139-.0196.2036-.0822.2701-1.0942 1.1236-1.9594 2.4175-2.7796 3.7466-.2525.4072-.4992.8182-.7497 1.2254z" fill="#bd5637"/><path d="m50.9941 98.7782c.1116-.1605.28-.1684.4326-.1116.3348.1272.6773.1018 1.0218.1038.4835.0039.9651-.0118 1.4486.0078.9944.0411 1.9672-.0705 2.9186-.3641.1664-.0529.3132-.0724.4287.0881-.6206.5637-1.3664.7967-2.1885.8319-.828.0333-1.6482-.0509-2.4586-.1977-.5383-.0998-1.0883-.1546-1.6051-.3563z" fill="#bf85a9"/><path d="m26.5429 63.6887c-.0627-.0469-.141-.092-.2056-.1526-.5931-.5305-1.0081-1.1882-1.3076-1.9145-.1742-.4208-.2936-.8652-.4287-1.3036-.0469-.1508.0177-.2682.1664-.3289.0842-.0352.1684-.0705.2565-.1018.3249-.1155.4149-.0724.4639.2643.1664 1.1725.5539 2.2648 1.1627 3.2788.0313.0508.0352.1252.0274.1859-.0039.0255-.0705.0411-.1331.0685z" fill="#ce794f"/><path d="m52.0876 28.3472h.0685c.4991.0704.6205.3993.4052.8593-.4659.9944-1.2646 1.5268-2.3529 1.6228-.2036.0176-.4091-.0118-.6146-.0196.276-.1136.5676-.1977.8221-.3485.7105-.413 1.2606-.9983 1.7167-1.6755.1116-.1664.0489-.3035-.045-.4444z" fill="#bc5838"/><path d="m50.5801 90.0541c.4424-.0705.8574.0607 1.2782.1625.0333.0078.0666.0568.0783.0939.0215.0705-.0117.1273-.0705.1723-.0743.0568-.1663.1038-.2525.0685-.3562-.1409-.7379-.229-1.0276-.505l-.0079.0078z" fill="#bf85a9"/><path d="m52.1093 91.0091c-.2936.0313-.599.135-.8515-.1194.2819 0 .5657 0 .8476-.004.0059.0451.0039.0881-.0078.1331l.0137-.0097z" fill="#2e3b35"/><path d="m50.0234 43.8403h.278c-.1233.1958-.1507.1958-.278 0z" fill="#bd5637"/><path d="m50.5882 90.0443c-.0528-.0196-.1057-.0391-.1585-.0568.0176-.0058.045-.0234.0548-.0176.0352.0235.0646.0548.0979.0842l.0078-.0078z" fill="#7b908e"/><path d="m52.4986 90.6006c-.0529.0998-.1312.1585-.2486.1566.0411-.1214.1351-.1547.2486-.1566z" fill="#2e3b35"/><path d="m49.9141 43.6982c.0391.049.0763.096.1155.1449-.0705-.0215-.1116-.0685-.1155-.1449z" fill="#bd5637"/><path d="m52.2562 90.75c-.0196.0763-.0627.1253-.1468.1331.0215-.0744.0685-.1194.1468-.1331z" fill="#2e3b35"/><path d="m53.2837 31.5009c1.2704.0352 2.4566-.4248 3.4647-1.3702.5618-.5266.9983-1.1412 1.3213-1.8361.0568-.1253-.0078-.2291-.1487-.231-.231-.0039-.46.0117-.691 0-.1155-.0039-.2976.1076-.3269-.1018-.0176-.1272.1292-.1781.2349-.2153.9396-.323 2.2491-.0999 3.0027.7007.0588.0607.096.1586.1116.2447.0098.0548-.0254.141-.0665.1762-.0451.0372-.1371.0568-.188.0352-.1017-.045-.1898-.1233-.2857-.182-.2349-.1468-.464-.2995-.7067-.4287-.1977-.1037-.2995-.0607-.4032.1096-.1547.2584-.1821.4737.0274.7497.4521.601.7066 1.3037.7516 2.0495.0744 1.2273-.368 2.255-1.3389 3.0263-.2153.1703-.4717.2936-.7458.3464-.5011.094-.967.0196-1.3389-.366-.2721-.2799-.5265-.5775-.7908-.8652-.2486-.2721-.4757-.5677-.7497-.8085-.3778-.3269-.7595-.6635-1.3272-.6107-.2036.0196-.411-.0568-.5853-.1781-.0469-.0313-.0763-.1096-.0822-.1684-.0078-.0802.0705-.1272.1351-.1272.2055.0039.4111.0274.7301.0509z" fill="#28312b"/><path d="m68.7326 26.664c-.1978-.0392-.3093-.1958-.4327-.3289-.1918-.2055-.4267-.3426-.6714-.4776-.6244-.3485-1.2586-.413-1.9124-.0979-.1566.0744-.2976.0861-.4659.0372-.0744-.0235-.1742.0333-.2643.0528-.1017-.8397.6382-1.84 1.5621-2.0396.781-.1664 1.3722.229 1.8948.7595.4914.4991.6754 1.0824.5168 1.7656-.0313.139-.1096.2525-.2329.3289h.0039z" fill="#bd5637"/><path d="m68.7382 26.6627c.1546-.4913.2388-.9885-.0333-1.4603-.3699-.6362-.8906-1.1021-1.6345-1.2489-.4874-.0939-.9004.1136-1.2508.4268-.4345.3895-.6831.9024-.826 1.4661-.0059.0215-.0079.047-.0216.0646-.0372.0548-.0646.1351-.1155.1527-.0646.0235-.1233-.0411-.137-.1116-.0313-.1605-.0156-.3191.0294-.4776.1096-.3798.2662-.736.5011-1.0512.2779-.3699.6029-.6929.9748-.965.8495-.6186 1.7754-.6792 2.7503-.3641.0626.0372.1096.0861.1272.1605-.0059.0255-.0059.0509 0 .0744-.4424.1664-.9024.2349-1.4779.2016.6107.2604 1.0159.6264 1.3663 1.059.4013.4992.5168 1.0688.4033 1.6913-.0686.3836-.2604.5853-.6715.3817h.0118z" fill="#31241d"/><path d="m68.728 26.6661c.3798-.0098.4914-.0763.5403-.3602.1116-.6205-.0274-1.1862-.4365-1.6677-.4189-.4953-.8946-.922-1.5699-1.0375-.0313-.0059-.0548-.0548-.0822-.09.0744-.1312.2192-.1429.3543-.1469.3425-.0097.6871-.0156 1.0296-.0058.1821.0039.3661.0313.5442-.0274-.0391.2544-.3308.0939-.4463.2936.5657.507.7849 1.1999.9533 1.9242.09.3836-.0979.7145-.1292 1.0707-.0039.0392-.0509.0764-.0842.1057-.1683.139-.4013.1155-.6734-.0607z" fill="#bd5637"/><path d="m69.096 23.2572c-.0431-.0548-.0842-.1057-.1272-.1605.0822.0215.1272.0724.1272.1605z" fill="#bd5637"/><path d="m52.1035 91.02c.1781.0509.2505.1958.2936.3543.1938.7145.3073 1.4407.3856 2.1748.0215.2055.0137.4287-.229.5246-.186.0744-.3661-.0313-.5364-.3289-.1487-.2603-.274-.5324-.4149-.7967-.1097-.2016-.2212-.4052-.3446-.5989-.0841-.1312-.1663-.3152-.3523-.28-.1449.0274-.1703.2036-.2036.3367-.0881.3582-.1664.7184-.2545 1.0747-.0763.3132-.1546.6244-.2466.9356-.0548.1762-.1468.3407-.3152.4385-.0352.0196-.09.0235-.1272.0079-.0372-.0137-.0744-.0549-.0861-.092-.0137-.0412-.0078-.092 0-.1371.135-.6538.2623-1.3095.4091-1.9614.0607-.2681.1429-.5383.2564-.7869.2486-.5422.6695-.6087 1.0884-.1663.1722.18.2897.413.4443.6126.092.1214.092.3191.3269.372.0098-.5716-.1722-1.1275-.0763-1.6913l-.0137.0098h-.0039z" fill="#2e3b35"/><path d="m56.2575 33.7344c-.3426-.2428-.5207-.4444-.6832-.6656-.1077-.1487-.2408-.2779-.3465-.4247-.1801-.2526-.5344-.37-.5716-.7321.233-.2017.5423-.2212.8124-.3348 1.0022-.4208 1.7656-1.1353 2.4351-1.9653.0431-.0548.0685-.1194.1116-.1722.1664-.2232.2681-.2173.3895.0156.1527.2839.2604.5873.3308.9005.0431.182-.0411.2858-.2368.3425-.2428.0685-.4953.1136-.7223.2153-.967.4248-1.5288 1.1373-1.519 2.2335v.5912z" fill="#712d27"/><path d="m58.8806 31.6516c-.0607.9005-.6323 2.0554-1.5953 2.4038-.2604.094-.4013.0313-.464-.2251-.1272-.5285-.1135-1.0551.1331-1.5445.3113-.6166.8281-.9728 1.523-1.0355.319-.0274.4091.0744.4012.3994z" fill="#a54636"/></svg>