<svg fill="none" viewBox="0 0 99 135" xmlns="http://www.w3.org/2000/svg"><path d="m22.0618 62.9524c-2.4155-1.3182-4.948-2.2809-7.7315-2.4576-.9578-.0603-1.9052.0187-2.8317.2724-1.7441.4803-3.0888 1.4991-4.04662 3.021-.6734 1.0687-1.08329 2.2413-1.33843 3.468-.41198 1.969-.4078 3.9588-.24468 5.9527.0962 1.1664.2635 2.3245.49145 3.4743.00837.0457-.01254.0956-.02509.1725-.30115-.0748-.51028-.2827-.7466-.4553-.74868-.5468-1.59356-.8358-2.52628-.8026-.99127.0354-1.69186.5614-2.166581 1.3972-.439173.7756-.610662 1.628-.662945 2.5075-.089926 1.4825.106656 2.9358.476816 4.3663.78005 3.0002 2.09548 5.7509 3.97765 8.2272.78842 1.0375 1.67513 1.9856 2.72914 2.7653.58557.4345 1.20668.8005 1.90517 1.0313.3137.1039.63367.1746.9536.1933.8805.0541 1.625-.2433 2.1896-.9315.1569-.1912.2907-.4033.4371-.6071.1694-.0124.1861.1331.2468.2225.069.104.1171.2204.1777.3285 2.4615 4.5783 5.2827 8.9277 8.4363 13.0657.4539.594.9223 1.181 1.3824 1.771.0878.115.2112.208.2342.374-.0565.042-.1108.098-.1777.129-1.2214.566-1.7379 1.601-1.8969 2.853-.1296 1.023-.0251 2.038.2238 3.04.1757.702.3953 1.389.6818 2.054 1.328 3.085 3.2959 5.684 5.9832 7.728 1.0812.824 2.2565 1.483 3.597 1.807.6128.15 1.2318.206 1.8634.108 1.0122-.158 1.7567-.686 2.2356-1.582.3095-.582.4621-1.21.481-1.865.0125-.397-.0084-.796-.0063-1.196 0-.185.1443-.158.2656-.151.1527.047.2091-.042.2447-.167-.732-1.12-.8679-2.47-1.4388-3.657-1.6459-3.426-3.8982-6.312-7.238-8.267-1.1461-.671-2.3778-1.071-3.7058-1.081-.5835-.004-.8533-.36-1.1398-.73-2.2356-2.881-4.398-5.813-6.3094-8.921-1.1502-1.8717-2.2795-3.7533-3.3105-5.6911-.2008-.3763-.389-.7589-.2824-1.208.5166-2.1602.1506-4.2685-.4622-6.3373-1.0791-3.6385-2.7981-6.9257-5.59835-9.5766-.26769-.2537-.40153-.5655-.46845-.9169-.59184-3.0501-.90763-6.1107-.29906-9.1961.37016-1.8713 1.06028-3.5741 2.56811-4.8674.75914-.6507 1.61035-1.0915 2.56815-1.3431.4517-.1185.895-.0811 1.3175.1247 2.6267 1.2475 5.0505 2.8319 7.4283 4.4848 3.5134 2.443 6.7716 5.1854 9.7601 8.2439.1045.1081.2028.2183.2969.3347.0356.0562.0753.1102.1171.1622.0398.052.0837.0998.1276.1476.0209.0229.046.0458.0669.0707.044.0478.09.0936.136.1393.0209.025.046.0478.0669.0707.0439.052.0899.0998.1359.1497.023.027.046.0499.069.0769.046.0562.0962.1081.1464.1601 3.0533 3.3101 5.8661 6.8134 8.4614 10.4852 3.2583 4.6137 6.2718 9.3771 8.7019 14.481 2.4468 5.138 4.3102 10.459 5.1342 16.108.483 3.31.481 6.597-.3744 9.853-.0293.145-.0627.289-.1129.428-.0272.069-.0481.142-.069.212-.0209.187-.1506.433.0962.526.23.088.3555-.137.4454-.312.366-.717.5542-1.492.7194-2.274.686-3.244.4768-6.485-.0564-9.718-.7717-4.678-2.29-9.126-4.2077-13.452-2.8358-6.398-6.5625-12.2696-10.6928-17.8978-3.4632-4.7177-7.2129-9.2024-11.5356-13.1715-3.0805-2.8298-6.4308-5.3248-9.9839-7.5453-1.2318-.7693-2.4698-1.524-3.7121-2.1374 2.9488.106 6.4956 1.6425 9.4234 3.4202 2.8567 1.734 5.4374 3.8153 7.9177 6.0441 4.8246 4.3372 8.9215 9.2856 12.6565 14.5542 2.9948 4.229 5.6089 8.6784 7.8466 13.342 2.2732 4.7365 4.1261 9.6265 5.1027 14.8095.1527.809.2719 1.62.3681 2.437.0377.329.0126.713.4183.88.3388-.229.2237-.591.2677-.907.0041-.291-.0042-.58-.0607-.867-.4162-3.352-1.3823-6.564-2.5137-9.735-.2844-.796-.5835-1.588-.8972-2.372-.0209-.071-.0481-.139-.0795-.206-.1652-.305-.3283-.613-.4287-.95-.0209-.066-.0502-.131-.0794-.193-.1381-.25-.2008-.528-.3033-.792-.435-1.0608-.9097-2.1066-1.4827-3.0963-1.0038-1.7319-1.0875-3.6115-.8805-5.5015.3179-2.9066-.9138-5.5077-3.4778-6.9672-.78-.4429-1.5873-.8442-2.4196-1.1872-.069-.0312-.1401-.0562-.2091-.079-.0649-.0312-.1339-.0583-.2008-.0853-1.1021-.4345-1.9826-1.1789-2.6769-2.0999-3.0282-4.0149-6.391-7.7304-10.0612-11.1693-.6985-.6549-1.3175-1.3327-1.7902-2.1499-.1505-.0478-.2363.0583-.3346.1373-.9181-.5406-1.6835-1.2766-2.5304-1.9045-1.6794-1.2392-3.4068-2.4036-5.2408-3.4036-.1632-.0749-.3409.054-.504-.0333z" fill="#212f2b"/><path d="m36.8085 123.051c-.0606.061-.1213.123-.1819.183.0293.04.0502.09.0878.117 2.3778 1.763 4.8811 3.318 7.6291 4.455 1.2987.537 2.635.957 4.0278 1.177 1.2987.206 2.5932.231 3.8857-.064 1.6584-.379 2.9863-1.246 4.0006-2.599.5605-.747.9515-1.578 1.2694-2.447.0586-.158.0418-.356.251-.464.1945.22.3032.493.4245.757.3074.665.7466 1.233 1.259 1.757 1.4618 1.495 3.1704 2.572 5.1822 3.195 1.8989.589 3.8396.936 5.8138 1.146 1.7504.187 3.505.229 5.2596.131 3.1767-.181 6.253-.823 9.185-2.081 1.786-.767 3.4339-1.757 4.8999-3.023 2.4991-2.158 4.6281-4.624 6.2279-7.523 1.1983-2.168 1.9136-4.482 2.198-6.938.2865-2.468.1924-4.921-.1359-7.379-.4643-3.4824-1.4159-6.8236-2.9028-10.011-.9118-1.9502-2.0055-3.7924-3.3711-5.4661-.571-.6986-1.1921-1.3494-1.8989-1.9107-.5501-.4387-1.1356-.8151-1.8257-1.0126-1.305-.3742-2.29.2266-2.5619 1.5531-.1715.8275-.0502 1.6405.0983 2.4493.253 1.3743.6609 2.7091 1.0436 4.0523.3889 1.3681.7445 2.7424.9118 4.1562.3889 3.2975-.2029 6.4015-1.901 9.2755-.732 1.239-1.6982 2.278-2.8818 3.114-1.2799.905-2.7062 1.385-4.2705 1.485-1.8675.118-3.6388-.268-5.3391-1.009-1.696-.738-3.2038-1.75-4.4774-3.093-2.0495-2.163-3.5134-4.656-4.2349-7.5519-.5186-2.0834-.4141-4.15.2363-6.1918.343-1.0728.7968-2.0958 1.3405-3.0813.3848-.6986.7968-1.3826 1.1879-2.0792.2677-.4782.5312-.9605.778-1.4491.6984-1.3868.7424-2.8215.299-4.2873-.276-.9127-.6818-1.7673-1.1941-2.5698-1.3531-2.1187-3.1872-3.6905-5.4688-4.7613-1.5956-.7485-3.277-1.2309-4.9898-1.6217-1.3907-.3181-2.7919-.5988-4.1826-.9169-.8804-.1996-1.7316-.4866-2.5577-.8629-2.0285-.9231-3.2017-2.4908-3.6179-4.6469-.3074-1.601-.1924-3.1749.3137-4.7218.5458-1.6675 1.5538-2.9961 3.001-4.0024.9725-.6757 2.0306-1.181 3.1328-1.603 1.7106-.655 3.4778-1.1228 5.27-1.4887 2.7731-.5676 5.5545-1.0916 8.3276-1.6571 2.0369-.4138 4.0655-.8712 6.0501-1.4908.6692-.21 1.3259-.4532 1.9637-.7464 1.1942-.551 2.2775-1.2641 3.1788-2.2226 2.8651-3.0397 4.948-6.5078 5.8306-10.6224.4412-2.0605.5751-4.1417.4433-6.2438-.1987-3.1686-.7361-6.2853-1.5936-9.3396-1.4429-5.1334-4.2181-9.4394-8.317-12.88869-2.9843-2.50955-6.4015-4.16248-10.2056-5.03365-3.3482-.76513-6.7382-1.0271-10.1616-.74226-2.1059.17465-4.1554.64454-6.161 1.30779-2.8421.93979-5.5398 2.18105-8.0724 3.77576-1.5538.97925-2.978 2.11455-4.1972 3.49095-.9558 1.0791-1.6898 2.2766-2.1373 3.6551-.9348 2.8651-.3409 6.9777 2.865 9.5039 1.4138 1.1144 3.0032 1.892 4.7034 2.4451 2.3882.7776 4.8372 1.0479 7.3446.8275 1.8069-.158 3.5761-.4741 5.2847-1.0833.4246-.1517.8386-.3264 1.2548-.499.138-.0582.2677-.1393.4266-.1102.1924.0687.3054-.0977.4601-.1455 1.9428-.946 3.5406-2.3307 4.9543-3.9296.3367-.3805.5019-.393.755.0312.2028.343.4391.6653.6504 1.0042.7466 1.2517 1.1481 2.6385 1.6082 4.0045.0439.133.092.2661.1024.4096.0063.1081.0105.2162.0168.3243 0 .0749.0104.1497.0209.2246.4914 2.9732-.0523 5.6927-2.016 8.0588-.0711.0853-.1401.1726-.2133.2557-1.8048 1.8838-4.0509 3.0044-6.5249 3.7363-.2635.0769-.5291.1414-.7842.2412-.2719.1206-.571.1642-.8449.2744-.3409.1747-.7194.2142-1.0875.2682-1.8905.2745-3.7915.3431-5.7009.2579-2.4802-.1102-4.9501-.3785-7.4366-.3826-1.993-.0021-3.9484.2453-5.8703.7651-6.6712 1.7985-10.3728 7.038-11.5691 11.267-.4099 1.4513-.6253 2.9212-.3743 4.4307.4183-.0832.3221-.4283.3451-.6965.0439-.5094-.044-1.0271.0648-1.5344.5416-2.94 1.7023-5.593 3.6828-7.8718.6211-.7152 1.3154-1.3597 1.9951-2.0167.2028-.1685.3889-.3577.6232-.4866 2.5158-1.7423 5.2993-2.7881 8.3463-3.1 1.4368-.1476 2.8735-.3805 4.3311-.1247.663.1164 1.3489.0332 2.0223.0332.2802-.0312.5291.0562.7633.2059 3.5239.0707 7.0582.3617 10.5381-.4949 3.0198-.7443 5.8012-1.919 7.9678-4.2373 2.1269-2.2767 2.9927-4.9755 2.6393-8.0401-.3096-2.6926-1.2339-5.1771-2.817-7.4019-.1966-.2765-.2405-.5281-.069-.8275.1359-.2349.2844-.474.2718-.763-.2237-.3826-.4015-.0977-.5563.0561-.2635.2641-.4726.5801-.7068.8712-3.047 3.7882-6.9954 5.9859-11.8514 6.4121-3.3691.2953-6.7047.0832-9.7977-1.5198-1.6584-.734-3.1014-1.7652-4.1554-3.2373-2.083-2.9087-2.0432-6.9985.4098-10.086 1.7839-2.2455 4.0906-3.81319 6.5709-5.14593 3.3963-1.82759 6.9787-3.24973 10.835-3.6718 7.4471-.81711 14.4739.33682 20.5408 5.06903 4.8894 3.8131 7.8423 8.8572 9.1494 14.8639.6734 3.0959 1.1565 6.2084 1.123 9.402-.046 4.3724-1.4346 8.2605-3.9567 11.7847-1.2402 1.7319-2.5828 3.3724-4.5235 4.4099-1.3154.7027-2.7229 1.1456-4.1554 1.5177-3.0826.8026-6.2174 1.3681-9.3439 1.9753-2.7313.5301-5.473 1.0312-8.0996 1.9856-1.8446.6715-3.641 1.4429-5.0568 2.863-1.6479 1.655-2.4635 3.6634-2.5095 5.9838-.021.998-.0042 1.9877.2697 2.9649.7445 2.6655 2.61 4.1645 5.1614 4.9609 2.1812.6798 4.4502.9959 6.6586 1.576 2.0014.526 3.9317 1.2038 5.6361 2.4035 2.0411 1.4387 3.528 3.2996 4.352 5.6636.5103 1.4658.4308 2.8734-.2928 4.2685-.5751 1.1082-1.2192 2.1769-1.8236 3.2685-1.1042 1.9918-1.8717 4.0855-2.016 6.3643-.1025 1.6093.1777 3.1873.7445 4.6923 1.4263 3.793 3.6388 6.982 7.2798 9.007 2.2523 1.254 4.6469 2.027 7.2694 1.726 3.4088-.391 5.8347-2.27 7.4701-5.177 1.8048-3.204 2.3318-6.6368 1.6667-10.2566-.3931-2.1395-1.1042-4.1937-1.6165-6.2999-.2301-.9502-.3786-1.9066-.3221-2.8859.0669-1.1456.7361-1.6675 1.8675-1.4263.9223.1975 1.6082.8047 2.2565 1.4263 1.9408 1.863 3.3043 4.1272 4.4399 6.5286 1.6249 3.4369 2.5974 7.0608 3.0177 10.8308.3346 3.014.3555 6.015-.5458 8.957-.0523.168-.0481.345-.0878.513-.4664 1.907-1.4451 3.572-2.4531 5.227-.5814.957-1.4158 1.73-1.924 2.734-.5019.229-.755.711-1.1105 1.083-2.5388 2.672-5.5336 4.62-9.0825 5.702-.0962.029-.1861.074-.2761.116-.1777.098-.3785.091-.5709.127-2.8985.698-5.8305 1.102-8.8211 1.008-.7738-.023-1.5287-.27-2.3088-.156-.2886 0-.5793.017-.8553-.087-1.717-.358-3.4632-.595-5.1237-1.191-1.2088-.312-2.2398-.965-3.2373-1.68-.4162-.3-.5396-.689-.435-1.175.3241-1.539 1.1941-2.77 2.2335-3.903.3346-.366.6587-.253.9892 0 2.0536 1.239 4.2976 1.971 6.6377 2.437.2761.054.5459.087.6902.372.0941.102.207.113.3304.075.7048-.272 1.4367-.145 2.1415-.071 2.405.254 4.7598-.087 7.1146-.486.1192-.013.2384-.029.3534-.06 2.3715-.531 4.6699-1.281 6.8783-2.302.7508-.347 1.4493-.782 2.1624-1.191.3869-.223.6023-.177.8323.228.3137.549.6358 1.136 1.3803 1.225.253-.291-.0377-.445-.1757-.62-.1673-.214-.3911-.382-.5333-.619-.3973-.655-.3513-.913.2573-1.375.4768-.361.9662-.704 1.4158-1.097.184-.16.4203-.291.3722-.597-.0585-.114-.1547-.16-.2802-.158-.2865.054-.4789.262-.6943.428-4.2349 3.292-9.0491 5.165-14.3735 5.73-3.6932.393-7.3488.202-10.8936-1.039-1.4012-.491-2.7291-1.119-3.94-1.977-2.4698-1.695-4.2014-3.891-4.7389-6.897-.0481-.266-.0502-.576-.3827-.665-.2112-.057-.3074.114-.3764.284.1045 1.691.7633 3.186 1.696 4.564.6881 1.013 1.4828 1.944 2.4866 2.678.2823.206.5061.441.161.788-1.1795 1.192-2.039 2.57-2.4384 4.412-1.1189-1.355-2.3047-2.459-1.8676-4.287.1109-.466.1443-.936.0335-1.408-.069-1.056-.1339-2.11.0502-3.16-.0042-.474.2739-1.008-.2928-1.362-.0084.187-.0188.372-.023.559-.0021.144-.0167.281-.1422.377-.2886.283-.1966.648-.2091.987-.0502 1.487.1129 2.98-.1883 4.458-.2593 1.279-.6796 2.491-1.3677 3.603-.8323 1.348-2.016 2.25-3.5301 2.728-2.1268.582-4.2077.293-6.2676-.335-3.047-.927-5.7406-2.528-8.3297-4.328-.3555-.248-.6629-.63-1.1794-.549z" fill="#29342e"/><path d="m63.5625 29.3356c0-.0727 0-.1434 0-.2162-.734-.5926-1.6542-.5697-2.5117-.7547-1.5433-.0936-3.0825-.1227-4.5778.3784-.3576.1206-.5563-.0541-.6922-.3722-.1652-.3846-.2865-.7942-.5772-1.1165-.1861 0-.2092.2058-.343.2703.7257 1.2412 1.0854 2.6031 1.328 4.0024.1777 1.0312.207 2.0729.184 3.1166-.0293 1.3536-.3137 2.6572-.8219 3.9089-.5479 1.3535-1.3551 2.5324-2.5074 3.4597.1715.0062.345.0166.5165.0208.1506.0041.2949-.0208.4036-.1435.3786-.6404.9328-1.1539 1.3071-1.7964.5396-.9294.9327-1.917 1.1879-2.9565.1108-.4512.3116-.5947.7905-.5157 1.0895.1809 2.1331.4886 3.139.944.2886.1309.5521.3555.9076.2723.09-.0124.1527-.0644.1924-.1455-.1526-.4179-.5458-.5676-.8971-.7319-.9495-.4428-1.9282-.8067-2.9739-.9709-.8699-.1352-.8888-.1747-.7821-1.0563.0293-.2474.0397-.4927.0397-.7422.0063-1.2496-.1798-2.4763-.4245-3.6989-.1736-.867-.1088-.9543.757-1.2059 1.2025-.3493 2.4322-.2266 3.6556-.2162.6274 0 1.2255.1934 1.8362.289.2865.0457.5814.1747.8637-.0208z" fill="#5a5652"/><path d="m21.2856 56.2217c-.1464.1268-.138.3015-.138.4699 0 .4844 0 .9709-.0021 1.4554 0 .1684.0167.343-.1381.4678-.0564.5073.0983.9876.2133 1.4679.2134.8961.5124 1.7652.937 2.5885.0648.1269.0752.235-.0942.2828.1109.1975.2907.1539.4643.1352.1861-.3348-.0146-.6259-.1276-.9149-.3137-.8109-.5751-1.6342-.6943-2.4971.64-.6445 1.4765-.4927 2.2398-.4761 1.4597.0291 2.8797.3285 4.2203.9336.138.0623.2865.0894.4391.0436.0837-.0395.1171-.106.1025-.1975-.115-.314-.3973-.4345-.6713-.5531-1.8299-.788-3.7351-1.0624-5.7113-.788-.7655.1061-.7696.0957-.8157-.6923-.0334-.578.1883-1.1935-.2216-1.7236z" fill="#42443a"/><path d="m97.1516 113.935c.7613-2.304.8387-3.668.8721-5.231.1109-5.396-1.0017-10.5417-3.3189-15.4215-.8909-1.8775-1.9742-3.6406-3.3126-5.2395-.5793-.6924-1.2109-1.3307-1.9428-1.8671-.3848-.2828-.7863-.5343-1.2401-.6924-1.3176-.4615-2.2566.1331-2.3611 1.5116-.0669.8774.0627 1.7382.2572 2.5927.3409 1.5074.8114 2.9815 1.2067 4.4723.4559 1.7153.803 3.4535.7654 5.2332-.0586 2.7947-.755 5.4227-2.3004 7.7847-1.0143 1.553-2.3214 2.807-4.0216 3.615-1.6061.763-3.3042 1.015-5.0568.778-3.9588-.536-7.0916-2.489-9.4965-5.62-1.1942-1.553-2.1227-3.256-2.7543-5.117-.9327-2.7526-.8741-5.4784.1401-8.1959.4476-1.1955 1.0269-2.3245 1.6668-3.4264.251-.4325.5145-.8566.755-1.2933.2425-.4366.4726-.8794.6943-1.3244.6336-1.2683.688-2.5761.2802-3.9234-.5333-1.7589-1.5036-3.2497-2.7731-4.5616-1.3635-1.4118-3.0135-2.3807-4.835-3.0855-1.5706-.6092-3.2039-.9939-4.8456-1.3494-1.4681-.3202-2.9508-.578-4.3875-1.0313-.5981-.1892-1.1774-.4262-1.7337-.7152-1.7191-.8919-2.8463-2.2559-3.3126-4.1334-.6274-2.5282-.3535-4.9463.9641-7.2167.7319-1.2621 1.8027-2.1915 3.0512-2.9296.9306-.5489 1.9156-.9793 2.9299-1.3473 1.7713-.6404 3.5949-1.0915 5.4373-1.4658 2.7752-.5614 5.5566-1.0832 8.3297-1.655 1.9637-.4034 3.917-.8483 5.8243-1.4783.7152-.237 1.4095-.5218 2.0787-.8628 1.2694-.6466 2.3255-1.5552 3.2478-2.6239 1.5936-1.8463 2.9299-3.8569 3.9024-6.0941.7486-1.7257 1.2108-3.5304 1.4534-5.3933.2196-1.6904.205-3.3828.0962-5.0752-.092-1.4159-.3116-2.8215-.5688-4.2187-.3493-1.8858-.7362-3.7632-1.3489-5.5867-1.3447-4.0024-3.5469-7.4683-6.6043-10.3854-3.1056-2.96486-6.7633-4.95462-10.9522-5.96094-1.6835-.40335-3.39-.66741-5.1174-.80671-.9766-.07901-1.9532-.10188-2.9299-.10604-2.5012-.01455-4.9459.36178-7.3404 1.06453-3.0701.90236-5.9728 2.18104-8.6998 3.85061-1.5225.93145-2.9362 2.00015-4.1617 3.30375-1.2193 1.2974-2.1938 2.7445-2.5284 4.5118-.6462 3.4119.2551 6.3144 3.0282 8.5371.7612.6112 1.6019 1.1123 2.5221 1.4637 1.5622.6029 3.1474 1.1373 4.8246 1.2953 5.0422.4782 9.7434-.3909 13.788-3.624 1.2903-1.0312 2.4405-2.2205 3.0365-3.8236.1485-.3971.4057-.7422.6316-1.1019.1171-.1851.2447-.4574.4977-.368.2886.1019.2322.4137.1903.6549-.0564.3223-.0899.6383 0 .9585-.2551.4262-.5123.8525-.78 1.2995.6399.5718 1.0456 1.3161 1.4388 2.0667.9829 1.8733 1.6396 3.8589 1.7985 5.9672.2782 3.6801-1.0812 6.6678-4.0236 8.9258-1.5664 1.2038-3.344 1.9919-5.2346 2.5428-2.0055.5843-4.0529.9024-6.1442.919-1.4284.0125-2.8588.0416-4.2788-.133-.4664-.0583-.8888.1205-1.3363.1476-.6964-.1061-1.2653.2765-1.8425.5364-2.7981 1.2683-5.3851 2.8339-7.5307 5.0835-1.8948 1.9856-3.0952 4.3205-3.8899 6.8987-.5583 1.8151-.8658 3.678-1.0602 5.5597-.09.8691-.0419 1.7361.3576 2.5449 2.0348 1.4159 3.9693 2.9565 5.6486 4.7821 2.0139 2.1893 3.8396 4.5325 5.5064 6.988 1.5099 2.2268 3.0951 4.4099 4.3603 6.7968.2698.5094.4956 1.0271.5458 1.6072.0502.0437.1046.079.1652.106.6985.3348 1.4054.657 2.0976 1.0043.6504.3264 1.2611.7256 1.786 1.2287 1.3405 1.285 2.1038 2.8277 2.0704 4.7114-.0105.5718-.0439 1.1436-.0523 1.7153-.0084.5968-.0188 1.1956.0042 1.7923.0376.9273.2363 1.8068.6817 2.6467.548 1.0334 1.0164 2.1083 1.5225 3.165.0858.178.1799.353.2698.53.2112.206.207.505.3367.746v-.004c.1589.347.3304.69.4475 1.054l-.0042-.006c.3221.586.4978 1.235.7634 1.846 1.3405 3.079 3.0114 5.994 4.5862 8.953 1.2276 2.306 2.6267 4.522 3.4318 7.03.0544.168.1631.307.251.457.5458.489 1.1983.813 1.8424 1.137 1.7776.897 3.666 1.46 5.6256 1.807 2.1854.387 4.3917.46 6.5897.27 5.6172-.482 10.743-2.297 15.2267-5.761.2761-.214.5479-.432.8219-.649 1.0456-.7 1.8592-1.638 2.6622-2.582.1945-.227.3597-.478.5396-.713.0376-.046.0711-.096.1004-.148.0251-.047.0522-.095.0857-.139.0272 0 .0544-.004.0816-.008z" fill="#88ace9"/><path d="m36.807 123.052c.2907.191.5856.376.8679.576 1.7337 1.226 3.5322 2.345 5.452 3.266 1.4911.713 3.0282 1.295 4.6531 1.632 1.4326.298 2.8714.377 4.3144.077.1694-.035.3325-.102.4977-.154.5877-.332.4036-1.048.7487-1.501.023-.033.0335-.068.0314-.11.0564-.108.0418-.237.1108-.339.3304-.998.4727-2.035.6044-3.071.3012-2.366.1255-4.72-.207-7.067-.6421-4.541-2.0223-8.868-3.7957-13.086-1.1419-2.713-2.474-5.329-3.9212-7.8947-1.2381-2.1956-2.5953-4.3122-3.9777-6.4184-1.9993-3.0501-4.17-5.9693-6.4495-8.8136-1.1858-1.4803-2.4176-2.9233-3.71-4.3121-.2029-.2183-.4224-.4221-.6337-.6342-.0606-.0416-.1192-.0831-.1485-.1518-.069-.0332-.1212-.081-.1484-.1538-.0732-.027-.1255-.0769-.1485-.1518-.0774-.0249-.1297-.0728-.1485-.1518h.0021c-5.3767-5.0794-11.0253-9.8074-17.6234-13.2921-.4454-.3867-.9494-.3804-1.4869-.237-1.6459.4408-2.93618 1.366-3.87099 2.7799-.75496 1.1435-1.17949 2.4139-1.42627 3.7487-.33042 1.8005-.3597 3.6115-.19658 5.4328.11084 1.2434.29488 2.4722.51237 3.6989.06065.3472.15685.6549.44336.9148 1.82152 1.6571 3.14321 3.676 4.21191 5.8674.8553 1.7548 1.5036 3.5845 1.8529 5.5098.2823 1.5573.4057 3.1125-.0272 4.6635-.0753.2703.0167.4866.1401.709.5918 1.0687 1.1669 2.1478 1.7776 3.2061 2.4531 4.2414 5.2157 8.2754 8.2815 12.1024.0628.079.1276.154.1841.235.2049.296.4559.393.8365.345.6797-.087 1.3468.073 1.9951.279.8658.275 1.6626.695 2.4154 1.196 1.7107 1.133 3.1265 2.567 4.3395 4.206 1.3949 1.886 2.4635 3.929 2.9926 6.227.0586.258.1443.468.3765.611.1024.065.1819.166.2697.252z" fill="#ccb1be"/><path d="m53.3455 126.948c-.1339.077-.2259.185-.2824.33-.1505.391-.3095.78-.4663 1.169 1.3426-.333 2.3945-1.11 3.2457-2.162.5207-.645.8867-1.379 1.2046-2.144.5834-1.401.8344-2.861.849-4.366.0084-.846-.0083-1.695-.0125-2.541 0-.249-.0021-.497-.0042-.746-.1443-.959-.274-1.921-.435-2.876-.4977-2.954-1.3489-5.815-2.3736-8.628-1.2548-3.448-2.7814-6.7784-4.5109-10.0136-2.6727-5.0045-5.7637-9.743-9.2687-14.2152-2.6057-3.3267-5.3893-6.4974-8.476-9.3937-2.4259-2.2767-4.9606-4.4224-7.7546-6.252-1.9302-1.2642-3.9379-2.3828-6.1003-3.2061-1.2213-.4637-2.474-.813-3.7685-.9834-.4622-.0603-.9348-.0562-1.3865-.0811-.0481.1559.0376.185.0962.2162 3.5866 1.8671 6.9096 4.1313 10.1009 6.5993 3.0763 2.3785 5.8703 5.0523 8.4719 7.932 2.1122 2.3369 4.0801 4.7862 5.9874 7.2916 2.6183 3.441 5.0421 7.0109 7.2484 10.7243 2.6309 4.4286 4.8581 9.0487 6.5081 13.9307.7738 2.289 1.4221 4.618 1.8404 6.998.2677 1.518.4998 3.044.5395 4.593.0147.547.0983 1.094.0774 1.638-.0648 1.768-.1924 3.529-.7027 5.238-.1568.524-.3095 1.048-.6524 1.518-.1611-.217.1003-.383.0251-.568z" fill="#ab7b92"/><path d="m45.2209 83.7452c.2008-.3035.1652-.5925.0084-.9127-.6086-1.2559-1.3176-2.4555-2.0851-3.6178-.8365-1.2662-1.696-2.5158-2.5409-3.7757-.8428-1.26-1.7609-2.4659-2.6852-3.6677-.5584-.7277-1.1147-1.4637-1.7253-2.1478-.9453-1.0583-1.8697-2.1457-2.9446-3.0792-1.1439-.9959-2.3067-1.971-3.5677-2.8235-.1276-.0852-.2468-.1684-.4037-.1788-.1715.1539-.1798.3555-.1338.5531.3137 1.3077.7048 2.5947 1.1962 3.8485.046.1185.1548.1933.2635.2578.2886.8504.87 1.4637 1.5288 2.0667 2.9884 2.7278 5.7364 5.6844 8.2794 8.8281.6734.8337 1.305 1.6987 1.993 2.5199.7069.8442 1.4953 1.6052 2.5284 2.0563.0899.0395.1903.0499.2865.0749z" fill="#bea187"/><path d="m21.4845 59.6466c.1192.8815.3995 1.7174.709 2.5449.1129.2973.2217.5967.3304.8961.2029.1414.3953.2994.6107.4221 2.4761 1.4117 4.7598 3.0875 6.9347 4.9193.0941.079.184.1788.2949.2203.0962.0354.0878-.0852.1046-.1517-.2866-1.4555-.9119-2.809-1.2569-4.2519-.1757-.7361-.1192-1.5137-.4392-2.2185-.3555.551-.711.4408-1.2234.131-1.65-.9959-3.3482-1.9108-5.2094-2.4721-.2782-.0832-.5605-.2599-.8554-.0395z" fill="#cca097"/><path d="m58.0412 115.552c.1756.449.1505.917.1296 1.385-.0146 1.095-.0104 2.193 0 3.289.0586.68-.1129 1.335-.2509 1.99-.0774.364-.0439.665.1715.981.2384.347.4203.734.6106 1.112.3535.703.893 1.237 1.4932 1.759.9306-3.044 1.1063-2.965 2.8986-5.069-.0021-.214-.1945-.268-.3263-.37-1.3823-1.066-2.5284-2.335-3.3398-3.886-.4747-.91-.8219-1.867-.985-2.884-.0272-.17-.0774-.338-.1171-.509-.665.308-.2949.875-.3409 1.339.0188.289.0377.576.0565.865z" fill="#cca097"/><path d="m57.9917 114.687c.0104-.214.0251-.428.0334-.642.0105-.273.0879-.514.3074-.695.0398-.062.0753-.129.1213-.185.0607-.071.1318-.048.1903.008.0962.094.1025.221.1193.344.2969 2.112 1.2443 3.904 2.7019 5.447.5312.561 1.0958 1.087 1.7295 1.534.1213.086.2572.148.3869.223.0188-.202-.0272-.389-.0962-.58-.5019-1.404-1.031-2.791-1.8215-4.069-.3388-.549-.596-1.144-.9286-1.701-.458-.767-.8365-1.582-1.2819-2.358-.9767-1.707-1.8048-3.491-2.7103-5.233-.136-.264-.2761-.541-.4769-.753-.3241-.341-.4684-.752-.6274-1.172-.2467-.649-.4998-1.296-.7654-1.938-.0732-.179-.1254-.383-.3283-.482-.0272.264.1213.478.2091.706 1.029 2.649 1.9387 5.336 2.5723 8.109.2489 1.092.5103 2.181.6002 3.302.0042.046.0377.089.0586.135z" fill="#bea187"/><path d="m28.695 62.0351c.0335.1435.09.2849.0941.4284.0335.8711.2217 1.7153.4769 2.5428.3325 1.0874.6985 2.1623 1.0561 3.2414.0292.0894.0962.1684.1464.2516.023-.1102.023-.2308.1359-.3015-.3555-1.1228-.7194-2.2414-1.0624-3.3683-.1276-.42-.2949-.8358-.2656-1.2911-.2907-.8379-.3262-1.7091-.2551-2.5761.1798-2.1623.6127-4.2768 1.3238-6.3311.6566-1.8982 1.558-3.6634 2.8692-5.1999 1.4221-1.6654 3.0993-3.0335 4.9857-4.1459 1.5308-.9023 3.1077-1.707 4.8079-2.2538.0439-.0146.0795-.0582.1171-.0873-.085-.2329-.2921-.3348-.6211-.3057-1.2443.6238-2.5556 1.0999-3.7727 1.7923-2.2544 1.2787-4.2767 2.8256-5.9874 4.7717-2.3987 3.0127-3.4925 6.5368-4.0739 10.2627-.0355.2245.0941.4387-.0021.6549l.0063-.0145c-.161.6445-.4203 1.2891.0188 1.9294z" fill="#42443a"/><path d="m13.1756 61.3037c.0586.1871.2196.2557.3764.3368 1.6626.8587 3.252 1.8422 4.787 2.9088 1.1858.8233 2.3653 1.6529 3.4778 2.5719.4601.3805.9411.734 1.4117 1.102.4308.3368.872.6591 1.2882 1.0146.87.7423 1.6981 1.5365 2.5995 2.2372.6504.5052 1.1878 1.131 1.8571 1.6155.3994.2911.7277.6799 1.0833 1.0292.2154.21.4287.42.7403.4782-.0439-.2412-.2447-.368-.3953-.5281-2.6643-2.7778-5.5775-5.2749-8.6935-7.5391-2.244-1.63-4.5569-3.1499-6.987-4.491-.4999-.2765-.9829-.5925-1.5455-.736z" fill="#a67d93"/><path d="m54.545 102.442c.023-.424-.1694-.759-.4496-1.054.0418.397.2007.744.4496 1.054z" fill="#bea187"/><path d="m54.1034 101.39c.0314-.312-.0585-.572-.3367-.746.0398.28.1339.538.3367.746z" fill="#bea187"/><path d="m53.4819 126.499c-.1234.085-.1422.203-.1109.338.115-.087.138-.205.1109-.338z" fill="#ab7b92"/><path d="m45.3906 83.8508c-.0334-.0686-.0878-.1081-.1652-.1081.023.0852.0816.1164.1652.1081z" fill="#bea187"/><path d="m31.2421 75.0508c.0105.0894.0607.1393.1485.1518-.0125-.0853-.0627-.1373-.1485-.1518z" fill="#a67d93"/><path d="m31.1015 74.9009c.0084.0915.0586.1414.1485.1538-.0125-.0873-.0606-.1393-.1485-.1538z" fill="#a67d93"/><path d="m30.9531 74.7476c.0063.0935.0564.1434.1485.1538-.0126-.0873-.0607-.1393-.1485-.1538z" fill="#a67d93"/><path d="m30.7968 74.5947c.0042.0957.0544.1456.1485.1539-.0125-.0873-.0606-.1393-.1485-.1539z" fill="#a67d93"/><g fill="#e3cbc3"><path d="m28.6673 60.1188c.1652-.1165.1527-.3015.1778-.4699.2258-1.4741.5207-2.9337.9682-4.3621.6379-2.0334 1.5037-3.9504 2.8337-5.6345.1109-.1414.1841-.2911.228-.4616-.0063-.0374-.0146-.0749-.0209-.1144-1.2485-1.6529-3.0031-2.443-4.9668-2.8775-.3054-.0666-.5856.0416-.8679.1372-1.8446 1.5822-3.3503 3.4244-4.4127 5.6158-.6566 1.3577-1.0854 2.7819-1.3279 4.2665 0 .6695-.0126 1.3389 0 2.0064.0041.2661-.0147.5426.092.79.0669.0125.1234.0416.1631.0271 1.4723-.4907 2.955-.3535 4.4335-.0603.7111.1393 1.4012.3513 2.0558.6695.2405.1164.5124.1954.642.4657z"/><path d="m71.4131 124.41c.0335-.131.1632-.294-.0836-.346-.5103-.108-1.0248-.189-1.5329-.305-1.947-.447-3.8083-1.121-5.5315-2.144-.0628-.037-.136-.058-.205-.087-.3701.075-.299.374-.2509.592.4601 2.028.5584 4.076.4078 6.142-.0084.127.0544.239.1401.335.8156.368 1.6856.566 2.5556.746.895.185 1.8006.321 2.7019.479.2489.118.5312-.017.778.101.6964.046 1.3907.107 2.0871.138 3.0324.135 6.0208-.162 8.957-.934.1192-.031.2426-.054.3639-.079.1757-.229.0314-.424-.0774-.611-.7821-1.318-.9954-2.716-.6023-4.2.0398-.148.0377-.293-.0941-.405-.7926.112-1.5831.243-2.3778.334-1.5433.177-3.093.285-4.6489.154-.573-.048-1.1502-.073-1.7191-.15-.2948-.039-.481.042-.6253.279-.0251.042-.0669.073-.1004.11-.8051.74-1.0581 1.73-1.169 2.747-.0711.651-.0774 1.324.0732 1.977-.3283-1.067-.069-3.004.5981-4.14.138-.234.3033-.455.3555-.731z"/><path d="m82.2488 128.919c.8721-.314 1.7484-.608 2.5995-.978 2.016-.879 3.8292-2.066 5.4374-3.557.8428-.782 1.6668-1.584 2.3736-2.495l.0126.01c-.8972-.349-1.3552-1.054-1.5769-1.931-.184-.1-.2969.031-.414.102-2.8107 1.732-5.8431 2.917-9.0721 3.619-.092.021-.1757.084-.2635.125-.619.876-.5835 1.865-.4036 2.834.1275.697.4224 1.364.8219 1.967.1087.164.1652.457.4851.302z"/><path d="m32.8763 49.1914c.1777-.0499.2948-.1767.414-.3077 2.451-2.6946 5.4813-4.5264 8.8546-5.8446.1401-.054.297-.081.4162-.1621.1129-.077 0-.1643-.0565-.235-.801-.0312-1.6019-.0582-2.4029-.0956-2.9613-.1331-5.8536.1996-8.6413 1.2496-1.2255.4615-2.3736 1.0645-3.4485 1.8088-.1631.1123-.3346.2163-.5019.3244.1004.4532.5207.341.8051.4158 1.8278.4824 3.4088 1.339 4.5737 2.8589l-.0146-.0104z"/><path d="m56.6736 34.2363c-.046.5177-.0941 1.0333-.138 1.5511-.0125.1393.0544.2307.2029.2557.1715.0291.3409.0707.5144.0956 1.4995.2121 2.8965.6924 4.1638 1.5282.0209.0125.0481.0146.0711.0229 1.6961-1.9607 2.4552-4.2332 2.2963-6.8113-.0314-.5198-.0126-1.0479-.2196-1.5428-.6253-.1289-1.2506-.2536-1.8759-.3888-.2677-.0582-.5333-.0894-.8052-.054-.3889.3929-.4412.9418-.6357 1.42-.7069 1.7528-1.7693 3.1666-3.5741 3.9234z"/></g><path d="m55.2045 27.2536c-.0084.0977-.0523.21-.0188.289.2007.4803.4161.9543.6315 1.4284.0586.1268.1653.185.3054.1372.1171-.0395.23-.0977.3471-.1414 1.0917-.4012 2.2231-.526 3.3817-.4678.3994.0208.7988.025 1.1983.0374.1296-.1185.253-.2474.2907-.4241.2572-1.2371.5918-2.4659.4433-3.7529-.2196-.5343-.6169-.9564-.9243-1.4346-.0941-.1456-.2552-.1414-.3744-.0063-.0983.1123-.1819.2371-.2802.3493-1.4305 1.6197-3.0491 3.0044-4.9961 3.9858z" fill="#cca097"/><path d="m64.3522 128.595c.2363-1.222.159-2.461.1171-3.69-.0251-.755-.2175-1.506-.345-2.256-.0523-.314-.1339-.624-.1841-.94-.0083-.054.0732-.121.113-.183-.1004-.156-.2845-.193-.4225-.293-.1736-.127-.3137-.096-.4559.054-.9829 1.035-1.8633 2.135-2.3276 3.512-.1276.376-.2259.757-.2635 1.156-.0335.351.0774.609.3639.829.8951.686 1.8466 1.269 2.9069 1.668.161.06.3325.098.4977.145z" fill="#cca097"/><path d="m61.2969 37.8322c-1.2757-.7152-2.6309-1.1996-4.0843-1.4096-.0983-.0146-.1966-.0437-.2949-.052-.3304-.0291-.4852-.0229-.5647.3929-.161.8567-.4538 1.6758-.8344 2.4639-.4601.9501-1.0645 1.7963-1.8173 2.5324.0648.1164.1756.0977.2656.1247 1.054-.3056 2.1038-.6216 3.1076-1.0707 1.4451-.6467 2.771-1.4742 3.9087-2.5782.1213-.1185.2739-.2204.3137-.4054z" fill="#e3cbc3"/><path d="m61.6883 21.2083c.1192-.4512.2572-.8982.2488-1.3702-.0021-.1497-.0188-.2931-.1108-.4241-.1799-.2558-.3827-.2786-.6232-.0728-.3555.3015-.481.7527-.7424 1.1144-.1736.2391-.3095.5177-.4016.8005-.2614.8067-.803 1.4263-1.3405 2.0438-.9745 1.1186-2.1352 2.0314-3.4151 2.7695-1.5413.8878-3.1766 1.5677-4.9417 1.8962-.7571.1413-1.5162.2827-2.2753.4158-.1715.0291-.3493.0249-.525.027-.803.0042-1.604-.0062-2.407.0063-1.7421.0291-3.4172-.3348-5.0714-.8317-.4497-.1351-.8721-.3867-1.3657-.3659.4601.3659 1.0227.5156 1.5602.7048 1.6354.5759 3.3188.9232 5.063.9731 2.0871.0602 4.1429-.1123 6.1777-.6113 2.794-.6882 5.1843-2.0667 7.2672-4.0107.9704-.9065 1.8258-1.9129 2.61-2.9795.0711-.0977.1527-.21.2949-.0831z" fill="#da8a49"/><path d="m93.8492 117.677c-.5793.578-1.2402 1.058-1.8989 1.541-.1192.087-.2384.176-.3639.255-.1903.121-.251.266-.2049.499.0982.501.3241.923.6796 1.289.205.212.4664.37.6149.637 0 0-.0147-.011-.0126-.011 1.9407-2.15 3.4277-4.568 4.3792-7.302.0732-.212.1589-.42.1192-.651l.0042.015c-.0565-.044-.1129-.042-.1673.004l.0146-.01c-.7675 1.135-1.6688 2.154-2.6601 3.098-.1966.187-.4183.359-.4998.638z" fill="#e2cac3"/><path d="m61.7807 24.3613c-.1296.104-.1485.2495-.1464.4013.0084.892-.2133 1.7527-.3388 2.626-.0564.3867-.1631.7651-.2467 1.1498.8386.1933 1.6751.3888 2.5137.5821 0-.0748-.0021-.1497-.0042-.2266-.0418-.1102-.0418-.2308-.092-.3368-.3032-1.181-.7069-2.3266-1.2422-3.4244-.1297-.2661-.228-.551-.4434-.7693z" fill="#e2cac2"/><path d="m32.8906 49.2009c-.0564-.3118-.2781-.5177-.4831-.7297-1.1669-1.2018-2.612-1.8942-4.2244-2.2788-.2363-.0561-.5061-.0291-.6713-.2661-.2112.0811-.3262.2744-.4894.4116.5584-.0415 1.0938.0728 1.6208.2308 1.5099.4512 2.8483 1.1831 3.9107 2.3661.0962.1061.1652.2537.3367.2641z" fill="#42443a"/><path d="m71.4104 124.408c-.7884.871-1.0938 1.936-1.1983 3.065-.0586.642-.0628 1.293.1255 1.925.0355.121.0669.241.2028.3.138-.044.0607-.146.0481-.223-.1506-.967-.161-1.927.0648-2.886.1276-.538.3284-1.041.617-1.513.1024-.169.1903-.348.2844-.52-.0481-.05-.0962-.098-.1422-.148z" fill="#525450"/><path d="m82.25 128.916c-.0899-.031-.2133.019-.2698-.089-.3492-.682-.6985-1.362-.8888-2.112-.1987-.788-.1443-1.566.092-2.337.0565-.188.1088-.377.1632-.566-.1067.004-.2134.01-.32.015-.0816.411-.251.8-.3032 1.222-.159 1.264.1903 2.402.8197 3.479.0962.164.2907.284.2573.515.1694.023.3325.029.4496-.129z" fill="#4e524e"/><path d="m93.8449 117.678c.412-.237.7048-.61 1.0352-.936.7194-.713 1.351-1.501 1.9156-2.341.0942-.141.2238-.268.2113-.46-.159.04-.2405.169-.3242.289-.7821 1.096-1.7253 2.044-2.7019 2.967-.1067.1-.1966.219-.2928.329.0523.05.1066.102.1589.152z" fill="#5a564a"/><path d="m58.1667 120.226c.1631-1.096.1631-2.194 0-3.289-.1045.083-.1485.191-.1485.32v2.646c0 .129.0419.24.1443.323z" fill="#212f2b"/><path d="m70.3906 129.923c-.2447-.141-.5103-.133-.7779-.102.2384.198.5102.137.7779.102z" fill="#525450"/><path d="m63.4727 28.5566c-.0293.1289-.0084.2433.092.3369.0418-.131.0272-.2475-.092-.3369z" fill="#5a5652"/><path d="m56.673 34.2352c.3974.0499.7529-.0915 1.0519-.3119.3953-.2911.7885-.5842 1.1168-.9689.3723-.4366.755-.8608 1.008-1.3743.4266-.8649.8658-1.7257 1.0331-2.6904-1.1669-.1352-2.3318-.1394-3.482.1309-.3367.079-.6692.1913-.9934.3161-.3158.1226-.3785.2578-.3095.5759.0837.3846.1966.7651.2656 1.1539.184 1.0459.3012 2.1021.3074 3.1645z" fill="#cca097"/><path d="m28.7014 62.0349c.0104-.4803-.0188-.9647.069-1.4409.0335-.1767-.0146-.3326-.0878-.4865-.1632-.0561-.3305-.1019-.4873-.1726-1.4263-.6445-2.9362-.921-4.4879-.9564-.6902-.0145-1.3949.0291-2.0453.3223-.1506.0686-.2447.1705-.1715.3493.573.0728 1.1063.2952 1.6375.499 1.2088.4616 2.3757 1.0208 3.4862 1.6883.5751.3451 1.1627.6715 1.7441 1.0042.1757.0998.297.0457.3095-.1393.0147-.2225.023-.4449.0335-.6653z" fill="#e3cbc3"/><path d="m48.23 16.88c-.4203.2702-.8323.5509-1.1732.921-.4685.5094-.7717 1.0916-.7989 1.8006-.0188.499.1422.9252.4601 1.3036.5793.6903 1.3342 1.0188 2.2272 1.0687.8616.0478 1.6919-.1185 2.5096-.3639.3827-.1143.7529-.2682 1.1272-.4054.0774-.1892.1234-.3888.2154-.5738.4538-1.7486-.9578-3.6781-2.8839-3.9421-.5709-.0104-1.1418-.0395-1.6835.1913z" fill="#212f2b"/><path d="m52.5983 20.7828c-.2133.1372-.0502.2807-.0083.4221 1.5371-.5198 2.8964-1.3286 4.0174-2.5054.3973-.4179.7194-.8857.8888-1.4492.2844-.946-.0586-1.7465-.9537-2.1582-.3869-.1788-.7947-.2869-1.2234-.3181-2.5765-.1871-4.8769.5759-6.987 1.9939-.0398.0271-.0628.0749-.0941.1123.6127 0 1.2234-.0021 1.8361-.0041-.2112-.5531-.6838-.1872-.9892-.2745.2615.0312.4769-.158.7153-.2724 1.6019-.7609 3.2687-1.2724 5.0672-1.1851.8302.0416 1.7107.0998 2.1352.9689.4434.9044-.1736 1.5781-.6734 2.2185-.642.8233-1.5496 1.3286-2.451 1.8213-.4162.2266-.8512.4221-1.2799.6279z" fill="#605947"/><path d="m96.9889 113.952c.0565 0 .1109-.002.1673-.004-.0585-.092-.1129-.083-.1673.004z" fill="#29342e"/><path d="m48.8296 121.883c.138-.061.2719-.125.412-.179 1.696-.67 2.5953-1.955 2.9131-3.697.2468-1.349.1088-2.684-.2091-3.998-.7194-2.975-2.062-5.658-4.0153-8.019-1.7964-2.175-4.0717-3.658-6.7988-4.45-.6671-.193-1.3384-.204-2.0097-.125-.6107.073-1.1356.379-1.602.772-.7277.615-1.2066 1.389-1.4681 2.297-.1882.649-.2886 1.312-.322 1.986-.3534 1.834.1652 3.559.7529 5.246 1.1941 3.424 3.047 6.426 5.9999 8.655 1.1293.853 2.3883 1.443 3.7915 1.722.8784.176 1.7337.218 2.5556-.212z" fill="#212f2b"/><path d="m26.2516 88.6772c.3116-.0894.6273-.1726.9348-.2724 1.4053-.4533 2.338-1.393 2.8441-2.7632.2991-.8067.366-1.6467.3597-2.4971-.0104-1.2288-.2342-2.4222-.6023-3.5928-.7382-2.3494-1.8424-4.5138-3.3523-6.4641-1.8069-2.3349-4.1157-3.9629-6.9578-4.8403-.711-.2204-1.4241-.2516-2.1498-.1996-.3827.027-.7257.183-1.054.368-.9056.5115-1.5288 1.2662-1.9094 2.2247-.2405.6051-.366 1.2392-.4559 1.8796-.504 2.1665.138 4.1937.8323 6.1897 1.0311 2.9669 2.7166 5.5284 5.0714 7.645 1.4681 1.3203 3.1537 2.1832 5.1195 2.4763.4559.0686.8888-.0436 1.3217-.158z" fill="#212f2b"/><path d="m26.25 88.6769c-.778 0-1.5476-.0332-2.3067-.237-1.5078-.4054-2.817-1.1622-3.9756-2.1852-2.2209-1.9586-3.7748-4.3704-4.8643-7.0962-.5668-1.42-.9369-2.89-1.1377-4.3995-.0753-.5634-.0418-1.1435-.0544-1.7153-.0041-.1726-.0021-.3472-.0041-.5198-.1632.1768-.2217.4159-.435.5801-.205.158-.3409.4262-.4643.6674-.4099.7984-.7194 1.6322-.8909 2.5158-.0983.5115-.1903 1.023-.1631 1.549.0083.1476-.0042.3015-.046.4408-.0565.1975-.0753.3825-.0063.5821.0397.1144.0481.2433.0523.366.0795 1.9357.7508 3.6759 1.7839 5.2935.5228.8171 1.1 1.5927 1.8152 2.2621 1.2799 1.1976 2.7417 2.0647 4.4566 2.4784.8971.2162 1.8089.3826 2.7375.3036 1.215-.1019 2.428-.2308 3.5029-.8858z" fill="#ab7b92"/><path d="m48.8281 121.881c-.3722.043-.7424.116-1.1146.129-1.3908.049-2.6664-.356-3.8752-1.005-1.6145-.867-2.9132-2.1-4.0299-3.528-2.0014-2.56-3.3022-5.441-3.8773-8.635-.1401-.782-.2091-1.576-.2008-2.374-.2844.509-.299 1.091-.4224 1.64-.2342 1.052-.1861 2.127-.1527 3.194.0147.493.0878.987.1757 1.474.1485.827.3325 1.651.5521 2.464.4454 1.653 1.1565 3.179 2.2168 4.522.6043.767 1.3447 1.414 2.2063 1.89.8951.495 1.8006.967 2.817 1.2 1.215.278 2.4301.326 3.6325.018.7466-.189 1.466-.488 2.0704-.994z" fill="#ab7b92"/><path d="m77.2013 129.7c.0899-.102.1861-.212.2844-.318.1506-.16.3514-.231.5459-.152.2342.098.4287-.01.642-.025.55-.035 1.0436-.324 1.5957-.307.1568.004.2927-.059.4245-.131.1255-.071.1736-.167.1213-.306-.1485-.395-.2928-.792-.4392-1.187-.0251-.071-.0502-.142-.0753-.21-.1213-.335-.2467-.645.1673-.909.1966-.127.1799-.599.0272-.832-.1359-.205-.343-.361-.4015-.621-.0084-.038-.138-.092-.1861-.073-.2468.096-.4831.102-.7299-.004-.0962-.042-.1945 0-.2781.062-.3848.283-.732.227-1.0729-.093-.1924-.181-.2258-.179-.4182.035-.2573.287-.6044.36-.9453.374-.7006.031-1.4012.013-2.1039.009-.3074 0-.6462-.073-.8323-.277-.2719-.295-.4099-.239-.6253.023-.1192.145-.3262.106-.4977.104-.2489 0-.4266.089-.5458.316-.3807.728-.7738 1.451-.7487 2.31.0042.154-.0293.297-.1318.418-.1296.152-.1631.301-.023.466.1004.116.1652.253.1527.409-.0272.343.0544.576.4642.605.1736.013.3012.177.3932.327.1234.197.2991.239.5124.237.9515-.005 1.9031 0 2.8546 0 .1799 0 .3242-.04.4622-.185.5186-.547.6734-.549 1.3133-.09.0188.015.0481.015.092.027z" fill="#e3cbc3"/><path d="m52.5921 20.785c.0356.0749.1088.1227.1778.0956 1.4451-.6029 2.7961-1.3431 3.8271-2.5573.3095-.3639.5395-.7693.6859-1.2309.2112-.657-.0648-1.4554-.8302-1.7922-.4852-.2142-.9955-.3181-1.5288-.341-1.6646-.0728-3.2248.3264-4.7284 1.0001-.4287.1913-.8595.3867-1.2903.7006.4078.1643.8365-.0436 1.1627.2204 1.2506.2828 2.0307 1.0978 2.5159 2.2289.2363.5489.1735 1.1165.0083 1.6758z" fill="#faf5e8"/><path d="m40.9666 103.419c.0377 2.264.6964 4.36 1.7818 6.333.9076 1.646 2.0223 3.141 3.3921 4.445.6713.64 1.4032 1.202 2.2209 1.647.7111.386 1.466.638 2.2733.727.1987.023.4015.038.6002.021.7299-.058.6608-.145.6316-.721-.0565-1.102-.3221-2.165-.6693-3.206-.6734-2.023-1.6395-3.903-2.8964-5.629-1.5601-2.143-3.5385-3.782-6.0083-4.807-.2761-.114-.5605-.216-.8449-.307-.2949-.094-.3973-.021-.4413.301-.023.173-.0313.347-.0355.522-.0063.224 0 .447 0 .671z" fill="#cad6d6"/><path d="m19.0986 69.8077c.023 1.7881.3848 3.5076 1.0979 5.1501.9641 2.2226 2.3256 4.1771 4.0718 5.8653.6671.6446 1.3991 1.208 2.2168 1.6571.8009.4387 1.6542.7132 2.5702.7652.9348.054 1.0561-.0686.9536-.9835-.1318-1.1664-.4204-2.2995-.8219-3.4036-.6776-1.8629-1.5915-3.599-2.7605-5.202-1.4848-2.0376-3.3628-3.6095-5.68-4.6449-.2739-.1227-.55-.2474-.8344-.3368-.6797-.2121-.688-.3244-.8072.5385-.0272.1954-.0042.3971-.0042.5967z" fill="#cad6d6"/></svg>