<svg fill="none" viewBox="0 0 227 216" xmlns="http://www.w3.org/2000/svg" xmlns:xlink="http://www.w3.org/1999/xlink"><clipPath id="a"><path d="m0 0h227v216h-227z"/></clipPath><g clip-path="url(#a)"><path d="m225.076 159.881c-1.025-5.559-2.042-11.118-3.081-16.673-.235-1.251-.597-2.469-1.084-3.646-.106-.253-.241-.45-.585-.381-.315.063-.589-.135-.875-.237-.863-.315-1.727-.633-2.594-.944-10.678-3.851-21.269-7.932-31.727-12.346-9.123-3.855-18.272-7.644-27.673-10.8-4.654-1.561-9.276-3.207-13.785-5.164-.281-.12-.574-.215-.86-.329-.219-.087-.417-.076-.625.044-1.296.746-2.694 1.273-4.077 1.814-4.446 1.745-8.878 3.518-13.221 5.511-.183.085-.388.234-.568-.018.026-.084.037-.175.077-.249 1.669-3.057 2.496-6.352 2.683-9.808.161-2.969-.311-5.855-1.442-8.6161-.604-1.4738-1.427-2.8123-2.598-3.9168-.71-.6692-1.497-1.2105-2.438-1.5103-2.155-.6876-3.677.3218-3.827 2.5782-.044.651.011 1.3129.066 1.9676.183 2.2308.27 4.4614.128 6.6994-.066 1.057-.256 2.089-.56 3.098-.22.717-.538 1.39-1.01 1.978-.963 1.207-2.28 1.474-3.634.728-.666-.365-1.186-.896-1.643-1.496-.644-.841-1.142-1.77-1.515-2.757-.417-1.104-.787-2.231-1.153-3.354-.53-1.623-1.002-3.269-1.573-4.8745-1.051-2.9403-2.423-5.7161-4.223-8.287-3.7219-5.3138-11.6811-7.8994-18.2387-5.2516-2.3311.9435-4.2852 2.3625-5.899 4.2788-2.3127 2.7465-3.9814 5.866-5.3171 9.1757-1.7748 4.3926-3.169 8.9126-4.4718 13.4616-.8672 3.032-1.7528 6.06-2.8909 9.008-1.4125 3.657-3.2093 7.109-5.6208 10.214-2.2798 2.929-4.8963 5.497-8.102 7.424-2.3237 1.393-4.7974 2.337-7.5017 2.67-1.3357.164-2.6275 0-3.8826-.458-1.5187-.552-2.6092-1.587-3.2752-3.053-.2891-.64-.4831-1.313-.6148-2.004-.3147-1.668-.1903-3.321.1391-4.963.6001-3.024 1.9504-5.705 3.7838-8.159 1.1088-1.481 2.4042-2.79 3.7582-4.041 1.8699-1.726 3.857-3.317 5.8294-4.923 2.9239-2.384 5.8185-4.805 8.4569-7.508 4.362-4.465 7.9006-9.4935 10.3378-15.2608 1.2149-2.8708 2.1188-5.844 2.9934-8.8319 1.0942-3.7412 1.5955-7.5373 1.0246-11.4285-.139-.0841-.2598-.0622-.3623.0658-.0768.1171-.1354.2451-.1646.384-.1757 1.1667.1207 2.3625-.2196 3.5145-.4977 3.9058-1.5369 7.6763-2.8726 11.3736-.1061.3804-.0988.7827-.2708 1.1484-2.0383 5.4198-4.7975 10.4264-8.5301 14.8769-.2012.304-.3952.615-.655.871-3.3228 3.573-7.0334 6.729-10.7147 9.91-.2196.216-.4684.395-.7283.564-3.319 2.453-6.3929 5.167-9.0277 8.363-.8417 1.021-1.1527 2.509-2.5982 3.021-.2452.088-.2012.366-.1098.574.2416.549-.0183 1.013-.2012 1.507-.4904 1.313-.9881 2.626-1.2003 4.114-.2818-1.964-.2598-3.858-.1281-5.723.344-4.988 1.8663-9.593 4.9365-13.615.0769-.103.1428-.205.1976-.319 1.6248-2.797 3.8424-5.087 6.2357-7.226.5525-.351.8855-.936 1.3869-1.342.2708-.234.6148-.377.8453-.662.3037-.37.5818-.7609.9185-1.1083 3.2313-3.306 6.1039-6.8644 7.8531-11.2054.0878-.1792.1939-.3511.2854-.5266 1.7565-4.1326 3.1398-8.3565 3.1508-12.9133.0695-1.3495-.1647-2.7099.161-4.0484.0915-.6181.1976-1.2398-.172-1.8176-.3586-.2487-.5672-.011-.7721.234-.2342.4901-.205 1.0131-.216 1.536 0 .6949.0879 1.3934-.128 2.0736-.4684 2.3625-.699 4.7652-1.1857 7.1314-1.2186 5.9501-3.5533 11.348-7.5749 15.9742-2.8251 3.2476-5.9246 6.2204-8.9729 9.2484-2.6421 2.623-4.8341 5.548-6.36 8.953-1.6943 3.789-2.3969 7.786-2.3091 11.9.0732 3.442.9624 6.755 2.1078 9.992 1.1893 3.36 3.8094 5.211 7.37 5.324 2.7519.088 5.2988-.651 7.7323-1.839 6.4186-3.134 10.7843-8.295 14.0814-14.449 2.9861-5.574 4.3913-11.718 6.2393-17.701 1.6943-5.489 3.4106-10.9785 6.4186-15.9339 1.343-2.2089 3.3484-3.4706 5.9758-3.4596 6.6638.0292 11.7686 2.6843 14.7876 8.8465.9076 1.8542 1.5992 3.796 2.4811 5.658 1.4857 3.148 3.2387 6.111 5.8847 8.469 2.945 2.626 6.568 2.612 9.243-.256 2.17-2.329 3.067-5.273 3.36-8.378.197-2.103-.128-4.1947-.414-6.2793-.099-.735-.033-1.4299.567-1.9236.644-.5266 1.343-.2487 1.987.0439.977.4388 1.782 1.1117 2.423 1.9712 1.248 1.6676 2.152 3.4998 2.682 5.5218 2.042 7.816-1.716 17.138-9.796 20.897-.231.124-.465.242-.699.359-.117.054-.234.106-.351.168-4.9 1.909-11.246.164-14.59-4.049-2.5509-3.214-4.5892-6.831-7.6301-9.654-1.1198-1.109-2.3457-2.092-3.6119-3.029-.3183-.234-.7062-.501-1.0831-.307-.4282.223-.2855.702-.1903 1.064 1.1124 4.224 1.2478 8.522 1.0466 12.855-.1574 3.412-.5526 6.784-1.4821 10.083-.0732.932-.827 1.152-1.5186 1.419-14.3376 5.573-28.6312 11.256-42.9541 16.866-10.2829 4.027-20.5658 8.057-30.8451 12.091-.1244.044-.2525.091-.3733.15-.2488.099-.4976.194-.7428.303-.5965.315-.97341 0-1.35399-.424-1.83336-2.055-3.20564-4.359-4.11317-6.97-2.14075-6.163-2.66404-12.5-1.94314-18.922 1.07586-9.596 3.55328-18.765 8.8192-27.012.2342-.369.4903-.735.4098-1.214-.0805-.216-.1903-.384-.4611-.303-.2671.343-.5562.669-.8014 1.027-1.61378 2.355-3.00069 4.839-4.25953 7.399-1.22224 2.486-2.15173 5.076-2.84335 7.76-1.03927 4.045-1.67967 8.144-1.92851 12.317-.27079 4.48-.19029 8.938.64772 13.36.56355 2.976 1.37593 5.888 2.65672 8.645 1.00634 2.169 2.32372 4.122 4.19734 5.647.27441.223.19029.424.10246.687-1.09416 3.39-1.67967 6.89-2.23589 10.397-.10979.695-.14272 1.394-.0549 2.096.06953.534.24884.907.89656.892.24152-.003.49036.165.72822.274 2.55796 1.152 5.11586 2.301 7.66646 3.464 11.1282 5.065 22.2601 10.119 33.2273 15.532 9.6755 4.772 19.5486 9.076 29.5936 13.012 7.5604 2.962 15.2122 5.595 23.0874 7.573.457.117.889.242 1.171-.215.325-.531.816-.739 1.357-.929.579-.201 1.149-.432 1.709-.681 4.362-1.945 8.743-3.858 13.083-5.855 6.492-2.984 12.932-6.081 19.442-9.025 11.143-5.04 22.341-9.962 33.487-14.991 12.947-5.837 25.894-11.677 38.947-17.272 3.587-1.536 7.125-3.178 10.554-5.054.381-.209.783-.417 1.094-.714.253-.237.45-.278.783-.241.469.051.725-.267.707-.728-.008-.175-.041-.347-.074-.519zm-127.0181-32.881c-2.4152.877-4.7828 1.879-7.3993 2.794 1.7894-2.52 2.1663-5.281 2.5835-8.02.3367-2.213.3403-4.444.2964-6.678-.0219-1.138-.2598-2.253-.1317-3.456.8453 1.104 1.698 2.205 2.5396 3.313.8746 1.148 1.7273 2.315 2.6092 3.456.7758 1.006 1.6544 1.924 2.5724 2.801 1.08 1.035 2.262 1.931 3.612 2.593.194.095.377.212.56.329.029.019.029.077.058.18-2.429.896-4.863 1.799-7.3038 2.688z" fill="#222f2b"/><path d="m104.738 123.804c-1.351-.658-2.533-1.558-3.612-2.593-.919-.877-1.797-1.795-2.5728-2.801-.8819-1.145-1.7345-2.308-2.6091-3.456-.8417-1.108-1.6943-2.209-2.5396-3.313-.1281 1.203.1134 2.315.1317 3.456.0403 2.234.0366 4.465-.2964 6.677-.4135 2.74-.7904 5.501-2.5836 8.021 2.6165-.915 4.9878-1.917 7.3994-2.795 2.4374-.888 4.8704-1.791 7.3044-2.687-.033-.103-.033-.165-.059-.18-.183-.113-.366-.234-.56-.329z" fill="#fff"/><path d="m26.3746 92.8754c.2122-.2158.4208-.4389.644-.6473 1.1454-1.0862 2.2945-2.1687 3.4399-3.2549 3.5898-3.4084 5.6354-7.647 6.7077-12.4195 1.0282-4.5897.805-9.1355-.3294-13.6703-.6367-2.549-1.2881-5.098-2.0932-7.5995-1.343-4.1837-2.2285-8.4698-2.9934-12.7852-.4464-2.5161-.4245-5.0651-.0658-7.5995.4062-2.8672.9624-5.7014 1.8882-8.4516 2.0493-6.0964 5.555-11.2017 10.5428-15.2684 4.9292-4.0192 10.4366-6.89369 16.6685-8.33825 3.8168-.88502 7.6555-1.01302 11.4979-.37668 4.2522.70216 8.3654 1.91632 12.3322 3.62054 4.2119 1.80661 7.4249 4.77249 9.9572 8.51009 1.5589 2.3003 2.3749 4.8603 2.4298 7.6617.0513 2.7245-.6806 5.204-2.2908 7.3946-2.6421 3.595-5.8953 6.4658-10.0011 8.3163-2.5689 1.1593-5.2586 1.9419-7.9921 2.5892-2.0456.4828-4.0913.9765-6.1442 1.4409-1.2661.289-2.3713.8668-3.33 1.7372-.0439-.0439-.0879-.0841-.1354-.128-.1574-.5157.2305-.7973.4171-1.1959-3.9119 2.0407-7.6993 4.1947-8.2995 9.2488-.1281 1.0752.0403 1.2398 1.1235 1.035.6952-.1317 1.321-.4389 1.9614-.7131.3952-.1683.8563-.5742 1.2405.0512-.5635 1.1044-1.676 1.3567-2.7079 1.5469-1.698.3145-1.7199.1609-1.7163 2.1943 0 .4791.0183.9508.1757 1.4116.1097.9509.3805 1.8798.3586 2.8453-.0878.4278.0183.9691-.6221 1.0788-.2269-.1572-.3696-.384-.4282-.64-.666-2.944-1.3027-5.9026-.9038-8.9453.2598-1.9748.9624-3.807 2.0749-5.471 2.7848-3.2292 6.2868-4.8823 10.55-5.4345 5.2512-.6766 10.4183-1.8797 15.1938-4.3373 2.8434-1.4665 5.1781-3.5438 7.2237-5.9757 4.7133-5.1931 3.7802-12.2989-1.3467-17.8723-3.1178-3.39019-6.9784-5.38332-11.238-6.76936-4.2632-1.38239-8.5886-2.59655-13.108-2.57095-3.5679.01828-7.048.76434-10.4219 1.96021-5.2147 1.84684-9.8182 4.71402-13.6899 8.6162-5.7672 5.8111-9.1338 12.8108-10.217 20.9881-.8197 6.1732.9148 11.9039 2.4262 17.6931 1.2039 4.619 2.8397 9.1282 3.5423 13.8678 1.0649 7.1753-.3037 13.8604-4.2742 19.9532-1.7126 2.6295-3.9595 4.7872-6.5247 6.6047-.3586.256-.7136.5157-1.1857.5157-.2268-.0475-.3988-.1426-.3403-.4206z" fill="#27312b"/><path d="m67.235 43.738c-.9002 1.7481-.9551 3.584-.6807 5.4893.3843 2.6551 1.1747 5.1931 2.0639 7.7092.6807 1.9346 1.4199 3.8546 2.0932 5.7929.4318 1.2361.8307 2.4868 1.0064 3.7924.139.2706 0 .5998.1866.8594.0183.1609.0402.3218.0585.4791.1318.4571.1903.9143-.0366 1.3641l.011-.011c-.3586.1097-.4208-.1682-.5196-.3986-.0329-.1207-.0512-.245-.0622-.3694-.022-.3035-.0769-.6034-.1903-.8886-.2306-.6437-.3623-1.3166-.5782-1.9639-.527-1.7371-1.1673-3.4377-1.7894-5.1456-.183-.4973-.4355-.9362-.8015-1.3165-.0841-.1061-.1354-.2268-.1573-.3584-.0915-1.408-.7319-2.6624-1.1271-3.9826-.4611-1.5323-.8746-3.0756-1.2515-4.6336-.1647-1.2946-.2891-2.5965-.172-3.9021.1281-1.419.7904-2.2711 1.9175-2.549l.0329.0292z" fill="#27312b"/><path d="m26.371 92.8748c.1098.106.2196.2084.3294.3145-.0073.7533-.6697.9691-1.1234 1.3385-3.0154 2.4466-6.2466 4.6372-8.9985 7.4052-1.0795 1.087-2.0456 2.268-2.9495 3.504-.3001.413-.5269.936-1.1673.929-.1135-.114-.2233-.227-.3367-.34.0073-.044.0037-.095.0293-.128 1.8736-2.476 3.7838-4.919 6.2356-6.8647 1.0283-.8155 2.0749-1.6018 3.1324-2.3771 1.4821-1.0862 2.9312-2.2089 4.3108-3.4231.161-.1389.355-.2413.5306-.362z" fill="#47493b"/><path d="m71.9219 69.2215c.011-.4535.0256-.9069.0366-1.3641.2598.4279.2708.8887.2012 1.3641-.0805 0-.1573 0-.2378 0z" fill="#65605b"/><path d="m71.8997 67.379c-.2744-.2414-.2854-.5376-.1866-.8595.2305.2487.2452.5449.1866.8595z" fill="#65605b"/><path d="m12.4608 106.366c.6221-.783 1.2442-1.565 1.8626-2.352 1.9322-2.454 4.2815-4.4651 6.7407-6.3668 1.6577-1.2836 3.3154-2.56 4.9694-3.8436.2379-.1865.4428-.4096.666-.6144 3.524-2.4064 6.5248-5.3101 8.6033-9.077 1.4747-2.6733 2.3969-5.5405 2.9275-8.5393.2672-1.5104.4391-3.0354.4757-4.5678.0659-2.5563-.322-5.0651-.8855-7.5482-.6295-2.7794-1.3577-5.5296-2.225-8.2432-.988-3.0939-1.5772-6.2865-2.4554-9.4024-.8966-3.1744-1.1088-6.3853-.9002-9.6328.2781-4.3703 1.4052-8.5394 3.2459-12.522 4.684-10.1448 14.5497-17.93446 25.7329-20.26038 3.3959-.70582 6.7955-.81188 10.1987-.26697 4.6072.73874 9.0497 2.06993 13.3202 3.96065 3.901 1.72616 6.8285 4.5714 9.1742 8.042 1.504 2.2272 2.2834 4.7177 2.2651 7.4312-.0183 3.083-1.0978 5.7271-3.2312 7.9469-1.1344 1.163-2.5726 1.7993-4.0656 2.3296-4.351 1.547-8.896 2.3186-13.3971 3.2549-4.4279.9215-8.4605 2.5673-11.7357 5.7672-1.343 1.3129-2.5799 2.7319-3.6594 4.2752-.9295 1.4957-1.6028 3.0829-1.9285 4.8237-.2927 1.5653-.3037 3.1305-.0805 4.6848.2598 1.8102.6404 3.6022.9697 5.4015.9003 1.4044.6697 3.0354.8234 4.5678.1208 1.1849.3111 2.4466-.2927 3.6059l-.0549 1.5396c-.2855.6912.0622 1.4482-.2086 2.1394-.4135 3.4377-.9551 6.8498-1.8517 10.2034-1.3759 5.1382-3.846 9.6657-7.392 13.6227-1.7894 1.9931-3.6923 3.8724-5.5879 5.7604-1.8333 1.824-3.6923 3.624-5.3537 5.617-3.5715 4.279-5.4927 9.212-5.9904 14.738-.3477 3.858.1427 7.603 1.3723 11.264.1683.497.322 1.002.4647 1.507.9332 3.265 3.3667 5.226 7.0919 5.42 2.6055.135 5.039-.597 7.3737-1.668 2.4921-1.141 4.717-2.699 6.7187-4.564 3.7435-3.489 6.5613-7.629 8.6508-12.284 1.5479-3.449 2.6567-7.048 3.6923-10.672 1.2406-4.341 2.5397-8.66 4.1498-12.8802.7209-1.8871 1.526-3.7339 2.4225-5.5369.4867-.9801 1.0759-1.9054 1.6248-2.8526.0878-.1499.194-.2962.322-.4132 1.5919-1.4409 3.3191-2.5856 5.5953-2.56 3.0775.0329 5.9941.7241 8.7532 2.0846.9112.4498 1.6943 1.0715 2.4335 1.7737 2.2799 2.154 3.8607 4.7542 4.9915 7.6433 1.0722 2.7433 2.2839 5.4093 3.9269 7.8663.856 1.28 1.782 2.502 2.923 3.54 1.021.929 2.163 1.639 3.535 1.931 1.805.381 3.411-.124 4.809-1.218 1.149-.899 2.049-2.037 2.503-3.47.117-.373.285-.735.443-1.094.732-1.671 1.076-3.401 1.039-5.24-.029-1.668-.135-3.3246-.359-4.9776-.069-.523-.128-1.046-.014-1.5689.26-1.1886 1.087-1.6969 2.25-1.3312.974.3072 1.841.8192 2.558 1.5616 1.336 1.375 2.287 2.9915 2.968 4.7688 1.339 3.5143 1.445 7.1093.516 10.7223-1.219 4.733-3.802 8.529-7.952 11.195-.699.45-1.416.874-2.229 1.108-.186.117-.439.077-.603.252-4.93.845-9.485.348-13.262-3.401-2.492-2.476-4.545-5.328-6.9785-7.848-.7648-.79-1.5552-1.532-2.4554-2.165-.7282-.625-1.4455-1.262-2.1847-1.876-.6038-.501-1.2259-.98-1.8553-1.456-.1574-.117-.3147-.296-.5562-.204-.011.087-.0513.179-.0257.252 1.0942 3.408 1.3796 6.934 1.3833 10.474 0 3.975-.3623 7.932-1.2259 11.827-.1134.505-.1866 1.035-.4867 1.485-.838.87-2.009 1.064-3.0702 1.415-17.0016 5.617-33.6007 12.31-50.2948 18.746-6.8724 2.652-13.6277 5.599-20.3024 8.73-.8453.399-1.6138.881-2.17 1.653-.161.135-.4099.091-.5563.263-.2268.256-.4537.509-.6404.717-.43909-.048-.62572-.311-.83064-.527-1.88093-2-3.36665-4.245-4.35469-6.82-1.04293-2.71-1.72724-5.508-2.08952-8.386-.333-2.655-.51597-5.317-.40253-7.991.14637-3.463.59282-6.886 1.3247-10.276.49036-2.268.91119-4.553 1.58086-6.777 1.01366-3.364 2.37495-6.579 4.02534-9.687.88558-1.664 1.77848-3.314 2.77018-4.912z" fill="#e8b770"/><path d="m220.666 143.662c.538 2.841 1.084 5.679 1.618 8.521.402 2.154.794 4.308 1.189 6.462.084.472.157.944.234 1.397-3.78 1.938-7.512 3.844-11.366 5.508-3.864 1.667-7.739 3.309-11.585 5.021-9.815 4.37-19.611 8.777-29.422 13.154-8.567 3.826-17.152 7.618-25.715 11.451-10.246 4.59-20.404 9.366-30.523 14.226-3.238 1.558-6.422 3.233-9.631 4.853-.311.157-.626.315-.952.439-.117.044-.26-.044-.282-.194-.025-.172-.043-.347-.032-.519.398-5.771.761-11.542 1.372-17.295.219-2.048.432-4.096.574-6.151.044-.644.293-1.061.794-1.386.063-.219.191-.413.392-.49 1.848-.724 3.502-1.876 5.416-2.465 2.47-.658 4.732-1.843 7.063-2.834 11.377-4.831 22.765-9.633 34.149-14.453 12.958-5.486 25.883-11.041 38.896-16.395 5.917-2.432 11.999-4.454 18.14-6.272 2.729-.808 5.459-1.635 8.178-2.479.48-.15.966-.487 1.493-.11z" fill="#deccc2"/><path d="m104.639 191.841c-.223 2.53-.447 5.057-.666 7.588-.223 2.575-.458 5.149-.651 7.724-.191 2.534-.337 5.069-.505 7.603-.004.081-.059.157-.092.245-.252.19-.501.022-.732-.04-4.951-1.331-9.9095-2.63-14.7143-4.447-9.756-3.694-19.4753-7.472-28.9129-11.93-6.4991-3.068-12.947-6.239-19.4498-9.303-8.8008-4.148-17.6566-8.174-26.5892-12.021-1.0466-.45-2.1188-.838-3.17999-1.251-.50134-.194-.51232-.208-.505-.761.01464-1.097.17565-2.179.34399-3.262.45742-2.944.94778-5.877 1.5626-8.792.0622-.299.0841-.61.3256-.841.4209-.234.8454-.208 1.2699-.014l.0146.007c.7282.735 1.7163.841 2.6457 1.057 7.6482 1.759 15.2671 3.62 22.7981 5.826 6.6491 1.945 13.1519 4.315 19.662 6.685 13.5471 4.93 27.1015 9.856 41.0621 13.546 1.7346.457 3.5056.793 5.2476 1.236.571.146 1.288.241 1.065 1.156z" fill="#ebd8a1"/><g fill="#bac6d5"><path d="m123.833 117.905c.542-.465 1.215-.691 1.848-.977 3.755-1.685 7.539-3.302 11.388-4.754 1.515-.57 3.041-1.112 4.516-1.784.439-.202.82-.202 1.255-.019 1.815.765 3.638 1.511 5.457 2.264.333.929-.531 1.002-.985 1.218-3.132 1.477-6.254 2.973-9.397 4.421-5.134 2.363-10.236 4.802-15.359 7.187-9.415 4.377-18.805 8.817-28.2174 13.205-4.7279 2.202-9.4412 4.429-14.1655 6.642-8.0141 3.756-16.0245 7.519-24.0496 11.256-4.8451 2.257-9.7011 4.495-14.5095 6.835-2.0054.977-4.1461 1.694-5.9539 3.058-.1683.128-.3915.201-.6221.139-1.5735-.392-3.1471-.776-4.7169-1.178-4.245-1.09-8.5045-2.128-12.8153-2.933-1.5442-.289-3.1068-.505-4.662-.757.0073-.355.3183-.362.5452-.453 10.3964-4.115 20.7891-8.233 31.1891-12.336 18.0225-7.109 36.1146-14.05 54.0896-21.284 2.1553-.867 4.2853-1.789 6.4263-2.685.49-.256.838.048 1.174.319 2.229 1.806 4.801 2.161 7.451 1.43 3.699-1.021 6.766-3.054 8.903-6.338.509-.783.666-1.715 1.204-2.472z"/><path d="m85.1093 183.659c-2.6641-.724-5.2622-1.657-7.8751-2.542-6.2685-2.117-12.4492-4.473-18.6483-6.777-6.4076-2.38-12.8774-4.575-19.435-6.502-.4172-.124-.8271-.274-1.2406-.417-.0329-.011-.0512-.066-.1134-.153.1207-.286.4281-.348.6806-.465 1.9944-.907 3.9961-1.799 5.9868-2.71 5.2183-2.391 10.433-4.791 15.6513-7.182.3183-.147.644-.267.9697-.403.4538-.19.849-.029 1.2479.183 6.0855 3.211 12.2809 6.21 18.4104 9.337 5.5843 2.849 11.1575 5.716 16.5661 8.887.1903.109.3806.219.5562.347.9552.695.9881 1.13-.0329 1.755-1.6065.984-3.2971 1.825-4.9109 2.798-2.2908 1.379-4.7572 2.443-7.0809 3.763-.2269.128-.4648.267-.7319.081z"/><path d="m112.831 134.659c-.476-.402-1.083-.545-1.625-.819-.168-.084-.183-.322-.029-.41.15-.088.307-.168.465-.245 4.065-2.03 8.127-4.063 12.197-6.089.234-.117.479-.205.72-.307.934-.37 1.709.098 2.489.486 4.746 2.374 9.24 5.179 13.781 7.91 6.005 3.614 12.201 6.883 18.301 10.324.153.088.307.165.457.26.297.183.663.351.67.746.004.49-.45.604-.802.754-2.093.896-4.193 1.773-6.279 2.688-1.204.526-2.426 1.009-3.612 1.576-.633.303-1.281.574-2.005.559-2.489-.918-4.596-2.527-6.865-3.84-.985-.57-1.962-1.166-2.899-1.814-.881-.61-1.763-.753-2.656-.022-.908.743-1.768.662-2.767.063-4.998-3.003-9.972-6.053-14.996-9.015-1.171-.691-2.338-1.383-3.553-2.001-.384-.193-.824-.34-.988-.808z"/><path d="m129.098 160.766c-3.576-1.942-7.177-3.84-10.719-5.836-5.91-3.336-11.779-6.741-17.664-10.116-1.061-.607-2.1479-1.167-3.1835-1.825-.9514-.607-2.0236-1.024-3.0702-1.54-.011-.252.2378-.285.3989-.362 4.7206-2.205 9.4408-4.403 14.1658-6.601.077-.036.168-.047.252-.069.663-.275 1.193.095 1.72.376 4.618 2.48 9.127 5.139 13.566 7.922 2.404 1.506 4.812 3.002 7.223 4.498.395.402.289.823-.047 1.159-.86.856-.414 1.284.439 1.752 2.302 1.265 4.559 2.615 6.839 3.92.304.176.611.348.871.582.458.413.527.852-.084 1.137-3.22 1.492-6.239 3.372-9.456 4.872-.388.179-.801.38-1.248.131z"/><path d="m162.218 145.811c-.315-.149-.64-.281-.94-.453-10.119-5.804-20.237-11.611-30.351-17.419-1.292-.742-2.588-1.47-3.857-2.187-.048-.281.157-.322.289-.387 4.124-2.048 8.281-4.034 12.507-5.863.081-.033.169-.044.257-.066.753-.343 1.357.121 1.983.392 5.756 2.505 11.22 5.584 16.778 8.477.622.325 1.259.622 1.878.951.779.413.944.885.384 1.675-1.193 1.675-1.116 1.931.618 2.903 3.63 2.037 7.217 4.155 10.902 6.101.417.219.966.413.94.983-.025.563-.571.724-1.01.915-3.055 1.327-6.162 2.538-9.229 3.84-.362.153-.735.31-1.142.142z"/><path d="m101.128 174.752c-1.1752-.585-2.3498-1.163-3.5172-1.759-3.9009-1.986-7.864-3.84-11.8455-5.658-1.31-.6-2.5872-1.28-3.8496-1.982-2.4848-1.386-5.0427-2.63-7.597-3.877-3.4618-1.686-6.876-3.467-10.4036-5.014-.3989-.175-.7978-.351-1.204-.53-.0073-.281.2196-.34.3952-.42 4.4608-2.03 8.9216-4.056 13.3861-6.082.0403-.018.0842-.022.1281-.029.6331-.267 1.1893-.033 1.7529.248 6.8357 3.464 13.6459 6.985 20.4048 10.595.6148.329 1.16.687.7904 1.529-.3001.676.1903.925.6474 1.217 3.063 1.961 6.057 4.023 9.098 6.016 1.266.83 1.273 1.328-.066 1.99-2.276 1.13-4.498 2.366-6.741 3.555-.454.241-.889.351-1.379.19z"/><path d="m183.596 136.574c-1.815-.97-3.63-1.942-5.449-2.912-3.561-1.894-7.136-3.759-10.832-5.375-.443-.194-.893-.366-1.347-.527-.797-.282-1.558-.271-2.192.38-.351.366-.684.26-1.061.059-1.163-.615-2.334-1.207-3.505-1.81-4.289-2.206-8.622-4.312-13.021-6.287-1.226-.552-2.477-1.05-3.736-1.58.308-.373.761-.45 1.153-.622 1.848-.804 3.71-1.583 5.562-2.38.725-.311 1.526-.578 2.057-1.138.479-.504.845-.413 1.379-.234 9.603 3.218 19.077 6.777 28.397 10.737 4.798 2.037 9.643 3.972 14.466 5.951.161.065.315.149.476.226.347.852-.44.933-.864 1.16-2.21 1.17-4.523 2.113-6.825 3.09-.97.409-1.939.815-2.916 1.207-.56.226-1.149.501-1.742.051z"/><path d="m119.084 165.243c-2.097-.888-4.084-2-6.096-3.057-2.712-1.423-5.405-2.886-8.161-4.22-1.453-.703-1.489-.615-2.419.471-1.153 1.346-.82 1.116-2.232.428-6.3345-3.079-12.6616-6.177-18.9923-9.263-.7063-.344-1.4272-.662-2.1444-.995-.0842-.044-.1171-.095-.0952-.154.022-.058.0476-.087.0732-.087.0951-.07.194-.132.2964-.191 2.9129-1.323 5.8221-2.647 8.7313-3.971 1.3174-.6 2.6275-1.207 3.9449-1.799.3183-.143.6514-.246.9807-.37 5.7782 2.93 11.3774 6.188 16.9944 9.41 5.006 2.871 10.122 5.555 14.949 8.726.706.464 1.848.72 1.84 1.682-.011.98-1.218.962-1.91 1.353-1.142.644-2.349 1.174-3.509 1.792-.732.391-1.46.549-2.255.249z"/></g><path d="m112.836 134.658c1.002.336 1.899.892 2.799 1.426 4.596 2.728 9.178 5.478 13.763 8.221 1.277.765 2.562 1.518 3.828 2.304.395.245.71.231 1.072-.044.348-.263.739-.471 1.094-.727.648-.461 1.281-.469 1.954-.041.996.637 2.009 1.251 3.023 1.858 2.214 1.331 4.435 2.655 6.653 3.975.15.088.315.147.472.22 1.434.238 2.503 1.199 3.711 1.883.494.282.914.439 1.46.15 3.743-1.986 7.666-3.602 11.519-5.654-.527-.482-1.119-.731-1.643-1.079-.333-.223-.874-.277-.801-.881.113-.208.315-.249.527-.267.951-.333 1.551.421 2.214.812.849.501 1.592.574 2.455.146 3.557-1.762 7.198-3.353 10.847-5.065-.297-.823-1.435-.75-1.581-1.613.113-.303.348-.479.629-.621.696-.355 1.413-.662 2.141-.955 1.405-.57 2.789-1.199 4.183-1.799.157-.066.333-.092.501-.139.849-.161 1.522.3 2.192.673.845.472 1.618.431 2.492.051 3.528-1.536 7.147-2.86 10.623-4.513.355-.168.718-.34 1.127-.161.396.033.718.179.893.56-.025.058-.051.117-.073.175-.106.161-.234.3-.377.432-1.555 1.024-3.322 1.602-5.013 2.344-.282.124-.582.172-.856-.04-.418.011-.765.183-1.062.468-.117.541-.629.592-1.01.805-2.689 1.126-5.408 2.19-8.2 3.419 2.386 1.529 4.918 2.52 7.194 3.961 1.391.881 3.081 1.269 4.201 2.585.033.132.007.245-.091.34l.029-.022c-.827.436-1.526-.011-2.229-.34-3.257-1.521-6.323-3.39-9.386-5.251-.791-.479-1.501-.662-2.324-.202-2.646 1.131-5.284 2.275-7.893 3.486-.641.296-1.281.797-2.082.515-.465.231-.926.457-1.391.688-.102.548-.615.592-.992.808-3.472 1.759-7.04 3.332-10.667 5.179 1.365.921 2.767 1.419 4.033 2.154.768.446 1.738.647 2.126 1.605.073.319-.024.512-.293.578-.476.347-.827-.033-1.189-.223-1.559-.808-3.074-1.693-4.541-2.648-1.025-.666-1.9-.786-2.888-.088-2.148 1.141-4.45 1.975-6.806 3.299 2.232 1.134 4.27 2.114 6.224 3.244.377.219.824.34 1.157.614 1.507 1.244 3.008 1.222 4.709.304 1.38-.743 2.869-1.298 4.348-1.84.11-.055.219-.106.329-.157.106-.058.22-.11.33-.157.735-.223 1.408-.732 2.246-.523.418.216.773.486.813 1.006-.176.676-.824.742-1.321.954-5.687 2.406-11.366 4.831-16.98 7.402-5.456 2.498-10.89 5.04-16.244 7.742-.64.322-1.266.827-2.078.527-.198-.165-.169-.348-.096-.574.077-.238.077-.501.11-.757.092-.618.465-.721.992-.538.67.011 1.094-.512 1.643-.761.037-.731.688-.837 1.156-1.049 1.863-.838 3.704-1.723 5.522-2.652.879-.526 2.006-.497 2.778-1.261 3.784-1.847 7.63-3.555 11.49-5.237.264-.143.586-.18.871-.505-3.004-1.521-5.895-3.189-8.749-4.915-.469-.286-.934-.07-1.395.051-.212.048-.428.073-.633.139-.091.04-.19.073-.281.11-.136.062-.279.12-.421.164-.099.022-.198.015-.293-.029-.128-.399-.615-.271-.816-.56.026-.091.073-.16.146-.215.106-.077.22-.143.33-.212.066-.044.128-.092.179-.154.029-.088.015-.165-.051-.23-3.985-2.063-7.802-4.396-11.586-6.781-.483-.303-.951-.629-1.35-1.046-.622-.651-.765-1.272.073-1.858.033-.069.304-.01.11-.212-.088-.043-.169-.095-.249-.15-.095-.054-.183-.109-.275-.168-.051-.029-.098-.055-.15-.084-5.258-3.021-10.337-6.327-15.53-9.454-.897-.541-1.801-1.071-2.686-1.631-.428-.27-.966-.457-1.091-1.049.114-.088.227-.176.337-.264z" fill="#1c2626"/><path d="m106.435 188.912c-.088-.015-.175-.048-.26-.037-1.032.121-1.976-.241-2.938-.515-2.027-.575-4.1242-.838-6.1771-1.295-2.9129-.647-5.7782-1.459-8.6289-2.333-.0403-.015-.0842-.022-.1244-.037-.1171-.04-.2489-.058-.2781-.216-.033-.171.1024-.226.2159-.281 1.6247-.765 3.2422-1.547 4.878-2.286 5.9135-2.666 11.8346-5.317 17.7516-7.969.278-.124.571-.215.86-.322.651-.296 1.171.033 1.691.359 2.726 1.7 5.416 3.467 8.2 5.069.432.248.981.512.619 1.199-1.237.633-2.474 1.258-3.707 1.898-.381.198-.805.329-1.113.655-.153.409-.53.559-.878.731-3.198 1.584-6.356 3.24-9.383 5.142-.23.143-.472.216-.735.234z" fill="#deccc2"/><path d="m132.742 176.527c.56-.248 1.127-.475 1.676-.746 9.321-4.597 18.74-8.974 28.302-13.037 1.976-.842 3.963-1.657 5.943-2.491.241-.102.468-.234.702-.351 2.61-1.028 5.226-2.037 7.824-3.09 5.808-2.363 11.648-4.648 17.499-6.894 8.19-3.141 16.479-6.001 24.72-9.004.164-.058.329-.12.501-.157.245-.051.45.026.483.296.103.867.187 1.737.278 2.608-2.924.896-5.851 1.788-8.771 2.695-3.005.936-6.02 1.84-8.999 2.853-3.271 1.111-6.525 2.271-9.745 3.521-2.609 1.013-5.152 2.191-7.728 3.285-1.852.786-3.707 1.561-5.563 2.344-2.056.866-4.109 1.737-6.162 2.604-1.896.801-3.788 1.594-5.683 2.395-2.057.867-4.11 1.737-6.163 2.604-1.895.801-3.787 1.598-5.683 2.395-1.529.648-3.063 1.291-4.592 1.939-1.369.581-2.737 1.166-4.106 1.744-1.53.647-3.063 1.291-4.593 1.938-1.368.582-2.737 1.163-4.106 1.745-2.052.87-4.109 1.737-6.162 2.607-2.499 1.057-4.995 2.114-7.491 3.171-1.529.647-3.063 1.287-4.596 1.935-1.369.581-2.734 1.17-4.102 1.748-.926.391-1.859.764-2.785 1.166-.289.125-.571.22-.889.158-.055-.322.161-.502.388-.615 2.799-1.408 5.566-2.889 8.559-3.873.322-.135.651-.252.962-.406 3.224-1.587 6.448-3.181 9.669-4.776.153-.077.281-.197.42-.3z" fill="#c4a394"/><path d="m68.5324 85.7961c-1.5918 4.5348-3.8057 8.7404-6.6857 12.5877-.6257.8375-1.2076 1.7192-2.02 2.4032-2.4005 1.064-4.9402 1.228-7.5017 1.035-.9844-.074-1.9834-.205-2.9495-.469-.6075-.164-1.3284-.139-1.6724-.841.0696-.424.4099-.6653.6807-.9286 1.9212-1.8688 3.5569-3.979 5.2183-6.0708.6587-.8302 1.1088-1.7811 1.5918-2.7136.4428-.8521.8453-1.7262 1.2662-2.5929.0475-.0439.0988-.0878.1463-.1317.1318.0183.2562.0585.377.1171 3.6191.384 6.9126-.6291 10.034-2.3625.3806-.2121.7173-.5267 1.1601-.5925.4537-.0695.5342.1719.3586.5486z" fill="#e3cbc3"/><path d="m56.6279 87.8841c1.7822-4.0887 3.0666-8.3053 3.2496-12.8036.505-.6473 1.2332-.362 1.8699-.4461 3.2093-.3694 5.8624-1.8505 8.1861-4.0265.4904-.4608.9478-1.3678 1.6358-1.0679.5782.2524.1829 1.1849.2122 1.8103.0293.5998.1208 1.2178-.0768 1.8139-.2379 2.6039-.7356 5.1529-1.5553 7.6397-.3.907-.5672 1.8249-.8599 2.7319-.1318.4096-.2269.8411-.5306 1.1776-3.4106 2.7282-7.3262 3.8436-11.6516 3.6644-.1793-.0073-.322-.1207-.4574-.2341l.0183.0147c-.0695-.0512-.0988-.1097-.0878-.1756.0109-.0658.0256-.1024.0439-.1024z" fill="#e3cbc3"/><path d="m35.0391 166.591c1.2698-1.1 2.7116-1.909 4.2961-2.476.1647-.058.3184-.142.4757-.219 2.4482-1.174 4.8926-2.355 7.3444-3.514 2.9276-1.387 5.8624-2.754 8.7936-4.129 2.6933-1.262 5.3903-2.52 8.0873-3.782 2.9348-1.371 5.8623-2.75 8.7972-4.125 2.6567-1.243 5.3134-2.48 7.9701-3.723 2.9715-1.393 5.9283-2.823 8.9217-4.169 1.3173-.593 2.6091-1.236 3.9192-1.847 3.0117-1.412 6.0087-2.856 9.0386-4.228 1.076-.486 2.141-.998 3.209-1.503 3.206-1.51 6.412-3.024 9.621-4.531 2.653-1.247 5.313-2.479 7.97-3.723 2.972-1.393 5.928-2.819 8.922-4.169 1.237-.559 2.455-1.155 3.681-1.733 3.085-1.459 6.17-2.926 9.277-4.345.834-.38 1.679-.742 2.503-1.156.256-.128.439-.285.432-.592.53.19 1.064.373 1.595.57.183.07.216.326.051.41-.662.34-1.317.695-2.001.991-1.567.68-3.148 1.331-4.725 1.99-6.276 2.614-12.42 5.507-18.491 8.561-5.288 2.659-10.583 5.303-15.874 7.943-4.666 2.33-9.4304 4.451-14.173 6.62-3.3081 1.51-6.6199 3.013-9.9353 4.509-3.7948 1.711-7.5969 3.408-11.3917 5.123-3.5935 1.624-7.1944 3.237-10.766 4.908-5.9941 2.802-11.9772 5.632-17.9493 8.477-2.5726 1.226-5.1342 2.476-7.5164 4.049-.3587.238-.699.34-1.1052.179-.322-.128-.6477-.249-.9697-.373z" fill="#8c9bb9"/><path d="m164.913 156.495c-1.88-1.189-3.868-2.173-5.862-3.153-.3-.146-.688-.183-.863-.534.018-.223.215-.245.354-.311 3.455-1.671 6.909-3.339 10.368-5.003.153-.073.325-.12.49-.175.563-.231 1.014.113 1.482.307 3.359 1.382 6.623 2.977 9.858 4.634.476.245 1.106.406 1.047 1.155h-.015c-.102.066-.205.121-.307.176-3.89 1.591-7.78 3.174-11.666 4.772-.45.187-.794.103-1.215-.124-1.189-.644-2.379-1.298-3.663-1.744z" fill="#deccc2"/><path d="m11.6377 160.763c-.0841-.666.2562-1.072.8197-1.35.9844-.483 1.9541-.995 2.9495-1.452 1.5113-.695 3.0336-1.356 4.556-2.026 1.482-.651 2.9568-1.313 4.4498-1.942 1.9724-.833 3.9485-1.66 5.9392-2.457 3.1251-1.247 6.2612-2.469 9.3937-3.698 1.7492-.687 3.4984-1.375 5.2512-2.051 2.0786-.805 4.1644-1.595 6.2466-2.396 1.7529-.676 3.5021-1.364 5.2586-2.037 2.2834-.877 4.5669-1.762 6.8614-2.618 3.0299-1.134 6.0672-2.246 9.1046-3.357.7794-.286 1.5735-.531 2.3603-.801 3.1836-1.09 6.371-2.184 9.5547-3.281 1.0319-.354 2.0602-.72 3.0922-1.082.0512.662-.2599 1.02-.882 1.258-2.7006 1.035-5.3866 2.11-8.0799 3.171-5.5477 2.179-11.099 4.359-16.6503 6.539-10.8574 4.26-21.7112 8.517-32.5687 12.774-5.4708 2.147-10.9379 4.29-16.4087 6.433-.4026.157-.7831.406-1.2479.369z" fill="#da8948"/><path d="m104.638 191.84c-.091-.512-.465-.713-.918-.805-2.269-.449-4.5235-.98-6.7594-1.568-2.536-.67-5.061-1.368-7.5676-2.151-5.8917-1.836-11.7358-3.829-17.5798-5.8-3.1105-1.05-6.1734-2.223-9.262-3.335-2.3054-.83-4.6254-1.62-6.9199-2.476-4.018-1.5-8.0397-2.988-12.1309-4.283-3.1251-.991-6.2576-1.956-9.4193-2.827-4.0876-1.122-8.1861-2.194-12.3066-3.185-2.8031-.673-5.6062-1.338-8.4093-2.008-.2525-.062-.5086-.12-.7538-.208-.3952-.146-.4867-.468-.4465-.852 1.3247.011 2.6019.358 3.8863.621 15.0145 3.098 29.6668 7.435 43.997 12.866 7.8714 2.984 15.7574 5.925 23.7861 8.459 4.2632 1.342 8.5301 2.692 12.8958 3.668 1.9248.432 3.8639.786 5.7889 1.203.641.139 1.263.366 1.888.564.341.106.502.351.436.705-.088.469.077.973-.201 1.412z" fill="#afac8a"/><path d="m145.431 158.726c.08-.037.157-.069.237-.106.139-.128.377-.059.491-.234l.04-.018c.176-.132.362-.114.556-.059 2.543.933 4.831 2.374 7.202 3.646.574.307 1.149.618 1.709.947.38.227.937.362.79 1.017-.19.106-.373.223-.567.311-3.414 1.562-6.828 3.116-10.243 4.67-.237.106-.483.19-.728.285-.285.128-.571.18-.849-.018-.505-.64-1.233-.958-1.925-1.324-2.195-1.166-4.406-2.307-6.605-3.474-.3-.157-.673-.223-.867-.636.424-.202.845-.41 1.273-.604 2.701-1.229 5.409-2.45 8.106-3.69.468-.216.984-.358 1.376-.724z" fill="#deccc2"/><path d="m171.807 146.064c.362-.143.732-.267 1.087-.424 2.547-1.13 5.094-2.268 7.641-3.398.395-.175.812-.307 1.218-.457.915.022 1.665.545 2.412.936 3.052 1.606 6.181 3.072 9.123 4.879.38.234.929.384.819 1.031l-.014.008c-.125.182-.355.124-.513.237-2.89 1.134-5.785 2.26-8.672 3.401-.436.172-.805.165-1.244-.047-3.817-1.851-7.645-3.676-11.473-5.508-.117-.055-.23-.124-.344-.194-.216-.131-.058-.303-.044-.46z" fill="#deccc2"/><path d="m195.73 147.585c-3.714-2.048-7.41-4.125-11.202-6.034-.234-.117-.472-.223-.695-.359-.135-.08-.124-.227-.011-.318.099-.08.227-.124.348-.172 2.624-1.086 5.251-2.168 7.879-3.247.157-.066.336-.081.505-.121 2.049.358 3.878 1.324 5.748 2.147 2.438 1.071 4.758 2.391 7.1 3.668.395.216.936.369.816 1.02-1.808.673-3.612 1.346-5.42 2.015-1.354.505-2.711 1.006-4.065 1.514-.246.092-.48.223-.754.106-.117-.033-.198-.106-.249-.215z" fill="#deccc2"/><path d="m194.656 136.296c1.998-.739 3.96-1.551 5.815-2.604.103-.197.366-.128.487-.292l.018-.011c.329-.18.637-.15.992-.011 1.632.632 3.271 1.247 4.918 1.839 3.952 1.423 7.868 2.955 11.941 4.023.073.018.157.084.186.146.07.157-.058.242-.175.289-.491.19-.985.366-1.479.545-2.389.859-4.783 1.704-7.161 2.593-.696.26-1.252.252-1.954-.113-1.863-.966-3.799-1.789-5.709-2.67-1.947-.9-3.89-1.803-5.844-2.688-.516-.234-1.065-.402-1.592-.607-.205-.081-.402-.176-.443-.432z" fill="#deccc2"/><path d="m70.8473 65.5389c.3183.662.4098 1.3897.6038 2.0882.1573.256.0146.5815.1866.8339-.011.0621-.0146.1243-.0036.1865-.7319 1.7371-2.2579 2.7099-3.6997 3.7229-1.9871 1.397-4.212 2.2674-6.6565 2.4978-.9514.128-1.4784-.1316-1.332-1.2397.1244-.9363-.0988-1.8944.1171-2.8343 0-.6107 0-1.2215 0-1.8322-.4281-1.8213-.2964-3.6937-.4647-5.5369-.0622-.6766.5269-.9911 1.1124-1.0679.9076-.1206 1.7712-.4534 2.686-.49.6185.0695.9771.5376 1.3833.9289.8856.8521 1.8736 1.5689 2.9202 2.2125.9771.5998 2.0456.6693 3.1471.5303z" fill="#e3cbc3"/><path d="m176.195 140.29c.596.355 1.2.698 1.789 1.068.201.124.56.142.516.49-.033.241-.311.274-.501.358-.992.454-1.995.885-2.983 1.346-2.298 1.064-4.588 2.136-6.883 3.207-.157.074-.311.161-.472.231-.64.27-1.27.691-1.932.757-.637.066-1.135-.578-1.72-.86-.586-.281-1.167-.581-1.749-.87-.019-.066-.033-.135-.044-.201 1.694-.71 3.385-1.426 5.083-2.132 1.855-.776 3.718-1.544 5.573-2.315.081-.033.161-.07.238-.11.165-.077.322-.194.304-.377-.008-.106-.139-.208-.231-.296-.062-.058-.154-.084-.23-.124-1.999-1.094-4-2.172-5.991-3.281-2.064-1.148-4.117-2.318-6.177-3.481-.15-.084-.307-.172-.439-.282-.439-.362-.56-.757-.348-1.283.267-.655.633-1.244 1.16-1.734.253-.234.194-.442-.121-.622-.19-.109-.387-.201-.585-.303-2.646-1.372-5.317-2.692-7.926-4.129-1.958-1.079-3.96-2.074-5.965-3.057-1.65-.809-3.33-1.562-5.01-2.312-.468-.208-.852-.654-1.442-.545.063-.058.117-.138.194-.168 1.413-.589 1.42-.6 2.792.088 6.053 3.028 12.106 6.064 18.155 9.099.351.175.699.362 1.039.552.165.092.216.263.238.443-.055.402-.326.691-.564.98-.567.691-.743 1.411-.311 2.227.282.362.707.508 1.094.684 3.971 1.792 7.74 3.975 11.568 6.038.611.329 1.248.607 1.873.91z" fill="#8a9bb9"/><path d="m161.735 146.28c.783.475 1.57.947 2.349 1.43.22.135.494.201.629.482-.011.264-.274.286-.439.37-3.853 1.89-7.714 3.774-11.571 5.657-.157.077-.314.154-.475.227-.209.095-.399.095-.615-.04-1.369-.856-2.748-1.701-4.124-2.549.534-.033 1.028-.22 1.507-.425 3.576-1.532 7.143-3.075 10.715-4.618.081-.033.172-.059.231-.114.102-.099.142-.249.003-.329-.75-.446-1.5-.892-2.265-1.317-2.404-1.338-4.819-2.666-7.224-4.004-2.331-1.295-4.669-2.578-6.978-3.906-1.932-1.108-3.835-2.271-5.742-3.419-2.506-1.511-5.009-3.028-7.586-4.425-1.152-.626-2.298-1.266-3.48-1.84-.669-.325-1.346-.629-2.108-.669 1.032-.849 2.072-1.046 3.122-.029 3.334 1.931 6.66 3.872 9.997 5.792 5.537 3.189 11.081 6.371 16.621 9.549 2.203 1.266 4.406 2.524 6.613 3.782.263.15.549.263.823.391z" fill="#8a9bb9"/><path d="m47.9285 112.056c-1.2881 1.054-2.5945 2.085-3.857 3.167-1.7675 1.511-3.4435 3.116-4.8926 4.941-.6807.86-1.2955 1.763-1.8554 2.706-.4281.725-.4354.721-1.3137.651-.0073.209.1793.249.3001.33.2049.135.3184.281.2049.537-.2635.6-.5416 1.196-.7721 1.81-.4611 1.233-.838 2.487-.9954 3.8-.0256.205 0 .446-.3513.578-.1573-.395-.1171-.823-.1866-1.222-.0659-.387-.1281-.778-.15-1.17-.0915-1.532-.1391-3.064-.0183-4.593.3696-4.806 1.8772-9.227 4.6035-13.217.1647-.241.344-.395.6477-.285.5562-.07 1.0063.256 1.4967.417 1.8334.607 3.674 1.082 5.6355.991.5159-.022 1.2698-.322 1.504.559z" fill="#cca097"/><path d="m59.3013 101.572c-2.7848 3.17-5.9356 5.954-9.1778 8.641-.5379.447-1.0795.893-1.6174 1.343-.9478.303-1.9139.08-2.8727.098-.2561-.106-.4611-.289-.5196-.548-.6331-2.933-.7282-5.841.4867-8.675.4464-.461.8929-.925 1.3357-1.386.644-.329 1.2881-.106 1.9065.048 3.0922.775 6.1881.79 9.3059.175.4025-.08.9441-.439 1.1527.307z" fill="#e3cbc3"/><path d="m131.956 175.456c-2.463 1.236-4.93 2.472-7.458 3.741-.578-.771-1.383-1.195-2.192-1.623-2.902-1.533-5.727-3.211-8.728-4.539.037-.095.044-.139.066-.175.018-.037.04-.088.077-.103 2.386-1.09 4.775-2.172 7.234-3.09.93-.351 1.768-.143 2.628.304 2.609 1.349 5.149 2.819 7.655 4.352.385.234 1.076.376.721 1.126z" fill="#deccc2"/><path d="m142.227 170.465c-1.475.725-2.96 1.438-4.428 2.176-.809.41-1.672.714-2.404 1.258-.395.092-.765.081-1.138-.135-.604-.355-1.244-.651-1.855-.995-2.599-1.466-5.241-2.845-7.952-4.092-.11-.051-.205-.128-.341-.216.11-.113.176-.241.282-.289 2.781-1.185 5.566-2.362 8.351-3.543.728-.037 1.182.523 1.734.833 2.174 1.218 4.351 2.429 6.511 3.669.523.299 1.284.464 1.236 1.331z" fill="#deccc2"/><path d="m101.132 174.751c.212-.044.468-.03.637-.143 1.094-.735 2.334-1.192 3.447-1.902.992-.632 2.097-1.086 3.154-1.62.194-.098.396-.19.586-.296.373-.212.97-.274 1.035-.72.077-.534-.574-.564-.914-.79-2.686-1.811-5.376-3.606-8.077-5.391-.435-.285-.841-.607-1.3464-.804-.6221-.246-.7172-.63-.4208-1.259.0549-.117.1537-.212.2195-.325.1318-.23.044-.421-.139-.574-.0988-.084-.2196-.143-.3367-.205-1.3137-.702-2.6164-1.415-3.9412-2.099-3.4617-1.788-6.9601-3.515-10.389-5.365-2.1993-1.185-4.4388-2.282-6.6601-3.423-.4318-.223-.8636-.424-1.3613-.428.5855-.369 1.2039-.655 1.8992-.746l-.0146-.018c.1354.296.3952.457.666.607.7685.424 1.526.859 2.3018 1.269 5.8513 3.086 11.7979 5.983 17.7444 8.883.2745.135.5526.263.8272.402.501.256.794.384.241.925-.124.121-.238.26-.3253.41-.2818.479-.2233.929.2053 1.291.3.252.625.483.966.676 1.979 1.123 3.959 2.257 5.961 3.343 2.272 1.233 4.57 2.414 6.854 3.624.461.245.907.516 1.423.812-.205.15-.325.274-.479.344-3.403 1.51-6.806 3.013-10.213 4.516-.081.037-.165.063-.242.106-.461.271-.904.253-1.365-.018-.64-.373-1.295-.717-1.947-1.075z" fill="#899bb9"/><path d="m144.81 158.096c-.076-.015-.142.011-.197.07-1.965.757-3.832 1.722-5.735 2.614-1.386.651-2.799 1.244-4.204 1.862-.282.124-.567.234-.845.362-.301.139-.564.132-.871-.029-1.314-.699-2.643-1.364-3.872-2.209.944-.34 1.914-.611 2.73-1.236.033-.026.073-.048.113-.066 2.639-1.273 5.112-2.864 7.82-3.994.33-.135.348-.343.026-.545-.889-.552-1.789-1.089-2.697-1.612-1.932-1.109-3.872-2.202-5.807-3.306-.15-.085-.308-.172-.429-.293-.208-.208-.256-.49-.08-.717.267-.344.578-.654.896-.951.26-.245.14-.464.015-.698.095-.249.245-.391.531-.267l.025.015c.103.069.176.175.297.219l-.011-.022c.077.088.146.183.201.289-1.028 1.115-1.039 1.276.278 2.143 1.819 1.2 3.678 2.344 5.526 3.5 2.035 1.276 4.157 2.392 6.261 3.547.304.168.608.34.893.538.121.084.07.23-.022.336-.102.062-.201.125-.304.187-.084-.011-.161.014-.223.073-.11.055-.198.146-.318.183z" fill="#8a9bb9"/><path d="m119.094 165.242c.674.055 1.277-.142 1.885-.442 1.764-.867 3.484-1.829 5.313-2.56.077-.033.154-.088.209-.154.124-.142.186-.329.011-.453-.531-.384-1.061-.772-1.618-1.116-2.151-1.331-4.314-2.655-6.477-3.968-.783-.475-1.581-.928-2.382-1.375-3.085-1.729-6.177-3.452-9.262-5.178-2.975-1.66-5.961-3.303-8.9143-4.996-1.2149-.695-2.4628-1.32-3.7106-1.953-.4758-.241-.9295-.497-1.1637-1.009.2854-.307.6184-.296.9587-.128.6697.329 1.3357.666 1.9908 1.017 3.9375 2.117 7.7431 4.465 11.6001 6.721 4.768 2.787 9.562 5.526 14.44 8.119 2.708 1.441 5.42 2.878 8.047 4.462.747.45 1.533.841 2.287 1.254-.058.227-.205.318-.366.388-2.532 1.097-5.064 2.191-7.597 3.291-.325.143-.64.293-1.002.117-1.416-.68-2.833-1.356-4.252-2.033z" fill="#8a9bb9"/><path d="m85.1094 183.66c1.2552-.877 2.6714-1.459 4.0217-2.165 1.9358-1.009 3.8533-2.058 5.7123-3.207.6294-.387 1.3174-.691 1.9761-1.038.5745-.304 1.1454-.608 1.6321-1.09-.3111-.457-.7721-.648-1.171-.885-1.3137-.783-2.6494-1.525-3.9851-2.268-3.4032-1.883-6.8797-3.639-10.3195-5.456-6.2686-3.31-12.6725-6.349-18.9777-9.585-.6623-.341-1.343-.637-1.9504-1.079-.2818-.209-.6112-.34-.9698-.381.5306-.515 1.0466-.387 1.6541-.073 5.372 2.787 10.744 5.57 16.1416 8.306 5.0829 2.578 10.1585 5.167 15.3146 7.595 2.5762 1.215 5.0719 2.597 7.6046 3.903.19.098.369.223.538.325-.052.369-.341.395-.56.497-3.528 1.668-7.0557 3.325-10.576 5.007-.988.472-1.9468 1.006-2.9129 1.525-.2671.143-.5379.307-.7502.516-.1829.183-.3439.226-.5745.15-.6184-.205-1.2369-.406-1.8553-.607z" fill="#8a9bb9"/><path d="m101.679 91.3057c.292.1427.439.4169.589.6839 1.471 2.6112 2.55 5.3796 3.396 8.2464.025.081.011.176.014.26-.036.216-.139.391-.307.53-.234.019-.465.033-.699.052-.198.073-.421.069-.607.179-.154.025-.308.055-.462.08-.19.092-.435.051-.589.231l-.018.007c-.424.49-.908.801-1.585.523-.497-.68-.717-1.489-1.046-2.2456-.5271-1.2032-1.0138-2.4247-1.581-3.6096-.6221-1.3092-1.3942-2.5307-2.342-3.6351-.0805-.3548.0879-.6254.3696-.768 1.5516-.79 3.1398-1.3129 4.8674-.534z" fill="#e3cbc3"/><path d="m96.1531 92.1064c-.1683-.1353-.3549-.256-.5013-.4096-1.7089-1.7664-3.7545-2.9988-6.0526-3.829-.3001-.3291-.172-.6875.0365-.9545.8271-1.0605 1.6285-2.176 3.1069-2.4027.4867-.1317.9331-.0183 1.3979.1499 2.6933.9802 4.9145 2.5783 6.5795 4.9298.227.3182.457.6364.684.9509.07.2852-.131.4644-.333.4462-1.7635-.15-3.3114.5997-4.9142 1.119z" fill="#e3cbc3"/><path d="m200.088 132.829c-3.813 1.821-7.747 3.365-11.645 4.985-1.405.585-1.397.574-2.781-.103-.662-.325-1.27-.764-2.005-.932-.022-.066-.037-.135-.048-.205.586.048 1.131-.128 1.647-.355 3.191-1.4 6.448-2.651 9.569-4.213.311-.157.623-.318.926-.486.172-.095.191-.278.205-.454 1.248.483 2.5.959 3.744 1.449.15.058.263.204.395.31z" fill="#8a9bb9"/><path d="m101.413 102.1c.582-.011.999-.527 1.584-.523.059.215.213.245.399.201.465-.11.93-.238 1.398-.329 1.072-.213 1.211-.139 1.519.859.413 1.335.834 2.67 1.398 3.953.512 1.167 1.152 2.249 1.998 3.219.527.603 1.134 1.049 1.859 1.375.227.102.523.106.684.387-1.394.629-2.726.3-4.022-.263-.724-.314-1.339-.819-1.91-1.368-.889-.852-1.65-1.806-2.331-2.83-.728-1.09-1.416-2.206-2.024-3.372-.117-.227-.325-.457-.212-.728.154-.377-.413-.282-.34-.581z" fill="#e1cac2"/><path d="m123.83 117.904c.033.721-.187 1.39-.531 2.001-.977 1.73-2.25 3.203-3.864 4.381-1.277.933-2.649 1.686-4.102 2.286-2.437 1.005-4.889 1.13-7.381.12-.787-.318-1.512-.673-2.064-1.324-.209-.245-.472-.38-.794-.402.585-.472 1.196-.574 1.943-.34 1.833.578 3.703.505 5.577.168 2.85-.508 5.43-1.616 7.692-3.441.922-.746 1.698-1.631 2.466-2.527.308-.355.531-.816 1.062-.922z" fill="#8a9bb8"/><path d="m45.6028 102.432c.0586 1.005-.2598 1.964-.3733 2.947-.1683 1.427-.2525 2.835.0366 4.253.0696.337.0696.692.0696 1.035 0 .322.1097.593.2891.845-2.3164.117-4.4535-.406-6.3491-1.788-.0439-.234.0622-.421.1939-.596 1.1454-1.529 2.2945-3.058 3.6814-4.378.8124-.775 1.515-1.667 2.4481-2.318z" fill="#cca097"/><path d="m92.4219 109.725c.1683.04.3696.029.4976.124 1.5443 1.156 2.9422 2.458 4.1388 3.979.7539.958 1.6541 1.803 2.3933 2.772.9334 1.229 2.0534 2.264 3.1324 3.346 1.091 1.097 2.353 1.917 3.853 2.388 1.636.512 3.287.849 5.006.816 1.226-.022 2.452-.007 3.678-.007-.94.724-2.067.969-3.195 1.038-4.91.293-9.038-1.316-12.2183-5.156-1.0392-1.255-1.9285-2.608-2.836-3.95-1.1088-1.642-2.353-3.163-3.7619-4.557-.2451-.245-.4537-.526-.6806-.79z" fill="#da8948"/><path d="m89.3034 87.6012c-.4575.1061-.86-.1097-1.2772-.2157-1.8809-.4755-3.7874-.6583-5.7196-.5157-.6916.0512-1.3796.1719-2.0639.2597-.1098-.395.183-.5011.3732-.6364 3.1142-2.2528 6.5687-3.1743 10.3927-2.6185.3038.0439.6075.0768.9112.1171.4428.1463.9844.2523.183.7314-1.182.7131-2.1041 1.6896-2.8031 2.8781z" fill="#e1cac2"/><path d="m168.558 158.901-2.291.837c-2.104-.841-4.095-1.931-6.085-3.002-1.113-.6-2.243-1.159-3.352-1.767-.425-.23-1.021-.373-.89-1.082.14-.099.268-.219.418-.296 1.141-.6 1.134-.582 2.236.073 1.804 1.068 3.619 2.117 5.434 3.167.186.106.399.164.596.245.677.563 1.541.735 2.313 1.093.538.249 1.16.304 1.614.735z" fill="#c1a394"/><path d="m132.206 147.084c-.175.088-.351.18-.53.267-.853-.146-1.486-.735-2.185-1.155-3.356-2.034-6.649-4.18-10.019-6.195-2.957-1.767-5.91-3.551-8.995-5.106-.392-.197-.765-.424-1.211-.482.216-.128.431-.264.655-.377.285-.146.56-.11.849.044.563.296 1.141.559 1.712.837 2.752 1.693 5.5 3.387 8.256 5.076 3.685 2.257 7.377 4.51 11.062 6.766.147.088.267.216.403.322z" fill="#879dba"/><path d="m131.957 175.456c-.015-.23-.095-.406-.315-.53-1.661-.955-3.315-1.931-4.98-2.878-1.061-.604-2.148-1.16-3.213-1.756-.78-.435-1.596-.691-2.496-.618.75-.333 1.5-.665 2.251-.998.263-.117.486-.048.724.109 2.979 1.968 6.152 3.606 9.251 5.369.231.132.465.241.564.508-.366.114-.714.264-.992.538-.267.084-.531.172-.798.256z" fill="#c1a394"/><path d="m206.223 144.167c-.11-.322-.381-.446-.659-.589-2.243-1.155-4.471-2.337-6.722-3.47-1.669-.841-3.4-1.544-5.16-2.173-.41-.146-.849-.212-1.12-.599.344-.191.692-.381 1.036-.571.56-.102 1.017.157 1.489.391 2.778 1.39 5.559 2.773 8.333 4.166 1.489.746 3.03 1.36 4.636 1.799.11.029.209.088.458.198-.824.369-1.526.68-2.287.848z" fill="#c1a495"/><path d="m121.69 182.014c-1.596.794-3.184 1.591-4.783 2.378-1.171.574-2.353 1.119-3.528 1.689-.226.11-.494.179-.633.428-1.657.768-3.311 1.54-4.969 2.308-.275.128-.556.234-.838.347-.201-.015-.392-.051-.501-.245.497-.574 1.16-.929 1.796-1.302 2.913-1.708 5.925-3.229 8.944-4.747.077-.036.168-.04.256-.058.432.065.838.018 1.255-.139.758-.286 1.537-.52 2.306-.779.259-.088.501-.11.699.124z" fill="#1c2626"/><path d="m142.224 170.464c-.37-.578-.985-.826-1.541-1.145-2.265-1.28-4.545-2.538-6.803-3.825-.41-.234-.761-.57-1.138-.863.066-.055.125-.128.201-.157 1.135-.417.853-.64 2.09.194 2.346 1.576 4.849 2.889 7.377 4.143.388.194.802.329 1.212.479.172.062.34.044.461-.121.281.008.567.011.849.019-.824.592-1.793.87-2.708 1.272z" fill="#c1a394"/><path d="m194.104 148.628c-.523-.687-1.343-.954-2.042-1.378-1.873-1.138-3.864-2.063-5.804-3.072-1.123-.585-2.217-1.225-3.407-1.69-.398-.153-.735-.464-1.101-.702.15-.084.3-.168.446-.256.56-.34 1.032-.19 1.567.15 2.631 1.668 5.357 3.171 8.08 4.685.958.534 1.95.998 2.982 1.375.289.106.578.216.893.113-.432.476-1.003.666-1.614.779z" fill="#bfa395"/><path d="m122.248 180.25c.007-.395-.205-.643-.545-.815-1.358-.688-2.632-1.518-3.909-2.344-1.529-.992-3.092-1.931-4.625-2.919-.447-.289-.886-.548-1.435-.552.542-.439 1.062-.413 1.669-.059 2.082 1.218 4.183 2.399 6.291 3.573 1.335.746 2.689 1.463 4.12 2.239-.468.449-.981.72-1.566.874z" fill="#c0a495"/><path d="m181.79 153.416c-.154-.348-.469-.498-.783-.658-3.349-1.701-6.712-3.376-10.188-4.795-.483-.197-.882-.567-1.413-.644.341-.19.677-.38 1.018-.57.483-.081.816.245 1.196.446 3.162 1.668 6.335 3.317 9.602 4.769.63.278 1.278.508 2.009.794-.442.427-.933.559-1.438.658z" fill="#bfa395"/><path d="m63.7762 62.0712c-.505.1171-1.0246.2048-1.5186.3584-.5892.1866-1.1967.2122-1.7968.3036-.5782.0877-.6587.1938-.6258.7643.0769 1.3458.1794 2.688.2489 4.0302.0256.4754-.0147.9508-.0256 1.4262-.1574.0841-.3184.1719-.4758.256-.0146-.4315-.0475-.8667-.0402-1.2982.0256-2.0883-.1171-4.1655-.4757-6.2245-.0366-.2121-.011-.4315-.011-.6473.3513-.2998.1464-.7424.2818-1.0971.5233.1097.5342.5559.5379.9253.011 1.0715.5818 1.2434 1.4747 1.013.4648-.1207.9332-.2304 1.3979-.3694 1.5187-.4023 2.7556-1.3056 4.0034-2.1979.366-.2597.6843-.757 1.2479-.3621l-.0183-.0183c.161.2816.0146.5303-.1647.6985-1.1747 1.0935-2.3786 2.1431-4.04 2.432z" fill="#4e4b43"/><path d="m61.6287 74.7027c.161-.0622.3147-.161.4793-.1866 3.0739-.4754 5.6245-1.9748 7.8787-4.0337.6075-.5559 1.1967-1.1374 1.6468-1.8359.0805.2011.0695.4498.3074.5632-.0037.9911 0 1.9821-.0147 2.9769-.0036.3401.0476.6985-.2195.9801-.0257-1.1666-.0513-2.3333-.0806-3.6206-.483.2048-.6733.5596-.9331.8192-1.9431 1.9639-4.1827 3.4523-6.8614 4.2203-.6257.1792-1.2442.4206-1.9175.3877-.0988-.0878-.2598-.1061-.2891-.2706z" fill="#65605b"/><path d="m56.6562 88.1433c.5233 0 1.0503-.011 1.5736 0 2.9092.0585 5.6135-.6912 8.1531-2.07.8014-.4352 1.5882-.9069 2.3823-1.3604-.0073.373.1647.7863-.2232 1.0788-.0586-.1353-.0403-.4278-.2635-.3254-.3952.1792-.7428.4534-1.1161.6765-2.8726 1.7372-5.9978 2.5417-9.3498 2.5051-.3037 0-.6111-.0365-.9075-.095-.1976-.0403-.2196-.2414-.2489-.4133z" fill="#6c635e"/><path d="m161.656 132.657c-.758-.615-.853-.896-.461-1.624.333-.618.743-1.181 1.335-1.584.161-.069.315-.15.483-.208.077-.026.187-.033.253 0 .454.223.538.647.563 1.097.019.329-.073.611-.409.746-.202.08-.407.176-.619.197-.523.055-.783.33-.816.845-.015.234-.135.41-.333.534z" fill="#1c2626"/><path d="m59.299 101.573c-.0988-.26-.3111-.278-.5343-.242-.5599.092-1.1198.194-1.6797.293-2.9421.515-5.8514.351-8.7203-.435-.4758-.132-.9442-.172-1.4272-.147.1317-.354.6075-.212.7685-.526 2.181.676 4.4059 1.067 6.693.965 1.5223-.066 3.0337-.271 4.5267-.6.2927-.065.6038-.062.9039-.091-.0513.344-.1537.655-.5233.786z" fill="#6a635e"/><path d="m39.2734 109.725c1.9981 1.016 4.1278 1.561 6.3491 1.788.9588.124 1.9248.055 2.8873.044-.1208.249-.2855.45-.5819.501-.1061-.15-.2525-.234-.4354-.231-.3477 0-.6953-.011-1.0393.019-2.2213.197-4.2779-.472-6.3198-1.203-.3184-.114-.6624-.224-.8453-.556-.0037-.121-.011-.242-.0147-.362z" fill="#684b46"/><path d="m96.1562 92.1082c1.3943-.8521 2.891-1.3641 4.5448-1.3458.253 0 .527.0475.703-.2194.34.1645.256.4864.282.7643-1.636-.1426-3.2207.0219-4.7137.768-.2452.1243-.4538.256-.5233.5339-.2305-.0914-.2708-.2889-.2891-.5046z" fill="#716c67"/><path d="m89.3094 87.602c-.0476-.4828.2745-.8009.5343-1.1301.6111-.7826 1.3247-1.4628 2.192-1.9602.494-.2852-.0806-.3437-.1098-.5193.6221-.0439.6367-.0329.8197.523-.8929.6546-1.8444 1.2397-2.536 2.1321-.2818.3657-.677.6802-.6074 1.2251-.172-.0073-.2782-.0878-.2928-.267z" fill="#6a6964"/><path d="m61.6297 74.7041c.0951.0915.1939.1792.2891.2706-.6807.0366-1.3577.0732-2.0383.1061-.1647-1.28-.0366-2.56-.0293-3.84 0-.1499.1354-.2998.2086-.4498 0 .9472.0366 1.8981-.0183 2.8416-.0622 1.1008.1025 1.0679 1.0686 1.0532.1719 0 .3439.011.5196.0183z" fill="#4e4b43"/><path d="m59.3226 72.8972c-.022-.7241-.1025-1.4519.2086-2.1394.0073.5193.0183 1.0386.0256 1.5579 0 .2231-.0586.4279-.2342.5815z" fill="#4e4b43"/><path d="m12.1448 162.331c-.4245.004-.8453.011-1.2698.015.5123-.392.6294-.395 1.2698-.015z" fill="#afac8a"/><path d="m105.375 101.03c.007-.23.077-.428.307-.53.174.344.071.521-.307.53z" fill="#e1cac2"/><path d="m193.578 148.87c.117-.198.293-.263.512-.238-.117.198-.289.271-.512.238z" fill="#bfa395"/><path d="m79.016 148.369c.0256.077.0329.157.0256.242-.1793.01-.3623.021-.5416.029l.0146.018c.0915-.23.2855-.278.5014-.289z" fill="#899bb9"/><path d="m115.125 123.137c.128-.256.355-.277.604-.252-.154.201-.355.278-.604.252z" fill="#da8948"/><path d="m11.0859 161.025c.1281-.208.3111-.299.5563-.266-.1171.23-.3221.277-.5563.266z" fill="#da8948"/><path d="m103.016 101.568c.131-.245.351-.26.589-.231-.139.223-.352.26-.589.231z" fill="#e1cac2"/><path d="m104.078 101.258c.157-.212.377-.212.608-.18-.161.202-.37.235-.608.18z" fill="#e1cac2"/><path d="m181.469 153.59c.062-.132.157-.198.307-.176-.047.154-.161.198-.307.176z" fill="#bfa395"/><path d="m79.3198 148.174c-.0548.131-.15.201-.2964.19.0366-.161.1464-.209.2964-.19z" fill="#899bb9"/><path d="m195.731 147.586c.136.015.22.084.249.216-.099.022-.194.047-.292.069.014-.095.029-.19.043-.285z" fill="#bfa395"/><path d="m56.6262 87.8828c.0146.0914.0293.1829.0439.2743-.0622.0475-.1318.0622-.2086.0549-.0329-.1536.0329-.2597.1683-.3292z" fill="#6c635e"/><path d="m60.0974 46.1329c-.011-.223.0366-.4278.172-.6143.6148-.8448 1.2296-1.686 1.9029-2.4905 1.0722-1.28 2.3164-2.3479 3.6411-3.339 1.2625-.9472 2.6531-1.6676 4.0985-2.293 2.0529-.8923 4.223-1.3641 6.393-1.8322 2.1664-.4681 4.3474-.8594 6.5064-1.3531 2.2505-.5157 4.4901-1.1045 6.6491-1.9237 1.054-.3986 2.0786-.9106 3.0154-1.5689.139-.0987.3147-.1389.4757-.2084-1.3576 1.792-3.0117 3.2694-4.8231 4.5823-1.8224 1.3202-3.8314 2.2894-5.9392 3.0391-3.4691 1.2361-7.048 2.0516-10.6671 2.6953-.9076.1609-1.8334.1463-2.7336.3072-1.5589.2779-3.03.8375-4.4425 1.5579-1.3394.6839-2.514 1.5835-3.5204 2.7026-.2305.2597-.4867.4937-.7318.7424z" fill="#da8948"/><path d="m67.9917 58.9632c-.4538-.0256-.677.3475-.9807.5705-1.2552.9326-2.5396 1.814-4.062 2.2675-1.5662-1.3386-2.8543-2.8855-3.696-4.7909-.1244-.2852-.1097.1939-.2561.139-.4172-1.0898-.2525-2.2199-.2123-3.3426.0074-.1975.1684-.2926.355-.3109.2598-.0292.5196-.0292.7795-.0658 1.2734-.1682 2.4335-.629 3.48-1.3677.0586-.0439.0769-.1463.1135-.2195.0256-.0475.0549-.095.0805-.1462.2269-.2414.494-.4389.7355-.662.0842-.0731.172-.1353.2672-.1975.2891-.1609.5379-.3876.838-.5303.0549-.0109.1098-.0182.1646-.0256.3074.0915.3587.3694.4099.6144.4867 2.3479 1.2552 4.608 2.0822 6.8498.1647.4462.1903.8302-.0988 1.2142z" fill="#cca097"/><path d="m67.2005 43.7084c-.9917.5339-1.4491 1.4262-1.5662 2.4905-.1098.9874-.0915 1.9858.0915 2.9659.0732.4023.0512.7643-.1208 1.1227l.022-.0183c-.3842.2341-.7026.5596-1.0795.8083l.0256-.0183c-.3806.2413-.7063.5558-1.0759.8082l.022-.0183c-.5196-.0219-.8819.3511-1.3101.5449-.9221.4242-1.8663.7387-2.8872.7643-.4136.011-.5416-.1206-.5233-.5522.1207-2.6843 1.0246-5.0102 3.0592-6.8571 1.5662-1.4189 3.2825-2.6038 5.1964-3.4962.3513-.1645.7355-.2633 1.1088-.373.0695-.0219.1646.0366.2634.0658-.1097.4645-.5562.651-.8087.9911-.1756.2377-.4684.4133-.4135.7753z" fill="#cca097"/><path d="m59.0016 57.1531c.1171-.2633-.0658-.5851.1684-.8484.849 1.6786 1.8333 3.2438 3.191 4.5421.2744.2633.6257.4974.5965.9582-.9039.3291-1.8297.5449-2.7958.5815-.4172.0146-.527-.0805-.5709-.5193-.0402-.3877-.0512-.779-.0768-1.1703-.0147-.2597 0-.5267-.1794-.7461.0074-.9472-.4098-1.8432-.333-2.7977z" fill="#e1c9c1"/><path d="m63.7812 62.0721c.7063-.4206 1.4309-.8119 2.1152-1.2654.6148-.4096 1.1856-.8814 1.7675-1.3348.1683-.1317.333-.2816.322-.5303.3294-.0402.5855.0329.7172.3803.3184.8485.6661 1.6823.9698 2.5344.4318 1.2142.9185 2.41 1.1783 3.6791-.5269.49-1.0722.5522-1.7894.3364-.7173-.2158-1.3906-.4681-2.009-.8813-1.0466-.7022-2.0639-1.441-2.9129-2.3845-.1427-.1572-.2379-.3547-.355-.5339z" fill="#cba097"/><path d="m71.635 68.4608c-.1976-.2487-.2525-.5266-.1866-.8338.2708.2304.2744.5229.1866.8338z" fill="#65605b"/><path d="m55.8782 33.4395c-.5489.1353-1.0758.3401-1.665.3145-1.0978-.0475-1.8187-.6034-2.031-1.6786-.1793-.9106-.161-1.8395.0805-2.7319 1.0064-3.7229 3.224-6.3414 6.9858-7.508 2.6129-.8119 5.2476-.896 7.8934-.1939 1.5589.4133 2.9494 1.1082 3.7911 2.5929.0549.1024.1171.2012.1903.2926l-.011-.0146c.9734 2.165-.1793 4.5641-2.5579 5.215-1.7602.4828-3.5899.629-5.3866.9289-2.6129.4425-4.9402 1.6494-7.2896 2.7831z" fill="#212f2b"/><path d="m55.875 33.4404c2.2944-1.8102 4.9585-2.7099 7.8092-3.1561 1.1234-.1755 2.2505-.3364 3.3703-.5266.472-.0804.9478-.1792 1.4052-.3255 1.4381-.4608 2.8763-1.8249 2.7299-3.8765-.0256-.3474-.0512-.6985-.0805-1.0459.849.3181.9734 1.1081 1.0429 1.8176.0988 1.0276-.2378 1.9711-.9807 2.7391-.2818.2926-.6148.5303-.9954.6035-.9368.1828-1.8333.5266-2.7957.6253-.8161.0841-1.6285.2524-2.4299.4352-.5562.128-1.1234.0439-1.6833.1865-1.8663.4718-3.6594 1.1301-5.4086 1.9164-.6331.2852-1.2588.6034-1.9834.5997z" fill="#d58b49"/><path d="m57.8005 34.6392c0-.3364.1391-.4571.2708-.5595 1.3796-1.0569 2.9568-1.6677 4.6548-1.9785.172-.0329.3476-.0329.5233-.0293.1683.0037.3403.022.4428.1975.0768.1317-.1135.3474-.3952.4096-.9369.2048-1.8846.3876-2.7775.7607-.8819.3657-1.7492.768-2.7226 1.1995z" fill="#3c3f32"/><path d="m71.1292 24.523c-.15-.0438-.2012-.1462-.1903-.2925.1244.0585.1903.1536.1903.2925z" fill="#d58b49"/><path d="m155.94 153.886c.139.424.535.549.875.724 2.774 1.434 5.551 2.864 8.325 4.294.417.216.904.347 1.124.83h-.019c-.109.055-.212.113-.314.179-2.178.929-4.351 1.858-6.529 2.791-.289.124-.552.204-.867.025-3.209-1.803-6.452-3.544-9.749-5.182-.036-.018-.066-.059-.098-.088.062-.172.186-.281.351-.362 2.173-1.046 4.344-2.095 6.514-3.138.113-.054.256-.054.384-.08z" fill="#deccc2"/><path d="m156.469 163.922c-.135-.362-.468-.493-.772-.654-2.759-1.471-5.445-3.076-8.277-4.404-.271-.128-.571-.234-.706-.541-.077-.051-.099-.099-.066-.135.029-.037.058-.055.087-.055.451-.15.923-.461 1.347-.406.432.055.813.479 1.23.717 2.206 1.262 4.406 2.531 6.627 3.77.64.359 1.332.629 2.093.98-.512.41-1.014.611-1.559.736z" fill="#c0a394"/><path d="m146.726 158.129c-.022.062-.029.124-.022.19-.168.014-.336.033-.501.047.114-.212.308-.248.527-.237z" fill="#222f2b"/><path d="m146.162 158.385c-.117.172-.282.256-.49.235.11-.194.285-.242.49-.235z" fill="#222f2b"/><path d="m200.955 133.401c-.091.219-.259.307-.486.292.077-.241.263-.296.486-.292z" fill="#222f2b"/><path d="m132.733 147.586c-.066-.095-.136-.19-.202-.289.348.058.366.084.202.289z" fill="#879dba"/><path d="m145.359 157.837c.063-.124.161-.19.304-.186-.102.062-.205.124-.304.186z" fill="#222f2b"/><path d="m144.812 158.096c.066-.128.172-.194.319-.183-.07.125-.179.183-.319.183z" fill="#222f2b"/><path d="m165.93 159.918c.066-.128.164-.197.314-.179-.051.157-.164.198-.314.179z" fill="#c1a394"/><path d="m132.531 147.315c-.099-.073-.198-.146-.297-.219.147.011.253.069.297.219z" fill="#879dba"/><path d="m64.5469 51.0738c.2269-.4461.6001-.6985 1.0795-.8082-.2818.3731-.5599.7534-1.0795.8082z" fill="#27312b"/><path d="m63.5 51.8649c.1939-.4901.6258-.662 1.0759-.8083-.1867.4974-.5782.7242-1.0759.8083z" fill="#27312b"/><path d="m58.448 22.9668c.1281 2.8599 1.1673 5.1894 3.7728 6.645-.0695.3181-.3659.3108-.5818.3657-1.8407.4644-3.5679 1.1995-5.2256 2.1138-.4977.2743-1.0064.5449-1.537.7387-1.171.4279-1.8553.0147-2.0712-1.2214-.0585-.3402-.0878-.7059-.0366-1.046.505-3.3792 2.1444-5.9794 5.2695-7.53.1098-.0548.2489-.0402.4099-.0621z" fill="#f9f5e7"/></g></svg>