<svg fill="none" viewBox="0 0 99 160" xmlns="http://www.w3.org/2000/svg" xmlns:xlink="http://www.w3.org/1999/xlink"><clipPath id="a"><path d="m.085938.644531h97.9628v159h-97.9628z"/></clipPath><g clip-path="url(#a)"><path d="m97.1351 53.9094c.2729.2411.4977.4189.6977.622.7459.7611.897 1.6576.5684 2.6508-.1763.5342-.5038.9745-.8783 1.3835-.1152.1246-.1324.2419-.0042.3712.1691.1683.3422.3348.501.5148.397.45.5823.9742.5717 1.5788-.0201 1.1733-.506 2.0764-1.5283 2.6673-.288.1658-.5991.2971-.9099.4203-.1716.0692-.2991.1316-.273.3479.0777.663-.2529 1.143-.7136 1.5657-.3584.3295-.7629.592-1.2295.717-1.3434.3585-2.7013.6628-4.1061.5685-.9386-.0636-1.8401-.3159-2.6981-.6947-.5326-.2362-.984-.5959-1.3038-1.0918-.1072-.1666-.2252-.2337-.4146-.169-.7215.2498-1.3652.0585-1.9688-.3513-.1784-.1207-.3526-.2472-.531-.3679-.3783-.2559-.59-.2537-.9767.0172-.1751.123-.3503.2519-.5119.3933-2.1706 1.917-4.3626 3.8136-6.3081 5.9684-.8174.906-1.6056 1.8407-2.4404 2.7302-1.456 1.5553-2.9411 3.0799-4.4009 4.6291-.6559.6968-1.2631 1.4368-1.991 2.0637-.7973.6849-1.5869 1.3801-2.3978 2.0506-.1676.1392-.2296.2892-.2568.4821-.1787 1.207-.3575 2.4139-.5422 3.6207-.3747 2.4593-.7455 4.9207-1.1341 7.3796-.4251 2.6935-.8601 5.3867-1.3011 8.0796-.4767 2.904-.9554 5.81-1.45 8.709-.48 2.806-.966 5.611-1.4778 8.414-.7561 4.142-1.5381 8.281-2.3082 12.421-.096.518-.196 1.034-.2979 1.551-.0928.472.1322 1.005-.2684 1.42-.0967.468-.1854.939-.292 1.405-.245 1.075-.3449 2.173-.4965 3.263-.4776 3.448-1.7201 6.613-3.6221 9.513-2.3875 3.64-5.5036 6.48-9.4253 8.405-2.7723 1.361-5.7089 2.086-8.8004 2.051-4.3747-.05-8.2625-1.48-11.6029-4.314-3.3696-2.859-5.4336-6.517-6.3763-10.809-.7635-3.475-.6726-6.944.2598-10.376.2953-1.09.4574-2.2.6593-3.304.4927-2.684.9654-5.37 1.4501-8.054.5978-3.32 1.1997-6.639 1.8016-9.959.5853-3.226 1.1706-6.45 1.7579-9.676.6508-3.578 1.3018-7.1578 1.9546-10.7354.6455-3.53 1.2931-7.0619 1.9387-10.5918.3543-1.9308.7065-3.8597 1.0687-5.7883.0678-.3655.0432-.7036-.1091-1.0491-.4155-.9397-.8269-1.8833-1.2161-2.8362-.3705-.9085-.7207-1.8245-1.2185-2.6746-.0477-.0811-.0791-.1738-.1106-.2645-.4618-1.3642-1.1075-2.6476-1.7329-3.9404-.4894-1.0116-.9585-2.0346-1.4115-3.0632-.5977-1.3599-1.244-2.6932-1.9935-3.9754-.6523-1.1159-1.2944-2.2375-1.9487-3.3514-.1698-.2881-.3456-.5764-.5581-.8358-.2859-.3512-.629-.5782-1.1185-.346-.1699.0812-.3663.1078-.555.1465-.5602.1165-1.0961.0739-1.5799-.2668-.0764-.054-.1631-.0923-.2615-.1469-.502.3976-1.0663.6676-1.70042.7122-1.10419.0796-2.20478.0275-3.25366-.3825-.87108-.3412-1.69765-.7771-2.50124-1.2503-.48333-.2847-.8679-.6765-1.13787-1.171-.24911-.454-.40192-.9254-.1643-1.4379.08907-.1913.01056-.3132-.14825-.4193-.30198-.2-.55865-.4505-.78862-.7283-.713158-.86-.800953-1.8107-.39981-2.8279.20381-.5175.60415-.8479 1.07837-1.1065.16416-.0893.39439-.1129.47139-.3005.07916-.1935-.10012-.3541-.1632-.5295-.1559-.4315-.27378-.866-.24312-1.3303.05093-.7672.38304-1.377 1.03131-1.7945.21949-.1417.46765-.2368.70815-.344.27286-.1223.28499-.1279.18917-.42-.38297-1.1804-.06444-2.1699.83618-2.9818.79826-.7188 1.7652-1.0357 2.82646-1.0786.99328-.0387 1.95505.1254 2.89026.4564.9729.344 1.8968.7945 2.7849 1.3199 1.0314.6092 2.0129 1.2928 2.9322 2.0626.1913.159.4066.2427.6277.3326.9161.3745 1.7569.8726 2.4851 1.5473 1.2403 1.1499 1.8439 2.5859 1.9518 4.2618.0937 1.462-.2908 2.7471-1.2906 3.8298-.3395.368-.7004.7175-1.0516 1.0752.043.1789.1985.261.3192.3721 1.6614 1.5188 3.3291 3.0258 4.9802 4.5562 1.0729.9936 2.037 2.0921 2.9134 3.264.129.1732.2622.3405.3993.508.0444.0551.107.1027.1821.0589.0345-.021.0676-.0621.0806-.1016.0238-.0673.0318-.1389.0437-.2105.5072-2.7052 1.0124-5.4085 1.5196-8.1137.0701-.3754.1245-.7572.2145-1.1281.1259-.5176.0004-.525-.2969-.6789-.3208-.1665-.6043-.3859-.8568-.6443-.5437-.5579-.7354-1.214-.5608-1.9778.1521-.6706.4575-1.2532.9538-1.7348.4512-.4388.9678-.784 1.5264-1.0622.3076-.1533.4609-.3568.5262-.7003.7754-4.1154 1.5587-8.2285 2.3538-12.3393.7906-4.087 1.5851-8.1739 2.3956-12.2583.8568-4.3188 1.7314-8.63302 2.6001-12.94945.0808-.39906.1635-.79608.2582-1.19277.0404-.1646.0727-.32343.0355-.49414-.0908-.40576.1313-.64125.4705-.77971.4643-.18893.9327-.37976 1.4137-.52232 2.1395-.63225 4.3261-1.01764 6.5364-1.31854 2.9555-.396316 5.9187-.413103 8.8803-.158419 3.5394.302429 7.0167.974489 10.3874 2.114779 2.342.79274 4.5372 1.91885 6.6503 3.20044.3064.18606.6105.38004.8567.6483.1512.16584.2813.37304.1856.58603-.3164.69408-.3111 1.44687-.4188 2.17461-.423 2.83929-.8182 5.68339-1.2115 8.52949-.3733 2.7009-.7308 5.4062-1.1002 8.1092-.337 2.4663-.6838 4.9304-1.0227 7.3947-.282 2.0625-.5561 4.1253-.8341 6.19-.3231 2.3948-.6481 4.7896-.9731 7.1843-.2754 2.0388-.5488 4.0797-.8282 6.1183-.327 2.3948-.6599 4.7873-.9909 7.1819-.2463 1.7781-.4945 3.5541-.7408 5.3321-.0126.0955-.0212.1911-.0238.2849-.0029.1077.0972.1703.1925.117.0831-.0456.1663-.0952.2417-.1511 2.1294-1.5788 4.489-2.74 6.9189-3.7716 1.5431-.6546 3.0278-1.4345 4.5897-2.0446.2785-.1082.2901-.1677.1532-.419-.057-.1054-.1221-.207-.1771-.3123-.2716-.5065-.4968-1.0338-.6794-1.5818-.3452-1.0316-.3608-2.0641-.0648-3.1082.3334-1.1667.836-2.245 1.6828-3.1302.8651-.9027 1.931-1.4804 3.1319-1.8089.6477-.178 1.3094-.2857 1.981-.3152.2379-.0115.4681-.0331.7001-.1226 1.7899-.6977 3.6307-1.2103 5.538-1.4576 1.3644-.1763 2.7202-.1872 4.0593.1948 1.0341.2958 1.9552.7802 2.661 1.614.5415.6397.8892 1.3579.8957 2.2146.0031.6169-.156 1.1816-.5212 1.6847-.083.1155-.1679.2289-.2757.3737z" fill="#303228"/><path d="m57.2426 115.049c-.1175-.012-.1676-.005-.2111-.022-1.9956-.757-3.8932-.504-5.7072.564-.7244.428-1.3794.947-2.0017 1.511-.78.707-1.5619 1.413-2.3438 2.116-1.0888.978-2.2701 1.832-3.5053 2.613-1.5988 1.012-3.3382 1.69-5.2165 1.894-2.1946.239-4.3431.035-6.3403-1.03-.7045-.375-1.3406-.841-1.8755-1.429-.8837-.974-1.7388-1.974-2.6163-2.956-1.0557-1.183-2.1937-2.274-3.5628-3.092-.7288-.435-1.5228-.677-2.3874-.668-.6111.007-1.1751.189-1.7359.401-.1957.075-.3639.24-.6304.201-.0354-.383.0943-.746.1582-1.112.2462-1.411.5183-2.819.7804-4.227.2668-1.432.5335-2.864.7963-4.297.2416-1.315.4772-2.632.7188-3.947.2674-1.456.5428-2.9116.8063-4.3678.3104-1.7164.6069-3.4331.9214-5.1494.2416-1.315.5031-2.6275.7486-3.9424.2529-1.3626.4918-2.7256.7447-4.0883.3118-1.6904.6354-3.3785.9472-5.0709.2039-1.1044.3859-2.2114.5878-3.3139.2323-1.2693.4765-2.5344.7129-3.8036.2151-1.15.4223-2.3023.6374-3.4523.241-1.2911.4839-2.5821.7268-3.8731.2522-1.3367.5064-2.6753.7606-4.012.2634-1.3843.5309-2.7684.7883-4.1529.2503-1.3387.4885-2.6778.7388-4.0165.1496-.7985.3071-1.5947.4725-2.3888.0621-.2977.115-.3342.3723-.3252 1.2446.042 2.4901.0502 3.7312.148.8546.0673 1.7078.1884 2.5465.397.8269.2063 1.5631.5898 2.2819 1.0247.4301.2593.8518.5324 1.282.7897.7405.4435 1.544.6272 2.4039.5768.3719-.0217.6916-.1787 1.002-.3599.7588-.4424 1.2941-1.1105 1.532-1.9245.2403-.8279.27-1.6976-.2675-2.4829-.4492-.6571-.9615-1.268-1.5832-1.7502-1.9568-1.5189-4.1488-2.5451-6.5936-3.0112-.8937-.1702-1.7883-.3085-2.7001-.3314-.7202-.0177-1.4307.0487-2.1405.1591-.0701.01-.1424.024-.2124.0301-.1801.015-.2835-.0736-.277-.2392.0027-.0957.0113-.1913.0298-.2846.4183-2.1567.8426-4.3132 1.259-6.4699.3581-1.8528.7023-3.7081 1.0604-5.5609.3601-1.8528.7341-3.7012 1.0982-5.5519.3038-1.5469.5957-3.0961.8975-4.6431.2946-1.4992.5931-2.9983.8937-4.4974.3051-1.5229.6142-3.0437.9214-4.5645.2561-1.26473.5083-2.52954.7665-3.79219.1707-.84181.3475-1.68345.5222-2.52514.0093-.04766.0185-.09333.0198-.14121.0052-.18752-.0507-.40865.0293-.55819.1177-.21638.4076-.23241.6273-.30826 1.2436-.43115 2.5201-.75359 3.809-1.01581 1.4294-.29231 2.8791-.45031 4.3236-.6364 2.6746-.3441 5.3536-.18898 8.0259-.01208 1.1877.0784 2.3672.31029 3.5456.51221 1.5539.2661 3.0893.62552 4.6109 1.04845 1.5038.42044 2.9262 1.04229 4.3421 1.68392 1.0471.47583 2.0353 1.05986 3.0381 1.62232.0412.02309.0825.04618.1238.07126.5244.3158.552.4004.4622.98489-.1701 1.10934-.3223 2.22113-.4844 3.33073-.1549 1.0638-.3157 2.1255-.4705 3.1894-.0689.4732-.1357.9465-.1986 1.42-.1979 1.4679-.3877 2.9361-.5916 4.4038-.2243 1.6329-.4586 3.2636-.6908 4.8943-.0321.2247-.1072.2686-.3505.186-.3858-.1283-.7694-.2646-1.1508-.4068-.2075-.0775-.4161-.1132-.6325-.0871-.2623.0307-.4039.3163-.2602.5379.1455.2256.3342.4084.5869.5111.3317.1349.6655.2658.9993.3967.1344.0516.2688.1012.4032.1508.1265.0473.1878.1389.1922.2707.0021.072.0001.1438-.0099.2154-.2091 1.4417-.4261 2.8811-.6253 4.3251-.1542 1.1117-.2806 2.2283-.4308 3.3401-.1502 1.1119-.3103 2.2235-.4724 3.3331-.0616.4255-.0416.8613-.1767 1.2769-.085.2612-.1544.3172-.4119.2442-.3903-.1105-.7783-.2329-1.1662-.3553-.1861-.059-.3709-.088-.5641-.0314-.2295.0696-.3178.3048-.1958.5157.1639.284.4186.4607.7193.5627.3858.1284.776.2389 1.1685.3434.1684.0446.2375.1463.2311.3078-.0072.1915-.0144.3829-.0416.5718-.2104 1.4896-.4268 2.979-.6373 4.4685-.0767.5449-.1396 1.0902-.2144 1.6352-.1694 1.2311-.3447 2.4601-.5101 3.6894-.1482 1.1119-.2786 2.2283-.4308 3.3401-.1449 1.0642-.3116 2.1257-.4605 3.1897-.0397.2844-.0496.5716-.0893.856-.0497.356-.1638.4427-.5359.3966-.189-.0231-.3733-.0761-.5597-.1191-.2817-.0676-.5661-.1053-.8546-.0693-.3146.0413-.4541.3968-.2675.6575.1173.1609.2824.2572.4621.328.3358.133.6875.1925 1.0479.2283.3942.0388.4465.0981.4055.5042-.0708.6889-.1595 1.3772-.2541 2.0634-.0927.6862-.2012 1.37-.3017 2.054-.1648 1.1334-.3316 2.2688-.4904 3.4024-.0867.6146-.1555 1.2336-.2422 1.8481-.1436 1.0162-.2971 2.0322-.4467 3.0482-.0735.4971-.1529.9921-.2223 1.4873-.1364.9705-.2667 1.9412-.403 2.9097-.0498.358-.1836.4342-.5443.3385-.4222-.1114-.7893-.3391-1.1649-.549-.1868-.1029-.3797-.206-.5795-.2714-.19-.061-.3871.1372-.3564.3317.0817.5153.4058.8536.828 1.1127.3711.2257.7742.3785 1.2056.4442.2505.0388.3275.1427.3128.3879-.0178.287-.0376.5739-.0793.8583-.223 1.5111-.4481 3.0242-.681 4.5331-.141.9205-.2958 1.8386-.4388 2.759-.1986 1.2743-.3892 2.5508-.5838 3.8252-.1846 1.2047-.3673 2.4075-.5559 3.6122-.0387.2465-.1545.3212-.4043.2545-.4834-.133-.9646-.278-1.4459-.4189-.2515-.0727-.5051-.1456-.7586-.2184-.1427-.0398-.2829-.0237-.4201.0305-.222.0857-.3103.3249-.1881.5279.1413.2334.3484.3988.5952.4994.3101.1242.6286.2288.9473.3273.2514.0788.5095.1317.7631.2026.6519.1815.6791.2062.5743.9001-.1754 1.1571-.3687 2.3117-.5599 3.4659-.1437.873-.2933 1.743-.4408 2.614-.2172 1.295-.4362 2.589-.6513 3.885-.1337.801-.2615 1.604-.3972 2.405-.043.26-.1449.335-.3966.268-.5312-.14-1.0581-.294-1.5869-.448-.1822-.053-.3556-.138-.5531-.141-.3851-.009-.5605.274-.3824.624.089.176.217.314.386.412.2083.119.4211.223.6571.279.4424.104.8805.218 1.3227.328.1606.04.2455.149.2371.31-.0099.215-.0198.431-.0556.643-.1694 1.014-.3468 2.025-.5262 3.036-.0284.161-.0905.317-.1499.517z" fill="#af5787"/><path d="m32.1641 158.106c-2.7131-.074-4.9893-.646-7.1572-1.673-2.4932-1.18-4.5447-2.889-6.2321-5.064-1.9651-2.531-3.1264-5.402-3.6573-8.545-.1392-.824-.2183-1.653-.2433-2.492-.0156-.523-.0871-1.046-.0488-1.572.1102-1.477.2544-2.95.645-4.385.315-1.153.5188-2.327.7147-3.504.1171-.705.276-1.406.405-2.109.1476-.798.2833-1.597.4269-2.396.186-1.033.3779-2.066.5659-3.099.1528-.844.3018-1.691.4567-2.537.1833-1.009.3706-2.018.5559-3.027.0397-.211.0974-.421.1092-.634.0206-.389.1946-.691.4864-.923.9306-.741 1.9729-1.04 3.1553-.766.619.143 1.1722.425 1.6753.79.6382.463 1.2535.959 1.8028 1.531.8774.916 1.7363 1.848 2.5502 2.821.5529.66 1.1302 1.302 1.7856 1.865 1.1138.959 2.4347 1.494 3.8383 1.854.7673.197 1.5611.296 2.3394.308 1.1655.016 2.3355-.062 3.478-.374 1.6534-.452 3.1837-1.147 4.6074-2.106 1.5722-1.059 3.0302-2.253 4.4151-3.543.6473-.603 1.2831-1.219 2.0002-1.746.542-.398 1.0916-.787 1.721-1.027 1.3356-.508 2.6905-.633 4.0601-.125.089.033.1799.065.2646.11.1357.073.2143.191.206.349-.0059.143-.0138.287-.0396.428-.3329 1.879-.6678 3.759-1.0047 5.638-.0589.33-.1158.658-.1886.985-.0819.367-.2038.444-.557.364-.3016-.068-.603-.144-.9043-.22-.4462-.112-.9015-.107-1.3565-.111-.0918-.003-.1866.033-.2734.066-.1331.05-.1924.246-.1197.362.0919.146.223.242.3703.33.3989.234.8412.338 1.2838.434.3037.066.6096.123.9111.193.2678.063.35.195.2985.473-.2422 1.265-.4964 2.528-.7327 3.795-.2548 1.361-.4937 2.724-.7406 4.087-.0093.047-.0106.095-.0198.141-.0525.24-.1448.329-.3905.334-.3116.008-.6227-.005-.934-.009-.2175-.004-.4297.016-.63.112-.1577.074-.3039.164-.3211.353-.0152.193.1217.297.273.385.2142.123.449.154.6902.166.2631.014.5263.027.7873.046.1076.009.1755.081.1846.185.0101.142.024.29.0003.429-.2389 1.361-.4937 2.721-.7286 4.083-.1827 1.059-.3911 2.109-.7028 3.143-.2965.986-.6582 1.948-1.0791 2.885-.7695 1.71-1.7373 3.3-2.9132 4.759-.9919 1.231-2.077 2.365-3.2967 3.384-1.7817 1.491-3.7517 2.644-5.8936 3.51-1.2879.52-2.6274.881-4.0083 1.076-1.0662.153-2.1335.27-2.9006.213z" fill="#9e407d"/><path d="m63.8636 80.9091c.1695-.6502.2157-1.3177.3492-1.9649.1152-.5638.1984-1.1245.254-1.696.0581-.5933.1561-1.1836.2441-1.7741.2085-1.4177.425-2.8353.6315-4.255.1377-.9466.2773-1.893.3832-2.8424.0426-.3902.2003-.6833.5019-.9086.4036-.3004.8166-.5866 1.222-.883 1.9454-1.4201 4.0961-2.4633 6.2943-3.4174.7455-.323 1.4818-.6741 2.2254-1.0012.9195-.4061 1.8426-.8001 2.764-1.2021.196-.0865.3999-.1687.5787-.2836.2459-.157.3265-.4024.2524-.6879-.0795-.3056-.2561-.564-.4165-.8299-.4354-.7226-.7518-1.4919-.9328-2.3194-.0993-.4539-.0988-.911-.0089-1.3538.1963-.9708.5645-1.8771 1.1318-2.6941.6712-.9639 1.6236-1.5527 2.7095-1.9123 1.5089-.4978 3.0529-.5254 4.6047-.1815.3274.0728.6458.1853.926.3766.4293.2913.5519.624.4047 1.1151-.0482.1584-.1203.3122-.1963.4618-.8968 1.7683-2.2875 2.98-4.1448 3.6599-.1996.0724-.4147.1264-.6267.1425-.4761.0329-.8203-.3019-.8372-.7795-.0124-.3497.1079-.6579.2914-.9443.3525-.5534.8256-.9896 1.3724-1.346.4797-.3143.971-.6123 1.4508-.9286.1769-.1169.3405-.2602.4943-.4097.0882-.0834.1195-.2083.0489-.3281-.0667-.1156-.1811-.1666-.3013-.1519-.1882.0208-.3788.0555-.562.1104-.9078.2726-1.7109.7298-2.4151 1.3673-.4811.4381-.9251.9031-1.201 1.5024-.1719.3746-.3004.7644-.2637 1.1767.0962 1.0807.8654 1.8623 2.0153 1.788.3401-.0227.658-.1158.9708-.237 1.1501-.4457 2.2046-1.0437 3.0638-1.9466.0986-.1031.2012-.2041.3019-.3071.31-.315.3141-.3169.678-.0474.2524.1886.5407.3043.8248.4279.0987.0426.1199.143.0554.2371-.0665.098-.1488.1875-.2154.2855-.5514.8195-.633 1.6837-.2365 2.5889.0657.1535.1435.3014.2134.447-.1083.2346-.3465.2581-.5287.3509-.5144.2674-.7775.6895-.8388 1.2528-.0159.1433-.0198.2869-.0317.4283-.0088.1036-.0631.19-.1576.2173-.4549.1333-.7677.4741-1.1304.7457-.4729.3544-.7154.8249-.7017 1.4202.0027.1199.0074.2398-.0018.3593-.0149.1793.1084.4143-.1022.5243-.2309.1194-.4943.1881-.7607.077-.3099-.1302-.5946-.3057-.8646-.5068-.2113-.1575-.4226-.315-.6257-.4802-.3223-.2604-.6218-.2606-.9756-.0247-.6588.4391-1.306.8886-1.8934 1.4175-.958.8662-1.9122 1.7385-2.8721 2.6027-1.4615 1.3156-2.7925 2.7545-4.069 4.2448-.9507 1.108-1.9792 2.1439-2.9786 3.2087-.7197.7669-1.3945 1.5709-2.0382 2.4058-.4533.5865-1.0041 1.0905-1.5566 1.5845-.7142.6373-1.4399 1.2603-2.1638 1.8853-.1574.1354-.3135.2949-.6053.233z" fill="#d78d7d"/><path d="m10.3634 46.7169c.0468-.1784.1785-.2507.2752-.3539.623-.6637.8416-1.4283.5703-2.3122-.0348-.1147-.0817-.2258-.1044-.3422-.021-.1104.0452-.1944.1492-.1996.3618-.018.7107-.0744 1.0406-.239.0891-.0435.1835.009.2327.1081.0717.1517.1434.3034.2152.4531.5475 1.149 1.3872 2.0543 2.3822 2.8282.2287.1779.4828.3027.7513.4138.8231.344 1.9998-.1249 2.2022-1.3193.0642-.3775.0587-.761-.0528-1.1373-.4152-1.3869-1.2625-2.4522-2.4462-3.2612-.1157-.079-.254-.1307-.3905-.1744-.1584-.0502-.3495.1482-.2879.3056.0503.1311.1165.2647.2034.3749.2951.3754.5944.7489.9099 1.1089.3989.4541.7125.9578.9468 1.5152.1444.3414.1887.6939.1409 1.054-.0684.5292-.5007.7888-.9924.5917-.1738-.0706-.3385-.1789-.4891-.2948-1.3709-1.0437-2.2217-2.4205-2.5831-4.0974-.0603-.2772-.0502-.5704-.0484-.8558.0008-.3234.1863-.5359.4789-.6477.2239-.0857.4587-.1312.7022-.1286.3852.0046.7613.0508 1.1383.133 1.04.2261 2.0119.604 2.9042 1.1894 1.5847 1.0396 2.3529 2.514 2.4313 4.3927.0515 1.2532-.3703 2.2957-1.2525 3.166-.2565.2525-.5245.4907-.7828.7372-.1394.132-.2865.2557-.4043.4042-.2006.2521-.1904.5378.0225.7832.1238.1451.266.2748.4143.3967.9431.7764 1.8326 1.6113 2.7139 2.4539.6927.6598 1.4018 1.3021 2.1191 1.9366 1.388 1.2258 2.5692 2.6356 3.6747 4.1152.1579.21.3097.4277.4779.628.2011.2391.2518.502.1937.8018-.1794.9394-.3509 1.8791-.5263 2.8206-.3205 1.7161-.6409 3.4302-.9593 5.1464-.2364 1.2692-.4707 2.5365-.7049 3.8018-.1745.0312-.207-.0955-.2601-.1967-.3983-.7656-.7037-1.5705-1.0293-2.37-.0991-.2442-.1861-.4942-.3136-.7233-.3689-.6729-.6589-1.3815-.9389-2.0939-.4574-1.1585-1.0039-2.2754-1.5644-3.3868-.301-.5991-.594-1.2021-.8506-1.82-.8728-2.1021-1.8893-4.1343-3.0537-6.0887-.5154-.8626-1.0167-1.7327-1.5301-2.5972-.3052-.5175-.692-.9752-1.0604-1.4465-.2064-.2632-.4581-.3319-.762-.2444-.4366.1258-.8714.2556-1.3044.3935-.2679.0865-.5145.0538-.7606-.0747-.3012-.1559-.3374-.2168-.1903-.5582.1257-.292.1917-.5877.1963-.903.0035-.2714-.0494-.5284-.199-.7521-.2378-.3578-.4286-.7524-.7766-1.0234-.17-.1324-.252-.2724-.1662-.4917.0429-.1086.0503-.2322.0695-.3514.0683-.4533-.0266-.8532-.3852-1.1705-.1403-.1256-.2621-.2727-.3804-.3997z" fill="#d78d7d"/><path d="m92.1509 48.8299c.9403-.0003 1.8021.169 2.6313.5092.6357.2609 1.1493.6802 1.5679 1.2147.2373.304.4095.6481.4568 1.0367.085.6871-.0909 1.2792-.6481 1.7251-.1306.1042-.2613.2085-.3996.3025-.7143.4955-1.5022.8354-2.3277 1.0923-.888.2771-1.7992.2343-2.6972.0759-.4908-.0853-.9671-.264-1.4462-.4108-.1346-.0417-.2687-.1032-.3842-.1842-.1235-.0853-.1876-.2228-.1335-.377.0562-.1562.1322-.3058.2022-.4577.1209-.2602.2755-.5095.3587-.7787.1095-.3544.3444-.5476.66-.7007.8032-.3893 1.6482-.6257 2.5336-.7352.2844-.0342.5688-.0663.8533-.1045.0702-.01.1443-.022.207-.0502.0869-.0396.1644-.0993.1694-.207.006-.1476-.1-.2124-.2149-.2454-.0891-.0264-.1887-.0351-.2808-.0257-1.3467.1129-2.6475.3748-3.806 1.1257-.2581.1666-.3193.143-.3813-.1462-.1324-.6325-.5301-1.0546-1.0625-1.3706-.163-.0983-.3428-.1691-.5142-.2536-.063-.0317-.1382-.0537-.1848-.1029s-.0684-.1257.0246-.171c.0425-.0208.0851-.0456.1294-.0584 1.4563-.3974 2.9275-.6865 4.4435-.711.0958-.0013.1915.0053.2394.0066z" fill="#d78d7d"/><path d="m38.3161 44.2115c.3923.1086.67.1741.9411.2614 1.4644.4752 2.8336 1.1415 4.0888 2.0383.4288.3072.8185.6572 1.1793 1.0424.388.4119.6285.8897.7754 1.4307.0853.3138.0852.6092-.0249.9117-.2203.6088-.6124 1.0753-1.1702 1.3974-.3002.1735-.6348.2162-.9727.1631-.3777-.0603-.7484-.1543-1.0844-.3531-.4931-.293-1.0028-.5605-1.4771-.8829-.9879-.6699-2.0834-1.0532-3.2407-1.2945-.1092-.0229-.2375-.0025-.3393-.151.8773-1.3455 1.5196-2.7853 1.3207-4.5656z" fill="#f1eee9"/><g fill="#d78d7d"><path d="m14.3607 39.0602c-.5059.1758-.9274.1144-1.3073.2817-.386.1711-.6788.4366-.9154.7655-.2122-.0497-.2431-.2342-.3152-.3739-.2768-.5367-.627-1.0174-1.0648-1.4326-.2782-.2652-.5792-.503-.94069-.6426-.10863-.0429-.22751-.0761-.34327-.0773-.12368-.0034-.22367.0757-.28274.1919-.06323.122-.03464.2446.05289.3288.10117.0966.22057.1838.34666.2451.87705.4153 1.46635 1.1321 2.01245 1.8957.0519.0713.1066.1886.0827.2598-.1563.4609.0414.8975.075 1.3457.006.072.0301.1405.0341.2125.0149.258-.0927.3987-.3518.4555-.0703.0161-.1406.0321-.2126.0342-1.64806.0387-3.19511-.2591-4.46745-1.4039-.37214-.3356-.71952-.7005-1.06085-1.0671-.14348-.1557-.2601-.3446-.35671-.5349-.34124-.6621-.23005-1.3698.29198-1.9165.62889-.6576 1.42533-.9453 2.31309-.9948.89574-.0494 1.76198.104 2.60414.4066 1.2218.4387 2.3591 1.0467 3.4458 1.7512.0982.0626.1858.1409.3579.2733z"/><path d="m92.348 59.3206c-.525-.0003-1.0524.0092-1.5563-.1803-.3853-.1443-.7375-.3316-1.0123-.6505-.4741-.55-.5452-1.2348-.1868-1.8578.0231-.0413.0501-.0805.0772-.1197.5565-.7873.4655-.7419 1.3198-.5908 1.1583.2054 2.285.0306 3.3672-.411.5067-.2057 1.0044-.4456 1.4885-.6999.2451-.1291.4448-.1316.6578.0339.1505.118.3156.2163.4517.3478.5661.5445.6784 1.1106.3456 1.8182-.337.7155-.8962 1.2332-1.5696 1.6201-.7789.4478-1.637.6539-2.5289.7114-.284.0182-.5727-.0117-.8579-.0195z"/><path d="m92.2891 63.5031c-.9599.0596-1.958-.383-2.8976-.9896-.6317-.4086-.939-1-.9142-1.7579.0065-.2374.0991-.4125.3156-.5184.0647-.0302.1352-.0542.1923-.0966.3973-.2926.7692-.3123 1.2443-.0917.8614.4009 1.8067.4387 2.7444.3885 1.0836-.0582 2.1357-.277 3.1078-.7815.2734-.1422.5003-.1161.714.0994.0835.0861.1691.1683.2505.2564.6203.6798.6156 1.6539-.0179 2.3353-.3682.3952-.8208.6663-1.345.7817-1.0525.2328-2.1134.4074-3.3921.3724z"/><path d="m7.07069 49.7651c-.39784-.0528-.86921-.1176-1.32649-.2598-.80172-.2496-1.5524-.6135-2.30086-.9853-.40971-.2029-.74276-.5074-1.05699-.8434-.6167-.6637-.50817-2.0043.45989-2.4351.10914-.0489.21634-.0998.3236-.1528.19219-.0926.35954-.08.52092.0781.96433.9467 2.13911 1.4979 3.43598 1.8189.62862.1549 1.25806.2799 1.90807.164.26281-.0468.46837.0287.62833.2387.02894.0368.06597.0697.09895.1046.45631.4696.48561.7859.11777 1.3148-.20989.3017-.48537.5198-.83425.648-.4054.1506-1.45846.3315-1.97498.3113z"/><path d="m8.188 46.21c-1.40927-.2262-2.87188-.6915-3.9721-1.9254-.35448-.397-.61556-.8513-.75914-1.3683-.25279-.9033.07248-1.5552.94194-1.8848.11098-.0429.23316-.0575.34413-.1004.20583-.0802.36821-.0319.51352.1298.30415.3397.64939.6367 1.00294.9218.97068.7872 2.05435 1.312 3.30875 1.4341.3106.0305.48046.1709.56456.4547.0401.1368.0943.2721.1305.4108.195.754-.0999 1.3908-.79974 1.721-.35191.166-.72343.2457-1.27536.2067z"/></g><path d="m90.2299 66.2879c-.9041-.0846-1.7177-.2645-2.4935-.5872-1.0541-.4381-1.339-1.1866-1.3044-2.3815.0049-.1775.0927-.3208.2294-.4289.0938-.0733.1916-.1465.3007-.1914.2462-.0991.3868-.4227.6519-.4054.287.0178.3128.3898.5159.5531.129.1034.2288.2498.362.3433.946.6667 1.9522 1.1754 3.1278 1.3333.8175.1102 1.6181.0363 2.4264-.0275.118-.0087.2348-.0455.3529-.0562.1461-.014.2916-.004.3631.1557.0696.1536-.0038.2834-.0966.3926-.2846.3336-.6234.6019-1.048.724-1.1288.3245-2.2834.4946-3.3896.5741z" fill="#d68d7d"/><path d="m8.54988 52.7204c-.89962.0453-1.73487-.2191-2.53444-.6203-.51202-.2576-1.01773-.527-1.52144-.7963-.41121-.2208-.72792-.5389-.93408-.9578-.05108-.1033-.07374-.2237-.08454-.3397-.01214-.1401.16114-.2711.2957-.2275.11279.037.2212.0879.32966.1367.50098.2234 1.01059.423 1.54147.5752 1.2321.3532 2.45416.2708 3.66956-.0793.32396-.0929.6045-.2769.87743-.4731.2178-.1557.2575-.1467.4143.0333.1258.1432.2373.3.3734.4335.2334.2279.2797.5047.186.7916-.3527 1.0724-.8042 1.4494-1.81495 1.5415-.26015.0229-.52477-.0103-.79607-.0178z" fill="#d68c7d"/><path d="m60.3126 67.7097c.0156.5234-.2054 1.1563-.4342 1.7868-.6346 1.7415-1.825 3.0046-3.3842 3.9522-1.3703.831-2.8798 1.2768-4.4372 1.5756-.9372.18-1.8864.2858-2.8358.3976-.8352.0989-1.6735.0201-2.5034.1431-.1403.0202-.2878.0121-.429-.0057-.9731-.1164-1.9527-.1392-2.9228-.2896-.8748-.1337-1.7409-.2931-2.5971-.5202-1.6213-.4316-3.1908-1.0036-4.7148-1.7061-.9601-.4415-1.8619-.9752-2.682-1.6465-.3359-.2747-.6512-.5728-.9073-.9152-.5256-.7111-1.051-1.4262-1.5197-2.1737-.7288-1.1639-1.0489-2.4523-1.0074-3.8267.0453-1.5081.5993-2.7866 1.7409-3.7955.6977-.6178 1.5166-.781 2.4104-.6108.3257.0628.6419.1812.9584.2877.1919.0631.3033.2239.4107.3845.3606.537.756 1.0449 1.2003 1.5162.8303.8832 1.7997 1.5705 2.8937 2.0835.8121.3816 1.6797.5571 2.5645.6172 1.6479.1129 3.2965.0562 4.9415-.0885.5943-.0516 1.1915-.0612 1.7879-.1128 1.4508-.126 2.902-.266 4.3498-.428.6889-.077 1.3823-.102 2.0724-.149.238-.0174.4761-.0349.714-.0463.8436-.0409 1.6733.0597 2.468.3469.9746.3521 1.5723 1.0532 1.8143 2.06.0788.3316.0517.6663.0501 1.1613z" fill="#313228"/><path d="m54.2611 47.9154c2.3547-.0314 4.5982.4212 6.7026 1.5089.8524.4406 1.6841.9085 2.4219 1.5256.5524.4603 1.037.9886 1.4398 1.5886.236.3498.3697.7188.3301 1.145-.0113.1195-.0246.2409-.0098.3591.1094 1.0371-1.0359 2.3274-2.018 2.614-.4005.1168-.7964.1399-1.2033.0529-.5657-.1213-1.0972-.3235-1.5856-.6403-.4198-.273-.8561-.5245-1.2737-.8034-.7725-.5163-1.6573-.7201-2.5357-.9398-.7713-.1928-1.5621-.1865-2.3492-.2379-1.0244-.066-2.0512-.114-3.0573-.3372-.5913-.132-1.1316-.3763-1.6084-.7547-.7954-.6287-1.0092-1.4231-.6503-2.3556.2428-.6282.673-1.1016 1.216-1.468 1.1959-.8058 2.5028-1.2871 3.9654-1.2591.0718.002.1436.0039.2154.0059z" fill="#303228"/><path d="m41.1376 62.5057c-1.07.0706-1.9708-.2036-2.7505-.8199-.7231-.5707-1.2826-1.2828-1.6445-2.1372-.2719-.6442-.2879-1.2995-.0364-1.9554.0859-.2213.1936-.4359.2993-.6507.3384-.6934.9003-1.0933 1.6474-1.2546.5844-.1257 1.176-.2213 1.773-.227.9685-.0094 1.9042-.2054 2.8052-.5202.9111-.3185 1.7061-.8457 2.3027-1.6359.0994-.1311.2245-.2514.3588-.3436.2054-.1401.5112-.006.5663.2411.0926.4118-.0606.759-.3282 1.0511-.3066.335-.6501.631-1.013.9066-.8828.6706-1.9089.964-2.9635 1.1987-.7512.1671-1.5207.1281-2.2765.2431-.3308.0509-.6649.0737-.9903.1466-.4158.0925-.7358.3333-.9301.7233-.076.1496-.1499.2993-.22.4511-.2271.4929-.1802.9673.0784 1.4416.3479.6384.7654 1.2108 1.3812 1.6169.5609.3687 1.1804.4935 1.8399.4676.1658-.0055.3347-.0468.5-.0343 1.0382.0723 1.9046-.3651 2.7341-.9114.4614-.3028.8785-.6608 1.2801-1.0371.1229-.1144.24-.237.3783-.329.2562-.1707.596-.1135.7714.1169.0906.1203.1427.2574.0749.4013-.0594.1282-.1231.2662-.2196.3634-.7122.7132-1.494 1.3386-2.3836 1.8214-.9687.5265-1.996.7899-3.0328.6677z" fill="#313229"/><path d="m65.506 49.1714c.0146.198-.2562.3902-.4496.3071-.1835-.0789-.299-.2358-.429-.3731-.9562-1.0243-2.0719-1.8375-3.3182-2.4725-1.3527-.6898-2.7887-1.1084-4.2831-1.3608-.6398-.1094-1.2791-.1648-1.9238-.1704-1.2734-.0109-2.5219.1626-3.7365.5566-.272.0884-.5387.2068-.8338.1928-.1376-.0058-.3062.0275-.3572-.1535-.0474-.165.085-.2592.1875-.3562.1599-.1534.356-.2439.5614-.3101.8438-.2664 1.696-.4767 2.5793-.5803.8372-.0989 1.6701-.112 2.5046-.0413 1.7985.155 3.5317.5817 5.1718 1.3473 1.0645.4962 2.0598 1.1104 2.9634 1.8718.4235.355.7978.7565 1.1762 1.1561.0989.1046.1856.2187.191.3886z" fill="#33322a"/><path d="m35.7999 39.5425c1.9492.1192 3.6892.5142 5.3553 1.2066 1.4173.5898 2.7548 1.3211 3.9519 2.2981.578.471 1.0783 1.0137 1.5763 1.5624.1454.1597.2703.3368.2921.563.0141.1401.0477.2987-.1102.3783-.1174.0607-.2396.0014-.3271-.0828-.2062-.1993-.4124-.3986-.6021-.6134-.6238-.6979-1.3134-1.3216-2.0897-1.8459-1.7425-1.1797-3.6454-1.9704-5.6992-2.4278-.6092-.1365-1.2293-.1634-1.8412-.272-.3954-.0687-.8068-.066-1.2142.0127-.2569.0489-.525.0715-.7826.0006-.1486-.04-.2413-.1543-.2449-.3161-.0024-.1299.074-.2256.1796-.2906.0589-.0363.1335-.0622.2015-.0664.5-.0322.9945-.1564 1.3525-.1067z" fill="#33322a"/><path d="m23.3274 124.832c-1.7367.064-2.943-1.231-3.2363-2.333-.4633-1.745.7632-3.307 2.1076-3.48 1.7408-.511 3.471.682 3.9046 2.273.5007 1.841-.7418 3.4-2.4407 3.547-.1661.013-.3332-.007-.3352-.007z" fill="#32322a"/><path d="m33.7609 129.373c.0307.849-.3659 1.553-1.0676 2.099-1.275.995-2.9156.324-3.3147-.997-.1996-.66-.2558-1.307-.058-1.966.2219-.743.9586-1.547 1.9966-1.616 1.4881-.101 2.4813.886 2.4457 2.48z" fill="#34332b"/><path d="m49.9202 120.783c.0108-.686.3954-1.099.9007-1.396.4098-.241.9853.032 1.2313.528.3765.759-.0764 1.771-.8976 2.014-.2757.082-.5214.012-.7427-.142-.3625-.251-.5164-.609-.4917-1.004z" fill="#38332e"/><path d="m46.7824 74.4527c-.5745-.0157-1.0056-.0215-1.4363-.0413-.2412-.0106-.3143-.1144-.2189-.3154.2837-.5932.3966-1.217.3886-1.874-.0057-.5951.0585-1.1903-.109-1.7798-.246-.8612-.6137-1.6498-1.2243-2.3193-.6164-.6737-1.2685-1.2865-2.0973-1.7104-.4804-.2467-.9869-.3405-1.495-.4502-.2997-.0641-.6114-.0546-.9169-.1249-.2401-.0545-.5178.0238-.7708.0788-.6125.131-1.1966.3206-1.647.8014-.4237.4536-.4934.9608-.2832 1.5235.145.3893.3717.7169.7327.9464.3414.2189.664.4693 1.0096.6784.4556.276.709.6463.8281 1.1846.1334.5965.0868 1.1323-.1774 1.6661-.1774.3565-.3028.415-.682.2668-1.1556-.4508-2.3195-.8879-3.3922-1.5242-1.0215-.6069-1.8724-1.3947-2.5423-2.3773-.2956-.4333-.5912-.8667-.8847-1.3019-.4221-.6245-.6625-1.3258-.7823-2.0558-.0718-.4411-.0011-.9064-.0167-1.358-.0427-1.1411.4785-2.0212 1.2736-2.7701.7069-.6634 1.6763-.6349 2.3658.0687.5691.5806 1.0909 1.2117 1.6826 1.7669.9615.9047 2.014 1.6902 3.2969 2.0866.4513.1401.929.1951 1.389.3095.9141.2286 1.8496.1843 2.777.2177.4787.0171.9576.0262 1.4345.0332.2375.0045.4785.0251.7123-.0564.0887-.0315.1892-.0567.2808-.0462.7662.0849 1.5215-.0841 2.2847-.1052.6154-.0171 1.229-.1161 1.842-.1932.4007-.0509.803-.016 1.2106-.1006.5301-.1113 1.0885-.092 1.6329-.143.6385-.0584 1.2739-.1509 1.9138-.1913.476-.0309.9564-.0018 1.4335-.0027.4553-.0015.9011.0486 1.3407.1804.8079.2417 1.3553.9574 1.3681 1.8043.0107.6311-.1318 1.2401-.365 1.8107-.4597 1.1154-1.0805 2.1345-2.0593 2.8844-.4363.3334-.9053.6201-1.3934.8742-.9803.5122-2.0328.8189-3.1038 1.0731-.9968.2382-2.0134.4001-3.0278.4821-.8984.0733-1.8017.2522-2.5681.1015z" fill="#702b2a"/><path d="m44.4948 72.1662c.0123.5733-.1297 1.1664-.4364 1.725-.1303.238-.2976.3671-.5719.3237-1.0117-.1634-2.0258-.3129-2.9965-.6609-.166-.0604-.2249-.1699-.1404-.3392.3019-.6007.3095-1.2433.2952-1.8905-.0034-.1658-.0348-.3304-.0603-.4948-.1151-.7558-.5391-1.3104-1.1482-1.7403-.2919-.2056-.5878-.4094-.8878-.6073-.2216-.1478-.4041-.3344-.562-.5464-.0982-.1324-.0825-.2677.0187-.3927.153-.1915.3463-.326.5781-.4075.8406-.2944 1.6962-.3369 2.5217-.0089 1.0665.4225 1.9315 1.1329 2.6027 2.0656.6271.8696.8295 1.8614.7871 2.9762z" fill="#aa4445"/><path d="m58.9003 54.0314c1.6941-2.0858 1.4293-2.2568 1.8093-3.5979.0677.0078.1458-.002.2049.0275.9544.5073 1.8529 1.0868 2.5832 1.9034.3119.3479.5028.7424.6364 1.1853.1281.4247.052.8-.1616 1.1635-.0733.1237-.1524.2433-.2452.3526-.5736.6791-1.2013.8555-2.0502.5788-.1365-.0437-.2729-.0933-.3968-.1626-.2931-.1597-.5819-.3293-.8666-.5048-.5046-.3113-1.0049-.6304-1.5113-.9477z" fill="#f1eee9"/><path d="m22.8548 119.618c1.2683.049 2.1655.676 2.5159 1.734.3706 1.124-.1166 2.221-1.1786 2.655-1.3769.561-3.0718-.318-3.4092-1.704-.316-1.291.3964-2.301 1.5678-2.651.1993-.06.4261-.03.5061-.034z" fill="#af5787"/><path d="m33.2982 129.317c-.0262.959-.6885 1.816-1.5896 2.062-.6597.18-1.365-.093-1.7469-.656-.8252-1.217-.0377-2.708.8031-3.085 1.1097-.5 2.5231-.061 2.5334 1.681z" fill="#af5787"/><path d="m51.6768 120.468c.0067.409-.0756.645-.2961.826-.4677.383-.8381.131-.9896-.314-.0924-.272-.0486-.563.1024-.826.1634-.283.4102-.4.7157-.33.252.057.4357.276.4658.564.008.07-.0039.142-.0022.08z" fill="#ad5685"/></g></svg>