<svg fill="none" viewBox="0 0 132 221" xmlns="http://www.w3.org/2000/svg" xmlns:xlink="http://www.w3.org/1999/xlink"><clipPath id="a"><path d="m.382812.596191h130.72v220h-130.72z"/></clipPath><g clip-path="url(#a)"><path d="m131.035 11.0781c-.194-.807-.8-1.12618-1.56-.8142-.442.1794-.836.4484-1.184.7712-.534.4985-1.047 1.0185-1.564 1.535-.574.581-1.133 1.1764-1.711 1.7538-.168.165-.322.4089-.638.3085-.097-.2152-.014-.4196.057-.6205.312-.893.61-1.7897.954-2.6684.47-1.2015.969-2.38865 1.317-3.63319.197-.70297.398-1.40593.405-2.14835 0-.38735-.007-.77111-.158-1.14053-.319-.78187-1.026-1.07956-1.786-.69938-.301.15063-.588.36941-.81.62047-.37.41605-.711.86437-1.012 1.33062-.635.97555-1.137 2.02282-1.628 3.07369-.438.93251-.865 1.87217-1.32 2.79757-.169.3407-.402.6527-.624.9683-.097.1399-.359.0682-.402-.0968-.154-.5846-.204-1.1836-.211-1.7861-.022-1.67495-.04-3.35346-.072-5.02839-.022-1.07956-.165-2.14118-.481-3.1777-.15-.49853-.348-.97554-.703-1.36289-.498-.545162-1.133-.60972-1.732-.179332-.43.312032-.703.749592-.933 1.215842-.555 1.12977-.875 2.33486-1.043 3.57222-.201 1.49202-.345 2.98761-.535 4.47965-.107.8428-.157 1.7072-.57 2.4747-.272-.043-.391-.2224-.484-.4196-.276-.581-.574-1.1549-.818-1.7503-.502-1.23374-.972-2.48187-1.467-3.71565-.351-.87871-.753-1.73231-1.284-2.52494-.337-.50571-.728-.9612-1.226-1.3091-.797-.55233-1.614-.33355-2.023.54875-.334.7209-.405 1.49559-.305 2.27388.079.59537.197 1.18715.33 1.77176.334 1.47408.918 2.8585 1.564 4.2214.441.9325.907 1.8507 1.208 2.8441.165.5416.259 1.0868.194 1.6499-.007.0753-.057.2044-.1.2116-.119.0143-.269.0179-.359-.0431-.545-.3801-.886-.9289-1.162-1.5171-.33-.6994-.635-1.4095-.976-2.1053-.419-.8572-.968-1.6247-1.721-2.2273-.552-.4411-1.169-.72086-1.901-.66706-1.377.10401-2.113 1.40236-1.445 2.61106.226.4088.548.7711.86 1.1226 1.205 1.3449 1.98 2.8979 2.393 4.6517.243 1.0473.52 2.0838.796 3.1203.351 1.3056.979 2.4712 1.822 3.5256.674.8465 1.438 1.6068 2.392 2.134.377.2081.466.4663.395.8429-.026.1255-.04.2546-.061.3838-.739 4.2931-1.916 8.4571-3.49 12.5207-2.314 5.9716-6.015 10.8673-11.1687 14.6762-2.3528 1.7395-4.7702 3.3821-7.2951 4.8634-1.7861 1.0437-3.6583 1.9044-5.5915 2.6397-.4411.1686-.9002.2905-1.3521.4268-.1829.0538-.3479 0-.3981-.2009-.1471-.6312-.5846-.6312-1.0975-.5559-2.9374.4376-5.8533.9576-8.7297 1.7036-3.834.9935-7.5784 2.2488-11.1865 3.8986-.6886.3157-1.1907.6636-1.0437 1.5172.0108.0681.0717.2941-.2726.1829-.3443-1.2123-.7065-2.4819-1.0544-3.7552-.0251-.1004.0358-.2546.1076-.3407.1076-.1291.2582-.2224.3945-.3264 3.1705-2.3671 5.4946-5.4193 7.1946-8.9628 1.8507-3.8484 2.8227-7.9191 3.0271-12.1764.2654-5.4587-.5882-10.7095-2.9553-15.6733-.061-.1291-.2116-.2797.0394-.4842.4878.1256 1.0294.2511 1.5853.2798 1.9618.1004 3.7408-.4448 5.3727-1.4992 2.2918-1.4813 3.7479-3.6224 4.7378-6.1151.0646-.1578.1184-.3264.1471-.4914.1147-.6169-.2045-1.0257-.8249-1.0042-.3838.0143-.764.1004-1.1442.165-1.4884.2546-2.984.3694-4.4939.3371-.1363 0-.2547-.0645-.2547-.208 0-.0646.0789-.1542.1435-.1937.6492-.4196 1.3306-.7962 1.9511-1.2553 2.4137-1.7861 3.2351-4.2429 2.9087-7.148-.0359-.3336-.1435-.6743-.2798-.9827-.2187-.49856-.6276-.57029-1.0257-.20446-.4089.38016-.7783.80696-1.2087 1.15846-1.7574 1.4382-3.7731 2.3779-5.9609 2.9482-.1004.0251-.2259-.0395-.3407-.0646.0287-.1148.0251-.2152.0717-.2762 1.0222-1.3844 1.4813-2.9876 1.8292-4.63739.0251-.12195.0574-.25824.0251-.37301-.2511-.86794-.2654-1.77893-.5452-2.64688-.5666-1.75383-1.7072-2.94816-3.3893-3.65471-.6778-.28334-1.388-.44474-2.1232-.5093-1.7861-.15422-3.5148.11477-5.2005.70297-2.8944 1.00783-5.3871 2.65047-7.5928 4.7522-.2977.28334-.5344.64917-1.0473.87154-.0107-.59896-.0107-1.09749-.0251-1.59244-.0143-.38376-.0143-.7747-.2044-1.12977-.2044-.38735-.6133-.5057-.9756-.27616-.4519.28692-.7424.70655-1.0042 1.15487-.4304.74601-.7388 1.5494-1.0473 2.35279-.165.4268-.2367.91099-.6491 1.27682-.373-.19726-.7496-.39452-1.1226-.59896-1.0186-.5595-2.0695-1.04728-3.1813-1.39517-1.5064-.47343-3.045-.57744-4.5908-.28693-2.7222.51647-4.6375 2.12683-5.9609 4.50833-.2044.3694-.2941.807-.642 1.1477-.1937-.0395-.4053-.0682-.6061-.1291-1.2123-.3694-2.2631-1.0114-3.2064-1.8615-.5739-.5164-1.1405-.3084-1.3522.4304-.0573.2045-.086.4232-.1075.6349-.1184 1.2445.1613 2.385.85 3.4323.1757.269.538.4591.4447.9325-.5631.1184-1.1441.2403-1.7251.3622-1.6965.3551-3.3104.9182-4.7773 1.8651-1.4096.9109-2.3205 2.1591-2.6039 3.8232-.1076.6349-.1363 1.2804-.1972 1.9224-.0718.746-.0682.746-.7963.9003-1.6139.3443-2.1663.9899-2.2452 2.654-.0251.5595-.0071 1.119-.043 1.675-.043.6886-.1614 1.37-.5021 1.9833-.3802.6815-1.0581.8967-1.761.5667-.22956-.1076-.42682-.2833-.6456-.4232-.14347-.0933-.28693-.1865-.44115-.2618-.23671-.1112-.54875.0932-.54516.355 0 .1292 0 .2619.03587.3802.53798 1.9224 1.44538 3.5866 3.29244 4.5657.1148.061.2439.0933.3479.165.061.043.1112.1363.1112.2116 0 .061-.0646.1578-.1255.1793-.4053.1435-.8142.2726-1.2195.4089-.2833.0968-.581.1686-.85.2977-.49851.2403-.62045.6958-.35504 1.1907.03945.0753.08249.1543.13629.2188.69935.8321 1.49915 1.5279 2.52495 1.9475.3443.1399.9038.0287.9899.4412.0645.3192-.208.7101-.3336 1.0688-.0287.0824-.0538.1649-.0789.2438-.6384 2.0587-.0896 3.9489 1.5638 5.3369.7352.6168 1.5709 1.0472 2.4962 1.3019.581.1614 1.1728.2761 1.779.2654.2941 0 .5128.1112.5021.4376-.0287 1.0903.4734 1.9833 1.0365 2.862.3264.5057.6384 1.0186.9397 1.5387.8141 1.4095.5738 2.7186-.4125 3.9416-.1901.2331-.416.434-.6133.6635-.1112.1291-.208.2726-.2869.4232-.1148.2188.0215.5811.2546.6384.2905.0718.5882.1292.8859.1327 1.1728.0144 2.3134-.1613 3.3965-.6348.2116-.0932.434-.3694.6814-.1291.1758.1686.0252.4089-.0179.6097-.1076.5057-.2475 1.0043-.3335 1.51-.0718.4196-.1292.8536-.1112 1.2768.0287.6492.416 1.015 1.0616 1.0831.1686.018.3479.0215.5165-.0071 2.281-.3659 4.3182-1.1549 5.6201-3.2315.0646-.1041.1686-.183.2547-.269.0502.0251.0968.0394.1219.0681 1.5996 1.8076 3.2961 3.5077 5.3548 4.806.251.1578.3084.3945.2797.6671-.0717.7281-.1435 1.4526-.2008 2.1806-.0538.6671-.0861 1.3378-.1363 2.1341-.4842-.3264-.5595-.7712-.7532-1.1155-.5093-.911-1.2446-1.5207-2.2524-1.8004-.2905-.0825-.5774-.1722-.8751-.226-2.4209-.4519-4.7952-.2941-7.105.599-1.2876.4949-2.5142 1.1082-3.6906 1.8291-3.6834 2.256-6.7248 5.1898-9.2748 8.658-2.1699 2.9482-4.13892 6.0218-5.97525 9.1816-2.61819 4.5047-4.87773 9.1816-6.731981 14.0521-.182915.481-.36583.968-.498533 1.463-.315618 1.17-.050212 1.862.954024 2.55.28334.194.59179.352.89306.517.22595.122.46266.226.69221.344.22236.111.29409.298.23671.535-.06097.251-.12553.498-.19009.749-.32638 1.252-.57026 2.518-.64558 3.806-.35507 6.215.73166 12.151 3.45745 17.771 2.92664 6.036 7.39908 10.487 13.52848 13.249.1292.039.2188.111.2368.251.0143.072.0107.143-.0144.211-.0645.165-.0215.363-.1542.506-.0933.99-.0215 1.969.1614 2.948.3766 2.002 1.076 3.888 2.0013 5.696 1.4741 2.876 3.2315 5.577 5.1575 8.17.3335.448.6635.9.997 1.345.1507.201.1471.387-.0143.574-.1112.129-.2224.262-.33.394-4.3612 5.33-8.3316 10.943-12.0006 16.771-.1829.291-.3372.603-.5416.875-.5703.768-.5774 1.603-.2833 2.45.1685.484.3981.95.6563 1.395s.5631.864.8859 1.266c.6097.768.5774.725-.0502 1.349-1.4095 1.398-2.629 2.955-3.7121 4.612-.4053.617-.8106 1.148-1.5709 1.377-.391.119-.7281.448-1.06524.71-1.91882 1.485-3.5794 3.217-4.99609 5.183-.50212.699-.88947 1.467-1.27323 2.234-.20085.402-.16498.732-.01435 1.098.54875 1.33 1.39159 2.464 2.38507 3.493 1.74307 1.804 3.75155 3.282 5.84614 4.641 4.7414 3.074 9.7662 5.599 15.0277 7.65 1.9654.768 3.9811 1.378 6.0541 1.772 1.7861.341 3.5794.488 5.3834.129.6815-.136 1.3414-.319 1.9009-.746.3981-.305.6958-.699.5739-1.212-.1543-.66-.1794-1.363-.5488-1.966-.3407.287-.7245.513-1.0795.775-.1005.452.3837.517.5415.796.2009 1.001-.581 1.119-1.223 1.263-2.507.567-4.9638.115-7.3668-.563-6.9221-1.958-13.2416-5.211-19.2096-9.157-2.35641-1.556-4.66258-3.235-6.33033-5.595-.36583-.52-.83208-1.008-.64917-1.739.07532-.395.1865-.779.35866-1.144.52722-2.055 1.97978-3.483 3.45028-4.839 2.28826-2.109 2.28106-1.994 4.71996-.032 3.5865 2.88 7.7075 4.584 12.2875 5.068.8536.09 1.7969.319 2.6003-.298-.1327-.104-.3013-.183-.3874-.319-.1434-.222.0503-.405.1579-.577.642-1.015 1.2875-2.027 1.9403-3.038.4196-.649.434-.664 1.1333-.395 1.2051.459 2.4353.843 3.6942 1.119.9648.212 1.9368.391 2.9338.352 1.0581-.043 1.9296-.37 2.3528-1.442.0466-.118.1219-.226.1865-.337 2.1125-3.644 4.0492-7.378 5.7421-11.237.1757-.402.3766-.509.7245-.1.165.197.3407.387.5129.577 4.0349 4.519 8.0662 9.042 12.101 13.557.3157.352.6456.689.9863 1.019.3336.319.6815.391 1.1693.247 1.6892-.495 3.1418-1.359 4.415-2.56.1722-.165.2941-.445.6707-.348.2331.365.4986.753.7424 1.155 1.553 2.575 3.1096 5.146 4.6446 7.732 1.6821 2.834 3.8377 5.262 6.2729 7.46.1901.172.3946.33.5954.492 1.0581.846 2.2165 1.058 3.5077.599 1.058-.377 2.0515-.883 2.9983-1.478 1.5351-.958 2.959-2.066 4.3183-3.257 3.3391-2.923 6.3733-6.136 9.1278-9.615 2.7619-3.486 5.0029-7.288 6.7719-11.37.426-.986.753-2.005.968-3.063.251-1.226.14-2.367-.434-3.497-.312-.613-.714-1.054-1.32-1.337-.549-.259-1.13-.42-1.736-.449-1.384-.064-2.747.036-4.0634.513-.0179 0-.0395.036-.0538.111-.0179.072.0072.147.0681.216.5524.308 1.0971.018 1.6351-.043.682-.079 1.309-.051 1.934.437-1.414.61-2.7549 1.162-3.9779 1.983-3.0092 2.027-5.6668 4.437-8.0626 7.149-3.3571 3.798-6.5778 7.696-9.2821 11.997-1.3951 2.22-2.6361 4.522-3.5435 6.993-.0861.234-.0466 1.098-.7317.398-.1757-.509-.0107-1.09-.3156-1.578-.3586-.376-.4626.208-.746.234.1758-.506.4985-.825.9038-1.066.6743-2.087 1.6463-4.056 2.4461-6.093-.0753-.524 0-1.015.2474-1.496 3.0307-5.789 6.8827-10.878 12.3952-14.547.5272-.351 1.0473-.775 1.7539-.699 1.5816-.685 2.7616-1.93 4.085-2.966.4233-.33.4484-.729-.3084-.567-1.4346.592-2.8011 1.32-4.0923 2.177-3.0557 2.026-5.907 4.307-8.389 7.019-.1721.19-.3227.398-.52.642-.1793-.23-.3049-.352-.3802-.499-.538-1.083-1.2373-2.066-1.9726-3.016-.8679-1.123-1.7682-2.216-2.654-3.328-.2296-.287-.2081-.445.104-.606 1.0723-.556 2.073-1.223 3.0163-1.973.9504-.76 1.7394-1.653 2.3241-2.729.6025-1.105.581-2.073-.3121-3.06-1.3844-1.528-2.6576-3.16-4.0241-4.705-5.1431-5.8-9.881-11.915-14.2064-18.342-.2869-.427-.5667-.857-.8536-1.291 1.6642-2.532 2.8047-5.262 3.6978-8.099 1.2696-4.042 1.9833-8.181 2.1376-12.413.1076-2.934-.0754-5.842-.7676-8.708-.1291-.534-.5487-1.126-.3048-1.592.2331-.445.8428-.696 1.2947-1.019 1.327-.958 2.6182-1.958 3.7587-3.138.6205-.642.642-.972.0969-1.682-.8429-1.101-1.4669-2.321-1.9977-3.594-1.4885-3.569-2.2237-7.306-2.5286-11.144-.1112-1.4127-.2474-2.8258-.0825-4.2461.0825-.6922.0754-.6993.7174-.8428.3335-.0753.6742-.1327 1.0149-.1901 1.5674-.2726 3.1562-.4268 4.6949-.8464 2.1985-.5954 4.3828-1.2446 6.5203-2.03 2.0193-.7388 3.9955-1.5817 5.9179-2.5465 1.0437-.52 1.5135-1.3521 1.4848-2.4926-.0072-.2583-.0251-.5165-.0466-.7712-.0825-.9898-.3013-1.951-.581-2.9015-.165-.5595-.1291-.6133.459-.8392 4.329-1.657 8.0304-4.2716 11.3262-7.4852 1.169-1.1405 2.314-2.3098 3.425-3.5077 3.813-4.1102 7.274-8.493 10.064-13.3671 3.39-5.925 5.904-12.2158 7.744-18.7829 1.269-4.5334 2.044-9.1385 2.062-13.8584 0-.8178-.004-1.6176.409-2.3744.179-.3299.244-.7352.319-1.1118.391-1.9726 1.205-3.7515 2.349-5.4014.639-.9181 1.213-1.8793 1.697-2.8871.319-.66.602-1.3307.713-2.0623.058-.3874.076-.7675-.018-1.1513zm-108.3899 114.1639c-.1686.524-.2511 1.072-.3694 1.607-.2834-.032-.4197-.205-.5595-.366-1.7467-1.99-3.1132-4.207-3.9417-6.732-.3766-1.148-.6169-2.324-.4949-3.547.0215-.212.0789-.416.165-.85.9361.696 1.6749 1.338 2.3922 2.012.2188.204.434.42.6743.592.3048.219.7137.118.8787-.215.1506-.305.2618-.635.3766-.954.086-.241.1291-.503.4447-.668-.061.904-.1327 1.776-.1722 2.644-.0322.771-.0179 1.546-.0358 2.317-.0251.968.2761 1.771 1.1333 2.306.0682.043.104.129.1758.222-.2224.531-.4878 1.065-.6707 1.629z" fill="#212d2a"/><path d="m5.03096 201.217c-.11477-.223-.30127-.427-.13988-.71.21161-.373.36942-.779.62048-1.119 1.08314-1.482 2.15553-2.959 3.70492-4.028.55592-.387 1.04012-.875 1.68212-1.148.2761-.118.4878-.082.703.108.7352.649 1.4525 1.323 2.2164 1.933.6313.502 1.2912 1.001 2.0014 1.377 1.7394.915 3.4933 1.804 5.3547 2.464.9791.348 2.0013.395 2.9876.664 1.3414.369 2.7115.269 4.0779.251.4842.036.7963.441 1.2338.57.0036.66-.5954.599-.9648.778-1.804.89-3.4431 1.976-4.6231 3.651 1.3235-1.671 2.9697-2.915 4.9459-3.726.391-.161.7711-.387 1.223-.251l.0395.018c.0968.176.3694.1.4447.308.1686.294.5524.431.6097.811-2.3456.412-3.8663 2.026-5.387 3.637 1.5494-1.571 3.0845-3.16 5.3727-3.669.2546-.061.3694.143.5129.279.4268.398.8464.807 1.2696 1.209.0502.125.0251.226-.0861.305-2.0156.739-3.7156 1.886-4.8741 3.751 1.2553-1.739 2.8549-3.023 4.8777-3.751.0933-.093.2009-.111.3156-.043l.0072.007c.0825.082.1686.161.2582.237.6743.774 1.3486 1.542 2.0157 2.32 2.2093 2.575 3.6045 5.584 4.6948 8.759.0251.075.0108.168.0144.254-.0861.495-.4519.775-1.0939.839-.7855.531-1.6714.323-2.5035.255-10.8995-.897-20.1529-5.53-28.38405-12.51-1.05445-.896-2.06228-1.807-2.87284-2.93-.19368-.265-.49854-.513-.25465-.904z" fill="#1e2321"/><path d="m76.54 208.3c.0251-.032.0717-.061.0789-.101.4734-2.137 1.3486-4.121 2.3743-6.039.0179-.036.0179-.083.0287-.126.0753-.993.7066-1.736 1.223-2.5 1.7969-2.657 3.809-5.143 5.9537-7.539 1.9188-2.144 4.0457-4.045 6.1761-5.95.3407-.305.6671-.678 1.18-.728 1.3593-1.033 2.7329-2.051 4.0671-3.117.3766-.301-.1327-.211-.2152-.312.4412-.405.9612-.552 1.553-.466.0108.086.018.169.0251.255-.2367.753-.8679 1.155-1.4489 1.585-5.4552 4.028-10.2971 8.687-14.4073 14.081-2.0587 2.701-3.9129 5.545-5.1539 8.733-.4662 1.202-.8679 2.425-.9074 3.737-.0107.338 0 .7-.3479.919-.3012-.538-.0717-1.148-.2439-1.704-.19-.258-.2008-.502.061-.725z" fill="#b7bab8"/><path d="m30.0456 202.03c-1.9798.675-3.6834 1.779-5.1216 3.289-.4376.463-.8106.987-1.223 1.478-.0466.054-.165.097-.226.079-.1291-.04-.1685-.172-.1506-.298.0574-.488.3335-.882.642-1.23 1.3127-1.499 2.8406-2.704 4.763-3.339.2761-.09.6061-.09.7388-.427.3048.007.4842.179.5774.452z" fill="#d0d2d0"/><path d="m19.6595 143.741c.0861.212.0144.377-.1542.51-.0717-.209-.0466-.384.1542-.51z" fill="#707ba7"/><path d="m30.5307 202.357c-.2152-.011-.3408-.144-.4448-.309.2403-.028.391.072.4448.309z" fill="#d0d2d0"/><path d="m33.1482 204.889c-.0896-.007-.1757-.011-.2654-.018l.0215.025c0-.09.0072-.179.0108-.269.1542.018.2331.104.2331.262z" fill="#d0d3d1"/><path d="m33.4067 205.129c-.1399-.021-.2547-.068-.2583-.236.1578 0 .2403.082.2583.236z" fill="#d0d3d1"/><path d="m19.4375 143.276c.1793-.011.2798.053.2367.251-.147-.022-.2116-.119-.2367-.251z" fill="#707ba7"/><path d="m2.93055 100.947c-.14705-.101-.2941-.216-.25106-.409.05379-.248.1327-.495.23312-.732 3.17053-7.3776 7.07988-14.3283 11.90019-20.7591 2.2919-3.0593 5.032-5.6416 8.2742-7.6788 1.8292-1.1477 3.7373-2.1412 5.8856-2.5393 1.7036-.3156 3.418-.2905 5.1216.0933 1.0401.2331 1.8005.7962 2.2631 1.743.6026 1.2302 1.2553 2.4317 1.7575 3.7229 1.5458 3.9775 4.4437 6.4881 8.6292 7.3596 1.9081.3981 3.8556.2116 5.7529-.2833.7926-.2044 1.5709-.4412 2.3205-.7747 1.6247-.7209 2.6899-1.9654 3.3606-3.5722.5488-1.3199.8357-2.7079.8464-4.1425.0072-1.1621 0-2.3205 0-3.4826 0-.2869.1005-.4734.3874-.5882 4.9961-2.0084 10.0962-3.6726 15.4043-4.6553.0861-.0144.1686-.0359.2546-.0431.3444-.043.4842.0753.4484.4161-.0825.7675-.2188 1.5314-.2726 2.3025-.1471 2.152-.0287 4.2932.2654 6.4272.4304 3.1167 1.1298 6.1653 2.2595 9.1099.9433 2.4603 2.1197 4.7916 3.6619 6.9328.5559.7711 1.1728 1.4812 1.8579 2.1376.1972.1865.1506.3981-.0969.4985-.2797.1112-.5631.2152-.85.3013-1.7287.5165-3.4539 1.0544-5.1933 1.535-1.8686.5165-3.809.66-5.7099 1.0114-.2295.0431-.3909-.1398-.3658-.3981.0287-.2546.0897-.5093.1184-.7639.0251-.2116.0574-.4268.0287-.6348-.0359-.2583-.1399-.4986-.4376-.5703-.2188-.0538-.434.1184-.5093.4627-.4698 2.1878-.7998 4.3828-.5954 6.6459.1614 1.7965.2905 3.5975.6026 5.3765.5093 2.887 1.2768 5.699 2.5285 8.364.4196.896.9146 1.75 1.4956 2.557.3049.423.3049.488-.0789.857-1.7036 1.657-3.6081 3.052-5.6596 4.247-3.687 2.144-7.6824 3.421-11.868 4.149-3.1346.545-6.2944.882-9.4685 1.116-2.2344.165-4.4653.211-6.6997.183-4.372-.058-8.6364-.797-12.804-2.109-1.2338-.388-2.4102-.908-3.5615-1.503-.7568-.391-1.2015-.943-1.2194-1.811-.0108-.556-.061-1.116-.0395-1.672.0395-1.115.1004-2.231.1758-3.346.0896-1.327.1829-2.658.3084-3.985.043-.466.1471-.939.2905-1.384 1.1047-3.436 2.152-6.893 3.4933-10.247.7353-1.8362 1.5817-3.6223 2.507-5.3726.2188-.416.4053-.8536.5595-1.2983.0682-.1901.0359-.4232.018-.6348-.0144-.1901-.1542-.3264-.33-.33-.0968 0-.2403.122-.2833.2224-.208.4698-.3479.9755-.5918 1.4239-2.3779 4.3648-3.9847 9.0384-5.4695 13.7544-.4519 1.435-.868 2.876-1.2984 4.315-.6276.419-.9396-.108-1.2553-.459-2.5464-2.845-5.6452-4.979-8.8875-6.919-2.69348-1.61-5.49817-2.998-8.5611-3.787-.25106-.065-.4806-.187-.65634-.388v.008z" fill="#dc8e60"/><path d="m65.0386 151.442c-.2009-.248-.3192-.37-.4125-.506-1.9833-3.016-3.9416-6.05-5.9573-9.045-.5021-.746-.5917-1.327-.1936-2.199 1.0078-2.202 1.5207-4.555 1.5135-6.997 0-.47-.0072-.951-.3264-1.349-.1076-.132-.3371-.129-.4339.011-.2619.38-.2224.814-.2511 1.245-.1471 2.148-.4914 4.26-1.1262 6.323-.0825.269-.0897.592-.3586.782-.3228-.022-.4125-.294-.5452-.502-.7209-1.119-1.4275-2.249-2.1484-3.372-.1613-.251-.3371-.498-.5415-.717-.1148-.122-.3013-.158-.477-.083-.1794.079-.2547.233-.2511.409 0 .169.0251.352.0968.499.1901.384.3874.767.6205 1.13 4.1533 6.423 8.2922 12.861 12.6247 19.166 2.8262 4.11 5.8031 8.109 9.0561 11.897 1.987 2.317 3.9775 4.626 5.9573 6.951.5272.62 1.0222 1.269 1.5279 1.908.0215.025 0 .082 0 .136-.1435.247-.4197.28-.6528.33-2.342.523-4.4294 1.646-6.4666 2.844-3.4287 2.016-6.5168 4.48-9.2425 7.378-1.8041 1.915-3.4001 3.988-4.5873 6.355-.6384 1.273-1.1405 2.593-1.4633 3.981-.0681.283-.0861.592-.3551.789-.2869-.047-.4303-.28-.5989-.466-1.5996-1.801-3.1885-3.608-4.7845-5.409-.9684-1.094-1.9439-2.184-2.9266-3.264-3.1813-3.496-6.298-7.051-9.3789-10.637-2.2416-2.608-4.4976-5.204-6.714-7.83-3.6045-4.271-7.0692-8.658-10.2791-13.231-1.4598-2.076-2.7366-4.268-3.852-6.552-1.0652-2.184-1.7108-4.487-2.0587-6.883-.0072-.043-.0108-.086-.0144-.129-.0502-.531.183-.753.6707-.592.9792.323 1.9511.664 2.9661.868.4627.093.9289.154 1.388.258.1937.043.2762.237.1794.402-.2619.445-.5524.868-.8393 1.298-.2116.323-.4483.635-.4914 1.037-.0179.183.0431.337.2116.43.1686.097.3515.065.4806-.046.1614-.137.2906-.312.4233-.481 1.3557-1.747 2.3527-3.69 3.131-5.753 1.0222-2.704 1.7108-5.491 2.1053-8.353.1112-.807.165-1.625.2188-2.439.0144-.251-.0358-.513-.104-.756-.043-.151-.1291-.334-.3515-.302-.1434.018-.208.129-.2367.259-.0179.082-.0215.172-.0502.251-.1793.534-.3443.652-.8249.527-1.3414-.345-2.5931-.904-3.7731-1.632-.1829-.111-.3658-.226-.538-.355-1.474-1.094-1.3629-.943-1.2266-2.787.0502-.689.3085-1.338.6026-1.962.0717-.15.2259-.258.4232-.183.1219.047.2403.094.3587.147 2.7401 1.309 5.6667 1.962 8.6256 2.532 3.9094.754 7.8582.868 11.8106.664 2.4819-.126 4.9638-.344 7.4385-.653 2.7294-.344 5.4337-.803 8.1021-1.47 2.2165-.556 4.3469-1.356 6.3877-2.389.4232-.215.8428-.43 1.2696-.635.6205-.297.7173-.258.8967.398.4303 1.578.7352 3.178.7962 4.817.0215.599.0968 1.198.1399 1.797.0179.258.043.516.0286.771-.0824 1.585-.104 3.181-.2797 4.756-.2546 2.302-.6671 4.587-1.2589 6.832-.8177 3.128-1.9296 6.144-3.2996 9.071-.0897.19-.1973.376-.3802.717z" fill="#707ba7"/><path d="m124.697 25.2842c.058 2.048-.05 4.1066-.301 6.1546-.656 5.4085-2.159 10.6019-4.1 15.6733-1.413 3.6941-2.991 7.3166-4.96 10.7597-2.464 4.3074-5.405 8.2706-8.69 11.9863-2.138 2.4173-4.336 4.7773-6.7823 6.8862-3.2602 2.8119-6.879 4.9997-11.0143 6.2729-.6563.2008-1.327.3622-1.9906.538-.2797.0753-.5057-.0072-.6635-.2547-.1363-.2188-.2725-.4375-.4052-.6599-1.1764-2.0156-2.1018-4.1317-2.6864-6.3948-.9289-3.5938-1.4274-7.2485-1.5028-10.957-.0322-1.492-.0143-1.4956 1.3665-1.969 1.8363-.6277 3.5866-1.449 5.2651-2.4138 2.9876-1.7144 5.8353-3.6368 8.5289-5.7887 3.9986-3.1956 7.0946-7.0907 9.2316-11.7532 2.184-4.7594 3.598-9.7447 4.534-14.8807.039-.2116.05-.4268.079-.6384.071-.5595.014-1.0437-.686-1.1369-1.725-1.1621-2.998-2.7007-3.733-4.6446-.301-.7998-.495-1.6427-.725-2.4712-.125-.4555-.222-.9181-.322-1.3808-.434-1.9726-1.306-3.7193-2.669-5.2184-.258-.2834-.506-.5918-.685-.929-.323-.5917.018-1.2409.678-1.3736.398-.0789.764.0143 1.115.2116.542.3013.944.7424 1.299 1.2302.434.5918.742 1.2553 1.043 1.9224.23.5093.46 1.0186.707 1.5207.269.5487.656 1.0078 1.119 1.4023.373.3192.796.5667 1.291.3264.434-.208.545-.6348.563-1.0831.025-.6062-.043-1.1979-.215-1.7826-.244-.8284-.606-1.6067-.965-2.3886-.373-.8213-.76-1.6355-1.108-2.46756-.484-1.15488-.793-2.35996-.986-3.59733-.115-.73166-.115-1.45615.19-2.15194.165-.38018.498-.48419.832-.26541.402.26541.706.62407.979 1.015.42.60254.76 1.24813 1.033 1.92957.509 1.27682.993 2.5644 1.524 3.83407.348.8321.743 1.6426 1.148 2.4496.215.4268.531.8464 1.065.8142.628-.0359.8-.5775.951-1.0796.222-.7424.337-1.5064.423-2.2775.161-1.45254.326-2.90151.516-4.35048.147-1.11184.413-2.19498.879-3.22074.197-.43039.416-.85001.825-1.13335.208-.14347.409-.11836.585.04304.329.30127.469.71014.591 1.12618.32 1.07955.434 2.19139.456 3.3104.028 1.54581.021 3.09521.057 4.64105.015.5559.083 1.1118.162 1.6641.035.2475.125.5022.243.7245.269.5057.854.6241 1.32.2941.287-.2044.502-.4734.664-.7783.323-.6061.635-1.2194.936-1.8363.602-1.23377 1.169-2.48907 1.804-3.7085.337-.64558.76-1.24454 1.187-1.83632.222-.30845.495-.59537.882-.72808.244-.08249.546.04304.635.28693.194.54875.129 1.10108.018 1.65341-.24 1.18356-.638 2.31692-1.079 3.43952-.33.83924-.671 1.67494-.99 2.52134-.194.5237-.373 1.0545-.517 1.5924-.086.3264-.132.6779-.122 1.015.022.6062.542.9039 1.091.6636.444-.1937.789-.5165 1.119-.8572.842-.8608 1.678-1.7252 2.517-2.5859.391-.4017.804-.7783 1.302-1.0473.456-.2475.721-.0825.739.4555.018.5236-.075 1.0329-.298 1.5063-.347.7389-.695 1.4777-1.09 2.1878-.355.6384-.76 1.2482-1.169 1.8543-1.022 1.5135-1.783 3.149-2.123 4.9423-.208 1.0939-.693 1.9188-1.668 2.4532-.075.0394-.151.0861-.215.1435-.126.1147-.258.2295-.208.4339.057.2224.24.2081.405.2081.251 0 .488-.1865.775-.0323v-.0144z" fill="#e8ccb5"/><path d="m61.7787 21.7374c-.0718-.1901-.1722-.373-.2116-.5702-.0825-.4304-.3479-.5201-.7281-.4448-.6528.8393-1.2553 1.7108-1.8112 2.6182-.8249 1.3486-2.0228 2.1771-3.5866 2.4496-1.0903.1901-1.266-.0071-1.1441-1.2301.0538-.9971.4734-1.9045.6886-2.8621.0753-.3336.1865-.6635.1076-1.0078-.0179-.0682-.0932-.1363-.1578-.1794-.1291-.0789-.2869-.0287-.3371.0753-.1901.3766-.3443.7712-.5129 1.1585-1.1549 1.5494-1.9798 3.2961-2.9051 4.9782-1.3127 2.3958-3.4933 3.8125-5.656 5.265-.4161.2798-.9505.4161-.7783-.4626 0-.4412.2152-.8142.3766-1.2051.5774-1.4131 1.1656-2.8226 1.7287-4.2429.1721-.4304.2941-.8859.4125-1.3342.043-.1578.0358-.3407 0-.4986-.0252-.1076-.1328-.2331-.2332-.269-.0968-.0358-.2797-.0071-.3443.0682-.2224.2511-.4124.5308-.6133.7998-.7854.2726-1.2051.9253-1.6247 1.5781-1.5135 2.3456-3.088 4.6338-5.4121 6.298-.8895.6348-1.9188.9433-2.8657 1.4346-.5918.3049-.8249-.0645-.9899-.5989-.3264-1.0581-.5272-2.152-.9504-3.1885-.1614-.3981-.287-.8034-.5595-1.1441-.1256-.165-.2403-.3407-.3766-.495-.0431-.0502-.1578-.0753-.2224-.0538-.0538.018-.1148.1184-.1112.1794.0108.208.0502.4124.0825.6169.0502.3299.1004.6599.1542.9863.3587 2.3635 1.1908 4.6266 1.4131 7.0225.2009 2.1663-.2797 4.1711-1.3915 6.0182-.6169 1.0222-1.1693 1.1477-2.3815.6851-.391-.2332-.5595-.642-.7783-1.0079-.8931-1.4991-1.3701-3.1418-1.6929-4.8382-.0394-.2116-.0322-.4304-.0825-.6384-.086-.3587-.3048-.6134-.6814-.6923-.3766-.0824-.7568-.1829-1.1369-.2187-2.8693-.269-5.6632-.0395-8.3101 1.2122-1.4633.6922-2.7294 1.6355-3.7049 2.9302-.3157.4233-.6707.4806-1.1262.3802-1.1441-.2582-2.0157-.9253-2.7473-1.804-.1435-.1758-.0646-.434.1649-.5093.3659-.1184.746-.1973 1.1119-.3228.5272-.1829 1.0508-.3909 1.4884-.7496.3443-.2797.2905-.7496-.0968-.9576-.1148-.061-.2332-.1148-.3551-.1542-1.7646-.5488-2.7079-1.865-3.33551-3.4969.32996-.2905.57741.0251.83921.0574 1.1513.1398 1.9081-.2583 2.3528-1.3414.3479-.8429.4519-1.7395.495-2.6469.0179-.4304 0-.8608.0287-1.2876.0574-.9576.4268-1.4274 1.3306-1.6355.4555-.104.9576-.0573 1.3055-.4555.3479-.3981.2367-.893.2869-1.3557.061-.5559.1291-1.1082.2188-1.6606.2295-1.3987 1.0042-2.4424 2.1412-3.2386 1.3987-.9792 2.9804-1.5136 4.6302-1.8686.5882-.1256 1.18-.226 1.7682-.3623.2475-.0574.4914-.1614.7173-.2797.287-.1435.3802-.5165.1901-.7711-.1793-.2403-.4088-.4412-.5918-.6779-.6958-.911-1.1477-1.9116-1.0903-3.088.0072-.165.0646-.3336.122-.4914.0251-.0717.1183-.1148.1936-.1829.3479.043.5595.3479.8285.5487 1.0222.7532 2.1735 1.2087 3.3786 1.5494.4232.1184.6384.0216.8357-.373.1147-.2295.19-.4806.3012-.7101 1.1154-2.3349 2.8334-3.99544 5.4086-4.56929 1.7072-.38018 3.4144-.25823 5.075.35148 1.1333.41604 2.2057.9612 3.2745 1.51711 1.0796.5595 1.2696.495 1.7323-.59895.3694-.86795.703-1.75383 1.076-2.61819.1506-.35148.3335-.69938.642-.95403.1255-.10401.355-.03228.4017.12912.1614.55233.0896 1.10466.0143 1.65699-.0574.42322-.1399.85002-.0359 1.28041.0897.36941.5201.53798.7999.29051.2223-.19726.4016-.44115.6061-.65993 2.7258-2.91229 5.8748-5.15031 9.8343-6.05412 1.3988-.31921 2.8299-.39453 4.2214-.05022 2.7617.68504 4.0421 2.42811 4.3039 5.2615.165 1.77893-.3407 3.40011-1.3091 4.88131-.2582.3945-.5308.7819-.7819 1.1836-.1111.1829-.19.3909-.0466.6025.165.2403.4089.312.6779.2654.3371-.0574.6778-.1255 1.0078-.2188 2.6003-.7388 4.9817-1.8757 6.9579-3.7623.061-.0574.122-.1363.1973-.1614.3694-.1255.2798.1686.3085.3515-.4699 2.525-1.6427 4.6339-3.6368 6.2944-.6851.5703-1.2804 1.2518-1.7933 1.9942-.1112.7352-.0466.8823.5165 1.0473.8679.2582 1.7574.1685 2.6433.1183.8428-.0502 1.6821-.1148 2.5249-.1757.5452.1076.2726.4626.1219.624-2.2452 2.3815-4.5406 4.641-8.1773 4.6482-2.0229.0036-3.3176-.8464-4.0457-2.6935-.1685-.4304-.2582-.9038-.5738-1.2696v-.018z" fill="#cd6f5e"/><path d="m61.868 25.055c.5631.8608 1.0401 1.779 1.7969 2.5034.2044.1973.3156.5058.4375.7783 2.0515 4.6662 3.1419 9.5439 3.0486 14.644-.1004 5.4121-1.3306 10.5517-4.0959 15.2608-1.5852 2.7007-3.5865 5.0356-6.1437 6.8647-2.9877 2.1376-6.3088 3.2961-10.003 3.2279-3.2207-.0609-6.1617-1.0652-8.8516-2.8083-3.1706-2.0515-5.5664-4.8239-7.4386-8.0769-1.4454-2.5142-2.446-5.2005-3.1418-8.0088-.0323-.1255-.0538-.2511-.0861-.3766-.2905-1.1907-.2941-1.2051-1.4776-.8751-1.1155.312-2.2273.6527-3.3356.9935-1.2445.3837-2.5105.5702-3.8125.5236-1.3772-.0502-2.6146-.4842-3.6798-1.3593-1.5063-1.2374-1.969-2.8872-1.3485-4.7415.1219-.3658.2331-.7388.5164-1.0221 3.2961-3.8663 7.6573-4.8957 12.4849-4.6518.3299.0179.6922.043.9468.3228.2188 1.1333.4483 2.2631.8572 3.3463.4591 1.2086 1.058 2.3312 1.9296 3.2996.2295.2546.4734.4914.7783.6563.7854.4233 1.7108.3515 2.403-.2044.4375-.3551.7783-.7962 1.0186-1.3019.2187-.4627.3981-.9433.5917-1.4167.0969-.1758.0789-.3874.1614-.5667-.0143-.0753 0-.1399.0395-.2044.2905-1.6212.685-3.2243.2869-4.8957-.147-.6169 0-1.2445.8106-1.327 2.4317-.2511 4.2106-1.7574 6.0792-3.106.4232-.3048.8931-1.0293 1.3163.0179l.0861.0144c.2367.8034-.4806.8859-.9074 1.1585-1.4311.9145-2.8836 1.7968-3.9058 3.3893.5451.1362.8177-.1578 1.1046-.3408 1.4024-.893 2.7474-1.8757 4.1784-2.7293.5487-.3264 1.1226-.6026 1.7682-.6958.4375-.0861.5057-.5667.8285-.7747 2.0838-.6671 3.8591-1.8005 5.3798-3.3893.9863-1.0258 1.7323-.8787 2.1914.2761-.3264.7389-1.3557.7317-1.7323 1.8112 2.464-.52 4.6661-1.4884 7.0619-1.6247-.7567-.954-1.7538-.4447-2.5966-.6671-.5201-.1614-.85-.4483-.2188-.8285 1.3557-.8141 2.3277-1.9762 3.2458-3.2207.4842-.6599 1.0114-.6886 1.4167.1219h.0108z" fill="#e8ccb5"/><path d="m28.4014 163.195c1.0006 1.277 1.9331 2.449 2.8477 3.637 1.8112 2.345 3.7372 4.598 5.656 6.857 1.8077 2.127 3.6153 4.254 5.4373 6.37 1.0078 1.173 2.0515 2.313 3.0737 3.475.3945.449.4052.463.104 1.012-2.1699 3.952-4.0851 8.041-6.3626 11.939-.3479.599-.789.858-1.4454.879-.8679.029-1.7072-.169-2.5464-.337-3.0235-.617-5.7959-1.869-8.4536-3.389-2.5823-1.474-4.9746-3.221-7.209-5.179-1.1979-1.051-2.2703-2.224-3.1813-3.537-.1721-.247-.3299-.502-.4913-.757-.642-1.007-.6133-1.911.0645-2.976 3.2351-5.075 6.6388-10.028 10.2791-14.82.7496-.99 1.4275-2.034 2.2201-3.171h.0072z" fill="#707ba7"/><path d="m24.3221 144.029c-1.4741-.148-2.8477-.639-4.1891-1.22-5.3404-2.306-9.5295-5.932-12.44898-10.975-2.672-4.616-4.15683-9.59-4.51908-14.913-.1327-1.936-.15781-3.862.0538-5.792.03228-.298.06815-.599.1327-.889.05739-.252.24748-.334.49136-.266.16499.047.32638.104.48778.169 3.9775 1.639 7.87972 3.432 11.61692 5.566.4555.258.7101.545.6707 1.112-.0933 1.356.2618 2.643.7424 3.895 1.284 3.314 3.2494 6.136 6.0541 8.353 1.2589.993 2.6397 1.765 4.1532 2.306.2403.086.4771.197.7138.294.4662.617.3228 1.306.208 1.973-.538 3.213-1.4131 6.337-2.5895 9.375-.2834.728-.6133 1.363-1.5817 1.012z" fill="#e8ccb5"/><path d="m105.699 184.98c.025 1.126-.287 2.109-.649 3.073-.692 1.855-1.592 3.616-2.55 5.341-1.316 2.363-2.7866 4.63-4.4902 6.742-2.6469 3.279-5.4803 6.374-8.658 9.153-1.4885 1.306-3.0378 2.518-4.7056 3.587-.9074.581-1.8829 1.011-2.9123 1.345-.6707.219-1.2732.115-1.8543-.208-.3371-.187-.6419-.43-.9504-.664-.4878-.365-.6169-.792-.5129-1.445.3766-2.392 1.4956-4.465 2.6828-6.502 2.2057-3.795 4.8598-7.27 7.6824-10.624 1.7144-2.041 3.4682-4.038 5.4121-5.86 1.7539-1.647 3.6117-3.171 5.6776-4.419.9608-.581 1.9688-1.04 3.0488-1.356.376-.107.749-.179 1.137-.172 1.018.011 1.578.545 1.635 1.571.011.172 0 .344 0 .441h.007z" fill="#885f7b"/><path d="m77.6964 184.069c2.0156 2.633 4.1425 4.943 5.6309 7.733.2869.538.2403.904-.1291 1.377-2.1125 2.722-3.9488 5.62-5.4982 8.705-1.1549 2.299-2.1914 4.641-2.5465 7.205-.3299.025-.4124-.204-.5416-.362-.7244-.911-1.3557-1.883-1.9546-2.876-1.4418-2.393-2.8657-4.796-4.3362-7.166-.3013-.488-.2726-.829.0323-1.274 1.4059-2.058 2.7616-4.149 4.1783-6.197 1.3916-2.016 2.837-3.996 4.2609-5.986.2475-.344.52-.674.8966-1.155h.0072z" fill="#f1edea"/><path d="m38.2891 72.8063c.0394-1.4131.0753-2.8227.1255-4.2358.0036-.1147.0538-.269.1363-.3299.1757-.1327.3013.0394.4232.147.4842.4196.9397.8859 1.4597 1.2553 3.2746 2.3241 6.9113 3.3212 10.9175 2.9374.8178-.0789 1.5996-.2977 2.3672-.5738.685-.2475 1.3449-.556 2.0228-.825.5487-.2187 1.0114-.6348 1.6247-.6993.4591.5989.5201 1.3198.6097 2.0335-.1147 1.8722-1.0114 3.2674-2.4747 4.4366-3.9058 3.1275-8.0985 2.9876-12.3486 1.0365-2.2487-1.0329-3.6188-3.0916-4.8633-5.1754z" fill="#e8ccb5"/><path d="m88.633 89.9964c-1.5207.5846-2.837 1.0975-4.1604 1.6032-.2654.1004-.5021.0359-.6958-.1793-.6384-.6958-1.2768-1.3952-1.8148-2.1771-1.7897-2.6038-3.1633-5.4157-4.1353-8.4176-1.3306-4.1138-2.0587-8.3316-2.0372-12.6642.0072-1.2015.1578-2.3958.4089-3.5758.104-.4985.3838-.7245.8787-.7747.6814-.0717 1.3593-.1937 2.0443-.2654.2439-.0251.4125.1399.3766.3981-.2044 1.4992-.1793 3.0055-.0896 4.5047.3443 5.8497 1.5781 11.4806 4.3182 16.717.2188.4196.4627.8249.7066 1.2266.9647 1.5817 2.2308 2.8262 4.2034 3.6045z" fill="#dc8e60"/><path d="m21.9991 113.127c0 .125.0071.247.0107.373-.0825.19-.061.419-.2008.588-.2941.85-.5846 1.7-.8895 2.546-.0861.233-.3084.276-.5093.111-.7568-.634-1.4956-1.287-2.2667-1.904-3.5364-2.844-7.4888-4.989-11.58462-6.901-1.20508-.563-2.403-1.14-3.60091-1.718-.23313-.111-.46267-.229-.68503-.358-1.07956-.628-1.24454-1.03-.85361-2.21.2403-.731.52006-1.452.78187-2.177.9361-.477 1.83633-.14 2.70428.176 5.30452 1.926 10.08182 4.756 14.33552 8.464 1.0293.897 2.0515 1.812 2.7616 3.006h-.0035z" fill="#dc8e60"/><path d="m12.0781 193.67c.8823-1.542 3.0809-4.304 3.9919-5.024.2797.06.3909.319.5667.498 3.4179 3.508 7.3703 6.151 12.101 7.553.3336.101.4017.28.1865.563-.7603.994-1.4238 2.045-1.969 3.167-.1363.284-.3694.352-.6384.305-.8034-.14-1.6104-.265-2.403-.459-3.1598-.775-6.09-2.073-8.7907-3.884-1.1405-.768-2.2021-1.628-3.045-2.715z" fill="#f1edea"/><path d="m76.7235 210.728c-.1399-1.133.1291-2.213.4554-3.285.6707-2.188 1.6965-4.211 2.8801-6.162 1.9224-3.167 4.2034-6.065 6.714-8.784 3.3283-3.604 6.9436-6.889 10.9641-9.719.4519-.319.8357-.735 1.2482-1.105.251-.043.5021-.093.7567-.129.832-.126 1.661-.412 2.496.05.208.115.506.072.757.119.126.025.258.104.23.254-.022.115-.09.24-.176.316-.09.079-.226.118-.344.158-1.851.613-3.5368 1.538-5.079 2.722-1.2159.932-2.4855 1.79-3.5149 2.955-.3586.405-.8823.667-1.266 1.08-1.3342 1.441-2.7007 2.851-3.9166 4.4-.9504 1.209-1.9977 2.346-2.9732 3.533-.6241.761-1.2302 1.539-1.7969 2.339-1.865 2.621-3.6691 5.283-5.0355 8.206-.4735 1.008-.8501 2.058-1.2733 3.088-.0789.197-.1291.412-.251.581-.1686.233-.4268.283-.6886.161-.2224-.104-.3049-.283-.2224-.527.0287-.079.0251-.169.0394-.255h-.0035z" fill="#1f2523"/><path d="m39.7762 217.743c.1363.101.3013.176.4017.301.1184.151.0323.334-.0538.481-.3371.567-.746.947-1.4633 1.101-1.2374.269-2.4747.294-3.7013.197-1.2661-.1-2.525-.355-3.7659-.674-2.2022-.563-4.3434-1.309-6.4128-2.227-2.7366-1.216-5.4695-2.443-8.0626-3.967-1.7323-1.018-3.5113-1.962-5.1503-3.124-1.91524-1.359-3.85557-2.697-5.43007-4.469-.71014-.799-1.39159-1.624-1.79687-2.632-.14705-.362-.07891-.456.45549-.703.3479-.079.57026.129.77829.348 6.58856 6.972 14.62606 11.484 23.83276 13.98 2.8405.771 5.7708 1.094 8.7189 1.169.5595.015 1.1047.094 1.6498.216z" fill="#1e2321"/><path d="m20.2012 51.9326c-.0789-.147-.1829-.2869-.2367-.4411-.2583-.7604-.3408-1.0401.6778-1.1477 1.4956-.1614 2.9123-.6851 4.3254-1.1943.2403-.0861.477-.1937.7209-.2726.7819-.2583.8393-.2296 1.0365.5702.5309 2.1699 1.2625 4.2681 2.1843 6.3016.5702 1.2518 1.2804 2.4246 2.0228 3.5759.1614.251.3264.5021.5021.746.2224.312.2331.6061.0466.954-.3479.6563-.7818 1.2194-1.4059 1.639-1.0473.7066-2.1806 1.1872-3.4288 1.3773-.251.0394-.5164.0287-.7675 0-.2331-.0251-.4017-.1973-.4017-.4268 0-.2941.0395-.5954.0969-.8859.1398-.7137.3156-1.4203.4411-2.1376.1973-1.1047.0538-1.2445-1.119-1.1728 1.1836-1.6785 1.1226-3.4682.5236-5.3296-.1685-.5273-.2474-1.0832-.3192-1.6355-.1793-1.3988-.1685-1.3521-1.5816-.9648-1.076.2941-2.1125 1.0473-3.3176.4447z" fill="#c05842"/><path d="m38.2952 72.8063c.807.5344 1.2302 1.4024 1.8399 2.1089.7855.911 1.5781 1.7969 2.5895 2.4783.6205.4197 1.2984.6528 1.9978.8536 1.3951.4017 2.7795.764 4.2644.7962 1.8471.0395 3.4503-.563 4.9853-1.4525.6994-.4053 1.345-.9146 1.9798-1.4203.5774-.4627.9612-1.0796 1.2338-1.7682.251-.6348.5308-1.2624.7962-1.8901.3013.5093.2905 1.0688.2367 1.6247-.1435 1.4849-.6348 2.8442-1.4777 4.0744-.4698.685-1.0723 1.2445-1.8219 1.596-2.7581 1.2983-5.6417 1.8722-8.6437 1.1082-3.4682-.8823-5.8712-3.1059-7.4098-6.2908-.2726-.5667-.6277-1.1334-.5703-1.8148z" fill="#d9a27e"/><path d="m67.6598 197.354c-.1399-.094-.1865-.108-.2116-.14-.4627-.617-1.0975-1.216-1.2015-1.944-.1076-.746.5164-1.417.8715-2.091 2.0587-3.931 4.8526-7.274 8.2132-10.154.3193-.272.6098-.606 1.0832-.706.147.201.2941.416.4519.617.2295.287.1542.527-.0502.803-1.0437 1.417-2.0766 2.844-3.1024 4.275-2.1483 3.002-4.2357 6.047-6.0577 9.34z" fill="#e7cbb4"/><path d="m20.1953 51.9329c.8213 0 1.5889-.2619 2.36-.5022.6922-.2152 1.3736-.4555 2.0658-.6707.5882-.1829.8106-.0537.764.5882-.061.8716.2367 1.6821.3048 2.5286.0144.165.0897.3264.1543.4842.5846 1.4597.3299 2.9302.043 4.3971-.0359.1901-.165.2977-.3407.3335-.2511.0503-.5165.061-.66.3228-1.1297.7855-2.3922 1.0043-3.7049.9828-.1219-.3444.0538-.4878.1937-.642.4304-.4842.7568-1.0258.972-1.6463.2761-.807.2725-1.5924-.0538-2.3779-.33-.7926-.7747-1.5207-1.2553-2.2344-.3336-.4914-.7389-.9504-.8393-1.5673h-.0036z" fill="#cd6f5e"/><path d="m61.777 21.7373c.2583.0896.4232.2761.5416.5128.2295.4591.4519.9218.6922 1.3737.5882 1.1118 1.5064 1.6283 2.7724 1.7395 2.3851.2044 4.3039-.703 6.0828-2.1771.8895-.7388 1.7359-1.5099 2.5465-2.3276.1291-.1327.2116-.269.0395-.4304.4626-.2798.9432-.3192 1.4489-.1435 0 .1291.0251.2224 0 .2977-1.1297 2.9446-2.9159 5.326-5.9035 6.5957-1.3916.5918-2.8298.9038-4.3792.5523-.9504-.2152-1.6319-.7245-2.1698-1.4705-.4268-.5918-.7927-1.223-1.0114-1.926-.2655-.8536-.66-1.6785-.6636-2.5966z" fill="#c05842"/><path d="m93.5593 185.314c-.3766.348-.7424.703-1.1261 1.04-4.1461 3.63-7.9299 7.593-11.0933 12.123-.8106 1.158-1.5422 2.367-2.3133 3.554-.2726-.298-.2296-.635-.0789-.958.2725-.581.5308-1.173.8643-1.721.8823-1.456 1.7288-2.934 2.7294-4.329.8715-1.213 1.8327-2.357 2.715-3.555.8249-1.115 1.8973-2.069 3.0163-2.948.972-.76 1.9296-1.542 2.898-2.309.5451-.431 1.1943-.66 1.7359-1.087.2224-.176.4878-.068.6527.19z" fill="#1f2523"/><path d="m39.7754 217.743c-4.806.111-9.4936-.57-14.027-2.166-6.463-2.274-12.2697-5.689-17.48811-10.118-1.24454-1.054-2.3241-2.274-3.46463-3.432-.04662-.111-.09683-.219-.13629-.33-.08607-.247.03707-.406.36942-.477.68145 1.112 1.59244 2.023 2.55005 2.883 6.09356 5.473 13.02636 9.483 20.91686 11.746 3.4359.983 6.9651 1.446 10.5481 1.46.2116.201.6241.065.7352.438h-.0036z" fill="#d2dad7"/><path d="m90.2333 87.3318c-.0179.3408-.0107.6851-.0574 1.0222-.0609.434-.3371.6564-.7783.7137-.6348.0789-1.1871-.1506-1.6928-.4806-1.3988-.9074-2.3958-2.1698-3.1275-3.6511-.0968-.1937.0502-.4591.2618-.4842.6313-.0825 1.2697-.0538 1.9081-.1936.789-.1758 1.5852-.3336 2.3671-.5416.3264-.0861.4806.0072.5559.3515.2331 1.0795.6492 2.134.5631 3.2709z" fill="#866e53"/><path d="m76.5312 181.516c2.1807-1.715 6.0398-3.239 7.9694-3.167-.0323.685-.4089 1.212-.8321 1.682-1.3019 1.442-2.8047 2.647-4.5047 3.59-.5021.28-.5846.258-.9827-.19-.538-.61-1.0617-1.234-1.6463-1.919z" fill="#fcfdfd"/><path d="m33.6598 29.2155c.2045.086.3623.2223.4699.4196.5164.9433.8608 1.9511 1.0795 3.0019.0431.2081.0538.4233.1076.6277.2296.8428.2475.8428 1.0724.4053.1901-.1005.3766-.2152.581-.2726 1.3235-.3694 2.3098-1.2481 3.2997-2.134 1.6462-1.4741 2.776-3.3427 3.9847-5.1503.2618-.391.52-.7819.7962-1.1621.2905-.4017.6456-.3335 1.0114-.1112-.7926 2.1448-1.8112 4.1748-3.2997 5.9179-1.6318 1.9116-3.7228 3.1418-6.1509 3.7874-.0825.0215-.165.0466-.2511.0574-1.0544.1399-1.1333.1004-1.3952-.8178-.4339-1.5242-.8715-3.045-1.3091-4.5692z" fill="#be5742"/><path d="m61.8681 25.0552c-.1327-.1005-.269-.1973-.3981-.3013-.1542-.1291-.312-.1184-.4627-.0072-.1004.0753-.2116.1614-.2726.269-.5308.9002-1.3413 1.5494-2.0515 2.2882-.416.434-.8536.8429-1.4131 1.0939-.1004.0467-.2367.1256-.0753.2511.061.0502.1614.0502.2439.0717-.8034.8608-1.8112.929-2.8836.7353 0-.5595-.5057-.4806-.8142-.642-.2797-.1471-.4806.0466-.6671.2259-.4268.4161-.8428.8393-1.2696 1.2553-1.0796 1.0581-2.3492 1.8005-3.8125 2.1878-.2834.0754-.5882.061-.8823.0861.0896-.0861.1685-.2008.2726-.251 2.1627-1.0473 3.6977-2.7545 4.9745-4.7343.2296-.3551.4483-.7209.6564-1.058.3228-.0216.2439.2151.3012.3407.0574.1147.0754.2475.1256.3658.3981.9397 1.0221 1.3163 2.03 1.1872.3371-.0431.6742-.1435.9899-.269 1.1405-.4519 2.0981-1.1585 2.8441-2.1412.5739-.7604 1.0329-1.5781 1.3988-2.4568.0968-.2331.1398-.495.459-.6886.2655.7531.5488 1.4489.6994 2.1949h.0072z" fill="#d3a37f"/><path d="m54.2914 24.5564c.0108.1721.0072.3443.0359.5129.0717.4052.2511.563.5846.5092 1.3557-.2116 2.5608-.7173 3.4323-1.8291.2116-.269.3695-.5774.556-.8644.5308-.8213.9612-1.7323 1.9331-2.1662-.2439 1.1369-.5882 2.2416-1.0975 3.2888-.7352 1.51-1.7466 2.7473-3.3462 3.4216-.4017.1686-.807.2869-1.2446.2798-.6205-.0144-.997-.269-1.058-.8931-.0789-.7568-.1973-1.5386.208-2.2631h-.0036z" fill="#bf5842"/><path d="m24.3203 144.028c.6205 0 .9612-.251 1.1728-.9.7317-2.26 1.6355-4.465 2.091-6.811.2977-1.539.7316-3.056.6958-4.645 1.2732.201 1.2517.097 1.0616 1.403-.477 3.274-1.3127 6.438-2.6003 9.486-.0824.197-.1721.391-.2582.585-.5918 1.287-.6994 1.33-2.1591.886h-.0036z" fill="#d6a17d"/><path d="m44.7415 31.5177c.2152.4698.3623.5631.5811.33.6563-.6958 1.4203-1.2338 2.2954-1.6212.2259-.1004.4124-.3048.6061-.4698 1.5171-1.3091 2.629-2.9266 3.5256-4.702.3873-.7639.7424-1.5458 1.2445-2.2488.3013-.4268.6062-.8285 1.0832-1.0652 0 .66-.2798 1.2481-.5129 1.8363-.972 2.4389-2.1878 4.72-4.1497 6.5348-1.0221.9432-2.1878 1.6283-3.5112 2.0443-.2439.0753-.495.1363-.746.1686-.208.0251-.4376.0179-.5488-.2188-.1004-.2188-.0286-.4125.1292-.581v-.0072z" fill="#be5842"/><path d="m64.0204 193.469c.6312.997 1.1979 1.898 1.7718 2.791.1614.251.1578.48-.0431.695-1.0795 1.162-2.3277 2.077-3.8663 2.658.0682-1.854.9791-4.49 2.134-6.144z" fill="#fbfbfb"/><path d="m30.8203 44.175c1.6929 0 1.7108.0108 2.4317-1.5099.495-1.0401.954-2.1018.9433-3.2961 0-.2475.1219-.4949.1614-.746.0322-.208.0681-.4304.0287-.6312-.3192-1.6247-.5309-3.271-.9074-4.8885-.2009-.8572-.4914-1.7395-.2941-2.6541.7675 2.1412 1.4453 4.3147 1.6964 6.5778.1901 1.7072.1506 3.4323-.2475 5.1252-.1363.5846-.3443 1.1477-.6312 1.6821-.208.3873-.477.7137-.8106.9899-.5057.4232-.9504.4555-1.5458.1363-.3443-.1865-.6491-.4197-.8213-.7855z" fill="#b85642"/><path d="m27.6853 38.2532c-1.0688 0-2.1412-.0609-3.2064.0072-1.9188.1184-3.8018.4447-5.5915 1.1872-.3515.147-.7065.3192-1.0114.5487-1.0831.8249-2.2882 1.492-3.2817 2.4353-.0861.0825-.2295.104-.3443.1506.4591-1.3198 1.5028-2.1591 2.55-2.9553 1.5602-1.1908 3.375-1.822 5.3046-2.0874 1.4848-.2044 2.9804-.1757 4.4724-.0108.2941.0323.5882.1148.8716.2045.2474.0789.269.2941.2367.52z" fill="#d4a47f"/><path d="m43.9674 32.5475c-.4591-.373-.4663-.3802-.7927-.0646-1.119 1.0903-2.446 1.8794-3.791 2.6325-.8608.4842-1.7717.8608-2.8047.8321-.4088-.0107-.5451.1578-.5702.5344-.0108.1722-.0538.3623 0 .5129.3909 1.0652.0071 2.1197-.0431 3.1705-.0287.5775-.0896 1.1944-.4877 1.6893 0-.1722-.0252-.3443 0-.5129.2976-1.8865.2044-3.7659-.0574-5.6452-.0718-.5129-.0574-.538.538-.5954 1.5207-.1542 2.9266-.6384 4.2464-1.4059 1.4347-.8321 2.6182-1.9368 3.6476-3.2279.1578-.1973.2546-.4555.6025-.5811-.2725.8967-.6348 1.7395-.4877 2.6613z" fill="#d0a17d"/><path d="m21.9925 113.127c-1.6749-1.721-3.3929-3.393-5.3368-4.82-3.4395-2.525-7.13367-4.595-11.104-6.158-.63482-.251-1.30192-.424-1.96544-.603-.45549-.125-.92533-.179-1.39876-.065.0538-.168.17574-.261.34072-.294.1614-.032.30486-.089.39811-.236.91816.014 1.77177.319 2.61102.635 3.88425 1.459 7.47445 3.471 10.82785 5.903 1.8829 1.363 3.6619 2.848 5.1826 4.619.1901.223.373.495.7424.399-.1004.208-.2008.416-.3013.624z" fill="#48382c"/><path d="m68.7692 19.4349c.0466-.5918.3658-1.0365.7711-1.4418.642-.6349 1.2697-1.2876 1.9188-1.9117 1.015-.9755 1.7216-2.1053 1.9906-3.5184.0968-.5129.1327-1.1405.7496-1.4131.3515.5954.2152 1.2445.1434 1.865-.2438 2.1663-1.3521 3.8269-3.1454 5.0212-.7747.5201-1.6175.9361-2.4317 1.3988z" fill="#be5843"/><path d="m46.2848 33.3471c-.1291.1076-.2439.2403-.3874.3157-1.7574.893-3.3785 2.0013-4.9853 3.1382-.4878.3443-.9684.7101-1.5386.911-.1578.0538-.3408.0789-.4806-.0502-.1901-.1722-.1507-.391-.0574-.5846.1829-.391.4698-.7102.7675-1.015 1.1441-1.1728 2.4389-2.1412 3.9058-2.8729.2726-.1363.5523-.2474.5451-.6205.4806.3623 1.0437.3193 1.571.2368.5021-.0789.5236.269.6635.5451z" fill="#524840"/><path d="m76.5475 208.3c-.0215.24-.0394.484-.061.724-.2331.176-.2187.431-.2403.682-.0179.197.0144.473-.2869.452-.2295-.018-.2869-.273-.3766-.456-.1004-.201-.104-.416.0144-.602.2008-.316.4124-.628.6527-.911.0861-.105.2224-.001.2977.107z" fill="#1f2523"/><path d="m21.8096 114.088c-.0216-.226.0251-.431.2008-.588.0502.236.0251.448-.2008.588z" fill="#48382c"/><path d="m35.4374 42.0586c.0609.2224.0358.4196-.1614.5667-.0466-.2188-.0072-.4125.1614-.5667z" fill="#d0a17d"/><path d="m31.1281 203.138c-.2941.176-.5774.366-.8787.528-1.7646.95-3.314 2.148-4.4366 3.841-.0466.071-.1076.132-.1685.193-.1076.104-.2403.086-.3443.015-.0574-.04-.0969-.147-.0969-.223 0-.412.2116-.742.4627-1.036 1.0903-1.298 2.3492-2.389 3.8807-3.138.5093-.248 1.0293-.467 1.596-.155l-.0144-.028z" fill="#d6d8d5"/><path d="m32.88 204.872c.0144.2-.1076.319-.2654.387-1.8973.825-3.3355 2.191-4.5406 3.834-.2797.384-.5667.531-.6707.377-.1865-.269-.0179-.513.1076-.703 1.076-1.636 2.4425-2.949 4.2644-3.741.3695-.162.7461-.151 1.1298-.129l-.0215-.025z" fill="#d0d3d1"/><path d="m118.007 25.8117c-.355.2367-.585.642-1.019.7603-.072.0215-.165-.0071-.24-.0358-.101-.0359-.129-.122-.079-.2152.126-.2224.244-.4519.387-.66 1.772-2.5393 1.596-6.4163-1.635-8.9269-.552-.4304-1.169-.6958-1.89-.7245-.366-.0144-.223-.2511-.104-.4376.541-.4411 1.126-.3335 1.7-.1076 3.382 1.3199 5.839 6.8468 2.88 10.3437z" fill="#2f332c"/><path d="m118.006 25.8117c.24-.5953.535-1.1764.707-1.7897.71-2.5213.071-4.7414-1.607-6.6997-.251-.2905-.538-.5595-.836-.7998-.825-.6671-1.732-1.1118-2.84-.9468.409-.6671.936-.8787 1.728-.6277.628.2009 1.173.5165 1.686.8895 1.79 1.3055 2.891 2.9876 2.783 5.3009-.043.9325.133 1.883-.262 2.7796-.186.4304-.362.8644-.588 1.2733-.165.2976-.387.5666-.767.6204z" fill="#d6a27e"/><path d="m48.0656 45.606c.1794.4196.0861.8213-.0358 1.2122-.0897.2869-.2045.5667-.3121.8464-.0968.2547.018.4268.2332.5129.8823.3515 1.7968.5739 2.7544.5882 1.9906.0287 3.7982-.5989 5.5269-1.5171.4376-.2331.8752-.4627 1.3378-.7065.018.1685.0574.294.0251.3156-.5917.416-.6886.9934-.6742 1.6785.0358 1.9762.0179 3.9488.0107 5.925 0 1.2517-.1614 2.4855-.5774 3.6726-.3013.8572-.703 1.657-1.3737 2.299-1.2122 1.1621-2.9015 1.4454-4.4079.703-.9468-.4663-1.6713-1.1908-2.2774-2.0444-.7783-1.0939-1.3306-2.3025-1.7359-3.5758-.2332-.7352-.4412-1.4812-.6169-2.2308-.1793-.7496-.3085-1.5099-.4555-2.2595-.3156-.1614-.4806.0968-.6707.2367-.6312.4555-1.3199.8034-2.0479 1.0759-.2009.0754-.4089.1363-.6277.0072.0789-.4089.4627-.4591.7424-.6061.8034-.4161 1.571-.8823 2.2452-1.4956 1.1979-1.0939 2.0695-2.3994 2.5393-3.9632.0718-.2331.0718-.5128.4017-.6742z" fill="#31332e"/><path d="m57.9175 37.1847c-.0466.0538-.1076.0825-.1829.0825-.1614.0754-.2798.0216-.3766-.1111-.0323-.0969-.0287-.1901.0072-.2834.0466-.0825.1076-.1578.1757-.2188.0717-.0538.1471-.1004.2295-.1398.1076-.0574.2224-.1041.3228-.1722.0574-.0466.0969-.1076.1076-.1865-.0394-.1291-.1327-.2224-.208-.33-.312-.4411-.3766-.9468-.3909-1.4633-.0072-.4089.0107-.8177 0-1.223-.0144-.1076-.0215-.2188-.0359-.3264-.0179-.2582-.3228-.4591-.165-.7567 2.1412-.7891 4.0385-.434 5.674 1.1907.3873.3838.5953.8285.5882 1.3772-.0108.6887-.2941 1.1477-.9469 1.3809-.3981.1434-.8213.2116-1.2696.3228.0717.1757.1183.3407.1972.4841.5918 1.0724.5201 2.1735.0108 3.2172-1.2768 2.6038-3.4037 4.0134-6.2873 4.2501-.6348.0502-1.2983.0358-1.8255-.434-.0538-.0466-.0861-.1578-.0682-.226.0144-.0609.1148-.1362.1758-.1398.2116 0 .4268.0143.6348.0466 2.733.4196 5.8604-1.3844 6.8539-3.9488.2224-.5775.2798-1.1692.1901-1.7718-.1542-1.0222-.8321-1.5028-1.822-1.2947-.251.0538-.4913.1542-.7352.2331-.1327.0143-.2188.1184-.3264.1793-.0502.0538-.1112.0789-.1865.0789-.1363.0144-.2224.1184-.3299.1901z" fill="#232524"/><path d="m43.7304 35.682c1.2984-.8285 2.7222-.997 4.2035-.7711 1.2194.1901 2.1627.7819 2.6361 1.9942.2116.5415.1327.997-.2439 1.4274-.4088.4663-.9396.7424-1.5063.9576-.9218.3479-1.8507.6815-2.776 1.0186-.2834.2224-.4914.0717-.6922-.1327-.5703-.9217-1.5171-1.657-1.4347-2.9015.0897-.5488-.2008-1.0509-.19-1.5925z" fill="#202121"/><path d="m20.7576 43.7802c-.3551-.1937-.5523.0251-.7532.147-.642.3874-1.1118.9361-1.4597 1.5925-.1184.2259-.226.4626-.3551.685-.0323.0538-.1363.1076-.1973.0932-.1327-.0287-.2367-.1255-.2259-.269.0108-.1685.0394-.3407.1004-.4949.3264-.8177.8464-1.5135 1.5853-1.9834 1.9762-1.2624 4.1389-1.5745 6.4199-1.1297.1112.0215.2439.1183.1794.2797-.0251.0574-.1112.1255-.1722.1291-.3407.018-.685.0144-1.0293.0215-.5595.0108-1.119 0-1.6714.0467-1.0365.0896-1.9224.9145-2.1161 1.9295-.1076.5595.1614.8895.7568.9325.5703.0431 1.1047-.1075 1.6319-.3084.3192-.1219.6384-.2439.9648-.3479.0502-.0143.1614.061.1901.122.0287.0645.0179.1793-.0215.2367-.0718.1004-.165.2008-.2726.2618-.6384.373-1.3378.581-2.0659.6743-.2869.0358-.6025-.0072-.8859-.0825-.6491-.1686-.8966-.5524-.9217-1.2159-.018-.477.2259-.8966.3192-1.3234z" fill="#363e38"/><path d="m43.7328 35.6821c.6635.3802.6133.972.477 1.5925-.4304-.7173-.8106-.4663-1.2661.0107-.9181.9612-1.9941 1.8112-1.9797 3.3284.0107 1.0293.3156 1.2445 1.2624.8536.7173-.2977 1.3378-.7819 2.0264-1.1334.3946-.2008.7568-.6384 1.284-.2941.1112.208.3192.2295.5165.269-1.1011.6563-2.195 1.3234-3.2996 1.969-.33.1937-.6851.3515-1.0796.3874-.7962.0753-1.3306-.2511-1.5924-.9935-.1614-.4555-.1794-.9146-.0933-1.3916.1722-.954.5918-1.7861 1.1979-2.5249.7066-.8644 1.4598-1.6785 2.5537-2.0695h-.0072z" fill="#3c433e"/><path d="m54.5657 29.4589c.9433-.3156 1.9367-.4304 2.8836-.7388.6025-.0072 1.2015-.018 1.8005-.018.3478 0 .6814.0646.9863.2475.1936.1184.3192.2834.312.5201s-.1291.4196-.3443.4913c-.3228.1076-.6564.2367-.9899.2547-1.6463.0861-3.2028.5523-4.7486 1.0724-.4448.1506-.9074.2474-1.3665.3479-.2152.0466-.4412.0179-.5703-.1901-.165-.2654-.0323-.495.1399-.6958.3658-.434.8357-.7317 1.3306-.9935l.5703-.3013z" fill="#6f554a"/><path d="m57.381 36.9336c.1183.1112.2367.2223.3586.3299-.9002.7281-1.9439 1.0186-3.0844.9935-.5201-.0107-1.0114-.1291-1.4167-.4913-.1004-.0897-.165-.2081-.0861-.3228.0933-.1363.226.0071.3407-.0036.0789-.0108.1578-.0431.2368-.0646-.4233-2.6899.936-4.6625 3.669-5.3332.1004.2475.5452.208.4878.5882-.9146.4376-1.9009.7496-2.5716 1.5924-.3766.4699-.7316.9469-.8536 1.5458-.2403 1.1764.3407 1.7037 1.4777 1.3809.4698-.1363.9038-.5416 1.4454-.2152z" fill="#4b4f49"/><path d="m58.4375 36.9159c.0681-.1363.1722-.2044.3264-.1793-.0682.1363-.1758.1972-.3264.1793z" fill="#4b4f49"/><path d="m57.9219 37.1844c.0645-.1362.1721-.2116.3299-.19-.0645.1434-.1721.2044-.3299.19z" fill="#4b4f49"/><path d="m39.7031 36.7973c1.1298-1.4884 2.6039-2.5106 4.1963-3.3965.5093-.2833 1.0294-.3802 1.5996-.2762-.1183.1292.0574-.0825.0359.0897-.0036.0395-.0215.0932-.0502.1076-1.9691 1.0222-3.7516 2.342-5.6022 3.5543-.018.0107-.0718-.0287-.1758-.0753z" fill="#c36b5b"/><path d="m47.2884 48.6153c3.0916 1.3163 6.0361.7998 8.8157-.6456.3049.1291.2619.3192.2654.477v6.6926c0 .2116-.0215.4268-.0717.6312-.0323.1255-.165.208-.3013.1399-.1506-.0753-.2941-.1758-.416-.2905-1.327-1.2517-2.8908-1.3486-4.5549-.9218-.9361.2403-1.7324.7173-2.3851 1.4418-.2511.2798-.477.6062-.8429.7568-.2582-.0717-.3048-.3049-.373-.4878-.6671-1.8076-1.1441-3.6655-1.5242-5.552-.0467-.2331 0-.4124.1362-.5918.4161-.5415.825-1.0831 1.2518-1.6462z" fill="#742e27"/><path d="m52.4995 55.0314c.8429-.0359 1.5889.2474 2.3098.6635.9145.5308 1.2732 1.822.7962 2.776-.1506.3049-.3049.6133-.4914.8966-1.1764 1.7539-3.235 2.1412-4.9136.8859-.7926-.5918-1.4382-1.3342-1.8937-2.2344-.1865-.3658-.1255-.642.0825-.9469.7891-1.1405 2.6003-2.0443 4.1138-2.0407z" fill="#bf4f44"/><path d="m57.3823 36.934c-.599.2223-1.1872.477-1.8005.6599-.8859.2654-1.3091.104-1.4884-1.0043-.1112-.7065.0861-1.37.4591-1.9654.6384-1.0222 1.5386-1.7108 2.7078-2.0443.2188-.061.4232-.0323.6277.0538-.0287.043-.0287.0825 0 .1255-.1363.5595-.1435 1.119 0 1.6785 0 .5703.2008 1.0616.5631 1.4956.1255.1829.1757.3515-.0933.4555-.0717-.0036-.1327.0251-.1721.0825-.1005.0645-.1901.1542-.3085.1829-.0825 0-.1506.0287-.2044.0968-.0969.0503-.1901.1076-.2762.1758l-.0179.0072z" fill="#efede6"/><g fill="#4b4f49"><path d="m57.8876 34.4373c-.2546-.5595-.2582-1.119 0-1.6785.1041.5595.1041 1.119 0 1.6785z"/><path d="m58.3594 36.3886c.0323-.1506.0609-.3049.0932-.4555.2618.2869.2583.2977-.0932.4555z"/><path d="m57.8828 36.6575c.0502-.147.1578-.2044.3085-.1829-.0574.1363-.1579.208-.3085.1829z"/><path d="m57.3984 36.93c.0323-.1507.1327-.2009.2762-.1758-.0394.1399-.1291.2044-.2762.1758z"/></g><path d="m45.5338 40.0433c-.7962.2332-1.431.7676-2.1412 1.1549-.4877.269-.9647.5739-1.4776.7783-.7424.2977-1.2481-.0574-1.3342-.8715-.0753-.7066.0861-1.3665.4124-1.9906.4878-.9253 1.1728-1.6928 1.987-2.3384.9002-.7173.9433-.6994 1.1584.3945.0072.0394.0467.0717.0718.1076 0 .8106.4017 1.4418.8894 2.0407.1794.2224.4735.373.4376.7245z" fill="#eeede6"/><path d="m58.4103 29.1655c.4268.0395.85.0718 1.2768.122.0574.0071.1327.1076.1434.1757.0108.061-.0466.1793-.0968.1901-.373.0897-.7496.2008-1.1298.2331-1.5996.1291-3.0916.6886-4.6015 1.1657-.2045.0645-.4053.1327-.6133.1757-.0574.0108-.1363-.061-.1901-.1112-.0179-.0179-.0144-.0932.0072-.1219.251-.3623.5917-.6133.9863-.807 1.327-.6635 2.7293-1.015 4.2213-1.0222z" fill="#c76c5c"/><path d="m24.6422 47.7322s-.0251-.0323-.0394-.0466c-.0179-.0216-.0287-.0323-.0287-.0323-.2152-.2331-.5416-.3838-.9146-.3838-.6456 0-1.1728.4519-1.1728 1.0079 0 .3156.1722.5917.4304.7747 2.3349 4.1855-.685 3.9021-.685 3.9021-1.8184.0682-.9254-2.8656-.9254-2.8656l-1.7789-.2654c-1.2768 3.2458 0 4.5477 1.3199 5.0678 1.2624.4949 2.6935.2761 3.834-.4555 3.4036-2.1842.4447-6.0972-.0395-6.6997z" fill="#ffea55" stroke="#000" stroke-miterlimit="10" stroke-width=".358657"/></g></svg>