<svg viewBox="0 0 24 24" xmlns="http://www.w3.org/2000/svg" xmlns:xlink="http://www.w3.org/1999/xlink"><clipPath id="a"><path d="m0 0h24v24h-24z"/></clipPath><g clip-path="url(#a)"><path d="m22.23 0h-20.46c-.97 0-1.77.77-1.77 1.72v20.56c0 .95.8 1.72 1.77 1.72h20.46c.98 0 1.77-.77 1.77-1.72v-20.56c0-.95-.8-1.72-1.77-1.72zm-14.96 20.1h-3.62v-10.86h3.62zm-1.8-12.34h-.03c-1.22 0-2-.83-2-1.87 0-1.06.8-1.87 2.05-1.87 1.24 0 2 .8 2.02 1.87 0 1.04-.78 1.87-2.05 1.87zm14.87 12.34h-3.63v-5.8c0-1.45-.52-2.45-1.83-2.45-1 0-1.6.67-1.87 1.32-.1.23-.11.55-.11.88v6.05h-3.62s.05-9.82 0-10.84h3.63v1.54c.3277-.5687.8046-1.03701 1.3792-1.35427.5746-.31725 1.2249-.47139 1.8808-.44573 2.39 0 4.18 1.56 4.18 4.89v6.21z" fill="#432c16"/></g></svg>