<svg height="21.714275" viewBox="0 0 20.57143 21.714275" width="20.57143" xmlns="http://www.w3.org/2000/svg" xmlns:xlink="http://www.w3.org/1999/xlink"><clipPath id="a"><rect height="32" rx="6.85714" width="32"/></clipPath><g clip-path="url(#a)" transform="translate(-5.71436 -5.714291)"><path d="m20.351 22.2512c2.7471-.3253 5.1536-1.9952 5.4943-3.5242.3071-1.9442.4541-3.9097.4395-5.8774-.0769-4.70619-3.2086-6.03998-3.2086-6.03998-2.284-.79742-4.6993-1.16523-7.1206-1.08439-2.4213-.08084-4.8365.28697-7.12052 1.08439 0 0-3.12072 1.33379-3.12072 6.03998v3.7303c.10988 4.5978.8571 9.1305 5.16454 10.2583 1.6508.4556 3.3643.6496 5.0767.5747 1.3429-.0351 2.6652-.3337 3.8899-.8783l-.0769-1.7784c-1.238.3551-2.5241.5197-3.813.4879-1.9779-.065-4.0767-.206-4.3954-2.6025-.0171-.2274-.0171-.4557 0-.6831 1.4446.3237 2.9156.5196 4.3954.5855 1.4709.0256 2.9413-.0723 4.3954-.2928zm-7.1865-10.6269c-.9889 0-1.4834.5856-1.4834 1.7567v5.5303h-2.31857v-5.7038c-.05447-1.0031.26618-1.9909.90107-2.776.3014-.3488.6776-.62704 1.1014-.81459.4239-.18755.8846-.27972 1.349-.26983.5198-.02754 1.0378.08139 1.501.31569.4633.2343.8554.58563 1.1363 1.01813l.5714.9434.5714-.9434c.2809-.4325.6729-.78383 1.1362-1.01813.4632-.2343.9812-.34323 1.501-.31569.4644-.00989.9252.08228 1.349.26983s.8.46579 1.1014.81459c.6586.7758 1.003 1.7646.967 2.776v5.7038h-2.3186v-5.5303c0-1.1711-.4944-1.7567-1.4834-1.7567-1.0989 0-1.6593.694-1.6593 2.082v3.0254h-2.2306v-3.0254c0-1.388-.5934-2.082-1.6923-2.082z" fill="#432c16"/></g></svg>