<svg viewBox="0 0 15 15" fill="none" xmlns="http://www.w3.org/2000/svg"><path fill-rule="evenodd" clip-rule="evenodd" d="M3 2c-0.55228 0 -1 0.44772 -1 1v9c0 0.5523 0.44772 1 1 1h9c0.5523 0 1 -0.4477 1 -1V8.5c0 -0.27614 -0.2239 -0.5 -0.5 -0.5s-0.5 0.22386 -0.5 0.5V12H3V3l3.5 0c0.27614 0 0.5 -0.22386 0.5 -0.5S6.77614 2 6.5 2H3Zm9.8536 0.14645c0.0479 0.04794 0.0841 0.10319 0.1085 0.16216 0.024 0.05808 0.0375 0.12169 0.0379 0.18839l0 0.003v3c0 0.27614 -0.2239 0.5 -0.5 0.5s-0.5 -0.22386 -0.5 -0.5V3.70711L6.85355 8.85355c-0.19526 0.19527 -0.51184 0.19527 -0.7071 0 -0.19527 -0.19526 -0.19527 -0.51184 0 -0.7071L11.2929 3H9.5c-0.27614 0 -0.5 -0.22386 -0.5 -0.5s0.22386 -0.5 0.5 -0.5h3c0.0678 0 0.1324 0.01349 0.1914 0.03794 0.059 0.0244 0.1142 0.06057 0.1622 0.10851Z" fill="#000000" stroke-width="1"></path></svg>