<svg width="16" height="17" viewBox="0 0 16 17" fill="none" xmlns="http://www.w3.org/2000/svg">
<g id="Icon">
<path id="Icon_2" d="M7.26027 2.61485C7.51424 1.92852 8.48498 1.92851 8.73894 2.61485L10.003 6.03094C10.0829 6.24672 10.253 6.41685 10.4688 6.4967L13.8849 7.76076C14.5712 8.01473 14.5712 8.98547 13.8849 9.23943L10.4688 10.5035C10.253 10.5833 10.0829 10.7535 10.003 10.9693L8.73894 14.3853C8.48498 15.0717 7.51424 15.0717 7.26028 14.3853L5.99621 10.9693C5.91636 10.7535 5.74623 10.5833 5.53045 10.5035L2.11436 9.23943C1.42803 8.98547 1.42803 8.01473 2.11436 7.76076L5.53045 6.4967C5.74623 6.41685 5.91636 6.24672 5.99621 6.03094L7.26027 2.61485Z" fill="white" stroke="white" stroke-width="1.33333" stroke-linejoin="round"/>
</g>
</svg>
