<?xml version="1.0" encoding="UTF-8" standalone="no"?>
<svg
   width="24"
   height="24"
   viewBox="0 0 24 24"
   fill="none"
   version="1.1"
   id="svg28"
   sodipodi:docname="custom-bullet-white.svg"
   inkscape:version="1.1.2 (0a00cf5339, 2022-02-04)"
   xmlns:inkscape="http://www.inkscape.org/namespaces/inkscape"
   xmlns:sodipodi="http://sodipodi.sourceforge.net/DTD/sodipodi-0.dtd"
   xmlns="http://www.w3.org/2000/svg"
   xmlns:svg="http://www.w3.org/2000/svg">
  <defs
     id="defs32" />
  <sodipodi:namedview
     id="namedview30"
     pagecolor="#ffffff"
     bordercolor="#666666"
     borderopacity="1.0"
     inkscape:pageshadow="2"
     inkscape:pageopacity="0.0"
     inkscape:pagecheckerboard="0"
     showgrid="false"
     inkscape:zoom="19.333333"
     inkscape:cx="11.974138"
     inkscape:cy="12"
     inkscape:window-width="1366"
     inkscape:window-height="699"
     inkscape:window-x="0"
     inkscape:window-y="0"
     inkscape:window-maximized="1"
     inkscape:current-layer="svg28" />
  <path
     d="M12 21V14"
     stroke="#432C16"
     stroke-width="2"
     stroke-linecap="round"
     stroke-linejoin="round"
     id="path2"
     style="stroke:#ffffff" />
  <path
     d="M12 10V3"
     stroke="#432C16"
     stroke-width="2"
     stroke-linecap="round"
     stroke-linejoin="round"
     id="path4"
     style="stroke:#ffffff" />
  <path
     d="M16.5 19.8L13 13.7"
     stroke="#432C16"
     stroke-width="2"
     stroke-linecap="round"
     stroke-linejoin="round"
     id="path6"
     style="stroke:#ffffff" />
  <path
     d="M11 10.3L7.5 4.20001"
     stroke="#432C16"
     stroke-width="2"
     stroke-linecap="round"
     stroke-linejoin="round"
     id="path8"
     style="stroke:#ffffff" />
  <path
     d="M11 13.7L7.5 19.8"
     stroke="#432C16"
     stroke-width="2"
     stroke-linecap="round"
     stroke-linejoin="round"
     id="path10"
     style="stroke:#ffffff" />
  <path
     d="M16.5 4.20001L13 10.3"
     stroke="#432C16"
     stroke-width="2"
     stroke-linecap="round"
     stroke-linejoin="round"
     id="path12"
     style="stroke:#ffffff" />
  <path
     d="M19.8 7.5L13.7 11"
     stroke="#432C16"
     stroke-width="2"
     stroke-linecap="round"
     stroke-linejoin="round"
     id="path14"
     style="stroke:#ffffff" />
  <path
     d="M10.3 13L4.20001 16.5"
     stroke="#432C16"
     stroke-width="2"
     stroke-linecap="round"
     stroke-linejoin="round"
     id="path16"
     style="stroke:#ffffff" />
  <path
     d="M19.8 16.5L13.7 13"
     stroke="#432C16"
     stroke-width="2"
     stroke-linecap="round"
     stroke-linejoin="round"
     id="path18"
     style="stroke:#ffffff" />
  <path
     d="M10.3 11L4.20001 7.5"
     stroke="#432C16"
     stroke-width="2"
     stroke-linecap="round"
     stroke-linejoin="round"
     id="path20"
     style="stroke:#ffffff" />
  <path
     d="M14 12C14 12.4 13.9 12.7 13.7 13C13.5 13.3 13.3 13.5 13 13.7C12.7 13.9 12.4 14 12 14C11.6 14 11.3 13.9 11 13.7C10.7 13.5 10.5 13.3 10.3 13C10.1 12.7 10 12.4 10 12C10 11.6 10.1 11.3 10.3 11C10.5 10.7 10.7 10.5 11 10.3C11.3 10.1 11.6 10 12 10C12.4 10 12.7 10.1 13 10.3C13.3 10.5 13.5 10.7 13.7 11C13.9 11.3 14 11.6 14 12Z"
     stroke="#432C16"
     stroke-width="2"
     stroke-linecap="round"
     stroke-linejoin="round"
     id="path22"
     style="stroke:#ffffff" />
  <path
     d="M21 12H14"
     stroke="#432C16"
     stroke-width="2"
     stroke-linecap="round"
     stroke-linejoin="round"
     id="path24"
     style="stroke:#ffffff" />
  <path
     d="M10 12H3"
     stroke="#432C16"
     stroke-width="2"
     stroke-linecap="round"
     stroke-linejoin="round"
     id="path26"
     style="stroke:#ffffff" />
</svg>
