<svg width="111" height="49" viewBox="0 0 111 49" fill="none" xmlns="http://www.w3.org/2000/svg">
<g id="Logo for Website">
<path id="Subtract" fill-rule="evenodd" clip-rule="evenodd" d="M91.5795 16.2023C99.617 24.8144 104.341 35.7503 105.108 47.4525C105.109 47.4601 105.109 47.4677 105.11 47.4753C106.692 47.4609 107.565 47.4525 107.565 47.4525C106.797 35.7503 102.074 24.8144 94.0362 16.2023C93.6241 15.76 93.2027 15.3229 92.773 14.8936C92.1874 14.3084 91.5889 13.7376 90.979 13.1844C89.6678 11.9933 88.3034 10.8755 86.8926 9.83874C85.8969 9.10386 84.877 8.40924 83.8359 7.75539C82.5072 6.91782 81.1444 6.14631 79.7495 5.44188C78.7456 4.93201 77.7272 4.45982 76.6929 4.02065C75.3543 3.45143 73.9915 2.94207 72.6065 2.4931C72.5228 2.4642 72.4391 2.43685 72.3555 2.41105C67.3917 0.82312 62.1547 0 56.7928 0C56.3826 0 55.9731 0.00481721 55.5645 0.0144258C60.4977 0.130416 65.3148 0.944599 69.8988 2.41105C69.9825 2.43685 70.0662 2.4642 70.1498 2.4931C71.5348 2.94207 72.8977 3.45143 74.2362 4.02065C75.2706 4.45982 76.289 4.93201 77.2929 5.44188C78.6877 6.14631 80.0505 6.91782 81.3793 7.75539C82.4204 8.40924 83.4403 9.10387 84.4359 9.83874C85.8468 10.8755 87.2112 11.9933 88.5223 13.1844C89.1322 13.7376 89.7307 14.3084 90.3164 14.8936C90.746 15.3229 91.1674 15.76 91.5795 16.2023ZM8.40662 47.4525H10.8633C11.3919 40.2267 13.5979 33.46 17.0927 27.5391V23.8034C12.179 30.5411 9.05007 38.6567 8.40662 47.4525ZM22.606 27.3606H20.1494V20.0434C21.427 18.6268 22.7924 17.2891 24.2358 16.0418V18.3268C23.678 18.885 23.1345 19.4574 22.606 20.0434V27.3606ZM29.7491 27.3606H27.2925V13.6158C28.6036 12.6611 29.968 11.775 31.3789 10.9617V12.4826C30.8271 12.8487 30.2837 13.2266 29.7491 13.6158V27.3606ZM36.8922 41.1466H34.4355L34.4355 9.34693C35.7643 8.70701 37.1271 8.13005 38.5219 7.61864V8.60115C37.9732 8.83932 37.4299 9.08797 36.8922 9.34693V41.1466ZM41.5786 47.4525H44.0352V6.62057C44.5746 6.46441 45.1179 6.31821 45.665 6.18195V5.6416C44.28 5.90686 42.9171 6.23301 41.5786 6.62057V47.4525ZM48.7216 47.4525H51.1783V5.16373C51.7187 5.09778 52.262 5.04125 52.8081 4.99427V4.84841C51.4292 4.89382 50.0664 4.99962 48.7216 5.16373V47.4525ZM55.8647 47.4525H58.3214V4.99466C57.5085 4.92462 56.6895 4.87578 55.8647 4.84893V47.4525ZM63.0078 47.4525H65.4644V6.18195C64.6537 5.98005 63.8347 5.79997 63.0078 5.6416V47.4525ZM72.6075 41.1466H70.1509L70.1508 7.61864C70.9812 7.92309 71.8002 8.25078 72.6075 8.60082V41.1466ZM79.7506 27.3606V12.4815C78.9489 11.9492 78.1296 11.4414 77.2939 10.9596V27.3606H79.7506ZM86.8936 27.3606V18.324C86.1027 17.5332 85.2831 16.7712 84.437 16.0397V27.3606H86.8936ZM91.58 23.8019V47.4525H94.0367V27.5367C93.2773 26.2505 92.4571 25.0042 91.58 23.8019Z" fill="#1E1207"/>
<g id="Group 12438">
<path id="Vector" d="M0.000274658 43.9587C0.000274658 46.5274 2.04733 48.626 4.61118 48.6851C5.18142 48.6983 5.75213 48.7116 6.32238 48.7263C8.71213 48.7739 13.8892 48.8645 16.2008 48.8997C17.0744 48.9057 17.9499 48.832 18.8053 48.6604C23.1219 47.8021 26.7289 44.3469 27.7762 40.0595C28.1564 38.7065 28.1564 37.0926 28.155 35.6957L28.1779 32.5278L28.1792 32.1333C28.187 32.0752 28.1747 31.8138 28.1852 31.7877C28.1961 31.7387 28.1989 31.6893 28.1961 31.639C28.2208 31.5639 28.2144 31.4792 28.2469 31.4069C28.256 31.3762 28.2606 31.3456 28.267 31.3149C28.2825 31.2874 28.2962 31.2581 28.3054 31.2288C28.3145 31.1657 28.3634 31.1181 28.3821 31.0586C28.9524 30.0068 30.4438 29.8932 31.1429 30.8943C31.1689 30.9158 31.1721 30.951 31.1918 30.9757C31.2055 31.0032 31.2315 31.0247 31.2439 31.054C31.2836 31.1401 31.3206 31.2215 31.3545 31.3089C31.3714 31.335 31.365 31.3689 31.3773 31.3982C31.3819 31.4289 31.4001 31.4563 31.4047 31.4875C31.4001 31.5534 31.434 31.6087 31.4276 31.6747C31.4445 31.7992 31.4504 35.0128 31.4504 35.2357C31.4687 35.9419 31.4289 37.2148 31.4874 37.906C31.8306 44.1528 37.1502 49.0911 43.3845 48.9986C44.5771 48.983 50.292 48.9373 51.385 48.9235C51.7574 48.908 52.1745 48.8929 52.5469 48.8622C57.3589 48.4155 61.6033 44.7098 62.6643 39.9867C62.8941 39.0621 62.9787 38.1119 62.9832 37.1626V37.0642L62.98 36.866L62.2837 29.6104C62.2531 28.8767 62.8069 28.2487 63.538 28.1919C64.9375 28.0834 66.1763 28.5233 68.0954 27.834C69.0623 27.4866 70.0109 26.3666 70.1589 25.3486C70.6981 21.637 66.6264 19.4977 60.5921 19.4569C56.7196 19.4309 53.5663 22.5763 53.5056 26.4545C53.4416 30.5363 53.3708 35.0764 53.3397 37.0642V37.1626L53.3383 37.2134C53.3383 37.2226 53.337 37.224 53.3351 37.2304C53.3214 37.3439 53.3105 37.4579 53.2862 37.5668C53.2785 37.6391 53.2355 37.7018 53.2296 37.7773C53.1866 37.8405 53.1807 37.9142 53.1391 37.9737C52.7727 38.6923 52.0676 39.0411 51.2872 38.9962C50.3262 38.9839 44.4871 38.9349 43.385 38.9212L43.2886 38.9198C43.2639 38.9152 43.2365 38.9093 43.2118 38.9074C43.1428 38.9074 43.077 38.8983 43.0126 38.88C42.9806 38.8722 42.945 38.88 42.9162 38.863C42.1773 38.6831 41.6391 37.9741 41.656 37.2153C41.6573 36.9635 41.6637 35.5199 41.6637 35.2361C41.6363 33.3412 41.8401 30.6956 41.2913 28.8222C40.2258 24.4936 36.547 21.0246 32.1856 20.1664C26.2487 18.9658 20.3374 22.4714 18.5334 28.2633C18.2743 29.1522 18.0843 30.069 18.0367 30.9968C17.9709 32.0257 18.0367 34.6301 18.0322 35.697C18.0029 35.9932 18.0888 37.3677 18.0002 37.6304C17.8654 38.3907 17.1293 38.9802 16.3721 39.0154C16.3644 39.0168 16.3721 39.0187 16.3507 39.0187L16.3018 39.02H16.2022L15.8083 39.026C12.3827 39.0818 8.3772 39.1477 4.61208 39.2338C2.0487 39.2924 0.00210571 41.3919 0.00210571 43.9601L0.000274658 43.9587Z" fill="url(#paint0_linear_301_6214)"/>
<path id="Vector_2" d="M66.3859 23.1096L66.3412 24.4434C66.3485 24.9052 67.0311 24.8398 66.9503 24.3844L66.651 23.084C66.6176 22.933 66.3891 22.9563 66.3864 23.1096H66.3859Z" fill="#1E1207"/>
</g>
<g id="Group 12439">
<g id="Group 12437">
<path id="Vector_3" d="M111.001 43.9587C111.001 46.5274 108.953 48.626 106.39 48.6851C105.819 48.6983 105.249 48.7116 104.678 48.7263C102.289 48.7739 97.1116 48.8645 94.8 48.8997C93.9264 48.9057 93.0509 48.832 92.1955 48.6604C87.8789 47.8021 84.2719 44.3469 83.2246 40.0595C82.8444 38.7065 82.8444 37.0926 82.8458 35.6957L82.8229 32.5278L82.8216 32.1333C82.8138 32.0752 82.8261 31.8138 82.8156 31.7877C82.8046 31.7387 82.8019 31.6893 82.8046 31.639C82.78 31.5639 82.7864 31.4792 82.7539 31.4069C82.7448 31.3762 82.7402 31.3456 82.7338 31.3149C82.7183 31.2874 82.7046 31.2581 82.6954 31.2288C82.6863 31.1657 82.6374 31.1181 82.6187 31.0586C82.0484 30.0068 80.557 29.8932 79.8579 30.8943C79.8319 30.9158 79.8287 30.951 79.809 30.9757C79.7953 31.0032 79.7693 31.0247 79.7569 31.054C79.7172 31.1401 79.6802 31.2215 79.6463 31.3089C79.6294 31.335 79.6358 31.3689 79.6235 31.3982C79.6189 31.4289 79.6006 31.4563 79.5961 31.4875C79.6006 31.5534 79.5668 31.6087 79.5732 31.6747C79.5563 31.7992 79.5504 35.0128 79.5504 35.2357C79.5321 35.9419 79.5719 37.2148 79.5134 37.906C79.1702 44.1528 73.8506 49.0911 67.6163 48.9986C66.4237 48.983 60.7088 48.9373 59.6158 48.9235C59.2434 48.908 58.8263 48.8929 58.4539 48.8622C53.6419 48.4155 49.3975 44.7098 48.3365 39.9867C48.1066 39.0621 48.0221 38.1119 48.0175 37.1626V37.0642L48.0207 36.866L48.7171 29.6104C48.7477 28.8767 48.1939 28.2487 47.4628 28.1919C46.0633 28.0834 44.8245 28.5233 42.9054 27.834C41.9385 27.4866 40.9899 26.3666 40.8419 25.3486C40.3027 21.637 44.3744 19.4977 50.4087 19.4569C54.2812 19.4309 57.4344 22.5763 57.4952 26.4545C57.5592 30.5363 57.63 35.0764 57.6611 37.0642V37.1626L57.6625 37.2134C57.6625 37.2226 57.6638 37.224 57.6657 37.2304C57.6794 37.3439 57.6903 37.4579 57.7145 37.5668C57.7223 37.6391 57.7653 37.7018 57.7712 37.7773C57.8142 37.8405 57.8201 37.9142 57.8617 37.9737C58.2281 38.6923 58.9332 39.0411 59.7136 38.9962C60.6745 38.9839 66.5137 38.9349 67.6158 38.9212L67.7122 38.9198C67.7369 38.9152 67.7643 38.9093 67.789 38.9074C67.858 38.9074 67.9238 38.8983 67.9882 38.88C68.0202 38.8722 68.0558 38.88 68.0846 38.863C68.8235 38.6831 69.3617 37.9741 69.3448 37.2153C69.3435 36.9635 69.3371 35.5199 69.3371 35.2361C69.3645 33.3412 69.1607 30.6956 69.7095 28.8222C70.775 24.4936 74.4538 21.0246 78.8152 20.1664C84.7521 18.9658 90.6634 22.4714 92.4674 28.2633C92.7265 29.1522 92.9165 30.069 92.9641 30.9968C93.0299 32.0257 92.9641 34.6301 92.9686 35.697C92.9979 35.9932 92.912 37.3677 93.0006 37.6304C93.1354 38.3907 93.8715 38.9802 94.6287 39.0154C94.6364 39.0168 94.6287 39.0187 94.6501 39.0187L94.699 39.02H94.7986L95.1925 39.026C98.6181 39.0818 102.624 39.1477 106.389 39.2338C108.952 39.2924 110.999 41.3919 110.999 43.9601L111.001 43.9587Z" fill="url(#paint1_linear_301_6214)"/>
<path id="Vector_4" d="M44.6149 23.1096L44.6597 24.4434C44.6524 24.9052 43.9697 24.8398 44.0506 24.3844L44.3499 23.084C44.3832 22.933 44.6117 22.9563 44.6145 23.1096H44.6149Z" fill="#1E1207"/>
</g>
</g>
</g>
<defs>
<linearGradient id="paint0_linear_301_6214" x1="35.1035" y1="19.4568" x2="35.1035" y2="48.9999" gradientUnits="userSpaceOnUse">
<stop stop-color="#FFE0A6"/>
<stop offset="1" stop-color="#FFC24E"/>
</linearGradient>
<linearGradient id="paint1_linear_301_6214" x1="75.8973" y1="19.4568" x2="75.8973" y2="48.9999" gradientUnits="userSpaceOnUse">
<stop stop-color="#80C9FF"/>
<stop offset="1" stop-color="#2F5DAF"/>
</linearGradient>
</defs>
</svg>
