<?xml version="1.0" encoding="UTF-8" standalone="no"?>
<svg
   width="1440"
   height="129"
   viewBox="0 0 1440 129"
   fill="none"
   version="1.1"
   id="svg30"
   sodipodi:docname="internal-page-clouds-2.html"
   inkscape:version="1.1.2 (0a00cf5339, 2022-02-04)"
   xmlns:inkscape="http://www.inkscape.org/namespaces/inkscape"
   xmlns:sodipodi="http://sodipodi.sourceforge.net/DTD/sodipodi-0.dtd"
   xmlns="http://www.w3.org/2000/svg"
   xmlns:svg="http://www.w3.org/2000/svg">
  <sodipodi:namedview
     id="namedview32"
     pagecolor="#ffffff"
     bordercolor="#666666"
     borderopacity="1.0"
     inkscape:pageshadow="2"
     inkscape:pageopacity="0.0"
     inkscape:pagecheckerboard="0"
     showgrid="false"
     showguides="true"
     inkscape:guide-bbox="true"
     inkscape:zoom="16.008898"
     inkscape:cx="1438.2315"
     inkscape:cy="29.920861"
     inkscape:window-width="1920"
     inkscape:window-height="1163"
     inkscape:window-x="0"
     inkscape:window-y="0"
     inkscape:window-maximized="1"
     inkscape:current-layer="svg30">
    <sodipodi:guide
       position="0.010583797,95.589605"
       orientation="1,0"
       id="guide891" />
    <sodipodi:guide
       position="1440.0033,108.59482"
       orientation="1,0"
       id="guide893" />
    <sodipodi:guide
       position="0.44415258,97.163148"
       orientation="0,-1"
       id="guide975" />
  </sodipodi:namedview>
  <path
     d="m 1695.05,202.522 v 0 c 2.76,19.966 -14.29,38.997 -38.38,42.374 -16.62,2.32 -32.13,-3.489 -41.05,-13.915 l -0.29,-0.341 -0.37,0.254 c -6.01,4.107 -13.29,7.061 -21.38,8.19 -9.81,1.366 -19.22,-0.096 -27.12,-3.657 l -0.71,-0.317 v 0.773 554.922 H -39.971 v -476.158 -0.442 l -0.4386,-0.054 c -22.9635,-2.84 -44.1102,-13.78 -56.9326,-31.504 -13.5508,-18.749 -14.7878,-40.936 -5.7228,-60.118 l 0.281,-0.595 -0.649,-0.111 c -17.263,-2.965 -32.923,-11.578 -42.667,-25.045 -18.806,-25.998 -8.53,-60.271 23.175,-76.547 v 0 c 14.306,-7.347 30.5207,-9.708 45.7503,-7.728 l 1.0182,0.132 -0.5237,-0.883 c -15.0666,-25.4106 -4.3336,-57.067 25.755,-72.5109 l 2e-4,-1e-4 C -24.5838,25.7107 8.15889,28.9883 29.3069,45.4338 l 0.3505,0.2726 0.3121,-0.3158 C 34.6587,40.645 40.2946,36.4159 46.9261,33.0175 l 4e-4,-2e-4 c 31.7232,-16.2924 72.7295,-8.2713 91.5825,17.7965 4.515,6.2452 7.31,12.9747 8.585,19.801 l 0.093,0.4984 0.497,-0.1 c 27,-5.4317 55.536,0.8398 75.347,16.7896 l 0.591,0.4762 0.204,-0.7316 c 8.99,-32.2926 47.157,-53.552 86.367,-47.5436 7.214,1.1188 13.962,3.0749 20.122,5.7384 l 0.415,0.1794 0.22,-0.3947 C 345.792,18.921 380.826,2.77426 416.663,8.27223 l 0.076,-0.49421 -0.075,0.49422 C 445.086,12.6301 466.62,29.4748 474.948,50.732 l 0.147,0.3756 0.399,-0.0645 c 3.589,-0.5815 7.239,-0.9959 10.979,-1.1959 l -0.027,-0.4993 0.027,0.4993 c 44.515,-2.3983 82.443,24.0471 88.233,59.9128 l 0.066,0.409 0.415,0.011 c 9.99,0.252 20.03,2.327 29.409,6.407 l 10e-4,10e-4 c 1.045,0.452 2.039,0.961 3.047,1.477 0.244,0.126 0.49,0.251 0.737,0.377 l 0.439,0.222 0.229,-0.435 c 0.733,-1.388 1.515,-2.763 2.391,-4.117 l 10e-4,-10e-4 c 19.257,-29.9773 63.766,-41.7902 99.424,-26.2871 21.278,9.2624 34.52,26.1331 37.658,44.5701 l 0.096,0.563 0.545,-0.169 c 11.862,-3.676 24.951,-4.384 37.466,-1.617 l 0.275,0.061 0.194,-0.204 c 9.789,-10.253 23.557,-17.422 38.758,-20.234 l 0.387,-0.072 0.021,-0.393 c 0.204,-3.764 0.932,-7.597 2.225,-11.4134 9.089,-26.7837 42.42,-42.8759 74.517,-35.7798 l 0.108,-0.4882 -0.108,0.4883 c 3.804,0.8367 7.435,1.9678 10.827,3.3453 l 0.513,0.2083 0.155,-0.5313 c 0.088,-0.3 0.19,-0.6057 0.295,-0.9227 7.568,-22.2968 33.983,-36.2906 60.777,-32.9186 l 0.286,0.036 0.174,-0.2292 c 18.477,-24.27926 54.256,-37.06675 88.886,-29.41096 36.88,8.14086 60.17,36.71616 57.7,67.28656 l -0.04,0.5477 0.55,-0.0076 c 4.83,-0.0665 9.76,0.3661 14.64,1.4484 l 0.11,-0.4881 -0.11,0.4882 c 19.98,4.4089 34.03,17.7177 37.93,33.4371 l 0.29,1.17 0.62,-1.033 c 12.83,-21.2641 37.19,-37.4927 66.9,-41.6389 l -0.07,-0.4952 0.07,0.4952 c 30.18,-4.2463 58.52,5.0369 76.7,22.5149 l 0.74,0.7111 0.11,-1.0206 c 13.8262,-30.548432 30.704,-54.764823 76.7707,-58.234384 68.9904,-7.633682 67.8533,44.159679 96.0593,48.974584 v 0.0075 c 0.21,1.3362 0.28,2.6768 0.34,4.0237 0.02,0.2665 0.03,0.5332 0.04,0.8001 l 0.05,0.8292 0.71,-0.4274 c 5.4677,-36.819554 29.8235,-66.309231 73.4754,-47.969929 C 1614.192,52.665847 1584.73,101.171 1586.79,116.058 v 0.004 c 0.64,4.385 0.43,8.733 -0.48,12.92 l -0.24,1.109 0.98,-0.57 c 5.48,-3.186 11.8,-5.481 18.71,-6.463 6.59,-0.925 12.95,-0.578 18.85,0.815 15.68,3.718 27.65,14.894 29.68,29.413 0.86,6.184 -0.19,12.27 -2.73,17.84 l -0.33,0.735 0.8,-0.028 c 21.78,-0.764 40.41,12.244 43.02,30.689 z"
     fill="url(#paint0_linear_301_6193)"
     stroke="url(#paint1_linear_301_6193)"
     id="path2"
     sodipodi:nodetypes="ssccccccccccccccccccsscccsscccsscccsccccscccccccccccscccccccccccccsccccccccccscccscccccscccccccccsccccccccccccccscccccss" />
  <defs
     id="defs28">
    <linearGradient
       id="paint0_linear_301_6193"
       x1="769.926"
       y1="802.441"
       x2="769.926"
       y2="21.4607"
       gradientUnits="userSpaceOnUse">
      <stop
         stop-color="white"
         id="stop4" />
      <stop
         offset="0.1"
         stop-color="white"
         stop-opacity="0.02"
         id="stop6" />
      <stop
         offset="0.22"
         stop-color="white"
         stop-opacity="0.08"
         id="stop8" />
      <stop
         offset="0.36"
         stop-color="white"
         id="stop10" />
      <stop
         offset="0.51"
         stop-color="white"
         stop-opacity="0.32"
         id="stop12" />
      <stop
         offset="0.66"
         stop-color="white"
         stop-opacity="0.49"
         id="stop14" />
      <stop
         offset="0.82"
         stop-color="white"
         stop-opacity="0.71"
         id="stop16" />
      <stop
         offset="0.98"
         stop-color="white"
         stop-opacity="0.96"
         id="stop18" />
      <stop
         offset="1"
         stop-color="white"
         id="stop20" />
    </linearGradient>
    <linearGradient
       id="paint1_linear_301_6193"
       x1="769.923"
       y1="0"
       x2="769.923"
       y2="75"
       gradientUnits="userSpaceOnUse">
      <stop
         stop-color="#E7E7E7"
         id="stop23" />
      <stop
         offset="1"
         stop-color="#CDCDCD"
         stop-opacity="0"
         id="stop25" />
    </linearGradient>
  </defs>
</svg>
