<?xml version="1.0" encoding="UTF-8" standalone="no"?>
<svg
   width="20.57143"
   height="21.714275"
   viewBox="0 0 20.57143 21.714275"
   fill="none"
   version="1.1"
   id="svg11"
   sodipodi:docname="mastadon.svg"
   inkscape:version="1.1.2 (0a00cf5339, 2022-02-04)"
   xmlns:inkscape="http://www.inkscape.org/namespaces/inkscape"
   xmlns:sodipodi="http://sodipodi.sourceforge.net/DTD/sodipodi-0.dtd"
   xmlns="http://www.w3.org/2000/svg"
   xmlns:svg="http://www.w3.org/2000/svg">
  <sodipodi:namedview
     id="namedview13"
     pagecolor="#ffffff"
     bordercolor="#666666"
     borderopacity="1.0"
     inkscape:pageshadow="2"
     inkscape:pageopacity="0.0"
     inkscape:pagecheckerboard="0"
     showgrid="false"
     fit-margin-top="0"
     fit-margin-left="0"
     fit-margin-right="0"
     fit-margin-bottom="0"
     inkscape:zoom="14.5"
     inkscape:cx="16.724138"
     inkscape:cy="10.275862"
     inkscape:window-width="1366"
     inkscape:window-height="699"
     inkscape:window-x="0"
     inkscape:window-y="0"
     inkscape:window-maximized="1"
     inkscape:current-layer="svg11" />
  <g
     id="mastadon"
     transform="translate(-5.71436,-5.7142914)">
    <g
       clip-path="url(#clip0_280_592)"
       id="g3">
      <path
         id="Vector"
         d="m 20.351,22.2512 c 2.7471,-0.3253 5.1536,-1.9952 5.4943,-3.5242 0.3071,-1.9442 0.4541,-3.9097 0.4395,-5.8774 C 26.2079,8.14341 23.0762,6.80962 23.0762,6.80962 20.7922,6.0122 18.3769,5.64439 15.9556,5.72523 13.5343,5.64439 11.1191,6.0122 8.83508,6.80962 c 0,0 -3.12072,1.33379 -3.12072,6.03998 v 3.7303 c 0.10988,4.5978 0.8571,9.1305 5.16454,10.2583 1.6508,0.4556 3.3643,0.6496 5.0767,0.5747 1.3429,-0.0351 2.6652,-0.3337 3.8899,-0.8783 l -0.0769,-1.7784 c -1.238,0.3551 -2.5241,0.5197 -3.813,0.4879 -1.9779,-0.065 -4.0767,-0.206 -4.3954,-2.6025 -0.0171,-0.2274 -0.0171,-0.4557 0,-0.6831 1.4446,0.3237 2.9156,0.5196 4.3954,0.5855 1.4709,0.0256 2.9413,-0.0723 4.3954,-0.2928 z M 13.1645,11.6243 c -0.9889,0 -1.4834,0.5856 -1.4834,1.7567 v 5.5303 H 9.36253 v -5.7038 c -0.05447,-1.0031 0.26618,-1.9909 0.90107,-2.776 0.3014,-0.3488 0.6776,-0.62704 1.1014,-0.81459 0.4239,-0.18755 0.8846,-0.27972 1.349,-0.26983 0.5198,-0.02754 1.0378,0.08139 1.501,0.31569 0.4633,0.2343 0.8554,0.58563 1.1363,1.01813 l 0.5714,0.9434 0.5714,-0.9434 c 0.2809,-0.4325 0.6729,-0.78383 1.1362,-1.01813 0.4632,-0.2343 0.9812,-0.34323 1.501,-0.31569 0.4644,-0.00989 0.9252,0.08228 1.349,0.26983 0.4238,0.18755 0.8,0.46579 1.1014,0.81459 0.6586,0.7758 1.003,1.7646 0.967,2.776 v 5.7038 H 20.2301 V 13.381 c 0,-1.1711 -0.4944,-1.7567 -1.4834,-1.7567 -1.0989,0 -1.6593,0.694 -1.6593,2.082 v 3.0254 h -2.2306 v -3.0254 c 0,-1.388 -0.5934,-2.082 -1.6923,-2.082 z"
         fill="#432c16" />
    </g>
  </g>
  <defs
     id="defs9">
    <clipPath
       id="clip0_280_592">
      <rect
         width="32"
         height="32"
         rx="6.8571401"
         fill="#ffffff"
         id="rect6"
         x="0"
         y="0" />
    </clipPath>
  </defs>
</svg>
