<svg width="270" height="42" viewBox="0 0 270 42" fill="none" xmlns="http://www.w3.org/2000/svg">
<g clip-path="url(#clip0_301_3817)">
<path fill-rule="evenodd" clip-rule="evenodd" d="M165.44 22.9806H148.875L141.072 38.9074C141.007 39.0398 140.847 39.0959 140.714 39.0307C140.619 38.9838 140.564 38.8891 140.563 38.7903H140.562V22.7117C140.562 22.563 140.683 22.4428 140.831 22.4428H148.074L140.541 14.6607C140.495 14.6149 140.465 14.5527 140.462 14.4835L139.954 4.52642C139.942 4.41436 140.001 4.30231 140.107 4.25239C140.242 4.19025 140.402 4.24831 140.465 4.38278L148.879 22.4428H165.439C165.588 22.4428 165.708 22.563 165.708 22.7117C165.708 22.8604 165.588 22.9806 165.439 22.9806H165.44ZM140.56 5.85789L140.994 14.3541L147.791 21.3762L140.56 5.85688V5.85789ZM141.102 22.9806V29.7093L148.046 22.9806H141.102ZM141.102 37.632L147.793 23.9729L141.102 30.4561V37.6309V37.632Z" fill="#333333"/>
<path fill-rule="evenodd" clip-rule="evenodd" d="M140.222 4.49582C140.426 15.9269 140.629 27.3581 140.832 38.7902C91.6502 24.6452 35.1485 55.48 0 32.9896C10.3921 32.3315 17.9442 28.8311 23.9969 23.8312C16.1333 19.2561 8.26974 11.7176 0.406158 2.25768C52.5023 24.3742 94.023 -10.4968 140.221 4.49684L140.222 4.49582Z" fill="white"/>
<path fill-rule="evenodd" clip-rule="evenodd" d="M250.676 10.219C248.591 6.79305 242.482 3.72566 237.559 3.29882C231.98 2.81492 224.661 4.94406 221.34 7.67425C231.118 8.52183 240.898 9.37043 250.676 10.218V10.219Z" fill="#206898"/>
<path fill-rule="evenodd" clip-rule="evenodd" d="M269.182 18.5125C269.956 19.3224 270.456 21.5401 269.385 21.8702C259.786 24.8286 249.837 27.355 239.795 27.569C219.424 28.004 199.132 24.8693 178.784 23.8038C176.448 23.6815 174.104 24.145 171.768 24.0075C169.442 23.87 167.102 23.5929 164.853 22.9796C163.993 22.7453 163.055 22.2899 162.615 21.5137C160.15 17.1596 158.472 10.6744 157.836 5.68979C157.787 5.30573 157.913 4.6894 158.294 4.62115C159.631 4.38073 161.047 4.53252 162.362 4.87583C164.788 5.50846 173.448 15.8811 177.818 17.291C179.197 17.7362 180.709 17.9777 182.14 17.7484C188.616 16.7124 195.03 15.2495 201.358 13.5258C207.621 11.8195 213.574 9.06687 219.864 7.47052C222.185 6.8817 224.644 6.85929 227.034 7.01209C234.956 7.52146 242.961 7.79957 250.726 9.45398C254.868 10.3362 258.568 12.6762 262.37 14.5425C264.728 15.6998 267.364 16.6136 269.182 18.5115V18.5125Z" fill="url(#paint0_linear_301_3817)"/>
<path fill-rule="evenodd" clip-rule="evenodd" d="M252.669 9.97858C256.046 11.0696 259.171 12.9736 262.37 14.5435C264.728 15.7008 267.364 16.6146 269.182 18.5124C269.956 19.3223 270.456 21.5401 269.385 21.8702C262.609 23.9586 255.659 25.831 248.625 26.8283L252.669 9.97858Z" fill="url(#paint1_linear_301_3817)"/>
<path fill-rule="evenodd" clip-rule="evenodd" d="M196.6 14.7666C197.047 15.3401 197.506 15.9024 198.054 16.3751C198.387 16.6624 198.886 16.7246 199.325 16.7317C204.146 16.802 208.974 16.3578 213.79 16.6043C214.66 16.6492 215.55 17.0241 216.205 17.5966C219.731 20.6803 222.955 24.093 226.28 27.3947C210.44 26.7183 194.63 24.6339 178.785 23.8047C176.449 23.6825 174.105 24.146 171.769 24.0084C169.443 23.8709 167.103 23.5938 164.854 22.9805H165.439C165.588 22.9805 165.708 22.8603 165.708 22.7116C165.708 22.5629 165.588 22.4427 165.439 22.4427H163.563C163.172 22.2033 162.833 21.8987 162.616 21.5156C160.151 17.1616 158.473 10.6764 157.837 5.69174C157.788 5.30768 157.914 4.69136 158.295 4.6231C159.632 4.38268 161.048 4.53447 162.363 4.87778C164.789 5.51041 173.449 15.8831 177.819 17.293C179.198 17.7382 180.71 17.9796 182.141 17.7504C186.999 16.9731 191.822 15.9554 196.6 14.7676V14.7666Z" fill="url(#paint2_linear_301_3817)"/>
<path fill-rule="evenodd" clip-rule="evenodd" d="M162.058 8.89573C164.179 13.7571 166.066 18.7173 168.048 23.6377C166.971 23.4778 165.902 23.2659 164.855 22.9796C164.42 22.8614 163.964 22.6862 163.564 22.4407C163.173 22.2013 162.834 21.8967 162.617 21.5137C160.484 17.7454 158.94 12.3808 158.15 7.77411C159.206 7.88922 160.27 7.96869 161.296 8.23356C161.622 8.31709 161.924 8.58603 162.058 8.89471V8.89573Z" fill="url(#paint3_linear_301_3817)"/>
<path fill-rule="evenodd" clip-rule="evenodd" d="M170.006 15.8281L158.128 15.2862C157.723 15.2678 156.161 15.5307 156.161 15.9341C156.161 16.3375 157.725 16.743 158.128 16.7613L170.006 17.3033C170.409 17.3216 171.973 17.0608 171.973 16.6553C171.973 16.2489 170.411 15.8465 170.006 15.8281Z" fill="#9ADBEC"/>
<path fill-rule="evenodd" clip-rule="evenodd" d="M242.486 17.9766C242.945 15.93 243.864 13.9017 243.864 11.8357C243.864 11.2011 243.527 10.0193 242.486 10.1202C241.295 10.2363 241.016 11.3855 241.016 12.1118C241.016 14.0881 241.996 16.0217 242.486 17.9756V17.9766Z" fill="#FF88A1"/>
<path fill-rule="evenodd" clip-rule="evenodd" d="M242.486 19.1481C242.945 21.1948 243.864 23.223 243.864 25.289C243.864 25.9237 243.527 27.1054 242.486 27.0035C241.295 26.8874 241.016 25.7383 241.016 25.0119C241.016 23.0356 241.996 21.1031 242.486 19.1481Z" fill="#FF88A1"/>
<path fill-rule="evenodd" clip-rule="evenodd" d="M240.878 16.4322C241.954 15.7344 244.31 17.0343 244.233 18.3148C244.146 19.7472 241.873 21.3568 240.623 20.6559C239.395 19.9662 239.695 17.1993 240.878 16.4322Z" fill="#FF577F"/>
<path fill-rule="evenodd" clip-rule="evenodd" d="M229.353 16.3742C228.802 16.8 227.886 19.5679 229.124 20.4134C231.805 22.2461 234.076 23.5643 237.305 23.9056C239.018 24.0869 240.841 22.784 241.801 21.3517C242.662 20.066 242.346 18.2507 242.117 16.7205C241.985 15.8322 241.557 14.8094 240.762 14.3907C239.472 13.7112 237.884 13.5319 236.441 13.7296C233.461 14.136 231.758 14.515 229.353 16.3742Z" fill="#206898"/>
<path opacity="0.6" fill-rule="evenodd" clip-rule="evenodd" d="M238.737 20.5764L238.846 23.707C240.032 23.2964 241.128 22.3572 241.801 21.3527C241.946 21.1367 242.058 20.9055 242.142 20.663C242.252 20.3472 242.315 20.012 242.346 19.6667C242.362 19.4752 242.369 19.2796 242.368 19.083C242.368 19.083 241.636 19.7156 240.165 20.2087C239.749 20.3482 239.273 20.4766 238.738 20.5764H238.737ZM229.124 20.4144C231.805 22.2471 234.076 23.5654 237.305 23.9066C237.428 23.9199 237.551 23.925 237.675 23.9229L237.538 20.7374C235.307 20.9238 232.299 20.5785 228.507 18.8731C228.498 19.5078 228.658 20.0966 229.124 20.4144Z" fill="black"/>
<path fill-rule="evenodd" clip-rule="evenodd" d="M238.498 13.7112L238.845 23.7069C238.461 23.8404 238.067 23.9178 237.675 23.9229L237.233 13.6612C237.653 13.6449 238.078 13.6612 238.498 13.7112Z" fill="#FF577F"/>
<path fill-rule="evenodd" clip-rule="evenodd" d="M165.227 16.5484L170.008 16.7664C170.318 16.7807 171.308 16.6309 171.754 16.3773C171.888 16.4669 171.973 16.5606 171.973 16.6554C171.973 17.0608 170.409 17.3216 170.006 17.3033L165.445 17.0955L160.527 16.8713L158.128 16.7613C157.725 16.743 156.161 16.3375 156.161 15.9341C156.161 15.8394 156.247 15.7528 156.384 15.6754C156.83 15.9687 157.821 16.2112 158.131 16.2255L160.334 16.3263L165.228 16.5494L165.227 16.5484Z" fill="#5393C9"/>
<path fill-rule="evenodd" clip-rule="evenodd" d="M237.675 23.9229L237.537 20.7374C237.966 20.7017 238.366 20.6457 238.736 20.5764L238.845 23.707C238.46 23.8404 238.066 23.9178 237.675 23.9229Z" fill="#81005A"/>
<path fill-rule="evenodd" clip-rule="evenodd" d="M247.703 8.13674C241.394 3.38642 233.75 4.22483 225.943 5.74477C233.534 5.22319 241.101 4.78819 247.703 8.13674Z" fill="#9ADBEC"/>
<path fill-rule="evenodd" clip-rule="evenodd" d="M240.276 23.49C240.478 23.5511 240.8 23.9229 240.696 24.2021C240.486 24.7664 240.045 25.1627 239.632 25.2198C228.735 26.7142 221.971 26.5074 211.075 24.9142C210.837 24.8795 210.41 24.091 210.644 24.0095C217.347 21.6756 224.832 20.8668 231.672 21.4546C234.568 21.7031 237.429 22.623 240.277 23.49H240.276Z" fill="#9ADBEC"/>
<path fill-rule="evenodd" clip-rule="evenodd" d="M213.442 25.2004C212.764 25.1372 212.118 25.0639 211.515 24.9783C212.24 25.0832 212.948 25.181 213.639 25.2727C221.341 26.2965 227.1 26.5288 234.389 25.8361C236.044 25.6792 237.779 25.4734 239.632 25.2197C239.858 25.1892 240.092 25.0557 240.293 24.8489C240.293 24.8489 238.787 24.962 236.412 25.0965C230.814 25.4133 220.382 25.8483 213.442 25.2004Z" fill="#5393C9"/>
<path d="M40.9072 19.9951C43.315 20.1704 44.6553 21.4915 44.5092 23.5024C44.3611 25.5398 42.8458 26.6265 40.438 26.4512L38.4006 26.3029L38.1391 29.9014L35.89 29.7377L36.6208 19.6831L40.9072 19.9951ZM40.3041 24.6327C41.4683 24.7175 42.138 24.2874 42.2034 23.3878C42.2707 22.4617 41.6683 21.9657 40.5041 21.8809L38.7313 21.7519L38.5314 24.5037L40.3041 24.6327Z" fill="#333333"/>
<path d="M48.8102 21.3391L48.7617 19.5358L51.0424 19.4744L51.0909 21.2778L48.8102 21.3391ZM49.1305 30.3007L48.9168 22.3448L51.0384 22.2877L51.2521 30.2436L49.1305 30.3007Z" fill="#333333"/>
<path d="M60.1813 23.4153L57.9084 23.6132L58.2092 27.0754C58.2689 27.7626 58.6596 27.9683 59.2939 27.9131C59.7961 27.8694 60.1373 27.8131 60.551 27.6705L60.7141 29.547C60.1464 29.7562 59.5696 29.8597 58.9881 29.9103C57.3231 30.0552 56.2763 29.3474 56.1385 27.7616L55.794 23.7972L54.2082 23.9352L54.0567 22.1908L55.6424 22.0528L55.6701 19.92L57.573 19.7544L57.7568 21.8688L60.0297 21.671L60.1813 23.4153Z" fill="#333333"/>
<path d="M68.2672 22.3861L66.0064 22.6928L66.4728 26.1367C66.5654 26.8202 66.9655 27.0069 67.5964 26.9213C68.0959 26.8536 68.4341 26.7809 68.8405 26.6187L69.0933 28.4852C68.5363 28.7214 67.9651 28.8525 67.3868 28.9309C65.7306 29.1556 64.6511 28.4989 64.4374 26.9215L63.9033 22.9782L62.326 23.1921L62.0909 21.457L63.6682 21.2431L63.5937 19.1114L65.4864 18.8546L65.7713 20.9577L68.0321 20.651L68.2672 22.3861Z" fill="#333333"/>
<path d="M74.7226 27.7773C73.3096 28.0132 71.9271 27.7867 70.9676 27.1938L71.7918 25.5231C72.4853 25.9722 73.436 26.19 74.5089 26.0109C75.2154 25.893 75.7867 25.6093 75.7169 25.1907C75.6602 24.8505 75.3418 24.7153 73.955 24.6241C71.8049 24.472 70.7887 23.8616 70.5794 22.6055C70.3351 21.1401 71.4603 19.984 73.4752 19.6477C74.6527 19.4511 75.7299 19.6209 76.8028 20.0873L75.9829 21.7842C75.1891 21.3788 74.4695 21.2568 73.5799 21.4054C72.8995 21.5189 72.4896 21.8025 72.555 22.1951C72.6161 22.5614 72.9606 22.6922 74.1294 22.766C76.5237 22.9312 77.5006 23.4674 77.7187 24.7758C77.976 26.3197 76.8945 27.4148 74.7226 27.7773Z" fill="#333333"/>
<path d="M84.0167 17.8056C86.0539 17.4425 87.6433 18.8029 88.0803 21.2581C88.5127 23.6871 87.4428 25.5486 85.4579 25.9024C84.387 26.0933 83.42 25.8076 82.7106 25.1526L82.7967 26.2421L80.9163 26.5773L79.0567 16.1298L81.1461 15.7573L81.783 19.3356C82.2582 18.5233 83.0242 17.9825 84.0167 17.8056ZM84.4981 24.295C85.6734 24.0855 86.2205 23.0717 85.9648 21.6352C85.7091 20.1987 84.8459 19.4363 83.6706 19.6459C82.4953 19.8554 81.9743 20.8645 82.23 22.301C82.4857 23.7375 83.3228 24.5045 84.4981 24.295Z" fill="#333333"/>
<path d="M95.5622 15.9866L97.6589 15.6576L98.8906 23.5205L97.0036 23.8166L96.7525 22.7281C96.2688 23.5828 95.3992 24.2026 94.3246 24.3712C92.6473 24.6343 91.3052 23.6096 91.0219 21.8012L90.2418 16.8213L92.3385 16.4924L93.0447 21.0004C93.2212 22.1274 93.844 22.6742 94.7351 22.5344C95.731 22.3782 96.4285 21.5168 96.2643 20.4684L95.5622 15.9866Z" fill="#333333"/>
<path d="M105.658 14.5746C105.896 14.5483 106.136 14.5484 106.379 14.5749L106.568 16.5291C106.114 16.526 105.663 16.5492 105.294 16.5901C104.134 16.7184 103.43 17.3568 103.564 18.5698L104.039 22.8679L101.93 23.1013L101.056 15.1907L102.954 14.9806L103.191 16.1555C103.631 15.3061 104.525 14.7 105.658 14.5746Z" fill="#333333"/>
<path d="M113.558 14.1657L115.466 14.0849L115.757 20.9764C115.856 23.3089 114.435 24.8825 111.785 24.9946C110.247 25.0597 109.118 24.7357 108.348 24.1044L109.239 22.5532C109.924 23.0553 110.677 23.289 111.658 23.2475C113.195 23.1825 113.796 22.3339 113.745 21.1146L113.721 20.558C113.142 21.2994 112.285 21.7605 111.225 21.8054C109.158 21.8928 107.741 20.4127 107.644 18.1067C107.546 15.8007 108.861 14.2316 110.902 14.1452C111.988 14.0993 112.881 14.4864 113.521 15.1762L113.558 14.1657ZM111.793 20.1616C112.986 20.1112 113.64 19.2604 113.583 17.9086C113.527 16.5833 112.804 15.8173 111.612 15.8677C110.445 15.917 109.738 16.7701 109.793 18.0689C109.85 19.4207 110.627 20.211 111.793 20.1616Z" fill="#333333"/>
<path d="M123.101 14.2329C124.794 14.3559 125.87 15.6576 125.738 17.4833L125.373 22.5107L123.256 22.357L123.586 17.8059C123.669 16.6681 123.159 15.9927 122.286 15.9293C121.281 15.8563 120.407 16.5376 120.33 17.596L120.002 22.1206L117.885 21.9669L118.652 11.383L120.769 11.5367L120.508 15.1352C121.138 14.516 122.069 14.158 123.101 14.2329Z" fill="#333333"/>
</g>
<defs>
<linearGradient id="paint0_linear_301_3817" x1="213.914" y1="27.6107" x2="213.914" y2="4.50501" gradientUnits="userSpaceOnUse">
<stop stop-color="#5393C9"/>
<stop offset="1" stop-color="#9ADBEC"/>
</linearGradient>
<linearGradient id="paint1_linear_301_3817" x1="259.313" y1="26.8283" x2="259.313" y2="9.97858" gradientUnits="userSpaceOnUse">
<stop stop-color="#FF577F"/>
<stop offset="1" stop-color="#FF88A1"/>
</linearGradient>
<linearGradient id="paint2_linear_301_3817" x1="192.053" y1="25.9471" x2="192.053" y2="13.4045" gradientUnits="userSpaceOnUse">
<stop stop-color="#FF577F"/>
<stop offset="1" stop-color="#FF88A1"/>
</linearGradient>
<linearGradient id="paint3_linear_301_3817" x1="163.1" y1="23.6387" x2="163.1" y2="7.77513" gradientUnits="userSpaceOnUse">
<stop stop-color="#5393C9"/>
<stop offset="1" stop-color="#9ADBEC"/>
</linearGradient>
<clipPath id="clip0_301_3817">
<rect width="270" height="40.8831" fill="white" transform="translate(0 0.617676)"/>
</clipPath>
</defs>
</svg>
