<svg width="304" height="49" viewBox="0 0 304 49" fill="none" xmlns="http://www.w3.org/2000/svg">
<g clip-path="url(#clip0_400_1443)">
<g clip-path="url(#clip1_400_1443)">
<path d="M235.601 28.0876C235.826 27.1443 235.901 26.2009 235.826 25.3302C235.751 24.4594 235.525 23.5886 235.225 22.863C234.849 22.1373 234.397 21.4843 233.796 20.9763C233.194 20.4684 232.517 20.1056 231.765 19.8879C232.517 20.1056 233.269 20.1056 234.021 19.8879C234.773 19.7427 235.45 19.3799 236.202 18.872C236.879 18.364 237.481 17.7109 238.007 16.9853C238.459 16.2597 238.835 15.4615 239.135 14.4456C238.609 16.4774 238.759 18.2189 239.511 19.6702C240.18 21.2477 241.29 22.1876 242.913 22.5596C242.932 22.5639 242.952 22.5683 242.971 22.5727C242.951 22.5684 242.932 22.5641 242.913 22.5596C241.355 22.219 239.87 22.5862 238.459 23.6612C237.706 24.1691 237.105 24.8222 236.654 25.5479C236.202 26.3461 235.826 27.2168 235.601 28.0876Z" fill="#1E1207"/>
<path d="M12.0317 24.45C11.9796 24.8149 11.9274 25.1798 11.9274 25.4926C11.9274 25.8054 11.9274 26.1182 11.9274 26.431C11.9274 25.8054 11.9796 25.1798 12.0838 24.5021L12.0317 24.45ZM31.5812 0.364923C33.9272 0.364923 35.5954 0.99051 36.6381 2.18955C37.6807 3.44072 38.202 4.95255 38.202 6.77717C38.202 8.13261 37.9414 9.54017 37.5243 11.052C37.0551 12.616 36.4295 14.1278 35.6476 15.6396C34.8656 17.1515 33.9272 18.6112 32.8324 19.9666C31.7376 21.3742 30.5386 22.6253 29.2874 23.668C27.9841 24.7627 26.6287 25.649 25.2211 26.2746C23.8136 26.9002 22.406 27.213 20.9463 27.213C19.2781 27.213 17.9226 26.9523 16.9321 26.431C15.8895 25.9097 15.1596 25.2319 14.6904 24.45C14.2213 23.668 14.0127 22.7817 14.0127 21.8433C14.0127 20.905 14.1691 20.0709 14.4819 19.2889C14.7947 18.5069 15.2118 17.8292 15.7852 17.3079C16.3065 16.7865 16.9321 16.4737 17.6098 16.4737C17.9226 17.4643 18.3397 18.3505 18.861 19.0803C19.2781 19.7581 19.8515 20.3836 20.5814 20.905C21.3112 21.4263 22.1975 21.687 23.3444 21.687C24.8041 21.687 26.2638 21.2699 27.6713 20.3837C29.0789 19.5495 30.3301 18.4548 31.4248 17.1515C32.5196 15.9003 33.4059 14.4927 34.0315 12.9809C34.657 11.4691 35.022 10.0615 35.022 8.81032C35.022 7.61128 34.657 6.62078 33.9793 5.78666C33.2495 5.00468 32.1026 4.58763 30.4343 4.58763C29.0268 4.58763 27.6192 4.90042 26.2116 5.526C24.7519 6.15159 23.3965 6.9857 22.0932 8.02834C20.7899 9.07098 19.5909 10.27 18.444 11.6255C17.2971 12.9809 16.2544 14.4406 15.3682 15.9003C14.4819 17.36 13.7521 18.8718 13.1786 20.3315C12.6052 21.8433 12.2402 23.2509 12.0838 24.5021L11.9274 26.431C11.9274 28.2556 12.0317 29.8196 12.2924 31.1229C12.553 32.4262 12.8658 33.5209 13.2307 34.3551C13.5435 35.3977 13.9606 36.2318 14.4819 36.8574H0.40625C2.70006 33.6252 4.78535 30.2888 6.6621 26.848C7.44408 25.3883 8.22606 23.8765 8.95591 22.2083C9.68576 20.5922 10.3635 18.924 10.9369 17.2036C11.5104 15.5354 11.9796 13.815 12.3445 12.0946C12.7094 10.4264 12.918 8.75819 12.918 7.1421C12.918 4.95255 12.8658 3.23219 12.7616 2.08528C12.7094 1.4597 12.6573 0.886244 12.6052 0.364923H20.9463C20.1122 1.72036 19.3302 3.12793 18.5482 4.69189C17.8184 6.04732 17.0885 7.61128 16.3065 9.38378C15.5246 11.1563 14.7947 13.033 14.117 15.014C14.7426 13.6586 15.6288 12.1468 16.6715 10.4264C17.7141 8.75819 18.9131 7.1421 20.3728 5.63027C21.8325 4.17057 23.4486 2.9194 25.3254 1.87676C27.2022 0.886243 29.2874 0.364923 31.5812 0.364923Z" fill="#1E1207"/>
<path d="M59.5064 15.225C59.7403 14.3675 59.9742 13.6269 60.1301 12.9253C60.286 12.2238 60.4419 11.6391 60.5978 11.1324C60.7537 10.5867 60.8707 10.041 60.9876 9.5733H66.7562C65.7818 10.5477 64.8853 11.834 64.0668 13.471C63.2483 15.1081 62.4687 16.901 61.6892 18.9279C60.9096 20.9547 60.1301 23.1374 59.3505 25.3981C58.571 27.6588 57.7135 29.9194 56.817 32.1411C55.9205 34.4018 54.9461 36.5456 53.9327 38.5724C52.9193 40.5992 51.7889 42.3922 50.5417 43.9513C49.2944 45.5103 47.8912 46.7186 46.3321 47.6541C44.773 48.5896 43.058 49.0183 41.1871 49.0183C39.667 49.0183 38.4197 48.7844 37.4843 48.2777C36.5099 47.771 35.7693 47.1474 35.3016 46.3679C34.7949 45.6273 34.522 44.8088 34.4441 43.9123C34.3661 43.0158 34.483 42.1973 34.7949 41.4177C35.1067 40.6772 35.5744 40.0535 36.198 39.5468C36.8217 39.0401 37.5622 38.7673 38.4587 38.7673C38.4977 39.4689 38.6536 40.0925 38.9654 40.6382C39.1993 41.1059 39.5891 41.4957 40.1347 41.8855C40.6804 42.2752 41.421 42.4701 42.4344 42.4701C43.9155 42.4701 45.3187 41.9634 46.6439 40.911C47.9692 39.8586 49.2554 38.4944 50.4247 36.7794C51.5941 35.0644 52.7244 33.1546 53.7378 31.0108C54.7512 28.8671 55.6477 26.6843 56.4662 24.5016C55.8426 25.515 55.102 26.5284 54.3225 27.5418C53.5039 28.5552 52.6075 29.4907 51.672 30.3092C50.7366 31.1277 49.7231 31.7903 48.6318 32.2971C47.5404 32.8427 46.4101 33.0766 45.2408 33.0766C43.2529 33.0766 41.7718 32.6479 40.7974 31.7514C39.8229 30.8549 39.3552 29.5686 39.3552 27.8536C39.3552 26.9961 39.4721 26.0997 39.706 25.0863C39.9399 24.1118 40.2907 23.0984 40.6804 22.085C41.0702 21.0716 41.4989 20.0582 42.0057 19.0448C42.5124 18.0314 43.0191 17.0569 43.5647 16.1215C44.812 13.9388 46.2152 11.756 47.7743 9.5733H53.7768C51.0874 13.0423 48.9826 16.1215 47.5014 18.8499C46.8388 20.0192 46.2932 21.1885 45.8644 22.2799C45.3967 23.3713 45.1628 24.3847 45.0849 25.2422C45.0069 26.0997 45.2018 26.8013 45.6695 27.3469C46.0983 27.8926 46.8778 28.1265 48.0082 28.1265C48.9826 28.1265 49.918 27.8536 50.8535 27.308C51.7889 26.7623 52.6465 26.0997 53.465 25.2422C54.2835 24.4236 55.0241 23.4882 55.7257 22.4748C56.4272 21.4614 57.0119 20.448 57.5576 19.5125C58.0643 18.5771 58.493 17.6806 58.8438 16.901C59.1557 16.1215 59.3895 15.5758 59.5064 15.225Z" fill="#1E1207"/>
<path d="M75.8319 36.8574C73.121 36.8574 71.0879 36.1797 69.8367 34.72C68.5855 33.3124 67.9599 31.3835 67.9599 28.9854C67.9599 27.2651 68.2206 25.3883 68.8462 23.303C69.4196 21.2178 70.2016 19.1325 71.2443 16.9951C72.2348 14.9098 73.4338 12.8245 74.7892 10.8435C76.1447 8.86246 77.6044 7.08996 79.1683 5.526C80.7323 3.96204 82.3484 2.71087 84.0166 1.77249C85.6849 0.834112 87.3009 0.364923 88.9692 0.364923C90.3246 0.364923 91.4715 0.677718 92.462 1.3033C93.4004 1.92889 94.2345 2.65874 94.8601 3.54498C95.4857 4.43123 95.9027 5.36961 96.2155 6.30798C96.5283 7.29849 96.6847 8.18474 96.6847 8.91459C96.6847 10.0615 96.3719 11.3127 95.7464 12.6681C95.1208 14.0235 94.2867 15.2226 93.3483 16.3695C92.3578 17.5164 91.263 18.5069 90.1161 19.2367C88.917 20.0187 87.7701 20.3837 86.7275 20.3837C87.0403 20.2794 87.4052 19.9145 87.8223 19.2889C88.2393 18.6633 88.6564 17.8292 89.1256 16.8908C89.5948 15.9524 90.064 14.8576 90.481 13.7107C90.8981 12.5638 91.3151 11.4691 91.6801 10.3743C92.045 9.27951 92.3578 8.289 92.5663 7.35063C92.7748 6.41225 92.8791 5.73453 92.8791 5.21321C92.8791 4.84829 92.7227 4.43123 92.5142 3.96204C92.2535 3.49285 91.6801 3.23219 90.7938 3.23219C89.5426 3.23219 88.1872 3.80564 86.8318 4.90042C85.4242 5.99519 84.0166 7.40276 82.6612 9.12312C81.3058 10.8956 80.0025 12.8245 78.7513 15.014C77.5001 17.2036 76.3532 19.341 75.4148 21.4784C74.4765 23.668 73.6945 25.7011 73.121 27.5779C72.5476 29.5068 72.2869 31.0707 72.2869 32.3219C72.2869 32.739 72.2869 33.1039 72.3912 33.5209C72.4433 33.938 72.5997 34.3551 72.8604 34.6678C73.0689 34.9806 73.4338 35.2413 73.8509 35.4498C74.2679 35.6584 74.7892 35.7626 75.5191 35.7626C76.7703 35.7626 78.1257 35.4498 79.5854 34.72C80.993 33.9901 82.4005 33.1039 83.756 32.0612C85.1114 31.0186 86.3626 29.9238 87.5616 28.6727C88.7607 27.4215 89.8033 26.2746 90.6374 25.2319L90.8981 36.8574C89.7512 36.6489 88.6564 36.4403 87.5095 36.2839C86.3626 36.1797 85.3199 36.0754 84.3294 36.0754C82.7655 36.0754 81.2536 36.2318 79.8982 36.4925C78.5428 36.7531 77.1873 36.8574 75.8319 36.8574Z" fill="#1E1207"/>
<path d="M108.032 26.3725C108.149 25.8658 108.188 25.3591 108.149 24.8914C108.11 24.4236 107.993 23.9559 107.838 23.5661C107.643 23.1764 107.409 22.8256 107.097 22.5527C106.785 22.2799 106.434 22.085 106.045 21.9681C106.434 22.085 106.824 22.085 107.214 21.9681C107.604 21.8901 107.954 21.6952 108.344 21.4224C108.695 21.1496 109.007 20.7988 109.28 20.409C109.514 20.0192 109.708 19.5905 109.864 19.0448C109.591 20.1361 109.669 21.0716 110.059 21.8511C110.41 22.7086 110.995 23.2153 111.852 23.4102C111.034 23.2153 110.254 23.4102 109.514 23.9949C109.124 24.2677 108.812 24.6185 108.578 25.0083C108.344 25.4371 108.149 25.9048 108.032 26.3725ZM108.656 36.8574C107.175 36.8574 105.772 36.5066 104.446 35.805C103.121 35.1034 101.991 34.129 101.016 32.8817C100.042 31.6344 99.2625 30.1923 98.7168 28.5163C98.1322 26.8792 97.8593 25.0863 97.8593 23.2154C97.8593 21.3444 98.1322 19.5905 98.7168 17.9144C99.2625 16.2774 100.042 14.8352 101.016 13.588C101.991 12.3407 103.121 11.3663 104.446 10.6647C105.772 9.96308 107.175 9.5733 108.656 9.5733C110.137 9.5733 111.54 9.96308 112.866 10.6647C114.191 11.3663 115.321 12.3407 116.296 13.588C117.27 14.8352 118.05 16.2774 118.634 17.9144C119.18 19.5905 119.492 21.3444 119.492 23.2154C119.492 25.0863 119.18 26.8792 118.634 28.5163C118.05 30.1923 117.27 31.6344 116.296 32.8817C115.321 34.129 114.191 35.1034 112.866 35.805C111.54 36.5066 110.137 36.8574 108.656 36.8574ZM103.511 19.4346C102.77 20.9157 102.225 22.3968 101.874 23.878C101.484 25.3981 101.328 26.8013 101.328 28.1265C101.328 29.4517 101.484 30.66 101.835 31.7124C102.186 32.7648 102.731 33.5443 103.433 34.09C104.135 34.6357 104.914 34.9085 105.85 34.8306C106.746 34.7526 107.682 34.4408 108.617 33.8172C109.553 33.2325 110.449 32.414 111.345 31.3226C112.242 30.2313 113.06 28.984 113.801 27.5029C114.503 26.0217 115.048 24.5406 115.438 23.0594C115.789 21.5783 115.984 20.1361 115.984 18.8109C115.984 17.4857 115.828 16.3164 115.477 15.264C115.126 14.2116 114.62 13.3931 113.918 12.8084C113.216 12.2627 112.398 12.0289 111.501 12.1068C110.566 12.1848 109.669 12.4966 108.734 13.0813C107.799 13.7049 106.863 14.5234 105.967 15.6148C105.031 16.7061 104.213 17.9534 103.511 19.4346Z" fill="#1E1207"/>
<path d="M129.088 13.3931C129.711 12.6135 130.335 11.9509 131.037 11.4442C131.738 10.9765 132.401 10.5867 133.102 10.3139C133.765 10.041 134.428 9.84615 135.09 9.72921C135.753 9.65126 136.376 9.5733 136.961 9.5733C137.897 9.5733 138.832 9.69024 139.69 9.9241C140.547 10.158 141.288 10.5477 141.95 11.0934C142.613 11.6781 143.159 12.4576 143.548 13.4321C143.938 14.4065 144.133 15.6148 144.133 17.0959C144.133 17.8365 144.094 18.694 144.016 19.6294C143.938 20.6039 143.86 21.6173 143.743 22.6697C143.626 23.761 143.509 24.8524 143.353 25.9438C143.198 27.0741 143.042 28.1655 142.886 29.1789C142.496 31.6734 142.106 34.2069 141.638 36.8574H133.336C133.804 36.3897 134.389 35.4542 135.09 34.09C135.792 32.7258 136.493 31.1667 137.156 29.3738C137.819 27.5808 138.403 25.7099 138.871 23.761C139.339 21.8122 139.573 19.9802 139.573 18.3042C139.573 17.3688 139.456 16.5113 139.222 15.7317C138.988 14.9522 138.637 14.2896 138.208 13.7049C137.78 13.1592 137.273 12.6915 136.688 12.3797C136.065 12.0678 135.402 11.873 134.661 11.873C133.726 11.873 132.869 12.1458 132.089 12.6135C131.309 13.0813 130.647 13.7439 130.023 14.5624C129.4 15.4199 128.893 16.3553 128.425 17.4467C127.957 18.5381 127.607 19.7074 127.295 20.9547C126.983 22.2019 126.788 23.4492 126.632 24.7355C126.476 26.0607 126.437 27.308 126.437 28.5163C126.437 30.0753 126.476 31.3616 126.554 32.414C126.632 33.4664 126.71 34.3239 126.866 34.9865C126.944 35.766 127.1 36.3897 127.256 36.8574H123.553H122.54H120.279L125.97 9.5733H129.244H131.309C131.076 9.80717 130.881 10.119 130.647 10.4698C130.413 10.7816 130.179 11.2104 129.906 11.6781C129.633 12.1458 129.361 12.7305 129.088 13.3931Z" fill="#1E1207"/>
<path d="M193.195 0.364923C192.57 1.25117 192.049 2.39808 191.527 3.75351C191.006 5.16108 190.537 6.67291 190.12 8.34113C189.703 10.0094 189.286 11.7297 188.973 13.5543C188.66 15.379 188.347 17.1515 188.139 18.8718C187.878 20.5922 187.669 22.2083 187.565 23.7201C187.461 25.2319 187.409 26.5352 187.409 27.5779C187.409 29.1418 187.461 30.7058 187.565 32.2698C187.669 33.8337 187.982 35.3977 188.504 36.8574H178.911C179.485 35.2934 180.058 33.7816 180.632 32.2176C181.153 30.6537 181.726 29.0897 182.248 27.4736C181.414 28.8812 180.527 30.1324 179.537 31.2793C178.494 32.4262 177.399 33.4167 176.2 34.2508C174.949 35.0849 173.646 35.7626 172.186 36.1797C170.727 36.6489 169.215 36.8574 167.599 36.8574C166.347 36.8574 165.201 36.701 164.158 36.3882C163.063 36.0754 162.125 35.6062 161.343 34.9806C160.509 34.3551 159.883 33.5209 159.414 32.5304C158.945 31.5921 158.736 30.4451 158.736 29.1418C158.736 27.7343 158.997 26.2746 159.57 24.8149C160.144 23.3552 160.874 21.8433 161.76 20.3837C162.594 18.924 163.532 17.5164 164.523 16.0567C165.513 14.597 166.452 13.1894 167.338 11.834C168.172 10.4786 168.902 9.17525 169.475 7.92408C170.049 6.67291 170.362 5.42174 170.362 4.27483C170.362 3.44072 170.101 2.71087 169.58 2.18955C169.058 1.66823 168.381 1.40757 167.547 1.40757C167.077 1.40757 166.66 1.61609 166.243 1.92889C165.826 2.24168 165.67 2.65874 165.67 3.12793C165.67 3.44072 165.774 3.70138 166.035 3.85778C166.295 4.0663 166.556 4.11844 166.869 4.0663C166.452 4.0663 166.243 3.85778 166.243 3.38859C166.243 3.07579 166.347 2.86727 166.608 2.65874C166.817 2.50234 167.077 2.39808 167.39 2.39808C167.703 2.39808 168.016 2.55447 168.224 2.86727C168.433 3.18006 168.537 3.44072 168.537 3.75351C168.537 4.32696 168.328 4.74402 167.964 5.05681C167.599 5.36961 167.182 5.526 166.66 5.526C165.93 5.526 165.357 5.36961 164.888 4.95255C164.419 4.58763 164.21 4.01417 164.21 3.28432C164.21 2.34594 164.575 1.56396 165.305 0.938378C166.035 0.312792 166.869 0 167.807 0C169.267 0 170.466 0.417055 171.404 1.25117C172.343 2.08528 172.812 3.23219 172.812 4.74402C172.812 6.30798 172.395 7.97621 171.665 9.7487C170.935 11.5212 170.101 13.3458 169.163 15.2226C168.224 17.0993 167.39 18.924 166.66 20.7486C165.93 22.5732 165.565 24.2936 165.565 25.9097C165.565 27.5779 166.035 28.7769 166.973 29.5068C167.911 30.2888 169.163 30.6537 170.727 30.6537C172.655 30.6537 174.48 30.0281 176.2 28.7769C177.869 27.5257 179.433 26.0139 180.788 24.1372C182.143 22.3125 183.238 20.3837 184.177 18.2984C185.115 16.2131 185.741 14.3885 186.106 12.7202L187.774 4.53549C187.878 4.11844 187.93 3.64925 188.034 3.23219C188.087 2.81513 188.139 2.34594 188.139 1.87676C188.139 1.40757 188.087 0.886244 187.982 0.364923H193.195Z" fill="#1E1207"/>
<path d="M210.002 0.364923C212.4 0.364923 214.381 0.781981 215.893 1.56396C217.405 2.39808 218.604 3.38859 219.438 4.53549C220.272 5.73453 220.794 7.03783 221.107 8.4454C221.419 9.85297 221.524 11.1563 221.524 12.3032C221.471 13.5022 221.367 14.4927 221.159 15.2747C220.95 16.1088 220.794 16.4737 220.689 16.4737C220.689 16.0567 220.481 15.5354 220.064 14.8055C219.647 14.1278 219.126 13.3979 218.396 12.5638C217.666 11.7819 216.727 10.9999 215.685 10.1658C214.642 9.33165 213.443 8.60179 212.14 7.97621C210.837 7.35063 209.429 6.77717 207.865 6.36011C206.301 5.94306 204.685 5.73453 203.017 5.73453C201.557 5.73453 200.254 5.99519 199.159 6.41225C198.064 6.8293 197.178 7.40276 196.448 8.08047C195.718 8.75819 195.145 9.54017 194.78 10.3743C194.363 11.2084 194.206 12.0425 194.206 12.8245C194.206 14.0757 194.623 15.1183 195.458 16.0567C196.292 16.9951 197.543 17.4121 199.315 17.4121C200.514 17.4121 201.661 17.2557 202.704 16.8387C203.747 16.4737 204.737 16.0567 205.675 15.5875C206.614 15.1704 207.604 14.7534 208.543 14.3363C209.481 13.9714 210.419 13.7629 211.462 13.7629C212.818 13.7629 214.121 14.0757 215.268 14.597C216.415 15.1704 217.353 15.9003 218.187 16.7865C219.021 17.7249 219.647 18.7676 220.116 19.9666C220.533 21.1656 220.742 22.4168 220.742 23.668C220.689 25.2319 220.272 26.7959 219.438 28.3599C218.604 29.9238 217.353 31.3835 215.581 32.6347C213.808 33.8859 211.566 34.9285 208.803 35.7105C206.04 36.4925 202.704 36.8574 198.794 36.8574H192.486V24.2936C193.424 25.1277 194.623 25.8575 196.187 26.4831C197.491 27.1087 199.211 27.63 201.296 28.0471C203.382 28.5163 205.936 28.7248 209.012 28.7248C210.732 28.7248 212.244 28.5684 213.547 28.2556C214.799 27.9428 215.893 27.5257 216.78 27.0044C217.614 26.4831 218.291 25.9097 218.708 25.2841C219.126 24.6585 219.386 24.085 219.438 23.4594C219.438 22.6253 219.073 21.9476 218.344 21.322C217.614 20.7486 216.467 20.4358 214.955 20.4358C214.017 20.4358 213.13 20.5922 212.296 20.905C211.462 21.2178 210.524 21.5306 209.585 21.8433C208.647 22.1561 207.604 22.4689 206.51 22.7817C205.363 23.0945 204.111 23.1988 202.704 23.1988C201.14 23.1988 199.732 22.9381 198.481 22.3647C197.23 21.8433 196.24 21.1135 195.405 20.1751C194.571 19.2367 193.894 18.1941 193.477 16.9951C193.007 15.796 192.799 14.5449 192.799 13.2416C192.799 11.7297 193.112 10.2179 193.789 8.65393C194.415 7.08996 195.458 5.73453 196.865 4.48336C198.273 3.28432 200.045 2.29381 202.235 1.51183C204.372 0.781981 206.979 0.364923 210.002 0.364923Z" fill="#1E1207"/>
<path d="M249.709 36.8574C249.709 33.8337 250.178 31.2271 251.169 28.9854C252.107 26.7959 253.306 24.8149 254.766 23.1467C256.226 21.4784 257.79 19.9666 259.458 18.7154C261.126 17.4643 262.69 16.2652 264.15 15.1183C265.609 14.0235 266.808 12.9288 267.799 11.8861C268.737 10.8435 269.259 9.64444 269.259 8.34113C269.259 6.56864 268.685 5.16108 267.538 4.11844C266.391 3.07579 264.984 2.55447 263.263 2.55447C262.273 2.55447 261.387 2.763 260.553 3.12793C259.718 3.49285 258.989 3.96204 258.415 4.58763C257.842 5.21321 257.373 5.94306 257.06 6.77717C256.747 7.61128 256.591 8.54966 256.591 9.48804C256.591 10.27 256.695 11.052 256.903 11.8861C257.112 12.7202 257.477 13.4501 257.998 14.0235L256.434 15.3268L249.918 9.01885C250.439 7.76768 251.169 6.62078 252.107 5.57813C252.993 4.53549 254.036 3.59712 255.183 2.81513C256.33 2.08528 257.581 1.4597 258.936 1.04264C260.24 0.625584 261.595 0.364923 263.003 0.364923C264.567 0.364923 266.026 0.573452 267.382 0.938378C268.737 1.35543 269.884 1.92889 270.875 2.71087C271.865 3.49285 272.647 4.48336 273.221 5.73453C273.794 6.9857 274.107 8.39327 274.107 10.0615C274.107 11.4691 273.69 12.7202 272.908 13.8671C272.126 15.014 271.135 16.1088 269.989 17.0993C268.842 18.0898 267.538 19.0803 266.183 20.0187C264.827 20.9571 263.524 21.9476 262.377 22.9381C261.23 23.9286 260.24 24.9713 259.458 26.1182C258.676 27.2651 258.311 28.5684 258.311 29.9238C258.311 30.7579 258.415 31.4878 258.728 32.0612C259.041 32.6347 259.458 33.1039 259.979 33.4688C260.5 33.8859 261.074 34.1465 261.752 34.3029C262.429 34.5114 263.159 34.5636 263.889 34.5636C265.036 34.5636 266.131 34.4072 267.173 34.0423C268.216 33.7295 269.207 33.2081 270.041 32.5304C270.875 31.9048 271.5 31.0707 272.022 30.0802C272.543 29.1418 272.804 28.0471 272.804 26.7959H274.107V36.8574H249.709Z" fill="#1E1207"/>
<path d="M292.264 25.5447C291.377 25.2319 290.543 24.867 289.813 24.5021C289.084 24.1372 288.302 23.7722 287.572 23.4594C286.79 23.1467 286.008 22.886 285.174 22.6775C284.34 22.4689 283.453 22.3647 282.463 22.3647C281.42 22.3647 280.273 22.6253 279.074 23.0424C277.875 23.5116 276.832 24.0329 275.998 24.6064L275.164 23.5116C276.103 22.6253 277.145 21.4784 278.292 20.123C279.439 18.7676 280.586 17.36 281.629 15.796C282.671 14.2842 283.505 12.7202 284.235 11.1563C284.913 9.59231 285.278 8.18474 285.278 6.8293C285.278 6.15159 285.069 5.42174 284.704 4.69189C284.287 3.96204 283.714 3.54498 282.932 3.44072C282.932 2.9194 283.036 2.45021 283.297 2.03315C283.558 1.66823 283.922 1.35543 284.339 1.09477C284.757 0.886244 285.174 0.677718 285.695 0.573452C286.216 0.469189 286.685 0.364923 287.155 0.364923C288.041 0.364923 288.875 0.573452 289.605 0.886244C290.335 1.25117 290.908 1.72036 291.429 2.29381C291.951 2.86727 292.316 3.54498 292.629 4.32696C292.889 5.10895 293.046 5.94306 293.046 6.77717C293.046 8.49753 292.629 10.0094 291.899 11.3648C291.117 12.7202 290.126 13.9193 288.979 14.9619C287.78 16.0567 286.477 17.0472 285.069 17.8813C283.662 18.7154 282.306 19.4974 281.055 20.2273C281.837 19.9666 282.671 19.7581 283.505 19.6017C284.34 19.4974 285.174 19.3931 286.008 19.3931C287.103 19.3931 288.145 19.5495 289.188 19.7581C290.178 19.9666 291.221 20.2794 292.264 20.6443V12.8245C292.681 12.8245 293.254 12.4074 293.88 11.6776C294.505 10.9477 295.131 10.1136 295.704 9.17525C296.278 8.23687 296.799 7.29849 297.216 6.36011C297.633 5.42174 297.842 4.74402 297.842 4.27483H298.259V20.7486C298.78 20.54 299.197 20.1751 299.562 19.7059C299.875 19.2889 300.083 18.7676 300.083 18.142C300.083 18.0377 300.031 17.9334 300.031 17.7249C300.031 17.5164 299.927 17.4121 299.823 17.3079C300.97 17.3079 301.96 17.6728 302.794 18.3505C303.576 19.0803 303.993 20.0187 303.993 21.2178C303.993 21.9997 303.785 22.6775 303.472 23.303C303.159 23.9286 302.69 24.5021 302.169 24.9191C301.647 25.3362 301.022 25.7011 300.344 25.9618C299.614 26.2224 298.936 26.3788 298.259 26.431V32.0612C298.259 32.2698 298.259 32.6347 298.311 33.0518C298.363 33.5209 298.467 33.9901 298.624 34.4593C298.728 34.9285 298.936 35.3456 299.145 35.7105C299.354 36.0754 299.614 36.2318 299.927 36.2318V36.8574H290.595V36.2318C290.908 36.2318 291.221 36.0754 291.429 35.6584C291.638 35.2413 291.794 34.7721 291.899 34.2508C292.003 33.7295 292.107 33.2603 292.159 32.739C292.211 32.2176 292.264 31.8527 292.264 31.6442V25.5447Z" fill="#1E1207"/>
</g>
</g>
<defs>
<clipPath id="clip0_400_1443">
<rect width="303.187" height="49" fill="white" transform="translate(0.40625)"/>
</clipPath>
<clipPath id="clip1_400_1443">
<rect width="303.587" height="49.0183" fill="white" transform="translate(0.40625)"/>
</clipPath>
</defs>
</svg>
