<?xml version="1.0" encoding="utf-8"?>
<!-- Generator: Adobe Illustrator 27.3.1, SVG Export Plug-In . SVG Version: 6.00 Build 0)  -->
<svg version="1.1" id="Layer_1" xmlns="http://www.w3.org/2000/svg" xmlns:xlink="http://www.w3.org/1999/xlink" x="0px" y="0px"
	 viewBox="0 0 558 90" style="enable-background:new 0 0 558 90;" xml:space="preserve">
<style type="text/css">
	.st0{clip-path:url(#SVGID_00000129899583738923694620000005776899414925850506_);}
	.st1{clip-path:url(#SVGID_00000101796887455702779780000007373163491134263945_);}
	.st2{fill:#581763;}
	.st3{fill:url(#SVGID_00000079462120733084923470000007724847254354640048_);}
	.st4{fill:url(#SVGID_00000070811210682921237630000016567953198456248207_);}
	.st5{fill:url(#SVGID_00000136392857541859585670000018438287819513479044_);}
	.st6{fill:url(#SVGID_00000010297700570481910830000000719398094514258566_);}
	.st7{fill:url(#SVGID_00000149345419550663848380000008057987014081217187_);}
	.st8{fill:url(#SVGID_00000072281466660105070020000001917094750687642768_);}
	.st9{fill:url(#SVGID_00000015330105874392948510000004674796906777775543_);}
	.st10{fill:url(#SVGID_00000015328310791380067680000005991294928029712567_);}
	.st11{fill:url(#SVGID_00000015350969012846331940000000421411536313924753_);}
</style>
<g>
	<defs>
		<rect id="SVGID_1_" x="0.6" y="0" width="556.9" height="90"/>
	</defs>
	<clipPath id="SVGID_00000181774862221878558720000010839439342525853845_">
		<use xlink:href="#SVGID_1_"  style="overflow:visible;"/>
	</clipPath>
	<g style="clip-path:url(#SVGID_00000181774862221878558720000010839439342525853845_);">
		<g>
			<defs>
				<rect id="SVGID_00000080168220934170726770000018197978803538249909_" x="0.6" y="0" width="557.6" height="90"/>
			</defs>
			<clipPath id="SVGID_00000183237361943486102930000016634834989708090541_">
				<use xlink:href="#SVGID_00000080168220934170726770000018197978803538249909_"  style="overflow:visible;"/>
			</clipPath>
			<g style="clip-path:url(#SVGID_00000183237361943486102930000016634834989708090541_);">
				<g>
					<path class="st2" d="M432.6,51.6c0.4-1.7,0.6-3.5,0.4-5.1s-0.6-3.2-1.1-4.5c-0.7-1.3-1.5-2.5-2.6-3.5c-1.1-0.9-2.3-1.6-3.7-2
						c1.4,0.4,2.8,0.4,4.1,0c1.4-0.3,2.6-0.9,4-1.9c1.2-0.9,2.3-2.1,3.3-3.5c0.8-1.3,1.5-2.8,2.1-4.7c-1,3.7-0.7,6.9,0.7,9.6
						c1.2,2.9,3.3,4.6,6.2,5.3c0,0,0.1,0,0.1,0c0,0-0.1,0-0.1,0c-2.9-0.6-5.6,0-8.2,2c-1.4,0.9-2.5,2.1-3.3,3.5
						C433.7,48.4,433,50,432.6,51.6z"/>
				</g>
				<g>
					
						<linearGradient id="SVGID_00000084523826066016424690000013880828581638210196_" gradientUnits="userSpaceOnUse" x1="35.2729" y1="92.3937" x2="35.2729" y2="2.3601" gradientTransform="matrix(1 0 0 -1 0 92.3937)">
						<stop  offset="0" style="stop-color:#7B1B8B"/>
						<stop  offset="1" style="stop-color:#CE00EF"/>
					</linearGradient>
					<path style="fill:url(#SVGID_00000084523826066016424690000013880828581638210196_);" d="M21.9,44.9c-0.1,0.7-0.2,1.3-0.2,1.9
						c0,0.6,0,1.1,0,1.7C21.7,47.4,21.8,46.2,21.9,44.9L21.9,44.9z M57.8,0.7c4.3,0,7.4,1.1,9.3,3.4C69,6.3,70,9.1,70,12.4
						c0,2.5-0.5,5.1-1.2,7.9c-0.9,2.9-2,5.6-3.4,8.4c-1.4,2.8-3.2,5.5-5.2,7.9c-2,2.6-4.2,4.9-6.5,6.8c-2.4,2-4.9,3.6-7.5,4.8
						C43.6,49.4,41,50,38.3,50c-3.1,0-5.6-0.5-7.4-1.4c-1.9-1-3.3-2.2-4.1-3.6c-0.9-1.4-1.2-3.1-1.2-4.8c0-1.7,0.3-3.3,0.9-4.7
						c0.6-1.4,1.3-2.7,2.4-3.6c1-1,2.1-1.5,3.4-1.5c0.6,1.8,1.3,3.4,2.3,4.8c0.8,1.2,1.8,2.4,3.2,3.4c1.3,1,3,1.4,5.1,1.4
						c2.7,0,5.4-0.8,7.9-2.4c2.6-1.5,4.9-3.5,6.9-5.9c2-2.3,3.6-4.9,4.8-7.7c1.1-2.8,1.8-5.4,1.8-7.7c0-2.2-0.7-4-1.9-5.6
						c-1.3-1.4-3.4-2.2-6.5-2.2c-2.6,0-5.2,0.6-7.8,1.7c-2.7,1.1-5.2,2.7-7.6,4.6c-2.4,1.9-4.6,4.1-6.7,6.6c-2.1,2.5-4,5.2-5.6,7.9
						s-3,5.5-4,8.1c-1.1,2.8-1.7,5.4-2,7.7l-0.3,3.5c0,3.4,0.2,6.2,0.7,8.6c0.5,2.4,1.1,4.4,1.7,5.9c0.6,1.9,1.3,3.4,2.3,4.6H0.6
						c4.2-5.9,8-12.1,11.5-18.4c1.4-2.7,2.9-5.5,4.2-8.5c1.3-3,2.6-6,3.6-9.2c1.1-3.1,1.9-6.2,2.6-9.4c0.7-3.1,1.1-6.1,1.1-9.1
						c0-4-0.1-7.2-0.3-9.3c-0.1-1.1-0.2-2.2-0.3-3.2h15.3c-1.5,2.5-3,5.1-4.4,7.9c-1.3,2.5-2.7,5.4-4.1,8.6s-2.8,6.7-4,10.3
						c1.1-2.5,2.8-5.3,4.7-8.4c1.9-3.1,4.1-6,6.8-8.8c2.7-2.7,5.6-5,9.1-6.9C49.8,1.6,53.6,0.7,57.8,0.7z"/>
					
						<linearGradient id="SVGID_00000126325003318252813980000003318917564203496612_" gradientUnits="userSpaceOnUse" x1="92.734" y1="92.3937" x2="92.734" y2="2.3601" gradientTransform="matrix(1 0 0 -1 0 92.3937)">
						<stop  offset="0" style="stop-color:#7B1B8B"/>
						<stop  offset="1" style="stop-color:#CE00EF"/>
					</linearGradient>
					<path style="fill:url(#SVGID_00000126325003318252813980000003318917564203496612_);" d="M109.1,28c0.4-1.6,0.9-2.9,1.1-4.2
						c0.3-1.3,0.6-2.4,0.9-3.3c0.3-1,0.5-2,0.7-2.9h10.6c-1.8,1.8-3.4,4.2-4.9,7.2s-2.9,6.3-4.4,10c-1.4,3.7-2.9,7.7-4.3,11.9
						c-1.4,4.2-3,8.3-4.7,12.4c-1.6,4.2-3.4,8.1-5.3,11.8c-1.9,3.7-3.9,7-6.2,9.9s-4.9,5.1-7.7,6.8c-2.9,1.7-6,2.5-9.4,2.5
						c-2.8,0-5.1-0.4-6.8-1.4c-1.8-0.9-3.2-2.1-4-3.5c-0.9-1.4-1.4-2.9-1.6-4.5c-0.1-1.6,0.1-3.1,0.6-4.6c0.6-1.4,1.4-2.5,2.6-3.4
						c1.1-0.9,2.5-1.4,4.2-1.4c0.1,1.3,0.4,2.4,0.9,3.4c0.4,0.9,1.1,1.6,2.1,2.3c1,0.7,2.4,1.1,4.2,1.1c2.7,0,5.3-0.9,7.7-2.9
						c2.4-1.9,4.8-4.4,6.9-7.6c2.1-3.2,4.2-6.7,6.1-10.6c1.9-3.9,3.5-7.9,5-12c-1.1,1.9-2.5,3.7-3.9,5.6c-1.5,1.9-3.2,3.6-4.9,5.1
						c-1.7,1.5-3.6,2.7-5.6,3.7c-2,1-4.1,1.4-6.2,1.4c-3.7,0-6.4-0.8-8.2-2.4c-1.8-1.6-2.6-4-2.6-7.2c0-1.6,0.2-3.2,0.6-5.1
						c0.4-1.8,1.1-3.7,1.8-5.5c0.7-1.9,1.5-3.7,2.4-5.6c0.9-1.9,1.9-3.7,2.9-5.4c2.3-4,4.9-8,7.7-12h11c-4.9,6.4-8.8,12-11.5,17
						c-1.2,2.1-2.2,4.3-3,6.3c-0.9,2-1.3,3.9-1.4,5.4c-0.1,1.6,0.2,2.9,1.1,3.9c0.8,1,2.2,1.4,4.3,1.4c1.8,0,3.5-0.5,5.2-1.5
						s3.3-2.2,4.8-3.8c1.5-1.5,2.9-3.2,4.2-5.1c1.3-1.9,2.4-3.7,3.4-5.4c0.9-1.7,1.7-3.4,2.4-4.8C108.5,29.6,108.9,28.6,109.1,28z"
						/>
					
						<linearGradient id="SVGID_00000111900167094336910020000001317702320091830417_" gradientUnits="userSpaceOnUse" x1="151.021" y1="92.3937" x2="151.021" y2="2.3601" gradientTransform="matrix(1 0 0 -1 0 92.3937)">
						<stop  offset="0" style="stop-color:#7B1B8B"/>
						<stop  offset="1" style="stop-color:#CE00EF"/>
					</linearGradient>
					<path style="fill:url(#SVGID_00000111900167094336910020000001317702320091830417_);" d="M139.1,67.7c-5,0-8.7-1.2-11-3.9
						c-2.3-2.6-3.4-6.1-3.4-10.5c0-3.2,0.5-6.6,1.6-10.4c1.1-3.8,2.5-7.7,4.4-11.6c1.8-3.8,4-7.7,6.5-11.3c2.5-3.6,5.2-6.9,8-9.8
						c2.9-2.9,5.8-5.2,8.9-6.9c3.1-1.7,6-2.6,9.1-2.6c2.5,0,4.6,0.6,6.4,1.7c1.7,1.1,3.3,2.5,4.4,4.1s1.9,3.4,2.5,5.1
						c0.6,1.8,0.9,3.4,0.9,4.8c0,2.1-0.6,4.4-1.7,6.9c-1.1,2.5-2.7,4.7-4.4,6.8c-1.8,2.1-3.8,3.9-5.9,5.3c-2.2,1.4-4.3,2.1-6.2,2.1
						c0.6-0.2,1.2-0.9,2-2c0.8-1.1,1.5-2.7,2.4-4.4c0.9-1.7,1.7-3.7,2.5-5.8c0.8-2.1,1.5-4.1,2.2-6.1c0.7-2,1.2-3.8,1.6-5.6
						c0.4-1.7,0.6-3,0.6-3.9c0-0.7-0.3-1.4-0.7-2.3c-0.5-0.9-1.5-1.3-3.2-1.3c-2.3,0-4.8,1.1-7.3,3.1c-2.6,2-5.2,4.6-7.7,7.8
						c-2.5,3.3-4.9,6.8-7.2,10.8c-2.3,4-4.4,7.9-6.1,11.9c-1.7,4-3.2,7.8-4.2,11.2c-1.1,3.5-1.5,6.4-1.5,8.7c0,0.8,0,1.4,0.2,2.2
						c0.1,0.8,0.4,1.5,0.9,2.1c0.4,0.6,1.1,1.1,1.8,1.4c0.8,0.4,1.7,0.6,3.1,0.6c2.3,0,4.8-0.6,7.5-1.9c2.6-1.3,5.2-3,7.7-4.9
						c2.5-1.9,4.8-3.9,7-6.2c2.2-2.3,4.1-4.4,5.6-6.3l0.5,21.4c-2.1-0.4-4.1-0.8-6.2-1.1c-2.1-0.2-4-0.4-5.8-0.4
						c-2.9,0-5.6,0.3-8.1,0.8C144.1,67.5,141.6,67.7,139.1,67.7z"/>
					
						<linearGradient id="SVGID_00000002384180965086509450000000696412730342130104_" gradientUnits="userSpaceOnUse" x1="199.4245" y1="92.3937" x2="199.4245" y2="2.3601" gradientTransform="matrix(1 0 0 -1 0 92.3937)">
						<stop  offset="0" style="stop-color:#7B1B8B"/>
						<stop  offset="1" style="stop-color:#CE00EF"/>
					</linearGradient>
					<path style="fill:url(#SVGID_00000002384180965086509450000000696412730342130104_);" d="M198.2,48.4c0.2-0.9,0.3-1.9,0.2-2.7
						c-0.1-0.9-0.3-1.7-0.6-2.4c-0.4-0.7-0.8-1.4-1.4-1.9c-0.6-0.5-1.2-0.9-1.9-1.1c0.7,0.2,1.4,0.2,2.1,0c0.7-0.1,1.4-0.5,2.1-1
						c0.6-0.5,1.2-1.1,1.7-1.9c0.4-0.7,0.8-1.5,1.1-2.5c-0.5,2-0.4,3.7,0.4,5.2c0.6,1.6,1.7,2.5,3.3,2.9c-1.5-0.4-2.9,0-4.3,1.1
						c-0.7,0.5-1.3,1.1-1.7,1.9C198.8,46.7,198.5,47.6,198.2,48.4z M199.4,67.7c-2.7,0-5.3-0.6-7.7-1.9c-2.4-1.3-4.5-3.1-6.3-5.4
						c-1.8-2.3-3.2-4.9-4.2-8c-1.1-3-1.6-6.3-1.6-9.7c0-3.4,0.5-6.7,1.6-9.7c1-3,2.4-5.7,4.2-7.9c1.8-2.3,3.9-4.1,6.3-5.4
						c2.4-1.3,5-2,7.7-2c2.7,0,5.3,0.7,7.7,2c2.4,1.3,4.5,3.1,6.3,5.4c1.8,2.3,3.2,4.9,4.3,7.9c1,3.1,1.6,6.3,1.6,9.7
						c0,3.4-0.6,6.7-1.6,9.7c-1.1,3.1-2.5,5.7-4.3,8c-1.8,2.3-3.9,4.1-6.3,5.4C204.7,67.1,202.1,67.7,199.4,67.7z M189.9,35.7
						c-1.4,2.7-2.4,5.4-3,8.2c-0.7,2.8-1,5.4-1,7.8s0.3,4.7,0.9,6.6c0.6,1.9,1.6,3.4,2.9,4.4c1.3,1,2.7,1.5,4.4,1.4
						c1.6-0.1,3.4-0.7,5.1-1.9c1.7-1.1,3.4-2.6,5-4.6c1.6-2,3.1-4.3,4.5-7c1.3-2.7,2.3-5.4,3-8.2c0.6-2.7,1-5.4,1-7.8
						c0-2.4-0.3-4.6-0.9-6.5c-0.6-1.9-1.6-3.4-2.9-4.5c-1.3-1-2.8-1.4-4.4-1.3c-1.7,0.1-3.4,0.7-5.1,1.8c-1.7,1.1-3.4,2.6-5.1,4.7
						C192.7,30.7,191.2,33,189.9,35.7z"/>
					
						<linearGradient id="SVGID_00000026143270746649222600000008288428225086747785_" gradientUnits="userSpaceOnUse" x1="242.6435" y1="92.3937" x2="242.6435" y2="2.3601" gradientTransform="matrix(1 0 0 -1 0 92.3937)">
						<stop  offset="0" style="stop-color:#7B1B8B"/>
						<stop  offset="1" style="stop-color:#CE00EF"/>
					</linearGradient>
					<path style="fill:url(#SVGID_00000026143270746649222600000008288428225086747785_);" d="M236.9,24.6c1.1-1.4,2.3-2.6,3.6-3.6
						c1.3-0.9,2.5-1.6,3.8-2.1c1.2-0.5,2.4-0.9,3.7-1.1c1.2-0.1,2.4-0.3,3.4-0.3c1.7,0,3.4,0.2,5,0.6c1.6,0.4,2.9,1.1,4.2,2.1
						c1.2,1.1,2.2,2.5,2.9,4.3c0.7,1.8,1.1,4,1.1,6.7c0,1.4-0.1,2.9-0.2,4.7c-0.1,1.8-0.3,3.7-0.5,5.6c-0.2,2-0.4,4-0.7,6
						c-0.3,2.1-0.6,4.1-0.9,5.9c-0.7,4.6-1.4,9.2-2.3,14.1h-15.2c0.9-0.9,1.9-2.6,3.2-5.1c1.3-2.5,2.6-5.4,3.8-8.7
						c1.2-3.3,2.3-6.7,3.2-10.3c0.9-3.6,1.3-6.9,1.3-10c0-1.7-0.2-3.3-0.6-4.7c-0.4-1.4-1.1-2.6-1.9-3.7c-0.8-1-1.7-1.9-2.8-2.4
						c-1.1-0.6-2.4-0.9-3.7-0.9c-1.7,0-3.3,0.5-4.7,1.4c-1.4,0.9-2.6,2.1-3.8,3.6c-1.1,1.6-2.1,3.3-2.9,5.3c-0.9,2-1.5,4.2-2.1,6.4
						c-0.6,2.3-0.9,4.6-1.2,6.9c-0.3,2.4-0.4,4.7-0.4,6.9c0,2.9,0.1,5.2,0.2,7.2c0.1,1.9,0.3,3.5,0.6,4.7c0.1,1.4,0.4,2.6,0.7,3.4
						h-6.8h-1.9h-4.2l10.5-50.1h6h3.8c-0.4,0.4-0.8,1-1.2,1.6c-0.4,0.6-0.9,1.4-1.4,2.2C237.9,22.3,237.4,23.4,236.9,24.6z"/>
					
						<linearGradient id="SVGID_00000018936063740498427390000000066067630505119896_" gradientUnits="userSpaceOnUse" x1="323.019" y1="92.3937" x2="323.019" y2="2.3601" gradientTransform="matrix(1 0 0 -1 0 92.3937)">
						<stop  offset="0" style="stop-color:#7B1B8B"/>
						<stop  offset="1" style="stop-color:#CE00EF"/>
					</linearGradient>
					<path style="fill:url(#SVGID_00000018936063740498427390000000066067630505119896_);" d="M354.7,0.7c-1.1,1.6-2.1,3.7-3.1,6.2
						c-1,2.6-1.8,5.4-2.6,8.4c-0.8,3.1-1.5,6.2-2.1,9.6c-0.6,3.4-1.1,6.6-1.5,9.8c-0.5,3.2-0.9,6.1-1.1,8.9
						c-0.2,2.8-0.3,5.2-0.3,7.1c0,2.9,0.1,5.7,0.3,8.6c0.2,2.9,0.8,5.7,1.7,8.4h-17.6c1.1-2.9,2.1-5.6,3.2-8.5c1-2.9,2-5.7,3-8.7
						c-1.5,2.6-3.2,4.9-5,7c-1.9,2.1-3.9,3.9-6.1,5.5c-2.3,1.5-4.7,2.8-7.4,3.5c-2.7,0.9-5.5,1.2-8.4,1.2c-2.3,0-4.4-0.3-6.3-0.9
						c-2-0.6-3.7-1.4-5.2-2.6c-1.5-1.1-2.7-2.7-3.5-4.5c-0.9-1.7-1.2-3.8-1.2-6.2c0-2.6,0.5-5.3,1.5-7.9c1.1-2.7,2.4-5.5,4-8.1
						c1.5-2.7,3.3-5.3,5.1-7.9s3.5-5.3,5.2-7.8c1.5-2.5,2.9-4.9,3.9-7.2c1.1-2.3,1.6-4.6,1.6-6.7c0-1.5-0.5-2.9-1.4-3.8
						c-1-1-2.2-1.4-3.7-1.4c-0.9,0-1.6,0.4-2.4,1c-0.8,0.6-1.1,1.3-1.1,2.2c0,0.6,0.2,1.1,0.7,1.3c0.5,0.4,1,0.5,1.5,0.4
						c-0.8,0-1.1-0.4-1.1-1.2c0-0.6,0.2-1,0.7-1.3c0.4-0.3,0.9-0.5,1.4-0.5c0.6,0,1.1,0.3,1.5,0.9c0.4,0.6,0.6,1.1,0.6,1.6
						c0,1.1-0.4,1.8-1.1,2.4c-0.7,0.6-1.4,0.9-2.4,0.9c-1.3,0-2.4-0.3-3.3-1.1c-0.9-0.7-1.2-1.7-1.2-3.1c0-1.7,0.7-3.2,2-4.3
						c1.3-1.1,2.9-1.7,4.6-1.7c2.7,0,4.9,0.8,6.6,2.3c1.7,1.5,2.6,3.6,2.6,6.4c0,2.9-0.8,5.9-2.1,9.2c-1.3,3.3-2.9,6.6-4.6,10.1
						c-1.7,3.4-3.3,6.8-4.6,10.1c-1.3,3.4-2,6.5-2,9.5c0,3.1,0.9,5.3,2.6,6.6c1.7,1.4,4,2.1,6.9,2.1c3.5,0,6.9-1.1,10.1-3.4
						c3.1-2.3,5.9-5.1,8.4-8.5c2.5-3.4,4.5-6.9,6.2-10.7c1.7-3.8,2.9-7.2,3.5-10.2l3.1-15c0.2-0.8,0.3-1.6,0.5-2.4
						c0.1-0.8,0.2-1.6,0.2-2.5s-0.1-1.8-0.3-2.8H354.7z"/>
					
						<linearGradient id="SVGID_00000013882572384180298660000008965992279458882452_" gradientUnits="userSpaceOnUse" x1="380.029" y1="92.3937" x2="380.029" y2="2.3601" gradientTransform="matrix(1 0 0 -1 0 92.3937)">
						<stop  offset="0" style="stop-color:#7B1B8B"/>
						<stop  offset="1" style="stop-color:#CE00EF"/>
					</linearGradient>
					<path style="fill:url(#SVGID_00000013882572384180298660000008965992279458882452_);" d="M385.5,0.7c4.4,0,8,0.8,10.8,2.2
						c2.8,1.5,5,3.4,6.5,5.5c1.5,2.2,2.5,4.6,3.1,7.2c0.6,2.6,0.8,5,0.8,7.1c-0.1,2.2-0.3,4-0.7,5.5c-0.4,1.5-0.7,2.2-0.9,2.2
						c0-0.8-0.4-1.7-1.1-3.1c-0.8-1.2-1.7-2.6-3.1-4.1c-1.3-1.4-3.1-2.9-5-4.4c-1.9-1.5-4.1-2.9-6.5-4c-2.4-1.1-5-2.2-7.9-3
						c-2.9-0.8-5.8-1.1-8.9-1.1c-2.7,0-5.1,0.5-7.1,1.2c-2,0.8-3.6,1.8-5,3.1c-1.3,1.2-2.4,2.7-3.1,4.2c-0.8,1.5-1.1,3.1-1.1,4.5
						c0,2.3,0.8,4.2,2.3,5.9c1.5,1.7,3.8,2.5,7.1,2.5c2.2,0,4.3-0.3,6.2-1.1c1.9-0.7,3.7-1.4,5.5-2.3c1.7-0.8,3.5-1.5,5.3-2.3
						c1.7-0.7,3.4-1.1,5.4-1.1c2.5,0,4.9,0.6,7,1.5c2.1,1.1,3.8,2.4,5.4,4c1.5,1.7,2.7,3.6,3.5,5.8c0.8,2.2,1.1,4.5,1.1,6.8
						c-0.1,2.9-0.9,5.7-2.4,8.6c-1.5,2.9-3.8,5.6-7.1,7.9c-3.3,2.3-7.4,4.2-12.4,5.6c-5.1,1.4-11.2,2.1-18.4,2.1h-11.6V44.6
						c1.7,1.5,3.9,2.9,6.8,4c2.4,1.1,5.6,2.1,9.4,2.9c3.8,0.9,8.5,1.2,14.2,1.2c3.2,0,5.9-0.3,8.3-0.9c2.3-0.6,4.3-1.3,5.9-2.3
						c1.5-1,2.8-2,3.5-3.2c0.8-1.1,1.2-2.2,1.3-3.4c0-1.5-0.7-2.8-2-3.9c-1.3-1.1-3.4-1.6-6.2-1.6c-1.7,0-3.4,0.3-4.9,0.9
						c-1.5,0.6-3.3,1.1-5,1.7c-1.7,0.6-3.6,1.1-5.6,1.7c-2.1,0.6-4.4,0.8-7,0.8c-2.9,0-5.5-0.5-7.8-1.5c-2.3-1-4.1-2.3-5.6-4
						c-1.5-1.7-2.8-3.6-3.5-5.8c-0.9-2.2-1.2-4.5-1.2-6.9c0-2.8,0.6-5.6,1.8-8.4c1.1-2.9,3.1-5.4,5.6-7.7c2.6-2.2,5.8-4,9.9-5.5
						C375.2,1.4,380,0.7,385.5,0.7z"/>
					
						<linearGradient id="SVGID_00000103988028398922548700000002051427355467921298_" gradientUnits="userSpaceOnUse" x1="480.872" y1="92.3937" x2="480.872" y2="2.3601" gradientTransform="matrix(1 0 0 -1 0 92.3937)">
						<stop  offset="0" style="stop-color:#7B1B8B"/>
						<stop  offset="1" style="stop-color:#CE00EF"/>
					</linearGradient>
					<path style="fill:url(#SVGID_00000103988028398922548700000002051427355467921298_);" d="M458.5,67.7c0-5.6,0.9-10.3,2.7-14.5
						c1.7-4,3.9-7.7,6.6-10.7c2.7-3.1,5.6-5.8,8.6-8.1c3.1-2.3,5.9-4.5,8.6-6.6c2.7-2,4.9-4,6.7-5.9c1.7-1.9,2.7-4.1,2.7-6.5
						c0-3.3-1.1-5.8-3.2-7.8c-2.1-1.9-4.7-2.9-7.9-2.9c-1.8,0-3.4,0.4-5,1.1c-1.5,0.7-2.9,1.5-3.9,2.7c-1.1,1.1-1.9,2.5-2.5,4
						c-0.6,1.5-0.9,3.3-0.9,5c0,1.4,0.2,2.9,0.6,4.4c0.4,1.5,1.1,2.9,2,3.9l-2.9,2.4l-12-11.6c1-2.3,2.3-4.4,4-6.3
						c1.6-1.9,3.5-3.6,5.6-5.1c2.1-1.3,4.4-2.5,6.9-3.3c2.4-0.8,4.9-1.2,7.5-1.2c2.9,0,5.6,0.4,8,1.1c2.5,0.8,4.6,1.8,6.4,3.3
						c1.8,1.4,3.3,3.3,4.3,5.6c1.1,2.3,1.6,4.9,1.6,7.9c0,2.6-0.8,4.9-2.2,7c-1.4,2.1-3.3,4.1-5.4,5.9c-2.1,1.8-4.5,3.6-7,5.4
						c-2.5,1.7-4.9,3.5-7,5.4c-2.1,1.8-3.9,3.7-5.4,5.8c-1.4,2.1-2.1,4.5-2.1,7c0,1.5,0.2,2.9,0.8,3.9c0.6,1.1,1.3,1.9,2.3,2.6
						c1,0.8,2,1.2,3.3,1.5c1.2,0.4,2.6,0.5,3.9,0.5c2.1,0,4.1-0.3,6-1c1.9-0.6,3.7-1.5,5.3-2.8c1.5-1.1,2.7-2.7,3.6-4.5
						c1-1.7,1.4-3.7,1.4-6h2.4v18.5H458.5z"/>
					
						<linearGradient id="SVGID_00000001627348931545777810000009990796117211930271_" gradientUnits="userSpaceOnUse" x1="531.6955" y1="92.3937" x2="531.6955" y2="2.3601" gradientTransform="matrix(1 0 0 -1 0 92.3937)">
						<stop  offset="0" style="stop-color:#7B1B8B"/>
						<stop  offset="1" style="stop-color:#CE00EF"/>
					</linearGradient>
					<path style="fill:url(#SVGID_00000001627348931545777810000009990796117211930271_);" d="M536.6,46.9c-1.6-0.6-3.2-1.2-4.5-1.9
						c-1.3-0.7-2.8-1.3-4.1-1.9c-1.4-0.6-2.9-1.1-4.4-1.4c-1.5-0.4-3.2-0.6-5-0.6c-1.9,0-4,0.5-6.2,1.2c-2.2,0.9-4.1,1.8-5.6,2.9
						l-1.5-2c1.7-1.6,3.6-3.7,5.7-6.2c2.1-2.5,4.2-5.1,6.1-7.9c1.9-2.8,3.4-5.6,4.8-8.5c1.2-2.9,1.9-5.5,1.9-7.9
						c0-1.2-0.4-2.6-1.1-3.9c-0.8-1.3-1.8-2.1-3.3-2.3c0-1,0.2-1.8,0.7-2.6c0.5-0.7,1.1-1.2,1.9-1.7c0.8-0.4,1.5-0.8,2.5-1
						c1-0.2,1.8-0.4,2.7-0.4c1.6,0,3.2,0.4,4.5,1c1.3,0.7,2.4,1.5,3.4,2.6c1,1.1,1.6,2.3,2.2,3.7c0.5,1.4,0.8,3,0.8,4.5
						c0,3.2-0.8,5.9-2.1,8.4c-1.4,2.5-3.3,4.7-5.4,6.6c-2.2,2-4.6,3.8-7.2,5.4c-2.6,1.5-5.1,3-7.4,4.3c1.4-0.5,3-0.9,4.5-1.1
						c1.5-0.2,3.1-0.4,4.6-0.4c2,0,3.9,0.3,5.8,0.7c1.8,0.4,3.7,1,5.6,1.6V23.6c0.8,0,1.8-0.8,3-2.1c1.1-1.3,2.3-2.9,3.4-4.6
						c1.1-1.7,2-3.4,2.8-5.2c0.8-1.7,1.1-3,1.1-3.8h0.8v30.3c1-0.4,1.7-1.1,2.4-1.9c0.6-0.8,1-1.7,1-2.9c0-0.2-0.1-0.4-0.1-0.8
						s-0.2-0.6-0.4-0.8c2.1,0,3.9,0.7,5.5,1.9c1.4,1.3,2.2,3.1,2.2,5.3c0,1.4-0.4,2.7-1,3.8c-0.6,1.1-1.4,2.2-2.4,3
						c-1,0.8-2.1,1.4-3.4,1.9c-1.3,0.5-2.6,0.8-3.8,0.9v10.3c0,0.4,0,1.1,0.1,1.8c0.1,0.9,0.3,1.7,0.6,2.6c0.2,0.9,0.6,1.6,1,2.3
						c0.4,0.7,0.9,1,1.4,1v1.1h-17.1v-1.1c0.6,0,1.1-0.3,1.5-1.1c0.4-0.8,0.7-1.6,0.9-2.6c0.2-1,0.4-1.8,0.5-2.8
						c0.1-1,0.2-1.6,0.2-2V46.9z"/>
				</g>
			</g>
		</g>
	</g>
</g>
</svg>
