<svg id="mountains_with_psf_logo" data-name="mountains with psf logo" xmlns="http://www.w3.org/2000/svg" xmlns:xlink="http://www.w3.org/1999/xlink" width="555.924" height="192.791" viewBox="0 0 555.924 192.791">
  <defs>
    <clipPath id="clip-path">
      <rect id="Rectangle_154" data-name="Rectangle 154" width="555.924" height="192.791" fill="none"/>
    </clipPath>
    <clipPath id="clip-path-2">
      <path id="Path_167" data-name="Path 167" d="M1135.383,896.364l186.782,186.808H948.575Z" transform="translate(-948.575 -896.364)" fill="none"/>
    </clipPath>
    <clipPath id="clip-path-3">
      <rect id="Rectangle_158" data-name="Rectangle 158" width="237.198" height="49.493" fill="#28500a"/>
    </clipPath>
    <clipPath id="clip-path-4">
      <rect id="Rectangle_157" data-name="Rectangle 157" width="237.242" height="49.536" fill="none"/>
    </clipPath>
    <clipPath id="clip-path-5">
      <rect id="Rectangle_156" data-name="Rectangle 156" width="237.206" height="49.511" fill="none"/>
    </clipPath>
  </defs>
  <g id="Group_104" data-name="Group 104">
    <g id="Group_103" data-name="Group 103" clip-path="url(#clip-path)">
      <g id="Group_101" data-name="Group 101" transform="translate(59.316 2.044)">
        <g id="Group_100" data-name="Group 100">
          <g id="Group_99" data-name="Group 99" clip-path="url(#clip-path-2)">
            <g id="Group_98" data-name="Group 98" transform="translate(-8.356 -24.526)">
              <rect id="Rectangle_139" data-name="Rectangle 139" width="17.986" height="212.834" transform="translate(79.973)" fill="#b7a763"/>
              <rect id="Rectangle_140" data-name="Rectangle 140" width="17.986" height="212.834" transform="translate(106.631)" fill="#b7a763"/>
              <rect id="Rectangle_141" data-name="Rectangle 141" width="17.986" height="212.834" transform="translate(133.289)" fill="#b7a763"/>
              <rect id="Rectangle_142" data-name="Rectangle 142" width="17.986" height="212.834" transform="translate(159.946)" fill="#b7a763"/>
              <rect id="Rectangle_143" data-name="Rectangle 143" width="17.986" height="212.834" transform="translate(186.604)" fill="#b7a763"/>
              <rect id="Rectangle_144" data-name="Rectangle 144" width="17.986" height="212.834" transform="translate(213.262)" fill="#b7a763"/>
              <rect id="Rectangle_145" data-name="Rectangle 145" width="17.986" height="212.834" transform="translate(239.92)" fill="#b7a763"/>
              <rect id="Rectangle_146" data-name="Rectangle 146" width="17.986" height="212.834" transform="translate(266.578)" fill="#b7a763"/>
              <rect id="Rectangle_147" data-name="Rectangle 147" width="17.986" height="212.834" transform="translate(293.235)" fill="#b7a763"/>
              <rect id="Rectangle_148" data-name="Rectangle 148" width="17.986" height="212.834" transform="translate(319.893)" fill="#b7a763"/>
              <rect id="Rectangle_149" data-name="Rectangle 149" width="17.986" height="212.834" transform="translate(346.551)" fill="#b7a763"/>
              <rect id="Rectangle_150" data-name="Rectangle 150" width="17.986" height="212.834" fill="#b7a763"/>
              <rect id="Rectangle_151" data-name="Rectangle 151" width="17.986" height="212.834" transform="translate(26.658)" fill="#b7a763"/>
              <rect id="Rectangle_152" data-name="Rectangle 152" width="17.986" height="212.834" transform="translate(53.315)" fill="#b7a763"/>
              <rect id="Rectangle_153" data-name="Rectangle 153" width="17.986" height="212.834" transform="translate(373.208)" fill="#b7a763"/>
            </g>
          </g>
        </g>
      </g>
      <g id="Group_102" data-name="Group 102" transform="translate(180.721 5.983)">
        <path id="Path_169" data-name="Path 169" d="M1216.383,898.992,1403.165,1085.8h-373.59Z" transform="translate(-1029.575 -898.992)" fill="#b7a763"/>
      </g>
    </g>
  </g>
  <g id="Group_111" data-name="Group 111" transform="translate(271.461 130.699)">
    <g id="Group_110" data-name="Group 110" transform="translate(-14 -2)" clip-path="url(#clip-path-3)">
      <g id="Group_109" data-name="Group 109">
        <g id="Group_108" data-name="Group 108" clip-path="url(#clip-path-4)">
          <g id="Group_107" data-name="Group 107">
            <g id="Group_106" data-name="Group 106" clip-path="url(#clip-path-5)">
              <g id="Group_105" data-name="Group 105" transform="translate(4.021 5.906)">
                <path id="Path_171" data-name="Path 171" d="M1116.63,1003.319c-2.35,0-4.7.014-7.048-.012-.469-.005-.606.125-.584.586.02.407-.007.669.564.662,2.873-.034,5.747-.01,8.62-.027.39,0,.529.088.515.5q-.043,1.517,0,3.04a4.32,4.32,0,0,1-2.082,3.875,11.933,11.933,0,0,1-4.53,1.666,15.626,15.626,0,0,1-9.547-1.045,5.389,5.389,0,0,1-2.846-2.548,3.8,3.8,0,0,1-.393-1.66c0-3.16-.015-6.32.009-9.479a4.893,4.893,0,0,1,4.808-4.781c3.162-.022,6.323-.009,9.483-.01a6.221,6.221,0,0,0,6.308-6.284c.005-1.233.017-2.467-.009-3.7-.007-.393.12-.484.491-.476q1.545.036,3.094.005a4.225,4.225,0,0,1,3.99,2.38,12.749,12.749,0,0,1,1.133,3.424,17.281,17.281,0,0,1,.525,4.686,15.855,15.855,0,0,1-1.723,6.746,4.175,4.175,0,0,1-4.078,2.464c-2.231-.039-4.463-.008-6.694-.008Zm-.383,5.538a1.808,1.808,0,0,0-1.816-1.843,1.85,1.85,0,0,0,.01,3.7A1.82,1.82,0,0,0,1116.248,1008.858Z" transform="translate(-1088.899 -973.223)" fill="#fff"/>
                <path id="Path_172" data-name="Path 172" d="M1223.71,1000.574c-.2.009-.4.024-.606.024q-37.584,0-75.169,0a3.669,3.669,0,0,1-.808-.046,1.534,1.534,0,0,1-1.135-1.647,1.517,1.517,0,0,1,1.435-1.384c.169-.01.339-.005.508-.005l75.169,0c.2,0,.4.015.606.024Z" transform="translate(-1056.479 -963.584)" fill="#fff"/>
                <path id="Path_173" data-name="Path 173" d="M1110.521,987.516c.388-.009.776-.041,1.162-.015.368.024.513-.132.432-.464-.068-.281.267-.706-.276-.827-.005-.173.117-.269.217-.383q1.065-1.21,2.119-2.426c1.3-1.494,2.6-2.985,3.878-4.493a1.953,1.953,0,0,0,.591-.855,4.914,4.914,0,0,1,3.153,4.546q.023,4.562,0,9.125a4.869,4.869,0,0,1-5.042,5.01c-3.128.009-6.255,0-9.383,0a6.137,6.137,0,0,0-6.186,6.165c0,1.3,0,2.6,0,3.905,0,.163.088.4-.234.388a30.918,30.918,0,0,1-4.1-.11,3.8,3.8,0,0,1-2.057-1.01c.042-.413.393-.61.629-.888,1.177-1.377,2.348-2.762,3.534-4.131,1.21-1.4,2.443-2.772,3.651-4.17,1.176-1.357,2.324-2.736,3.5-4.093,1.21-1.4,2.451-2.765,3.642-4.176C1110.039,988.279,1110.456,988.011,1110.521,987.516Z" transform="translate(-1092.015 -977.093)" fill="#fff"/>
                <path id="Path_174" data-name="Path 174" d="M1124.975,1001.63v11l-2.879-1.028a.269.269,0,0,1-.2-.305,3.528,3.528,0,0,0,0-.354q0-11.657-.01-23.316a1.342,1.342,0,0,1,.49-1.093,12.624,12.624,0,0,1,9.971-2.545,6.227,6.227,0,0,1,4.386,3.668,13.418,13.418,0,0,1,.585,10.63c-1.6,4.429-5.849,6.153-10.321,4.351A18.769,18.769,0,0,1,1124.975,1001.63Zm9.533-7.973a14.21,14.21,0,0,0-.8-5.088,3.825,3.825,0,0,0-3.061-2.643,8.317,8.317,0,0,0-5.425,1.216.467.467,0,0,0-.251.453q.008,5.8,0,11.6a.449.449,0,0,0,.254.44,11.264,11.264,0,0,0,3.007,1.293,4.455,4.455,0,0,0,5.713-3.15A14.2,14.2,0,0,0,1134.509,993.657Z" transform="translate(-1073.211 -973.115)" fill="#fff"/>
                <path id="Path_175" data-name="Path 175" d="M1146.151,1001.76a17.042,17.042,0,0,1-3.206,1.052,10.985,10.985,0,0,1-5.462.069,5.421,5.421,0,0,1-4.014-5.435c0-4.056,0-8.112-.008-12.168,0-.359.086-.539.454-.64.7-.195,1.378-.449,2.064-.679.642-.215.642-.215.642.437,0,4.124-.012,8.246.005,12.37a3.92,3.92,0,0,0,3.214,4.141,6.166,6.166,0,0,0,2.765.017,10.121,10.121,0,0,0,3.141-1.36c.269-.165.227-.38.227-.608q0-6.971,0-13.942c0-.8,0-.8.828-.8.642,0,1.286.013,1.928-.005.285-.008.373.076.371.366-.053,6.337.093,12.675-.092,19.011a20.708,20.708,0,0,1-.334,2.814,6.3,6.3,0,0,1-3.885,4.781,14.86,14.86,0,0,1-5.476,1.332c-.3.02-.459-.042-.517-.366a8.509,8.509,0,0,0-.3-1.174c-.108-.334,0-.444.33-.483a21.139,21.139,0,0,0,3.278-.62,6.944,6.944,0,0,0,1.625-.693,4.189,4.189,0,0,0,2.159-3.077A25.974,25.974,0,0,0,1146.151,1001.76Z" transform="translate(-1065.174 -973.082)" fill="#fff"/>
                <path id="Path_176" data-name="Path 176" d="M1155.478,990.553a14.076,14.076,0,0,1,2.635-1.42,9.514,9.514,0,0,1,4.971-.61,5.318,5.318,0,0,1,4.366,4.7,15.072,15.072,0,0,1,.08,1.518c.007,3.971-.005,7.943.015,11.914,0,.454-.113.581-.559.552-.64-.041-1.284-.01-1.928-.01-.679,0-.679,0-.679-.656q0-5.528,0-11.053a7.015,7.015,0,0,0-.344-2.394,3.424,3.424,0,0,0-4.524-2.357,13.342,13.342,0,0,0-3.826,1.92c-.241.159-.2.363-.2.574q0,6.135,0,12.27c0,.441-.014.879,0,1.318.012.271-.049.393-.356.385-.81-.02-1.623-.017-2.433,0-.271.005-.373-.086-.341-.349a2.072,2.072,0,0,0,0-.252q0-13.767-.013-27.531c0-.464.144-.647.568-.757.7-.183,1.4-.395,2.077-.646.41-.151.5-.081.5.358-.015,3.971-.008,7.943-.008,11.914Z" transform="translate(-1052.066 -977.414)" fill="#fff"/>
                <path id="Path_177" data-name="Path 177" d="M1180.437,993.373a11.3,11.3,0,0,1-2,6.628,7.759,7.759,0,0,1-7.062,3.288,7.49,7.49,0,0,1-6.851-4.595,11.46,11.46,0,0,1-.173-10.084,8.258,8.258,0,0,1,12.078-3.494,9.025,9.025,0,0,1,3.932,6.941C1180.407,992.494,1180.413,992.934,1180.437,993.373Zm-13.735,0c.019.385.029.876.071,1.362a10.142,10.142,0,0,0,1.333,4.517,4.067,4.067,0,0,0,2.468,1.969,4.542,4.542,0,0,0,5.732-3.092,14.905,14.905,0,0,0,.656-5.943,8.472,8.472,0,0,0-1.182-3.983,4.4,4.4,0,0,0-4-2.24,4.49,4.49,0,0,0-4.183,2.626A11.056,11.056,0,0,0,1166.7,993.371Z" transform="translate(-1044.482 -973.147)" fill="#fff"/>
                <path id="Path_178" data-name="Path 178" d="M1175.4,994.843c0-2.5.007-5-.007-7.5a.759.759,0,0,1,.351-.707,14.327,14.327,0,0,1,7.883-2.843,7.627,7.627,0,0,1,4.531.993,4.414,4.414,0,0,1,2.279,3.971q-.025,6.844,0,13.684c0,.391-.11.485-.481.468-.708-.029-1.422-.032-2.13,0-.4.019-.5-.107-.5-.5.014-3.953.009-7.907.009-11.86a6.579,6.579,0,0,0-.21-1.855,4.141,4.141,0,0,0-4.395-2.86,7.638,7.638,0,0,0-3.824,1.174.734.734,0,0,0-.395.727c.012,4.866,0,9.732.018,14.6,0,.461-.11.61-.579.581a16.691,16.691,0,0,0-1.975,0c-.444.024-.595-.081-.59-.566C1175.416,999.843,1175.4,997.344,1175.4,994.843Z" transform="translate(-1036.066 -973.12)" fill="#fff"/>
                <path id="Path_179" data-name="Path 179" d="M1111.444,983.639c-.066.495-.483.762-.766,1.1-1.191,1.411-2.433,2.78-3.643,4.176-1.176,1.357-2.324,2.736-3.5,4.093-1.208,1.4-2.442,2.773-3.651,4.169-1.186,1.369-2.357,2.753-3.534,4.131-.236.278-.586.474-.629.888a6.517,6.517,0,0,1-2.008-3.426c-.11-.369-.163-.754-.242-1.132a.516.516,0,0,0,.454-.247c.934-1.1,1.886-2.192,2.836-3.282.984-1.128,1.977-2.248,2.958-3.378,1.013-1.167,2.014-2.347,3.026-3.516.715-.828,1.466-1.626,2.14-2.485.273-.346.727-.583.776-1.093Z" transform="translate(-1092.937 -973.217)" fill="#fff"/>
                <path id="Path_180" data-name="Path 180" d="M1207.01,997.539c.185-.007.371-.02.556-.02q14.5-.008,29.007-.014c.2,0,.406-.005.608.012a1.545,1.545,0,0,1-.049,3.087c-.1.005-.2,0-.3,0q-14.682,0-29.363-.007c-.151,0-.3-.014-.454-.02Z" transform="translate(-1014.113 -963.588)" fill="#fff"/>
                <path id="Path_181" data-name="Path 181" d="M1149.946,980.339c0,1.974.015,3.883-.012,5.791-.007.437.122.529.532.513.861-.032,1.723.007,2.585-.019.323-.008.407.1.388.4a9.408,9.408,0,0,0,0,1.217c.025.346-.112.42-.434.413-.844-.022-1.691.013-2.535-.017-.4-.015-.541.059-.539.506.022,3.854.01,7.707.014,11.562,0,2.074.859,3.016,2.931,3.153.475.031.578.181.566.622-.029,1.123-.009,1.127-1.149,1.1a7.988,7.988,0,0,1-2.3-.346,4.315,4.315,0,0,1-3.168-4.425c-.021-1.386-.005-2.772-.005-4.158v-7.3c0-.7,0-.7-.728-.7-.356,0-.712-.015-1.066,0-.274.015-.351-.095-.341-.352.015-.439.024-.881,0-1.318-.019-.313.119-.363.386-.354.456.017.913-.017,1.369.014.324.02.391-.1.388-.4-.013-1.453,0-2.907-.013-4.361a.5.5,0,0,1,.395-.585C1148.109,981.01,1148.99,980.678,1149.946,980.339Z" transform="translate(-1057.38 -975.506)" fill="#fff"/>
                <path id="Path_182" data-name="Path 182" d="M1105.88,983.644c-.049.51-.5.747-.776,1.093-.674.859-1.425,1.657-2.14,2.485-1.011,1.169-2.013,2.348-3.026,3.516-.981,1.13-1.974,2.25-2.958,3.378-.95,1.089-1.9,2.179-2.836,3.282a.516.516,0,0,1-.454.247,16.422,16.422,0,0,1-.442-5.964,21.036,21.036,0,0,1,.671-3.47,5.968,5.968,0,0,1,5.884-4.581C1101.829,983.612,1103.854,983.637,1105.88,983.644Z" transform="translate(-1093.156 -973.225)" fill="#fff"/>
                <path id="Path_183" data-name="Path 183" d="M1217.527,997.535v3.041c-.119.007-.235.022-.352.022q-12.506,0-25.012-.005c-.1,0-.2-.012-.3-.019v-3.039c.134-.005.27-.017.4-.017q12.43-.005,24.859-.007C1217.258,997.511,1217.392,997.526,1217.527,997.535Z" transform="translate(-1024.63 -963.584)" fill="#fff"/>
                <path id="Path_184" data-name="Path 184" d="M1114.241,978.419a1.952,1.952,0,0,1-.591.855c-1.279,1.508-2.58,3-3.878,4.493q-1.054,1.217-2.12,2.426c-.1.114-.222.21-.217.383l-6.291,0c.068-.523.53-.779.793-1.171.308-.456.9-.718.937-1.36a1.979,1.979,0,0,0,1.16-1.36c.41.017.569-.335.779-.573.817-.913,1.621-1.838,2.394-2.789a10.886,10.886,0,0,0,1.45-1.8,18.436,18.436,0,0,1,4.942.615A5.471,5.471,0,0,1,1114.241,978.419Z" transform="translate(-1087.61 -977.46)" fill="#fff"/>
                <path id="Path_185" data-name="Path 185" d="M1109.95,977.55a10.887,10.887,0,0,1-1.45,1.8c-.773.951-1.578,1.876-2.394,2.789-.21.237-.369.59-.779.573a3.929,3.929,0,0,0,.029-.4,1.862,1.862,0,0,0-1.491-1.8,1.8,1.8,0,0,0-2.025,1.152,1.778,1.778,0,0,0,.309,1.852,1.831,1.831,0,0,0,2.018.561c-.036.642-.629.9-.937,1.36-.263.391-.725.647-.793,1.171-.957.11-1.92.02-2.879.049-.192.005-.276-.073-.269-.269.044-1.582-.086-3.168.086-4.751a3.573,3.573,0,0,1,2.362-3.075,13.685,13.685,0,0,1,3.729-.861,27.947,27.947,0,0,1,4.09-.2A3.159,3.159,0,0,1,1109.95,977.55Z" transform="translate(-1088.902 -977.486)" fill="#fff"/>
                <path id="Path_186" data-name="Path 186" d="M1205.42,990.164q.633-2.277,1.264-4.556.175-.633.349-1.267a.482.482,0,0,1,.295-.369c.71-.3.708-.307.915.435.535,1.933,1.073,3.865,1.611,5.81.153-.064.147-.2.18-.318q.806-2.872,1.606-5.745c.066-.235.086-.483.439-.376.368.112.161.347.114.53-.639,2.428-1.288,4.854-1.921,7.285a.633.633,0,0,1-.417.5c-.334.13-.452.081-.551-.281-.549-2.016-1.128-4.024-1.7-6.035-.046-.161-.095-.322-.183-.618-.267,1.015-.5,1.9-.737,2.8q-.473,1.81-.937,3.622a.652.652,0,0,1-.456.527c-.324.117-.432.049-.52-.269-.679-2.469-1.359-4.94-2.076-7.4-.19-.644.346-.488.588-.618.371-.2.307.2.351.352.566,1.992,1.117,3.99,1.671,5.986Z" transform="translate(-1017.135 -973.137)" fill="#fff"/>
                <path id="Path_187" data-name="Path 187" d="M1191.118,987.528a4.26,4.26,0,0,1,.81-2.336,3.249,3.249,0,0,1,5.44-.009,5,5,0,0,1-.561,6.2,3.083,3.083,0,0,1-4.3.007A4.988,4.988,0,0,1,1191.118,987.528Zm5.964.434a4.163,4.163,0,0,0-.722-2.567,2.032,2.032,0,0,0-3.422-.012,4.772,4.772,0,0,0,.058,5.245,1.962,1.962,0,0,0,3.3-.024A4.363,4.363,0,0,0,1197.082,987.961Z" transform="translate(-1025.146 -973.162)" fill="#fff"/>
                <path id="Path_188" data-name="Path 188" d="M1217.067,994.372a4.557,4.557,0,0,1,1.073-3.068,3.24,3.24,0,0,1,4.9-.036,4.953,4.953,0,0,1-.342,6.619,3.107,3.107,0,0,1-4.473-.295A4.824,4.824,0,0,1,1217.067,994.372Zm5.988.022a4.311,4.311,0,0,0-.771-2.6,2.034,2.034,0,0,0-3.358-.017,4.8,4.8,0,0,0,.046,5.318,1.96,1.96,0,0,0,3.29-.064A4.6,4.6,0,0,0,1223.054,994.394Z" transform="translate(-1007.131 -968.684)" fill="#fff"/>
                <path id="Path_189" data-name="Path 189" d="M1197.568,994.388a4.815,4.815,0,0,1-1.382,3.426,3.089,3.089,0,0,1-4.334,0,4.971,4.971,0,0,1-.329-6.472,3.241,3.241,0,0,1,4.966-.034A4.64,4.64,0,0,1,1197.568,994.388Zm-1.1.181a4.524,4.524,0,0,0-.693-2.678,2.038,2.038,0,0,0-3.472-.047,4.816,4.816,0,0,0,.044,5.193A1.968,1.968,0,0,0,1195.7,997,4.409,4.409,0,0,0,1196.463,994.57Z" transform="translate(-1025.588 -968.684)" fill="#fff"/>
                <path id="Path_190" data-name="Path 190" d="M1227.5,997.14c0-2.231,0-4.305,0-6.379,0-.244-.036-.464.346-.442.273.015.334.1.332.358-.007,2.5,0,5-.008,7.5,0,.13.083.371-.146.356-.324-.02-.7.195-.962-.212-.42-.652-.871-1.286-1.31-1.925q-1.515-2.214-3.034-4.43c-.181.091-.095.244-.095.357-.007,1.926,0,3.851-.007,5.777,0,.215.093.457-.315.464-.424.005-.359-.232-.359-.484,0-2.416.012-4.832-.012-7.246,0-.385.185-.471.468-.584.312-.127.415.056.552.257q2.081,3.055,4.173,6.1C1227.218,996.743,1227.316,996.875,1227.5,997.14Z" transform="translate(-1003.753 -968.655)" fill="#fff"/>
                <path id="Path_191" data-name="Path 191" d="M1205.283,996.992v-5.91a3.714,3.714,0,0,0,0-.456c-.034-.261.088-.308.319-.3.215.005.342.024.337.295-.017.761-.007,1.52-.007,2.281,0,1.7.005,3.411-.007,5.115,0,.176.137.491-.127.512-.315.025-.708.2-.963-.2-.242-.385-.51-.754-.767-1.13l-3.575-5.222c-.166.13-.09.293-.091.427q-.008,2.862,0,5.723c0,.249.025.441-.347.444-.39,0-.337-.213-.337-.447,0-2.431.014-4.863-.012-7.294,0-.395.2-.463.476-.576.317-.13.415.076.549.271q2.056,3.009,4.114,6.015c.114.166.23.33.344.495Z" transform="translate(-1019.187 -968.655)" fill="#fff"/>
                <path id="Path_192" data-name="Path 192" d="M1217.815,992.009a1.2,1.2,0,0,1-1.593-.742c-.441-.944-1.025-1.818-1.513-2.741a.571.571,0,0,0-.715-.3c-.3.059-.166.331-.168.505-.013.979-.031,1.958.005,2.936.015.434-.217.4-.5.393-.258-.005-.469.044-.466-.369.022-2.5.015-5,.007-7.5,0-.271.049-.388.354-.38.793.022,1.587-.013,2.38.015a2.236,2.236,0,0,1,2.177,1.952,2.1,2.1,0,0,1-1.5,2.34c-.619.181-.619.181-.283.759C1216.6,989.911,1217.2,990.941,1217.815,992.009Zm-4-5.891c.053.388-.229,1.128.093,1.337a2.728,2.728,0,0,0,1.772.051,1.313,1.313,0,0,0,1.055-.917,1.521,1.521,0,0,0-1.4-2.067c-.486-.008-1.106-.2-1.423.075s-.063.893-.1,1.36Z" transform="translate(-1010.046 -973.091)" fill="#fff"/>
                <path id="Path_193" data-name="Path 193" d="M1204.313,993.995c0-1.081.015-2.164-.009-3.245-.007-.361.06-.5.461-.481.674.041,1.352.027,2.028.017a2.847,2.847,0,0,1,2.83,1.757,4.974,4.974,0,0,1-.313,5.239c-1.379,1.96-3.526,1.442-4.857.413-.166-.129-.137-.291-.137-.456Q1204.312,995.615,1204.313,993.995Zm.954.135c0,.944.017,1.889-.01,2.831a.688.688,0,0,0,.4.683,2.01,2.01,0,0,0,2.667-.532,4.162,4.162,0,0,0,.764-2.963c-.176-2.563-1.292-3.314-3.392-3.222-.324.014-.442.08-.434.422C1205.28,992.275,1205.266,993.2,1205.266,994.13Z" transform="translate(-1015.992 -968.613)" fill="#fff"/>
                <path id="Path_194" data-name="Path 194" d="M1189.921,992.216a4.2,4.2,0,0,1-2.3-.786c-.386-.256-.074-.451.022-.666.139-.307.285-.088.418.005a2.963,2.963,0,0,0,2.585.52,1.469,1.469,0,0,0,1.123-1.286,1.28,1.28,0,0,0-.9-1.328c-.508-.222-1.043-.379-1.566-.571-1.459-.537-1.953-1.283-1.7-2.555a2.43,2.43,0,0,1,2.63-1.825,3.616,3.616,0,0,1,1.762.559c.247.149.22.285.078.483-.13.18-.19.359-.486.164a2.3,2.3,0,0,0-1.882-.358,1.289,1.289,0,0,0-1.074,1.064,1.108,1.108,0,0,0,.783,1.267c.52.234,1.074.391,1.611.588a2.374,2.374,0,0,1,1.784,1.682,2.549,2.549,0,0,1-2.428,3.019C1190.239,992.208,1190.087,992.208,1189.921,992.216Z" transform="translate(-1027.702 -973.156)" fill="#fff"/>
                <path id="Path_195" data-name="Path 195" d="M1214.6,992.068c-.461.134-.6-.081-.7-.418-.182-.595-.415-1.174-.6-1.769a.4.4,0,0,0-.456-.344c-.827.019-1.655.015-2.482,0a.407.407,0,0,0-.473.324c-.214.656-.488,1.291-.7,1.948-.132.412-.447.324-.693.271-.263-.054-.036-.256,0-.359.61-1.694,1.233-3.383,1.855-5.073.28-.759.6-1.5.83-2.275.158-.525.6-.464.952-.6.144-.059.173.114.21.224q1.311,3.9,2.621,7.8C1215.15,992.322,1214.679,992,1214.6,992.068Zm-2.917-7.021c-.476,1.271-.913,2.436-1.347,3.6-.059.158-.087.288.169.286.807-.01,1.615,0,2.479,0Z" transform="translate(-1013.164 -973.133)" fill="#fff"/>
                <path id="Path_196" data-name="Path 196" d="M1214.795,998.547a6.6,6.6,0,0,0-.688.005c-.249.029-.356-.081-.428-.3-.208-.642-.441-1.274-.647-1.915a.4.4,0,0,0-.458-.342c-.844.022-1.689.019-2.535,0a.384.384,0,0,0-.43.312c-.191.556-.439,1.1-.595,1.664-.139.5-.378.72-.92.529q1.072-2.925,2.15-5.865a18.665,18.665,0,0,0,.639-1.755c.14-.544.578-.557.959-.657.279-.074.232.242.281.385.729,2.135,1.44,4.276,2.156,6.415C1214.446,997.513,1214.612,998.006,1214.795,998.547Zm-3.4-7.053c-.468,1.259-.9,2.423-1.333,3.583-.074.2-.09.313.183.31.727-.008,1.452-.008,2.179,0,.224,0,.263-.09.2-.276C1212.228,993.935,1211.83,992.759,1211.4,991.494Z" transform="translate(-1013.36 -968.654)" fill="#fff"/>
                <path id="Path_197" data-name="Path 197" d="M1201.243,993.378c0,.861.025,1.723-.005,2.582a2.809,2.809,0,0,1-3.055,2.7,2.763,2.763,0,0,1-2.846-2.745c-.027-1.706-.01-3.411-.009-5.117,0-.266.664-.7.881-.573.159.095.081.278.081.419.005,1.554,0,3.107.005,4.661a8.043,8.043,0,0,0,.042.808,1.717,1.717,0,0,0,1.684,1.747,2.055,2.055,0,0,0,2.379-1.428,3.242,3.242,0,0,0,.117-.95c-.005-1.571,0-3.141-.005-4.712,0-.278-.007-.451.381-.456.427-.007.359.23.359.479,0,.861,0,1.721,0,2.584Z" transform="translate(-1022.228 -968.657)" fill="#fff"/>
                <path id="Path_198" data-name="Path 198" d="M1221.031,983.826c-.117.452-.262.72-.784.686-.808-.053-1.621,0-2.433-.02-.288-.007-.375.081-.366.368.02.691.018,1.384,0,2.077-.007.28.066.383.362.373.624-.022,1.25-.015,1.876,0,.142.005.43-.119.406.105s-.076.557-.459.554c-.591-.005-1.183.02-1.774-.009-.339-.017-.422.095-.413.42q.036,1.291,0,2.584c-.009.342.066.468.435.456.913-.029,1.826,0,2.738-.013.247,0,.4,0,.4.335-.007.3-.132.317-.367.317-1.267-.008-2.535-.012-3.8,0-.271,0-.337-.08-.337-.342.01-2.518.007-5.033.007-7.551,0-.166-.034-.344.236-.342C1218.166,983.829,1219.579,983.826,1221.031,983.826Z" transform="translate(-1007.517 -973.086)" fill="#fff"/>
                <path id="Path_199" data-name="Path 199" d="M1192.15,990.281c-.1.479-.3.717-.82.684-.791-.047-1.588,0-2.381-.019-.293-.007-.376.091-.368.375.019.659.025,1.318,0,1.975-.015.346.071.468.437.452.739-.029,1.479-.009,2.247-.009-.087.5-.313.727-.823.679-.486-.044-.981.012-1.469-.015-.325-.019-.395.1-.39.4.017,1.1-.015,2.2.017,3.293.012.418-.192.408-.488.407s-.495.019-.491-.4c.022-2.484.012-4.966.008-7.45,0-.222,0-.381.307-.378C1189.334,990.29,1190.732,990.281,1192.15,990.281Z" transform="translate(-1027.574 -968.607)" fill="#fff"/>
                <path id="Path_200" data-name="Path 200" d="M1199.639,987.3c-.125.554-.407.727-.894.674-.434-.046-.881.024-1.316-.019s-.52.137-.51.539c.029,1.045-.01,2.094.02,3.141.01.388-.146.437-.469.424-.291-.01-.488.017-.484-.4.024-2.482.012-4.966.01-7.448,0-.208-.03-.39.295-.386,1.4.015,2.8.007,4.217.007-.092.51-.312.735-.854.7-.79-.054-1.588-.005-2.38-.019-.256,0-.357.061-.351.337.019.691.024,1.386,0,2.077-.012.337.127.39.417.383C1198.091,987.292,1198.846,987.3,1199.639,987.3Z" transform="translate(-1021.767 -973.086)" fill="#fff"/>
                <path id="Path_201" data-name="Path 201" d="M1198.877,984.484c.075-.456.234-.678.724-.667,1.537.032,3.077.01,4.615.007.237,0,.451-.047.446.339s-.246.32-.469.322c-.507,0-1.015.022-1.522-.007-.357-.019-.452.1-.449.456.015,2.181.005,4.359.008,6.54,0,.341.07.632-.489.61-.5-.019-.468-.249-.466-.588.007-2.18-.007-4.359.012-6.54,0-.381-.095-.5-.478-.479C1200.173,984.508,1199.536,984.484,1198.877,984.484Z" transform="translate(-1019.759 -973.091)" fill="#fff"/>
                <path id="Path_202" data-name="Path 202" d="M1211.785,990.923c.059-.446.214-.652.683-.644,1.52.029,3.041,0,4.561.01.208,0,.527-.164.535.3.007.491-.332.318-.559.329a14.159,14.159,0,0,1-1.418,0c-.352-.022-.456.085-.454.444.017,2.23-.007,4.459.022,6.689.005.453-.187.458-.528.473-.375.017-.483-.081-.478-.469.02-2.213,0-4.425.019-6.638,0-.4-.1-.524-.5-.5C1213.047,990.949,1212.425,990.923,1211.785,990.923Z" transform="translate(-1010.798 -968.617)" fill="#fff"/>
                <path id="Path_203" data-name="Path 203" d="M1216.761,994.376c0,1.266-.022,2.531.012,3.8.012.463-.259.361-.512.371s-.466.044-.463-.368c.022-2.445.01-4.891.012-7.338,0-.295.581-.708.852-.607.18.066.093.232.095.349C1216.765,991.846,1216.761,993.11,1216.761,994.376Z" transform="translate(-1008.011 -968.649)" fill="#fff"/>
              </g>
              <rect id="Rectangle_155" data-name="Rectangle 155" width="237.206" height="49.511" fill="none"/>
            </g>
          </g>
        </g>
      </g>
    </g>
  </g>
</svg>
