<svg xmlns="http://www.w3.org/2000/svg" width="271" height="270.999" viewBox="0 0 271 270.999">
  <g id="Mosaic_2016" data-name="Mosaic 2016" transform="translate(135.5 135.5)">
    <g id="Group_197" data-name="Group 197" transform="translate(-135.5 -135.5)">
      <rect id="Rectangle_164" data-name="Rectangle 164" width="270.999" height="270.999" transform="translate(0)" fill="#a5d8de"/>
      <path id="Path_212" data-name="Path 212" d="M3.847,21.5,0,22.432V241.067H271V49.455l-5.422-2.631-5.933-1.679-6.335-.128-5.584-3.341-6.3,1.289-6.051-.222-6.388-.906-6.357.846-6.278,2.551-6.559.857-6.369-3.317-6.752,2.414-6.251-2.517-6.564-.219-6.328-1.616-6.583-.323-6.114-2.573-6.663.031-5.844-3.859-6.738.381-6.581.32-6.393-1.708-6.523,1.366L119.471,31.4l-6.441,2.149-6.514.571-6.6-.246-6.424,1.457-6.367,2.2L80.37,35.211l-6.422,2.262-6.463-2.317-6.87,1.905L54.86,32.877l-6.771-.248-6.239-2.1L35.3,29.31l-5.56-3.967-6.68-.487-6.246-1.862-6.383-1.749Z" transform="translate(0 29.931)" fill="#8ec9d1"/>
      <path id="Path_213" data-name="Path 213" d="M128.614,57.363l-2.968,2.175L122.341,60l-3.459-.455-2.917,2.479L112.836,63.3l-2.973,2.308-3.274.347-3.353-.5L100.491,70.4V191.142h28.931V56.681Z" transform="translate(141.579 79.856)" fill="#5db6c9"/>
      <path id="Path_214" data-name="Path 214" d="M190.723,55.4l-1.961,2.44-2.279,1.412-3.445-2.279L181.8,61.663l-3.794-3.331-2.57.5-1.214,4.712-3.317-1.814-1.337,4.3-2.549.556-3.707-3-1.25,4.55-2.78-.147-2.977-.759-2.457.841-3.158-1.306-2.476.788-2.38,1.082-1.869,2.635-2.407.992-2.4.995L136.087,72.2l-1.318,4.37-2.334,1.221-2.144,1.824-4.367-5.169-1.168,4.892-3.611-2.818-1.108,5.138-3.9-3.811-1.71,3.247-1.934,2.536-3.8-3.56-1.045,5.5L104.254,83.3l-2.58.419-2.363,1.137-2.561.467-2.11,2.04-3.346-2.3-1.987,2.481-1.2,5.4-3.515-3.018-2.8-.463-1.925,2.869-3.452-3.016L74.8,93.52l-3.4-2.982L69.54,93.869,66.791,93.5l-2.575.347-2.527.54-1.626,4.811-3.635-4.758.3,99.34H191.5V54.812Z" transform="translate(79.5 77.223)" fill="#308698"/>
      <path id="Path_215" data-name="Path 215" d="M120.449,77.665l-2.163-5.883-2.1,5.119-2.226-4.1-2.021,4.982-2.305-4.606-2.182-.349-2.1,1.375L103,71.046l-1.831,5.425-2.32-2.337L97.025,78.54l-2.63-5.711-1.641,5.947-2.775-6.451-2.125.624-1.78,3.719-2.293-1.082-2.214-.294-1.6,4.647L77.68,78.932l-2.064.778L72.949,76.16,71.38,80.421l-2.905-4.9L66.57,77.4l-1.662,3.317-1.836,2.088-2.6-2.522L57.8,77.42l-1.527,3.835-2.45-1.467L52.569,84.94l-2.125.294-3.416-6.49-1.178,5.3L43.9,85.306,41.212,82.8l-2.091.556-1.59,2.977-2.5-1.436-1.438,3.633-2.578-1.775-2.732-2.433-2.315-.472-1.783,1.956-2.12.419-2.642-1.9-1.014,5.307L15.4,86.121l-2,.956-1.3,3.972-2.233-.082-2.293-.335-2.6-1.638L2.467,87.778.54,89.014,0,89.792v83.051H271V106.909l-.419-.708-3.348,3.859-1.149-3.917-1.469-2.775-3.948,5.94-.407-6.506-2.951,2.426-.968-4.507-3.782,5.312-.159-7.316-3.2,3.29-1.951-1.072-1.855-1.412-2.5.824-1.542-2.5-1.515-2.582-3.12,2.96-3.018,2.626-2.139-.434-.342-6.651-2.946,2.37-1.715-1.9-2.592,1.147-2.175-.3-2.953,2.4-.359-6.617-1.9-1.277-3.852,5.55-1.532-2.549-.554-5.974-3.17,3.184-2.11-.515-2.722,1.633-.482-6.3-3.344,3.859-.831-5.1-2.845,2.1-2.219-.132-1.638-2.24-2.669,1.5-2.934,2.513-2.231-.06-2.195-.169-.229-7.581L179,78.4l-2.014-.92-3.91,6.434-1.932-1.178-2.276.181-.328-7.706-3.914,6.872-1.792-1.636-1.407-3.611-2.708,2.484-2.038-.715-1.92-1.457L152.4,78.333l-1.631-3.608-2.141-.381-1.865-2.679-2.5,2.561-2.3,1.228-2.125-.419-2.353,2.447-1.862-4.052-2.252,1.409-2.233,1.65-1.91-6.025-2.342,5.179-2.1-2.4-2.127-3.572Z" transform="translate(0.001 98.157)" fill="#2f5a5b"/>
    </g>
  </g>
</svg>
