<svg xmlns="http://www.w3.org/2000/svg" xmlns:xlink="http://www.w3.org/1999/xlink" width="271" height="271" viewBox="0 0 271 271">
  <defs>
    <clipPath id="clip-path">
      <rect id="Rectangle_526" data-name="Rectangle 526" width="271" height="271" fill="none"/>
    </clipPath>
  </defs>
  <g id="Mosaic_2021" data-name="Mosaic 2021" transform="translate(135.5 135.5)">
    <g id="Group_358" data-name="Group 358" transform="translate(-135.5 -135.5)">
      <rect id="Rectangle_525" data-name="Rectangle 525" width="271" height="271" transform="translate(0)" fill="#b7312c"/>
      <g id="Group_357" data-name="Group 357" transform="translate(0)">
        <g id="Group_356" data-name="Group 356" clip-path="url(#clip-path)">
          <path id="Path_429" data-name="Path 429" d="M499.328,842.4c2.705-24.968-9.927-33.39,3.91-50.237s55.65-37,80.011-92.646S599.2,567.457,519.48,518.429s-167.55,12.333-200.937,76.4c-50.3,96.524,18.948,190.213-22.564,251.777-37.873,56.168-149.8,30.682-233.426-28.878s-141.1-138.574-88.835-183.892c51.331-44.521,139.451,85.111,223.48,66.81,84.949-18.5,80.17-211.019,100.829-292.379,0,0,99.034-20.333,169.058-96.377s50.088-146.109,25.021-166.765c-23.638-19.478-93.128-33.219-157.257,34.529-72.857,76.95-84.005,181.474-84.1,182.057,0,0-105.023,33.565-191.054-52.466C-35.159,214.394-4.227,142.12-4.227,142.12s36.837,37.029,84.713,46.6c58.827,11.767,98.861-5.989,110.609-51.418,10.51-40.633-26.5-84.21-79.811-94.255-44.5-8.383-98.063,7.017-98.063,7.017s4.006-84.942,93.72-127.724,156.8,14.34,156.8,14.34l25.344-48.211c1.474,1.221-84.993-65.245-195.286-23.333C13.587-104.38-53.076-23.862-37.831,84.427c-64.484,88.931-16.944,190.358,70.537,272.465,91.93,86.282,208.128,62.776,208.128,62.776-18.854,65.368-21.562,214.822-60.865,224.448-45.041,11.03-161.926-136.437-250.113-50.529C-163.3,684.332-74.012,796.673,34.277,867.667s229.659,102.137,299,22.258c76.887-88.565-13.947-204.262,38.3-274.139,49.936-66.779,98.463-66.377,130.152-42.31,45.041,34.211,45.282,77.754,18.447,118.72-41.912,63.973-105.483,74.6-97.488,135.989,5.695,43.753,39.665,65.148,39.665,65.148s34.259-25.973,36.969-50.936M106.874,99.605c36.3,11.131,32.763,49.522-10.558,38.294-28.81-7.47-60.836-35.09-60.836-35.09s41.312-12.432,71.395-3.2m208.241,243.2c.173-.511,23.829-92.145,61.933-130.249,37.812-37.812,74.35-25.284,74.271-25.207.212.212,15.752,39.906-20.377,79.1-47.327,51.336-115.316,76.181-115.827,76.355" transform="translate(-153.78 -209.561)" fill="#540d37"/>
        </g>
      </g>
    </g>
  </g>
</svg>
