<svg id="Mosaic_2022" data-name="Mosaic 2022" xmlns="http://www.w3.org/2000/svg" xmlns:xlink="http://www.w3.org/1999/xlink" width="270" height="270" viewBox="0 0 270 270">
  <defs>
    <clipPath id="clip-path">
      <rect id="Rectangle_471" data-name="Rectangle 471" width="270" height="270" fill="none"/>
    </clipPath>
  </defs>
  <g id="Mosaic_2022-2" data-name="Mosaic 2022" transform="translate(135 135)">
    <g id="Group_349" data-name="Group 349" transform="translate(-135 -135)">
      <rect id="Rectangle_470" data-name="Rectangle 470" width="270" height="270" fill="#197b89"/>
      <g id="Group_348" data-name="Group 348">
        <g id="Group_347" data-name="Group 347" clip-path="url(#clip-path)">
          <path id="Path_427" data-name="Path 427" d="M1014.885,65.8v95.311a5.076,5.076,0,0,1-5.076,5.076h-1.433a5.074,5.074,0,0,1-5.074-5.076V84.833a31.72,31.72,0,0,0-31.721-31.718H764.843a31.72,31.72,0,0,0-31.721,31.718V213.785a5.072,5.072,0,0,1-5.074,5.074h-1.433a5.074,5.074,0,0,1-5.076-5.074V84.833a31.718,31.718,0,0,0-31.718-31.718H483.081a31.718,31.718,0,0,0-31.718,31.718V213.785a5.074,5.074,0,0,1-5.076,5.074h-1.433a5.074,5.074,0,0,1-5.076-5.074V84.833a31.718,31.718,0,0,0-31.718-31.718H201.321A31.719,31.719,0,0,0,169.6,84.833v90.691a6.344,6.344,0,0,1-6.343,6.343h-2.184a6.344,6.344,0,0,1-6.343-6.343V31.721A31.719,31.719,0,0,0,123.011,0H6.345A6.346,6.346,0,0,0,0,6.346v43.62A38.065,38.065,0,0,0,38.063,88.03H49.216V244.284a25.376,25.376,0,0,0,25.375,25.375H271.665a25.376,25.376,0,0,0,25.375-25.375V130.99a5.072,5.072,0,0,1,5.074-5.074h5.153a5.074,5.074,0,0,1,5.074,5.074V244.284a25.376,25.376,0,0,0,25.375,25.375h215.71A25.375,25.375,0,0,0,578.8,244.284V130.99a5.074,5.074,0,0,1,5.076-5.074h5.15a5.074,5.074,0,0,1,5.076,5.074V244.284a25.375,25.375,0,0,0,25.375,25.375h215.71a25.376,25.376,0,0,0,25.375-25.375V130.99a5.074,5.074,0,0,1,5.074-5.074h5.153a5.072,5.072,0,0,1,5.074,5.074V244.284a25.376,25.376,0,0,0,25.375,25.375h159.01a25.375,25.375,0,0,0,25.375-25.375V21.394a6.342,6.342,0,0,0-6.343-6.343h-13.644a50.749,50.749,0,0,0-50.75,50.75" transform="translate(-0.001)" fill="#dca335"/>
        </g>
      </g>
    </g>
  </g>
</svg>
