<svg id="mosaic_2002" data-name="mosaic 2002" xmlns="http://www.w3.org/2000/svg" width="271" height="271" viewBox="0 0 271 271">
  <g id="Group_2204" data-name="Group 2204" transform="translate(0.433 0.041)">
    <path id="Path_3653" data-name="Path 3653" d="M146.89.15H271.377a3.018,3.018,0,0,1,.145,1.568q.012,132.976.008,265.954c0,.5,0,1,.024,1.5.071,1.38,0,1.465-1.407,1.465q-132.716,0-265.432-.005a11.97,11.97,0,0,1-3.076-.124v-1.4q0-133.679.005-267.358c0-.532.008-1.065.011-1.6H126.543c0,7.559-.016,15.117.024,22.676.005.834-.227,1.128-1.034,1.274C108.888,27.153,96.573,36.394,87.9,50.722a71.592,71.592,0,0,0-9.288,26.222c-.632.747-.251,1.639-.352,2.463a104.631,104.631,0,0,0-.389,16.46c.013,1.187.024,2.376.04,3.562,0,.228,0,.479.3.543.354,3.138.78,6.269,1.335,9.378,1.206,6.767,2.782,13.443,4.644,20.062,2.184,7.755,4.287,15.528,6.958,23.137,4.755,13.552,9.713,27.027,14.7,40.494a1.229,1.229,0,0,0,1.41.951c6.151-.034,12.3-.013,18.451-.029.6,0,.91-.029.849.81-.376,5.241-1.01,10.448-1.825,15.634a107.062,107.062,0,0,1-6.392,24.4,40.3,40.3,0,0,1-8.46,13.38,22.065,22.065,0,0,1-6.527,4.439c8.105.445,15.634-1.171,22.113-6.314s9.536-12.265,11.094-20.184c4.168,22.742,21.722,27.509,33.3,26.439a22.409,22.409,0,0,1-9.042-7.13,48.2,48.2,0,0,1-6.931-12.922,108.055,108.055,0,0,1-5.178-20.107c-.822-4.812-1.484-9.651-1.838-14.527L146.858,194q9.623-.012,19.244-.013c.558,0,.9-.1,1.121-.686,5.059-13.793,10.179-27.565,15.016-41.437,3.189-9.145,5.68-18.491,8.161-27.84A151.021,151.021,0,0,0,195.2,96.772c.473-.193.3-.622.309-.948.09-4,.106-8.006,0-12.011-.008-.3.159-.691-.3-.84-.019-.32-.04-.638-.058-.959a5.791,5.791,0,0,0,.005-1.091c-.119-.646.294-1.39-.349-1.939-.14-.951-.267-1.907-.426-2.855a73.3,73.3,0,0,0-12.76-31.262,51.037,51.037,0,0,0-21.336-17.3,60.03,60.03,0,0,0-11.4-3.459c-.19-.437-.6-.389-.944-.368-.8.045-1.09-.246-1.087-1.086.032-7.5.024-15,.026-22.5Z" transform="translate(-1.64 -0.15)" fill="#fccb12"/>
    <path id="Path_3654" data-name="Path 3654" d="M289.48,95.855a104.467,104.467,0,0,1,.39-16.457,12.24,12.24,0,0,0,.353-2.463,71.328,71.328,0,0,1,9.326-26.217c8.71-14.325,21.077-23.564,37.789-26.614.81-.148,1.044-.442,1.038-1.274-.04-7.557-.024-15.114-.024-22.671h20.034q.012,10.764.019,21.525a2.2,2.2,0,0,0,2.4,2.425,60.478,60.478,0,0,1,11.448,3.458,51.227,51.227,0,0,1,21.425,17.3,73.123,73.123,0,0,1,12.813,31.256c.159.948.287,1.9.428,2.852A19.069,19.069,0,0,0,407.26,82c.019.32.04.638.058.959a127.887,127.887,0,0,1-.013,13.8A150.392,150.392,0,0,1,402.48,124c-2.491,9.347-4.992,18.694-8.2,27.835-4.857,13.872-10,27.639-15.078,41.429-.218.59-.566.686-1.126.686q-9.664-.012-19.325.013c-.247-.045-.393.053-.345.3.215,1.184.043,2.407.369,3.58.356,4.875,1.02,9.713,1.846,14.524a107.5,107.5,0,0,0,5.2,20.1,48.122,48.122,0,0,0,6.96,12.919,22.51,22.51,0,0,0,9.079,7.128c-11.626,1.07-29.254-3.7-33.439-26.434-1.564,7.917-4.626,15.03-11.14,20.18s-14.064,6.757-22.206,6.313a22.162,22.162,0,0,0,6.554-4.438,40.271,40.271,0,0,0,8.5-13.377,106.668,106.668,0,0,0,6.419-24.393c.818-5.187,1.458-10.393,1.832-15.631.061-.837-.25-.81-.852-.81-6.177.016-12.354-.005-18.528.029a1.231,1.231,0,0,1-1.415-.951c-5.011-13.462-9.99-26.937-14.765-40.487-2.679-7.607-4.793-15.379-6.987-23.132-1.872-6.617-3.452-13.293-4.663-20.058-.558-3.111-.985-6.238-1.341-9.376a37.963,37.963,0,0,0-.348-4.1Z" transform="translate(-213.492 -0.157)"/>
  </g>
  <path id="Path_3655" data-name="Path 3655" d="M.442,270.394a11.971,11.971,0,0,0,3.076.124q132.718.016,265.436.005c1.407,0,1.478-.085,1.407-1.465-.026-.5-.024-1-.024-1.5q0-132.976-.008-265.956a2.993,2.993,0,0,0-.145-1.568c.682-.151.817.117.817.8q-.028,134.677.011,269.353c0,.861-.341.805-.926.805q-135.011-.012-270.024-.008Q.061,135.961.074.934c0-.291-.23-.678.188-.9C.259.166.251.3.251.434v268.9a1.464,1.464,0,0,0,.193,1.054Z" transform="translate(-0.011 0.004)" fill="#fcfdea"/>
  <path id="Path_3656" data-name="Path 3656" d="M1.079,270.513a1.472,1.472,0,0,1-.194-1.054V.56C.886.427.891.292.9.16h.2c0,.532-.011,1.065-.011,1.6q0,133.679-.005,267.357Z" transform="translate(-0.647 -0.116)" fill="#f6efc9"/>
  <path id="Path_3657" data-name="Path 3657" d="M551.8,24.17a2.2,2.2,0,0,1-2.4-2.433Q549.4,10.942,549.39.15h.4c0,7.521.005,15.041-.027,22.562,0,.842.292,1.134,1.091,1.089C551.2,23.779,551.613,23.732,551.8,24.17Z" transform="translate(-404.109 -0.109)" fill="#caac44"/>
  <path id="Path_3658" data-name="Path 3658" d="M733.61,326.688a129.3,129.3,0,0,0,.013-13.838c.459.151.295.547.3.844.1,4.015.088,8.028,0,12.043-.008.327.165.759-.311.951Z" transform="translate(-539.607 -230.005)" fill="#b8a676"/>
  <path id="Path_3659" data-name="Path 3659" d="M289.91,361.56a38.174,38.174,0,0,1,.348,4.116c-.311-.066-.3-.316-.305-.544-.019-1.19-.029-2.382-.04-3.572Z" transform="translate(-213.245 -265.806)" fill="#b8a676"/>
  <path id="Path_3660" data-name="Path 3660" d="M549.827,735.946c-.327-1.176-.154-2.4-.369-3.59-.045-.255.1-.351.345-.305Q549.815,734,549.827,735.946Z" transform="translate(-404.148 -538.17)" fill="#b8a676"/>
  <path id="Path_3661" data-name="Path 3661" d="M732.475,300.838a19.149,19.149,0,0,1-.345-3.038c.645.55.228,1.3.351,1.944A5.587,5.587,0,0,1,732.475,300.838Z" transform="translate(-538.519 -218.931)" fill="#b8a676"/>
  <path id="Path_3662" data-name="Path 3662" d="M291.662,290.11a12.118,12.118,0,0,1-.353,2.47C291.407,291.754,291.025,290.859,291.662,290.11Z" transform="translate(-214.255 -213.277)" fill="#b8a676"/>
</svg>
