<svg id="_2023_logo" data-name="2023 logo" xmlns="http://www.w3.org/2000/svg" xmlns:xlink="http://www.w3.org/1999/xlink" width="541" height="271" viewBox="0 0 541 271">
  <defs>
    <clipPath id="clip-path">
      <rect id="Rectangle_137" data-name="Rectangle 137" width="541" height="271" fill="none"/>
    </clipPath>
  </defs>
  <g id="Group_94" data-name="Group 94">
    <rect id="Rectangle_136" data-name="Rectangle 136" width="541" height="271" fill="#dbd990"/>
    <g id="Group_93" data-name="Group 93" clip-path="url(#clip-path)">
      <g id="Group_92" data-name="Group 92" transform="translate(-2.34 -0.016)">
        <path id="Path_145" data-name="Path 145" d="M0-.01.016,271.006h270.5Z" transform="translate(2.34 0.01)" fill="#b7a763"/>
        <path id="Path_146" data-name="Path 146" d="M269.056-.01,539.54,271.006h-541L200.15,69.024Z" transform="translate(1.46 0.01)" fill="#0d392a"/>
        <path id="Path_147" data-name="Path 147" d="M439.246.01l-.032,271.016H168.73Z" transform="translate(104.094 0.022)" fill="#b7a763"/>
      </g>
    </g>
  </g>
  <g id="Group_97" data-name="Group 97" transform="translate(45.933 116.525)">
    <g id="Group_95" data-name="Group 95">
      <path id="Path_148" data-name="Path 148" d="M39.751,105.345a13.882,13.882,0,0,1-4.135-.641,16.359,16.359,0,0,1-3.879-1.763,15.108,15.108,0,0,1-3.077-2.484l4.071-3.927a10.744,10.744,0,0,0,3.318,2.292,8.961,8.961,0,0,0,3.638.865,5.482,5.482,0,0,0,3.638-1.25,3.784,3.784,0,0,0,1.491-3,3.314,3.314,0,0,0-1.058-2.452,6.148,6.148,0,0,0-2.6-1.491,53.479,53.479,0,0,1-6.924-2.324,9.506,9.506,0,0,1-4.231-3.237A7.882,7.882,0,0,1,29,80.551a8.326,8.326,0,0,1,1.763-4.407,8.794,8.794,0,0,1,3.654-2.628,13.354,13.354,0,0,1,4.9-.865,18.676,18.676,0,0,1,10.321,3.237L45.761,79.91a16.8,16.8,0,0,0-2.885-1.234,11.391,11.391,0,0,0-3.205-.545,8.126,8.126,0,0,0-2.436.256A4.323,4.323,0,0,0,35.3,79.4a2.62,2.62,0,0,0-.817,1.891,2.588,2.588,0,0,0,.689,2.051A5.38,5.38,0,0,0,37.2,84.526c.865.3,1.875.641,3.045,1.01a28.847,28.847,0,0,1,5.433,1.987,8.556,8.556,0,0,1,3.43,2.965A9.13,9.13,0,0,1,50.3,95.44a9.285,9.285,0,0,1-1.41,5.016,10.393,10.393,0,0,1-3.8,3.558,10.728,10.728,0,0,1-5.3,1.33Z" transform="translate(-28.66 -72.458)" fill="#fff"/>
      <path id="Path_149" data-name="Path 149" d="M44,104.736,53.869,72.81H60.76l9.921,31.926h-5.85l-2.292-7.725H52.122l-2.292,7.725H43.98ZM57.33,79.653,53.58,92.267h7.5Z" transform="translate(-19.427 -72.361)" fill="#fff"/>
      <path id="Path_150" data-name="Path 150" d="M77.8,104.784H62.77V72.81h5.481V99.4H77.8v5.385Z" transform="translate(-8.102 -72.361)" fill="#fff"/>
      <path id="Path_151" data-name="Path 151" d="M97.57,77.826H88.53v26.957H83.049V77.826H74.01V72.81H97.586v5.016Z" transform="translate(-1.328 -72.361)" fill="#fff"/>
      <path id="Path_152" data-name="Path 152" d="M116.283,104.784H101.25V72.81h5.481V99.4h9.552v5.385Z" transform="translate(15.089 -72.361)" fill="#fff"/>
      <path id="Path_153" data-name="Path 153" d="M112.5,104.736l9.873-31.926h6.892l9.921,31.926h-5.85l-2.292-7.725H120.622l-2.292,7.725h-5.85ZM125.83,79.653l-3.75,12.613h7.5l-3.75-12.613Z" transform="translate(21.857 -72.361)" fill="#fff"/>
      <path id="Path_154" data-name="Path 154" d="M153.563,104.82h-6.491l-9.36-11.459-1.01-1.33V104.82H131.27V72.8H136.7V85.684L146.976,72.75h6.667L141.575,88.745l11.972,16.075Z" transform="translate(33.182 -72.397)" fill="#fff"/>
      <path id="Path_155" data-name="Path 155" d="M164.6,104.784H147.37V72.81H164.6v5.113H152.851v8.911h9.5v4.616h-9.5v8.222H164.6v5.113Z" transform="translate(42.885 -72.361)" fill="#fff"/>
      <path id="Path_156" data-name="Path 156" d="M186.006,105.465a14.2,14.2,0,0,1-6.074-1.3A17.2,17.2,0,0,1,175,100.721a16.126,16.126,0,0,1-3.382-5.145,16.882,16.882,0,0,1-1.234-6.555,16.469,16.469,0,0,1,1.25-6.507A17.212,17.212,0,0,1,175,77.29a16.151,16.151,0,0,1,4.9-3.478,14.943,14.943,0,0,1,12.725.288,18.227,18.227,0,0,1,5.85,4.872l-4.439,3.654a12.234,12.234,0,0,0-3.879-3.35,9.133,9.133,0,0,0-4.151-1.026,8.752,8.752,0,0,0-3.814.817,10.681,10.681,0,0,0-3.173,2.292,10.17,10.17,0,0,0-2.148,3.366,11.659,11.659,0,0,0-.769,4.311,11.227,11.227,0,0,0,.769,4.263,10.871,10.871,0,0,0,2.148,3.366,10.3,10.3,0,0,0,3.157,2.292,9.131,9.131,0,0,0,7.981-.208,12.476,12.476,0,0,0,3.879-3.35l4.439,3.654a18.227,18.227,0,0,1-5.85,4.872,14.729,14.729,0,0,1-6.619,1.571Z" transform="translate(56.753 -72.53)" fill="#fff"/>
      <path id="Path_157" data-name="Path 157" d="M195.531,104.784H190.05V72.81h5.481v31.974Z" transform="translate(68.608 -72.361)" fill="#fff"/>
      <path id="Path_158" data-name="Path 158" d="M219.169,77.826H210.13v26.957h-5.481V77.826H195.61V72.81h23.576v5.016Z" transform="translate(71.959 -72.361)" fill="#fff"/>
      <path id="Path_159" data-name="Path 159" d="M238.027,72.81,227.882,93.869v10.914h-5.529V93.869L212.16,72.81h5.433l7.5,15.482,7.485-15.482h5.433Z" transform="translate(81.933 -72.361)" fill="#fff"/>
    </g>
    <g id="Group_96" data-name="Group 96" transform="translate(317.12 0.417)">
      <path id="Path_160" data-name="Path 160" d="M255.6,104.78v-2.6a11.034,11.034,0,0,1-2.965,2.051,8.414,8.414,0,0,1-3.606.769,12.2,12.2,0,0,1-6.186-1.571,11.341,11.341,0,0,1-4.263-4.263,11.639,11.639,0,0,1-1.555-5.946V72.806h5.433l.048,20.418a5.805,5.805,0,0,0,.865,3.125,5.9,5.9,0,0,0,2.356,2.164,7.125,7.125,0,0,0,3.318.769,7.048,7.048,0,0,0,3.4-.8,5.938,5.938,0,0,0,2.324-2.164,5.84,5.84,0,0,0,.849-3.109V72.79h5.481V92.343a3.179,3.179,0,0,1-.1.817h.1v11.6h-5.481Z" transform="translate(-220.08 -72.79)" fill="#fff"/>
      <path id="Path_161" data-name="Path 161" d="M277.729,77.816H268.69v26.957h-5.481V77.816H254.17V72.8h23.576v5.016Z" transform="translate(-209.743 -72.784)" fill="#fff"/>
      <path id="Path_162" data-name="Path 162" d="M270.736,104.726,280.609,72.8H287.5l9.921,31.926h-5.85L289.279,97H278.862l-2.292,7.725h-5.85ZM284.07,79.643l-3.75,12.613h7.5Z" transform="translate(-199.769 -72.784)" fill="#fff"/>
      <path id="Path_163" data-name="Path 163" d="M312.31,104.774h-5.481V91.76H295v13.014H289.52V72.8H295V86.727h11.828V72.8h5.481Z" transform="translate(-188.438 -72.784)" fill="#fff"/>
      <path id="Path_164" data-name="Path 164" d="M226.45,92.958a2.861,2.861,0,0,1,.9-2.051,3.1,3.1,0,0,1,2.132-.865,2.651,2.651,0,0,1,2.083.817,2.917,2.917,0,0,1,.849,2.1A8.9,8.9,0,0,1,232,95.33c-.272.946-.609,1.907-.978,2.885-.385.978-.753,1.875-1.122,2.693l-2.051-.865a9.012,9.012,0,0,0,.769-2.051,21.152,21.152,0,0,0,.417-2.2,2.4,2.4,0,0,1-1.827-.849,2.677,2.677,0,0,1-.737-1.987Z" transform="translate(-226.45 -62.395)" fill="#fff"/>
    </g>
  </g>
</svg>
