<svg xmlns="http://www.w3.org/2000/svg" width="540.892" height="540.892" viewBox="0 0 540.892 540.892">
  <g id="Headline_logo_cube" data-name="Headline logo cube" transform="translate(-520.123 -0.107)">
    <g id="Group_2203" data-name="Group 2203">
      <rect id="Rectangle_3572" data-name="Rectangle 3572" width="540.892" height="270.446" transform="translate(520.123 0.107)" fill="#0d392a"/>
      <path id="Path_3647" data-name="Path 3647" d="M11.172,0h90.16V-10H21.756c0-14.112,6.272-15.68,26.068-26.068,29.008-14.9,54.292-30.968,54.292-59.78,0-22.148-19.012-42.728-47.628-42.728-30.576,0-42.14,15.092-44.3,31.752H21.756c2.156-15.484,13.916-21.56,30.576-21.56,21.168,0,40.18,13.916,40.18,33.32,0,19.208-20.384,36.652-49.784,50.568C25.088-36.26,11.172-31.556,11.172-10.584Zm293.8-19.6c9.6-12.74,14.308-30.184,14.308-49,0-18.62-4.7-36.064-14.308-48.8-9.6-12.544-24.108-20.776-43.708-20.776s-34.1,7.84-43.708,20.384-14.308,30.184-14.308,49.2c0,18.816,4.9,36.26,14.308,49C227.164-7.056,241.472.98,261.268.98,280.868.98,295.372-7.056,304.976-19.6Zm-7.252-90.356C305.564-98.98,308.9-84.28,308.7-68.6c0,15.484-3.136,30.38-10.976,41.356C290.08-16.268,277.732-9.212,261.268-9.212c-16.66,0-29.008-7.056-36.848-18.032C216.776-38.22,213.64-53.116,213.64-68.6s3.136-30.38,10.976-41.356c7.644-10.976,19.992-17.64,36.652-17.64C277.732-127.6,290.08-120.932,297.724-109.956Z" transform="translate(623 193.148)" fill="#fff"/>
      <path id="Path_3648" data-name="Path 3648" d="M11.419-13.3,7.125-4.522V0H5.073V-4.522L.76-13.3H2.793L6.1-6.593,9.386-13.3ZM26.562,0H19.4V-13.3h7.163v1.881H21.413v4.047h4.18v1.71h-4.18v3.781h5.149ZM34.2-.019,38.418-13.3h2.546L45.2-.019H43.054L42.028-3.287H37.373L36.347-.019Zm5.51-10.773L37.9-5.016H41.5ZM62.263,0H59.85L56.677-5.32H55.195V0H53.181L53.2-13.3h5.016a2.909,2.909,0,0,1,1.757.561,3.914,3.914,0,0,1,1.216,1.472,4.391,4.391,0,0,1,.446,1.957A4,4,0,0,1,61.294-7.7a4.329,4.329,0,0,1-.94,1.377,3.431,3.431,0,0,1-1.359.836ZM59.584-9.31a2.355,2.355,0,0,0-.19-.912,2.114,2.114,0,0,0-.522-.76,1.106,1.106,0,0,0-.77-.3H55.195v3.838h2.888a1.147,1.147,0,0,0,.77-.285,2.062,2.062,0,0,0,.532-.722A2.05,2.05,0,0,0,59.584-9.31ZM74,.19a5.829,5.829,0,0,1-1.7-.256A7.258,7.258,0,0,1,70.718-.76a5.972,5.972,0,0,1-1.273-.988l1.52-1.444a4.659,4.659,0,0,0,1.435.94,4.01,4.01,0,0,0,1.567.352,2.562,2.562,0,0,0,1.682-.57,1.753,1.753,0,0,0,.693-1.406,1.454,1.454,0,0,0-.494-1.169,3.415,3.415,0,0,0-1.406-.712,17.387,17.387,0,0,1-2.708-.931,4.006,4.006,0,0,1-1.691-1.321,3.113,3.113,0,0,1-.427-2.137,3.281,3.281,0,0,1,1.378-2.442,5.014,5.014,0,0,1,2.936-.826,7.964,7.964,0,0,1,2.042.285,7.591,7.591,0,0,1,2.1.931l-1.425,1.52a9.224,9.224,0,0,0-1.254-.494,4.475,4.475,0,0,0-1.349-.209,3.922,3.922,0,0,0-1.131.123,1.951,1.951,0,0,0-.883.475,1.239,1.239,0,0,0-.361.884,1.267,1.267,0,0,0,.3.95,2.367,2.367,0,0,0,.9.56q.579.219,1.34.446a12.81,12.81,0,0,1,2.261.817A3.4,3.4,0,0,1,77.89-5.909a3.743,3.743,0,0,1,.485,2.033,3.747,3.747,0,0,1-.589,2.061A4.255,4.255,0,0,1,76.2-.352,4.525,4.525,0,0,1,74,.19Zm32.167.019a5.958,5.958,0,0,1-2.536-.542,7.129,7.129,0,0,1-2.062-1.435A6.743,6.743,0,0,1,100.168-3.9a7,7,0,0,1-.513-2.727,7.035,7.035,0,0,1,.513-2.707,6.917,6.917,0,0,1,1.406-2.175,6.541,6.541,0,0,1,2.052-1.444,6.113,6.113,0,0,1,2.546-.532,6.146,6.146,0,0,1,2.717.627,7.256,7.256,0,0,1,2.375,1.919L109.649-9.6a5.5,5.5,0,0,0-1.662-1.368,3.971,3.971,0,0,0-1.814-.437,3.948,3.948,0,0,0-1.7.371,4.991,4.991,0,0,0-1.415,1,4.485,4.485,0,0,0-.95,1.491,5.148,5.148,0,0,0-.342,1.909,4.928,4.928,0,0,0,.342,1.881,4.787,4.787,0,0,0,.95,1.482,4.281,4.281,0,0,0,1.406,1.026,4.1,4.1,0,0,0,1.71.361,3.971,3.971,0,0,0,1.814-.437,5.5,5.5,0,0,0,1.662-1.368l1.615,1.33a7.165,7.165,0,0,1-2.375,1.938A6.146,6.146,0,0,1,106.172.209ZM126.407,0h-7.163V-13.3h7.163v1.881h-5.149v4.047h4.18v1.71h-4.18v3.781h5.149Zm14.231,0h-6.232V-13.3h2.014V-1.976h4.218Zm15.143,0h-7.163V-13.3h7.163v1.881h-5.149v4.047h4.18v1.71h-4.18v3.781h5.149Zm7.98,0V-13.3H168.8a3.161,3.161,0,0,1,1.8.513,3.517,3.517,0,0,1,1.2,1.349,3.948,3.948,0,0,1,.428,1.824,4.135,4.135,0,0,1-.874,2.546A3.916,3.916,0,0,1,172.454-5.7a3.847,3.847,0,0,1,.389,1.71,3.925,3.925,0,0,1-.275,1.444,4.736,4.736,0,0,1-.751,1.283,3.681,3.681,0,0,1-1.111.921,2.791,2.791,0,0,1-1.34.342Zm2.071-7.657h2.907a1.042,1.042,0,0,0,.7-.285,1.988,1.988,0,0,0,.513-.741,2.4,2.4,0,0,0,.19-.931,1.811,1.811,0,0,0-.361-1.111,1.165,1.165,0,0,0-.988-.484h-2.964Zm0,5.567h3.534a1.008,1.008,0,0,0,.694-.285,2.188,2.188,0,0,0,.513-.722,2.13,2.13,0,0,0,.2-.893,1.836,1.836,0,0,0-.38-1.168,1.18,1.18,0,0,0-.969-.484h-3.591ZM189.9,0h-2.413l-3.173-5.32h-1.482V0h-2.014l.019-13.3h5.016a2.909,2.909,0,0,1,1.757.561,3.914,3.914,0,0,1,1.216,1.472,4.391,4.391,0,0,1,.447,1.957,4,4,0,0,1-.342,1.606A4.33,4.33,0,0,1,188-6.327a3.431,3.431,0,0,1-1.359.836Zm-2.679-9.31a2.355,2.355,0,0,0-.19-.912,2.114,2.114,0,0,0-.522-.76,1.106,1.106,0,0,0-.77-.3h-2.907v3.838h2.888a1.147,1.147,0,0,0,.77-.285,2.063,2.063,0,0,0,.532-.722A2.05,2.05,0,0,0,187.226-9.31ZM197.391-.019,201.609-13.3h2.546L208.392-.019h-2.147l-1.026-3.268h-4.655L199.538-.019Zm5.51-10.773L201.1-5.016h3.591Zm21.489-.646H220.5V0h-2.014V-11.438h-3.9V-13.3h9.8ZM234.384,0H232.37V-13.3h2.014Zm20.995-6.669a7.05,7.05,0,0,1-.5,2.67,6.783,6.783,0,0,1-1.4,2.176,6.618,6.618,0,0,1-2.071,1.463,6.068,6.068,0,0,1-2.527.532,6.022,6.022,0,0,1-2.546-.541,6.674,6.674,0,0,1-2.071-1.482,6.924,6.924,0,0,1-1.4-2.175,6.927,6.927,0,0,1-.5-2.641,6.745,6.745,0,0,1,.513-2.631,6.921,6.921,0,0,1,1.425-2.166,6.77,6.77,0,0,1,2.09-1.472,5.979,5.979,0,0,1,2.489-.532,6.068,6.068,0,0,1,2.527.532,6.545,6.545,0,0,1,2.071,1.472,6.924,6.924,0,0,1,1.4,2.176A6.878,6.878,0,0,1,255.379-6.669Zm-2.09,0a4.958,4.958,0,0,0-.6-2.423,4.908,4.908,0,0,0-1.6-1.757,3.9,3.9,0,0,0-2.214-.665,3.936,3.936,0,0,0-2.232.665,4.886,4.886,0,0,0-1.6,1.767,4.974,4.974,0,0,0-.6,2.413,5.012,5.012,0,0,0,.6,2.432,4.854,4.854,0,0,0,1.605,1.767,3.949,3.949,0,0,0,2.223.665,3.936,3.936,0,0,0,2.233-.665A4.785,4.785,0,0,0,252.7-4.247,5.094,5.094,0,0,0,253.289-6.669ZM273.3,0h-2.66l-5.263-10.754V-.019h-2.014V-13.3h2.831l5.073,10.564V-13.3H273.3Z" transform="translate(639 253.111)" fill="#f4fbfc"/>
    </g>
    <g id="Group_2202" data-name="Group 2202">
      <rect id="Rectangle_120" data-name="Rectangle 120" width="540.892" height="270.446" transform="translate(520.123 270.554)" fill="#0d392a"/>
      <path id="Path_3645" data-name="Path 3645" d="M11.172,0h90.16V-10H21.756c0-14.112,6.272-15.68,26.068-26.068,29.008-14.9,54.292-30.968,54.292-59.78,0-22.148-19.012-42.728-47.628-42.728-30.576,0-42.14,15.092-44.3,31.752H21.756c2.156-15.484,13.916-21.56,30.576-21.56,21.168,0,40.18,13.916,40.18,33.32,0,19.208-20.384,36.652-49.784,50.568C25.088-36.26,11.172-31.556,11.172-10.584ZM258.72,1.568c23.324,0,44.1-16.268,44.1-38.808,0-11.76-4.9-25.872-21.56-33.712,14.9-9.8,18.62-20.188,18.62-30.968,0-21.952-18.228-36.064-39.984-36.064-16.66,0-33.908,10.388-39,27.244L231.28-107.6c3.724-12.74,15.68-20.384,28.616-20.384,15.092,0,29.792,10.388,29.792,26.068,0,15.288-13.328,26.46-30.968,26.46H247.352v9.016H258.72c18.032,0,33.908,12.544,33.908,29.2,0,16.268-15.68,28.812-33.908,28.812-11.76,0-24.5-6.86-31.556-16.66l-10,3.136C226.184-7.056,239.512,1.568,258.72,1.568Z" transform="translate(631 492.237)" fill="#fff"/>
      <path id="Path_3646" data-name="Path 3646" d="M8.874-40.6H30.566q8.236,0,13.05,4A12.75,12.75,0,0,1,48.43-26.332a12.765,12.765,0,0,1-4.06,9.947Q40.31-12.7,30.566-12.7H22.91V-1.566a1.505,1.505,0,0,1-.464,1.1,1.505,1.505,0,0,1-1.1.464H8.874a1.505,1.505,0,0,1-1.1-.464,1.505,1.505,0,0,1-.464-1.1V-39.034a1.505,1.505,0,0,1,.464-1.1A1.505,1.505,0,0,1,8.874-40.6ZM22.968-29.812v6.38h7.366a3,3,0,0,0,2.175-.812,3,3,0,0,0,.841-2.262,3.479,3.479,0,0,0-.812-2.378,2.779,2.779,0,0,0-2.2-.928ZM83.056-40.6H95.178a1.227,1.227,0,0,1,.9.377,1.11,1.11,0,0,1,.377.783,1.662,1.662,0,0,1-.174.754L81.664-14.5V-1.566a1.505,1.505,0,0,1-.464,1.1A1.505,1.505,0,0,1,80.1,0H67.744a1.505,1.505,0,0,1-1.1-.464,1.505,1.505,0,0,1-.464-1.1V-14.5L51.62-38.686a1.662,1.662,0,0,1-.174-.754,1.11,1.11,0,0,1,.377-.783,1.227,1.227,0,0,1,.9-.377H64.96a2.537,2.537,0,0,1,2.378,1.334l6.554,11.484L80.62-39.15A2.707,2.707,0,0,1,83.056-40.6Zm34.858,15.66v9.28a4.407,4.407,0,0,0,1.6,3.654,6.483,6.483,0,0,0,4.176,1.276,6.667,6.667,0,0,0,3.741-.812,6.209,6.209,0,0,0,1.943-2.378,2.338,2.338,0,0,1,2.059-1.566h12.528a1.227,1.227,0,0,1,.9.377,1.227,1.227,0,0,1,.377.9q0,5.394-5.1,9.86a19.339,19.339,0,0,1-6.786,3.567A32.664,32.664,0,0,1,123.366.58,29.665,29.665,0,0,1,112.9-1.189a16.5,16.5,0,0,1-7.685-5.8,16.257,16.257,0,0,1-2.958-9.889v-6.844a16.386,16.386,0,0,1,2.958-9.918q5.568-7.54,18.618-7.54a30.963,30.963,0,0,1,9.512,1.363,19.339,19.339,0,0,1,6.786,3.567q5.1,4.466,5.1,9.86a1.227,1.227,0,0,1-.377.9,1.227,1.227,0,0,1-.9.377H131.428a2.338,2.338,0,0,1-2.059-1.566,6.209,6.209,0,0,0-1.943-2.378,6.667,6.667,0,0,0-3.741-.812,6.483,6.483,0,0,0-4.176,1.276A4.407,4.407,0,0,0,117.914-24.94Zm76.212,1.1v7.076a16.556,16.556,0,0,1-2.9,9.976,15.707,15.707,0,0,1-7.6,5.684A32.885,32.885,0,0,1,172.55.58,32.885,32.885,0,0,1,161.472-1.1a15.707,15.707,0,0,1-7.6-5.684,16.758,16.758,0,0,1-2.9-10.092v-6.844q0-8.758,6-13.108t15.573-4.35q9.57,0,15.573,4.35T194.126-23.838Zm-27.492-1.1v9.28a4.407,4.407,0,0,0,1.595,3.654,6.726,6.726,0,0,0,4.321,1.276,6.623,6.623,0,0,0,4.321-1.3,4.49,4.49,0,0,0,1.595-3.683v-9.164a4.49,4.49,0,0,0-1.595-3.683,6.623,6.623,0,0,0-4.321-1.3,6.726,6.726,0,0,0-4.321,1.276A4.407,4.407,0,0,0,166.634-24.94ZM229.216-40.6H240a1.505,1.505,0,0,1,1.1.464,1.505,1.505,0,0,1,.464,1.1V-1.566a1.505,1.505,0,0,1-.464,1.1A1.505,1.505,0,0,1,240,0h-9.338a2.812,2.812,0,0,1-2.32-1.218L215.7-17.342V-1.566a1.505,1.505,0,0,1-.464,1.1,1.505,1.505,0,0,1-1.1.464H203.348a1.505,1.505,0,0,1-1.1-.464,1.505,1.505,0,0,1-.464-1.1V-39.034a1.505,1.505,0,0,1,.464-1.1,1.505,1.505,0,0,1,1.1-.464h9.4a2.7,2.7,0,0,1,2.262,1.16L227.65-21.982V-39.034a1.505,1.505,0,0,1,.464-1.1A1.505,1.505,0,0,1,229.216-40.6ZM335.878-3.654Q330.194.58,320.45.58T304.993-3.654q-5.713-4.234-5.713-13.224V-39.034a1.505,1.505,0,0,1,.464-1.1,1.505,1.505,0,0,1,1.1-.464h12.122a1.505,1.505,0,0,1,1.1.464,1.505,1.505,0,0,1,.464,1.1V-15.95a4.407,4.407,0,0,0,1.6,3.654,6.726,6.726,0,0,0,4.321,1.276,6.726,6.726,0,0,0,4.321-1.276,4.407,4.407,0,0,0,1.6-3.654V-39.034a1.505,1.505,0,0,1,.464-1.1,1.505,1.505,0,0,1,1.1-.464h12.122a1.505,1.505,0,0,1,1.1.464,1.505,1.505,0,0,1,.464,1.1v22.156Q341.62-7.888,335.878-3.654ZM372.94-25.868q9.512,1.1,13.543,4.089t4.031,8.961q0,5.974-5.858,9.686T369.112.58q-9.686,0-15.051-3.567T348.7-11.774q0-1.276,1.334-1.276h11.89a2.667,2.667,0,0,1,1.972.754q1.624,1.566,5.626,1.566,5.51,0,5.51-1.682,0-1.044-1.74-1.653a38,38,0,0,0-6.9-1.189q-16.414-1.972-16.414-12.586A11.279,11.279,0,0,1,355.25-37.5q5.278-3.683,14.123-3.683t14.3,3.857q5.452,3.857,5.452,8.149a1.2,1.2,0,0,1-.377.928,1.438,1.438,0,0,1-1.015.348H375.26a2.56,2.56,0,0,1-1.8-.7,6,6,0,0,0-4.176-1.276q-3.886,0-3.886,1.624,0,.87,1.508,1.363A37.362,37.362,0,0,0,372.94-25.868Z" transform="translate(596 320.503)" fill="#fff"/>
    </g>
  </g>
</svg>
