<?xml version="1.0" encoding="UTF-8" standalone="no"?>
<svg
   width="853.38879"
   height="295.97299"
   viewBox="0 0 853.38879 295.97299"
   version="1.1"
   id="svg13"
   sodipodi:docname="menu-mountains.svg"
   inkscape:version="1.1.2 (0a00cf5339, 2022-02-04)"
   xmlns:inkscape="http://www.inkscape.org/namespaces/inkscape"
   xmlns:sodipodi="http://sodipodi.sourceforge.net/DTD/sodipodi-0.dtd"
   xmlns="http://www.w3.org/2000/svg"
   xmlns:svg="http://www.w3.org/2000/svg">
  <sodipodi:namedview
     id="namedview15"
     pagecolor="#ffffff"
     bordercolor="#666666"
     borderopacity="1.0"
     inkscape:pageshadow="2"
     inkscape:pageopacity="0.0"
     inkscape:pagecheckerboard="0"
     showgrid="false"
     fit-margin-top="0"
     fit-margin-left="0"
     fit-margin-right="0"
     fit-margin-bottom="0"
     inkscape:zoom="0.70712909"
     inkscape:cx="-248.18665"
     inkscape:cy="25.455041"
     inkscape:window-width="1366"
     inkscape:window-height="699"
     inkscape:window-x="0"
     inkscape:window-y="0"
     inkscape:window-maximized="1"
     inkscape:current-layer="svg13" />
  <defs
     id="defs4">
    <clipPath
       id="clip-path">
      <rect
         id="Rectangle_131"
         data-name="Rectangle 131"
         width="1557"
         height="540"
         transform="translate(0,540)"
         fill="#b7a763"
         stroke="#707070"
         stroke-width="1"
         x="0"
         y="0" />
    </clipPath>
  </defs>
  <g
     id="Mask_Group_6"
     data-name="Mask Group 6"
     transform="matrix(0.54809814,0,0,0.54809814,0,-295.973)"
     clip-path="url(#clip-path)">
    <path
       id="Path_124"
       data-name="Path 124"
       d="m 798.747,0 511.33,511.33 287.417,287.417 H 0 Z"
       transform="translate(209.506,540)"
       fill="#b7a763"
       opacity="0.607" />
    <g
       id="Path_125"
       data-name="Path 125"
       transform="translate(-589.241,540)"
       fill="none"
       stroke-dasharray="30, 10"
       opacity="0.734">
      <path
         d="m 798.747,0 798.747,798.747 H 0 Z"
         stroke="none"
         id="path7" />
      <path
         d="m 827.03143,28.284424 c 0,0 0.33149,0.331421 0.9115,0.911499 v 0 c 0.58008,0.580017 1.40869,1.408691 2.40308,2.403015 v 0 c 0.99432,0.994385 2.15442,2.15448 3.3974,3.3974 v 0 c 1.24298,1.242981 2.56878,2.568787 3.89459,3.894653 v 0 c 1.32581,1.325806 2.65167,2.651612 3.89459,3.894592 v 0 c 1.24298,1.24292 2.40308,2.403016 3.3974,3.3974 v 0 c 0.99439,0.994385 1.82306,1.822998 2.40308,2.403016 v 0 c 0.58002,0.580078 0.9115,0.911499 0.9115,0.911499 l -5.65686,5.656921 -21.21314,-21.213379 z m 28.28418,28.284118 c 0,0 0.33148,0.331482 0.9115,0.9115 v 0 c 0.58008,0.580078 1.40869,1.408691 2.40308,2.403076 v 0 c 0.99432,0.994384 2.15442,2.15448 3.3974,3.3974 v 0 c 1.24292,1.242981 2.56878,2.568786 3.89459,3.894592 v 0 c 1.32581,1.325867 2.65161,2.651672 3.89459,3.894592 v 0 c 1.24298,1.242981 2.40308,2.403076 3.3974,3.397461 v 0 c 0.99439,0.994324 1.823,1.822998 2.40308,2.403015 v 0 c 0.58002,0.580078 0.9115,0.911499 0.9115,0.911499 l -5.65686,5.656861 -21.21314,-21.213074 z m 28.28437,28.284424 c 0,0 0.33148,0.331421 0.91149,0.911499 v 0 c 0.58008,0.580017 1.4087,1.408692 2.40308,2.403015 v 0 c 0.99432,0.994385 2.15442,2.15448 3.3974,3.3974 v 0 c 1.24298,1.242981 2.56879,2.568787 3.89459,3.894654 v 0 c 1.32581,1.325805 2.65168,2.651611 3.8946,3.894592 v 0 c 1.24298,1.242924 2.40307,2.403014 3.3974,3.397404 v 0 c 0.99438,0.99438 1.82305,1.82299 2.40307,2.40301 v 0 c 0.58002,0.58008 0.9115,0.9115 0.9115,0.9115 l -5.65686,5.65692 -21.21313,-21.213377 z m 28.28418,28.284114 c 0,0 0.33148,0.33149 0.91149,0.9115 v 0 c 0.58002,0.58008 1.4087,1.4087 2.40308,2.40308 v 0 c 0.99432,0.99438 2.15442,2.15448 3.3974,3.3974 v 0 c 1.24292,1.24298 2.56879,2.56879 3.89459,3.89459 v 0 c 1.32581,1.32587 2.65161,2.65167 3.89459,3.89459 v 0 c 1.24299,1.24299 2.40308,2.40308 3.3974,3.39747 v 0 c 0.99439,0.99432 1.823,1.82299 2.40308,2.40301 v 0 c 0.58002,0.58008 0.9115,0.9115 0.9115,0.9115 l -5.65686,5.65686 -21.21314,-21.21307 z m 28.28436,28.28443 c 0,0 0.33148,0.33142 0.9115,0.9115 v 0 c 0.58008,0.58001 1.40869,1.40863 2.40307,2.40301 v 0 c 0.99433,0.99439 2.15442,2.15448 3.3974,3.3974 v 0 c 1.24298,1.24298 2.56879,2.56879 3.8946,3.8946 v 0 c 1.3258,1.32586 2.65167,2.65167 3.89459,3.89465 v 0 c 1.24298,1.24292 2.40307,2.40301 3.3974,3.3974 v 0 c 0.99438,0.99432 1.823,1.823 2.40307,2.40301 v 0 c 0.58002,0.58008 0.9115,0.9115 0.9115,0.9115 l -5.65686,5.65692 -21.21313,-21.21338 z m 28.28418,28.28412 c 0,0 0.33148,0.33148 0.9115,0.9115 v 0 c 0.58001,0.58007 1.40869,1.40869 2.40307,2.40307 v 0 c 0.99433,0.99439 2.15442,2.15448 3.3974,3.3974 v 0 c 1.24292,1.24298 2.56879,2.56879 3.8946,3.89459 v 0 c 1.3258,1.32587 2.65161,2.65168 3.89459,3.8946 v 0 c 1.24298,1.24298 2.40307,2.40307 3.3974,3.39746 v 0 c 0.99438,0.99432 1.823,1.823 2.40307,2.40301 v 0 c 0.58002,0.58008 0.9115,0.9115 0.9115,0.9115 l -5.65686,5.65686 -21.21313,-21.21307 z m 28.28436,28.28442 c 0,0 0.33148,0.33142 0.9115,0.9115 v 0 c 0.58008,0.58002 1.40869,1.40863 2.40304,2.40302 v 0 c 0.9944,0.99438 2.1545,2.15448 3.3974,3.3974 v 0 c 1.243,1.24298 2.5688,2.56878 3.8946,3.89459 v 0 c 1.3258,1.32586 2.6517,2.65167 3.8946,3.89465 v 0 c 1.243,1.24292 2.4031,2.40302 3.3974,3.3974 v 0 c 0.9944,0.99432 1.823,1.823 2.4031,2.40302 v 0 c 0.58,0.58007 0.9115,0.91149 0.9115,0.91149 l -5.6569,5.65693 -21.2131,-21.21338 z m 28.28414,28.28412 c 0,0 0.3316,0.33148 0.9115,0.9115 v 0 c 0.58,0.58008 1.4087,1.40869 2.4031,2.40308 v 0 c 0.9943,0.99438 2.1544,2.15448 3.3974,3.3974 v 0 c 1.2429,1.24298 2.5688,2.56878 3.8946,3.89459 v 0 c 1.3258,1.32586 2.6516,2.65167 3.8947,3.89459 v 0 c 1.2429,1.24298 2.403,2.40308 3.3973,3.39746 v 0 c 0.9944,0.99432 1.823,1.823 2.4031,2.40302 v 0 c 0.5799,0.58007 0.9115,0.91149 0.9115,0.91149 l -5.6569,5.65687 -21.2131,-21.21308 z m 28.2845,28.28442 c 0,0 0.3314,0.33142 0.9113,0.9115 v 0 c 0.5801,0.58002 1.4087,1.40863 2.4031,2.40302 v 0 c 0.9944,0.99438 2.1546,2.15448 3.3975,3.3974 v 0 c 1.2429,1.24298 2.5688,2.56878 3.8945,3.89459 v 0 c 1.3259,1.32587 2.6517,2.65167 3.8947,3.89465 v 0 c 1.243,1.24292 2.403,2.40302 3.3973,3.3974 v 0 c 0.9944,0.99433 1.823,1.823 2.4031,2.40302 v 0 c 0.5801,0.58008 0.9116,0.9115 0.9116,0.9115 l -5.657,5.65692 -21.2131,-21.21338 z m 28.2841,28.28412 c 0,0 0.3313,0.33148 0.9114,0.9115 v 0 c 0.5801,0.58008 1.4087,1.40869 2.4031,2.40308 v 0 c 0.9944,0.99435 2.1545,2.15445 3.3975,3.3974 v 0 c 1.2429,1.24298 2.5687,2.56878 3.8945,3.89459 v 0 c 1.3259,1.32584 2.6517,2.65164 3.8946,3.89462 v 0 c 1.243,1.24295 2.4031,2.40305 3.3974,3.3974 v 0 c 0.9944,0.99436 1.8231,1.823 2.4031,2.40305 v 0 c 0.58,0.58005 0.9116,0.9115 0.9116,0.9115 l -5.657,5.65689 -21.2131,-21.21314 z m 28.2843,28.2844 c 0,0 0.3315,0.33145 0.9115,0.91149 v 0 c 0.5801,0.58005 1.4087,1.4087 2.4031,2.40305 v 0 c 0.9944,0.99439 2.1544,2.15448 3.3975,3.39743 v 0 c 1.2429,1.24295 2.5687,2.56876 3.8945,3.89459 v 0 c 1.3258,1.32581 2.6516,2.65164 3.8945,3.8946 v 0 c 1.2431,1.24295 2.4031,2.40304 3.3975,3.39743 v 0 c 0.9944,0.99435 1.823,1.82299 2.4031,2.40304 v 0 c 0.5801,0.58005 0.9115,0.9115 0.9115,0.9115 l -5.6569,5.65686 -21.2131,-21.21332 z m 28.2842,28.28418 c 0,0 0.3314,0.33145 0.9115,0.91149 v 0 c 0.5801,0.58005 1.4087,1.40867 2.4031,2.40305 v 0 c 0.9944,0.99435 2.1544,2.15445 3.3975,3.3974 v 0 c 1.2429,1.24298 2.5687,2.56879 3.8945,3.89459 v 0 c 1.3258,1.32584 2.6516,2.65164 3.8945,3.89463 v 0 c 1.2431,1.24295 2.4031,2.40304 3.3975,3.39739 v 0 c 0.9944,0.99436 1.823,1.823 2.4031,2.40305 v 0 c 0.58,0.58005 0.9115,0.9115 0.9115,0.9115 l -5.6569,5.65689 -21.2131,-21.21313 z m 28.2843,28.28436 c 0,0 0.3316,0.33145 0.9116,0.9115 v 0 c 0.58,0.58004 1.4087,1.40869 2.403,2.40304 v 0 c 0.9944,0.99439 2.1545,2.15448 3.3975,3.39743 v 0 c 1.2429,1.24295 2.5687,2.56876 3.8946,3.8946 v 0 c 1.3258,1.3258 2.6516,2.65164 3.8945,3.89459 v 0 c 1.243,1.24295 2.4031,2.40304 3.3975,3.39743 v 0 c 0.9944,0.99435 1.823,1.823 2.4031,2.40304 v 0 c 0.5799,0.58005 0.9114,0.9115 0.9114,0.9115 l -5.6569,5.65686 -21.213,-21.21331 z m 28.2842,28.28418 c 0,0 0.3315,0.33145 0.9116,0.9115 v 0 c 0.58,0.58004 1.4087,1.40866 2.403,2.40304 v 0 c 0.031,0.0311 0.062,0.0623 0.094,0.0937 l 17.8048,17.80487 -5.6566,5.65689 -21.2134,-21.21313 z m 28.2844,28.28436 21.2132,21.21314 -5.6569,5.65686 -21.2131,-21.21332 z m 28.2842,28.28418 21.2131,21.2131 -5.6567,5.6569 -21.2133,-21.21314 z m 28.2844,28.28436 21.2132,21.21314 -5.657,5.65686 -21.2131,-21.21332 z m 28.2842,28.28418 21.213,21.21311 -5.6566,5.65692 -21.2134,-21.21314 z m 28.2843,28.28434 21.2132,21.21313 -5.6569,5.65686 -21.2131,-21.21332 z m 28.2842,28.28417 21.2131,21.21314 -5.6566,5.65686 -21.2134,-21.21313 z m 28.2843,28.28443 21.2131,21.21307 -5.6568,5.65692 -21.2132,-21.21338 z m 28.2842,28.28412 21.2131,21.21313 -5.6566,5.65686 -21.2134,-21.21307 z m 28.2844,28.28436 21.2131,21.21313 -5.6568,5.65687 -21.2132,-21.21332 z m 28.2842,28.28418 21.2131,21.21313 -5.6567,5.65686 -21.2133,-21.21313 z m 28.2844,28.28436 21.213,21.21314 -5.6568,5.65692 -21.2132,-21.21338 z m 28.2841,28.28418 21.2131,21.21314 -5.6566,5.65686 -21.2134,-21.21314 z m 28.2844,28.28437 21.2131,21.21313 -5.6568,5.65686 -21.2132,-21.21332 z m 14.6706,27.07171 h 12.401 l 8,8 h -11.3137 c -4.7035,0 -9.0873,0 -9.0873,0 z m -40,0 h 30 v 8 c 0,0 -30,0 -30,0 z m -40,0 h 30 v 8 c 0,0 -30,0 -30,0 z m -40,0 h 30 v 8 c 0,0 -30,0 -30,0 z m -40,0 h 30 v 8 c 0,0 -30,0 -30,0 z m -40,0 h 30 v 8 c 0,0 -30,0 -30,0 z m -40,0 h 30 v 8 c 0,0 -30,0 -30,0 z m -40,0 h 30 v 8 c 0,0 -30,0 -30,0 z m -40,0 h 30 v 8 c 0,0 -30,0 -30,0 z m -40,0 h 30 v 8 c 0,0 -30,0 -30,0 z m -40,0 h 30 v 8 c 0,0 -30,0 -30,0 z m -40,0 h 30 v 8 c 0,0 -30,0 -30,0 z m -40,0 h 30 v 8 c 0,0 -30,0 -30,0 z m -40,0 h 30 v 8 c 0,0 -30,0 -30,0 z m -40,0 h 30 v 8 c 0,0 -30,0 -30,0 z m -39.99996,0 h 29.99996 v 8 c 0,0 -29.99996,0 -29.99996,0 z m -40,0 h 30 v 8 c 0,0 -30,0 -30,0 z m -40,0 h 30 v 8 c 0,0 -30,0 -30,0 z m -40,0 h 30 v 8 c 0,0 -30,0 -30,0 z m -40,0 h 30 v 8 c 0,0 -30,0 -30,0 z m -40,0 h 30 v 8 c 0,0 -30,0 -30,0 z m -40,0 h 30 v 8 c 0,0 -30,0 -30,0 z m -40,0 h 30 v 8 c 0,0 -30,0 -30,0 z m -40,0 h 30 v 8 c 0,0 -30,0 -30,0 z m -40,0 h 30 v 8 c 0,0 -30,0 -30,0 z m -40,0 h 30 v 8 c 0,0 -30,0 -30,0 z m -40,0 h 30 v 8 c 0,0 -30,0 -30,0 z m -40,0 h 30 v 8 c 0,0 -30,0 -30,0 z m -40,0 h 30 v 8 c 0,0 -30,0 -30,0 z m -40,0 h 30 v 8 c 0,0 -30,0 -30,0 z m -40,0 h 30 v 8 c 0,0 -30,0 -30,0 z m -40,0 h 30 v 8 c 0,0 -30,0 -30,0 z m -40,0 h 30 v 8 c 0,0 -30,0 -30,0 z m -40,0 h 30 v 8 c 0,0 -30,0 -30,0 z m -40,0 h 30 v 8 c 0,0 -30,0 -30,0 z m -40,0 h 30 v 8 c 0,0 -30,0 -30,0 z m -40,0 h 30 v 8 c 0,0 -30,0 -30,0 z m -40,0 h 30 v 8 c 0,0 -30,0 -30,0 z m -40,0 h 30 v 8 c 0,0 -30,0 -30,0 z m -40.895386,-8.19775 5.656616,5.65692 -2.540771,2.54083 H 47.09314 v 8 c 0,0 -30,0 -30,0 v -5.77954 l -5.779419,5.77954 H 0 c 0,0 0,0 0,0 v 0 c 0,0 0,0 0,0 z m 28.284058,-28.28412 5.656982,5.65686 -21.213135,21.21313 -5.656982,-5.65692 z m 28.284423,-28.28443 5.656617,5.65693 -21.213013,21.21331 -5.656983,-5.65686 z m 28.284185,-28.28411 5.65686,5.65686 -21.213139,21.21313 -5.656861,-5.65692 z m 28.28442,-28.28437 5.65662,5.65686 -21.21314,21.21332 -5.65686,-5.65686 z m 28.28406,-28.28418 5.65698,5.65686 -21.21314,21.21314 -5.65698,-5.65686 z m 28.28442,-28.28442 5.65662,5.65692 -21.21314,21.21332 -5.65686,-5.65686 z m 28.28418,-28.28418 5.65686,5.65692 -21.21313,21.21314 -5.65686,-5.65692 z m 28.2843,-28.2843 5.65674,5.65686 -21.21313,21.21332 -5.65687,-5.65686 z m 28.28418,-28.28418 5.65698,5.65686 -21.21313,21.21313 -5.65698,-5.65686 z m 28.28443,-28.28439 5.65661,5.65686 -21.21313,21.21334 -5.65686,-5.65686 z m 28.28417,-28.28418 5.65687,5.65689 -21.21314,21.2131 -5.65686,-5.65686 z m 28.28431,-28.28437 5.65673,5.65686 -21.21313,21.21335 -5.65686,-5.65689 z m 28.28418,-28.28418 5.65686,5.65689 -21.21302,21.21311 -5.65698,-5.65686 z m 28.28442,-28.28436 5.65662,5.65686 -21.21314,21.21335 -5.65686,-5.65689 8.38416,-8.38407 c 0.0812,-0.0812 0.16259,-0.16262 0.24414,-0.2442 v 0 c 0.32629,-0.32626 0.65515,-0.65515 0.98535,-0.98532 v 0 c 0.3302,-0.33014 0.66162,-0.66162 0.99304,-0.99307 v 0 c 0.33142,-0.33145 0.66296,-0.6629 0.99304,-0.99307 v 0 c 0.3302,-0.33017 0.65906,-0.65903 0.98535,-0.98532 v 0 c 0.3263,-0.32627 0.65003,-0.64997 0.96985,-0.96976 v 0 c 0.31971,-0.31983 0.63562,-0.63574 0.94641,-0.94647 v 0 c 0.3108,-0.31076 0.61634,-0.61631 0.91541,-0.91541 v 0 c 0.29907,-0.29907 0.59167,-0.5917 0.87659,-0.87655 v 0 c 0.28479,-0.28486 0.56189,-0.56193 0.82995,-0.82993 v 0 c 0.26795,-0.26804 0.52686,-0.52698 0.77552,-0.77557 v 0 c 0.24853,-0.2486 0.48681,-0.48682 0.71337,-0.71341 v 0 c 0.22657,-0.2266 0.44153,-0.4415 0.64356,-0.6435 v 0 c 0.2019,-0.20199 0.39099,-0.39102 0.56579,-0.56579 v 0 c 0.17481,-0.17481 0.33533,-0.33536 0.48035,-0.48038 v 0 c 0.14502,-0.14502 0.27442,-0.27448 0.38709,-0.38712 v 0 c 0.11267,-0.11264 0.20849,-0.20846 0.28613,-0.28616 v 0 c 0.0778,-0.0777 0.13733,-0.13724 0.17737,-0.17737 v 0 c 0.0402,-0.0401 0.0609,-0.0609 0.0609,-0.0609 z m 28.28418,-28.28418 5.65686,5.65689 -21.21313,21.21311 -5.65686,-5.65686 c 0,0 0.33142,-0.33146 0.91149,-0.9115 v 0 c 0.58008,-0.58005 1.4087,-1.40869 2.40308,-2.40305 v 0 c 0.99439,-0.99438 2.15442,-2.15445 3.39734,-3.39743 v 0 c 1.24304,-1.24295 2.56885,-2.56876 3.89465,-3.89459 v 0 c 1.32581,-1.32581 2.65161,-2.65164 3.89453,-3.89459 v 0 c 1.24305,-1.24295 2.40308,-2.40305 3.39746,-3.3974 v 0 c 0.99439,-0.99439 1.823,-1.82303 2.40308,-2.40308 v 0 c 0.58008,-0.58005 0.9115,-0.9115 0.9115,-0.9115 z m 28.2843,-28.28436 5.65674,5.65686 -21.21313,21.21335 -5.65687,-5.65689 c 0,0 0.0208,-0.0207 0.0608,-0.0609 v 0 c 0.0402,-0.0401 0.0997,-0.0997 0.17736,-0.17736 v 0 c 0.0778,-0.0777 0.17359,-0.1735 0.28626,-0.28614 v 0 c 0.11255,-0.11264 0.24206,-0.24212 0.38708,-0.38714 v 0 c 0.14502,-0.14502 0.30555,-0.30558 0.48035,-0.48035 v 0 c 0.17481,-0.1748 0.36377,-0.36383 0.5658,-0.56583 v 0 c 0.20202,-0.20196 0.41687,-0.4169 0.64355,-0.64349 v 0 c 0.22656,-0.22656 0.46472,-0.46481 0.71338,-0.71341 v 0 c 0.24854,-0.2486 0.50757,-0.50754 0.77551,-0.77554 v 0 c 0.26807,-0.26804 0.54517,-0.54511 0.82996,-0.82996 v 0 c 0.28491,-0.28485 0.57751,-0.57745 0.87659,-0.87655 v 0 c 0.29907,-0.29908 0.60461,-0.60465 0.9154,-0.91538 v 0 c 0.31067,-0.31076 0.62659,-0.62668 0.94641,-0.94647 v 0 c 0.31983,-0.31983 0.64356,-0.6435 0.96985,-0.96979 v 0 c 0.32629,-0.32626 0.65515,-0.65515 0.98523,-0.98532 v 0 c 0.3302,-0.33014 0.66162,-0.66162 0.99316,-0.99307 v 0 c 0.33143,-0.33145 0.66285,-0.66291 0.99305,-0.99308 v 0 c 0.3302,-0.33017 0.65905,-0.65902 0.98535,-0.98532 v 0 c 0.32629,-0.32626 0.6499,-0.64996 0.96972,-0.96975 v 0 c 0.31983,-0.31983 0.63575,-0.63575 0.94654,-0.94648 v 0 c 0.31067,-0.31076 0.61621,-0.6163 0.91528,-0.9154 v 0 c 0.2992,-0.29907 0.5918,-0.59171 0.87659,-0.87656 v 0 c 0.28491,-0.28485 0.56189,-0.56192 0.82995,-0.82992 v 0 c 0.26807,-0.26804 0.52698,-0.52698 0.77552,-0.77558 v 0 c 0.24865,-0.24859 0.48693,-0.48681 0.7135,-0.71341 v 0 c 0.22656,-0.22659 0.44153,-0.44149 0.64343,-0.64349 v 0 c 0.20203,-0.202 0.39099,-0.39102 0.5658,-0.5658 v 0 c 0.1748,-0.1748 0.33532,-0.33535 0.48034,-0.48037 v 0 c 0.14502,-0.14499 0.27454,-0.27448 0.38721,-0.38712 v 0 c 0.11267,-0.11264 0.20837,-0.20846 0.28613,-0.28616 v 0 c 0.0776,-0.0777 0.13721,-0.13724 0.17737,-0.17737 v 0 c 0.0402,-0.0401 0.0608,-0.0608 0.0608,-0.0608 z m 28.28418,-28.28418 5.65686,5.65689 -21.21301,21.21313 -5.65698,-5.65689 c 0,0 0.33154,-0.33145 0.9115,-0.9115 v 0 c 0.58007,-0.58004 1.40869,-1.40869 2.40307,-2.40304 v 0 c 0.99439,-0.99439 2.15454,-2.15445 3.39746,-3.39743 v 0 c 1.24292,-1.24295 2.56873,-2.56876 3.89453,-3.89459 v 0 c 1.32593,-1.32581 2.65174,-2.65165 3.89466,-3.8946 v 0 c 1.24292,-1.24295 2.40307,-2.40304 3.39746,-3.3974 v 0 c 0.99426,-0.99438 1.823,-1.82302 2.40295,-2.40307 v 0 c 0.58008,-0.58005 0.9115,-0.9115 0.9115,-0.9115 z m 28.28443,-28.28439 5.65661,5.65692 -21.21313,21.21331 -5.65686,-5.65689 c 0,0 0.0208,-0.0207 0.0609,-0.0609 v 0 c 0.0402,-0.0401 0.0997,-0.0997 0.17737,-0.17737 v 0 c 0.0776,-0.0777 0.17346,-0.17349 0.28613,-0.28613 v 0 c 0.11267,-0.11264 0.24207,-0.24213 0.38709,-0.38715 v 0 c 0.14501,-0.14502 0.30566,-0.30557 0.48046,-0.48034 v 0 c 0.17469,-0.17481 0.36377,-0.36383 0.5658,-0.56583 v 0 c 0.2019,-0.20196 0.41687,-0.4169 0.64343,-0.64349 v 0 c 0.22657,-0.22656 0.46485,-0.46482 0.71338,-0.71341 v 0 c 0.24866,-0.2486 0.50757,-0.50754 0.77564,-0.77554 v 0 c 0.26794,-0.26804 0.54504,-0.54511 0.82995,-0.82996 v 0 c 0.28479,-0.28485 0.57739,-0.57745 0.87647,-0.87656 v 0 c 0.29919,-0.29907 0.60473,-0.60464 0.9154,-0.91537 v 0 c 0.31079,-0.31076 0.62671,-0.62668 0.94654,-0.94647 v 0 c 0.31982,-0.31983 0.64343,-0.6435 0.96972,-0.96979 v 0 c 0.3263,-0.3263 0.65515,-0.65515 0.98535,-0.98529 v 0 c 0.3302,-0.3302 0.66162,-0.66162 0.99305,-0.99311 v 0 c 0.33142,-0.33148 0.66296,-0.6629 0.99304,-0.9931 v 0 c 0.3302,-0.33014 0.65906,-0.659 0.98535,-0.98529 v 0 c 0.32629,-0.32629 0.65002,-0.64996 0.96985,-0.96979 v 0 c 0.3197,-0.31976 0.63562,-0.63568 0.94641,-0.94647 v 0 c 0.31079,-0.31073 0.61633,-0.61627 0.9154,-0.91534 v 0 c 0.29908,-0.29914 0.59168,-0.59174 0.87659,-0.87659 v 0 c 0.28479,-0.28485 0.56189,-0.56189 0.82984,-0.82996 v 0 c 0.26806,-0.268 0.52697,-0.52691 0.77563,-0.77551 v 0 c 0.24854,-0.24859 0.48682,-0.48688 0.71338,-0.71344 v 0 c 0.22656,-0.22656 0.44153,-0.44153 0.64355,-0.64349 v 0 c 0.20191,-0.20197 0.39099,-0.39099 0.5658,-0.5658 v 0 c 0.1748,-0.1748 0.33533,-0.33533 0.48035,-0.48034 v 0 c 0.14502,-0.14502 0.27441,-0.27454 0.38708,-0.38715 v 0 c 0.11267,-0.11267 0.2085,-0.20844 0.28613,-0.28613 v 0 c 0.0778,-0.0777 0.13733,-0.13727 0.17737,-0.17743 v 0 c 0.0402,-0.0401 0.0609,-0.0609 0.0609,-0.0609 z m 28.28417,-28.28412 5.65687,5.65686 -21.21314,21.21313 -5.65686,-5.65686 c 0,0 0.33142,-0.33148 0.9115,-0.91156 v 0 c 0.58008,-0.58002 1.40869,-1.40863 2.40308,-2.40301 v 0 c 0.99438,-0.99439 2.15441,-2.15448 3.39733,-3.3974 v 0 c 1.24305,-1.24298 2.56885,-2.56879 3.89466,-3.8946 v 0 c 1.3258,-1.32586 2.65161,-2.65167 3.89453,-3.89459 v 0 c 1.24304,-1.24298 2.40307,-2.40307 3.39746,-3.39746 v 0 c 0.99438,-0.99432 1.823,-1.823 2.40308,-2.40301 v 0 c 0.58007,-0.58008 0.91149,-0.9115 0.91149,-0.9115 z m 28.28437,-28.28443 5.65667,5.65692 -21.21313,21.21332 -5.65686,-5.65686 c 0,0 0.0208,-0.0207 0.0608,-0.0608 v 0 c 0.0402,-0.0402 0.0997,-0.0997 0.17737,-0.17743 v 0 c 0.0778,-0.0776 0.17358,-0.17346 0.28625,-0.28613 v 0 c 0.11255,-0.11261 0.24207,-0.24213 0.38709,-0.38709 v 0 c 0.14502,-0.14502 0.30554,-0.3056 0.48035,-0.48041 v 0 c 0.1748,-0.17474 0.36377,-0.36383 0.56579,-0.56579 v 0 c 0.20203,-0.20197 0.41687,-0.41693 0.64356,-0.64349 v 0 c 0.22656,-0.22657 0.46472,-0.46479 0.71337,-0.71338 v 0 c 0.24854,-0.2486 0.50757,-0.50757 0.77552,-0.77558 v 0 c 0.26806,-0.268 0.54516,-0.5451 0.82995,-0.82995 v 0 c 0.28492,-0.28485 0.57752,-0.57746 0.87659,-0.87653 v 0 c 0.29907,-0.29913 0.60461,-0.60467 0.91541,-0.9154 v 0 c 0.31066,-0.31073 0.62658,-0.62665 0.94641,-0.94648 v 0 c 0.31982,-0.31982 0.64355,-0.64349 0.96985,-0.96978 v 0 c 0.32629,-0.3263 0.65515,-0.65516 0.98523,-0.98529 v 0 c 0.3302,-0.33021 0.66162,-0.66163 0.99316,-0.99311 v 0 c 0.33142,-0.33142 0.66284,-0.6629 0.99304,-0.9931 v 0 c 0.3302,-0.33014 0.65906,-0.659 0.98535,-0.98529 v 0 c 0.32624,-0.3263 0.64991,-0.64996 0.96973,-0.96979 v 0 c 0.31982,-0.31976 0.63574,-0.63568 0.94647,-0.94647 v 0 c 0.31073,-0.31073 0.61633,-0.61627 0.91541,-0.91535 v 0 c 0.29907,-0.29913 0.59167,-0.59173 0.87652,-0.87658 v 0 c 0.28485,-0.28485 0.56195,-0.56189 0.82996,-0.82996 v 0 c 0.268,-0.268 0.52698,-0.52691 0.77557,-0.77551 v 0 c 0.2486,-0.2486 0.48682,-0.48688 0.71338,-0.71344 v 0 c 0.22662,-0.22656 0.44153,-0.44153 0.6435,-0.64349 v 0 c 0.20202,-0.20197 0.39105,-0.391 0.56585,-0.5658 v 0 c 0.17475,-0.17481 0.33533,-0.33533 0.48035,-0.48035 v 0 c 0.14502,-0.14502 0.27447,-0.27453 0.38714,-0.38714 v 0 c 0.11261,-0.11267 0.20844,-0.20844 0.28614,-0.28614 v 0 c 0.0776,-0.0777 0.1372,-0.13726 0.17737,-0.17736 v 0 c 0.0401,-0.0402 0.0608,-0.0609 0.0608,-0.0609 z m 28.28418,-28.28412 5.65686,5.65686 -21.21314,21.21314 -5.65686,-5.65686 c 0,0 0.33142,-0.33148 0.9115,-0.91156 v 0 c 0.58002,-0.58002 1.40869,-1.40863 2.40302,-2.40302 v 0 c 0.99438,-0.99438 2.15448,-2.15448 3.39746,-3.3974 v 0 c 1.24292,-1.24298 2.56878,-2.56878 3.89459,-3.89459 v 0 c 1.32581,-1.32587 2.65161,-2.65167 3.89459,-3.89459 v 0 c 1.24292,-1.24298 2.40302,-2.40308 3.3974,-3.39746 v 0 c 0.99439,-0.99433 1.823,-1.823 2.40308,-2.40302 v 0 c 0.58002,-0.58008 0.9115,-0.9115 0.9115,-0.9115 z m 28.28436,-28.28436 5.65668,5.65686 -21.21314,21.21332 -5.65686,-5.65686 c 0,0 0.0207,-0.0207 0.0608,-0.0609 v 0 c 0.0401,-0.0402 0.0997,-0.0997 0.17737,-0.17737 v 0 c 0.0777,-0.0777 0.17346,-0.17352 0.28614,-0.2862 v 0 c 0.11267,-0.1126 0.24212,-0.24212 0.38714,-0.38708 v 0 c 0.14502,-0.14502 0.30554,-0.3056 0.48035,-0.48041 v 0 c 0.1748,-0.17474 0.36383,-0.36383 0.56579,-0.56579 v 0 c 0.20197,-0.20197 0.41694,-0.41687 0.6435,-0.6435 v 0 c 0.22662,-0.22656 0.46484,-0.46478 0.71344,-0.71338 v 0 c 0.24859,-0.24859 0.5075,-0.50756 0.77557,-0.77557 v 0 c 0.26801,-0.26801 0.54505,-0.5451 0.8299,-0.82996 v 0 c 0.28485,-0.28485 0.57745,-0.57745 0.87658,-0.87652 v 0 c 0.29908,-0.29914 0.60462,-0.60468 0.91541,-0.91541 v 0 c 0.31073,-0.31073 0.62665,-0.62665 0.94647,-0.94647 v 0 c 0.31976,-0.31982 0.64349,-0.64349 0.96973,-0.96979 v 0 c 0.32629,-0.32629 0.65515,-0.65515 0.98535,-0.98529 v 0 c 0.33014,-0.3302 0.66162,-0.66162 0.99304,-0.9931 v 0 c 0.33148,-0.33142 0.6629,-0.6629 0.9931,-0.9931 v 0 c 0.33014,-0.33014 0.659,-0.659 0.98529,-0.98529 v 0 c 0.3263,-0.3263 0.64997,-0.64997 0.96979,-0.96979 v 0 c 0.31983,-0.31976 0.63574,-0.63568 0.94647,-0.94647 v 0 c 0.31073,-0.31073 0.61634,-0.61628 0.91541,-0.91535 v 0 c 0.29907,-0.29913 0.59167,-0.59173 0.87653,-0.87658 v 0 c 0.28485,-0.28486 0.56195,-0.56189 0.82995,-0.82996 v 0 c 0.26801,-0.26801 0.52698,-0.52692 0.77557,-0.77551 v 0 c 0.2486,-0.2486 0.48682,-0.48688 0.71338,-0.71344 v 0 c 0.22663,-0.22657 0.44153,-0.44153 0.6435,-0.6435 v 0 c 0.20202,-0.20196 0.39105,-0.39099 0.56585,-0.56579 v 0 c 0.17475,-0.17481 0.33533,-0.33533 0.48035,-0.48035 v 0 c 0.14502,-0.14502 0.27448,-0.27454 0.38709,-0.38715 v 0 c 0.11267,-0.11267 0.20849,-0.20843 0.28619,-0.28613 v 0 c 0.0776,-0.0777 0.13721,-0.13727 0.17737,-0.17737 v 0 c 0.0401,-0.0402 0.0608,-0.0609 0.0608,-0.0609 z m 28.28418,-28.28418 5.65686,5.65686 -21.21313,21.21314 -5.65686,-5.65686 c 0,0 0.33142,-0.33149 0.91149,-0.9115 v 0 c 0.58002,-0.58008 1.4087,-1.40869 2.40302,-2.40308 v 0 c 0.99438,-0.99438 2.15448,-2.15448 3.39746,-3.3974 v 0 c 1.24292,-1.24298 2.56879,-2.56879 3.89459,-3.89459 v 0 c 1.32581,-1.32587 2.65161,-2.65167 3.89459,-3.89459 v 0 c 1.24292,-1.24298 2.40302,-2.40308 3.3974,-3.39746 v 0 c 0.99439,-0.99433 1.823,-1.823 2.40308,-2.40302 v 0 c 0.58002,-0.58008 0.9115,-0.9115 0.9115,-0.9115 z m 28.28436,-28.28436 5.65668,5.65686 -21.21313,21.21332 -5.65687,-5.65686 c 0,0 0.0207,-0.0208 0.0609,-0.0609 v 0 c 0.0401,-0.0402 0.0997,-0.0997 0.17736,-0.17736 v 0 c 0.0777,-0.0777 0.17347,-0.17353 0.28614,-0.2862 v 0 c 0.11267,-0.11261 0.24212,-0.24212 0.38714,-0.38708 v 0 c 0.14502,-0.14502 0.30555,-0.30561 0.48035,-0.48041 v 0 c 0.17481,-0.17474 0.36383,-0.36383 0.5658,-0.5658 v 0 c 0.20196,-0.20196 0.41693,-0.41687 0.64349,-0.64349 v 0 c 0.22662,-0.22656 0.46484,-0.46478 0.71344,-0.71338 v 0 c 0.2486,-0.24859 0.50751,-0.50757 0.77557,-0.77557 v 0 c 0.26801,-0.26801 0.54505,-0.54511 0.8299,-0.82996 v 0 c 0.28485,-0.28485 0.57745,-0.57745 0.87659,-0.87652 v 0 c 0.29907,-0.29914 0.60461,-0.60468 0.9154,-0.91541 v 0 c 0.31073,-0.31073 0.62665,-0.62665 0.94641,-0.94647 v 0 c 0.31983,-0.31983 0.64356,-0.6435 0.96979,-0.96979 v 0 c 0.32629,-0.32629 0.65515,-0.65515 0.98535,-0.98529 v 0 c 0.33014,-0.3302 0.66162,-0.66162 0.99304,-0.9931 v 0 c 0.33149,-0.33142 0.66291,-0.66291 0.99311,-0.99304 v 0 c 0.33014,-0.33021 0.65899,-0.65906 0.98529,-0.98536 v 0 c 0.32629,-0.32629 0.64996,-0.64996 0.96978,-0.96978 v 0 c 0.31983,-0.31977 0.63575,-0.63569 0.94648,-0.94648 v 0 c 0.31073,-0.31073 0.61633,-0.61627 0.9154,-0.91534 v 0 c 0.29907,-0.29913 0.59168,-0.59174 0.87653,-0.87659 v 0 c 0.28485,-0.28485 0.56195,-0.56189 0.82995,-0.82995 v 0 c 0.26801,-0.26801 0.52698,-0.52692 0.77558,-0.77552 v 0 c 0.24859,-0.24859 0.48681,-0.48687 0.71338,-0.71344 v 0 c 0.22662,-0.22656 0.44152,-0.44152 0.64349,-0.64349 v 0 c 0.20203,-0.20197 0.39105,-0.39099 0.56586,-0.5658 v 0 c 0.17474,-0.1748 0.33532,-0.33532 0.48034,-0.48034 v 0 c 0.14502,-0.14502 0.27448,-0.27454 0.38709,-0.38715 v 0 c 0.11267,-0.11267 0.20849,-0.20843 0.28619,-0.28613 v 0 c 0.0776,-0.0777 0.13721,-0.13727 0.17737,-0.17737 v 0 c 0.0401,-0.0402 0.0609,-0.0609 0.0609,-0.0609 z m 28.28418,-28.284181 5.65686,5.65686 -21.21313,21.213131 -5.65686,-5.656856 c 0,0 0.33142,-0.331482 0.9115,-0.911499 v 0 c 0.58001,-0.580078 1.40869,-1.408692 2.40301,-2.403076 v 0 c 0.99439,-0.994385 2.15448,-2.15448 3.39746,-3.3974 v 0 c 1.24292,-1.242981 2.56879,-2.568787 3.89459,-3.894593 v 0 c 1.32581,-1.325866 2.65162,-2.651672 3.8946,-3.894592 v 0 c 1.24292,-1.242981 2.40301,-2.403076 3.3974,-3.397461 v 0 c 0.99438,-0.994324 1.823,-1.822998 2.40307,-2.403015 v 0 c 0.58002,-0.580078 0.9115,-0.911499 0.9115,-0.911499 z m 28.28437,-28.284363 5.65667,5.656861 -21.21313,21.213317 -5.65686,-5.65686 c 0,0 0.0207,-0.02075 0.0608,-0.06085 v 0 c 0.0401,-0.04016 0.0997,-0.09973 0.17737,-0.177368 v 0 c 0.0777,-0.0777 0.17346,-0.173523 0.28613,-0.286194 v 0 c 0.11267,-0.11261 0.24213,-0.242126 0.38715,-0.387085 v 0 c 0.14502,-0.145019 0.30554,-0.305603 0.48034,-0.480408 v 0 c 0.17481,-0.174743 0.36383,-0.363769 0.5658,-0.565796 v 0 c 0.20196,-0.201965 0.41693,-0.41687 0.64349,-0.643493 v 0 c 0.22663,-0.226563 0.46485,-0.464783 0.71344,-0.713379 v 0 c 0.2486,-0.248596 0.50751,-0.507568 0.77558,-0.775574 v 0 c 0.268,-0.268005 0.54504,-0.545105 0.82989,-0.829956 v 0 c 0.28485,-0.284851 0.57745,-0.577453 0.87659,-0.876526 v 0 c 0.29907,-0.299133 0.60461,-0.604675 0.9154,-0.915405 v 0 c 0.31073,-0.31073 0.62665,-0.626648 0.94641,-0.946472 v 0 c 0.31983,-0.319824 0.64356,-0.643494 0.96979,-0.969788 v 0 c 0.3263,-0.326294 0.65515,-0.655151 0.98535,-0.98529 v 0 c 0.33014,-0.330201 0.66162,-0.661621 0.99305,-0.993103 v 0 c 0.33148,-0.331421 0.6629,-0.662903 0.9931,-0.993042 v 0 c 0.33014,-0.330201 0.659,-0.659058 0.98529,-0.985352 v 0 c 0.32629,-0.326294 0.64996,-0.649963 0.96979,-0.969788 v 0 c 0.31982,-0.319763 0.63574,-0.635681 0.94647,-0.946472 v 0 c 0.31073,-0.31073 0.61627,-0.616272 0.9154,-0.915344 v 0 c 0.29908,-0.299133 0.59168,-0.591736 0.87653,-0.876587 v 0 c 0.28485,-0.284851 0.56195,-0.561889 0.82996,-0.829956 v 0 c 0.268,-0.268005 0.52697,-0.526916 0.77557,-0.775513 v 0 c 0.2486,-0.248596 0.48682,-0.486877 0.71338,-0.71344 v 0 c 0.22662,-0.226562 0.44153,-0.441528 0.64349,-0.643493 v 0 c 0.20203,-0.201966 0.39105,-0.390991 0.56586,-0.565796 v 0 c 0.17474,-0.174805 0.33533,-0.335327 0.48035,-0.480347 v 0 c 0.14502,-0.145019 0.27447,-0.274536 0.38708,-0.387146 v 0 c 0.11267,-0.112671 0.2085,-0.208435 0.28619,-0.286133 v 0 c 0.0776,-0.0777 0.13721,-0.137268 0.17737,-0.177368 v 0 c 0.0401,-0.04016 0.0609,-0.06085 0.0609,-0.06085 z m 28.28417,-28.284179 5.65687,5.65686 -21.21314,21.213135 -5.65686,-5.656861 c 0,0 0.33142,-0.331482 0.9115,-0.911499 v 0 c 0.58002,-0.580078 1.40869,-1.408691 2.40301,-2.403076 v 0 c 0.99439,-0.994385 2.15448,-2.15448 3.39747,-3.3974 v 0 c 1.24292,-1.242981 2.56872,-2.568786 3.89459,-3.894592 v 0 c 1.3258,-1.325867 2.65161,-2.651672 3.89459,-3.894592 v 0 c 1.24292,-1.242981 2.40301,-2.403077 3.3974,-3.397461 v 0 c 0.99438,-0.994324 1.823,-1.822998 2.40308,-2.403015 v 0 c 0.58001,-0.580079 0.91149,-0.911499 0.91149,-0.911499 z M 798.74707,0 l 5.65686,5.6569214 c 0.34345,0.3434448 0.6958,0.6958008 1.05512,1.0550537 v 0 c 1.24292,1.242981 2.56878,2.5687866 3.89459,3.8945919 v 0 c 1.3258,1.325867 2.65161,2.651673 3.89459,3.894593 v 0 c 1.24298,1.242981 2.40308,2.403076 3.3974,3.397461 v 0 c 0.99438,0.994323 1.823,1.822998 2.40308,2.403015 v 0 c 0.58001,0.580078 0.9115,0.911499 0.9115,0.911499 l -5.65687,5.65686 -15.55627,-15.556213 -6.14624,6.14624 -5.65686,-5.65686 c 0,0 0.18439,-0.184449 0.50714,-0.507203 v 0 c 0.32275,-0.322692 0.78381,-0.783752 1.3371,-1.3370357 v 0 c 0.55322,-0.5532837 1.19873,-1.1987915 1.89032,-1.8903808 v 0 c 0.69159,-0.6915894 1.42926,-1.4292603 2.16699,-2.1669312 v 0 c 0.0814,-0.081421 0.16333,-0.1633911 0.24469,-0.2446899 z"
         stroke="none"
         fill="#dcd7a4"
         id="path9" />
    </g>
  </g>
</svg>
