<?xml version="1.0" encoding="utf-8"?>
<!-- Generator: Adobe Illustrator 26.5.0, SVG Export Plug-In . SVG Version: 6.00 Build 0)  -->
<svg version="1.1" id="Layer_1" xmlns="http://www.w3.org/2000/svg" xmlns:xlink="http://www.w3.org/1999/xlink" x="0px" y="0px"
	 viewBox="0 0 271 271" style="enable-background:new 0 0 271 271;" xml:space="preserve">
<style type="text/css">
	.st0{fill:#0F4130;}
	.st1{fill:#FFFFFF;}
	.st2{fill-rule:evenodd;clip-rule:evenodd;fill:#FFFFFF;}
</style>
<g id="PSF_logo" transform="translate(-1601.875 -810.554)">
	<rect id="Rectangle_119" x="1601.9" y="810.6" class="st0" width="271" height="271"/>
	<g>
		<g>
			<g id="Group_3">
				<g id="Group_4">
					<path marker-start="none" marker-end="none" class="st1" d="M1680.5,1008.2c0,2-0.5,3.7-1.5,5.1c-1.1,1.5-2.6,2.3-4.5,2.4
						c-1.4,0-2.9-0.4-4.5-1.4v8.7l-2.4-0.9v-19.4c0.4-0.5,0.9-0.9,1.6-1.3c1.5-0.9,3.3-1.3,5.4-1.3l0,0c1.9,0,3.4,0.8,4.4,2.4
						C1680,1004.1,1680.5,1005.9,1680.5,1008.2z M1677.6,1008.1c0-4-1.2-6.1-3.5-6.2c-0.9,0-1.8,0.1-2.7,0.4
						c-0.7,0.2-1.2,0.5-1.4,0.7v9.6c1.5,0.9,2.8,1.4,3.9,1.3C1676.4,1013.8,1677.6,1011.8,1677.6,1008.1z"/>
					<path marker-start="none" marker-end="none" class="st1" d="M1695.6,1014c0,2.7-0.3,4.7-0.8,5.7c-0.6,1.1-1.6,1.9-3.2,2.5
						c-1.3,0.5-2.6,0.8-4.1,0.8l-0.4-1.6c1.5-0.2,2.5-0.4,3.1-0.6c1.2-0.4,2-1,2.5-1.9c0.4-0.7,0.5-2,0.5-3.9c0-0.4,0-0.6,0-0.6
						c-1.7,0.8-3.5,1.2-5.3,1.2c-1.2,0-2.3-0.4-3.2-1.1c-1-0.8-1.6-1.9-1.6-3.2V1001l2.5-0.8v10.3c0,1.1,0.4,2,1.1,2.6
						c0.7,0.6,1.6,0.9,2.8,0.9c1.1,0,2.3-0.5,3.6-1.3v-12.1h2.5V1014z"/>
					<path marker-start="none" marker-end="none" class="st1" d="M1705.2,1015.6c-0.3,0-0.6,0-0.8,0c-1.4,0-2.5-0.3-3.3-1
						c-0.8-0.7-1.2-1.6-1.2-2.8v-9.7h-1.7v-1.6h1.7v-4.1l2.5-0.9v5h2.8v1.6h-2.8v9.6c0,0.9,0.2,1.6,0.7,2c0.4,0.3,1.1,0.5,2,0.5
						V1015.6z"/>
					<path marker-start="none" marker-end="none" class="st1" d="M1720.6,1015.4h-2.5v-9.5c0-1-0.2-1.8-0.7-2.5
						c-0.5-0.8-1.2-1.2-2.2-1.2c-1.1,0-2.5,0.6-4.2,1.8v11.4h-2.5v-22.8l2.5-0.8v10.4c1.6-1.1,3.3-1.7,5.2-1.7
						c1.3,0,2.4,0.4,3.2,1.3c0.8,0.9,1.2,2,1.2,3.3V1015.4z"/>
					<path marker-start="none" marker-end="none" class="st1" d="M1736.9,1007.7c0,2.2-0.6,4-1.7,5.5c-1.2,1.6-3,2.5-5.1,2.5
						c-2.2,0-3.9-0.8-5.1-2.5c-1.1-1.5-1.7-3.3-1.7-5.5c0-2.1,0.6-3.8,1.8-5.2c1.3-1.5,2.9-2.3,5-2.3c2,0,3.7,0.8,5,2.3
						C1736.3,1003.9,1736.9,1005.6,1736.9,1007.7z M1734.1,1007.7c0-1.6-0.3-2.8-0.9-3.9c-0.7-1.2-1.8-1.9-3.2-2
						c-2.7,0.2-4.1,2.1-4.1,5.8l0,0c0,1.7,0.3,3.1,0.8,4.3c0.7,1.5,1.8,2.2,3.3,2.2C1732.8,1014.1,1734.1,1012,1734.1,1007.7z"/>
					<path marker-start="none" marker-end="none" class="st1" d="M1751.5,1015.4h-2.5v-10.1c0-1.1-0.3-2-1-2.6
						c-0.7-0.6-1.5-0.9-2.7-0.9c-1.2,0-2.3,0.4-3.3,1.1v12.4h-2.5v-12.7c1.4-1,2.7-1.7,3.9-2c1.1-0.3,2.1-0.4,3-0.4
						c0.6,0,1.1,0.1,1.7,0.2c1,0.2,1.8,0.6,2.4,1.2c0.7,0.7,1,1.5,1,2.4V1015.4z"/>
				</g>
			</g>
			<g id="Group_5">
				<g id="Group_6">
					<path marker-start="none" marker-end="none" class="st1" d="M1760,1004.9c0,0.6-0.3,1.1-0.9,1.6v0c-0.4,0.3-0.9,0.4-1.4,0.4
						c-0.4,0-0.7-0.1-1.1-0.2c-0.4-0.1-0.7-0.3-0.9-0.5l0.3-0.5c0.5,0.5,1.1,0.7,1.7,0.7c0.4,0,0.7-0.1,1-0.3
						c0.3-0.2,0.5-0.5,0.5-0.9c0-0.3-0.1-0.5-0.3-0.7c-0.2-0.2-0.5-0.3-0.9-0.5l-0.7-0.2c-0.6-0.2-1-0.4-1.2-0.6
						c-0.3-0.3-0.4-0.6-0.4-1c0-0.6,0.2-1,0.6-1.3c0.4-0.3,0.9-0.5,1.5-0.5c0.6,0,1.1,0.2,1.6,0.6l-0.3,0.5
						c-0.4-0.3-0.8-0.5-1.3-0.5c-0.4,0-0.7,0.1-0.9,0.3c-0.2,0.2-0.3,0.5-0.4,0.8c0,0.4,0.4,0.8,1.1,1l0.7,0.2
						c0.5,0.2,0.9,0.4,1.2,0.7C1759.9,1004.1,1760,1004.4,1760,1004.9z"/>
					<path marker-start="none" marker-end="none" class="st1" d="M1766.3,1003.4L1766.3,1003.4c0,0.9-0.2,1.7-0.7,2.3
						c-0.5,0.8-1.2,1.1-2.1,1.1s-1.6-0.4-2.1-1.1c-0.5-0.7-0.7-1.4-0.7-2.3c0-0.9,0.2-1.6,0.7-2.3c0.5-0.7,1.2-1,2.1-1
						c0.9,0,1.5,0.3,2.1,1C1766,1001.8,1766.3,1002.6,1766.3,1003.4z M1765.4,1003.4c0-0.7-0.2-1.3-0.5-1.8
						c-0.4-0.6-0.9-0.9-1.5-0.9c-0.6,0-1.1,0.3-1.5,0.9c-0.3,0.5-0.5,1.1-0.5,1.8c0,0.8,0.2,1.4,0.5,2c0.4,0.6,0.9,0.9,1.4,0.9
						c0.6,0,1.1-0.3,1.4-0.9C1765.2,1004.8,1765.4,1004.2,1765.4,1003.4z"/>
					<path marker-start="none" marker-end="none" class="st1" d="M1770.8,1000.3l-0.3,0.5h-2.6v2.2h2.2l-0.3,0.5h-1.9v3.3h-0.7v-6.5
						H1770.8z"/>
					<path marker-start="none" marker-end="none" class="st1" d="M1775.7,1000.8h-1.9v6h-0.8v-6h-1.9l0.2-0.5l4.4,0V1000.8z"/>
					<path marker-start="none" marker-end="none" class="st1" d="M1783.9,1000.2l-1.7,6.5l-0.6,0.2l-1.6-5.6l-1.4,5.4l-0.6,0.2
						l-1.8-6.5l0.7-0.3l1.5,5.3l1.4-5l0.7-0.3l1.5,5.3l1.5-5.3L1783.9,1000.2z"/>
					<path marker-start="none" marker-end="none" class="st1" d="M1789.2,1006.8h-0.8l-0.7-2h-2.5l-0.7,2h-0.6l2.4-6.4l0.7-0.2
						L1789.2,1006.8z M1787.5,1004.3l-1-3.1l-1.1,3.1H1787.5z"/>
					<path marker-start="none" marker-end="none" class="st1" d="M1793.9,1006.8h-0.9l-1.7-3.1h-0.5v3.1h-0.8v-6.5h2.1
						c0.5,0,1,0.2,1.3,0.5c0.4,0.3,0.5,0.8,0.5,1.2c0,0.5-0.2,0.9-0.5,1.2c-0.3,0.3-0.7,0.5-1.2,0.5L1793.9,1006.8z M1793.1,1002
						c0-0.3-0.1-0.6-0.4-0.8c-0.2-0.2-0.5-0.4-0.8-0.4h-1.2v2.4h1.2c0.4,0,0.6-0.1,0.9-0.3C1793,1002.6,1793.1,1002.3,1793.1,1002z"
						/>
					<path marker-start="none" marker-end="none" class="st1" d="M1798.4,1000.3l-0.3,0.5h-2.6v2.2h2.2l-0.3,0.5h-1.9v2.7h2.8v0.5
						h-3.6v-6.5L1798.4,1000.3z"/>
				</g>
				<g id="Group_7">
					<path marker-start="none" marker-end="none" class="st1" d="M1759.6,1008.9l-0.3,0.5h-2.6v2.2h2.2l-0.3,0.5h-1.9v3.3h-0.7v-6.5
						H1759.6z"/>
					<path marker-start="none" marker-end="none" class="st1" d="M1765.4,1012.1L1765.4,1012.1c0,0.9-0.2,1.7-0.7,2.3
						c-0.5,0.8-1.2,1.1-2.1,1.1c-0.9,0-1.6-0.4-2.1-1.1c-0.5-0.7-0.7-1.4-0.7-2.3c0-0.9,0.2-1.6,0.7-2.3c0.5-0.7,1.2-1,2.1-1
						c0.9,0,1.5,0.3,2.1,1C1765.2,1010.5,1765.4,1011.2,1765.4,1012.1z M1764.6,1012.1c0-0.7-0.2-1.3-0.5-1.8
						c-0.4-0.6-0.9-0.9-1.5-0.9c-0.6,0-1.1,0.3-1.5,0.9c-0.3,0.5-0.5,1.1-0.5,1.8c0,0.8,0.2,1.4,0.5,2c0.4,0.6,0.9,0.9,1.4,0.9
						c0.6,0,1.1-0.3,1.5-0.9C1764.4,1013.5,1764.6,1012.8,1764.6,1012.1z"/>
					<path marker-start="none" marker-end="none" class="st1" d="M1771,1013.2c0,0.7-0.2,1.2-0.7,1.7c-0.5,0.4-1,0.6-1.7,0.6
						c-0.7,0-1.2-0.2-1.7-0.6c-0.4-0.4-0.7-1-0.7-1.7v-4.2l0.8-0.3v4.3c0,1.2,0.5,1.8,1.6,1.8c0.5,0,1-0.2,1.3-0.5
						c0.3-0.3,0.5-0.8,0.5-1.3v-4.2h0.6V1013.2z"/>
					<path marker-start="none" marker-end="none" class="st1" d="M1777.2,1015.5h-0.7l-3.7-5.3v5.3h-0.5v-6.5l0.6-0.2l3.8,5.6v-5.4
						h0.5V1015.5z"/>
					<path marker-start="none" marker-end="none" class="st1" d="M1783.1,1012.3c0,0.8-0.2,1.6-0.7,2.2c-0.5,0.7-1.1,1-1.9,1
						c-0.7,0-1.4-0.3-2.1-0.8v-5.8l2.1,0c0.8,0,1.5,0.4,2,1.1C1782.9,1010.6,1783.1,1011.4,1783.1,1012.3z M1782.2,1012.4
						c0-2-0.7-2.9-2.2-2.9h-0.8v5.1c0.3,0.3,0.7,0.5,1.1,0.5c0.6,0,1.1-0.3,1.4-0.9C1782,1013.6,1782.2,1013.1,1782.2,1012.4z"/>
					<path marker-start="none" marker-end="none" class="st1" d="M1788.8,1015.5h-0.8l-0.7-2h-2.5l-0.7,2h-0.6l2.4-6.4l0.7-0.2
						L1788.8,1015.5z M1787.2,1012.9l-1-3.1l-1.1,3.1H1787.2z"/>
					<path marker-start="none" marker-end="none" class="st1" d="M1793,1009.4h-1.9v6h-0.8v-6h-1.9l0.2-0.5l4.4,0V1009.4z"/>
					<path marker-start="none" marker-end="none" class="st1" d="M1794.6,1015.5h-0.8v-6.4l0.8-0.3V1015.5z"/>
					<path marker-start="none" marker-end="none" class="st1" d="M1801.2,1012.1L1801.2,1012.1c0,0.9-0.2,1.7-0.7,2.3
						c-0.5,0.8-1.2,1.1-2.1,1.1c-0.9,0-1.6-0.4-2.1-1.1c-0.5-0.7-0.7-1.4-0.7-2.3c0-0.9,0.2-1.6,0.7-2.3c0.5-0.7,1.2-1,2.1-1
						c0.9,0,1.5,0.3,2.1,1C1800.9,1010.5,1801.2,1011.2,1801.2,1012.1z M1800.3,1012.1c0-0.7-0.2-1.3-0.5-1.8
						c-0.4-0.6-0.9-0.9-1.5-0.9c-0.6,0-1.1,0.3-1.5,0.9c-0.3,0.5-0.5,1.1-0.5,1.8c0,0.8,0.2,1.4,0.5,2c0.4,0.6,0.9,0.9,1.4,0.9
						c0.6,0,1.1-0.3,1.5-0.9C1800.1,1013.5,1800.3,1012.8,1800.3,1012.1z"/>
					<path marker-start="none" marker-end="none" class="st1" d="M1807,1015.5h-0.7l-3.7-5.3v5.3h-0.5v-6.5l0.6-0.2l3.8,5.6v-5.4
						h0.5V1015.5z"/>
				</g>
			</g>
			<path marker-start="none" marker-end="none" class="st2" d="M1700,1019.9L1700,1019.9c0,0.7,0.6,1.2,1.2,1.2l104.6,0
				c0.7,0,1.2-0.6,1.2-1.2v0c0-0.7-0.6-1.2-1.2-1.2l-104.6,0C1700.6,1018.7,1700,1019.2,1700,1019.9z"/>
		</g>
		<g id="Group_1">
			<g id="Group_2">
				<path marker-start="none" marker-end="none" class="st1" d="M1736.7,869c-4.6,0-9.1,0.4-13,1.1c-11.5,2-13.6,6.3-13.6,14.1v10.3
					h27.2v3.5h-27.2H1700c-7.9,0-14.8,4.7-17,13.8c-2.5,10.3-2.6,16.8,0,27.6c1.9,8,6.5,13.8,14.4,13.8h9.3v-12.4
					c0-9,7.8-16.9,17-16.9h27.1c7.6,0,13.6-6.2,13.6-13.8v-25.9c0-7.4-6.2-12.9-13.6-14.1C1746.2,869.3,1741.3,869,1736.7,869
					L1736.7,869z M1722,877.3c2.8,0,5.1,2.3,5.1,5.2c0,2.9-2.3,5.2-5.1,5.2c-2.8,0-5.1-2.3-5.1-5.2
					C1716.9,879.7,1719.2,877.3,1722,877.3L1722,877.3z"/>
				<path marker-start="none" marker-end="none" class="st1" d="M1767.8,898v12.1c0,9.3-7.9,17.2-17,17.2h-27.1
					c-7.4,0-13.6,6.4-13.6,13.8V967c0,7.4,6.4,11.7,13.6,13.8c8.6,2.5,16.8,3,27.1,0c6.8-2,13.6-6,13.6-13.8v-10.3h-27.1v-3.5h27.1
					h13.6c7.9,0,10.8-5.5,13.6-13.8c2.8-8.5,2.7-16.7,0-27.6c-2-7.9-5.7-13.8-13.6-13.8H1767.8L1767.8,898z M1752.6,963.5
					c2.8,0,5.1,2.3,5.1,5.2c0,2.9-2.3,5.2-5.1,5.2c-2.8,0-5.1-2.3-5.1-5.2C1747.5,965.8,1749.8,963.5,1752.6,963.5L1752.6,963.5z"/>
			</g>
		</g>
	</g>
</g>
</svg>
