<?xml version="1.0" encoding="UTF-8" standalone="no"?>
<svg
   width="120"
   height="85.68219"
   viewBox="0 0 119.99999 85.682191"
   version="1.1"
   id="svg117"
   sodipodi:docname="scroll-down-button.svg"
   inkscape:version="1.1.2 (0a00cf5339, 2022-02-04)"
   xmlns:inkscape="http://www.inkscape.org/namespaces/inkscape"
   xmlns:sodipodi="http://sodipodi.sourceforge.net/DTD/sodipodi-0.dtd"
   xmlns="http://www.w3.org/2000/svg"
   xmlns:svg="http://www.w3.org/2000/svg">
  <defs
     id="defs121">
    <filter
       id="Path_547"
       x="0"
       y="41.535999"
       width="95.536003"
       height="95.223999"
       filterUnits="userSpaceOnUse">
      <feOffset
         dx="4"
         dy="4"
         input="SourceAlpha"
         id="feOffset2" />
      <feGaussianBlur
         stdDeviation="2"
         result="blur"
         id="feGaussianBlur4" />
      <feFlood
         flood-opacity="0.161"
         id="feFlood6" />
      <feComposite
         operator="in"
         in2="blur"
         id="feComposite8"
         result="result1" />
      <feComposite
         in="SourceGraphic"
         in2="result1"
         id="feComposite10" />
    </filter>
  </defs>
  <sodipodi:namedview
     id="namedview119"
     pagecolor="#ffffff"
     bordercolor="#666666"
     borderopacity="1.0"
     inkscape:pageshadow="2"
     inkscape:pageopacity="0"
     inkscape:pagecheckerboard="0"
     showgrid="false"
     fit-margin-top="0"
     fit-margin-left="0"
     fit-margin-right="0"
     fit-margin-bottom="0"
     inkscape:zoom="1.1619039"
     inkscape:cx="101.12712"
     inkscape:cy="81.762353"
     inkscape:window-width="1366"
     inkscape:window-height="699"
     inkscape:window-x="0"
     inkscape:window-y="0"
     inkscape:window-maximized="1"
     inkscape:current-layer="svg117"
     showguides="true"
     inkscape:guide-bbox="true">
    <sodipodi:guide
       position="68.707477,4.3913359"
       orientation="0,-1"
       id="guide402" />
  </sodipodi:namedview>
  <g
     id="Scroll_down_set"
     data-name="Scroll down set"
     transform="matrix(0.62651395,0,0,0.62651395,-552.64796,-553.53746)"
     style="fill:#ffffff">
    <g
       transform="translate(882.1,883.52)"
       filter="url(#Path_547)"
       id="g16"
       style="fill:#ffffff">
      <path
         id="Path_547-2"
         data-name="Path 547"
         d="m 226.771,114.33 a 2.466,2.466 0 0 1 2.777,-2.5 c 0,0 -0.9,-0.12 0.021,0 a 41.769,41.769 0 1 1 -11.17,0 l 0.045,-0.006 a 2.469,2.469 0 0 1 2.771,2.5 v 47.556 c 0,0.767 -0.438,0.949 -0.975,0.411 l -10.944,-10.976 c -2.619,-2.626 -6.55,1.312 -3.929,3.938 L 221.6,171.7 a 3.417,3.417 0 0 0 4.89,-0.019 l 16.129,-16.424 c 2.62,-2.626 -1.309,-6.564 -3.929,-3.938 L 227.746,162.3 c -0.538,0.54 -0.975,0.361 -0.975,-0.411 z"
         transform="translate(-180.22,-68.24)"
         fill="#fff"
         fill-rule="evenodd"
         style="fill:#ffffff" />
    </g>
    <path
       id="Path_3667"
       data-name="Path 3667"
       d="M 5.6,0.2 A 6.136,6.136 0 0 1 3.81,-0.07 7.64,7.64 0 0 1 2.14,-0.8 6.287,6.287 0 0 1 0.8,-1.84 L 2.4,-3.36 A 4.9,4.9 0 0 0 3.91,-2.37 4.221,4.221 0 0 0 5.56,-2 2.7,2.7 0 0 0 7.33,-2.6 1.846,1.846 0 0 0 8.06,-4.08 1.531,1.531 0 0 0 7.54,-5.31 3.594,3.594 0 0 0 6.06,-6.06 18.3,18.3 0 0 1 3.21,-7.04 4.217,4.217 0 0 1 1.43,-8.43 a 3.277,3.277 0 0 1 -0.45,-2.25 3.454,3.454 0 0 1 1.45,-2.57 5.278,5.278 0 0 1 3.09,-0.87 8.383,8.383 0 0 1 2.15,0.3 7.991,7.991 0 0 1 2.21,0.98 l -1.5,1.6 a 9.71,9.71 0 0 0 -1.32,-0.52 4.71,4.71 0 0 0 -1.42,-0.22 4.129,4.129 0 0 0 -1.19,0.13 2.054,2.054 0 0 0 -0.93,0.5 1.3,1.3 0 0 0 -0.38,0.93 1.334,1.334 0 0 0 0.32,1 2.492,2.492 0 0 0 0.95,0.59 q 0.61,0.23 1.41,0.47 A 13.484,13.484 0 0 1 8.2,-7.5 3.578,3.578 0 0 1 9.69,-6.22 3.941,3.941 0 0 1 10.2,-4.08 3.944,3.944 0 0 1 9.58,-1.91 4.479,4.479 0 0 1 7.91,-0.37 4.763,4.763 0 0 1 5.6,0.2 Z m 16.94,0.02 a 6.272,6.272 0 0 1 -2.67,-0.57 7.5,7.5 0 0 1 -2.17,-1.51 7.1,7.1 0 0 1 -1.48,-2.25 7.364,7.364 0 0 1 -0.54,-2.87 7.406,7.406 0 0 1 0.54,-2.85 7.281,7.281 0 0 1 1.48,-2.29 6.886,6.886 0 0 1 2.16,-1.52 6.435,6.435 0 0 1 2.68,-0.56 6.47,6.47 0 0 1 2.86,0.66 7.638,7.638 0 0 1 2.5,2.02 l -1.7,1.42 a 5.793,5.793 0 0 0 -1.75,-1.44 4.18,4.18 0 0 0 -1.91,-0.46 4.156,4.156 0 0 0 -1.79,0.39 5.254,5.254 0 0 0 -1.49,1.05 4.721,4.721 0 0 0 -1,1.57 5.419,5.419 0 0 0 -0.36,2.01 5.187,5.187 0 0 0 0.36,1.98 5.038,5.038 0 0 0 1,1.56 4.506,4.506 0 0 0 1.48,1.08 4.316,4.316 0 0 0 1.8,0.38 4.18,4.18 0 0 0 1.91,-0.46 5.793,5.793 0 0 0 1.75,-1.44 l 1.7,1.4 a 7.543,7.543 0 0 1 -2.5,2.04 6.47,6.47 0 0 1 -2.86,0.66 z M 43.46,0 H 40.92 L 37.58,-5.6 H 36.02 V 0 H 33.9 l 0.02,-14 h 5.28 a 3.062,3.062 0 0 1 1.85,0.59 4.12,4.12 0 0 1 1.28,1.55 4.622,4.622 0 0 1 0.47,2.06 4.21,4.21 0 0 1 -0.36,1.69 4.557,4.557 0 0 1 -0.99,1.45 3.611,3.611 0 0 1 -1.43,0.88 z m -2.82,-9.8 a 2.479,2.479 0 0 0 -0.2,-0.96 2.225,2.225 0 0 0 -0.55,-0.8 1.164,1.164 0 0 0 -0.81,-0.32 h -3.06 v 4.04 h 3.04 a 1.207,1.207 0 0 0 0.81,-0.3 2.171,2.171 0 0 0 0.56,-0.76 2.158,2.158 0 0 0 0.21,-0.9 z M 62,-7.02 a 7.421,7.421 0 0 1 -0.53,2.81 7.14,7.14 0 0 1 -1.47,2.29 6.966,6.966 0 0 1 -2.18,1.54 6.387,6.387 0 0 1 -2.66,0.56 6.339,6.339 0 0 1 -2.68,-0.57 7.026,7.026 0 0 1 -2.18,-1.56 7.288,7.288 0 0 1 -1.47,-2.29 7.292,7.292 0 0 1 -0.53,-2.78 7.1,7.1 0 0 1 0.54,-2.77 7.285,7.285 0 0 1 1.5,-2.28 7.126,7.126 0 0 1 2.2,-1.55 6.293,6.293 0 0 1 2.62,-0.56 6.387,6.387 0 0 1 2.66,0.56 6.889,6.889 0 0 1 2.18,1.55 7.288,7.288 0 0 1 1.47,2.29 7.24,7.24 0 0 1 0.53,2.76 z m -2.2,0 a 5.219,5.219 0 0 0 -0.63,-2.55 5.166,5.166 0 0 0 -1.68,-1.85 4.11,4.11 0 0 0 -2.33,-0.7 4.143,4.143 0 0 0 -2.35,0.7 5.143,5.143 0 0 0 -1.68,1.86 5.236,5.236 0 0 0 -0.63,2.54 5.276,5.276 0 0 0 0.63,2.56 5.11,5.11 0 0 0 1.69,1.86 4.157,4.157 0 0 0 2.34,0.7 4.143,4.143 0 0 0 2.35,-0.7 5.037,5.037 0 0 0 1.67,-1.87 5.362,5.362 0 0 0 0.62,-2.55 z M 74.58,0 h -6.56 v -14 h 2.12 v 11.92 h 4.44 z M 87.16,0 H 80.6 v -14 h 2.12 v 11.92 h 4.44 z"
       transform="translate(881.866,897.72)"
       fill="#fff"
       style="fill:#ffffff" />
  </g>
  <g
     id="g382"
     data-name="Scroll down set"
     transform="matrix(0.62651395,0,0,0.62651395,-552.64796,-553.53746)"
     style="fill:#ffffff">
    <g
       transform="translate(882.1,883.52)"
       filter="url(#Path_547)"
       id="g378"
       style="fill:#ffffff">
      <path
         id="path376"
         data-name="Path 547"
         d="m 226.771,114.33 a 2.466,2.466 0 0 1 2.777,-2.5 c 0,0 -0.9,-0.12 0.021,0 a 41.769,41.769 0 1 1 -11.17,0 l 0.045,-0.006 a 2.469,2.469 0 0 1 2.771,2.5 v 47.556 c 0,0.767 -0.438,0.949 -0.975,0.411 l -10.944,-10.976 c -2.619,-2.626 -6.55,1.312 -3.929,3.938 L 221.6,171.7 a 3.417,3.417 0 0 0 4.89,-0.019 l 16.129,-16.424 c 2.62,-2.626 -1.309,-6.564 -3.929,-3.938 L 227.746,162.3 c -0.538,0.54 -0.975,0.361 -0.975,-0.411 z"
         transform="translate(-180.22,-68.24)"
         fill="#fff"
         fill-rule="evenodd"
         style="fill:#ffffff" />
    </g>
    <path
       id="path380"
       data-name="Path 3667"
       d="M 5.6,0.2 A 6.136,6.136 0 0 1 3.81,-0.07 7.64,7.64 0 0 1 2.14,-0.8 6.287,6.287 0 0 1 0.8,-1.84 L 2.4,-3.36 A 4.9,4.9 0 0 0 3.91,-2.37 4.221,4.221 0 0 0 5.56,-2 2.7,2.7 0 0 0 7.33,-2.6 1.846,1.846 0 0 0 8.06,-4.08 1.531,1.531 0 0 0 7.54,-5.31 3.594,3.594 0 0 0 6.06,-6.06 18.3,18.3 0 0 1 3.21,-7.04 4.217,4.217 0 0 1 1.43,-8.43 a 3.277,3.277 0 0 1 -0.45,-2.25 3.454,3.454 0 0 1 1.45,-2.57 5.278,5.278 0 0 1 3.09,-0.87 8.383,8.383 0 0 1 2.15,0.3 7.991,7.991 0 0 1 2.21,0.98 l -1.5,1.6 a 9.71,9.71 0 0 0 -1.32,-0.52 4.71,4.71 0 0 0 -1.42,-0.22 4.129,4.129 0 0 0 -1.19,0.13 2.054,2.054 0 0 0 -0.93,0.5 1.3,1.3 0 0 0 -0.38,0.93 1.334,1.334 0 0 0 0.32,1 2.492,2.492 0 0 0 0.95,0.59 q 0.61,0.23 1.41,0.47 A 13.484,13.484 0 0 1 8.2,-7.5 3.578,3.578 0 0 1 9.69,-6.22 3.941,3.941 0 0 1 10.2,-4.08 3.944,3.944 0 0 1 9.58,-1.91 4.479,4.479 0 0 1 7.91,-0.37 4.763,4.763 0 0 1 5.6,0.2 Z m 16.94,0.02 a 6.272,6.272 0 0 1 -2.67,-0.57 7.5,7.5 0 0 1 -2.17,-1.51 7.1,7.1 0 0 1 -1.48,-2.25 7.364,7.364 0 0 1 -0.54,-2.87 7.406,7.406 0 0 1 0.54,-2.85 7.281,7.281 0 0 1 1.48,-2.29 6.886,6.886 0 0 1 2.16,-1.52 6.435,6.435 0 0 1 2.68,-0.56 6.47,6.47 0 0 1 2.86,0.66 7.638,7.638 0 0 1 2.5,2.02 l -1.7,1.42 a 5.793,5.793 0 0 0 -1.75,-1.44 4.18,4.18 0 0 0 -1.91,-0.46 4.156,4.156 0 0 0 -1.79,0.39 5.254,5.254 0 0 0 -1.49,1.05 4.721,4.721 0 0 0 -1,1.57 5.419,5.419 0 0 0 -0.36,2.01 5.187,5.187 0 0 0 0.36,1.98 5.038,5.038 0 0 0 1,1.56 4.506,4.506 0 0 0 1.48,1.08 4.316,4.316 0 0 0 1.8,0.38 4.18,4.18 0 0 0 1.91,-0.46 5.793,5.793 0 0 0 1.75,-1.44 l 1.7,1.4 a 7.543,7.543 0 0 1 -2.5,2.04 6.47,6.47 0 0 1 -2.86,0.66 z M 43.46,0 H 40.92 L 37.58,-5.6 H 36.02 V 0 H 33.9 l 0.02,-14 h 5.28 a 3.062,3.062 0 0 1 1.85,0.59 4.12,4.12 0 0 1 1.28,1.55 4.622,4.622 0 0 1 0.47,2.06 4.21,4.21 0 0 1 -0.36,1.69 4.557,4.557 0 0 1 -0.99,1.45 3.611,3.611 0 0 1 -1.43,0.88 z m -2.82,-9.8 a 2.479,2.479 0 0 0 -0.2,-0.96 2.225,2.225 0 0 0 -0.55,-0.8 1.164,1.164 0 0 0 -0.81,-0.32 h -3.06 v 4.04 h 3.04 a 1.207,1.207 0 0 0 0.81,-0.3 2.171,2.171 0 0 0 0.56,-0.76 2.158,2.158 0 0 0 0.21,-0.9 z M 62,-7.02 a 7.421,7.421 0 0 1 -0.53,2.81 7.14,7.14 0 0 1 -1.47,2.29 6.966,6.966 0 0 1 -2.18,1.54 6.387,6.387 0 0 1 -2.66,0.56 6.339,6.339 0 0 1 -2.68,-0.57 7.026,7.026 0 0 1 -2.18,-1.56 7.288,7.288 0 0 1 -1.47,-2.29 7.292,7.292 0 0 1 -0.53,-2.78 7.1,7.1 0 0 1 0.54,-2.77 7.285,7.285 0 0 1 1.5,-2.28 7.126,7.126 0 0 1 2.2,-1.55 6.293,6.293 0 0 1 2.62,-0.56 6.387,6.387 0 0 1 2.66,0.56 6.889,6.889 0 0 1 2.18,1.55 7.288,7.288 0 0 1 1.47,2.29 7.24,7.24 0 0 1 0.53,2.76 z m -2.2,0 a 5.219,5.219 0 0 0 -0.63,-2.55 5.166,5.166 0 0 0 -1.68,-1.85 4.11,4.11 0 0 0 -2.33,-0.7 4.143,4.143 0 0 0 -2.35,0.7 5.143,5.143 0 0 0 -1.68,1.86 5.236,5.236 0 0 0 -0.63,2.54 5.276,5.276 0 0 0 0.63,2.56 5.11,5.11 0 0 0 1.69,1.86 4.157,4.157 0 0 0 2.34,0.7 4.143,4.143 0 0 0 2.35,-0.7 5.037,5.037 0 0 0 1.67,-1.87 5.362,5.362 0 0 0 0.62,-2.55 z M 74.58,0 h -6.56 v -14 h 2.12 v 11.92 h 4.44 z M 87.16,0 H 80.6 v -14 h 2.12 v 11.92 h 4.44 z"
       transform="translate(881.866,897.72)"
       fill="#fff"
       style="fill:#ffffff" />
  </g>
  <path
     id="scroll_down_button"
     data-name="scroll down button"
     d="m 89.310169,28.876172 a 1.5449835,1.5449835 0 0 1 1.739822,-1.566289 c 0,0 -0.563858,-0.07519 0.01293,0 a 26.168862,26.168862 0 1 1 -6.99815,0 l 0.02817,-0.0037 a 1.5468628,1.5468628 0 0 1 1.73607,1.566286 v 29.794497 c 0,0.480531 -0.274412,0.594556 -0.610849,0.2575 l -6.85657,-6.876624 c -1.640839,-1.645227 -4.103667,0.821988 -2.461573,2.467212 l 10.170206,10.304277 a 2.1407981,2.1407981 0 0 0 3.063656,-0.01173 L 99.238923,54.517696 c 1.641497,-1.645281 -0.820056,-4.112491 -2.461532,-2.467267 l -6.85656,6.879755 c -0.337071,0.338309 -0.610855,0.226173 -0.610855,-0.257506 z"
     fill="#fff"
     fill-rule="evenodd"
     style="fill:#ffffff;stroke-width:0.626512" />
</svg>
