<svg id="community_block" data-name="community block" xmlns="http://www.w3.org/2000/svg" width="540.892" height="270.446" viewBox="0 0 540.892 270.446">
  <path id="Path_209" data-name="Path 209" d="M0,0H540.892V270.446H0Z" fill="#0f4130"/>
  <path id="Path_3649" data-name="Path 3649" d="M1.75,0V-24.5h9.135a5.82,5.82,0,0,1,3.133.858A5.979,5.979,0,0,1,16.17-21.35a6.775,6.775,0,0,1,.77,3.255,6.429,6.429,0,0,1-.525,2.713A11.554,11.554,0,0,1,14.7-12.845,7.6,7.6,0,0,1,17.4-10.2a6.473,6.473,0,0,1,.84,3.238,6.773,6.773,0,0,1-.49,2.5A7.838,7.838,0,0,1,16.38-2.2,6.9,6.9,0,0,1,14.385-.6,4.932,4.932,0,0,1,12.04,0ZM4.06-13.3h6.685A3.012,3.012,0,0,0,12.67-14a5.214,5.214,0,0,0,1.418-1.8A5.131,5.131,0,0,0,14.63-18.1a4.439,4.439,0,0,0-1-2.922,3.371,3.371,0,0,0-2.748-1.208H4.06Zm0,11.025h7.98A3.013,3.013,0,0,0,14-2.993a5.071,5.071,0,0,0,1.382-1.8,5.084,5.084,0,0,0,.507-2.17,4.618,4.618,0,0,0-1.015-2.957,3.306,3.306,0,0,0-2.73-1.278H4.06ZM37.03-24.5,28.6-8.225V0H26.32V-8.225L17.885-24.5H20.37l7.07,13.86,7.1-13.86Zm35.56,2.1H64.715V0H62.4V-22.4H54.53v-2.1H72.59ZM94.045,0h-2.31V-10.92H78.75V0H76.44V-24.5h2.31v11.69H91.735V-24.5h2.31ZM111.86,0H98.6V-24.5H111.86v2.065H100.9v9.45h8.855v1.995H100.9v8.925H111.86Z" transform="translate(85.453 109.43)" fill="#f2f2f2"/>
  <path id="Path_3650" data-name="Path 3650" d="M13.37.385a10.86,10.86,0,0,1-4.655-1,13.209,13.209,0,0,1-3.78-2.643,12.422,12.422,0,0,1-2.59-3.937A12.887,12.887,0,0,1,1.4-12.215,12.754,12.754,0,0,1,2.363-17.2,13.338,13.338,0,0,1,4.935-21.21,12.109,12.109,0,0,1,8.7-23.87a11.142,11.142,0,0,1,4.672-.98,11.2,11.2,0,0,1,5.075,1.207,13.9,13.9,0,0,1,4.48,3.727l-3.395,2.8a9.449,9.449,0,0,0-2.975-2.573,6.913,6.913,0,0,0-3.185-.787,6.814,6.814,0,0,0-2.922.63A8.215,8.215,0,0,0,8.015-18.1,7.841,7.841,0,0,0,6.37-15.523a8.833,8.833,0,0,0-.595,3.307A8.564,8.564,0,0,0,6.37-8.942,8.359,8.359,0,0,0,8.015-6.37,7.719,7.719,0,0,0,10.43-4.62a6.93,6.93,0,0,0,2.94.63,6.913,6.913,0,0,0,3.185-.788A9.449,9.449,0,0,0,19.53-7.35l3.395,2.8a13.9,13.9,0,0,1-4.48,3.727A11.2,11.2,0,0,1,13.37.385Zm37.38-12.7A12.986,12.986,0,0,1,49.822-7.4,12.5,12.5,0,0,1,47.25-3.395,12.19,12.19,0,0,1,43.435-.7,11.178,11.178,0,0,1,38.78.28a11.093,11.093,0,0,1-4.69-1,12.3,12.3,0,0,1-3.815-2.73A12.7,12.7,0,0,1,27.7-7.472a12.8,12.8,0,0,1-.927-4.847,12.336,12.336,0,0,1,.945-4.812,12.749,12.749,0,0,1,2.625-3.99,12.47,12.47,0,0,1,3.85-2.712,11.013,11.013,0,0,1,4.585-.98,11.059,11.059,0,0,1,4.638.98,12.323,12.323,0,0,1,3.815,2.712,12.651,12.651,0,0,1,2.59,3.99A12.539,12.539,0,0,1,50.75-12.32Zm-4.34,0a8.615,8.615,0,0,0-1.032-4.2,8.333,8.333,0,0,0-2.765-3.028,6.836,6.836,0,0,0-3.833-1.138,6.844,6.844,0,0,0-3.85,1.155,8.384,8.384,0,0,0-2.783,3.063,8.574,8.574,0,0,0-1.032,4.147,8.817,8.817,0,0,0,1.032,4.235,8.345,8.345,0,0,0,2.783,3.08A6.844,6.844,0,0,0,38.78-3.85a6.737,6.737,0,0,0,3.85-1.155,8.424,8.424,0,0,0,2.748-3.1A8.847,8.847,0,0,0,46.41-12.32ZM54.95,0V-24.5h6.79L67.515-9.03,73.29-24.5h6.79V0h-4.2V-19.355L69.51-3.5H65.555l-6.4-15.855V0ZM84.28,0V-24.5h6.79L96.845-9.03,102.62-24.5h6.79V0h-4.2V-19.355L98.84-3.5H94.885l-6.4-15.855V0Zm43.575,0V-2A8.452,8.452,0,0,1,125.58-.42a6.393,6.393,0,0,1-2.765.6,9.28,9.28,0,0,1-4.743-1.208A8.809,8.809,0,0,1,114.8-4.305a8.95,8.95,0,0,1-1.19-4.55V-24.5h4.165l.035,15.645a4.441,4.441,0,0,0,.665,2.4,4.586,4.586,0,0,0,1.8,1.663,5.391,5.391,0,0,0,2.538.595,5.414,5.414,0,0,0,2.607-.613,4.629,4.629,0,0,0,1.785-1.662,4.442,4.442,0,0,0,.647-2.38V-24.5h4.2V-9.52a2.6,2.6,0,0,1-.07.63h.07V0Zm27.02,0h-5.39L140.8-19.04V-.035h-4.2V-24.5h5.775l8.295,18.655V-24.5h4.2Zm8.4,0h-4.2V-24.5h4.2Zm22.26-20.65H178.6V0h-4.2V-20.65h-6.93V-24.5h18.06Zm23.31-3.85-7.77,16.135V0H196.84V-8.365L189.035-24.5H193.2l5.74,11.865L204.68-24.5Z" transform="translate(228.954 109.43)" fill="#fefefe"/>
  <path id="Path_3651" data-name="Path 3651" d="M15.3-23H4.176v9.576H13.14V-11.3H4.176V0H1.8V-25.2H15.3Zm25.236,10.44a13.454,13.454,0,0,1-.954,5.094,12.852,12.852,0,0,1-2.646,4.122A12.057,12.057,0,0,1,33.012-.612,11.86,11.86,0,0,1,28.224.36,11.763,11.763,0,0,1,23.4-.63,12.161,12.161,0,0,1,19.476-3.4,13.119,13.119,0,0,1,16.83-7.524a13.221,13.221,0,0,1-.954-5.04,13.14,13.14,0,0,1,.972-5.058,13,13,0,0,1,2.7-4.14,12.827,12.827,0,0,1,3.96-2.79,11.328,11.328,0,0,1,4.716-1.008,11.447,11.447,0,0,1,4.806,1.026,12.241,12.241,0,0,1,3.924,2.826,13.511,13.511,0,0,1,2.628,4.14A13.126,13.126,0,0,1,40.536-12.564Zm-2.412,0a11.463,11.463,0,0,0-.756-4.158,10.83,10.83,0,0,0-2.124-3.456,10.382,10.382,0,0,0-3.15-2.358,8.752,8.752,0,0,0-3.87-.864,9.025,9.025,0,0,0-3.888.846,9.743,9.743,0,0,0-3.15,2.358,11.506,11.506,0,0,0-2.124,3.474,11.227,11.227,0,0,0-.774,4.158,11.321,11.321,0,0,0,.756,4.14,10.878,10.878,0,0,0,2.124,3.438,10.312,10.312,0,0,0,3.168,2.358,8.867,8.867,0,0,0,3.888.864,9.025,9.025,0,0,0,3.888-.846,9.862,9.862,0,0,0,3.15-2.34,11.052,11.052,0,0,0,2.106-3.438A11.42,11.42,0,0,0,38.124-12.564ZM61.02,0H58.212l-6.7-10.872H46.872V0H44.5l.036-25.2h9.684a5.28,5.28,0,0,1,3.078.99,7.271,7.271,0,0,1,2.286,2.628,7.485,7.485,0,0,1,.864,3.546,7.057,7.057,0,0,1-.828,3.312A7.718,7.718,0,0,1,57.4-12.1a5.7,5.7,0,0,1-3.15,1.152ZM58.068-18.036a5.42,5.42,0,0,0-.5-2.286,4.835,4.835,0,0,0-1.386-1.8,3.174,3.174,0,0,0-2.034-.7H46.872v9.576h7.2A3.01,3.01,0,0,0,56.052-14a5.851,5.851,0,0,0,1.458-1.854A4.776,4.776,0,0,0,58.068-18.036Zm39.528-5H89.5V0H87.12V-23.04h-8.1V-25.2H97.6ZM119.664,0h-2.376V-11.232H103.932V0h-2.376V-25.2h2.376v12.024h13.356V-25.2h2.376Zm18.324,0H124.344V-25.2h13.644v2.124H126.72v9.72h9.108V-11.3H126.72v9.18h11.268Z" transform="translate(73.289 174.552)" fill="#f2f2f2"/>
  <path id="Path_3652" data-name="Path 3652" d="M13.37.385a10.86,10.86,0,0,1-4.655-1,13.209,13.209,0,0,1-3.78-2.643,12.422,12.422,0,0,1-2.59-3.937A12.887,12.887,0,0,1,1.4-12.215,12.754,12.754,0,0,1,2.363-17.2,13.338,13.338,0,0,1,4.935-21.21,12.109,12.109,0,0,1,8.7-23.87a11.142,11.142,0,0,1,4.672-.98,11.2,11.2,0,0,1,5.075,1.207,13.9,13.9,0,0,1,4.48,3.727l-3.395,2.8a9.449,9.449,0,0,0-2.975-2.573,6.913,6.913,0,0,0-3.185-.787,6.814,6.814,0,0,0-2.922.63A8.215,8.215,0,0,0,8.015-18.1,7.841,7.841,0,0,0,6.37-15.523a8.833,8.833,0,0,0-.595,3.307A8.564,8.564,0,0,0,6.37-8.942,8.359,8.359,0,0,0,8.015-6.37,7.719,7.719,0,0,0,10.43-4.62a6.93,6.93,0,0,0,2.94.63,6.913,6.913,0,0,0,3.185-.788A9.449,9.449,0,0,0,19.53-7.35l3.395,2.8a13.9,13.9,0,0,1-4.48,3.727A11.2,11.2,0,0,1,13.37.385Zm37.38-12.7A12.986,12.986,0,0,1,49.822-7.4,12.5,12.5,0,0,1,47.25-3.395,12.19,12.19,0,0,1,43.435-.7,11.178,11.178,0,0,1,38.78.28a11.093,11.093,0,0,1-4.69-1,12.3,12.3,0,0,1-3.815-2.73A12.7,12.7,0,0,1,27.7-7.472a12.8,12.8,0,0,1-.927-4.847,12.336,12.336,0,0,1,.945-4.812,12.749,12.749,0,0,1,2.625-3.99,12.47,12.47,0,0,1,3.85-2.712,11.013,11.013,0,0,1,4.585-.98,11.059,11.059,0,0,1,4.638.98,12.323,12.323,0,0,1,3.815,2.712,12.651,12.651,0,0,1,2.59,3.99A12.539,12.539,0,0,1,50.75-12.32Zm-4.34,0a8.615,8.615,0,0,0-1.032-4.2,8.333,8.333,0,0,0-2.765-3.028,6.836,6.836,0,0,0-3.833-1.138,6.844,6.844,0,0,0-3.85,1.155,8.384,8.384,0,0,0-2.783,3.063,8.574,8.574,0,0,0-1.032,4.147,8.817,8.817,0,0,0,1.032,4.235,8.345,8.345,0,0,0,2.783,3.08A6.844,6.844,0,0,0,38.78-3.85a6.737,6.737,0,0,0,3.85-1.155,8.424,8.424,0,0,0,2.748-3.1A8.847,8.847,0,0,0,46.41-12.32ZM54.95,0V-24.5h6.79L67.515-9.03,73.29-24.5h6.79V0h-4.2V-19.355L69.51-3.5H65.555l-6.4-15.855V0ZM84.28,0V-24.5h6.79L96.845-9.03,102.62-24.5h6.79V0h-4.2V-19.355L98.84-3.5H94.885l-6.4-15.855V0Zm43.575,0V-2A8.452,8.452,0,0,1,125.58-.42a6.393,6.393,0,0,1-2.765.6,9.28,9.28,0,0,1-4.743-1.208A8.809,8.809,0,0,1,114.8-4.305a8.95,8.95,0,0,1-1.19-4.55V-24.5h4.165l.035,15.645a4.441,4.441,0,0,0,.665,2.4,4.586,4.586,0,0,0,1.8,1.663,5.391,5.391,0,0,0,2.538.595,5.414,5.414,0,0,0,2.607-.613,4.629,4.629,0,0,0,1.785-1.662,4.442,4.442,0,0,0,.647-2.38V-24.5h4.2V-9.52a2.6,2.6,0,0,1-.07.63h.07V0Zm27.02,0h-5.39L140.8-19.04V-.035h-4.2V-24.5h5.775l8.295,18.655V-24.5h4.2Zm8.4,0h-4.2V-24.5h4.2Zm22.26-20.65H178.6V0h-4.2V-20.65h-6.93V-24.5h18.06Zm23.31-3.85-7.77,16.135V0H196.84V-8.365L189.035-24.5H193.2l5.74,11.865L204.68-24.5Z" transform="translate(241.102 173.552)" fill="#fefefe"/>
</svg>
