<?xml version="1.0" encoding="UTF-8" standalone="no"?>
<svg
   width="100"
   height="719.22144"
   viewBox="0 0 100 719.22142"
   version="1.1"
   id="svg3"
   sodipodi:docname="watermark-dark-mode.svg"
   inkscape:version="1.1.2 (0a00cf5339, 2022-02-04)"
   xmlns:inkscape="http://www.inkscape.org/namespaces/inkscape"
   xmlns:sodipodi="http://sodipodi.sourceforge.net/DTD/sodipodi-0.dtd"
   xmlns="http://www.w3.org/2000/svg"
   xmlns:svg="http://www.w3.org/2000/svg">
  <defs
     id="defs7" />
  <sodipodi:namedview
     id="namedview5"
     pagecolor="#ffffff"
     bordercolor="#666666"
     borderopacity="1.0"
     inkscape:pageshadow="2"
     inkscape:pageopacity="0.0"
     inkscape:pagecheckerboard="0"
     showgrid="false"
     fit-margin-top="0"
     fit-margin-left="0"
     fit-margin-right="0"
     fit-margin-bottom="0"
     inkscape:zoom="0.52088711"
     inkscape:cx="143.02523"
     inkscape:cy="445.39401"
     inkscape:window-width="1366"
     inkscape:window-height="699"
     inkscape:window-x="0"
     inkscape:window-y="0"
     inkscape:window-maximized="1"
     inkscape:current-layer="svg3" />
  <path
     id="watermark_-_PYCON_US_-_dark"
     data-name="watermark - PYCON US - dark"
     d="m 98.60352,715.47487 a 3.6050355,3.6050355 0 0 1 -1.110981,2.63858 3.6050355,3.6050355 0 0 1 -2.638579,1.10775 H 5.1422689 a 3.6042281,3.6042281 0 0 1 -2.6385791,-1.11098 3.6050355,3.6050355 0 0 1 -1.1109807,-2.63535 v -42.08162 q 0,-19.44217 8.6100999,-30.62141 8.6101,-11.17924 25.413684,-11.17924 16.66471,0 24.787141,11.1098 8.122432,11.10981 8.122432,30.69085 v 9.72108 H 94.85396 a 3.6050355,3.6050355 0 0 1 2.638579,1.11421 3.6050355,3.6050355 0 0 1 1.110981,2.63535 z M 42.637867,674.08761 a 6.2258519,6.2258519 0 0 0 -1.87478,-4.44069 q -1.87478,-1.94422 -5.62434,-1.94422 a 9.9980189,9.9980189 0 0 0 -5.554903,1.5276 q -2.360834,1.5276 -2.360834,4.86054 v 9.71785 H 42.637867 Z M 98.60352,595.34685 a 3.6050355,3.6050355 0 0 1 -1.110981,2.63858 3.6050355,3.6050355 0 0 1 -2.638579,1.11098 H 67.49606 L 5.6977593,630.34274 a 2.755652,2.755652 0 0 1 -1.2498533,0.27775 2.9389315,2.9389315 0 0 1 -2.1525251,-0.90267 2.9389315,2.9389315 0 0 1 -0.9026718,-2.15253 v -26.10804 a 5.8819,5.8819 0 0 1 1.180417,-3.819 7.3570175,7.3570175 0 0 1 2.2913977,-2.01365 L 32.777913,581.73734 4.8645238,567.85008 a 7.3570175,7.3570175 0 0 1 -2.2913977,-2.01365 5.8819,5.8819 0 0 1 -1.180417,-3.819 v -26.10804 a 2.9389315,2.9389315 0 0 1 0.9026718,-2.15253 2.9389315,2.9389315 0 0 1 2.1525251,-0.90267 2.7564594,2.7564594 0 0 1 1.2498533,0.27774 L 67.49606,564.37827 h 27.3579 a 3.6050355,3.6050355 0 0 1 2.638579,1.11098 3.6042281,3.6042281 0 0 1 1.110981,2.63535 z m 1.388725,-110.82032 q 0,20.96976 -9.235027,33.32942 -9.235027,12.35966 -28.399444,13.1929 -3.749559,0.13887 -12.220787,0.13887 -8.610101,0 -12.498533,-0.13887 Q 19.029527,530.21561 9.5167554,517.5782 0.0039832,504.9408 0.0039832,484.52653 A 67.813422,67.813422 0 0 1 3.7535431,461.54312 38.417648,38.417648 0 0 1 15.488276,444.46179 q 7.985174,-6.59645 20.067089,-6.73532 a 2.9389315,2.9389315 0 0 1 2.152525,0.90267 2.9389315,2.9389315 0 0 1 0.905902,2.15252 v 28.33001 a 5.2028776,5.2028776 0 0 1 -0.833236,3.26351 7.1301385,7.1301385 0 0 1 -3.194069,1.87478 q -4.166178,1.5276 -5.832649,4.0273 a 11.294701,11.294701 0 0 0 -1.666471,6.38814 q 0,4.86054 2.569143,7.49912 2.569143,2.63858 8.679536,2.77745 3.74956,0.13887 11.526425,0.13887 7.776865,0 11.80417,-0.13887 6.110394,-0.13887 8.679537,-2.77745 2.569143,-2.63858 2.569143,-7.49912 0,-7.91251 -7.49912,-10.41544 a 6.3558431,6.3558431 0 0 1 -3.19407,-1.73591 5.479008,5.479008 0 0 1 -0.833235,-3.40238 v -28.33001 a 2.9389315,2.9389315 0 0 1 0.902672,-2.15252 2.9389315,2.9389315 0 0 1 2.152525,-0.90267 q 12.081915,0.13887 20.067089,6.73532 a 38.417648,38.417648 0 0 1 11.731504,17.08133 67.812615,67.812615 0 0 1 3.749559,22.98341 z m 0,-102.62684 q 0,20.83088 -9.582208,33.19054 -9.582209,12.35967 -27.91339,13.1929 -3.74956,0.13887 -12.081915,0.13887 -8.471228,0 -12.35966,-0.13887 -11.943043,-0.41662 -20.553143,-6.3187 A 36.817384,36.817384 0 0 1 4.447906,405.78577 Q 0.00721279,395.5092 0.00721279,381.89969 q 0,-13.60952 4.44069321,-23.88609 a 36.817384,36.817384 0 0 1 13.054023,-16.17865 q 8.6101,-5.90209 20.553143,-6.31871 7.776865,-0.27774 12.35966,-0.27774 4.582795,0 12.081915,0.27451 18.327952,0.83324 27.91339,13.1929 9.585438,12.35966 9.582208,33.19378 z m -27.080154,0 q 0,-4.72167 -2.777452,-7.42807 -2.777451,-2.7064 -8.471228,-2.84689 -8.05461,-0.27775 -11.804169,-0.27775 -4.027305,0 -11.526425,0.27775 -5.693776,0.14049 -8.471228,2.91471 a 9.9487675,9.9487675 0 0 0 -2.777452,7.36025 9.9487675,9.9487675 0 0 0 2.777452,7.36024 q 2.777452,2.77746 8.471228,2.91633 3.74956,0.13887 11.526425,0.13887 7.776864,0 11.804169,-0.13887 5.693777,-0.13887 8.471228,-2.84689 2.777452,-2.70802 2.777452,-7.42968 z M 98.60352,318.0183 a 3.6050355,3.6050355 0 0 1 -1.110981,2.63858 3.6050355,3.6050355 0 0 1 -2.638579,1.11098 H 5.1422689 A 3.6050355,3.6050355 0 0 1 2.5036898,320.65688 3.6050355,3.6050355 0 0 1 1.3927091,318.0183 v -21.94187 a 6.0748683,6.0748683 0 0 1 3.1940695,-5.69378 L 43.054485,266.91318 H 5.1422689 A 3.6042281,3.6042281 0 0 1 2.5036898,265.8022 3.6042281,3.6042281 0 0 1 1.3927091,263.16362 v -25.13593 a 3.6042281,3.6042281 0 0 1 1.1109807,-2.63858 3.6050355,3.6050355 0 0 1 2.6385791,-1.11098 H 94.85396 a 3.6050355,3.6050355 0 0 1 2.638579,1.11098 3.6042281,3.6042281 0 0 1 1.110981,2.63858 v 21.94187 a 5.7842047,5.7842047 0 0 1 -0.968879,3.61068 9.4506025,9.4506025 0 0 1 -2.221961,2.08309 L 60.00017,289.1328 h 34.85379 a 3.6050355,3.6050355 0 0 1 2.638579,1.11098 3.6042281,3.6042281 0 0 1 1.110981,2.63858 z m 1.388725,-171.0878 q 0,20.83089 -9.512772,32.98224 -9.512772,12.15135 -28.538316,12.15135 H 5.1422689 A 3.6042281,3.6042281 0 0 1 2.5036898,190.95311 3.6042281,3.6042281 0 0 1 1.3927091,188.31453 V 161.0955 a 3.6042281,3.6042281 0 0 1 1.1109807,-2.64504 3.6050355,3.6050355 0 0 1 2.6385791,-1.11098 H 61.382437 q 5.277158,0 7.985173,-2.56914 2.708016,-2.56914 2.708016,-7.70743 0,-5.13828 -2.708016,-7.70743 -2.708015,-2.56914 -7.985173,-2.56914 H 5.1390393 a 3.6050355,3.6050355 0 0 1 -2.6385791,-1.11098 3.6042281,3.6042281 0 0 1 -1.1109807,-2.63858 v -27.21903 a 3.6042281,3.6042281 0 0 1 1.1109807,-2.63858 3.6042281,3.6042281 0 0 1 2.6385791,-1.11098 H 61.937927 q 19.025544,0 28.538317,12.08192 9.512772,12.08191 9.516001,32.77716 z m 0,-100.821497 q 0,14.720494 -4.027305,24.927629 Q 91.937635,81.243767 85.2007,86.378823 A 25.341825,25.341825 0 0 1 70.41077,91.794854 2.9389315,2.9389315 0 0 1 68.258245,90.892183 2.9389315,2.9389315 0 0 1 67.357188,88.739657 V 62.353866 a 8.3452736,8.3452736 0 0 1 0.484439,-3.124633 11.793674,11.793674 0 0 1 1.87478,-2.846888 q 3.194069,-4.027305 3.194069,-10.276572 a 22.548225,22.548225 0 0 0 -1.041544,-7.568556 q -1.041545,-2.846888 -2.846888,-2.846888 -2.502936,0 -3.818996,3.74956 -1.31606,3.74956 -2.706401,14.165004 Q 57.774979,89.43402 31.944678,89.43402 A 27.347403,27.347403 0 0 1 15.349404,84.087426 Q 8.0585933,78.740831 4.0312882,69.158623 0.0039832,59.576414 0.0039832,47.077881 q 0,-13.054023 4.4406932,-22.913977 Q 8.8853696,14.303951 15.623919,9.0267921 22.35924,3.7496338 28.747379,3.4718886 a 2.9389315,2.9389315 0 0 1 2.152525,0.9026718 2.7879479,2.7879479 0 0 1 0.902672,2.0136526 v 27.774518 a 7.7970498,7.7970498 0 0 1 -0.48444,3.055197 9.8179689,9.8179689 0 0 1 -1.735907,2.502936 10.910379,10.910379 0 0 0 -2.502936,7.360247 q 0,6.665884 3.888432,6.665884 2.083089,0 3.471815,-3.263506 1.388726,-3.263505 2.502936,-12.151351 Q 38.74782,24.444879 42.358507,16.043088 45.969194,7.6412958 52.010152,3.8222997 58.051109,0.00330357 67.2167,0.00330357 A 26.789491,26.789491 0 0 1 84.506337,5.9780544 q 7.428069,5.9747516 11.456989,16.4564016 a 65.633445,65.633445 0 0 1 4.028919,23.671317 z"
     fill="#ffffff"
     opacity="0.242"
     style="stroke-width:0.807399" />
</svg>
