<?xml version="1.0" encoding="UTF-8" standalone="no"?>
<svg
   width="245.31091"
   height="200"
   viewBox="0 0 245.31091 200.00001"
   version="1.1"
   id="svg36"
   sodipodi:docname="logo-200.svg"
   inkscape:version="1.1.2 (0a00cf5339, 2022-02-04)"
   xmlns:inkscape="http://www.inkscape.org/namespaces/inkscape"
   xmlns:sodipodi="http://sodipodi.sourceforge.net/DTD/sodipodi-0.dtd"
   xmlns="http://www.w3.org/2000/svg"
   xmlns:svg="http://www.w3.org/2000/svg">
  <sodipodi:namedview
     id="namedview38"
     pagecolor="#ffffff"
     bordercolor="#666666"
     borderopacity="1.0"
     inkscape:pageshadow="2"
     inkscape:pageopacity="0.0"
     inkscape:pagecheckerboard="0"
     showgrid="false"
     fit-margin-top="0"
     fit-margin-left="0"
     fit-margin-right="0"
     fit-margin-bottom="0"
     inkscape:zoom="3.4244807"
     inkscape:cx="83.078289"
     inkscape:cy="67.747498"
     inkscape:window-width="1366"
     inkscape:window-height="699"
     inkscape:window-x="0"
     inkscape:window-y="0"
     inkscape:window-maximized="1"
     inkscape:current-layer="svg36" />
  <defs
     id="defs13">
    <filter
       id="Rectangle_432"
       x="18.156"
       y="0"
       width="135.495"
       height="135.495"
       filterUnits="userSpaceOnUse">
      <feOffset
         dx="3"
         dy="3"
         input="SourceAlpha"
         id="feOffset2" />
      <feGaussianBlur
         stdDeviation="1.5"
         result="blur"
         id="feGaussianBlur4" />
      <feFlood
         flood-opacity="0.161"
         id="feFlood6" />
      <feComposite
         operator="in"
         in2="blur"
         id="feComposite8"
         result="result1" />
      <feComposite
         in="SourceGraphic"
         in2="result1"
         id="feComposite10" />
    </filter>
  </defs>
  <g
     id="_2023_logo_with_fader"
     data-name="2023 logo with fader"
     transform="matrix(1.4760693,0,0,1.4760693,-2965.4232,-1358.0723)">
    <rect
       id="year_scroll_layer_4"
       data-name="year scroll layer 4"
       width="166.192"
       height="61.450001"
       transform="translate(2009,958.717)"
       fill="#14392a"
       opacity="0.08"
       x="0"
       y="0" />
    <rect
       id="year_scroll_layer_2"
       data-name="year scroll layer 2"
       width="145.38699"
       height="106.036"
       transform="translate(2018.904,936.024)"
       fill="#14392a"
       opacity="0.607"
       x="0"
       y="0" />
    <path
       id="year_scroll_layer_3"
       data-name="year scroll layer 3"
       d="M 0,0 H 157.247 V 80.833 H 0 Z"
       transform="translate(2013.279,950.487)"
       fill="#14392a"
       opacity="0.128" />
    <g
       id="Group_2260"
       data-name="Group 2260"
       transform="translate(2028.656,921.56)">
      <g
         transform="translate(-19.66,-1.5)"
         filter="url(#Rectangle_432)"
         id="g19">
        <rect
           id="Rectangle_432-2"
           data-name="Rectangle 432"
           width="126.495"
           height="126.495"
           transform="translate(19.66,1.5)"
           fill="#0d392a"
           x="0"
           y="0" />
      </g>
      <path
         id="Path_288"
         data-name="Path 288"
         d="m 427.749,407.162 c 0,-5.119 3.4,-6.268 7.7,-8.277 7.177,-3.4 12.152,-7.655 12.152,-12.344 0,-4.737 -4.641,-8.134 -9.808,-8.134 -4.067,0 -6.938,1.483 -7.464,5.263 h -2.819 c 0.526,-4.067 3.349,-7.751 10.813,-7.751 6.985,0 11.626,5.023 11.626,10.43 0,7.033 -6.172,10.956 -13.253,14.593 -4.832,2.536 -6.364,2.919 -6.364,6.364 h 19.425 v 2.44 h -22.008 z"
         transform="translate(-399.315,-368.969)"
         fill="#ffffff" />
      <path
         id="Path_289"
         data-name="Path 289"
         d="m 518.817,410.056 a 12.783,12.783 0 0 1 -10.669,-5.024 20.2,20.2 0 0 1 -3.493,-11.962 c 0,-4.641 1.148,-8.947 3.493,-12.009 a 13.842,13.842 0 0 1 21.339,0.1 22.147,22.147 0 0 1 0,23.875 12.847,12.847 0 0 1 -10.67,5.02 z m 0,-31.387 a 10.355,10.355 0 0 0 -8.947,4.306 c -1.914,2.679 -2.679,6.315 -2.679,10.1 0,3.785 0.765,7.416 2.631,10.1 a 10.568,10.568 0 0 0 8.994,4.4 10.391,10.391 0 0 0 8.9,-4.4 c 1.914,-2.68 2.68,-6.316 2.68,-10.1 a 16.983,16.983 0 0 0 -2.68,-10.1 10.325,10.325 0 0 0 -8.899,-4.306 z"
         transform="translate(-433.392,-369.04)"
         fill="#ffffff" />
      <g
         id="Group_278"
         data-name="Group 278"
         transform="translate(18.602,66.323)">
        <path
           id="Path_290"
           data-name="Path 290"
           d="m 412.291,457.445 h 5.745 a 5.239,5.239 0 0 1 3.456,1.06 3.642,3.642 0 0 1 0.2,5.354 5.42,5.42 0 0 1 -3.656,0.975 h -2.027 v 2.949 a 0.419,0.419 0 0 1 -0.415,0.415 h -3.3 a 0.419,0.419 0 0 1 -0.415,-0.415 v -9.923 a 0.42,0.42 0 0 1 0.415,-0.415 z m 3.733,2.857 v 1.69 h 1.951 a 0.755,0.755 0 0 0 0.8,-0.814 0.922,0.922 0 0 0 -0.215,-0.63 0.735,0.735 0 0 0 -0.584,-0.246 z"
           transform="translate(-411.876,-457.429)"
           fill="#ffffff" />
        <path
           id="Path_291"
           data-name="Path 291"
           d="m 438.808,457.445 h 3.211 a 0.325,0.325 0 0 1 0.238,0.1 0.293,0.293 0 0 1 0.1,0.207 0.446,0.446 0 0 1 -0.046,0.2 l -3.872,6.405 v 3.425 a 0.419,0.419 0 0 1 -0.414,0.415 h -3.272 a 0.419,0.419 0 0 1 -0.415,-0.415 v -3.425 l -3.856,-6.405 a 0.445,0.445 0 0 1 -0.046,-0.2 0.292,0.292 0 0 1 0.1,-0.207 0.326,0.326 0 0 1 0.238,-0.1 h 3.242 a 0.672,0.672 0 0 1 0.629,0.353 l 1.736,3.041 1.782,-3.011 a 0.717,0.717 0 0 1 0.645,-0.383 z"
           transform="translate(-419.78,-457.429)"
           fill="#ffffff" />
        <path
           id="Path_292"
           data-name="Path 292"
           d="m 456.222,461.648 v 2.324 a 1.078,1.078 0 0 0 0.423,0.915 1.784,1.784 0 0 0 1.106,0.319 1.847,1.847 0 0 0 0.99,-0.2 1.579,1.579 0 0 0 0.515,-0.6 0.617,0.617 0 0 1 0.545,-0.393 h 3.318 a 0.328,0.328 0 0 1 0.238,0.1 0.317,0.317 0 0 1 0.1,0.234 3.37,3.37 0 0 1 -1.352,2.569 5.152,5.152 0 0 1 -1.8,0.93 8.8,8.8 0 0 1 -2.643,0.355 8.029,8.029 0 0 1 -2.773,-0.457 4.352,4.352 0 0 1 -2.035,-1.5 4.124,4.124 0 0 1 -0.784,-2.554 v -1.767 a 4.154,4.154 0 0 1 0.784,-2.561 q 1.474,-1.948 4.931,-1.947 a 8.353,8.353 0 0 1 2.519,0.355 5.159,5.159 0 0 1 1.8,0.93 3.369,3.369 0 0 1 1.352,2.569 0.318,0.318 0 0 1 -0.1,0.235 0.328,0.328 0 0 1 -0.238,0.1 H 459.8 a 0.617,0.617 0 0 1 -0.545,-0.392 1.587,1.587 0 0 0 -0.515,-0.6 1.848,1.848 0 0 0 -0.99,-0.2 1.781,1.781 0 0 0 -1.106,0.32 1.077,1.077 0 0 0 -0.422,0.916 z"
           transform="translate(-428.994,-457.418)"
           fill="#ffffff" />
        <path
           id="Path_293"
           data-name="Path 293"
           d="m 485.2,461.9 v 1.827 a 4.2,4.2 0 0 1 -0.768,2.576 4.148,4.148 0 0 1 -2.012,1.468 10.133,10.133 0 0 1 -5.868,0 4.153,4.153 0 0 1 -2.012,-1.468 4.247,4.247 0 0 1 -0.768,-2.606 v -1.767 a 3.87,3.87 0 0 1 1.59,-3.385 8.135,8.135 0 0 1 8.249,0 3.839,3.839 0 0 1 1.589,3.355 z m -7.282,-0.248 v 2.324 a 1.079,1.079 0 0 0 0.422,0.915 1.855,1.855 0 0 0 1.145,0.319 1.823,1.823 0 0 0 1.144,-0.326 1.1,1.1 0 0 0 0.423,-0.923 v -2.294 a 1.1,1.1 0 0 0 -0.423,-0.922 1.82,1.82 0 0 0 -1.144,-0.327 1.852,1.852 0 0 0 -1.145,0.32 1.077,1.077 0 0 0 -0.421,0.91 z"
           transform="translate(-438.233,-457.418)"
           fill="#ffffff" />
        <path
           id="Path_294"
           data-name="Path 294"
           d="m 503.7,457.445 h 2.857 a 0.42,0.42 0 0 1 0.414,0.415 v 9.923 a 0.418,0.418 0 0 1 -0.414,0.415 h -2.474 a 0.743,0.743 0 0 1 -0.614,-0.323 l -3.349,-4.27 v 4.178 a 0.419,0.419 0 0 1 -0.415,0.415 h -2.858 a 0.419,0.419 0 0 1 -0.414,-0.415 v -9.923 a 0.421,0.421 0 0 1 0.414,-0.415 h 2.489 a 0.716,0.716 0 0 1 0.6,0.307 l 3.348,4.624 v -4.516 a 0.421,0.421 0 0 1 0.415,-0.415 z"
           transform="translate(-447.883,-457.429)"
           fill="#ffffff" />
        <path
           id="Path_295"
           data-name="Path 295"
           d="m 535.785,467.106 a 8.124,8.124 0 0 1 -8.188,0 4,4 0 0 1 -1.513,-3.458 v -5.793 a 0.387,0.387 0 0 1 0.123,-0.288 0.4,0.4 0 0 1 0.292,-0.122 h 3.21 a 0.4,0.4 0 0 1 0.292,0.121 0.387,0.387 0 0 1 0.123,0.286 v 6.006 a 1.138,1.138 0 0 0 0.423,0.95 2.139,2.139 0 0 0 2.289,0 1.136,1.136 0 0 0 0.423,-0.95 v -6.006 a 0.386,0.386 0 0 1 0.123,-0.286 0.4,0.4 0 0 1 0.292,-0.121 h 3.211 a 0.4,0.4 0 0 1 0.292,0.122 0.388,0.388 0 0 1 0.122,0.288 v 5.793 a 4,4 0 0 1 -1.514,3.458 z"
           transform="translate(-460.509,-457.429)"
           fill="#ffffff" />
        <path
           id="Path_296"
           data-name="Path 296"
           d="m 558.11,462.483 a 2.635,2.635 0 0 1 1.067,2.292 2.828,2.828 0 0 1 -1.551,2.477 7.82,7.82 0 0 1 -4.117,0.95 7.208,7.208 0 0 1 -3.986,-0.936 2.721,2.721 0 0 1 -1.421,-2.306 c 0,-0.223 0.118,-0.335 0.354,-0.335 h 3.144 a 0.731,0.731 0 0 1 0.523,0.189 2.209,2.209 0 0 0 1.49,0.392 q 1.459,0 1.459,-0.43 c 0,-0.178 -0.154,-0.319 -0.46,-0.422 a 10.4,10.4 0 0 0 -1.828,-0.3 q -4.348,-0.5 -4.347,-3.219 a 2.861,2.861 0 0 1 1.4,-2.47 6.592,6.592 0 0 1 3.74,-0.942 6.456,6.456 0 0 1 3.787,1.013 2.756,2.756 0 0 1 1.444,2.14 0.314,0.314 0 0 1 -0.1,0.243 0.384,0.384 0 0 1 -0.269,0.091 h -3.3 a 0.7,0.7 0 0 1 -0.477,-0.174 1.65,1.65 0 0 0 -1.106,-0.319 q -1.028,0 -1.028,0.415 0,0.223 0.4,0.349 a 10.377,10.377 0 0 0 1.6,0.259 7.922,7.922 0 0 1 3.582,1.043 z"
           transform="translate(-469.885,-457.418)"
           fill="#ffffff" />
      </g>
      <path
         id="Path_4254"
         data-name="Path 4254"
         d="m -50.333,-4.9 -1.554,3.227 V 0 h -0.847 V -1.673 L -54.3,-4.9 h 0.833 l 1.148,2.373 1.153,-2.373 z M -44.264,0 H -46.9 v -4.9 h 2.639 v 0.784 h -1.8 v 1.365 h 1.456 v 0.707 h -1.456 v 1.26 h 1.8 z m 3.29,-0.007 1.512,-4.893 h 1.057 l 1.519,4.893 h -0.9 l -0.35,-1.183 h -1.6 l -0.35,1.183 z m 2.044,-3.843 -0.57,1.932 h 1.148 z M -30.068,0 h -1 l -1.12,-1.911 h -0.427 V 0 h -0.84 l 0.007,-4.9 h 1.841 a 1.085,1.085 0 0 1 0.658,0.21 1.452,1.452 0 0 1 0.451,0.549 1.655,1.655 0 0 1 0.165,0.732 1.518,1.518 0 0 1 -0.115,0.577 1.711,1.711 0 0 1 -0.319,0.508 1.319,1.319 0 0 1 -0.469,0.336 z m -1.12,-3.409 a 0.751,0.751 0 0 0 -0.063,-0.291 0.785,0.785 0 0 0 -0.168,-0.255 0.336,0.336 0 0 0 -0.245,-0.105 h -0.952 v 1.26 h 0.952 a 0.362,0.362 0 0 0 0.245,-0.091 0.65,0.65 0 0 0 0.168,-0.235 0.7,0.7 0 0 0 0.063,-0.283 z m 5.9,3.479 a 2.145,2.145 0 0 1 -0.633,-0.1 2.542,2.542 0 0 1 -0.595,-0.27 2.3,2.3 0 0 1 -0.472,-0.382 l 0.623,-0.6 a 1.613,1.613 0 0 0 0.507,0.35 1.37,1.37 0 0 0 0.558,0.132 0.832,0.832 0 0 0 0.557,-0.192 0.583,0.583 0 0 0 0.227,-0.459 0.506,0.506 0 0 0 -0.161,-0.375 0.938,0.938 0 0 0 -0.4,-0.227 7.881,7.881 0 0 1 -1.06,-0.357 1.453,1.453 0 0 1 -0.648,-0.5 1.2,1.2 0 0 1 -0.154,-0.826 1.284,1.284 0 0 1 0.269,-0.675 1.341,1.341 0 0 1 0.56,-0.4 2.047,2.047 0 0 1 0.752,-0.133 2.839,2.839 0 0 1 0.777,0.115 2.869,2.869 0 0 1 0.805,0.382 l -0.595,0.616 a 2.509,2.509 0 0 0 -0.441,-0.189 1.741,1.741 0 0 0 -0.488,-0.08 1.318,1.318 0 0 0 -0.374,0.039 0.683,0.683 0 0 0 -0.3,0.154 0.4,0.4 0 0 0 -0.126,0.29 0.4,0.4 0 0 0 0.1,0.315 0.815,0.815 0 0 0 0.312,0.182 q 0.2,0.07 0.465,0.154 a 4.529,4.529 0 0 1 0.833,0.3 1.292,1.292 0 0 1 0.525,0.455 1.391,1.391 0 0 1 0.182,0.759 1.41,1.41 0 0 1 -0.217,0.77 1.593,1.593 0 0 1 -0.581,0.546 1.638,1.638 0 0 1 -0.806,0.206 z m 12.824,0.007 a 2.172,2.172 0 0 1 -0.931,-0.2 2.642,2.642 0 0 1 -0.756,-0.529 2.484,2.484 0 0 1 -0.518,-0.788 2.577,2.577 0 0 1 -0.189,-1 2.551,2.551 0 0 1 0.193,-1 2.668,2.668 0 0 1 0.514,-0.8 2.422,2.422 0 0 1 0.753,-0.532 2.228,2.228 0 0 1 0.934,-0.2 2.241,2.241 0 0 1 1.015,0.241 2.779,2.779 0 0 1 0.9,0.745 l -0.679,0.56 a 1.89,1.89 0 0 0 -0.6,-0.515 1.383,1.383 0 0 0 -0.637,-0.157 1.363,1.363 0 0 0 -0.584,0.126 1.643,1.643 0 0 0 -0.487,0.35 1.568,1.568 0 0 0 -0.329,0.515 1.767,1.767 0 0 0 -0.119,0.661 1.713,1.713 0 0 0 0.119,0.655 1.672,1.672 0 0 0 0.329,0.515 1.544,1.544 0 0 0 0.483,0.35 1.386,1.386 0 0 0 0.588,0.126 1.383,1.383 0 0 0 0.637,-0.158 1.89,1.89 0 0 0 0.6,-0.514 l 0.679,0.56 a 2.779,2.779 0 0 1 -0.9,0.745 2.241,2.241 0 0 1 -1.014,0.244 z M -4.483,0 h -2.639 v -4.9 h 2.639 v 0.784 h -1.8 v 1.365 h 1.456 v 0.707 h -1.455 v 1.26 h 1.8 z M 1.25,0 h -2.3 v -4.9 h 0.84 v 4.074 H 1.25 Z M 7.319,0 H 4.68 v -4.9 h 2.639 v 0.784 H 5.52 v 1.365 h 1.456 v 0.707 H 5.52 v 1.26 h 1.8 z m 3.43,0 v -4.9 h 1.862 a 1.178,1.178 0 0 1 0.672,0.193 1.3,1.3 0 0 1 0.444,0.507 1.512,1.512 0 0 1 0.158,0.686 1.634,1.634 0 0 1 -0.07,0.462 1.534,1.534 0 0 1 -0.21,0.441 1.34,1.34 0 0 1 0.371,0.49 1.511,1.511 0 0 1 0.133,0.63 1.5,1.5 0 0 1 -0.1,0.539 1.67,1.67 0 0 1 -0.28,0.479 1.448,1.448 0 0 1 -0.413,0.343 1.019,1.019 0 0 1 -0.5,0.13 z m 0.861,-2.87 h 0.98 a 0.308,0.308 0 0 0 0.224,-0.1 0.727,0.727 0 0 0 0.158,-0.245 0.8,0.8 0 0 0 0.059,-0.3 0.591,0.591 0 0 0 -0.112,-0.357 0.36,0.36 0 0 0 -0.308,-0.154 h -1 z m 0,1.995 h 1.2 a 0.3,0.3 0 0 0 0.21,-0.095 0.747,0.747 0 0 0 0.161,-0.234 0.693,0.693 0 0 0 0.063,-0.287 0.627,0.627 0 0 0 -0.116,-0.382 0.354,0.354 0 0 0 -0.3,-0.157 H 11.61 Z M 20.927,0 h -1 l -1.12,-1.911 H 18.38 V 0 h -0.84 l 0.007,-4.9 h 1.841 a 1.085,1.085 0 0 1 0.658,0.21 1.452,1.452 0 0 1 0.451,0.549 1.655,1.655 0 0 1 0.165,0.732 1.518,1.518 0 0 1 -0.115,0.577 1.711,1.711 0 0 1 -0.319,0.508 1.319,1.319 0 0 1 -0.469,0.336 z m -1.12,-3.409 A 0.751,0.751 0 0 0 19.744,-3.7 0.785,0.785 0 0 0 19.576,-3.955 0.336,0.336 0 0 0 19.331,-4.06 h -0.952 v 1.26 h 0.952 a 0.362,0.362 0 0 0 0.245,-0.091 0.65,0.65 0 0 0 0.168,-0.235 0.7,0.7 0 0 0 0.063,-0.283 z m 4.34,3.4 1.512,-4.891 h 1.057 l 1.519,4.893 h -0.9 l -0.35,-1.183 h -1.6 l -0.35,1.183 z m 2.044,-3.841 -0.574,1.932 h 1.148 z m 8.456,-0.28 H 33.261 V 0 h -0.84 V -4.13 H 31.035 V -4.9 h 3.612 z M 38.917,0 h -0.84 v -4.9 h 0.84 z m 8.225,-2.464 a 2.6,2.6 0 0 1 -0.186,0.984 2.5,2.5 0 0 1 -0.514,0.8 2.438,2.438 0 0 1 -0.763,0.539 2.236,2.236 0 0 1 -0.931,0.2 2.219,2.219 0 0 1 -0.938,-0.2 2.459,2.459 0 0 1 -0.763,-0.546 2.541,2.541 0 0 1 -0.514,-0.8 2.56,2.56 0 0 1 -0.186,-0.97 2.467,2.467 0 0 1 0.189,-0.962 2.55,2.55 0 0 1 0.525,-0.8 2.494,2.494 0 0 1 0.77,-0.543 2.2,2.2 0 0 1 0.917,-0.2 2.212,2.212 0 0 1 0.928,0.2 2.465,2.465 0 0 1 0.763,0.543 2.53,2.53 0 0 1 0.518,0.8 2.508,2.508 0 0 1 0.185,0.955 z m -0.868,0 a 1.723,1.723 0 0 0 -0.207,-0.84 1.667,1.667 0 0 0 -0.553,-0.605 1.367,1.367 0 0 0 -0.766,-0.228 1.369,1.369 0 0 0 -0.77,0.231 1.677,1.677 0 0 0 -0.556,0.613 1.715,1.715 0 0 0 -0.207,0.829 1.763,1.763 0 0 0 0.207,0.847 1.669,1.669 0 0 0 0.556,0.617 1.369,1.369 0 0 0 0.77,0.231 1.347,1.347 0 0 0 0.77,-0.231 1.685,1.685 0 0 0 0.549,-0.619 1.769,1.769 0 0 0 0.207,-0.845 z M 54.226,0 h -1.079 l -1.736,-3.808 v 3.8 h -0.84 V -4.9 h 1.155 l 1.659,3.731 V -4.9 h 0.84 z"
         transform="translate(64.247,57.401)"
         fill="#ffffff" />
      <path
         id="Path_297"
         data-name="Path 297"
         d="m 427.749,525.208 c 0,-5.119 3.4,-6.268 7.7,-8.277 7.177,-3.4 12.152,-7.655 12.152,-12.344 0,-4.737 -4.641,-8.134 -9.808,-8.134 -4.067,0 -6.938,1.483 -7.464,5.263 h -2.819 c 0.526,-4.067 3.349,-7.751 10.813,-7.751 6.985,0 11.626,5.023 11.626,10.43 0,7.033 -6.172,10.956 -13.253,14.592 -4.832,2.536 -6.364,2.918 -6.364,6.363 h 19.425 v 2.44 h -22.008 z"
         transform="translate(-399.315,-408.938)"
         fill="#ffffff" />
      <path
         id="Path_298"
         data-name="Path 298"
         d="m 512.112,522.54 2.44,-0.765 a 10.035,10.035 0 0 0 7.7,4.067 c 4.449,0 8.277,-3.062 8.277,-7.033 0,-4.067 -3.875,-7.129 -8.277,-7.129 h -2.772 v -2.2 h 2.775 c 4.306,0 7.559,-2.727 7.559,-6.459 0,-3.827 -3.589,-6.363 -7.272,-6.363 a 7.108,7.108 0 0 0 -6.985,4.976 l -2.536,-0.765 c 1.244,-4.115 5.454,-6.651 9.521,-6.651 5.31,0 9.76,3.445 9.76,8.8 0,2.631 -0.909,5.167 -4.545,7.56 a 8.733,8.733 0 0 1 5.263,8.23 c 0,5.5 -5.072,9.473 -10.765,9.473 a 11.134,11.134 0 0 1 -10.143,-5.741 z"
         transform="translate(-436.539,-409.044)"
         fill="#ffffff" />
    </g>
  </g>
</svg>
