<svg xmlns="http://www.w3.org/2000/svg" xmlns:xlink="http://www.w3.org/1999/xlink" width="166.192" height="135.495" viewBox="0 0 166.192 135.495">
  <defs>
    <filter id="Rectangle_432" x="18.156" y="0" width="135.495" height="135.495" filterUnits="userSpaceOnUse">
      <feOffset dx="3" dy="3" input="SourceAlpha"/>
      <feGaussianBlur stdDeviation="1.5" result="blur"/>
      <feFlood flood-opacity="0.161"/>
      <feComposite operator="in" in2="blur"/>
      <feComposite in="SourceGraphic"/>
    </filter>
  </defs>
  <g id="_2023_logo_with_fader" data-name="2023 logo with fader" transform="translate(-2009 -920.06)">
    <rect id="year_scroll_layer_4" data-name="year scroll layer 4" width="166.192" height="61.45" transform="translate(2009 958.717)" fill="#14392a" opacity="0.08"/>
    <rect id="year_scroll_layer_2" data-name="year scroll layer 2" width="145.387" height="106.036" transform="translate(2018.904 936.024)" fill="#14392a" opacity="0.607"/>
    <path id="year_scroll_layer_3" data-name="year scroll layer 3" d="M0,0H157.247V80.833H0Z" transform="translate(2013.279 950.487)" fill="#14392a" opacity="0.128"/>
    <g id="Group_2260" data-name="Group 2260" transform="translate(2028.656 921.56)">
      <g transform="matrix(1, 0, 0, 1, -19.66, -1.5)" filter="url(#Rectangle_432)">
        <rect id="Rectangle_432-2" data-name="Rectangle 432" width="126.495" height="126.495" transform="translate(19.66 1.5)" fill="#0d392a"/>
      </g>
      <path id="Path_288" data-name="Path 288" d="M427.749,407.162c0-5.119,3.4-6.268,7.7-8.277,7.177-3.4,12.152-7.655,12.152-12.344,0-4.737-4.641-8.134-9.808-8.134-4.067,0-6.938,1.483-7.464,5.263H427.51c.526-4.067,3.349-7.751,10.813-7.751,6.985,0,11.626,5.023,11.626,10.43,0,7.033-6.172,10.956-13.253,14.593-4.832,2.536-6.364,2.919-6.364,6.364h19.425v2.44H427.749Z" transform="translate(-399.315 -368.969)" fill="#fff"/>
      <path id="Path_289" data-name="Path 289" d="M518.817,410.056a12.783,12.783,0,0,1-10.669-5.024,20.2,20.2,0,0,1-3.493-11.962c0-4.641,1.148-8.947,3.493-12.009a13.842,13.842,0,0,1,21.339.1,22.147,22.147,0,0,1,0,23.875A12.847,12.847,0,0,1,518.817,410.056Zm0-31.387a10.355,10.355,0,0,0-8.947,4.306c-1.914,2.679-2.679,6.315-2.679,10.1s.765,7.416,2.631,10.1a10.568,10.568,0,0,0,8.994,4.4,10.391,10.391,0,0,0,8.9-4.4c1.914-2.68,2.68-6.316,2.68-10.1a16.983,16.983,0,0,0-2.68-10.1A10.325,10.325,0,0,0,518.817,378.669Z" transform="translate(-433.392 -369.04)" fill="#fff"/>
      <g id="Group_278" data-name="Group 278" transform="translate(18.602 66.323)">
        <path id="Path_290" data-name="Path 290" d="M412.291,457.445h5.745a5.239,5.239,0,0,1,3.456,1.06,3.642,3.642,0,0,1,.2,5.354,5.42,5.42,0,0,1-3.656.975h-2.027v2.949a.419.419,0,0,1-.415.415h-3.3a.419.419,0,0,1-.415-.415V457.86a.42.42,0,0,1,.415-.415Zm3.733,2.857v1.69h1.951a.755.755,0,0,0,.8-.814.922.922,0,0,0-.215-.63.735.735,0,0,0-.584-.246Z" transform="translate(-411.876 -457.429)" fill="#fff"/>
        <path id="Path_291" data-name="Path 291" d="M438.808,457.445h3.211a.325.325,0,0,1,.238.1.293.293,0,0,1,.1.207.446.446,0,0,1-.046.2l-3.872,6.405v3.425a.419.419,0,0,1-.414.415h-3.272a.419.419,0,0,1-.415-.415v-3.425l-3.856-6.405a.445.445,0,0,1-.046-.2.292.292,0,0,1,.1-.207.326.326,0,0,1,.238-.1h3.242a.672.672,0,0,1,.629.353l1.736,3.041,1.782-3.011A.717.717,0,0,1,438.808,457.445Z" transform="translate(-419.78 -457.429)" fill="#fff"/>
        <path id="Path_292" data-name="Path 292" d="M456.222,461.648v2.324a1.078,1.078,0,0,0,.423.915,1.784,1.784,0,0,0,1.106.319,1.847,1.847,0,0,0,.99-.2,1.579,1.579,0,0,0,.515-.6.617.617,0,0,1,.545-.393h3.318a.328.328,0,0,1,.238.1.317.317,0,0,1,.1.234,3.37,3.37,0,0,1-1.352,2.569,5.152,5.152,0,0,1-1.8.93,8.8,8.8,0,0,1-2.643.355,8.029,8.029,0,0,1-2.773-.457,4.352,4.352,0,0,1-2.035-1.5,4.124,4.124,0,0,1-.784-2.554v-1.767a4.154,4.154,0,0,1,.784-2.561q1.474-1.948,4.931-1.947a8.353,8.353,0,0,1,2.519.355,5.159,5.159,0,0,1,1.8.93,3.369,3.369,0,0,1,1.352,2.569.318.318,0,0,1-.1.235.328.328,0,0,1-.238.1H459.8a.617.617,0,0,1-.545-.392,1.587,1.587,0,0,0-.515-.6,1.848,1.848,0,0,0-.99-.2,1.781,1.781,0,0,0-1.106.32A1.077,1.077,0,0,0,456.222,461.648Z" transform="translate(-428.994 -457.418)" fill="#fff"/>
        <path id="Path_293" data-name="Path 293" d="M485.2,461.9v1.827a4.2,4.2,0,0,1-.768,2.576,4.148,4.148,0,0,1-2.012,1.468,10.133,10.133,0,0,1-5.868,0,4.153,4.153,0,0,1-2.012-1.468,4.247,4.247,0,0,1-.768-2.606v-1.767a3.87,3.87,0,0,1,1.59-3.385,8.135,8.135,0,0,1,8.249,0A3.839,3.839,0,0,1,485.2,461.9Zm-7.282-.248v2.324a1.079,1.079,0,0,0,.422.915,1.855,1.855,0,0,0,1.145.319,1.823,1.823,0,0,0,1.144-.326,1.1,1.1,0,0,0,.423-.923v-2.294a1.1,1.1,0,0,0-.423-.922,1.82,1.82,0,0,0-1.144-.327,1.852,1.852,0,0,0-1.145.32A1.077,1.077,0,0,0,477.919,461.648Z" transform="translate(-438.233 -457.418)" fill="#fff"/>
        <path id="Path_294" data-name="Path 294" d="M503.7,457.445h2.857a.42.42,0,0,1,.414.415v9.923a.418.418,0,0,1-.414.415h-2.474a.743.743,0,0,1-.614-.323l-3.349-4.27v4.178a.419.419,0,0,1-.415.415h-2.858a.419.419,0,0,1-.414-.415V457.86a.421.421,0,0,1,.414-.415h2.489a.716.716,0,0,1,.6.307l3.348,4.624V457.86a.421.421,0,0,1,.415-.415Z" transform="translate(-447.883 -457.429)" fill="#fff"/>
        <path id="Path_295" data-name="Path 295" d="M535.785,467.106a8.124,8.124,0,0,1-8.188,0,4,4,0,0,1-1.513-3.458v-5.793a.387.387,0,0,1,.123-.288.4.4,0,0,1,.292-.122h3.21a.4.4,0,0,1,.292.121.387.387,0,0,1,.123.286v6.006a1.138,1.138,0,0,0,.423.95,2.139,2.139,0,0,0,2.289,0,1.136,1.136,0,0,0,.423-.95v-6.006a.386.386,0,0,1,.123-.286.4.4,0,0,1,.292-.121h3.211a.4.4,0,0,1,.292.122.388.388,0,0,1,.122.288v5.793A4,4,0,0,1,535.785,467.106Z" transform="translate(-460.509 -457.429)" fill="#fff"/>
        <path id="Path_296" data-name="Path 296" d="M558.11,462.483a2.635,2.635,0,0,1,1.067,2.292,2.828,2.828,0,0,1-1.551,2.477,7.82,7.82,0,0,1-4.117.95,7.208,7.208,0,0,1-3.986-.936,2.721,2.721,0,0,1-1.421-2.306c0-.223.118-.335.354-.335H551.6a.731.731,0,0,1,.523.189,2.209,2.209,0,0,0,1.49.392q1.459,0,1.459-.43c0-.178-.154-.319-.46-.422a10.4,10.4,0,0,0-1.828-.3q-4.348-.5-4.347-3.219a2.861,2.861,0,0,1,1.4-2.47,6.592,6.592,0,0,1,3.74-.942,6.456,6.456,0,0,1,3.787,1.013,2.756,2.756,0,0,1,1.444,2.14.314.314,0,0,1-.1.243.384.384,0,0,1-.269.091h-3.3a.7.7,0,0,1-.477-.174,1.65,1.65,0,0,0-1.106-.319q-1.028,0-1.028.415,0,.223.4.349a10.377,10.377,0,0,0,1.6.259A7.922,7.922,0,0,1,558.11,462.483Z" transform="translate(-469.885 -457.418)" fill="#fff"/>
      </g>
      <path id="Path_4254" data-name="Path 4254" d="M-50.333-4.9l-1.554,3.227V0h-.847V-1.673L-54.3-4.9h.833l1.148,2.373L-51.166-4.9ZM-44.264,0H-46.9V-4.9h2.639v.784h-1.8v1.365h1.456v.707h-1.456v1.26h1.8Zm3.29-.007L-39.462-4.9h1.057l1.519,4.893h-.9l-.35-1.183h-1.6l-.35,1.183ZM-38.93-3.85-39.5-1.918h1.148ZM-30.068,0h-1l-1.12-1.911h-.427V0h-.84l.007-4.9h1.841a1.085,1.085,0,0,1,.658.21,1.452,1.452,0,0,1,.451.549,1.655,1.655,0,0,1,.165.732,1.518,1.518,0,0,1-.115.577,1.711,1.711,0,0,1-.319.508,1.319,1.319,0,0,1-.469.336Zm-1.12-3.409a.751.751,0,0,0-.063-.291.785.785,0,0,0-.168-.255.336.336,0,0,0-.245-.105h-.952V-2.8h.952a.362.362,0,0,0,.245-.091.65.65,0,0,0,.168-.235A.7.7,0,0,0-31.188-3.409Zm5.9,3.479a2.145,2.145,0,0,1-.633-.1,2.542,2.542,0,0,1-.595-.27,2.3,2.3,0,0,1-.472-.382l.623-.6a1.613,1.613,0,0,0,.507.35A1.37,1.37,0,0,0-25.3-.8a.832.832,0,0,0,.557-.192.583.583,0,0,0,.227-.459.506.506,0,0,0-.161-.375.938.938,0,0,0-.4-.227,7.881,7.881,0,0,1-1.06-.357,1.453,1.453,0,0,1-.648-.5,1.2,1.2,0,0,1-.154-.826,1.284,1.284,0,0,1,.269-.675,1.341,1.341,0,0,1,.56-.4,2.047,2.047,0,0,1,.752-.133,2.839,2.839,0,0,1,.777.115,2.869,2.869,0,0,1,.805.382l-.595.616a2.509,2.509,0,0,0-.441-.189A1.741,1.741,0,0,0-25.3-4.1a1.318,1.318,0,0,0-.374.039.683.683,0,0,0-.3.154.4.4,0,0,0-.126.29.4.4,0,0,0,.1.315.815.815,0,0,0,.312.182q.2.07.465.154a4.529,4.529,0,0,1,.833.3,1.292,1.292,0,0,1,.525.455,1.391,1.391,0,0,1,.182.759,1.41,1.41,0,0,1-.217.77,1.593,1.593,0,0,1-.581.546A1.638,1.638,0,0,1-25.287.07Zm12.824.007a2.172,2.172,0,0,1-.931-.2,2.642,2.642,0,0,1-.756-.529,2.484,2.484,0,0,1-.518-.788,2.577,2.577,0,0,1-.189-1,2.551,2.551,0,0,1,.193-1,2.668,2.668,0,0,1,.514-.8,2.422,2.422,0,0,1,.753-.532,2.228,2.228,0,0,1,.934-.2,2.241,2.241,0,0,1,1.015.241,2.779,2.779,0,0,1,.9.745l-.679.56a1.89,1.89,0,0,0-.6-.515,1.383,1.383,0,0,0-.637-.157,1.363,1.363,0,0,0-.584.126,1.643,1.643,0,0,0-.487.35,1.568,1.568,0,0,0-.329.515,1.767,1.767,0,0,0-.119.661,1.713,1.713,0,0,0,.119.655,1.672,1.672,0,0,0,.329.515,1.544,1.544,0,0,0,.483.35,1.386,1.386,0,0,0,.588.126,1.383,1.383,0,0,0,.637-.158,1.89,1.89,0,0,0,.6-.514l.679.56a2.779,2.779,0,0,1-.9.745A2.241,2.241,0,0,1-12.463.077ZM-4.483,0H-7.122V-4.9h2.639v.784h-1.8v1.365h1.456v.707H-6.282v1.26h1.8ZM1.25,0h-2.3V-4.9h.84V-.826H1.25ZM7.319,0H4.68V-4.9H7.319v.784H5.52v1.365H6.976v.707H5.52v1.26h1.8Zm3.43,0V-4.9h1.862a1.178,1.178,0,0,1,.672.193,1.3,1.3,0,0,1,.444.507,1.512,1.512,0,0,1,.158.686,1.634,1.634,0,0,1-.07.462,1.534,1.534,0,0,1-.21.441,1.34,1.34,0,0,1,.371.49,1.511,1.511,0,0,1,.133.63,1.5,1.5,0,0,1-.1.539,1.67,1.67,0,0,1-.28.479,1.448,1.448,0,0,1-.413.343,1.019,1.019,0,0,1-.5.13Zm.861-2.87h.98a.308.308,0,0,0,.224-.1.727.727,0,0,0,.158-.245.8.8,0,0,0,.059-.3.591.591,0,0,0-.112-.357.36.36,0,0,0-.308-.154h-1Zm0,1.995h1.2a.3.3,0,0,0,.21-.095.747.747,0,0,0,.161-.234.693.693,0,0,0,.063-.287.627.627,0,0,0-.116-.382.354.354,0,0,0-.3-.157H11.61ZM20.927,0h-1l-1.12-1.911h-.427V0h-.84l.007-4.9h1.841a1.085,1.085,0,0,1,.658.21,1.452,1.452,0,0,1,.451.549,1.655,1.655,0,0,1,.165.732,1.518,1.518,0,0,1-.115.577,1.711,1.711,0,0,1-.319.508,1.319,1.319,0,0,1-.469.336Zm-1.12-3.409a.751.751,0,0,0-.063-.291.785.785,0,0,0-.168-.255.336.336,0,0,0-.245-.105h-.952V-2.8h.952a.362.362,0,0,0,.245-.091.65.65,0,0,0,.168-.235A.7.7,0,0,0,19.807-3.409Zm4.34,3.4L25.659-4.9h1.057L28.235-.007h-.9l-.35-1.183h-1.6l-.35,1.183ZM26.191-3.85l-.574,1.932h1.148Zm8.456-.28H33.261V0h-.84V-4.13H31.035V-4.9h3.612ZM38.917,0h-.84V-4.9h.84Zm8.225-2.464a2.6,2.6,0,0,1-.186.984,2.5,2.5,0,0,1-.514.8,2.438,2.438,0,0,1-.763.539,2.236,2.236,0,0,1-.931.2,2.219,2.219,0,0,1-.938-.2,2.459,2.459,0,0,1-.763-.546,2.541,2.541,0,0,1-.514-.8,2.56,2.56,0,0,1-.186-.97,2.467,2.467,0,0,1,.189-.962,2.55,2.55,0,0,1,.525-.8,2.494,2.494,0,0,1,.77-.543,2.2,2.2,0,0,1,.917-.2,2.212,2.212,0,0,1,.928.2,2.465,2.465,0,0,1,.763.543,2.53,2.53,0,0,1,.518.8A2.508,2.508,0,0,1,47.142-2.464Zm-.868,0a1.723,1.723,0,0,0-.207-.84,1.667,1.667,0,0,0-.553-.605,1.367,1.367,0,0,0-.766-.228,1.369,1.369,0,0,0-.77.231,1.677,1.677,0,0,0-.556.613,1.715,1.715,0,0,0-.207.829,1.763,1.763,0,0,0,.207.847A1.669,1.669,0,0,0,43.978-1a1.369,1.369,0,0,0,.77.231A1.347,1.347,0,0,0,45.518-1a1.685,1.685,0,0,0,.549-.619A1.769,1.769,0,0,0,46.274-2.464ZM54.226,0H53.147L51.411-3.808v3.8h-.84V-4.9h1.155l1.659,3.731V-4.9h.84Z" transform="translate(64.247 57.401)" fill="#fff"/>
      <path id="Path_297" data-name="Path 297" d="M427.749,525.208c0-5.119,3.4-6.268,7.7-8.277,7.177-3.4,12.152-7.655,12.152-12.344,0-4.737-4.641-8.134-9.808-8.134-4.067,0-6.938,1.483-7.464,5.263H427.51c.526-4.067,3.349-7.751,10.813-7.751,6.985,0,11.626,5.023,11.626,10.43,0,7.033-6.172,10.956-13.253,14.592-4.832,2.536-6.364,2.918-6.364,6.363h19.425v2.44H427.749Z" transform="translate(-399.315 -408.938)" fill="#fff"/>
      <path id="Path_298" data-name="Path 298" d="M512.112,522.54l2.44-.765a10.035,10.035,0,0,0,7.7,4.067c4.449,0,8.277-3.062,8.277-7.033,0-4.067-3.875-7.129-8.277-7.129H519.48v-2.2h2.775c4.306,0,7.559-2.727,7.559-6.459,0-3.827-3.589-6.363-7.272-6.363a7.108,7.108,0,0,0-6.985,4.976l-2.536-.765c1.244-4.115,5.454-6.651,9.521-6.651,5.31,0,9.76,3.445,9.76,8.8,0,2.631-.909,5.167-4.545,7.56a8.733,8.733,0,0,1,5.263,8.23c0,5.5-5.072,9.473-10.765,9.473A11.134,11.134,0,0,1,512.112,522.54Z" transform="translate(-436.539 -409.044)" fill="#fff"/>
    </g>
  </g>
</svg>
