<?xml version="1.0" encoding="UTF-8" standalone="no"?>
<svg
   width="39"
   height="75"
   viewBox="0 0 39 75"
   version="1.1"
   id="svg12"
   sodipodi:docname="mobile-login.svg"
   inkscape:version="1.1.2 (0a00cf5339, 2022-02-04)"
   xmlns:inkscape="http://www.inkscape.org/namespaces/inkscape"
   xmlns:sodipodi="http://sodipodi.sourceforge.net/DTD/sodipodi-0.dtd"
   xmlns="http://www.w3.org/2000/svg"
   xmlns:svg="http://www.w3.org/2000/svg">
  <sodipodi:namedview
     id="namedview14"
     pagecolor="#ffffff"
     bordercolor="#666666"
     borderopacity="1.0"
     inkscape:pageshadow="2"
     inkscape:pageopacity="0.0"
     inkscape:pagecheckerboard="0"
     showgrid="false"
     inkscape:zoom="6.1866667"
     inkscape:cx="19.477371"
     inkscape:cy="37.5"
     inkscape:window-width="1366"
     inkscape:window-height="699"
     inkscape:window-x="0"
     inkscape:window-y="0"
     inkscape:window-maximized="1"
     inkscape:current-layer="svg12" />
  <defs
     id="defs4">
    <clipPath
       id="clip-path">
      <rect
         id="masking_shape"
         data-name="masking shape"
         width="39"
         height="75"
         transform="translate(0 140)"
         fill="#fff" />
    </clipPath>
  </defs>
  <rect
     id="button_bg"
     data-name="button bg"
     width="29"
     height="72"
     rx="4"
     fill="#14392a"
     x="-4.7620001"
     y="1.564" />
  <path
     id="left_arrow"
     data-name="left arrow"
     d="m 17.985634,28.556589 a 1.1960374,1.417041 0 0 1 0.368464,1.047439 1.1418861,1.3528836 0 0 1 -0.368464,1.046044 l -5.817145,6.935271 5.817145,6.892733 a 1.2666696,1.5007245 0 0 1 0,2.092088 1.2666696,1.5007245 0 0 1 -1.765803,0 L 9.4809367,38.63348 a 1.2666696,1.5007245 0 0 1 0,-2.092088 l 6.7377173,-7.984106 a 1.2678468,1.5021192 0 0 1 1.765803,0 z"
     fill="#ffffff"
     style="stroke-width:0.640678" />
  <g
     id="logi_font"
     data-name="logi font"
     transform="rotate(-90,43.11175,14.01975)">
    <path
       id="Path_4136"
       data-name="Path 4136"
       d="M 3.411,0 H 0.459 v -6.3 h 0.954 v 5.364 h 2 z M 13.77,-3.159 a 3.339,3.339 0 0 1 -0.239,1.265 3.213,3.213 0 0 1 -0.661,1.03 3.135,3.135 0 0 1 -0.981,0.693 2.874,2.874 0 0 1 -1.2,0.252 2.852,2.852 0 0 1 -1.203,-0.257 3.162,3.162 0 0 1 -0.981,-0.7 3.28,3.28 0 0 1 -0.661,-1.031 3.282,3.282 0 0 1 -0.239,-1.251 3.2,3.2 0 0 1 0.243,-1.246 3.278,3.278 0 0 1 0.675,-1.026 3.207,3.207 0 0 1 0.99,-0.7 2.832,2.832 0 0 1 1.179,-0.252 2.874,2.874 0 0 1 1.2,0.252 3.1,3.1 0 0 1 0.981,0.7 3.28,3.28 0 0 1 0.661,1.03 3.258,3.258 0 0 1 0.236,1.241 z m -0.99,0 A 2.349,2.349 0 0 0 12.5,-4.306 2.325,2.325 0 0 0 11.744,-5.138 1.849,1.849 0 0 0 10.695,-5.453 1.864,1.864 0 0 0 9.638,-5.138 2.314,2.314 0 0 0 8.882,-4.301 2.356,2.356 0 0 0 8.6,-3.159 a 2.374,2.374 0 0 0 0.283,1.152 2.3,2.3 0 0 0 0.76,0.837 1.871,1.871 0 0 0 1.053,0.315 1.864,1.864 0 0 0 1.054,-0.315 2.267,2.267 0 0 0 0.751,-0.841 2.413,2.413 0 0 0 0.279,-1.148 z m 8.487,3.24 a 2.919,2.919 0 0 1 -1.2,-0.248 3.126,3.126 0 0 1 -0.986,-0.689 3.213,3.213 0 0 1 -0.666,-1.017 3.214,3.214 0 0 1 -0.238,-1.242 3.292,3.292 0 0 1 0.238,-1.247 3.42,3.42 0 0 1 0.661,-1.038 3.028,3.028 0 0 1 0.981,-0.711 2.883,2.883 0 0 1 1.211,-0.257 2.971,2.971 0 0 1 1.452,0.368 3.31,3.31 0 0 1 1.166,1.111 l -0.837,0.549 a 2.354,2.354 0 0 0 -0.81,-0.774 1.99,1.99 0 0 0 -0.972,-0.252 1.877,1.877 0 0 0 -1.062,0.311 2.246,2.246 0 0 0 -0.743,0.819 2.321,2.321 0 0 0 -0.274,1.121 2.166,2.166 0 0 0 0.162,0.828 2.324,2.324 0 0 0 0.45,0.706 2.133,2.133 0 0 0 0.662,0.486 1.87,1.87 0 0 0 0.806,0.176 2.489,2.489 0 0 0 0.985,-0.166 1.5,1.5 0 0 0 0.653,-0.581 V -2.2 h -1.054 v -0.945 h 2.061 v 1.728 a 2.51,2.51 0 0 1 -1.039,1.142 3.321,3.321 0 0 1 -1.607,0.356 z M 29.376,0 h -0.954 v -6.3 h 0.954 z m 9.3,0 h -1.26 L 34.92,-5.094 v 5.085 H 33.966 V -6.3 h 1.341 l 2.4,5 v -5 h 0.963 z"
       transform="translate(0,8)"
       fill="#14392a" />
  </g>
</svg>
