<?xml version="1.0" encoding="utf-8"?>
<!-- Generator: Adobe Illustrator 26.5.0, SVG Export Plug-In . SVG Version: 6.00 Build 0)  -->
<svg version="1.1"
	 id="svg12" xmlns:svg="http://www.w3.org/2000/svg" xmlns:sodipodi="http://sodipodi.sourceforge.net/DTD/sodipodi-0.dtd" xmlns:inkscape="http://www.inkscape.org/namespaces/inkscape"
	 xmlns="http://www.w3.org/2000/svg" xmlns:xlink="http://www.w3.org/1999/xlink" x="0px" y="0px" viewBox="0 0 39 75"
	 style="enable-background:new 0 0 39 75;" xml:space="preserve">
<style type="text/css">
	.st0{fill:#14392A;}
	.st1{fill:#FFFFFF;}
</style>
<g>
	<path class="st0" d="M29.1,69.6c-0.1-0.6-0.2-1.4-0.2-2.2c0-1.5,0.3-2.5,1-3.3c0.7-0.7,1.6-1.1,2.9-1.1c1.3,0,2.4,0.4,3.1,1.2
		c0.8,0.8,1.2,2,1.2,3.6c0,0.7,0,1.4-0.1,1.9H29.1z M36.2,68.5c0-0.3,0.1-0.6,0.1-1c0-2.2-1.2-3.4-3.4-3.4c-1.9,0-3.1,1.1-3.1,3.3
		c0,0.5,0,0.9,0.1,1.2H36.2z"/>
	<path class="st0" d="M34.5,60.5l2.5,0.8v1.1l-8-2.7v-1.3l8-2.7v1.1l-2.5,0.9V60.5z M33.7,57.9l-2.3,0.8c-0.5,0.2-1,0.3-1.5,0.4v0
		c0.5,0.1,1,0.3,1.5,0.4l2.3,0.8V57.9z"/>
	<path class="st0" d="M35.7,54.7c0.3-0.5,0.5-1.1,0.5-1.9c0-1.1-0.6-1.7-1.4-1.7c-0.8,0-1.2,0.4-1.6,1.5c-0.5,1.3-1.1,2.1-2.3,2.1
		c-1.3,0-2.2-1-2.2-2.6c0-0.8,0.2-1.4,0.4-1.8l0.8,0.3c-0.1,0.3-0.4,0.8-0.4,1.5c0,1.1,0.7,1.5,1.2,1.5c0.8,0,1.1-0.5,1.5-1.6
		c0.5-1.4,1.2-2,2.4-2c1.2,0,2.3,0.9,2.3,2.8c0,0.8-0.2,1.6-0.5,2L35.7,54.7z"/>
	<path class="st0" d="M29,47.6h3.4v-3.9H29v-1h8v1h-3.8v3.9H37v1h-8V47.6z"/>
	<path class="st0" d="M29.1,40.9c-0.1-0.5-0.2-1.2-0.2-1.9c0-1,0.2-1.7,0.6-2.2c0.3-0.4,0.8-0.7,1.4-0.7c0.8,0,1.5,0.5,1.8,1.4h0
		c0.2-0.8,0.8-1.7,2-1.7c0.7,0,1.2,0.3,1.6,0.7c0.5,0.6,0.8,1.5,0.8,2.8c0,0.7,0,1.3-0.1,1.6H29.1z M32.4,39.9v-0.9
		c0-1.1-0.6-1.7-1.3-1.7c-0.9,0-1.3,0.7-1.3,1.8c0,0.5,0,0.8,0.1,0.9H32.4z M36.2,39.9c0-0.2,0-0.5,0-0.9c0-1.1-0.4-2.1-1.6-2.1
		c-1.1,0-1.5,0.9-1.5,2.1v0.9H36.2z"/>
	<path class="st0" d="M32.9,27.6c2.8,0,4.2,1.7,4.2,3.7c0,2.1-1.6,3.6-4.1,3.6c-2.6,0-4.2-1.6-4.2-3.7C28.8,29,30.5,27.6,32.9,27.6z
		 M33,33.8c1.7,0,3.3-0.9,3.3-2.6c0-1.6-1.5-2.6-3.3-2.6c-1.6,0-3.3,0.8-3.3,2.6C29.7,32.9,31.3,33.8,33,33.8z"/>
	<path class="st0" d="M34.5,25.1l2.5,0.8V27l-8-2.7V23l8-2.7v1.1l-2.5,0.9V25.1z M33.7,22.5l-2.3,0.8c-0.5,0.2-1,0.3-1.5,0.4v0
		c0.5,0.1,1,0.2,1.5,0.4l2.3,0.8V22.5z"/>
	<path class="st0" d="M29.1,19.1c-0.1-0.5-0.2-1.3-0.2-2c0-1.1,0.2-1.8,0.7-2.3c0.4-0.4,0.9-0.6,1.5-0.6c1.1,0,1.8,0.7,2,1.5h0
		c0.2-0.6,0.8-1,1.6-1.2c1.1-0.3,1.9-0.5,2.2-0.6v1.1c-0.2,0.1-0.9,0.3-1.9,0.5c-1.1,0.2-1.5,0.7-1.6,1.6v1H37v1H29.1z M32.7,18.1
		V17c0-1.1-0.6-1.8-1.5-1.8c-1,0-1.5,0.8-1.5,1.8c0,0.5,0,0.9,0.1,1H32.7z"/>
	<path class="st0" d="M29.1,12.7c-0.1-0.6-0.2-1.4-0.2-2.2c0-1.5,0.3-2.6,1-3.3c0.7-0.7,1.6-1.1,2.9-1.1c1.3,0,2.4,0.4,3.1,1.2
		c0.8,0.8,1.2,2,1.2,3.6c0,0.7,0,1.4-0.1,1.9H29.1z M36.2,11.7c0-0.3,0.1-0.6,0.1-1c0-2.2-1.2-3.4-3.4-3.4c-1.9,0-3.1,1.1-3.1,3.3
		c0,0.5,0,0.9,0.1,1.2H36.2z"/>
</g>
<sodipodi:namedview  bordercolor="#666666" borderopacity="1.0" id="namedview14" inkscape:current-layer="svg12" inkscape:cx="19.477371" inkscape:cy="37.5" inkscape:pagecheckerboard="0" inkscape:pageopacity="0.0" inkscape:pageshadow="2" inkscape:window-height="699" inkscape:window-maximized="1" inkscape:window-width="1366" inkscape:window-x="0" inkscape:window-y="0" inkscape:zoom="6.1866667" pagecolor="#ffffff" showgrid="false">
	</sodipodi:namedview>
<path id="button_bg" class="st0" d="M-0.8,1.6h21c2.2,0,4,1.8,4,4v64c0,2.2-1.8,4-4,4h-21c-2.2,0-4-1.8-4-4v-64
	C-4.8,3.4-3,1.6-0.8,1.6z"/>
<path id="left_arrow" class="st1" d="M18,28.6c0.2,0.3,0.4,0.7,0.4,1c0,0.4-0.1,0.8-0.4,1l-5.8,6.9l5.8,6.9c0.5,0.6,0.5,1.5,0,2.1
	s-1.3,0.6-1.8,0l-6.7-7.9C9,38,9,37.1,9.5,36.5l6.7-8C16.7,28,17.5,28,18,28.6L18,28.6z"/>
</svg>
