<?xml version="1.0" encoding="UTF-8" standalone="no"?>
<svg
   width="400"
   height="500"
   viewBox="0 0 399.99999 500.00001"
   version="1.1"
   id="svg236"
   sodipodi:docname="mobile-grid-large.svg"
   inkscape:version="1.1.2 (0a00cf5339, 2022-02-04)"
   xmlns:inkscape="http://www.inkscape.org/namespaces/inkscape"
   xmlns:sodipodi="http://sodipodi.sourceforge.net/DTD/sodipodi-0.dtd"
   xmlns="http://www.w3.org/2000/svg"
   xmlns:svg="http://www.w3.org/2000/svg">
  <sodipodi:namedview
     id="namedview238"
     pagecolor="#ffffff"
     bordercolor="#666666"
     borderopacity="1.0"
     inkscape:pageshadow="2"
     inkscape:pageopacity="0.0"
     inkscape:pagecheckerboard="0"
     showgrid="false"
     inkscape:zoom="1.1614809"
     inkscape:cx="160.57087"
     inkscape:cy="210.07663"
     inkscape:window-width="1366"
     inkscape:window-height="699"
     inkscape:window-x="0"
     inkscape:window-y="0"
     inkscape:window-maximized="1"
     inkscape:current-layer="mobile"
     fit-margin-top="0"
     fit-margin-left="0"
     fit-margin-right="0"
     fit-margin-bottom="0" />
  <defs
     id="defs16">
    <clipPath
       id="clip-path">
      <rect
         id="Rectangle_4019"
         data-name="Rectangle 4019"
         width="80"
         height="80"
         transform="translate(80.24,0.51)"
         fill="none"
         x="0"
         y="0" />
    </clipPath>
    <clipPath
       id="clip-path-2">
      <rect
         id="Rectangle_4020"
         data-name="Rectangle 4020"
         width="80"
         height="79.739998"
         transform="translate(0.24,320.13)"
         fill="none"
         x="0"
         y="0" />
    </clipPath>
    <clipPath
       id="clip-path-3">
      <rect
         id="Rectangle_4021"
         data-name="Rectangle 4021"
         width="80"
         height="80"
         transform="translate(160.27,240.09)"
         fill="none"
         x="0"
         y="0" />
    </clipPath>
    <clipPath
       id="clip-path-4">
      <rect
         id="Rectangle_4022"
         data-name="Rectangle 4022"
         width="80"
         height="79.949997"
         transform="translate(160.24,80.68)"
         fill="none"
         x="0"
         y="0" />
    </clipPath>
    <clipPath
       id="clip-path-5">
      <rect
         id="Rectangle_4023"
         data-name="Rectangle 4023"
         width="80"
         height="80"
         transform="translate(0.24,0.51)"
         fill="none"
         x="0"
         y="0" />
    </clipPath>
    <clipPath
       id="clip-path-6">
      <rect
         id="Rectangle_4024"
         data-name="Rectangle 4024"
         width="79.889999"
         height="79.540001"
         transform="translate(80.24,240.09)"
         fill="none"
         x="0"
         y="0" />
    </clipPath>
    <clipPath
       id="clip-path-7">
      <rect
         id="Rectangle_4025"
         data-name="Rectangle 4025"
         width="79.970001"
         height="79.870003"
         transform="translate(240.24,80.63)"
         fill="none"
         x="0"
         y="0" />
    </clipPath>
  </defs>
  <g
     id="mobile"
     transform="translate(1.000001,-0.01999894)">
    <g
       id="g2085"
       transform="matrix(1.2451749,0,0,1.2500625,0.2451752,-0.00500098)">
      <rect
         id="Rectangle_433"
         width="80"
         height="80"
         fill="#10392a"
         x="240.24001"
         y="0.50999999" />
      <path
         id="Path_299"
         d="m 285.77,47.62 c -1.74,0 -3.49,0.01 -5.23,0 -0.35,0 -0.45,0.09 -0.43,0.43 0.02,0.3 0,0.5 0.42,0.49 2.13,-0.03 4.27,0 6.4,-0.02 0.29,0 0.39,0.07 0.38,0.37 -0.02,0.75 -0.02,1.5 0,2.26 a 3.219,3.219 0 0 1 -1.55,2.88 8.872,8.872 0 0 1 -3.36,1.24 11.59,11.59 0 0 1 -7.09,-0.78 3.983,3.983 0 0 1 -2.11,-1.89 2.779,2.779 0 0 1 -0.29,-1.23 c 0,-2.35 -0.01,-4.69 0,-7.04 a 3.628,3.628 0 0 1 3.57,-3.55 c 2.35,-0.02 4.7,0 7.04,0 a 4.608,4.608 0 0 0 4.68,-4.55 v -0.11 c 0,-0.92 0.01,-1.83 0,-2.75 0,-0.29 0.09,-0.36 0.36,-0.35 0.77,0.02 1.53,0.02 2.3,0 a 3.121,3.121 0 0 1 2.96,1.77 9.478,9.478 0 0 1 0.84,2.54 12.78,12.78 0 0 1 0.39,3.48 11.809,11.809 0 0 1 -1.28,5.01 3.114,3.114 0 0 1 -3.03,1.83 c -1.66,-0.03 -3.31,0 -4.97,0 v 0 z m -0.28,4.11 a 1.34,1.34 0 0 0 -1.31,-1.37 h -0.04 a 1.376,1.376 0 0 0 0,2.75 1.344,1.344 0 0 0 1.34,-1.36 v -0.02"
         fill="#ffffff" />
      <path
         id="Path_300"
         d="m 287.29,29.35 a 3.651,3.651 0 0 0 -2.34,-3.38 3.477,3.477 0 0 0 -0.48,-0.21 13.781,13.781 0 0 0 -3.67,-0.46 2.886,2.886 0 0 0 -0.29,-0.04 22.111,22.111 0 0 0 -3.04,0.15 10.147,10.147 0 0 0 -2.77,0.64 2.667,2.667 0 0 0 -1.76,2.28 c -0.13,1.17 -0.03,2.35 -0.06,3.53 0,0.15 0.06,0.2 0.2,0.2 0.71,-0.02 1.43,0.05 2.14,-0.04 h 4.67 c 0.4,0.09 0.16,0.41 0.2,0.61 0.06,0.25 -0.05,0.36 -0.32,0.35 -0.27,-0.01 -0.58,0 -0.86,0.01 h -4.3 c -1.5,0 -3.01,-0.02 -4.51,-0.01 a 4.425,4.425 0 0 0 -4.37,3.4 15.079,15.079 0 0 0 -0.5,2.58 12.25,12.25 0 0 0 0.33,4.43 c 0.06,0.28 0.1,0.57 0.18,0.84 a 4.889,4.889 0 0 0 1.49,2.55 2.84,2.84 0 0 0 1.53,0.75 23.746,23.746 0 0 0 3.04,0.08 c 0.24,0 0.17,-0.17 0.17,-0.29 v -2.9 a 4.556,4.556 0 0 1 4.53,-4.58 h 7.03 a 3.611,3.611 0 0 0 3.74,-3.48 v -0.24 q 0.015,-3.39 0,-6.78 m -10.78,0.8 a 1.357,1.357 0 0 1 -1.5,-0.42 1.335,1.335 0 0 1 -0.23,-1.38 1.352,1.352 0 0 1 1.5,-0.86 1.389,1.389 0 0 1 1.11,1.34 c 0,0.1 -0.01,0.2 -0.02,0.3 a 1.459,1.459 0 0 1 -0.86,1.01"
         fill="#ffffff" />
      <path
         id="Path_301"
         d="M 286.57,66.33 H 270.6 a 0.97,0.97 0 0 1 -0.17,-0.01 0.326,0.326 0 0 1 -0.23,-0.4 0.321,0.321 0 0 1 0.3,-0.24 h 16.08 v 0.65 z"
         fill="#ffffff" />
      <path
         id="Path_302"
         d="m 291.98,65.69 h 6.36 a 0.326,0.326 0 0 1 -0.01,0.65 h -6.35 z"
         fill="#ffffff" />
      <path
         id="Path_303"
         d="m 291.98,65.69 v 0.64 h -5.41 v -0.64 h 5.41"
         fill="#ffffff" />
      <path
         id="Path_304"
         d="m 262.23,64.54 v 2.32 l -0.61,-0.22 c 0,0 -0.05,-0.03 -0.04,-0.06 v -4.99 a 0.29,0.29 0 0 1 0.1,-0.23 2.689,2.689 0 0 1 2.1,-0.54 1.3,1.3 0 0 1 0.92,0.77 2.819,2.819 0 0 1 0.12,2.24 1.56,1.56 0 0 1 -1.96,1.01 1.02,1.02 0 0 1 -0.22,-0.09 2.744,2.744 0 0 1 -0.42,-0.21 m 2.01,-1.68 a 3.238,3.238 0 0 0 -0.17,-1.07 0.815,0.815 0 0 0 -0.65,-0.56 1.7,1.7 0 0 0 -1.14,0.26 0.088,0.088 0 0 0 -0.05,0.1 v 2.45 a 0.094,0.094 0 0 0 0.05,0.09 2.5,2.5 0 0 0 0.63,0.27 0.938,0.938 0 0 0 1.18,-0.6 0.142,0.142 0 0 1 0.02,-0.06 3.2,3.2 0 0 0 0.12,-0.87"
         fill="#ffffff" />
      <path
         id="Path_305"
         d="m 268.39,64.58 a 3.179,3.179 0 0 1 -0.68,0.22 2.357,2.357 0 0 1 -1.15,0.02 1.151,1.151 0 0 1 -0.85,-1.15 v -2.56 a 0.124,0.124 0 0 1 0.09,-0.14 c 0.15,-0.04 0.29,-0.1 0.43,-0.14 0.14,-0.04 0.14,-0.05 0.14,0.09 v 2.61 a 0.82,0.82 0 0 0 0.68,0.87 1.417,1.417 0 0 0 0.58,0 1.956,1.956 0 0 0 0.66,-0.29 c 0.06,-0.04 0.05,-0.08 0.05,-0.13 v -2.94 a 0.15,0.15 0 0 1 0.17,-0.17 h 0.41 c 0.06,0 0.08,0.02 0.08,0.08 -0.01,1.34 0.02,2.67 -0.02,4.01 a 2.884,2.884 0 0 1 -0.07,0.59 1.326,1.326 0 0 1 -0.82,1.01 3.038,3.038 0 0 1 -1.15,0.28 c -0.06,0 -0.1,0 -0.11,-0.08 -0.01,-0.08 -0.04,-0.17 -0.06,-0.25 -0.02,-0.08 0,-0.09 0.07,-0.1 a 4.188,4.188 0 0 0 0.69,-0.13 1.14,1.14 0 0 0 0.34,-0.15 0.893,0.893 0 0 0 0.46,-0.65 5.553,5.553 0 0 0 0.05,-0.91"
         fill="#ffffff" />
      <path
         id="Path_306"
         d="m 273.12,61.3 a 2.936,2.936 0 0 1 0.55,-0.3 1.977,1.977 0 0 1 1.05,-0.13 1.125,1.125 0 0 1 0.92,0.99 c 0.01,0.11 0.02,0.21 0.02,0.32 v 2.51 c 0,0.1 -0.02,0.12 -0.12,0.12 h -0.41 c -0.14,0 -0.14,0 -0.14,-0.14 v -2.33 a 1.678,1.678 0 0 0 -0.07,-0.5 0.713,0.713 0 0 0 -0.87,-0.52 0.235,0.235 0 0 0 -0.08,0.02 2.783,2.783 0 0 0 -0.81,0.4 c -0.05,0.03 -0.04,0.08 -0.04,0.12 v 2.86 c 0,0.06 -0.01,0.08 -0.08,0.08 h -0.51 c -0.06,0 -0.08,-0.02 -0.07,-0.07 v -5.85 c 0,-0.1 0.03,-0.14 0.12,-0.16 a 3.733,3.733 0 0 0 0.44,-0.14 c 0.09,-0.03 0.11,-0.02 0.11,0.08 v 2.64 z"
         fill="#ffffff" />
      <path
         id="Path_307"
         d="m 279.98,62.8 a 2.477,2.477 0 0 1 -0.42,1.4 1.622,1.622 0 0 1 -1.49,0.69 1.569,1.569 0 0 1 -1.44,-0.97 2.427,2.427 0 0 1 -0.04,-2.12 1.734,1.734 0 0 1 2.3,-0.87 1.834,1.834 0 0 1 0.24,0.13 1.906,1.906 0 0 1 0.83,1.46 c 0.01,0.09 0.01,0.18 0.02,0.28 m -2.9,0 a 1.569,1.569 0 0 0 0.02,0.29 2.136,2.136 0 0 0 0.28,0.95 0.854,0.854 0 0 0 0.52,0.41 0.956,0.956 0 0 0 1.2,-0.63 v -0.03 a 3.113,3.113 0 0 0 0.14,-1.25 1.786,1.786 0 0 0 -0.25,-0.84 0.94,0.94 0 0 0 -0.84,-0.47 0.962,0.962 0 0 0 -0.88,0.55 2.33,2.33 0 0 0 -0.19,1.01"
         fill="#ffffff" />
      <path
         id="Path_308"
         d="m 280.69,63.11 v -1.58 a 0.168,0.168 0 0 1 0.07,-0.15 3.023,3.023 0 0 1 1.66,-0.6 1.57,1.57 0 0 1 0.95,0.21 0.938,0.938 0 0 1 0.48,0.84 v 2.88 c 0,0.08 -0.02,0.1 -0.1,0.1 h -0.45 c -0.09,0 -0.1,-0.02 -0.1,-0.11 v -2.5 a 1.722,1.722 0 0 0 -0.04,-0.39 0.874,0.874 0 0 0 -0.93,-0.6 1.573,1.573 0 0 0 -0.81,0.25 0.141,0.141 0 0 0 -0.08,0.15 v 3.08 c 0,0.1 -0.02,0.13 -0.12,0.12 h -0.42 c -0.09,0 -0.13,-0.02 -0.12,-0.12 v -1.58"
         fill="#ffffff" />
      <path
         id="Path_309"
         d="m 270.83,59.55 v 1.22 c 0,0.09 0.03,0.11 0.11,0.11 h 0.54 c 0.07,0 0.09,0.02 0.08,0.08 v 0.26 c 0,0.07 -0.02,0.09 -0.09,0.09 h -0.53 c -0.08,0 -0.11,0.01 -0.11,0.11 v 2.44 a 0.576,0.576 0 0 0 0.47,0.66 0.752,0.752 0 0 0 0.15,0 c 0.1,0 0.12,0.04 0.12,0.13 0,0.24 0,0.24 -0.24,0.23 a 1.92,1.92 0 0 1 -0.48,-0.07 0.918,0.918 0 0 1 -0.67,-0.93 v -2.42 a 0.133,0.133 0 0 0 -0.15,-0.15 h -0.22 c -0.06,0 -0.07,-0.02 -0.07,-0.07 v -0.28 c 0,-0.07 0.03,-0.08 0.08,-0.08 h 0.29 c 0.07,0 0.08,-0.02 0.08,-0.08 v -0.92 a 0.1,0.1 0 0 1 0.08,-0.12 c 0.19,-0.06 0.38,-0.13 0.58,-0.2"
         fill="#ffffff" />
      <path
         id="Path_310"
         d="m 291,62.12 0.27,-0.96 c 0.02,-0.09 0.05,-0.18 0.07,-0.27 0,-0.04 0.03,-0.06 0.06,-0.08 0.15,-0.06 0.15,-0.06 0.19,0.09 l 0.34,1.22 a 0.322,0.322 0 0 0 0.04,-0.07 c 0.11,-0.4 0.23,-0.81 0.34,-1.21 0.01,-0.05 0.02,-0.1 0.09,-0.08 0.07,0.02 0.03,0.07 0.02,0.11 -0.13,0.51 -0.27,1.02 -0.41,1.54 a 0.127,0.127 0 0 1 -0.09,0.11 c -0.07,0.03 -0.1,0.02 -0.12,-0.06 -0.12,-0.43 -0.24,-0.85 -0.36,-1.27 -0.01,-0.03 -0.02,-0.07 -0.04,-0.13 -0.06,0.21 -0.11,0.4 -0.16,0.59 -0.07,0.25 -0.13,0.51 -0.2,0.76 a 0.127,0.127 0 0 1 -0.1,0.11 c -0.07,0.02 -0.09,0.01 -0.11,-0.06 -0.14,-0.52 -0.29,-1.04 -0.44,-1.56 -0.04,-0.14 0.07,-0.1 0.12,-0.13 0.08,-0.04 0.07,0.04 0.07,0.08 0.12,0.42 0.24,0.84 0.35,1.26 h 0.02"
         fill="#ffffff" />
      <path
         id="Path_311"
         d="m 286.3,61.56 a 0.854,0.854 0 0 1 0.17,-0.49 0.682,0.682 0 0 1 0.95,-0.2 0.637,0.637 0 0 1 0.2,0.2 1.057,1.057 0 0 1 -0.12,1.31 0.646,0.646 0 0 1 -0.91,0 1.023,1.023 0 0 1 -0.29,-0.81 m 1.26,0.09 a 0.87,0.87 0 0 0 -0.15,-0.54 0.424,0.424 0 0 0 -0.59,-0.13 0.535,0.535 0 0 0 -0.13,0.13 1.016,1.016 0 0 0 0.01,1.11 0.418,0.418 0 0 0 0.57,0.13 0.4,0.4 0 0 0 0.13,-0.13 0.918,0.918 0 0 0 0.16,-0.56"
         fill="#ffffff" />
      <path
         id="Path_312"
         d="m 295.57,63.95 a 0.96,0.96 0 0 1 0.23,-0.65 0.681,0.681 0 0 1 0.96,-0.08 0.234,0.234 0 0 1 0.07,0.07 1.043,1.043 0 0 1 -0.07,1.4 0.671,0.671 0 0 1 -0.93,-0.04 l -0.02,-0.02 a 1,1 0 0 1 -0.24,-0.68 m 1.26,0 a 0.958,0.958 0 0 0 -0.16,-0.55 0.413,0.413 0 0 0 -0.59,-0.11 0.573,0.573 0 0 0 -0.11,0.11 1.014,1.014 0 0 0 0.01,1.12 0.406,0.406 0 0 0 0.57,0.11 0.345,0.345 0 0 0 0.12,-0.12 1,1 0 0 0 0.17,-0.56"
         fill="#ffffff" />
      <path
         id="Path_313"
         d="m 287.57,63.95 a 1.013,1.013 0 0 1 -0.29,0.72 0.646,0.646 0 0 1 -0.91,0 1.036,1.036 0 0 1 -0.07,-1.36 0.682,0.682 0 0 1 0.96,-0.09 0.6,0.6 0 0 1 0.08,0.08 1.012,1.012 0 0 1 0.23,0.65 m -0.23,0.04 a 0.911,0.911 0 0 0 -0.15,-0.56 0.434,0.434 0 0 0 -0.59,-0.15 0.316,0.316 0 0 0 -0.14,0.14 1.022,1.022 0 0 0 0,1.09 0.418,0.418 0 0 0 0.57,0.13 0.3,0.3 0 0 0 0.13,-0.14 0.932,0.932 0 0 0 0.16,-0.51"
         fill="#ffffff" />
      <path
         id="Path_314"
         d="M 298.48,64.54 V 63.2 c 0,-0.05 0,-0.1 0.07,-0.09 0.07,0.01 0.07,0.02 0.07,0.08 v 1.58 c 0,0 0.02,0.08 -0.03,0.08 -0.07,0 -0.15,0.04 -0.2,-0.04 -0.09,-0.14 -0.18,-0.27 -0.28,-0.41 l -0.64,-0.93 a 0.291,0.291 0 0 0 -0.02,0.08 v 1.22 c 0,0 0.02,0.1 -0.07,0.1 -0.09,0 -0.08,-0.05 -0.08,-0.1 v -1.53 c 0,-0.08 0.04,-0.1 0.1,-0.12 0.06,-0.02 0.09,0.01 0.12,0.05 l 0.88,1.29 c 0,0 0.04,0.06 0.08,0.11"
         fill="#ffffff" />
      <path
         id="Path_315"
         d="m 290.54,64.51 v -1.35 c 0,-0.06 0.02,-0.07 0.07,-0.06 0.05,0.01 0.07,0 0.07,0.06 v 1.56 c 0,0 0.03,0.1 -0.03,0.11 -0.06,0.01 -0.15,0.04 -0.2,-0.04 -0.05,-0.08 -0.11,-0.16 -0.16,-0.24 l -0.75,-1.1 a 0.412,0.412 0 0 0 -0.02,0.09 v 1.21 c 0,0.05 0,0.09 -0.07,0.09 -0.07,0 -0.07,-0.05 -0.07,-0.09 v -1.54 c 0,-0.08 0.04,-0.1 0.1,-0.12 0.06,-0.02 0.09,0.02 0.11,0.06 l 0.87,1.27 0.07,0.1 h 0.02"
         fill="#ffffff" />
      <path
         id="Path_316"
         d="m 295.11,62.52 a 0.246,0.246 0 0 1 -0.33,-0.14 v -0.02 c -0.09,-0.2 -0.22,-0.38 -0.32,-0.58 a 0.118,0.118 0 0 0 -0.15,-0.06 c -0.06,0.01 -0.03,0.07 -0.03,0.11 v 0.62 c 0,0.09 -0.05,0.08 -0.1,0.08 -0.05,0 -0.1,0.01 -0.1,-0.08 v -1.58 c 0,-0.06 0.01,-0.08 0.08,-0.08 h 0.5 a 0.472,0.472 0 0 1 0.46,0.41 0.44,0.44 0 0 1 -0.32,0.49 q -0.13,0.04 -0.06,0.16 l 0.38,0.66 m -0.84,-1.25 c 0.01,0.09 -0.05,0.24 0.02,0.29 a 0.524,0.524 0 0 0 0.37,0.01 0.285,0.285 0 0 0 0.22,-0.19 0.318,0.318 0 0 0 -0.18,-0.41 0.5,0.5 0 0 0 -0.12,-0.02 c -0.1,0 -0.23,-0.04 -0.3,0.02 -0.07,0.06 -0.01,0.19 -0.02,0.29 v 0.03"
         fill="#ffffff" />
      <path
         id="Path_317"
         d="M 291.01,63.88 V 63.2 c 0,-0.08 0.01,-0.11 0.1,-0.1 h 0.43 a 0.6,0.6 0 0 1 0.6,0.37 1.041,1.041 0 0 1 -0.07,1.1 0.683,0.683 0 0 1 -0.95,0.15 0.5,0.5 0 0 1 -0.08,-0.07 0.121,0.121 0 0 1 -0.03,-0.1 v -0.68 m 0.2,0.03 v 0.6 a 0.149,0.149 0 0 0 0.08,0.14 0.422,0.422 0 0 0 0.56,-0.11 0.86,0.86 0 0 0 0.16,-0.62 c -0.04,-0.54 -0.27,-0.7 -0.72,-0.68 -0.07,0 -0.09,0.02 -0.09,0.09 v 0.59"
         fill="#ffffff" />
      <path
         id="Path_318"
         d="m 285.51,62.55 a 0.781,0.781 0 0 1 -0.48,-0.17 c -0.08,-0.05 -0.02,-0.09 0,-0.14 0.03,-0.07 0.06,-0.02 0.09,0 a 0.619,0.619 0 0 0 0.54,0.11 0.32,0.32 0 0 0 0.24,-0.27 0.271,0.271 0 0 0 -0.19,-0.28 c -0.11,-0.05 -0.22,-0.08 -0.33,-0.12 -0.31,-0.11 -0.41,-0.27 -0.36,-0.54 a 0.521,0.521 0 0 1 0.55,-0.39 0.707,0.707 0 0 1 0.37,0.12 c 0.05,0.03 0.05,0.06 0.02,0.1 -0.03,0.04 -0.04,0.08 -0.1,0.03 a 0.517,0.517 0 0 0 -0.4,-0.08 0.277,0.277 0 0 0 -0.23,0.22 0.244,0.244 0 0 0 0.16,0.27 c 0.11,0.05 0.23,0.08 0.34,0.12 a 0.519,0.519 0 0 1 0.38,0.35 0.549,0.549 0 0 1 -0.43,0.63 h -0.18"
         fill="#ffffff" />
      <path
         id="Path_319"
         d="m 293.78,62.52 c -0.1,0.03 -0.13,-0.02 -0.15,-0.09 -0.04,-0.12 -0.09,-0.25 -0.13,-0.37 a 0.074,0.074 0 0 0 -0.09,-0.07 h -0.52 a 0.09,0.09 0 0 0 -0.1,0.07 v 0 c -0.05,0.14 -0.1,0.27 -0.15,0.41 -0.03,0.09 -0.09,0.07 -0.15,0.06 -0.06,-0.01 0,-0.05 0,-0.08 0.13,-0.36 0.26,-0.71 0.39,-1.07 a 4.59,4.59 0 0 0 0.17,-0.48 c 0.03,-0.11 0.13,-0.1 0.2,-0.13 0.03,-0.01 0.04,0.02 0.04,0.05 0.18,0.55 0.37,1.1 0.55,1.64 0.04,0.11 -0.06,0.04 -0.08,0.06 m -0.61,-1.48 c -0.1,0.27 -0.19,0.51 -0.28,0.76 -0.01,0.03 -0.02,0.06 0.04,0.06 h 0.52 l -0.27,-0.82"
         fill="#ffffff" />
      <path
         id="Path_320"
         d="m 293.77,64.84 h -0.15 a 0.08,0.08 0 0 1 -0.09,-0.06 c -0.04,-0.14 -0.09,-0.27 -0.14,-0.4 a 0.078,0.078 0 0 0 -0.1,-0.07 h -0.53 c 0,0 -0.08,0.02 -0.09,0.07 -0.04,0.12 -0.09,0.23 -0.12,0.35 -0.03,0.12 -0.08,0.15 -0.19,0.11 0.15,-0.41 0.3,-0.82 0.45,-1.24 a 2.316,2.316 0 0 0 0.13,-0.37 c 0.03,-0.11 0.12,-0.12 0.2,-0.14 0.06,-0.02 0.05,0.05 0.06,0.08 l 0.45,1.35 c 0.03,0.1 0.07,0.21 0.11,0.32 m -0.71,-1.49 c -0.1,0.27 -0.19,0.51 -0.28,0.76 -0.02,0.04 -0.02,0.07 0.04,0.07 h 0.46 c 0,0 0.06,-0.02 0.04,-0.06 l -0.26,-0.76"
         fill="#ffffff" />
      <path
         id="Path_321"
         d="m 289.05,63.74 v 0.54 a 0.591,0.591 0 0 1 -0.61,0.57 h -0.03 a 0.588,0.588 0 0 1 -0.6,-0.56 v -1.1 c 0,-0.06 0.14,-0.15 0.19,-0.12 0.05,0.03 0.02,0.06 0.02,0.09 v 1.15 a 0.372,0.372 0 0 0 0.35,0.37 0.438,0.438 0 0 0 0.5,-0.3 0.693,0.693 0 0 0 0.03,-0.2 v -0.99 c 0,-0.06 0,-0.1 0.08,-0.1 0.08,0 0.08,0.05 0.08,0.1 v 0.54 0 z"
         fill="#ffffff" />
      <path
         id="Path_322"
         d="m 296.32,60.8 c -0.03,0.1 -0.06,0.15 -0.16,0.14 -0.17,-0.01 -0.34,0 -0.51,0 -0.06,0 -0.08,0.02 -0.08,0.08 v 0.44 c 0,0.06 0.01,0.08 0.08,0.08 h 0.4 c 0,0 0.09,-0.02 0.09,0.02 0,0.04 -0.02,0.12 -0.1,0.12 h -0.37 c -0.07,0 -0.09,0.02 -0.09,0.09 v 0.54 c 0,0.07 0.01,0.1 0.09,0.1 h 0.58 c 0.05,0 0.09,0 0.08,0.07 -0.01,0.07 -0.03,0.07 -0.08,0.07 h -0.8 c -0.06,0 -0.07,-0.02 -0.07,-0.07 v -1.59 c 0,0 0,-0.07 0.05,-0.07 h 0.9"
         fill="#ffffff" />
      <path
         id="Path_323"
         d="m 286.01,63.1 c -0.02,0.1 -0.06,0.15 -0.17,0.14 -0.17,-0.01 -0.34,0 -0.5,0 -0.06,0 -0.08,0.02 -0.08,0.08 v 0.42 c 0,0.07 0.02,0.1 0.09,0.1 h 0.47 c -0.02,0.11 -0.07,0.15 -0.17,0.14 -0.1,-0.01 -0.21,0 -0.31,0 -0.07,0 -0.08,0.02 -0.08,0.08 v 0.69 c 0,0.09 -0.04,0.09 -0.1,0.09 -0.06,0 -0.1,0 -0.1,-0.09 v -1.57 c 0,0 0,-0.08 0.07,-0.08 h 0.89"
         fill="#ffffff" />
      <path
         id="Path_324"
         d="m 288.81,61.53 c -0.03,0.12 -0.09,0.15 -0.19,0.14 a 2.613,2.613 0 0 0 -0.28,0 c -0.09,0 -0.11,0.03 -0.11,0.11 v 0.66 c 0,0.08 -0.03,0.09 -0.1,0.09 -0.07,0 -0.1,0 -0.1,-0.08 v -1.57 c 0,0 0,-0.08 0.06,-0.08 h 0.89 a 0.155,0.155 0 0 1 -0.18,0.15 c -0.17,-0.01 -0.33,0 -0.5,0 -0.05,0 -0.08,0.01 -0.07,0.07 v 0.44 c 0,0.07 0.03,0.08 0.09,0.08 h 0.48"
         fill="#ffffff" />
      <path
         id="Path_325"
         d="m 289.07,60.94 c 0.02,-0.1 0.05,-0.14 0.15,-0.14 h 0.97 c 0.05,0 0.09,-0.01 0.09,0.07 0,0.08 -0.05,0.07 -0.1,0.07 h -0.32 c -0.08,0 -0.1,0.02 -0.1,0.1 v 1.38 c 0,0.07 0.01,0.13 -0.1,0.13 -0.11,0 -0.1,-0.05 -0.1,-0.12 v -1.38 c 0,-0.08 -0.02,-0.1 -0.1,-0.1 h -0.41"
         fill="#ffffff" />
      <path
         id="Path_326"
         d="m 293.68,63.24 c 0.01,-0.09 0.04,-0.14 0.14,-0.14 h 0.96 c 0.04,0 0.11,-0.04 0.11,0.06 0,0.1 -0.07,0.07 -0.12,0.07 h -0.3 c -0.07,0 -0.1,0.02 -0.1,0.09 v 1.41 c 0,0.1 -0.04,0.1 -0.11,0.1 -0.07,0 -0.1,-0.02 -0.1,-0.1 v -1.4 c 0,-0.08 -0.02,-0.11 -0.11,-0.11 h -0.4"
         fill="#ffffff" />
      <path
         id="Path_327"
         d="m 295.32,63.96 v 0.8 c 0,0.1 -0.05,0.08 -0.11,0.08 -0.06,0 -0.1,0 -0.1,-0.08 v -1.55 a 0.183,0.183 0 0 1 0.18,-0.13 c 0.04,0.01 0.02,0.05 0.02,0.07 v 0.8"
         fill="#ffffff" />
      <rect
         id="Rectangle_434"
         width="160"
         height="79.830002"
         fill="#10392a"
         x="160.24001"
         y="320" />
      <path
         id="Path_328"
         d="m 186.07,355.23 v -7.83 h 2.94 a 2.012,2.012 0 0 1 1.01,0.27 1.934,1.934 0 0 1 0.69,0.73 2.217,2.217 0 0 1 0.25,1.04 2.177,2.177 0 0 1 -0.17,0.87 3.731,3.731 0 0 1 -0.55,0.81 2.5,2.5 0 0 1 0.87,0.84 2.086,2.086 0 0 1 0.27,1.03 1.958,1.958 0 0 1 -0.16,0.79 2.326,2.326 0 0 1 -0.44,0.72 2.252,2.252 0 0 1 -0.64,0.51 1.636,1.636 0 0 1 -0.75,0.19 h -3.31 z m 0.74,-4.25 h 2.15 a 0.977,0.977 0 0 0 0.62,-0.22 1.738,1.738 0 0 0 0.63,-1.31 1.421,1.421 0 0 0 -0.32,-0.93 1.1,1.1 0 0 0 -0.88,-0.39 h -2.19 v 2.85 z m 0,3.52 h 2.57 a 0.978,0.978 0 0 0 0.63,-0.23 1.7,1.7 0 0 0 0.61,-1.27 1.457,1.457 0 0 0 -0.33,-0.94 1.076,1.076 0 0 0 -0.88,-0.41 h -2.6 z"
         fill="#ffffff" />
      <path
         id="Path_329"
         d="m 198.04,347.4 -2.71,5.2 v 2.63 h -0.73 v -2.63 l -2.71,-5.2 h 0.8 l 2.27,4.43 2.28,-4.43 z"
         fill="#ffffff" />
      <path
         id="Path_330"
         d="m 208.59,348.07 h -2.53 v 7.15 h -0.74 v -7.15 h -2.53 v -0.67 h 5.81 v 0.67 z"
         fill="#ffffff" />
      <path
         id="Path_331"
         d="m 215.71,355.23 h -0.74 v -3.49 h -4.17 v 3.49 h -0.74 v -7.83 h 0.74 v 3.73 h 4.17 v -3.73 h 0.74 z"
         fill="#ffffff" />
      <path
         id="Path_332"
         d="m 221.56,355.23 h -4.27 v -7.83 h 4.27 v 0.66 h -3.52 v 3.02 h 2.85 v 0.64 h -2.85 v 2.85 h 3.52 z"
         fill="#ffffff" />
      <path
         id="Path_333"
         d="m 229.97,355.35 a 3.518,3.518 0 0 1 -1.5,-0.32 4.236,4.236 0 0 1 -1.21,-0.84 3.786,3.786 0 0 1 -0.83,-1.26 4.025,4.025 0 0 1 -0.3,-1.6 4.1,4.1 0 0 1 0.31,-1.59 4.337,4.337 0 0 1 0.83,-1.28 3.791,3.791 0 0 1 1.21,-0.85 3.71,3.71 0 0 1 3.14,0.07 4.481,4.481 0 0 1 1.44,1.19 l -1.09,0.89 a 2.916,2.916 0 0 0 -0.96,-0.82 2.292,2.292 0 0 0 -1.02,-0.25 2.177,2.177 0 0 0 -0.94,0.2 2.719,2.719 0 0 0 -0.78,0.56 2.566,2.566 0 0 0 -0.53,0.82 2.762,2.762 0 0 0 -0.19,1.06 2.911,2.911 0 0 0 0.19,1.05 2.6,2.6 0 0 0 1.31,1.38 2.269,2.269 0 0 0 1.97,-0.05 3.02,3.02 0 0 0 0.96,-0.82 l 1.09,0.89 a 4.481,4.481 0 0 1 -1.44,1.19 3.712,3.712 0 0 1 -1.63,0.38 z"
         fill="#ffffff" />
      <path
         id="Path_334"
         d="m 242.16,351.29 a 4.214,4.214 0 0 1 -0.3,1.57 3.951,3.951 0 0 1 -2.06,2.14 3.729,3.729 0 0 1 -3,0 4.1,4.1 0 0 1 -1.23,-0.87 3.911,3.911 0 0 1 -0.83,-1.29 4.112,4.112 0 0 1 -0.3,-1.55 4.061,4.061 0 0 1 0.3,-1.54 4.078,4.078 0 0 1 2.08,-2.14 3.658,3.658 0 0 1 2.97,0 4.041,4.041 0 0 1 2.06,2.14 4.061,4.061 0 0 1 0.3,1.54 z m -1.4,0 a 2.827,2.827 0 0 0 -0.33,-1.34 2.758,2.758 0 0 0 -0.89,-0.97 2.278,2.278 0 0 0 -2.47,0 2.619,2.619 0 0 0 -0.89,0.98 2.667,2.667 0 0 0 -0.33,1.32 2.867,2.867 0 0 0 0.33,1.35 2.627,2.627 0 0 0 0.89,0.98 2.28,2.28 0 0 0 1.24,0.37 2.2,2.2 0 0 0 1.24,-0.37 2.622,2.622 0 0 0 0.88,-0.99 2.837,2.837 0 0 0 0.34,-1.34 v 0 z"
         fill="#ffffff" />
      <path
         id="Path_335"
         d="m 243.68,355.23 v -7.83 h 2.18 l 1.86,4.94 1.86,-4.94 h 2.18 v 7.83 h -1.35 v -6.18 l -2.05,5.07 h -1.27 l -2.06,-5.07 v 6.18 z"
         fill="#ffffff" />
      <path
         id="Path_336"
         d="m 253.42,355.23 v -7.83 h 2.18 l 1.86,4.94 1.86,-4.94 h 2.18 v 7.83 h -1.35 v -6.18 l -2.05,5.07 h -1.27 l -2.06,-5.07 v 6.18 z"
         fill="#ffffff" />
      <path
         id="Path_337"
         d="m 267.57,355.23 v -0.64 a 2.433,2.433 0 0 1 -0.73,0.5 2.094,2.094 0 0 1 -0.89,0.19 3.058,3.058 0 0 1 -1.53,-0.39 2.786,2.786 0 0 1 -1.05,-1.05 2.737,2.737 0 0 1 -0.38,-1.45 v -5 h 1.34 v 5 a 1.5,1.5 0 0 0 0.22,0.77 1.412,1.412 0 0 0 0.58,0.53 1.864,1.864 0 0 0 1.66,-0.01 1.437,1.437 0 0 0 0.78,-1.29 v -5 h 1.35 v 4.79 a 0.681,0.681 0 0 1 -0.02,0.2 h 0.02 v 2.84 h -1.35 z"
         fill="#ffffff" />
      <path
         id="Path_338"
         d="m 276.39,355.23 h -1.73 l -2.79,-6.08 v 6.07 h -1.35 v -7.81 h 1.86 l 2.67,5.96 v -5.96 h 1.35 v 7.83 z"
         fill="#ffffff" />
      <path
         id="Path_339"
         d="m 279.59,355.23 h -1.35 v -7.83 h 1.35 z"
         fill="#ffffff" />
      <path
         id="Path_340"
         d="m 286.7,348.63 h -2.23 v 6.6 h -1.35 v -6.6 h -2.23 v -1.23 h 5.81 z"
         fill="#ffffff" />
      <path
         id="Path_341"
         d="m 294.25,347.4 -2.5,5.15 v 2.67 h -1.36 v -2.67 l -2.51,-5.15 h 1.34 l 1.84,3.79 1.85,-3.79 z"
         fill="#ffffff" />
      <path
         id="Path_342"
         d="M 187.48,365.32 H 184 v 2.97 h 2.8 v 0.66 H 184 v 3.51 h -0.74 v -7.83 h 4.22 v 0.68 z"
         fill="#ffffff" />
      <path
         id="Path_343"
         d="m 195.7,368.57 a 4.265,4.265 0 0 1 -0.3,1.58 3.869,3.869 0 0 1 -0.83,1.28 3.766,3.766 0 0 1 -1.23,0.85 3.826,3.826 0 0 1 -1.5,0.3 3.746,3.746 0 0 1 -1.51,-0.31 3.9,3.9 0 0 1 -1.23,-0.86 4.123,4.123 0 0 1 0.02,-5.7 4.025,4.025 0 0 1 1.24,-0.87 3.408,3.408 0 0 1 1.47,-0.31 3.674,3.674 0 0 1 1.5,0.32 3.964,3.964 0 0 1 1.23,0.88 4.238,4.238 0 0 1 1.13,2.85 z m -0.75,0 a 3.556,3.556 0 0 0 -0.24,-1.29 3.3,3.3 0 0 0 -1.64,-1.8 2.813,2.813 0 0 0 -1.21,-0.27 2.892,2.892 0 0 0 -2.19,0.99 3.763,3.763 0 0 0 -0.67,1.08 3.587,3.587 0 0 0 0,2.58 3.327,3.327 0 0 0 0.67,1.07 3.221,3.221 0 0 0 0.99,0.73 2.813,2.813 0 0 0 1.21,0.27 3,3 0 0 0 1.22,-0.26 2.926,2.926 0 0 0 0.98,-0.73 3.48,3.48 0 0 0 0.66,-1.07 3.57,3.57 0 0 0 0.24,-1.3 z"
         fill="#ffffff" />
      <path
         id="Path_344"
         d="m 201.5,372.47 h -0.88 l -2.09,-3.38 h -1.45 v 3.38 h -0.74 v -7.83 h 3.04 a 1.664,1.664 0 0 1 0.96,0.31 2.161,2.161 0 0 1 0.71,0.82 2.354,2.354 0 0 1 0.27,1.1 2.187,2.187 0 0 1 -0.26,1.03 2.48,2.48 0 0 1 -0.69,0.82 1.863,1.863 0 0 1 -0.98,0.36 l 2.12,3.4 z m -0.93,-5.6 a 1.668,1.668 0 0 0 -0.59,-1.27 1.055,1.055 0 0 0 -0.64,-0.22 h -2.27 v 2.98 h 2.25 a 0.933,0.933 0 0 0 0.62,-0.23 1.846,1.846 0 0 0 0.46,-0.58 1.6,1.6 0 0 0 0.18,-0.68 z"
         fill="#ffffff" />
      <path
         id="Path_345"
         d="m 211.51,365.31 h -2.53 v 7.15 h -0.74 v -7.15 h -2.53 v -0.67 h 5.81 v 0.67 z"
         fill="#ffffff" />
      <path
         id="Path_346"
         d="m 218.63,372.47 h -0.74 v -3.49 h -4.17 v 3.49 h -0.74 v -7.83 h 0.74 v 3.73 h 4.17 v -3.73 h 0.74 z"
         fill="#ffffff" />
      <path
         id="Path_347"
         d="m 224.46,372.47 h -4.26 v -7.83 h 4.27 v 0.66 h -3.52 v 3.02 h 2.85 v 0.64 h -2.85 v 2.85 h 3.52 v 0.66 z"
         fill="#ffffff" />
      <path
         id="Path_348"
         d="m 232.86,372.59 a 3.518,3.518 0 0 1 -1.5,-0.32 4.427,4.427 0 0 1 -1.22,-0.84 3.786,3.786 0 0 1 -0.83,-1.26 4.025,4.025 0 0 1 -0.3,-1.6 4.1,4.1 0 0 1 0.31,-1.59 4.337,4.337 0 0 1 0.83,-1.28 3.791,3.791 0 0 1 1.21,-0.85 3.71,3.71 0 0 1 3.14,0.07 4.481,4.481 0 0 1 1.44,1.19 l -1.09,0.89 a 2.916,2.916 0 0 0 -0.96,-0.82 2.292,2.292 0 0 0 -1.02,-0.25 2.177,2.177 0 0 0 -0.94,0.2 2.719,2.719 0 0 0 -0.78,0.56 2.566,2.566 0 0 0 -0.53,0.82 2.762,2.762 0 0 0 -0.19,1.06 2.911,2.911 0 0 0 0.19,1.05 2.6,2.6 0 0 0 1.31,1.38 2.235,2.235 0 0 0 1.97,-0.05 3.152,3.152 0 0 0 0.96,-0.82 l 1.09,0.89 a 4.481,4.481 0 0 1 -1.44,1.19 3.68,3.68 0 0 1 -1.63,0.38 z"
         fill="#ffffff" />
      <path
         id="Path_349"
         d="m 245.04,368.53 a 4.214,4.214 0 0 1 -0.3,1.57 3.974,3.974 0 0 1 -0.83,1.28 4.073,4.073 0 0 1 -1.23,0.86 3.729,3.729 0 0 1 -3,0 4.1,4.1 0 0 1 -1.23,-0.87 3.911,3.911 0 0 1 -0.83,-1.29 4.112,4.112 0 0 1 -0.3,-1.55 4.061,4.061 0 0 1 0.3,-1.54 4.177,4.177 0 0 1 0.84,-1.28 4.025,4.025 0 0 1 1.24,-0.87 3.658,3.658 0 0 1 2.97,0 3.933,3.933 0 0 1 1.23,0.87 3.869,3.869 0 0 1 0.83,1.28 4.049,4.049 0 0 1 0.3,1.53 z m -1.4,0 a 2.827,2.827 0 0 0 -0.33,-1.34 2.758,2.758 0 0 0 -0.89,-0.97 2.278,2.278 0 0 0 -2.47,0 2.619,2.619 0 0 0 -0.89,0.98 2.678,2.678 0 0 0 -0.33,1.33 2.867,2.867 0 0 0 0.33,1.35 2.627,2.627 0 0 0 0.89,0.98 2.28,2.28 0 0 0 1.24,0.37 2.2,2.2 0 0 0 1.24,-0.37 2.622,2.622 0 0 0 0.88,-0.99 2.867,2.867 0 0 0 0.34,-1.34 v 0 z"
         fill="#ffffff" />
      <path
         id="Path_350"
         d="m 246.55,372.47 v -7.83 h 2.18 l 1.86,4.94 1.86,-4.94 h 2.18 v 7.83 h -1.35 v -6.18 l -2.05,5.07 h -1.27 l -2.06,-5.07 v 6.18 z"
         fill="#ffffff" />
      <path
         id="Path_351"
         d="m 256.27,372.47 v -7.83 h 2.18 l 1.86,4.94 1.86,-4.94 h 2.18 v 7.83 H 263 v -6.18 l -2.05,5.07 h -1.27 l -2.06,-5.07 v 6.18 z"
         fill="#ffffff" />
      <path
         id="Path_352"
         d="m 270.41,372.47 v -0.64 a 2.433,2.433 0 0 1 -0.73,0.5 2.094,2.094 0 0 1 -0.89,0.19 3.058,3.058 0 0 1 -1.53,-0.39 2.786,2.786 0 0 1 -1.05,-1.05 2.737,2.737 0 0 1 -0.38,-1.45 v -5 h 1.34 v 5 a 1.5,1.5 0 0 0 0.22,0.77 1.412,1.412 0 0 0 0.58,0.53 1.864,1.864 0 0 0 1.66,-0.01 1.437,1.437 0 0 0 0.78,-1.29 v -5 h 1.35 v 4.79 a 0.681,0.681 0 0 1 -0.02,0.2 h 0.02 v 2.84 h -1.35 z"
         fill="#ffffff" />
      <path
         id="Path_353"
         d="m 279.22,372.47 h -1.73 l -2.79,-6.08 v 6.07 h -1.35 v -7.82 h 1.86 l 2.67,5.96 v -5.96 h 1.35 v 7.83 z"
         fill="#ffffff" />
      <path
         id="Path_354"
         d="m 282.41,372.47 h -1.35 v -7.83 h 1.35 z"
         fill="#ffffff" />
      <path
         id="Path_355"
         d="m 289.5,365.87 h -2.23 v 6.6 h -1.35 v -6.6 h -2.23 v -1.23 h 5.81 z"
         fill="#ffffff" />
      <path
         id="Path_356"
         d="m 297.06,364.64 -2.5,5.15 v 2.67 h -1.36 v -2.67 l -2.51,-5.15 h 1.34 l 1.84,3.79 1.85,-3.79 z"
         fill="#ffffff" />
      <rect
         id="Rectangle_435"
         width="160"
         height="159.50999"
         fill="#dbd990"
         x="0.23999999"
         y="80.510002" />
      <path
         id="Path_357"
         d="M 0.24,160.26 V 240 h 79.12 z"
         fill="#b7a763" />
      <path
         id="Path_358"
         d="M 80,160.26 159.75,240 H 0.24 l 79.75,-79.74 z"
         fill="#10392a" />
      <path
         id="Path_359"
         d="m 160.26,160.27 v 79.74 H 81 Z"
         fill="#b7a763" />
      <path
         id="Path_360"
         d="m 25.52,128.13 a 5.1,5.1 0 0 1 -1.5,-0.23 6.1,6.1 0 0 1 -1.4,-0.64 5.34,5.34 0 0 1 -1.11,-0.9 l 1.47,-1.42 a 3.851,3.851 0 0 0 1.2,0.83 3.148,3.148 0 0 0 1.31,0.31 1.988,1.988 0 0 0 1.31,-0.45 1.394,1.394 0 0 0 0.54,-1.08 1.232,1.232 0 0 0 -0.38,-0.89 2.273,2.273 0 0 0 -0.94,-0.54 18.354,18.354 0 0 1 -2.5,-0.84 3.465,3.465 0 0 1 -1.53,-1.17 2.839,2.839 0 0 1 -0.36,-1.95 2.961,2.961 0 0 1 0.64,-1.6 3.2,3.2 0 0 1 1.32,-0.95 4.918,4.918 0 0 1 1.78,-0.32 6.719,6.719 0 0 1 3.73,1.17 l -1.4,1.45 a 6.4,6.4 0 0 0 -1.04,-0.45 4.09,4.09 0 0 0 -1.16,-0.2 3.211,3.211 0 0 0 -0.88,0.09 1.672,1.672 0 0 0 -0.7,0.36 0.954,0.954 0 0 0 -0.3,0.69 0.924,0.924 0 0 0 0.25,0.74 1.9,1.9 0 0 0 0.74,0.43 c 0.31,0.11 0.68,0.23 1.1,0.36 a 10.556,10.556 0 0 1 1.97,0.72 3.078,3.078 0 0 1 1.24,1.08 3.3,3.3 0 0 1 0.43,1.79 3.452,3.452 0 0 1 -0.51,1.82 3.768,3.768 0 0 1 -1.37,1.29 3.815,3.815 0 0 1 -1.93,0.48 z" />
      <path
         id="Path_361"
         d="m 30.4,127.95 3.57,-11.55 h 2.5 l 3.59,11.55 h -2.12 l -0.83,-2.79 h -3.77 l -0.83,2.79 z m 4.83,-9.07 -1.35,4.56 h 2.71 z" />
      <path
         id="Path_362"
         d="M 46.95,127.97 H 41.51 V 116.4 h 1.98 v 9.62 h 3.45 v 1.95 z" />
      <path
         id="Path_363"
         d="m 56.64,118.22 h -3.27 v 9.75 h -1.98 v -9.75 h -3.27 v -1.82 h 8.53 v 1.82 z" />
      <path
         id="Path_364"
         d="M 69.52,127.97 H 64.08 V 116.4 h 1.98 v 9.62 h 3.45 v 1.95 z" />
      <path
         id="Path_365"
         d="m 70.69,127.95 3.57,-11.55 h 2.5 l 3.59,11.55 h -2.12 l -0.83,-2.79 h -3.77 l -0.83,2.79 h -2.12 z m 4.83,-9.07 -1.36,4.56 h 2.71 z" />
      <path
         id="Path_366"
         d="m 89.77,127.97 h -2.35 l -3.39,-4.15 -0.36,-0.48 v 4.63 H 81.7 v -11.59 h 1.97 v 4.66 l 3.72,-4.68 h 2.41 l -4.36,5.78 4.33,5.82 z" />
      <path
         id="Path_367"
         d="M 97.37,127.97 H 91.14 V 116.4 h 6.23 v 1.85 h -4.25 v 3.22 h 3.44 v 1.67 h -3.44 v 2.97 h 4.25 v 1.85 z" />
      <path
         id="Path_368"
         d="m 110.31,128.15 a 5.211,5.211 0 0 1 -2.2,-0.47 6.159,6.159 0 0 1 -1.78,-1.25 5.882,5.882 0 0 1 -1.22,-1.86 6.49,6.49 0 0 1 0,-4.73 6.2,6.2 0 0 1 1.22,-1.89 5.879,5.879 0 0 1 1.78,-1.26 5.407,5.407 0 0 1 4.6,0.11 6.66,6.66 0 0 1 2.12,1.76 l -1.6,1.32 a 4.557,4.557 0 0 0 -1.4,-1.22 3.272,3.272 0 0 0 -2.88,-0.07 3.755,3.755 0 0 0 -1.15,0.83 3.638,3.638 0 0 0 -0.78,1.22 4.18,4.18 0 0 0 -0.28,1.56 4.244,4.244 0 0 0 0.28,1.54 4.03,4.03 0 0 0 0.78,1.22 3.6,3.6 0 0 0 1.14,0.83 3.3,3.3 0 0 0 2.89,-0.08 4.525,4.525 0 0 0 1.4,-1.21 l 1.6,1.32 a 6.45,6.45 0 0 1 -2.12,1.76 5.356,5.356 0 0 1 -2.39,0.57 z" />
      <path
         id="Path_369"
         d="m 118.33,127.97 h -1.98 V 116.4 h 1.98 z" />
      <path
         id="Path_370"
         d="m 128.1,118.22 h -3.27 v 9.75 h -1.98 v -9.75 h -3.27 v -1.82 h 8.53 v 1.82 z" />
      <path
         id="Path_371"
         d="m 138.52,116.4 -3.67,7.62 v 3.95 h -2 v -3.95 l -3.68,-7.62 h 1.97 l 2.71,5.6 2.71,-5.6 h 1.97 z" />
      <path
         id="Path_372"
         d="m 56.53,147.8 v -0.94 a 3.989,3.989 0 0 1 -1.08,0.74 2.929,2.929 0 0 1 -1.3,0.28 4.4,4.4 0 0 1 -2.24,-0.57 4.195,4.195 0 0 1 -2.1,-3.69 v -7.39 h 1.97 l 0.02,7.39 a 2.137,2.137 0 0 0 0.31,1.13 2.226,2.226 0 0 0 0.85,0.79 2.765,2.765 0 0 0 2.43,0 2.106,2.106 0 0 0 0.84,-0.78 2.127,2.127 0 0 0 0.31,-1.12 v -7.39 h 1.98 v 7.07 a 1.526,1.526 0 0 1 -0.03,0.3 h 0.03 v 4.2 h -1.98 z" />
      <path
         id="Path_373"
         d="m 68.28,138.05 h -3.27 v 9.75 h -1.98 v -9.75 h -3.27 v -1.82 h 8.53 v 1.82 z" />
      <path
         id="Path_374"
         d="m 69.35,147.78 3.57,-11.55 h 2.5 l 3.59,11.55 h -2.12 l -0.83,-2.79 h -3.77 l -0.83,2.79 h -2.12 z m 4.83,-9.07 -1.35,4.56 h 2.71 z" />
      <path
         id="Path_375"
         d="m 88.49,147.8 h -1.98 v -4.71 h -4.28 v 4.71 h -1.98 v -11.57 h 1.98 v 5.04 h 4.28 v -5.04 h 1.98 z" />
      <path
         id="Path_376"
         d="m 89.4,147.06 a 1.029,1.029 0 0 1 0.32,-0.74 1.107,1.107 0 0 1 0.77,-0.31 0.927,0.927 0 0 1 0.75,0.3 1.083,1.083 0 0 1 0.31,0.76 3.17,3.17 0 0 1 -0.15,0.86 c -0.1,0.34 -0.22,0.69 -0.36,1.04 -0.14,0.35 -0.27,0.68 -0.4,0.97 l -0.74,-0.31 a 3.313,3.313 0 0 0 0.28,-0.74 7.318,7.318 0 0 0 0.15,-0.79 0.849,0.849 0 0 1 -0.66,-0.31 0.97,0.97 0 0 1 -0.27,-0.72 z" />
      <path
         id="Path_377"
         d="m 105.38,147.8 v -0.94 a 3.939,3.939 0 0 1 -1.07,0.74 2.971,2.971 0 0 1 -1.31,0.28 4.4,4.4 0 0 1 -2.24,-0.57 4.195,4.195 0 0 1 -2.1,-3.69 v -7.39 h 1.97 l 0.02,7.39 a 2.137,2.137 0 0 0 0.31,1.13 2.226,2.226 0 0 0 0.85,0.79 2.765,2.765 0 0 0 2.43,0 2.106,2.106 0 0 0 0.84,-0.78 2.03,2.03 0 0 0 0.3,-1.12 v -7.39 h 1.98 v 7.07 a 1.021,1.021 0 0 1 -0.03,0.3 h 0.03 v 4.2 h -1.98 z" />
      <path
         id="Path_378"
         d="m 112.62,147.96 a 5.1,5.1 0 0 1 -1.5,-0.23 5.708,5.708 0 0 1 -1.4,-0.64 5.092,5.092 0 0 1 -1.11,-0.9 l 1.47,-1.42 a 3.851,3.851 0 0 0 1.2,0.83 3.148,3.148 0 0 0 1.31,0.31 2.033,2.033 0 0 0 1.32,-0.45 1.394,1.394 0 0 0 0.54,-1.08 1.232,1.232 0 0 0 -0.38,-0.89 2.272,2.272 0 0 0 -0.94,-0.54 18.354,18.354 0 0 1 -2.5,-0.84 3.466,3.466 0 0 1 -1.53,-1.17 2.839,2.839 0 0 1 -0.36,-1.95 2.961,2.961 0 0 1 0.64,-1.6 3.2,3.2 0 0 1 1.32,-0.95 4.7,4.7 0 0 1 1.78,-0.31 6.7,6.7 0 0 1 3.73,1.17 l -1.4,1.45 a 6.4,6.4 0 0 0 -1.04,-0.45 4.09,4.09 0 0 0 -1.16,-0.2 3.252,3.252 0 0 0 -0.88,0.09 1.672,1.672 0 0 0 -0.7,0.36 0.954,0.954 0 0 0 -0.3,0.69 0.924,0.924 0 0 0 0.25,0.74 1.9,1.9 0 0 0 0.74,0.43 c 0.31,0.11 0.68,0.23 1.1,0.36 a 11.315,11.315 0 0 1 1.97,0.72 3.078,3.078 0 0 1 1.24,1.08 3.3,3.3 0 0 1 0.43,1.79 3.452,3.452 0 0 1 -0.51,1.82 3.768,3.768 0 0 1 -1.37,1.29 3.815,3.815 0 0 1 -1.93,0.48 z" />
      <rect
         id="Rectangle_1395"
         width="80"
         height="80"
         fill="#b7302c"
         x="80.239998"
         y="0.50999999" />
      <g
         id="Group_3006"
         data-name="Group 3006"
         clip-path="url(#clip-path)">
        <g
           id="Group_905">
          <path
             id="Path_820"
             d="m 181.87,186.64 c 0.8,-7.34 -2.92,-9.82 1.15,-14.78 4.07,-4.96 16.37,-10.88 23.53,-27.25 7.16,-16.37 4.69,-38.84 -18.76,-53.26 -23.45,-14.42 -49.28,3.63 -59.1,22.47 -14.8,28.39 5.57,55.95 -6.64,74.05 -11.14,16.52 -44.06,9.02 -68.66,-8.49 -24.6,-17.51 -41.5,-40.76 -26.13,-54.09 15.1,-13.1 41.02,25.03 65.73,19.65 24.99,-5.44 23.58,-62.07 29.66,-86 0,0 29.13,-5.98 49.72,-28.35 20.59,-22.37 14.73,-42.97 7.36,-49.05 -6.95,-5.73 -27.39,-9.77 -46.25,10.16 -21.43,22.63 -24.71,53.38 -24.74,53.55 0,0 -30.89,9.87 -56.19,-15.43 C 24.66,1.93 33.76,-19.33 33.76,-19.33 c 0,0 10.83,10.89 24.92,13.71 17.3,3.46 29.08,-1.76 32.53,-15.12 3.09,-11.95 -7.79,-24.77 -23.48,-27.72 -13.09,-2.47 -28.84,2.06 -28.84,2.06 0,0 1.18,-24.98 27.57,-37.57 26.39,-12.59 46.12,4.22 46.12,4.22 l 7.45,-14.18 c 0.43,0.36 -25,-19.19 -57.44,-6.86 -23.59,8.96 -43.2,32.65 -38.72,64.5 -18.96,26.15 -4.97,55.98 20.76,80.13 27.04,25.38 61.22,18.46 61.22,18.46 -5.55,19.23 -6.34,63.19 -17.9,66.02 -13.25,3.24 -47.63,-40.13 -73.57,-14.86 -27.4,26.69 -1.14,59.73 30.71,80.61 31.85,20.88 67.55,30.04 87.95,6.55 22.61,-26.05 -4.1,-60.08 11.27,-80.63 14.69,-19.64 28.96,-19.52 38.28,-12.45 13.25,10.06 13.32,22.87 5.43,34.92 -12.33,18.82 -31.03,21.94 -28.67,40 a 28.194,28.194 0 0 0 11.67,19.16 c 0,0 10.08,-7.64 10.87,-14.98 M 66.44,-31.84 c 10.68,3.27 9.64,14.57 -3.1,11.26 -8.47,-2.2 -17.89,-10.32 -17.89,-10.32 0,0 12.15,-3.66 21,-0.94 m 61.24,71.54 c 0.05,-0.15 7.01,-27.1 18.22,-38.31 11.12,-11.12 21.87,-7.44 21.85,-7.41 0.06,0.06 4.63,11.74 -5.99,23.27 -13.92,15.1 -33.92,22.41 -34.07,22.46"
             fill="#550d37" />
        </g>
      </g>
      <rect
         id="Rectangle_579"
         width="80"
         height="80"
         fill="#0e2a29"
         x="0.23999999"
         y="320" />
      <g
         id="Group_435">
        <path
           id="Path_458"
           d="m 68.24,345.37 c 0,0 -2.15,-2.55 -4.68,-5.02 -4.53,-4.43 -10.11,-3.9 -15.07,-2.15 -3.7,1.31 -16.07,5.11 -21.16,7.4 -8.49,3.82 -12.38,6.24 -12.38,11.1 v 5.92 c 0,4.85 3.88,7.28 12.38,11.1 5.08,2.29 17.46,6.09 21.16,7.4 4.96,1.75 10.54,2.28 15.07,-2.15 2.53,-2.47 4.68,-5.02 4.68,-5.02 v -28.57 z"
           fill="#77aba7" />
        <path
           id="Path_459"
           d="m 43.06,367.71 c 0.64,-1.38 3.57,-1.37 6.55,0.01 2.98,1.38 4.86,3.62 4.22,4.99 -0.64,1.37 -3.57,1.37 -6.55,-0.01 -2.98,-1.38 -4.86,-3.62 -4.22,-4.99"
           fill="#0e2a29" />
        <path
           id="Path_460"
           d="m 43.06,351.6 c 0.64,1.38 3.57,1.37 6.55,-0.01 2.98,-1.38 4.86,-3.62 4.22,-4.99 -0.64,-1.37 -3.57,-1.37 -6.55,0.01 -2.98,1.38 -4.86,3.62 -4.22,4.99"
           fill="#0e2a29" />
        <path
           id="Path_461"
           d="M 99.89,373.94 H 68.24 a 19.236,19.236 0 0 1 -1.38,-27.18 c 0.44,-0.48 0.9,-0.95 1.38,-1.38 h 31.65 v 28.57 z"
           fill="#77aba7" />
      </g>
      <rect
         id="Rectangle_1397"
         width="80"
         height="80"
         fill="#644287"
         x="0.23999999"
         y="240" />
      <path
         id="Path_821"
         d="m 39.92,319.75 a 39.685,39.685 0 1 1 0.01,0"
         fill="#e83c8b" />
      <path
         id="Path_822"
         d="M 79.61,280.06 A 39.69,39.69 0 0 0 39.92,319.75 39.69,39.69 0 0 0 0.23,280.06 39.69,39.69 0 0 0 39.92,240.37 39.69,39.69 0 0 0 79.61,280.06"
         fill="#f2b614" />
      <rect
         id="Rectangle_1415"
         width="79.830002"
         height="80"
         fill="#e7684e"
         x="160.31"
         y="240.09" />
      <rect
         id="Rectangle_1416"
         width="10.73"
         height="66.900002"
         fill="#f2f2f2"
         x="216.73"
         y="253.19" />
      <rect
         id="Rectangle_1417"
         width="10.73"
         height="58.009998"
         fill="#f2f2f2"
         x="189.92"
         y="262.07999" />
      <g
         id="Group_3008"
         data-name="Group 3008"
         clip-path="url(#clip-path-3)">
        <g
           id="Group_911">
          <path
             id="Path_823"
             d="m 321.32,319.63 c 0,44.03 -36.02,79.73 -80.45,79.73 -44.43,0 -80.45,-35.7 -80.45,-79.73 0,-44.03 36.02,-79.73 80.45,-79.73 44.43,0 80.45,35.7 80.45,79.73 m -13.41,0 c 0,-36.7 -30.01,-66.44 -67.04,-66.44 -37.03,0 -67.04,29.75 -67.04,66.44 0,36.69 30.01,66.44 67.04,66.44 37.03,0 67.04,-29.75 67.04,-66.44"
             fill="#1a708f" />
        </g>
      </g>
      <rect
         id="Rectangle_1419"
         width="79.970001"
         height="79.419998"
         fill="#a4d6d8"
         x="240.27"
         y="160.42" />
      <path
         id="Path_824"
         d="m 241.55,175.54 -1.13,0.28 v 64.6 h 79.82 V 183.8 l -1.6,-0.78 -1.75,-0.5 -1.87,-0.04 -1.64,-0.99 -1.86,0.38 -1.78,-0.06 -1.88,-0.27 -1.87,0.25 -1.85,0.75 -1.93,0.25 -1.88,-0.98 -1.99,0.71 -1.84,-0.74 -1.93,-0.07 -1.86,-0.48 -1.94,-0.1 -1.8,-0.76 h -1.96 l -1.72,-1.13 -1.98,0.12 -1.94,0.09 -1.88,-0.5 -1.92,0.4 -1.95,-0.91 -1.9,0.64 -1.92,0.17 -1.94,-0.07 -1.89,0.43 -1.88,0.65 -1.99,-0.69 -1.89,0.67 -1.9,-0.68 -2.02,0.56 -1.7,-1.24 -2,-0.07 -1.84,-0.62 -1.93,-0.36 -1.64,-1.17 -1.96,-0.14 -1.84,-0.55 -1.88,-0.52 -1.94,0.08 z"
         fill="#8dc9d1" />
      <path
         id="Path_825"
         d="m 319.05,200.88 -0.86,0.64 -0.96,0.14 -1.01,-0.13 -0.85,0.73 -0.91,0.38 -0.87,0.68 -0.95,0.1 -0.98,-0.15 -0.8,1.46 v 35.68 h 8.42 v -39.73 z"
         fill="#5bb3c7" />
      <path
         id="Path_826"
         d="m 320.01,199.53 -0.58,0.72 -0.68,0.42 -1.03,-0.67 -0.37,1.38 -1.13,-0.98 -0.77,0.15 -0.36,1.39 -0.99,-0.54 -0.4,1.27 -0.76,0.16 -1.1,-0.89 -0.37,1.35 -0.83,-0.04 -0.89,-0.22 -0.73,0.25 -0.94,-0.39 -0.74,0.23 -0.71,0.32 -0.56,0.78 -0.72,0.29 -0.72,0.29 -0.91,-0.31 -0.39,1.29 -0.7,0.36 -0.64,0.54 -1.3,-1.53 -0.35,1.45 -1.08,-0.83 -0.33,1.52 -1.16,-1.13 -0.51,0.96 -0.58,0.75 -1.13,-1.05 -0.32,1.62 -1.01,-0.67 -0.77,0.12 -0.71,0.34 -0.76,0.14 -0.63,0.6 -1,-0.68 -0.59,0.73 -0.36,1.6 -1.05,-0.89 -0.84,-0.14 -0.57,0.85 -1.03,-0.89 -0.48,1.24 -1.01,-0.88 -0.55,0.98 -0.82,-0.11 -0.77,0.1 -0.75,0.16 -0.49,1.42 -1.08,-1.41 0.09,29.35 h 40.17 v -41.06 l -0.23,0.17 z"
         fill="#2b8798" />
      <path
         id="Path_827"
         d="m 275.81,212.25 -0.64,-1.71 -0.62,1.48 -0.66,-1.19 -0.6,1.44 -0.68,-1.34 -0.64,-0.1 -0.62,0.4 -0.69,-0.91 -0.54,1.57 -0.69,-0.68 -0.54,1.28 -0.77,-1.66 -0.48,1.72 -0.82,-1.87 -0.63,0.18 -0.53,1.08 -0.68,-0.31 -0.65,-0.09 -0.47,1.35 -0.68,-0.29 -0.61,0.23 -0.79,-1.03 -0.46,1.24 -0.86,-1.41 -0.56,0.54 -0.49,0.96 -0.54,0.61 -0.77,-0.73 -0.79,-0.83 -0.45,1.11 -0.72,-0.43 -0.37,1.49 -0.63,0.09 -1.01,-1.88 -0.35,1.54 -0.57,0.36 -0.8,-0.73 -0.62,0.16 -0.47,0.86 -0.74,-0.42 -0.42,1.05 -0.76,-0.52 -0.81,-0.71 -0.68,-0.14 -0.53,0.57 -0.63,0.12 -0.78,-0.55 -0.3,1.54 -0.89,-1.02 -0.59,0.28 -0.38,1.15 -0.66,-0.02 -0.68,-0.1 -0.77,-0.47 -0.74,-0.35 -0.57,0.36 -0.16,0.23 v 24.08 h 79.97 v -19.11 l -0.12,-0.21 -0.99,1.12 -0.34,-1.14 -0.43,-0.8 -1.16,1.72 -0.12,-1.89 -0.87,0.7 -0.29,-1.31 -1.12,1.54 -0.05,-2.12 -0.95,0.95 -0.58,-0.31 -0.55,-0.41 -0.74,0.24 -0.45,-0.72 -0.45,-0.75 -0.92,0.86 -0.89,0.76 -0.63,-0.13 -0.1,-1.93 -0.87,0.69 -0.51,-0.55 -0.77,0.33 -0.64,-0.09 -0.87,0.7 -0.11,-1.92 -0.56,-0.37 -1.14,1.61 -0.45,-0.74 -0.16,-1.73 -0.94,0.92 -0.62,-0.15 -0.8,0.47 -0.14,-1.83 -0.99,1.12 -0.25,-1.48 -0.84,0.61 -0.65,-0.04 -0.48,-0.65 -0.79,0.44 -0.87,0.73 -0.66,-0.02 -0.65,-0.05 -0.07,-2.2 -0.59,-0.26 -0.59,-0.27 -1.16,1.86 -0.57,-0.34 -0.67,0.05 -0.1,-2.23 -1.15,1.99 -0.53,-0.47 -0.41,-1.05 -0.8,0.72 -0.6,-0.21 -0.57,-0.42 -0.7,0.34 -0.48,-1.05 -0.63,-0.11 -0.55,-0.78 -0.74,0.74 -0.68,0.36 -0.63,-0.12 -0.69,0.71 -0.55,-1.18 -0.66,0.41 -0.66,0.48 -0.56,-1.75 -0.69,1.5 -0.62,-0.7 -0.63,-1.04 -0.65,2.32 z"
         fill="#2e5a5b" />
      <rect
         id="Rectangle_584"
         width="80"
         height="80"
         fill="#e2147a"
         x="80.239998"
         y="319.73999" />
      <path
         id="Path_469"
         d="m 106.19,399.49 -25.8,-79.75 h 78.92 l -25.8,79.74 h -27.32 z"
         fill="#2ba5c3" />
      <path
         id="Path_470"
         d="M 102.65,388.59 80.39,319.73 h 78.92 l -22.26,68.86 z"
         fill="#f2eb1a" />
      <path
         id="Path_471"
         d="m 95.89,367.4 -15.5,-47.66 h 78.92 l -15.5,47.66 z"
         fill="#ef8a27" />
      <rect
         id="Rectangle_1420"
         width="80.010002"
         height="79.379997"
         fill="#b7d233"
         x="160.25999"
         y="160.63" />
      <path
         id="Path_828"
         d="m 239.69,240.01 c -13.47,0 -33.8,-12.41 -35.72,-33.81 a 11.475,11.475 0 0 0 7.46,2.75 11.746,11.746 0 0 0 8.27,-19.95 10.48,10.48 0 0 0 -8.82,-14.61 11.54,11.54 0 0 0 -22.07,0.06 10.471,10.471 0 0 0 -8.21,14.55 11.756,11.756 0 0 0 8.27,19.96 11.525,11.525 0 0 0 7.25,-2.57 c -1.95,21.29 -22.27,33.63 -35.7,33.63 h 79.28 z"
         fill="#189364" />
      <rect
         id="Rectangle_1421"
         width="80"
         height="80.120003"
         fill="#2570a8"
         x="160.24001"
         y="80.510002" />
      <g
         id="Group_3009"
         data-name="Group 3009"
         clip-path="url(#clip-path-4)">
        <g
           id="Group_916">
          <path
             id="Path_829"
             d="M 502.27,80.48 H 195.06 c -19.15,0 -34.67,15.76 -34.67,35.21 v 44.72 H 532.26 V 110.94 A 30.227,30.227 0 0 0 502.27,80.49"
             fill="#4cadc3" />
          <rect
             id="Rectangle_1422"
             width="371.87"
             height="13.32"
             transform="translate(160.26,147.31)"
             fill="#ffffff"
             x="0"
             y="0" />
        </g>
      </g>
      <rect
         id="Rectangle_1398"
         width="79.970001"
         height="80"
         fill="#f1ce89"
         x="240.27"
         y="240.09" />
      <rect
         id="Rectangle_1399"
         width="10.21"
         height="10.21"
         fill="#d09963"
         x="251.33"
         y="251.14999" />
      <rect
         id="Rectangle_1400"
         width="10.66"
         height="10.67"
         fill="#d09963"
         x="266.92999"
         y="250.75" />
      <rect
         id="Rectangle_1401"
         width="11.06"
         height="10.21"
         fill="#d09963"
         x="282.81"
         y="251.14999" />
      <rect
         id="Rectangle_1402"
         width="10.66"
         height="10.67"
         fill="#d09963"
         x="298.91"
         y="250.75" />
      <rect
         id="Rectangle_1403"
         width="10.66"
         height="10.67"
         fill="#d09963"
         x="250.92999"
         y="266.75" />
      <rect
         id="Rectangle_1404"
         width="10.66"
         height="10.67"
         fill="#d09963"
         x="266.92999"
         y="266.75" />
      <rect
         id="Rectangle_1405"
         width="10.66"
         height="10.67"
         fill="#d09963"
         x="282.92001"
         y="266.75" />
      <rect
         id="Rectangle_1406"
         width="10.66"
         height="10.67"
         fill="#d09963"
         x="298.91"
         y="266.75" />
      <rect
         id="Rectangle_1407"
         width="10.21"
         height="11.06"
         fill="#d09963"
         x="251.33"
         y="282.64001" />
      <rect
         id="Rectangle_1408"
         width="10.66"
         height="10.67"
         fill="#d09963"
         x="266.92999"
         y="282.75" />
      <rect
         id="Rectangle_1409"
         width="11.06"
         height="11.06"
         fill="#d09963"
         x="282.81"
         y="282.64001" />
      <rect
         id="Rectangle_1410"
         width="10.66"
         height="10.67"
         fill="#d09963"
         x="298.91"
         y="282.75" />
      <rect
         id="Rectangle_1411"
         width="10.66"
         height="10.67"
         fill="#d09963"
         x="250.92999"
         y="298.75" />
      <rect
         id="Rectangle_1412"
         width="10.66"
         height="10.67"
         fill="#d09963"
         x="266.92999"
         y="298.75" />
      <rect
         id="Rectangle_1413"
         width="10.66"
         height="10.67"
         fill="#d09963"
         x="282.92001"
         y="298.75" />
      <rect
         id="Rectangle_1414"
         width="10.66"
         height="10.67"
         fill="#d09963"
         x="298.91"
         y="298.75" />
      <rect
         id="Rectangle_399"
         width="80"
         height="80"
         fill="#187c89"
         x="0.23999999"
         y="0.50999999" />
      <g
         id="Group_265">
        <path
           id="Path_273"
           d="M 86.51,15.88 H 59.09 a 9.47,9.47 0 0 0 -9.47,9.47 v 27.07 a 1.888,1.888 0 0 1 -1.89,1.89 h -0.65 a 1.888,1.888 0 0 1 -1.89,-1.89 v 0 V 9.49 A 9.485,9.485 0 0 0 35.71,0.02 H 0.89 A 1.888,1.888 0 0 0 -1,1.91 v 0 13.03 A 11.365,11.365 0 0 0 10.36,26.3 h 3.33 v 46.64 a 7.571,7.571 0 0 0 7.57,7.57 h 58.82 a 7.571,7.571 0 0 0 7.57,-7.57 L 86.5,15.88 Z"
           fill="#dba334" />
      </g>
      <path
         id="Path_4278"
         data-name="Path 4278"
         d="m 203.24,0.52 h 36.75 a 0.906,0.906 0 0 1 0.04,0.46 v 78.95 c 0.02,0.41 0,0.43 -0.42,0.43 h -78.36 a 3.475,3.475 0 0 1 -0.91,-0.04 V 0.51 h 36.87 V 7.2 c 0,0.25 -0.07,0.33 -0.31,0.38 a 15.912,15.912 0 0 0 -11.11,7.86 21.159,21.159 0 0 0 -2.74,7.74 c -0.19,0.22 -0.07,0.48 -0.1,0.73 a 31.568,31.568 0 0 0 -0.12,4.86 c 0,0.35 0,0.7 0.01,1.05 0,0.07 0,0.14 0.09,0.16 0.1,0.93 0.23,1.85 0.39,2.77 q 0.54,3 1.37,5.92 c 0.64,2.29 1.27,4.58 2.05,6.83 1.4,4 2.87,7.98 4.34,11.95 a 0.369,0.369 0 0 0 0.42,0.28 c 1.82,-0.01 3.63,0 5.45,0 0.18,0 0.27,0 0.25,0.24 -0.11,1.55 -0.3,3.08 -0.54,4.62 a 31.448,31.448 0 0 1 -1.89,7.2 11.784,11.784 0 0 1 -2.5,3.95 6.526,6.526 0 0 1 -1.93,1.31 9.313,9.313 0 0 0 6.53,-1.86 9.574,9.574 0 0 0 3.28,-5.96 c 1.23,6.71 6.41,8.12 9.83,7.8 a 6.626,6.626 0 0 1 -2.67,-2.1 14.454,14.454 0 0 1 -2.05,-3.81 31.992,31.992 0 0 1 -1.53,-5.94 c -0.24,-1.42 -0.44,-2.85 -0.54,-4.29 v -1.15 h 5.68 c 0.16,0 0.27,-0.03 0.33,-0.2 1.49,-4.07 3,-8.14 4.43,-12.23 0.94,-2.7 1.68,-5.46 2.41,-8.22 a 44.849,44.849 0 0 0 1.42,-8.04 c 0.14,-0.06 0.09,-0.18 0.09,-0.28 0.03,-1.18 0.03,-2.36 0,-3.55 0,-0.09 0.05,-0.2 -0.09,-0.25 a 2.633,2.633 0 0 0 -0.02,-0.28 1.709,1.709 0 0 0 0,-0.32 c -0.04,-0.19 0.09,-0.41 -0.1,-0.57 -0.04,-0.28 -0.08,-0.56 -0.13,-0.84 a 21.71,21.71 0 0 0 -3.77,-9.23 15.046,15.046 0 0 0 -6.3,-5.11 17.945,17.945 0 0 0 -3.37,-1.02 C 203.71,7.47 203.59,7.49 203.49,7.49 203.26,7.5 203.17,7.42 203.17,7.17 V 0.53 Z"
         fill="#facb14" />
      <path
         id="Path_4279"
         data-name="Path 4279"
         d="m 182.87,28.77 a 30.359,30.359 0 0 1 0.12,-4.86 2.988,2.988 0 0 0 0.1,-0.73 21.159,21.159 0 0 1 2.74,-7.74 15.912,15.912 0 0 1 11.11,-7.86 c 0.24,-0.04 0.31,-0.13 0.31,-0.38 -0.01,-2.23 0,-4.46 0,-6.69 h 5.89 v 6.36 a 0.65,0.65 0 0 0 0.7,0.72 18.172,18.172 0 0 1 3.37,1.02 15.108,15.108 0 0 1 6.3,5.11 21.71,21.71 0 0 1 3.77,9.23 c 0.05,0.28 0.08,0.56 0.13,0.84 a 5.272,5.272 0 0 0 0.1,0.89 2.633,2.633 0 0 0 0.02,0.28 39.467,39.467 0 0 1 0,4.07 44.7,44.7 0 0 1 -1.42,8.04 c -0.73,2.76 -1.47,5.52 -2.41,8.22 -1.43,4.1 -2.94,8.16 -4.43,12.23 -0.06,0.17 -0.17,0.2 -0.33,0.2 h -5.68 c -0.07,-0.01 -0.12,0.02 -0.1,0.09 a 9.52,9.52 0 0 0 0.11,1.06 c 0.1,1.44 0.3,2.87 0.54,4.29 a 32.2,32.2 0 0 0 1.53,5.94 13.9,13.9 0 0 0 2.05,3.81 6.542,6.542 0 0 0 2.67,2.1 c -3.42,0.32 -8.6,-1.09 -9.83,-7.8 a 9.527,9.527 0 0 1 -3.28,5.96 9.2,9.2 0 0 1 -6.53,1.86 6.526,6.526 0 0 0 1.93,-1.31 12.106,12.106 0 0 0 2.5,-3.95 31.583,31.583 0 0 0 1.89,-7.2 c 0.24,-1.53 0.43,-3.07 0.54,-4.62 0.02,-0.25 -0.07,-0.24 -0.25,-0.24 h -5.45 a 0.375,0.375 0 0 1 -0.42,-0.28 c -1.47,-3.98 -2.94,-7.95 -4.34,-11.95 -0.79,-2.25 -1.41,-4.54 -2.05,-6.83 q -0.825,-2.925 -1.37,-5.92 c -0.16,-0.92 -0.29,-1.84 -0.39,-2.77 a 9.87,9.87 0 0 0 -0.1,-1.21 z" />
      <path
         id="Path_4280"
         data-name="Path 4280"
         d="m 160.37,80.33 a 3.475,3.475 0 0 0 0.91,0.04 h 78.36 c 0.42,0 0.44,-0.03 0.42,-0.43 V 0.99 a 0.907,0.907 0 0 0 -0.04,-0.46 c 0.2,-0.04 0.24,0.03 0.24,0.24 v 79.51 c 0,0.25 -0.1,0.24 -0.27,0.24 H 160.28 V 0.8 c 0,-0.09 -0.07,-0.2 0.06,-0.27 v 79.5 c 0,0.11 -0.02,0.22 0.06,0.31 z"
         fill="#f7f9e9" />
      <path
         id="Path_4281"
         data-name="Path 4281"
         d="m 160.37,80.33 c -0.08,-0.09 -0.06,-0.2 -0.06,-0.31 V 0.52 h 0.06 z"
         fill="#f3edc8" />
      <path
         id="Path_4282"
         data-name="Path 4282"
         d="m 203.84,7.59 a 0.65,0.65 0 0 1 -0.7,-0.72 V 0.51 h 0.12 v 6.64 c 0,0.25 0.09,0.33 0.32,0.32 0.1,0 0.22,-0.02 0.28,0.11 z"
         fill="#caac43" />
      <path
         id="Path_4283"
         data-name="Path 4283"
         d="m 217.51,29.04 a 36.837,36.837 0 0 0 0,-4.07 c 0.14,0.04 0.09,0.16 0.09,0.25 0.03,1.18 0.03,2.36 0,3.55 0,0.1 0.05,0.22 -0.09,0.28 z"
         fill="#b8a676" />
      <path
         id="Path_4284"
         data-name="Path 4284"
         d="m 182.87,28.77 a 9.87,9.87 0 0 1 0.1,1.21 c -0.09,-0.02 -0.09,-0.09 -0.09,-0.16 0,-0.35 0,-0.7 -0.01,-1.05 z"
         fill="#b8a676" />
      <path
         id="Path_4285"
         data-name="Path 4285"
         d="m 203.24,58.89 c -0.1,-0.35 -0.04,-0.71 -0.11,-1.06 -0.01,-0.07 0.03,-0.1 0.1,-0.09 v 1.15 z"
         fill="#b8a676" />
      <path
         id="Path_4286"
         data-name="Path 4286"
         d="m 217.49,24.68 a 5.39,5.39 0 0 1 -0.1,-0.89 c 0.19,0.16 0.07,0.38 0.1,0.57 a 1.709,1.709 0 0 1 0,0.32 z"
         fill="#b8a676" />
      <path
         id="Path_4287"
         data-name="Path 4287"
         d="m 183.09,23.19 a 4.573,4.573 0 0 1 -0.1,0.73 c 0.03,-0.24 -0.08,-0.51 0.1,-0.73 z"
         fill="#b8a676" />
      <g
         id="Component_95_3">
        <path
           id="Path_4276"
           d="m 80.24,240.09 h 80 v 80 h -80 z"
           fill="#136e97" />
        <g
           id="Group_3002">
          <g
             id="Group_3014"
             data-name="Group 3014"
             clip-path="url(#clip-path-6)">
            <g
               id="Group_3001">
              <path
                 id="Path_4274"
                 d="m 57.12,287.99 a 23.78,23.78 0 0 1 -33.53,0 23.533,23.533 0 0 1 -0.1,-33.28 l 0.1,-0.1 a 23.78,23.78 0 0 1 33.53,0 23.533,23.533 0 0 1 0.1,33.28 l -0.1,0.1" />
              <path
                 id="Path_4275"
                 d="m 137.15,297.14 a 23.986,23.986 0 0 1 -33.82,0 23.738,23.738 0 0 1 -0.1,-33.57 l 0.1,-0.1 a 23.986,23.986 0 0 1 33.82,0 23.738,23.738 0 0 1 0.1,33.57 l -0.1,0.1"
                 fill="#d3cdbf" />
              <line
                 id="Line_118"
                 x2="45.77"
                 y2="23.809999"
                 transform="translate(120.24,280.3)"
                 fill="none"
                 stroke="#d3cdbf"
                 stroke-width="9"
                 x1="0"
                 y1="0" />
            </g>
          </g>
        </g>
      </g>
      <rect
         id="Rectangle_4013"
         width="79.970001"
         height="79.870003"
         fill="#f8cb26"
         x="240.24001"
         y="80.629997" />
      <rect
         id="Rectangle_4014"
         width="33"
         height="80"
         fill="#308798"
         x="287.23001"
         y="80.589996" />
      <g
         id="Group_2999">
        <g
           id="Group_3015"
           data-name="Group 3015"
           clip-path="url(#clip-path-7)">
          <g
             id="Group_2998">
            <path
               id="Path_4271"
               d="M 217.01,128.31 A 23.716388,23.716388 0 0 1 183.42,94.82 l 0.03,-0.03 a 23.716388,23.716388 0 0 1 33.59,33.49 l -0.03,0.03" />
            <path
               id="Path_4272"
               d="m 296.97,137.35 a 23.716,23.716 0 1 1 -0.02,-33.54 l 0.02,0.02 a 23.75,23.75 0 0 1 0,33.52"
               fill="#ffffff" />
            <path
               id="Path_4273"
               d="m 276.29,61.2 a 23.716,23.716 0 1 1 -0.02,-33.54 l 0.02,0.02 a 23.75,23.75 0 0 1 0,33.52" />
            <line
               id="Line_119"
               x1="17"
               y1="63.009998"
               transform="translate(262.98,57.58)"
               fill="none"
               stroke="#ffffff"
               stroke-width="7"
               x2="0"
               y2="0" />
            <line
               id="Line_120"
               x2="65.720001"
               y2="7.48"
               transform="translate(214.26,113.11)"
               fill="none"
               stroke="#ffffff"
               stroke-width="7"
               x1="0"
               y1="0" />
          </g>
        </g>
      </g>
    </g>
  </g>
</svg>
