<?xml version="1.0" encoding="UTF-8" standalone="no"?>
<svg
   width="163.96854"
   height="29"
   viewBox="0 0 163.96853 29.000002"
   version="1.1"
   id="svg279"
   sodipodi:docname="theme-switch.svg"
   inkscape:version="1.1.2 (0a00cf5339, 2022-02-04)"
   xmlns:inkscape="http://www.inkscape.org/namespaces/inkscape"
   xmlns:sodipodi="http://sodipodi.sourceforge.net/DTD/sodipodi-0.dtd"
   xmlns="http://www.w3.org/2000/svg"
   xmlns:svg="http://www.w3.org/2000/svg">
  <sodipodi:namedview
     id="namedview281"
     pagecolor="#ffffff"
     bordercolor="#666666"
     borderopacity="1.0"
     inkscape:pageshadow="2"
     inkscape:pageopacity="0.0"
     inkscape:pagecheckerboard="0"
     showgrid="false"
     fit-margin-top="0"
     fit-margin-left="0"
     fit-margin-right="0"
     fit-margin-bottom="0"
     inkscape:zoom="1.0071354"
     inkscape:cx="-67.021773"
     inkscape:cy="32.7662"
     inkscape:window-width="1366"
     inkscape:window-height="699"
     inkscape:window-x="0"
     inkscape:window-y="0"
     inkscape:window-maximized="1"
     inkscape:current-layer="svg279" />
  <defs
     id="defs263">
    <clipPath
       id="clip-path">
      <path
         id="Path_3419"
         data-name="Path 3419"
         d="m 126.516,461.363 h 78.027 a 21.182,21.182 0 0 1 21.182,21.182 v 0 a 21.182,21.182 0 0 1 -21.182,21.182 h -78.027 a 21.182,21.182 0 0 1 -21.182,-21.182 v 0 a 21.182,21.182 0 0 1 21.182,-21.182 z"
         transform="translate(-105.334,-461.363)"
         fill="none" />
    </clipPath>
    <linearGradient
       id="linear-gradient"
       x1="98.192169"
       y1="783.44562"
       x2="98.192169"
       y2="845.72034"
       gradientUnits="userSpaceOnUse"
       gradientTransform="scale(1.6857708,0.59320045)">
      <stop
         offset="0"
         stop-color="#ffa56a"
         id="stop258" />
      <stop
         offset="1"
         stop-color="#fbf480"
         id="stop260" />
    </linearGradient>
    <linearGradient
       id="linear-gradient-3"
       x1="34.777866"
       x2="34.777866"
       y2="69.555733"
       gradientUnits="userSpaceOnUse"
       gradientTransform="scale(1.6964813,0.58945536)"
       y1="0">
      <stop
         offset="0"
         stop-color="#7a7ffa"
         id="stop232" />
      <stop
         offset="1"
         stop-color="#d2ede6"
         id="stop234" />
    </linearGradient>
  </defs>
  <g
     id="day_mode"
     data-name="day mode"
     transform="matrix(0.68097909,0,0,0.68097909,-71.730251,-314.17854)">
    <g
       id="Group_1694"
       data-name="Group 1694"
       transform="translate(105.334,461.363)">
      <g
         id="Group_1693"
         data-name="Group 1693"
         clip-path="url(#clip-path)">
        <g
           id="Mask_Group_3"
           data-name="Mask Group 3"
           transform="translate(0,0.717)">
          <path
             id="Rectangle_1496"
             data-name="Rectangle 1496"
             d="m 126.516,464.359 h 78.027 a 21.182,21.182 0 0 1 21.182,21.182 v 0 a 21.182,21.182 0 0 1 -21.182,21.182 h -78.027 a 21.182,21.182 0 0 1 -21.182,-21.182 v 0 a 21.182,21.182 0 0 1 21.182,-21.182 z"
             transform="translate(-105.334,-464.359)"
             fill="url(#linear-gradient)"
             style="fill:url(#linear-gradient)" />
          <g
             id="Group_daylight"
             data-name="Group daylight"
             transform="translate(14.19,5.403)">
            <g
               id="Group_1692"
               data-name="Group 1692">
              <circle
                 id="day-_sun_indent-2"
                 data-name="day- sun indent-2"
                 cx="9.5740004"
                 cy="9.5740004"
                 r="9.5740004"
                 fill="#ffffff" />
            </g>
            <path
               id="day-_sun_indent-3"
               data-name="day- sun indent-3"
               d="M 8.257,0 A 8.257,8.257 0 1 1 0,8.257 8.257,8.257 0 0 1 8.257,0 Z"
               transform="translate(1.436,1.436)"
               fill="#f8c05c" />
          </g>
        </g>
      </g>
      <path
         id="Path_3420"
         data-name="Path 3420"
         d="m 126.516,461.363 h 78.027 a 21.182,21.182 0 0 1 21.182,21.182 v 0 a 21.182,21.182 0 0 1 -21.182,21.182 h -78.027 a 21.182,21.182 0 0 1 -21.182,-21.182 v 0 a 21.182,21.182 0 0 1 21.182,-21.182 z"
         transform="translate(-105.334,-461.363)"
         fill="none" />
    </g>
    <path
       id="Path_3421"
       data-name="Path 3421"
       d="m 381.512,479.913 a 19.793,19.793 0 0 0 -6.66,-9.445 23.882,23.882 0 0 0 -4.826,-2.768 20.6,20.6 0 0 0 -7.2,-1.391 c -0.832,-0.018 -3.622,0.027 -3.922,0 -8.678,0.009 -14.568,-0.147 -17.274,0.879 a 7.983,7.983 0 0 0 -5.342,6.854 c -0.39,3.526 -2.561,3.3 -2.661,6.833 0.247,2.428 1.059,3.762 3.075,4.358 1.659,0.471 4.345,0.135 6.511,-0.109 h 14.228 c 0.731,0.038 0.628,1.561 0.628,1.561 0,0 -0.049,1.3 -0.985,1.316 -0.994,0.017 -1.671,0.02 -2.626,0.033 h -13.076 c -4.579,-0.015 -9.161,-0.073 -13.74,-0.033 -6.314,-0.08 -11.887,5.812 -13.311,10.216 a 23.633,23.633 0 0 0 -1.47,7.62 l 12.241,-0.053 h 15.442 c 3.533,0.06 22.326,0.759 26.27,-0.482 a 19.579,19.579 0 0 0 11.862,-7.647 26.6,26.6 0 0 0 2.145,-3.742 20.27,20.27 0 0 0 0.691,-14.007"
       transform="translate(-157.857,-3.225)"
       fill="#efc90a"
       stroke="#ffffff"
       stroke-width="2" />
    <g
       id="Group_1695"
       data-name="Group 1695"
       transform="translate(183.37,467.613)">
      <circle
         id="Ellipse_159"
         data-name="Ellipse 159"
         cx="3.7219999"
         cy="3.7219999"
         r="3.7219999"
         fill="#000202" />
      <circle
         id="Ellipse_160"
         data-name="Ellipse 160"
         cx="0.91000003"
         cy="0.91000003"
         r="0.91000003"
         transform="translate(4.104,1.449)"
         fill="#f9f9f9" />
    </g>
  </g>
  <g
     id="night_mode"
     data-name="night mode"
     transform="matrix(0.69085769,0,0,0.69085769,-668.51498,-937.11737)">
    <g
       id="Group_1881"
       data-name="Group 1881"
       transform="translate(1087,1356.683)">
      <rect
         id="Rectangle_1501"
         data-name="Rectangle 1501"
         width="118"
         height="41"
         rx="20.5"
         fill="url(#linear-gradient)"
         x="0"
         y="0"
         style="fill:url(#linear-gradient-3)" />
    </g>
    <path
       id="Path_3523"
       data-name="Path 3523"
       d="m 106.238,267.035 a 21.076,21.076 0 0 0 0.671,14.091 26.986,26.986 0 0 0 2.083,3.764 18.963,18.963 0 0 0 11.518,7.693 c 3.829,1.248 22.078,0.544 25.508,0.484 h 14.994 l 11.886,0.054 a 24.553,24.553 0 0 0 -1.427,-7.666 c -1.383,-4.431 -6.794,-10.358 -12.925,-10.277 -4.446,-0.041 -8.895,0.018 -13.341,0.033 h -12.7 c -0.927,-0.013 -1.585,-0.015 -2.55,-0.033 -0.909,-0.017 -0.956,-1.324 -0.956,-1.324 0,0 -0.1,-1.532 0.609,-1.571 h 13.816 c 2.1,0.245 4.712,0.583 6.323,0.109 1.957,-0.6 2.745,-1.942 2.985,-4.384 -0.1,-3.55 -2.2,-3.327 -2.584,-6.874 a 7.987,7.987 0 0 0 -5.187,-6.9 c -2.628,-1.033 -8.346,-0.875 -16.773,-0.885 -0.292,0.023 -3,-0.023 -3.808,0 a 19.4,19.4 0 0 0 -6.988,1.4 22.994,22.994 0 0 0 -4.686,2.785 19.913,19.913 0 0 0 -6.467,9.5"
       transform="translate(981.994,1104.113)"
       fill="#86b3e0"
       stroke="#ffffff"
       stroke-width="2" />
    <g
       id="Group_1882"
       data-name="Group 1882"
       transform="translate(1120.19,1364.707)">
      <path
         id="Path_3418"
         data-name="Path 3418"
         d="m 251.84,288.356 c 0,-1.716 1.362,1.531 3.079,1.531 1.717,0 3.137,-3.247 3.137,-1.531 a 3.108,3.108 0 0 1 -6.215,0 z"
         transform="translate(-251.84,-287.855)"
         fill="#000202" />
    </g>
    <path
       id="Subtraction_2"
       data-name="Subtraction 2"
       d="m 485.732,293.021 a 9.166,9.166 0 0 1 -5.414,-1.169 9.247,9.247 0 0 1 -3.709,-3.935 9.227,9.227 0 0 0 12.267,-12.4 9.282,9.282 0 0 1 3.538,2.989 9.22,9.22 0 0 1 -6.683,14.511 z"
       transform="translate(701.806,1087.542)"
       fill="#ffffff" />
    <circle
       id="Ellipse_161"
       data-name="Ellipse 161"
       cx="0.85399997"
       cy="0.85399997"
       r="0.85399997"
       transform="translate(1168.579,1374.249)"
       fill="#fafbfc" />
    <circle
       id="Ellipse_162"
       data-name="Ellipse 162"
       cx="0.85399997"
       cy="0.85399997"
       r="0.85399997"
       transform="translate(1156.464,1368.684)"
       fill="#fafbfc" />
    <circle
       id="Ellipse_163"
       data-name="Ellipse 163"
       cx="0.85399997"
       cy="0.85399997"
       r="0.85399997"
       transform="translate(1172.913,1367.23)"
       fill="#fafbfc" />
    <circle
       id="Ellipse_164"
       data-name="Ellipse 164"
       cx="0.85399997"
       cy="0.85399997"
       r="0.85399997"
       transform="translate(1166.87,1380.373)"
       fill="#fafbfc" />
    <circle
       id="Ellipse_165"
       data-name="Ellipse 165"
       cx="0.85399997"
       cy="0.85399997"
       r="0.85399997"
       transform="translate(1141.218,1375.481)"
       fill="#fafbfc" />
    <circle
       id="Ellipse_166"
       data-name="Ellipse 166"
       cx="0.85399997"
       cy="0.85399997"
       r="0.85399997"
       transform="translate(1154.038,1377.48)"
       fill="#fafbfc" />
  </g>
</svg>
