<svg id="Layer_1" data-name="Layer 1" xmlns="http://www.w3.org/2000/svg" viewBox="0 0 416.12 146.4"><defs><style>.cls-1{fill:#267989;}.cls-2{fill:#339094;}.cls-3{fill:#fae1c9;}.cls-4{fill:#145e70;}.cls-5{fill:#cc463c;}.cls-6{fill:#d79a29;}</style></defs><g id="Group_109" data-name="Group 109"><g id="Header"><g id="Group_96" data-name="Group 96"><path id="Path_726" data-name="Path 726" class="cls-1" d="M842.78,114.83a41.55,41.55,0,0,1-22.18-6.4,38.59,38.59,0,0,1-13.19-14.34,39.37,39.37,0,0,1-4.8-18.72V48.2a18.71,18.71,0,0,1,18.68-18.68h20.25a18.55,18.55,0,0,1,7.83,1.73,18.62,18.62,0,0,1,7.83-1.73H866a18.55,18.55,0,0,1,9.14,2.41,44.69,44.69,0,0,1,18.2-3.65,47.86,47.86,0,0,1,26,7.92c.2.12.48.31.76.52a18.67,18.67,0,0,1,5.24,24.48,32.66,32.66,0,0,1,5.42,18.16c0,10.5-4.87,20-13.73,26.74-7.56,5.76-16.66,8.68-27.07,8.68a44.92,44.92,0,0,1-24-6.52,42.45,42.45,0,0,1-22.65,6.58Z" transform="translate(-520.62 -22.28)"/><path id="Path_727" data-name="Path 727" class="cls-1" d="M917.91,61.37l1.5-2.07a12.68,12.68,0,0,0-2.83-17.71h0l-.53-.36a41.84,41.84,0,0,0-22.74-6.95,37.48,37.48,0,0,0-18.74,4.64,12.66,12.66,0,0,0-8.6-3.39H857.2a12.57,12.57,0,0,0-7.83,2.71,12.55,12.55,0,0,0-7.82-2.71H821.29A12.7,12.7,0,0,0,808.61,48.2V75.36a33.44,33.44,0,0,0,4.1,15.92,32.4,32.4,0,0,0,11.09,12.07,35.45,35.45,0,0,0,19,5.48h.48a36.18,36.18,0,0,0,22.6-7.9,38.42,38.42,0,0,0,24.07,7.85c9.06,0,16.94-2.51,23.43-7.45,7.33-5.59,11.37-13.39,11.37-22A26.66,26.66,0,0,0,917.91,61.37Z" transform="translate(-520.62 -22.28)"/><path id="Path_728" data-name="Path 728" class="cls-1" d="M714.75,168.68A38,38,0,0,1,703,166.81a23.36,23.36,0,0,1-6.33.88H666.9a22.82,22.82,0,0,1-19.13-35.29l1.5-2.32a23.12,23.12,0,0,1-3.75-16.85c-1.54-.79-3-1.66-4.51-2.6a22.72,22.72,0,0,1-16,6.58H604.92a22.81,22.81,0,0,1-20.61-13.07,22.75,22.75,0,0,1-20.64,13.07H543.42a22.83,22.83,0,0,1-22.8-22.8V47.82A22.83,22.83,0,0,1,543.42,25h24.52a43.71,43.71,0,0,1,13.57,2.14A22.71,22.71,0,0,1,591.14,25H614a23,23,0,0,1,7.57,1.29A22.92,22.92,0,0,1,629.12,25h9.67a22.42,22.42,0,0,1,10.37,2.51,51.21,51.21,0,0,1,19.24-3.82h.3a51.92,51.92,0,0,1,24.29,6,49.55,49.55,0,0,1,45.2-1.11A22.61,22.61,0,0,1,750.48,25h8.45a22.7,22.7,0,0,1,12.65,3.83l.73.49A22.71,22.71,0,0,1,785.64,25h8.76a22.71,22.71,0,0,1,12,3.48,24.57,24.57,0,0,1,14.85-5h20.26a24.86,24.86,0,0,1,7.83,1.29,24.76,24.76,0,0,1,7.83-1.29H866a24.83,24.83,0,0,1,9.35,1.86,51.27,51.27,0,0,1,18-3.1,54,54,0,0,1,29.33,8.92c.2.13.58.38,1,.65a24.67,24.67,0,0,1,8.54,29,38.82,38.82,0,0,1,4.62,18.49c0,12.41-5.71,23.6-16.09,31.51-8.63,6.57-19,9.9-30.71,9.9a51.58,51.58,0,0,1-24-5.6,48.29,48.29,0,0,1-22.69,5.66h-.51a47.53,47.53,0,0,1-25.36-7.33,44.68,44.68,0,0,1-5-3.74,21.6,21.6,0,0,1-1.84,2.1,33.36,33.36,0,0,1,1.66,10.49,32.07,32.07,0,0,1-.8,7.37,22.87,22.87,0,0,1,1.87,9v6.1a22.84,22.84,0,0,1-22.83,22.83H730.07a22.92,22.92,0,0,1-4.74-.5A37.86,37.86,0,0,1,714.75,168.68Z" transform="translate(-520.62 -22.28)"/><path id="Path_729" data-name="Path 729" class="cls-1" d="M925.32,61.2a18.68,18.68,0,0,0-5.24-24.48l-.76-.52a47.86,47.86,0,0,0-26-7.92,44.65,44.65,0,0,0-18.2,3.65A18.55,18.55,0,0,0,866,29.52H857.2a18.86,18.86,0,0,0-7.83,1.73,18.93,18.93,0,0,0-7.83-1.73H821.29a18.62,18.62,0,0,0-14.53,7A16.78,16.78,0,0,0,794.4,31h-8.76a16.82,16.82,0,0,0-12.77,5.91l-4.62-3.08A16.72,16.72,0,0,0,758.93,31h-8.45a16.88,16.88,0,0,0-11.67,4.73,43.6,43.6,0,0,0-45.77.93,46.18,46.18,0,0,0-24.31-7h-.32a44.77,44.77,0,0,0-19.68,4.59A16.73,16.73,0,0,0,638.79,31h-9.67a16.66,16.66,0,0,0-7.56,1.79A16.73,16.73,0,0,0,614,31H591.14A16.77,16.77,0,0,0,582,33.71,38.35,38.35,0,0,0,567.94,31H543.42a16.82,16.82,0,0,0-16.8,16.8V94.41a16.82,16.82,0,0,0,16.8,16.8h20.25a16.83,16.83,0,0,0,16.57-14,37.6,37.6,0,0,0,7.88-3.72v1a16.84,16.84,0,0,0,16.8,16.8H625a16.83,16.83,0,0,0,14.84-8.94,43.22,43.22,0,0,0,13,7.6,16.86,16.86,0,0,0,4,19.71l-4,6.09a16.82,16.82,0,0,0,14.1,26h29.74a16.77,16.77,0,0,0,6.37-1.24,32.12,32.12,0,0,0,22.16.5,17,17,0,0,0,4.91.74h30.22c.15,0,.3,0,.45,0h29.72a16.85,16.85,0,0,0,16.83-16.83v-6.09a16.74,16.74,0,0,0-2.26-8.4,26.06,26.06,0,0,0,1.18-8A27.33,27.33,0,0,0,803.33,110a16.82,16.82,0,0,0,7.47-10.65,38.47,38.47,0,0,0,9.8,9.07,41.56,41.56,0,0,0,22.18,6.41h.49a42.45,42.45,0,0,0,22.65-6.58,45,45,0,0,0,24,6.52c10.4,0,19.51-2.92,27.07-8.68,8.85-6.74,13.73-16.24,13.73-26.74A32.77,32.77,0,0,0,925.32,61.2Z" transform="translate(-520.62 -22.28)"/><path id="Path_730" data-name="Path 730" class="cls-1" d="M714.75,168.68A38,38,0,0,1,703,166.81a23.36,23.36,0,0,1-6.33.88H666.9a22.82,22.82,0,0,1-19.13-35.29l1.5-2.32a23.12,23.12,0,0,1-3.75-16.85c-1.54-.79-3-1.66-4.51-2.6a22.72,22.72,0,0,1-16,6.58H604.92a22.81,22.81,0,0,1-20.61-13.07,22.75,22.75,0,0,1-20.64,13.07H543.42a22.83,22.83,0,0,1-22.8-22.8V47.82A22.83,22.83,0,0,1,543.42,25h24.52a43.71,43.71,0,0,1,13.57,2.14A22.71,22.71,0,0,1,591.14,25H614a23,23,0,0,1,7.57,1.29A22.92,22.92,0,0,1,629.12,25h9.67a22.42,22.42,0,0,1,10.37,2.51,51.21,51.21,0,0,1,19.24-3.82h.3a51.92,51.92,0,0,1,24.29,6,49.55,49.55,0,0,1,45.2-1.11A22.61,22.61,0,0,1,750.48,25h8.45a22.7,22.7,0,0,1,12.65,3.83l.73.49A22.71,22.71,0,0,1,785.64,25h8.76a22.71,22.71,0,0,1,12,3.48,24.57,24.57,0,0,1,14.85-5h20.26a24.86,24.86,0,0,1,7.83,1.29,24.76,24.76,0,0,1,7.83-1.29H866a24.83,24.83,0,0,1,9.35,1.86,51.27,51.27,0,0,1,18-3.1,54,54,0,0,1,29.33,8.92c.2.13.58.38,1,.65a24.67,24.67,0,0,1,8.54,29,38.82,38.82,0,0,1,4.62,18.49c0,12.41-5.71,23.6-16.09,31.51-8.63,6.57-19,9.9-30.71,9.9a51.58,51.58,0,0,1-24-5.6,48.29,48.29,0,0,1-22.69,5.66h-.51a47.53,47.53,0,0,1-25.36-7.33,44.68,44.68,0,0,1-5-3.74,21.6,21.6,0,0,1-1.84,2.1,33.36,33.36,0,0,1,1.66,10.49,32.07,32.07,0,0,1-.8,7.37,22.87,22.87,0,0,1,1.87,9v6.1a22.84,22.84,0,0,1-22.83,22.83H730.07a22.92,22.92,0,0,1-4.74-.5A37.86,37.86,0,0,1,714.75,168.68Z" transform="translate(-520.62 -22.28)"/><path id="Path_731" data-name="Path 731" class="cls-1" d="M925.32,61.2a18.68,18.68,0,0,0-5.24-24.48l-.76-.52a47.86,47.86,0,0,0-26-7.92,44.65,44.65,0,0,0-18.2,3.65A18.55,18.55,0,0,0,866,29.52H857.2a18.86,18.86,0,0,0-7.83,1.73,18.93,18.93,0,0,0-7.83-1.73H821.29a18.62,18.62,0,0,0-14.53,7A16.78,16.78,0,0,0,794.4,31h-8.76a16.82,16.82,0,0,0-12.77,5.91l-4.62-3.08A16.72,16.72,0,0,0,758.93,31h-8.45a16.88,16.88,0,0,0-11.67,4.73,43.6,43.6,0,0,0-45.77.93,46.18,46.18,0,0,0-24.31-7h-.32a44.77,44.77,0,0,0-19.68,4.59A16.73,16.73,0,0,0,638.79,31h-9.67a16.66,16.66,0,0,0-7.56,1.79A16.73,16.73,0,0,0,614,31H591.14A16.77,16.77,0,0,0,582,33.71,38.35,38.35,0,0,0,567.94,31H543.42a16.82,16.82,0,0,0-16.8,16.8V94.41a16.82,16.82,0,0,0,16.8,16.8h20.25a16.83,16.83,0,0,0,16.57-14,37.6,37.6,0,0,0,7.88-3.72v1a16.84,16.84,0,0,0,16.8,16.8H625a16.83,16.83,0,0,0,14.84-8.94,43.22,43.22,0,0,0,13,7.6,16.86,16.86,0,0,0,4,19.71l-4,6.09a16.82,16.82,0,0,0,14.1,26h29.74a16.77,16.77,0,0,0,6.37-1.24,32.12,32.12,0,0,0,22.16.5,17,17,0,0,0,4.91.74h30.22c.15,0,.3,0,.45,0h29.72a16.85,16.85,0,0,0,16.83-16.83v-6.09a16.74,16.74,0,0,0-2.26-8.4,26.06,26.06,0,0,0,1.18-8A27.33,27.33,0,0,0,803.33,110a16.82,16.82,0,0,0,7.47-10.65,38.47,38.47,0,0,0,9.8,9.07,41.56,41.56,0,0,0,22.18,6.41h.49a42.45,42.45,0,0,0,22.65-6.58,45,45,0,0,0,24,6.52c10.4,0,19.51-2.92,27.07-8.68,8.85-6.74,13.73-16.24,13.73-26.74A32.77,32.77,0,0,0,925.32,61.2Z" transform="translate(-520.62 -22.28)"/><path id="Path_732" data-name="Path 732" class="cls-1" d="M714.75,162.68A32.14,32.14,0,0,1,703,160.45a17,17,0,0,1-6.37,1.24H666.9a16.83,16.83,0,0,1-14.1-26l4-6.08a16.86,16.86,0,0,1-4-19.71,43.35,43.35,0,0,1-13-7.6A16.8,16.8,0,0,1,625,111.21H604.92a16.82,16.82,0,0,1-16.8-16.8v-.94a38.11,38.11,0,0,1-7.88,3.72,16.83,16.83,0,0,1-16.57,14H543.42a16.82,16.82,0,0,1-16.8-16.8V47.82A16.82,16.82,0,0,1,543.42,31h24.51A38.16,38.16,0,0,1,582,33.72a16.74,16.74,0,0,1,9.11-2.7H614a16.86,16.86,0,0,1,7.57,1.79A16.86,16.86,0,0,1,629.12,31h9.66a16.71,16.71,0,0,1,9.94,3.28,44.66,44.66,0,0,1,19.69-4.58h.31a46.14,46.14,0,0,1,24.32,7,43.58,43.58,0,0,1,45.76-.93A16.9,16.9,0,0,1,750.47,31h8.45a16.76,16.76,0,0,1,9.33,2.83l4.61,3.08A16.86,16.86,0,0,1,785.63,31h8.76a16.83,16.83,0,0,1,16.79,16.8v48A16.79,16.79,0,0,1,803.33,110a27.47,27.47,0,0,1,2.88,12.33,26,26,0,0,1-1.18,8,16.77,16.77,0,0,1,2.26,8.4v6.09a16.85,16.85,0,0,1-16.83,16.83H730.07a16.7,16.7,0,0,1-4.91-.74A31.81,31.81,0,0,1,714.75,162.68Z" transform="translate(-520.62 -22.28)"/><path id="Path_733" data-name="Path 733" class="cls-1" d="M794.39,37h-8.76a10.83,10.83,0,0,0-10.57,8.59l-10.14-6.77a10.75,10.75,0,0,0-6-1.82h-8.45a10.82,10.82,0,0,0-10.13,7.08A37.59,37.59,0,0,0,693.1,44l-.18-.15a40.09,40.09,0,0,0-24.16-8.17h-.34a38.83,38.83,0,0,0-20.73,6,10.85,10.85,0,0,0-8.9-4.73h-9.66a10.82,10.82,0,0,0-7.57,3.09A10.78,10.78,0,0,0,614,37H591.14A10.79,10.79,0,0,0,583,40.75a32.3,32.3,0,0,0-15-3.74H543.42a10.82,10.82,0,0,0-10.8,10.8V94.41a10.81,10.81,0,0,0,10.8,10.8h20.25a10.81,10.81,0,0,0,10.8-10.8V92.55a32,32,0,0,0,13.34-6.18,26.54,26.54,0,0,0,6.31-7V94.42a10.82,10.82,0,0,0,10.8,10.8H625a10.82,10.82,0,0,0,10.8-10.8v-6.1A33.57,33.57,0,0,0,642.93,97a37.3,37.3,0,0,0,20.29,9.27,30.23,30.23,0,0,0-3.93,4.38,10.84,10.84,0,0,0,2.3,15.13l3.27,2.35-7,10.8a10.84,10.84,0,0,0,9.08,16.76h29.72a10.91,10.91,0,0,0,6.18-1.92,26.06,26.06,0,0,0,22.37.73,10.87,10.87,0,0,0,4.91,1.18h60.38a10.85,10.85,0,0,0,10.84-10.83v-6.08a10.82,10.82,0,0,0-3-7.5,20.26,20.26,0,0,0,2-9A21.18,21.18,0,0,0,795,108.24c-.51-.6-1.05-1.16-1.6-1.7.34,0,.68,0,1,0h0a10.8,10.8,0,0,0,10.8-10.8v-48A10.83,10.83,0,0,0,794.39,37Z" transform="translate(-520.62 -22.28)"/></g><g id="Group_97" data-name="Group 97"><path id="Path_734" data-name="Path 734" class="cls-2" d="M917.91,61.37l1.5-2.07a12.68,12.68,0,0,0-2.83-17.71h0l-.53-.36a41.79,41.79,0,0,0-22.74-6.95,37.51,37.51,0,0,0-18.74,4.64,12.66,12.66,0,0,0-8.6-3.39H857.2a12.53,12.53,0,0,0-7.82,2.71,12.57,12.57,0,0,0-7.83-2.71H821.29A12.68,12.68,0,0,0,808.62,48.2V75.36a33.21,33.21,0,0,0,4.1,15.92,32.37,32.37,0,0,0,11.08,12.07,35.48,35.48,0,0,0,19,5.48h.48a36.18,36.18,0,0,0,22.6-7.9,38.42,38.42,0,0,0,24.07,7.85c9.06,0,16.94-2.51,23.44-7.45,7.32-5.59,11.36-13.39,11.36-22A26.66,26.66,0,0,0,917.91,61.37Z" transform="translate(-520.62 -22.28)"/><path id="Path_735" data-name="Path 735" class="cls-2" d="M925.33,61.2a18.7,18.7,0,0,0-5.25-24.48l-.76-.52a47.86,47.86,0,0,0-26-7.92,44.69,44.69,0,0,0-18.2,3.65A18.55,18.55,0,0,0,866,29.52H857.2a18.93,18.93,0,0,0-7.83,1.73,18.86,18.86,0,0,0-7.83-1.73H821.29a18.63,18.63,0,0,0-14.53,7A16.78,16.78,0,0,0,794.4,31h-8.76a16.84,16.84,0,0,0-12.77,5.91l-4.61-3.08A16.76,16.76,0,0,0,758.93,31h-8.45a16.9,16.9,0,0,0-11.67,4.73,43.58,43.58,0,0,0-45.76.93,46.24,46.24,0,0,0-24.32-7h-.31a44.81,44.81,0,0,0-19.69,4.59A16.71,16.71,0,0,0,638.79,31h-9.67a16.72,16.72,0,0,0-7.56,1.79A16.73,16.73,0,0,0,614,31H591.14A16.73,16.73,0,0,0,582,33.71,38.44,38.44,0,0,0,567.94,31H543.42a16.82,16.82,0,0,0-16.8,16.8V94.41a16.82,16.82,0,0,0,16.8,16.8h20.25a16.81,16.81,0,0,0,16.57-14,37.92,37.92,0,0,0,7.89-3.72v1a16.82,16.82,0,0,0,16.8,16.8H625a16.83,16.83,0,0,0,14.84-8.94,43.14,43.14,0,0,0,13,7.6,16.86,16.86,0,0,0,4,19.71l-4,6.09a16.82,16.82,0,0,0,14.1,26h29.73a16.77,16.77,0,0,0,6.37-1.24,32.14,32.14,0,0,0,11.75,2.23A31.8,31.8,0,0,0,725.16,161a17,17,0,0,0,4.91.74h30.22c.15,0,.3,0,.45,0h29.72a16.85,16.85,0,0,0,16.83-16.83v-6.09a16.74,16.74,0,0,0-2.26-8.4,25.76,25.76,0,0,0,1.18-8A27.33,27.33,0,0,0,803.33,110a16.82,16.82,0,0,0,7.47-10.65,38.64,38.64,0,0,0,9.8,9.07,41.56,41.56,0,0,0,22.18,6.41h.49a42.43,42.43,0,0,0,22.65-6.58,45,45,0,0,0,24,6.52c10.4,0,19.51-2.92,27.07-8.68,8.85-6.74,13.73-16.24,13.73-26.74A32.76,32.76,0,0,0,925.33,61.2Z" transform="translate(-520.62 -22.28)"/><path id="Path_736" data-name="Path 736" class="cls-2" d="M925.33,61.2a18.7,18.7,0,0,0-5.25-24.48l-.76-.52a47.86,47.86,0,0,0-26-7.92,44.69,44.69,0,0,0-18.2,3.65A18.55,18.55,0,0,0,866,29.52H857.2a18.93,18.93,0,0,0-7.83,1.73,18.86,18.86,0,0,0-7.83-1.73H821.29a18.63,18.63,0,0,0-14.53,7A16.78,16.78,0,0,0,794.4,31h-8.76a16.84,16.84,0,0,0-12.77,5.91l-4.61-3.08A16.76,16.76,0,0,0,758.93,31h-8.45a16.9,16.9,0,0,0-11.67,4.73,43.58,43.58,0,0,0-45.76.93,46.24,46.24,0,0,0-24.32-7h-.31a44.81,44.81,0,0,0-19.69,4.59A16.71,16.71,0,0,0,638.79,31h-9.67a16.72,16.72,0,0,0-7.56,1.79A16.73,16.73,0,0,0,614,31H591.14A16.73,16.73,0,0,0,582,33.71,38.44,38.44,0,0,0,567.94,31H543.42a16.82,16.82,0,0,0-16.8,16.8V94.41a16.82,16.82,0,0,0,16.8,16.8h20.25a16.81,16.81,0,0,0,16.57-14,37.92,37.92,0,0,0,7.89-3.72v1a16.82,16.82,0,0,0,16.8,16.8H625a16.83,16.83,0,0,0,14.84-8.94,43.14,43.14,0,0,0,13,7.6,16.86,16.86,0,0,0,4,19.71l-4,6.09a16.82,16.82,0,0,0,14.1,26h29.73a16.77,16.77,0,0,0,6.37-1.24,32.14,32.14,0,0,0,11.75,2.23A31.8,31.8,0,0,0,725.16,161a17,17,0,0,0,4.91.74h30.22c.15,0,.3,0,.45,0h29.72a16.85,16.85,0,0,0,16.83-16.83v-6.09a16.74,16.74,0,0,0-2.26-8.4,25.76,25.76,0,0,0,1.18-8A27.33,27.33,0,0,0,803.33,110a16.82,16.82,0,0,0,7.47-10.65,38.64,38.64,0,0,0,9.8,9.07,41.56,41.56,0,0,0,22.18,6.41h.49a42.43,42.43,0,0,0,22.65-6.58,45,45,0,0,0,24,6.52c10.4,0,19.51-2.92,27.07-8.68,8.85-6.74,13.73-16.24,13.73-26.74A32.76,32.76,0,0,0,925.33,61.2Z" transform="translate(-520.62 -22.28)"/><path id="Path_737" data-name="Path 737" class="cls-2" d="M794.39,37h-8.75a10.84,10.84,0,0,0-10.58,8.59l-10.14-6.77a10.75,10.75,0,0,0-6-1.82h-8.44a10.83,10.83,0,0,0-10.14,7.08A37.58,37.58,0,0,0,693.11,44l-.19-.15a40.09,40.09,0,0,0-24.16-8.17h-.33a38.81,38.81,0,0,0-20.73,6A10.86,10.86,0,0,0,638.8,37h-9.67a10.79,10.79,0,0,0-7.56,3.09A10.82,10.82,0,0,0,614,37H591.14A10.75,10.75,0,0,0,583,40.75a32.34,32.34,0,0,0-15-3.74H543.42a10.82,10.82,0,0,0-10.8,10.8V94.41a10.81,10.81,0,0,0,10.8,10.8h20.25a10.81,10.81,0,0,0,10.8-10.8V92.55a32,32,0,0,0,13.35-6.18,26.72,26.72,0,0,0,6.31-7V94.42a10.81,10.81,0,0,0,10.8,10.8H625a10.82,10.82,0,0,0,10.8-10.8v-6.1A33.77,33.77,0,0,0,642.93,97a37.3,37.3,0,0,0,20.29,9.27,30.23,30.23,0,0,0-3.93,4.38,10.84,10.84,0,0,0,2.3,15.13l3.27,2.35-7,10.8a10.84,10.84,0,0,0,9.08,16.76h29.73a10.9,10.9,0,0,0,6.17-1.92,26.06,26.06,0,0,0,22.37.73,10.87,10.87,0,0,0,4.91,1.18h60.39a10.84,10.84,0,0,0,10.83-10.83v-6.08a10.82,10.82,0,0,0-3-7.5,20.4,20.4,0,0,0,2-9A21.24,21.24,0,0,0,795,108.24c-.51-.6-1.05-1.16-1.6-1.7.34,0,.68,0,1,0h0a10.8,10.8,0,0,0,10.8-10.8v-48A10.83,10.83,0,0,0,794.39,37Z" transform="translate(-520.62 -22.28)"/></g><g id="Group_98" data-name="Group 98"><path id="Path_738" data-name="Path 738" class="cls-3" d="M917.91,61.37l1.5-2.07a12.68,12.68,0,0,0-2.83-17.71h0l-.52-.36a41.85,41.85,0,0,0-22.75-6.95,37.54,37.54,0,0,0-18.74,4.64A12.62,12.62,0,0,0,866,35.52H857.2a12.55,12.55,0,0,0-7.82,2.71,12.57,12.57,0,0,0-7.83-2.71H821.29A12.68,12.68,0,0,0,808.62,48.2V75.36a33.21,33.21,0,0,0,4.1,15.92,32.37,32.37,0,0,0,11.08,12.07,35.48,35.48,0,0,0,19,5.48h.48a36.16,36.16,0,0,0,22.6-7.9,38.42,38.42,0,0,0,24.07,7.85c9.06,0,16.95-2.51,23.44-7.45,7.32-5.59,11.36-13.39,11.36-22A26.66,26.66,0,0,0,917.91,61.37Z" transform="translate(-520.62 -22.28)"/><path id="Path_739" data-name="Path 739" class="cls-3" d="M794.4,37h-8.76a10.82,10.82,0,0,0-10.57,8.59l-10.15-6.77a10.75,10.75,0,0,0-6-1.82h-8.44a10.83,10.83,0,0,0-10.14,7.08A37.58,37.58,0,0,0,693.11,44l-.19-.15a40.09,40.09,0,0,0-24.16-8.17h-.33a38.83,38.83,0,0,0-20.73,6A10.86,10.86,0,0,0,638.8,37h-9.67a10.79,10.79,0,0,0-7.56,3.09A10.82,10.82,0,0,0,614,37H591.14A10.75,10.75,0,0,0,583,40.75a32.34,32.34,0,0,0-15-3.74H543.42a10.82,10.82,0,0,0-10.8,10.8V94.41a10.81,10.81,0,0,0,10.8,10.8h20.25a10.8,10.8,0,0,0,10.8-10.8V92.55a32,32,0,0,0,13.35-6.18,26.72,26.72,0,0,0,6.31-7V94.42a10.81,10.81,0,0,0,10.8,10.8H625a10.82,10.82,0,0,0,10.8-10.8v-6.1A33.77,33.77,0,0,0,642.93,97a37.36,37.36,0,0,0,20.3,9.27,29.72,29.72,0,0,0-3.94,4.38,10.84,10.84,0,0,0,2.3,15.13l3.28,2.35-7,10.8a10.84,10.84,0,0,0,9.07,16.76h29.73a10.87,10.87,0,0,0,6.17-1.92,26.06,26.06,0,0,0,22.37.73,10.87,10.87,0,0,0,4.91,1.18h60.39a10.84,10.84,0,0,0,10.83-10.83v-6.08a10.82,10.82,0,0,0-3-7.5,20.4,20.4,0,0,0,2-9A21.24,21.24,0,0,0,795,108.24c-.51-.6-1.05-1.16-1.6-1.7.34,0,.68,0,1,0h0a10.8,10.8,0,0,0,10.8-10.8v-48A10.83,10.83,0,0,0,794.4,37Z" transform="translate(-520.62 -22.28)"/></g><g id="Logo"><g id="Group_4" data-name="Group 4"><g id="Group_100" data-name="Group 100"><path id="Path_85" data-name="Path 85" class="cls-4" d="M910,62.11l4.59-6.33a6.68,6.68,0,0,0-1.48-9.33l-.34-.22a35.72,35.72,0,0,0-19.43-5.95c-7.55,0-14,2.07-19.25,6.17-.5.4-1,.81-1.44,1.22A6.66,6.66,0,0,0,866,41.52H857.2a6.67,6.67,0,0,0-6.67,6.67h0V75.28a5.88,5.88,0,0,1-2.31,4.27V48.2a6.67,6.67,0,0,0-6.67-6.68H821.29a6.68,6.68,0,0,0-6.67,6.68h0V75.35A27.26,27.26,0,0,0,818,88.44a26.33,26.33,0,0,0,9,9.83,29.58,29.58,0,0,0,16,4.56,30.27,30.27,0,0,0,20.18-7.43,31.31,31.31,0,0,0,2.68-2.6c.14.17.29.34.44.5,6.29,6.28,14.25,9.47,23.68,9.47,7.72,0,14.38-2.09,19.8-6.22,5.88-4.49,9-10.43,9-17.19C918.75,74.47,917.13,67.75,910,62.11Z" transform="translate(-520.62 -22.28)"/><path id="Path_744" data-name="Path 744" class="cls-4" d="M843.28,103.08h-.49a29.74,29.74,0,0,1-15.92-4.6,26.54,26.54,0,0,1-9.09-9.93,27.46,27.46,0,0,1-3.41-13.2V48.2a6.93,6.93,0,0,1,6.92-6.93h20.26a6.92,6.92,0,0,1,6.92,6.93V79l0,0a4.66,4.66,0,0,0,1.79-3.71V48.2a6.93,6.93,0,0,1,6.92-6.93H866a7,7,0,0,1,6.84,5.9c.37-.33.73-.63,1.09-.91,5.27-4.13,11.8-6.23,19.4-6.23a35.94,35.94,0,0,1,19.57,6,4.15,4.15,0,0,1,.34.24,6.92,6.92,0,0,1,1.55,9.67l-4.45,6.14c7.17,5.74,8.68,12.56,8.68,17.3,0,6.84-3.14,12.85-9.1,17.39-5.46,4.16-12.17,6.27-19.95,6.27-9.49,0-17.51-3.21-23.84-9.55l-.28-.3a31,31,0,0,1-22.54,9.91Zm-.31-.5a30.54,30.54,0,0,0,22.67-10l.2-.22.18.23a5,5,0,0,0,.44.48c6.23,6.24,14.14,9.4,23.49,9.4,7.66,0,14.27-2.07,19.65-6.17,5.82-4.43,8.9-10.31,8.9-17,0-4.66-1.51-11.4-8.69-17l-.19-.15,4.74-6.53a6.44,6.44,0,0,0-1.44-9l-.31-.22a35.55,35.55,0,0,0-19.3-5.91c-7.49,0-13.92,2.06-19.1,6.12-.46.37-.93.77-1.42,1.21l-.38.35,0-.5a6.45,6.45,0,0,0-6.4-5.93H857.2a6.43,6.43,0,0,0-6.42,6.43V75.29a5.19,5.19,0,0,1-2,4.1c-.14.12-.29.25-.44.36l-.4.31V48.2a6.43,6.43,0,0,0-6.42-6.43H821.29a6.43,6.43,0,0,0-6.42,6.43V75.35a27,27,0,0,0,3.35,13,26.1,26.1,0,0,0,8.92,9.74A29.27,29.27,0,0,0,843,102.58Z" transform="translate(-520.62 -22.28)"/></g><g id="Group_101" data-name="Group 101"><path id="Path_86" data-name="Path 86" class="cls-4" d="M642.91,45.36A4.8,4.8,0,0,0,638.79,43h-9.66a4.82,4.82,0,0,0-4.22,2.51l-3.4,6.28-3.27-6.21A4.81,4.81,0,0,0,614,43H591.14a4.8,4.8,0,0,0-4.8,4.8,4.88,4.88,0,0,0,.58,2.27l1.85,3.44a23.34,23.34,0,0,0-4.64-4.93A26.19,26.19,0,0,0,567.28,43H543.43a4.79,4.79,0,0,0-4.8,4.8V94.41a4.79,4.79,0,0,0,4.8,4.8h20.25a4.8,4.8,0,0,0,4.8-4.8V87.2a25.91,25.91,0,0,0,15.66-5.57,21,21,0,0,0,6.69-24.25l9.3,17.31V94.42a4.81,4.81,0,0,0,4.8,4.8H625a4.81,4.81,0,0,0,4.8-4.8V74.69L643,50.1A4.82,4.82,0,0,0,642.91,45.36ZM568.48,69.18V61.06a7.3,7.3,0,0,1,4.07,1.43,3.1,3.1,0,0,1,1.36,2.67,3,3,0,0,1-1.37,2.59A7.53,7.53,0,0,1,568.48,69.18Z" transform="translate(-520.62 -22.28)"/><path id="Path_745" data-name="Path 745" class="cls-4" d="M625,99.47H604.93a5.06,5.06,0,0,1-5-5V74.75l-8-14.89a21.43,21.43,0,0,1-7.59,22,26.31,26.31,0,0,1-15.56,5.62v7a5.06,5.06,0,0,1-5.05,5H543.43a5,5,0,0,1-5-5V47.82a5.06,5.06,0,0,1,5-5h23.85a26.53,26.53,0,0,1,17,5.65,23.59,23.59,0,0,1,2.91,2.74l-.51-.94a5,5,0,0,1,2.06-6.84,5,5,0,0,1,2.39-.61H614a5,5,0,0,1,4.47,2.7l3,5.8,3.18-5.86a5,5,0,0,1,4.44-2.64h9.66a5,5,0,0,1,4.33,2.46h0a5.05,5.05,0,0,1,.1,5L630,74.75V94.42A5.06,5.06,0,0,1,625,99.47Zm-33.94-42.2,9.33,17.42V94.42A4.56,4.56,0,0,0,604.93,99H625a4.56,4.56,0,0,0,4.55-4.55l0-19.85L642.79,50a4.55,4.55,0,0,0-4-6.71h-9.66a4.54,4.54,0,0,0-4,2.38l-3.63,6.69L618,45.71a4.55,4.55,0,0,0-4-2.44H591.14a4.55,4.55,0,0,0-4.55,4.55,4.5,4.5,0,0,0,.55,2.16L589,53.43l-.43.26A22.82,22.82,0,0,0,584,48.81a26,26,0,0,0-16.69-5.54H543.43a4.55,4.55,0,0,0-4.55,4.55V94.41A4.55,4.55,0,0,0,543.43,99h20.25a4.56,4.56,0,0,0,4.55-4.55V87h.24A25.86,25.86,0,0,0,584,81.44a20.91,20.91,0,0,0,6.62-24ZM568.23,69.45V60.8h.26a7.52,7.52,0,0,1,4.21,1.47,3.34,3.34,0,0,1,1.46,2.88A3.25,3.25,0,0,1,572.67,68a7.62,7.62,0,0,1-4.18,1.48Zm.5-8.12v7.59a7.18,7.18,0,0,0,3.66-1.38,2.75,2.75,0,0,0,1.27-2.38,2.9,2.9,0,0,0-1.25-2.47A7,7,0,0,0,568.73,61.33Z" transform="translate(-520.62 -22.28)"/></g><g id="Group_102" data-name="Group 102"><path id="Path_87" data-name="Path 87" class="cls-4" d="M794.4,43h-8.76a4.8,4.8,0,0,0-4.8,4.8v8.85L761.59,43.83a4.76,4.76,0,0,0-2.66-.81h-8.45a4.8,4.8,0,0,0-4.8,4.8V61.35A28.61,28.61,0,0,0,738,50a31.57,31.57,0,0,0-42.7,0,28.82,28.82,0,0,0-5.73,35.11L686,79.73a4.81,4.81,0,0,0-6.67-1.29c-.12.08-.23.17-.34.26a16.5,16.5,0,0,1-7,3.39V60.18a14.53,14.53,0,0,1,6.35,3.07,4.79,4.79,0,0,0,6.76-.62h0a2.34,2.34,0,0,0,.24-.31l5-7.08a4.8,4.8,0,0,0-1-6.59,33.82,33.82,0,0,0-20.85-6.94,32.84,32.84,0,0,0-21.6,8.15,26,26,0,0,0-6.94,9.42,28.77,28.77,0,0,0-2.54,11.84,27.71,27.71,0,0,0,9.56,21.41,31.38,31.38,0,0,0,21.58,8,35.55,35.55,0,0,0,21.15-7.12,4.82,4.82,0,0,0,1.56-5.85,31,31,0,0,0,4.13,4.66,31.49,31.49,0,0,0,42.8-.16,28.46,28.46,0,0,0,7.54-11.23V94.41a4.8,4.8,0,0,0,4.8,4.8h8.82a4.8,4.8,0,0,0,4.8-4.8V81.19l27.62,18.57a4.8,4.8,0,0,0,6.66-1.3,4.73,4.73,0,0,0,.82-2.68v-48A4.8,4.8,0,0,0,794.4,43ZM729,71.12a10.38,10.38,0,0,1-3.44,8.07,11.87,11.87,0,0,1-4.91,2.73V60.61a13.2,13.2,0,0,1,5.11,2.86A9.75,9.75,0,0,1,729,71.12Z" transform="translate(-520.62 -22.28)"/><path id="Path_746" data-name="Path 746" class="cls-4" d="M667.91,100.84a31.58,31.58,0,0,1-21.17-8.13,27.89,27.89,0,0,1-9.64-21.6,29.06,29.06,0,0,1,2.56-11.94,26.52,26.52,0,0,1,7-9.5,33.06,33.06,0,0,1,21.76-8.21h.32a34.25,34.25,0,0,1,20.68,7,5,5,0,0,1,1.48,6.28,28.82,28.82,0,0,1,4.26-4.9,31.75,31.75,0,0,1,21.51-8.37h0a31.82,31.82,0,0,1,21.52,8.38A28.94,28.94,0,0,1,745.43,60V47.82a5,5,0,0,1,5.05-5h8.45a5.09,5.09,0,0,1,2.8.85L780.58,56.2V47.82a5,5,0,0,1,5-5h8.76a5.05,5.05,0,0,1,5,5v48a5,5,0,0,1-5,5,5.09,5.09,0,0,1-2.83-.86L764.34,81.66V94.41a5,5,0,0,1-5.05,5h-8.82a5,5,0,0,1-5.05-5V82.2a29,29,0,0,1-7.12,10.1,31.89,31.89,0,0,1-43.14.15,30.94,30.94,0,0,1-3.35-3.61,5.06,5.06,0,0,1-2,4.82,36,36,0,0,1-21.28,7.17ZM668.75,42h-.32A32.59,32.59,0,0,0,647,50.05a26,26,0,0,0-6.88,9.32,28.49,28.49,0,0,0-2.52,11.74,27.41,27.41,0,0,0,9.47,21.23,31.1,31.1,0,0,0,21.42,8,35.49,35.49,0,0,0,21-7.08A4.57,4.57,0,0,0,691,87.72l-1-2.23,1.43,2a30.4,30.4,0,0,0,4.09,4.62A31.38,31.38,0,0,0,738,91.93a28.4,28.4,0,0,0,7.48-11.13l.48-1.33v15A4.56,4.56,0,0,0,750.47,99h8.82a4.56,4.56,0,0,0,4.55-4.55V80.72l28,18.83a4.55,4.55,0,0,0,7.09-3.77v-48a4.55,4.55,0,0,0-4.55-4.55h-8.75a4.55,4.55,0,0,0-4.55,4.55v9.32L761.45,44a4.51,4.51,0,0,0-2.52-.77h-8.45a4.56,4.56,0,0,0-4.55,4.55V62.76l-.49-1.32a28.42,28.42,0,0,0-7.57-11.23A31.29,31.29,0,0,0,716.69,42h0a31.2,31.2,0,0,0-21.17,8.24A28.52,28.52,0,0,0,689.83,85l-.42.26-3.67-5.41a4.55,4.55,0,0,0-6.32-1.21,2.43,2.43,0,0,0-.32.24,16.73,16.73,0,0,1-7.05,3.44l-.3.07V59.87l.3.07a14.86,14.86,0,0,1,6.46,3.12,4.53,4.53,0,0,0,6.4-.59h0a3.3,3.3,0,0,0,.22-.3l5-7.07a4.54,4.54,0,0,0-1-6.25A33.73,33.73,0,0,0,668.75,42ZM682,77.37a5.12,5.12,0,0,1,1,.09,5,5,0,0,1,3.23,2.12l1.8,2.65A29,29,0,0,1,690,56.06l-4.49,6.4c-.08.12-.17.23-.26.34a5.05,5.05,0,0,1-7.11.65,14.21,14.21,0,0,0-5.94-3V81.78a16.3,16.3,0,0,0,6.54-3.28l.36-.26A5,5,0,0,1,682,77.37Zm38.46,4.88v-22l.32.1A13.76,13.76,0,0,1,726,63.28a10,10,0,0,1,3.32,7.84,10.55,10.55,0,0,1-3.52,8.26,12,12,0,0,1-5,2.79Zm.5-21.3V81.59A11.55,11.55,0,0,0,725.41,79a10,10,0,0,0,3.36-7.88h0a9.49,9.49,0,0,0-3.15-7.48,13,13,0,0,0-4.69-2.7Zm8.35,10.17Z" transform="translate(-520.62 -22.28)"/></g><g id="Group_103" data-name="Group 103"><path id="Path_88" data-name="Path 88" class="cls-4" d="M790.47,134h-.92l2.35-3.59a14.41,14.41,0,0,0,2.32-8,15.35,15.35,0,0,0-3.82-10.21,19.46,19.46,0,0,0-15.45-6.8,20.09,20.09,0,0,0-15.24,6.78,19.43,19.43,0,0,0-15.42-6.79,20.06,20.06,0,0,0-14.92,6.45,20,20,0,0,0-30,.72c-.47.55-.92,1.12-1.33,1.7a16.74,16.74,0,0,0-1.51-2.06,19.44,19.44,0,0,0-15.44-6.8c-6.84,0-12.71,3.07-17,8.9a4.83,4.83,0,0,0,1,6.75l0,0,4.95,3.55a4.86,4.86,0,0,0,3.68.83l-11,16.84a4.83,4.83,0,0,0,1.41,6.68,4.78,4.78,0,0,0,2.64.79h29.72a4.82,4.82,0,0,0,4.77-4.11,20,20,0,0,0,24.52,1.7,4.83,4.83,0,0,0,4.17,2.4H759.8a4.53,4.53,0,0,0,.52,0,3,3,0,0,0,.43,0h29.72a4.83,4.83,0,0,0,4.83-4.83v-6.07A4.84,4.84,0,0,0,790.47,134Z" transform="translate(-520.62 -22.28)"/><path id="Path_747" data-name="Path 747" class="cls-4" d="M714.75,150.93a20.25,20.25,0,0,1-13.19-4.88,5.05,5.05,0,0,1-4.94,3.89H666.9a5.08,5.08,0,0,1-4.26-7.85l10.68-16.39a5.12,5.12,0,0,1-3.32-.94l-4.94-3.55a5.11,5.11,0,0,1-1.14-7.13h0c4.32-5.89,10.26-9,17.18-9a19.64,19.64,0,0,1,15.64,6.9,17.78,17.78,0,0,1,1.33,1.77c.35-.48.73-1,1.12-1.41a19.67,19.67,0,0,1,15.55-7.22,19.47,19.47,0,0,1,14.62,6.28,20.37,20.37,0,0,1,14.74-6.32h.18a19.58,19.58,0,0,1,15.42,6.65,20.39,20.39,0,0,1,15.07-6.65H775A19.56,19.56,0,0,1,790.59,112a15.6,15.6,0,0,1,3.88,10.37,14.64,14.64,0,0,1-2.36,8.18l-2.09,3.2h.45a5.09,5.09,0,0,1,5.08,5.07v6.08a5.09,5.09,0,0,1-5.08,5.08H760.75l-.36,0h-.09a4.19,4.19,0,0,1-.5,0H730.08a5.13,5.13,0,0,1-4.25-2.31A20.17,20.17,0,0,1,714.75,150.93Zm-13.53-5.84.34.3a19.77,19.77,0,0,0,24.21,1.68l.22-.15.13.24a4.63,4.63,0,0,0,4,2.28H759.8a3.91,3.91,0,0,0,.49,0h.15l.31,0h29.72a4.59,4.59,0,0,0,4.58-4.58v-6.07a4.59,4.59,0,0,0-4.58-4.58h-1.38l2.6-4a14.1,14.1,0,0,0,2.28-7.9,15.09,15.09,0,0,0-3.76-10A19.14,19.14,0,0,0,775,105.57a19.84,19.84,0,0,0-15.06,6.7l-.19.21-.19-.22a19.09,19.09,0,0,0-15.22-6.7,19.91,19.91,0,0,0-14.75,6.37l-.19.2-.18-.2a19.77,19.77,0,0,0-29.6.71c-.47.55-.91,1.12-1.31,1.69l-.22.31-.2-.32a17.34,17.34,0,0,0-1.49-2,19.12,19.12,0,0,0-15.25-6.72c-6.76,0-12.56,3-16.78,8.8a4.57,4.57,0,0,0,1,6.4l5,3.58a4.66,4.66,0,0,0,3.49.79l.57-.1-11.29,17.32a4.58,4.58,0,0,0,3.84,7.08h29.72a4.56,4.56,0,0,0,4.53-3.9Z" transform="translate(-520.62 -22.28)"/></g></g><g id="Group_16" data-name="Group 16"><g id="Group_5" data-name="Group 5"><path id="Path_89" data-name="Path 89" class="cls-5" d="M563.67,80.21v12H543.42V45.61h23.86a21.42,21.42,0,0,1,13.85,4.53,16,16,0,0,1,0,25.53,21.54,21.54,0,0,1-13.91,4.54Zm3.55-8.39a13,13,0,0,0,8.29-2.52,8,8,0,0,0,0-12.79A13,13,0,0,0,567.28,54h-3.6V71.82Z" transform="translate(-520.62 -22.28)"/><path id="Path_90" data-name="Path 90" class="cls-6" d="M567.28,45.61a21.42,21.42,0,0,1,13.85,4.53,16,16,0,0,1,0,25.53,21.54,21.54,0,0,1-13.91,4.54h-3.55v12H543.42V45.61h23.86m-3.6,26.21h3.54a13,13,0,0,0,8.29-2.51,7.76,7.76,0,0,0,3.2-6.37,7.86,7.86,0,0,0-3.17-6.43A12.88,12.88,0,0,0,567.28,54h-3.6V71.82m3.6-27.3H542.34V93.29h22.42v-12h2.45a22.7,22.7,0,0,0,14.6-4.78,17.11,17.11,0,0,0,0-27.23,22.58,22.58,0,0,0-14.53-4.77Zm-2.51,10.56h2.51a12,12,0,0,1,7.59,2.28,6.76,6.76,0,0,1,2.75,5.58,6.67,6.67,0,0,1-2.78,5.51,12,12,0,0,1-7.62,2.28h-2.45V55.08Z" transform="translate(-520.62 -22.28)"/></g><g id="Group_6" data-name="Group 6"><path id="Path_91" data-name="Path 91" class="cls-5" d="M638.79,45.61,625,71.26V92.2H604.93V71.26L591.14,45.61H614l7.44,14.18,7.7-14.18Z" transform="translate(-520.62 -22.28)"/><path id="Path_92" data-name="Path 92" class="cls-6" d="M638.79,45.61,625,71.26V92.2H604.93V71.26L591.14,45.61H614l7.44,14.18,7.7-14.18h9.66m1.82-1.09H628.48l-.31.57-6.72,12.39L615,45.1l-.31-.58H589.32l.87,1.6,13.66,25.41V93.28h22.24V71.54l13.66-25.42.86-1.6Z" transform="translate(-520.62 -22.28)"/></g><g id="Group_7" data-name="Group 7"><path id="Path_93" data-name="Path 93" class="cls-5" d="M681.42,57.35a20.43,20.43,0,0,0-13.55-4.6h-.68V85.11h.62A21.81,21.81,0,0,0,682,80.2l4.84,7.15a30.71,30.71,0,0,1-18.33,6.21,26.65,26.65,0,0,1-18.38-6.83,23,23,0,0,1-8-17.83A23.84,23.84,0,0,1,644.27,59a21.33,21.33,0,0,1,5.65-7.7,28,28,0,0,1,18.52-7,29,29,0,0,1,17.95,6Z" transform="translate(-520.62 -22.28)"/><path id="Path_94" data-name="Path 94" class="cls-6" d="M668.43,44.3a29,29,0,0,1,18,6l-5,7.08a20.48,20.48,0,0,0-13.55-4.6h-.68V85.11h.62A21.72,21.72,0,0,0,682,80.21l4.85,7.14a30.71,30.71,0,0,1-18.33,6.21,26.6,26.6,0,0,1-18.38-6.83,23,23,0,0,1-8-17.83A24,24,0,0,1,644.27,59a21,21,0,0,1,5.65-7.7,28,28,0,0,1,18.51-7m0-1.09a29.17,29.17,0,0,0-19.21,7.28,22.26,22.26,0,0,0-6,8.09,25.11,25.11,0,0,0-2.21,10.31,24.12,24.12,0,0,0,8.31,18.64,27.77,27.77,0,0,0,19.12,7.11,31.83,31.83,0,0,0,19-6.41l.86-.63-.6-.87-4.84-7.14-.66-1-.93.75a20.67,20.67,0,0,1-13,4.66V53.85a19.38,19.38,0,0,1,12.44,4.34l.91.75.68-1,5-7.09.6-.86L687,49.4a30.15,30.15,0,0,0-18.61-6.18Z" transform="translate(-520.62 -22.28)"/></g><g id="Group_8" data-name="Group 8"><path id="Path_95" data-name="Path 95" class="cls-5" d="M716.74,93.56a25.62,25.62,0,0,1-18.14-7,23.86,23.86,0,0,1-1.52-33.7c.49-.53,1-1,1.52-1.52a26.79,26.79,0,0,1,36.16,0,23.77,23.77,0,0,1,1.56,33.58h0a18.66,18.66,0,0,1-1.47,1.48A25.61,25.61,0,0,1,716.74,93.56Zm-.87-8.45c5.35,0,9.67-1.54,13-4.62a15.22,15.22,0,0,0,5-11.59A14.56,14.56,0,0,0,729,57.72q-5-4.53-13.17-5Z" transform="translate(-520.62 -22.28)"/><path id="Path_96" data-name="Path 96" class="cls-6" d="M716.68,44.3a25.61,25.61,0,0,1,18.08,7,23.78,23.78,0,0,1,1.57,33.58h0a20.51,20.51,0,0,1-1.47,1.48,26.7,26.7,0,0,1-36.25.15,23.86,23.86,0,0,1-1.52-33.7c.49-.53,1-1,1.52-1.52a25.61,25.61,0,0,1,18.08-7m-.81,40.82c5.35,0,9.67-1.55,13-4.63a15.19,15.19,0,0,0,5-11.59A14.58,14.58,0,0,0,729,57.72q-5-4.53-13.17-5V85.11m.81-41.9a26.74,26.74,0,0,0-18.82,7.32,24.94,24.94,0,0,0-1.57,35.24c.5.54,1,1.07,1.57,1.57a27.77,27.77,0,0,0,37.73-.16A24.86,24.86,0,0,0,737,52.05h0c-.49-.53-1-1-1.54-1.53a26.75,26.75,0,0,0-18.81-7.31ZM717,84V53.92a19,19,0,0,1,11.35,4.6,13.41,13.41,0,0,1,4.43,10.38,14,14,0,0,1-4.63,10.78A16.92,16.92,0,0,1,717,84Z" transform="translate(-520.62 -22.28)"/></g><g id="Group_9" data-name="Group 9"><path id="Path_97" data-name="Path 97" class="cls-5" d="M794.39,93.56,759.29,70V92.2h-8.82V45.61h8.45l26.71,17.83V45.61h8.76Z" transform="translate(-520.62 -22.28)"/><path id="Path_98" data-name="Path 98" class="cls-6" d="M794.39,45.61v48L759.29,70V92.2h-8.82V45.61h8.45l26.71,17.83V45.61h8.76m1.09-1.09H784.55V61.4l-25-16.7-.28-.19h-9.86V93.28h11V72l33.4,22.47,1.7,1.14V44.52Z" transform="translate(-520.62 -22.28)"/></g><g id="Group_10" data-name="Group 10"><path id="Path_99" data-name="Path 99" class="cls-5" d="M866,45.62V72.78a18.93,18.93,0,0,1-7.15,15A23.69,23.69,0,0,1,843,93.6a23,23,0,0,1-12.43-3.55,19.55,19.55,0,0,1-6.68-7.36,20.44,20.44,0,0,1-2.57-9.91V45.62h20.25V85.14a9.75,9.75,0,0,0,1.43.13,14.72,14.72,0,0,0,10.13-3.67,11.53,11.53,0,0,0,4.1-8.89V45.63Z" transform="translate(-520.62 -22.28)"/><path id="Path_100" data-name="Path 100" class="cls-6" d="M866,45.62V72.78a19,19,0,0,1-7.15,15A23.69,23.69,0,0,1,843,93.6a23,23,0,0,1-12.43-3.55,19.55,19.55,0,0,1-6.68-7.36,20.56,20.56,0,0,1-2.58-9.91V45.62h20.26V85.14a9.75,9.75,0,0,0,1.43.13,14.72,14.72,0,0,0,10.13-3.67,11.53,11.53,0,0,0,4.1-8.89V45.63H866m1.09-1.09H856.11V72.72a10.35,10.35,0,0,1-3.73,8.07,13.49,13.49,0,0,1-9.4,3.39h-.34V44.54H820.2V72.78a21.76,21.76,0,0,0,2.71,10.43A20.74,20.74,0,0,0,830,91a24.11,24.11,0,0,0,13,3.71,24.86,24.86,0,0,0,16.55-6.1,20.08,20.08,0,0,0,7.53-15.8V44.54Z" transform="translate(-520.62 -22.28)"/></g><g id="Group_11" data-name="Group 11"><path id="Path_101" data-name="Path 101" class="cls-5" d="M876.47,79.43q6.39,5.77,13.36,5.78A18.37,18.37,0,0,0,896.66,84l-16-9.82q-8.57-5.26-8.57-13.48,0-6.76,6.06-11.52t15.12-4.76a29.15,29.15,0,0,1,15.85,4.92l-4.91,6.77a17.8,17.8,0,0,0-10.87-3.36,18.79,18.79,0,0,0-5.53.81l15.66,9.65q8.57,5.28,8.57,13.63,0,7-6.37,11.88T890,93.54q-11.43,0-19-7.52Z" transform="translate(-520.62 -22.28)"/><path id="Path_102" data-name="Path 102" class="cls-6" d="M893.31,44.38a29.07,29.07,0,0,1,15.84,4.91l-4.91,6.77a17.73,17.73,0,0,0-10.87-3.35,18.46,18.46,0,0,0-5.53.8l15.66,9.65q8.57,5.28,8.57,13.63,0,7-6.37,11.88T890,93.53q-11.43,0-19-7.52l5.47-6.59q6.39,5.79,13.36,5.78A18.16,18.16,0,0,0,896.66,84l-16-9.82q-8.57-5.28-8.57-13.48,0-6.76,6.06-11.53t15.13-4.75m0-1.09c-6.27,0-11.59,1.68-15.8,5S871,55.82,871,60.66c0,5.85,3.06,10.7,9.09,14.41l13.94,8.57a18.29,18.29,0,0,1-4.23.47c-4.35,0-8.59-1.85-12.63-5.5l-.85-.76-.72.88-5.47,6.58-.63.77.7.7c5.2,5.2,11.83,7.83,19.72,7.83,6.46,0,12-1.71,16.41-5.07s6.8-7.73,6.8-12.76c0-5.93-3.06-10.83-9.09-14.55L890.68,54a20.15,20.15,0,0,1,2.69-.19,16.83,16.83,0,0,1,10.22,3.14l.89.66.64-.89L910,49.93l.68-.94-1-.62a30.36,30.36,0,0,0-16.43-5.08Z" transform="translate(-520.62 -22.28)"/></g><g id="Group_12" data-name="Group 12"><path id="Path_103" data-name="Path 103" class="cls-5" d="M686.77,136.93h9.85V143H666.9l18.17-27.87a8.49,8.49,0,0,0-4-.81q-6.12,0-8.14,4.45l-5-3.55q5.09-6.93,13.09-6.93a14.76,14.76,0,0,1,11.78,5.13,10.53,10.53,0,0,1,2.65,7.06,9.65,9.65,0,0,1-1.52,5.4Z" transform="translate(-520.62 -22.28)"/><path id="Path_104" data-name="Path 104" class="cls-6" d="M681.11,108.29a14.76,14.76,0,0,1,11.78,5.13,10.53,10.53,0,0,1,2.65,7.06,9.58,9.58,0,0,1-1.53,5.4l-7.24,11.06h9.85V143H666.9l18.17-27.89a8.74,8.74,0,0,0-4-.81q-6.12,0-8.14,4.46L668,115.21q5.07-6.92,13.08-6.92m0-1.09c-5.68,0-10.37,2.48-14,7.37l-.65.89.89.64,5,3.55,1.07.78.55-1.21c1.17-2.57,3.5-3.82,7.15-3.82a9.46,9.46,0,0,1,2.31.26L666,142.41l-1.1,1.68h32.82v-8.25h-8.92l6.13-9.37a10.71,10.71,0,0,0,1.71-6,11.67,11.67,0,0,0-2.91-7.77,15.86,15.86,0,0,0-12.61-5.51Z" transform="translate(-520.62 -22.28)"/></g><g id="Group_13" data-name="Group 13"><path id="Path_105" data-name="Path 105" class="cls-5" d="M730.8,126.14a18.41,18.41,0,0,1-4.41,12.37,15.16,15.16,0,0,1-21.34,2,15.75,15.75,0,0,1-2-2,19.74,19.74,0,0,1,0-24.74,15.19,15.19,0,0,1,21.4-1.89,14.23,14.23,0,0,1,1.94,1.94A18.28,18.28,0,0,1,730.8,126.14ZM714.43,138a9.74,9.74,0,0,0,7.33-3.82,13,13,0,0,0,0-16,9.79,9.79,0,0,0-7.33-3.78Z" transform="translate(-520.62 -22.28)"/><path id="Path_106" data-name="Path 106" class="cls-6" d="M714.74,108.33a14.74,14.74,0,0,1,11.65,5.49,19.48,19.48,0,0,1,0,24.69,15.16,15.16,0,0,1-21.34,2,15.75,15.75,0,0,1-2-2,19.72,19.72,0,0,1,0-24.73,14.79,14.79,0,0,1,11.69-5.45M714.43,138a9.74,9.74,0,0,0,7.33-3.82,13,13,0,0,0,0-16,9.79,9.79,0,0,0-7.33-3.78V138m.31-30.73a15.91,15.91,0,0,0-12.51,5.82,20.8,20.8,0,0,0,0,26.16,16.28,16.28,0,0,0,25,0,20.6,20.6,0,0,0,0-26.11,15.84,15.84,0,0,0-12.48-5.87Zm.78,29.5V115.59a8.53,8.53,0,0,1,5.39,3.22,12,12,0,0,1,0,14.66,8.5,8.5,0,0,1-5.39,3.27Z" transform="translate(-520.62 -22.28)"/></g><g id="Group_14" data-name="Group 14"><path id="Path_107" data-name="Path 107" class="cls-5" d="M750,136.93h9.85V143H730.08l18.17-27.87a8.49,8.49,0,0,0-4-.81q-6.12,0-8.14,4.45l-4.95-3.55q5.09-6.93,13.09-6.93a14.76,14.76,0,0,1,11.78,5.13,10.53,10.53,0,0,1,2.65,7.06,9.58,9.58,0,0,1-1.53,5.4Z" transform="translate(-520.62 -22.28)"/><path id="Path_108" data-name="Path 108" class="cls-6" d="M744.29,108.29a14.76,14.76,0,0,1,11.78,5.13,10.58,10.58,0,0,1,2.65,7.06,9.58,9.58,0,0,1-1.53,5.4L750,136.94h9.85V143H730.08l18.16-27.89a8.67,8.67,0,0,0-4-.81q-6.12,0-8.14,4.46l-4.95-3.56q5.09-6.92,13.09-6.92m0-1.09c-5.68,0-10.38,2.48-14,7.37l-.65.89.9.64,4.94,3.55,1.08.78.55-1.21c1.17-2.57,3.5-3.82,7.15-3.82a9.38,9.38,0,0,1,2.3.26l-17.43,26.75-1.1,1.69h32.82v-8.25H752l6.14-9.38a10.67,10.67,0,0,0,1.7-6,11.64,11.64,0,0,0-2.91-7.77,15.89,15.89,0,0,0-12.61-5.51Z" transform="translate(-520.62 -22.28)"/></g><g id="Group_15" data-name="Group 15"><path id="Path_109" data-name="Path 109" class="cls-5" d="M780.62,136.93h9.85V143H760.74l18.17-27.87a8.46,8.46,0,0,0-4-.81q-6.11,0-8.14,4.45l-4.94-3.55q5.07-6.93,13.08-6.93a14.73,14.73,0,0,1,11.78,5.13,10.54,10.54,0,0,1,2.66,7.06,9.74,9.74,0,0,1-1.53,5.4Z" transform="translate(-520.62 -22.28)"/><path id="Path_110" data-name="Path 110" class="cls-6" d="M775,108.29a14.75,14.75,0,0,1,11.78,5.13,10.54,10.54,0,0,1,2.66,7.06,9.74,9.74,0,0,1-1.53,5.4l-7.24,11.06h9.84V143H760.74l18.17-27.88a8.59,8.59,0,0,0-4-.81q-6.11,0-8.14,4.45l-4.94-3.55q5.07-6.93,13.08-6.93m0-1.08c-5.67,0-10.37,2.48-14,7.37l-.65.88.89.65,4.95,3.55,1.08.76.55-1.2c1.16-2.57,3.5-3.82,7.14-3.82a9.41,9.41,0,0,1,2.31.26l-17.43,26.75-1.1,1.68h32.83v-8.25h-8.92l6.13-9.37a10.72,10.72,0,0,0,1.71-6,11.62,11.62,0,0,0-2.91-7.76A15.86,15.86,0,0,0,775,107.2Z" transform="translate(-520.62 -22.28)"/></g></g></g></g></g></svg>